<?xml version="1.0" standalone="no"?>
<!DOCTYPE svg PUBLIC "-//W3C//DTD SVG 1.1//EN" "http://www.w3.org/Graphics/SVG/1.1/DTD/svg11.dtd" >
<svg xmlns="http://www.w3.org/2000/svg">
<metadata>
This is a custom SVG webfont generated by Font Squirrel.
Copyright   : Copyright c David J Perry 2005 All rights reserved
Designer    : David J Perry
Foundry     : David J Perry
Foundry URL : httpscholarsfontsnet
</metadata>
<defs>
<font id="CardoItalic" horiz-adv-x="0" >
<font-face units-per-em="2048" ascent="1638" descent="-410" />
<missing-glyph horiz-adv-x="575" />
<glyph unicode="&#xfb00;" horiz-adv-x="1141" d="M-385 -545q0 24 13 42t39 18q35 0 101.5 -43t102.5 -43q51 0 93 45.5t70 111.5q57 164 95 352l178 877q1 3 1 8q0 23 -37 23h-91l9 39q15 0 38.5 1t64.5 12t45 30q0 2 5.5 28.5t9.5 45.5q10 45 22 87.5t34 98.5t47.5 103.5t64 95.5t83 81.5t104.5 54.5t128 21q29 0 58 -5 t59 -16.5t50 -34.5t24 -55q5 8 17 24q135 188 361 188q57 0 94.5 -30.5t37.5 -63.5q0 -24 -13 -42t-39 -18q-35 0 -91.5 43t-92.5 43q-78 0 -116 -35t-67 -104q-4 -9 -7 -20q-31 -97 -85 -350q-1 -5 -12.5 -64t-11.5 -70q0 -34 31 -34h128l-12 -54h-143q-10 0 -17 -9 t-9.5 -17.5t-5.5 -26.5l-181 -854q-13 -59 -37 -127.5t-69 -150.5t-101 -147t-138 -109t-173 -44q-57 0 -94.5 30.5t-37.5 63.5q0 24 13 42t39 18q35 0 101.5 -43t102.5 -43q51 0 93 45.5t70 111.5q57 164 95 352l178 877q1 3 1 8q0 21 -30 23h-327q-10 0 -17 -9t-9.5 -17.5 t-5.5 -26.5l-181 -854q-13 -59 -37 -127.5t-69 -150.5t-101 -147t-138 -109t-173 -44q-57 0 -94.5 30.5t-37.5 63.5zM474 934q0 -34 31 -34h324q13 0 23 8.5t12 19.5q1 6 13 65.5t15 73.5q58 268 58 273q0 40 -72 88.5t-127 48.5q-78 0 -116 -35t-67 -104 q-28 -82 -40.5 -132.5t-38.5 -183.5q-15 -75 -15 -88z" />
<glyph unicode="&#xfb01;" horiz-adv-x="1086" d="M-385 -545q0 24 13 42t39 18q35 0 101.5 -43t102.5 -43q51 0 93 45.5t70 111.5q57 164 95 352l178 877q1 3 1 8q0 23 -37 23h-91l9 39q15 0 38.5 1t64.5 12t45 30q1 6 13 65.5t15 73.5q8 38 14.5 66t21 76.5t29 85.5t38.5 84.5t50.5 82.5t64.5 71.5t80 59.5t97 37.5 t117 14.5q57 0 94.5 -30.5t37.5 -63.5q0 -24 -13 -42t-39 -18q-35 0 -91.5 43t-92.5 43q-78 0 -116 -35t-67 -104q-41 -119 -92 -370q-1 -5 -12.5 -64t-11.5 -70q0 -34 31 -34h495q-170 -799 -170 -805q0 -12 7.5 -18.5t16.5 -6.5q18 0 44 17t45 35.5t42.5 43t25.5 26.5 l19 -19q-12 -22 -60 -68.5t-112 -89t-102 -42.5q-32 0 -53.5 25t-21.5 61q0 24 34 181q64 290 132 606h-369q-10 0 -17 -9t-9.5 -17.5t-5.5 -26.5l-181 -854q-13 -59 -37 -127.5t-69 -150.5t-101 -147t-138 -109t-173 -44q-57 0 -94.5 30.5t-37.5 63.5z" />
<glyph unicode="&#xfb02;" horiz-adv-x="1094" d="M-385 -545q0 24 13 42t39 18q35 0 101.5 -43t102.5 -43q51 0 93 45.5t70 111.5q57 164 95 352l178 877q1 3 1 8q0 23 -37 23h-91l9 39q15 0 38.5 1t64.5 12t45 30q1 6 13 65.5t15 73.5q8 38 14.5 66t21 76.5t29 85.5t38.5 84.5t50.5 82.5t64.5 71.5t80 59.5t97 37.5 t117 14.5q44 0 76.5 -19t47.5 -46q17 9 32 17.5t25 14t19 10.5t15 8.5t10.5 6t7 4t4.5 2.5t3.5 1.5t2.5 0.5h3q23 0 23 -33q0 -14 -4 -30q-317 -1475 -317 -1485v-4q0 -9 7.5 -15.5t17.5 -6.5q18 0 44 17t45 35.5t42.5 43t25.5 26.5l19 -19q-12 -22 -60 -69t-112 -89.5 t-102 -42.5q-31 0 -53 24t-22 61q0 14 3 27l163 761h-365q-10 0 -17 -9t-9.5 -17.5t-5.5 -26.5l-181 -854q-13 -59 -37 -127.5t-69 -150.5t-101 -147t-138 -109t-173 -44q-57 0 -94.5 30.5t-37.5 63.5zM474 934q0 -34 31 -34h349q112 521 112 528q0 55 -68 102t-125 47 q-78 0 -116 -35t-67 -104q-41 -119 -92 -370q-1 -5 -12.5 -64t-11.5 -70z" />
<glyph unicode="&#xfb03;" horiz-adv-x="1604" d="M-385 -545q0 24 13 42t39 18q35 0 101.5 -43t102.5 -43q51 0 93 45.5t70 111.5q57 164 95 352l178 877q1 3 1 8q0 23 -37 23h-91l9 39q6 0 15.5 0.5t34 2.5t43.5 6t36 13t19 21l18 92q13 64 33.5 127t60.5 137.5t90.5 129.5t128 92.5t168.5 37.5q29 0 58 -5t59 -16.5 t50 -34.5t24 -55l20 28q11 15 31 39q39 44 89 77q18 12 28 17q2 1 8.5 4.5t10.5 5.5q85 41 191 41q57 0 94.5 -30.5t37.5 -63.5q0 -24 -13 -42t-39 -18q-35 0 -91.5 43t-92.5 43q-43 0 -77 -13q-38 -15 -61.5 -46t-43.5 -80q-43 -125 -67 -242l-26 -128q-1 -5 -12.5 -64 t-11.5 -70q0 -34 31 -34h495l-171 -804v-4q0 -9 7.5 -15.5t17.5 -6.5q18 0 44 17t45 35.5t42.5 43t25.5 26.5l19 -19q-12 -22 -60 -69t-112 -89.5t-102 -42.5q-31 0 -53 24t-22 61q0 13 3 27l163 762h-369q-10 0 -17 -9t-9.5 -17.5t-5.5 -26.5l-181 -854q-13 -59 -37 -127.5 t-69 -150.5t-101 -147t-138 -109t-173 -44q-57 0 -94.5 30.5t-37.5 63.5q0 24 13 42t39 18q35 0 101.5 -43t102.5 -43q51 0 93 45.5t70 111.5q57 164 95 352l178 877q1 3 1 8q0 23 -37 23h-321q-10 0 -17 -9t-9.5 -17.5t-5.5 -26.5l-181 -854q-13 -59 -37 -127.5t-69 -150.5 t-101 -147t-138 -109t-173 -44q-57 0 -94.5 30.5t-37.5 63.5zM474 934q0 -34 31 -34h325q13 0 23 8.5t12 19.5q1 6 13 65.5t15 73.5l18 83q39 179 39 183q-2 43 -71.5 93.5t-126.5 50.5q-78 0 -116 -35t-67 -104q-28 -80 -39.5 -125.5t-31.5 -144.5l-17 -85q-7 -39 -7 -49z " />
<glyph unicode="&#xfb04;" horiz-adv-x="1674" d="M-385 -545q0 24 13 42t39 18q35 0 101.5 -43t102.5 -43q51 0 93 45.5t70 111.5q57 164 95 352l178 877q1 3 1 8q0 23 -37 23h-91l9 39q15 0 38.5 1t64.5 12t45 30q2 8 3 16.5t4 22.5q10 45 20 84.5t31.5 101.5t46 111.5t64 104t85 91t109 60.5t136.5 24q29 0 58 -5 t59 -16.5t50 -34.5t24 -55q140 212 379 212q44 0 76.5 -19t47.5 -46q17 9 32 17.5t25 14t19 10.5t15 8.5t10.5 6t7 4t4.5 2.5t3.5 1.5t2.5 0.5h3q23 0 23 -33q0 -14 -4 -30q-317 -1475 -317 -1485v-4q0 -9 7.5 -15.5t17.5 -6.5q18 0 44 17t45 35.5t42.5 43t25.5 26.5l19 -19 q-12 -22 -60 -69t-112 -89.5t-102 -42.5q-31 0 -53 24t-22 61q0 14 3 27l163 761h-365q-10 0 -17 -9t-9.5 -17.5t-5.5 -26.5l-181 -854q-13 -59 -37 -127.5t-69 -150.5t-101 -147t-138 -109t-173 -44q-57 0 -94.5 30.5t-37.5 63.5q0 24 13 42t39 18q35 0 101.5 -43 t102.5 -43q51 0 93 45.5t70 111.5q57 164 95 352l104 513l74 364q1 3 1 8q0 21 -30 23h-329q-10 0 -17 -9t-9.5 -17.5t-5.5 -26.5l-181 -854q-13 -59 -37 -127.5t-69 -150.5t-101 -147t-138 -109t-173 -44q-57 0 -94.5 30.5t-37.5 63.5zM474 934q0 -34 31 -34h326 q31 10 35 28q1 6 13 65.5t15 73.5q56 261 56 266q-2 43 -71.5 93.5t-126.5 50.5q-78 0 -116 -35t-67 -104q-28 -80 -39.5 -125.5t-31.5 -144.5q-1 -5 -12.5 -64t-11.5 -70zM1003 934q0 -34 31 -34h349q112 521 112 528q0 55 -68 102t-125 47q-78 0 -116 -35t-67 -104 q-41 -119 -92 -370q-1 -5 -12.5 -64t-11.5 -70z" />
<glyph unicode="fj" horiz-adv-x="1029" d="M-385 -545q0 24 13 42t39 18q35 0 101.5 -43t102.5 -43q51 0 93 45.5t70 111.5q57 164 95 352l178 877q1 3 1 8q0 23 -37 23h-91l9 39q15 0 38.5 1t64.5 12t45 30q1 6 13 65.5t15 73.5q8 38 14.5 66t21 76.5t29 85.5t38.5 84.5t50.5 82.5t64.5 71.5t80 59.5t97 37.5 t117 14.5q57 0 94.5 -30.5t37.5 -63.5q0 -24 -13 -42t-39 -18q-35 0 -91.5 43t-92.5 43q-78 0 -116 -35t-67 -104q-41 -119 -92 -370q-1 -5 -12.5 -64t-11.5 -70q0 -34 31 -34h427q31 0 53 -24t22 -61q0 -13 -3 -27l-180 -849q-12 -58 -36.5 -127t-67.5 -151t-95 -147 t-125.5 -109t-153.5 -44q-57 0 -94.5 30.5t-37.5 63.5q0 24 13 42t39 18q35 0 91.5 -43t92.5 -43q38 0 77 46.5t66 110.5q40 115 90 353q68 323 109 517.5t52 240.5t18.5 79t15.5 70h-400q-10 0 -17 -9t-9.5 -17.5t-5.5 -26.5l-181 -854q-13 -59 -37 -127.5t-69 -150.5 t-101 -147t-138 -109t-173 -44q-57 0 -94.5 30.5t-37.5 63.5z" />
<glyph />
<glyph />
<glyph unicode="&#xd;" horiz-adv-x="1024" />
<glyph unicode=" "  horiz-adv-x="575" />
<glyph unicode="&#x09;" horiz-adv-x="575" />
<glyph unicode="&#xa0;" horiz-adv-x="575" />
<glyph unicode="!" horiz-adv-x="632" d="M220 83q0 43 35.5 78.5t75.5 35.5q76 0 76 -91q-5 -30 -11.5 -49.5t-19.5 -40.5t-36 -32t-56 -11q-32 0 -48 35t-16 75zM337 378l162 1042q5 31 30 32l108 -5q36 -2 36 -21q0 -5 -1 -9l-276 -1039h-59z" />
<glyph unicode="&#x22;" horiz-adv-x="816" d="M225 856l48 494q4 48 36 75t72 27q31 0 51 -19t20 -45q0 -14 -3 -23l-164 -509h-60zM589 856l48 494q4 48 36 75t72 27q31 0 51 -19t20 -45q0 -14 -3 -23l-164 -509h-60z" />
<glyph unicode="#" horiz-adv-x="1373" d="M215 473l31 121h266l76 350h-279l33 121h272l101 473h127l-101 -473h252l101 473h127l-101 -473h273l-29 -121h-270l-72 -350h276l-28 -121h-275l-106 -508h-133l108 508h-248l-106 -508h-133l108 508h-270zM643 594h248l74 350h-250z" />
<glyph unicode="$" horiz-adv-x="1049" d="M49 300q0 31 24 53t51 22q33 0 49.5 -19.5t22.5 -52t12 -69t26.5 -77.5t57.5 -70l127 597q-85 83 -132 156.5t-47 152.5q0 115 89.5 193t214.5 90l36 167h56l-36 -167q14 -2 52 -8q52 -12 88 -26l43 201h58l-48 -223q89 -40 149 -97.5t60 -124.5q0 -26 -19.5 -45.5 t-46.5 -19.5q-33 0 -59.5 41t-51.5 99t-43 78l-3 3l-104 -488q12 -12 23 -19q91 -76 148.5 -166t57.5 -180q0 -146 -108.5 -232.5t-266.5 -90.5l-39 -187h-58l40 189q-52 3 -93 13q-27 5 -48 13l-46 -215h-56l50 236q-98 45 -164 116.5t-66 156.5zM341 56q33 -17 77 -29 q35 -7 63 -8l108 510q-16 15 -58.5 52.5t-65.5 59.5zM373 1051q0 -39 19 -72.5t69 -96.5l74 348q-71 -8 -116.5 -57t-45.5 -122zM506 831q44 -50 121 -122l103 484q-35 18 -90 30q-14 3 -49 8zM538 22q87 13 155.5 77.5t68.5 152.5q0 102 -126 230z" />
<glyph unicode="%" horiz-adv-x="1745" d="M262 842q0 109 54 234.5t141.5 214t173.5 88.5q105 0 154 -79.5t49 -208.5q0 -69 -19 -146t-55 -149t-82.5 -130.5t-107.5 -94t-125 -35.5q-91 0 -137 88.5t-46 217.5zM300 -55l1407 1553h130l-1408 -1553h-129zM342 740q0 -169 124 -169q68 0 125 65.5t90 163 t50.5 196.5t17.5 179q0 33 -1.5 54t-7.5 45t-17 37.5t-32 23t-51 9.5q-59 0 -110 -44t-84.5 -111.5t-57.5 -150.5t-35 -159.5t-11 -138.5zM1192 279q0 109 54 234.5t141.5 214t173.5 88.5q105 0 154 -79.5t49 -208.5q0 -69 -19 -146t-55 -149t-82.5 -130.5t-107.5 -94 t-125 -35.5q-91 0 -137 88.5t-46 217.5zM1272 177q0 -169 124 -169q68 0 125 65.5t90 163t50.5 196.5t17.5 179q0 33 -1.5 54t-7.5 45t-17 37.5t-32 23t-51 9.5q-59 0 -110 -44t-84.5 -111.5t-57.5 -150.5t-35 -159.5t-11 -138.5z" />
<glyph unicode="&#x26;" horiz-adv-x="1548" d="M20 427q0 127 76.5 232.5t198.5 144.5q18 6 34 9t24.5 4t15.5 2t9 4t2 9q0 11 -5 16t-19 13t-26 19q-57 53 -86 102.5t-29 114.5q0 72 35.5 133t91 101t126 68.5t139 41t130.5 12.5q51 0 111.5 -11.5t124 -35t105.5 -69t42 -105.5q0 -30 -19.5 -52t-49.5 -22 q-48 0 -69.5 33t-33.5 92q-13 60 -76.5 88.5t-128.5 28.5q-156 0 -249 -105.5t-93 -267.5q0 -26 3.5 -47t12 -36.5t16.5 -26.5t23.5 -18.5t27.5 -12t33 -7.5t34.5 -4t38.5 -3t39 -3q24 -2 33.5 -10.5t9.5 -27.5q0 -22 -26 -32.5t-50 -10.5q-62 0 -92.5 -1t-71 -8.5 t-69.5 -22.5q-72 -38 -110.5 -118t-38.5 -196q0 -161 123.5 -276.5t295.5 -115.5q79 0 171.5 28t175.5 75.5t138.5 121.5t55.5 156q0 109 -67.5 163t-180.5 54q-26 0 -58 -5t-64 -22t-32 -42q0 -20 23.5 -47.5t23.5 -45.5q0 -23 -14 -40t-37 -17q-38 0 -60 28.5t-22 67.5 q0 57 34.5 103.5t87.5 73t109.5 41t106.5 14.5q26 0 117 -5.5t139 -5.5q147 0 147 58q0 18 -15 37.5t-15 32.5q0 26 18.5 41.5t44.5 15.5q28 0 45 -27t17 -59q0 -51 -31.5 -90.5t-74.5 -59.5t-96 -33t-86 -16t-55 -3q-27 0 -27 -12q0 -4 4 -10q19 -27 30.5 -45t24.5 -60 t13 -87q0 -79 -38 -149.5t-100 -121t-139.5 -88t-158.5 -55.5t-155 -18q-71 0 -148 12t-161.5 43.5t-150.5 78.5t-109.5 124t-43.5 172z" />
<glyph unicode="'" horiz-adv-x="452" d="M225 856l48 494q4 48 36 75t72 27q31 0 51 -19t20 -45q0 -14 -3 -23l-164 -509h-60z" />
<glyph unicode="(" horiz-adv-x="681" d="M200 237q0 407 176 790t491 695q10 10 16 10q11 0 22 -22.5t11 -34.5q0 -10 -11 -23q-271 -325 -425.5 -685.5t-154.5 -743.5q0 -361 136 -667q2 -4 2 -13q0 -14 -22 -40.5t-39 -26.5q-7 0 -12 10q-84 167 -137 362.5t-53 388.5z" />
<glyph unicode=")" horiz-adv-x="675" d="M-85 -467q0 10 11 23q278 324 433.5 684.5t155.5 744.5q0 345 -144 667q-2 4 -2 12q0 7 1 11q2 10 23.5 33.5t33.5 23.5q5 0 12 -10q201 -322 201 -754q0 -403 -180.5 -791.5t-494.5 -690.5q-11 -10 -16 -10q-11 0 -22.5 22.5t-11.5 34.5z" />
<glyph unicode="*" horiz-adv-x="801" d="M219 1386l18 41l244 -81l85 242l45 -7l-3 -256l255 -8l7 -44l-243 -78l72 -245l-39 -19l-148 208l-212 -144l-32 30l155 205z" />
<glyph unicode="+" horiz-adv-x="1162" d="M265 562v127h375v389h127v-389h370v-127h-370v-385h-127v385h-375z" />
<glyph unicode="," horiz-adv-x="378" d="M-20 -350q0 16 22 29q41 25 69.5 45.5t59 51t46 68t15.5 81.5q0 34 -29.5 91.5t-29.5 90.5q0 9 7 29t27 42t46 22q46 0 80.5 -40.5t34.5 -86.5q0 -146 -86 -265t-225 -187q-6 -3 -10 -3q-12 0 -19.5 9.5t-7.5 22.5z" />
<glyph unicode="-" horiz-adv-x="926" d="M125 427l32 152h704l-32 -152h-704z" />
<glyph unicode="." horiz-adv-x="357" d="M120 83q0 42 32 79t64 37q44 0 67.5 -26.5t23.5 -62.5q0 -52 -31.5 -94.5t-76.5 -42.5q-42 0 -60.5 34.5t-18.5 75.5z" />
<glyph unicode="/" horiz-adv-x="1018" d="M180 -27l718 1479h130l-719 -1479h-129z" />
<glyph unicode="0" horiz-adv-x="1049" d="M178 484q0 135 52 293.5t132.5 291t189 221.5t211.5 89q86 0 150 -37.5t101 -105t54.5 -151.5t17.5 -186q0 -145 -48 -307t-128.5 -300t-198 -228.5t-243.5 -90.5q-74 0 -131.5 42.5t-91 115.5t-50.5 162t-17 191zM305 314q0 -282 197 -282q88 0 164.5 73t127 186 t87.5 250.5t53.5 265t16.5 231.5q0 39 -1 65t-4.5 58.5t-10.5 53t-20 42.5t-31.5 34.5t-45 20.5t-61.5 8q-93 0 -173.5 -73t-134 -186t-92 -250.5t-55.5 -265t-17 -231.5z" />
<glyph unicode="1" horiz-adv-x="1049" d="M224 6l5 26q2 8 10 8q29 2 71 4t59.5 3t41 3.5t36 5.5t22.5 8q14 8 21 24t14 49l221 1065l-17 -11q-165 -112 -278 -161h-2q-3 -1 -5 -1q-5 0 -7 5q-7 19 -7 21t10 8q82 48 201 138t212 178h56q16 0 16 -11q0 -5 -1 -8l-249 -1199q-10 -43 -10 -71q0 -12 9 -21t27.5 -14 t35.5 -8.5t44 -4.5t42 -1.5t39 -0.5q6 0 6 -5l-5 -27q0 -8 -9 -8h-602q-7 0 -7 6z" />
<glyph unicode="2" horiz-adv-x="1049" d="M-18 4q0 39 46 85q67 66 168.5 150.5t187.5 151.5t178 149.5t155.5 153.5t105 152.5t41.5 156.5q0 103 -64.5 178.5t-161.5 75.5q-49 0 -109.5 -19t-113.5 -58q-48 -36 -82.5 -75.5t-48 -66t-24 -48t-18.5 -25.5q-12 -6 -29 -6q-13 0 -13 7q3 12 24 58t62.5 111t81.5 98 q174 146 355 146q152 0 239 -84.5t87 -221.5q0 -51 -12.5 -99t-31.5 -89t-55.5 -85.5t-71 -80t-93.5 -82.5t-106.5 -83t-124.5 -91q-48 -35 -219 -175.5t-173 -152.5h563q27 0 46.5 3.5t37 15.5t27.5 20.5t25 34.5t22 40.5t25 53.5h38l-99 -270q-9 -23 -29 -33h-813h-19 q-4 0 -4 4z" />
<glyph unicode="3" horiz-adv-x="1049" d="M92 131q0 31 26 49t61 18q21 0 45 -17t48.5 -41t53 -47.5t69 -40.5t85.5 -17q80 0 154.5 47t125.5 118.5t82 156.5t31 162q0 103 -55.5 154.5t-136.5 51.5q-25 0 -70 -15.5t-74 -36.5q-4 -2 -6 -2q-14 0 -14 18q0 4 5 10t14 13.5t15.5 12t17.5 11.5l11 8q48 34 69 49 t66.5 50t69 61t52 62t41 73t12.5 75q0 64 -49.5 109.5t-118.5 45.5q-50 0 -98.5 -17t-81.5 -38t-68 -54.5t-50.5 -52t-35.5 -45.5q-1 -1 -5 -1q-5 0 -13 2.5t-13.5 6.5t-5.5 7q53 106 186 204t250 98q125 0 194 -49.5t69 -136.5q0 -95 -78 -191t-214 -169q65 0 116.5 -17.5 t82.5 -44.5t51.5 -63.5t28 -71.5t7.5 -72q0 -93 -41 -185t-108 -163.5t-148.5 -127t-166.5 -85.5t-157 -30q-53 0 -102 6t-105 21t-90 48.5t-34 82.5z" />
<glyph unicode="4" horiz-adv-x="1049" d="M133 409q0 18 10 30l814 917q20 23 44 23q12 0 18 -0.5t11.5 -5t5.5 -12.5q0 -5 -172 -830q-3 -12 -3 -18q0 -7 17 -7h167q28 0 28 -13l-15 -73q-6 -24 -25 -24h-182q-11 0 -13.5 -2.5t-5.5 -16.5l-82 -392q-1 -6 -7 -14t-14 -8h-108q-16 0 -16 15q83 401 83 407 q0 8 -6.5 9.5t-30.5 1.5h-497q-21 0 -21 13zM274 515q0 -9 30 -9h388q18 0 26 20q118 571 118 574q0 19 -19 19q-9 0 -33 -21l-495 -563q-15 -19 -15 -20z" />
<glyph unicode="5" horiz-adv-x="1049" d="M94 98q7 34 34.5 56t58.5 22q28 0 59.5 -23.5t55.5 -52t57.5 -52t63.5 -23.5q77 0 144 32t113 82.5t79 112.5t48.5 122t15.5 110q0 62 -21 108.5t-51.5 72.5t-71 42t-73 20.5t-64.5 4.5q-36 0 -78 -12t-70 -26t-53 -28t-26 -14q-8 -4 -12 -4q-8 0 -8 9l172 681h509 q16 0 26.5 1.5t18.5 7t10.5 7.5t10 12.5t8.5 12.5h41l-59 -169h-525q-21 0 -22 -7l-94 -372q-1 -5 -1 -11q19 16 91 35.5t147 19.5q51 0 97.5 -10.5t94.5 -37t82.5 -68t56.5 -110t22 -156.5q0 -116 -62 -217.5t-156 -165.5t-199.5 -100.5t-198.5 -36.5q-30 0 -70.5 5.5 t-88 18t-80 39t-32.5 62.5z" />
<glyph unicode="6" horiz-adv-x="1049" d="M160 367q0 81 15 155.5t40.5 138t67.5 124t86.5 110.5t106.5 100.5t119.5 90.5t134 84t141.5 78t149 76q30 15 79.5 34t68.5 19q21 0 21 -10q0 -13 -37 -34.5t-93 -48t-75 -37.5q-43 -26 -84.5 -52.5t-104 -71.5t-109 -85t-84.5 -87t-47 -84q3 0 47 16t89 16 q165 0 265 -102t100 -259q0 -146 -79 -277.5t-208.5 -210.5t-270.5 -79q-111 0 -189 56t-113.5 143.5t-35.5 196.5zM319 298q0 -56 10.5 -102.5t33.5 -86.5t65 -62.5t99 -22.5q72 0 133.5 37t102 96t69.5 133t42 146t13 137q0 267 -233 267q-78 0 -143.5 -52t-106 -133.5 t-63 -175t-22.5 -181.5z" />
<glyph unicode="7" horiz-adv-x="1049" d="M147 964l133 353q14 21 21 21h796q22 0 22 -20t-33 -101l-528 -1244h-112l5 23l486 1165q0 15 -15 15h-575q-19 0 -40 -15.5t-31 -34.5l-86 -154q-9 -18 -26 -18t-17 10z" />
<glyph unicode="8" horiz-adv-x="1049" d="M206 308q0 120 151 249q16 13 62 42.5t79 53t33 33.5q0 4 -3 7q-35 44 -53 68.5t-41.5 63.5t-33.5 77t-10 80q0 166 119 281.5t283 115.5q117 0 195.5 -68.5t78.5 -177.5q0 -56 -32 -121.5t-79.5 -119t-101 -95.5t-96.5 -58q43 -43 67.5 -70.5t54.5 -70t45 -88t18 -96.5 q0 -111 -60 -213t-160 -164.5t-211 -62.5q-135 0 -220 84.5t-85 249.5zM324 232q0 -94 52.5 -154t145.5 -60q25 0 58.5 12t72 37.5t70.5 60t53 86.5t21 110q0 42 -35 118t-91.5 140.5t-104.5 64.5q-8 0 -18.5 -5.5t-17 -10.5t-18.5 -16.5t-14 -13.5q-39 -34 -66 -65t-54 -75 t-40.5 -101.5t-13.5 -127.5zM529 1077q0 -40 12.5 -77.5t42 -76.5t49 -61t61.5 -65q12 -14 36 -14q16 0 25.5 4.5t28.5 20.5q75 63 121.5 155.5t46.5 182.5q0 84 -43 137.5t-128 53.5q-103 0 -177.5 -78.5t-74.5 -181.5z" />
<glyph unicode="9" horiz-adv-x="1049" d="M39 -21q0 10 8 18.5t17 11.5q57 21 131 55t163.5 84.5t166 103.5t134.5 116.5t73 120.5q0 4 -8 4q-13 -3 -42 -10t-45.5 -11t-40.5 -8.5t-45.5 -6.5t-42.5 -2q-102 0 -176 49.5t-108 127t-34 171.5q0 101 43.5 205t114.5 186t170.5 133.5t204.5 51.5q182 0 283 -112.5 t101 -287.5q0 -128 -51.5 -258.5t-136.5 -239t-196 -204.5t-228.5 -162.5t-234.5 -105t-214 -38.5q-7 0 -7 8zM367 793q0 -76 23.5 -138t75 -102.5t123.5 -40.5q85 0 149.5 37.5t100.5 93.5t58 133.5t29 143.5t7 138q0 268 -211 268q-108 0 -190 -72t-123.5 -192t-41.5 -269 z" />
<glyph unicode=":" horiz-adv-x="610" d="M180 83q0 42 32 79t64 37q44 0 67.5 -26.5t23.5 -62.5q0 -52 -31.5 -94.5t-76.5 -42.5q-42 0 -60.5 34.5t-18.5 75.5zM338 813q0 42 32 79t64 37q44 0 67.5 -26.5t23.5 -62.5q0 -52 -31.5 -94.5t-76.5 -42.5q-42 0 -60.5 34.5t-18.5 75.5z" />
<glyph unicode=";" horiz-adv-x="593" d="M20 -350q0 16 22 29q41 25 69.5 45.5t59 51t46 68t15.5 81.5q0 34 -29.5 91.5t-29.5 90.5q0 9 7 29t27 42t46 22q46 0 80.5 -40.5t34.5 -86.5q0 -146 -86 -265t-225 -187q-6 -3 -10 -3q-12 0 -19.5 9.5t-7.5 22.5zM321 813q0 42 32 79t64 37q44 0 67.5 -26.5t23.5 -62.5 q0 -52 -31.5 -94.5t-76.5 -42.5q-42 0 -60.5 34.5t-18.5 75.5z" />
<glyph unicode="&#x3c;" horiz-adv-x="983" d="M250 587v72l703 411v-149l-508 -295l508 -303v-154z" />
<glyph unicode="=" horiz-adv-x="1160" d="M265 392v127h870v-127h-870zM265 732v127h870v-127h-870z" />
<glyph unicode="&#x3e;" horiz-adv-x="980" d="M250 169v154l505 303l-505 295v149l700 -414v-71z" />
<glyph unicode="?" horiz-adv-x="867" d="M210 83q0 43 35.5 78.5t75.5 35.5q76 0 76 -91q-5 -30 -11.5 -49.5t-19.5 -40.5t-36 -32t-56 -11q-32 0 -48 35t-16 75zM335 348q0 133 17 219.5t44.5 133t77.5 90.5q36 32 86 63t87 52.5t72 48.5t53.5 63.5t18.5 84.5q0 80 -66.5 124.5t-146.5 44.5q-28 0 -76 -19.5 t-71 -19.5q-43 0 -43 73q0 38 14.5 62t42.5 35t54.5 14.5t64.5 3.5q134 0 218.5 -97.5t84.5 -234.5q0 -58 -8.5 -105t-29 -84t-41.5 -64t-59 -55.5t-66.5 -47.5t-79 -50t-84.5 -54q-40 -27 -63.5 -78t-39 -118t-22.5 -85h-39z" />
<glyph unicode="@" horiz-adv-x="1876" d="M210 446q0 154 44.5 302t127.5 271.5t193.5 217.5t252 147t293.5 53q142 0 264 -38.5t209.5 -105.5t150 -156.5t93 -191t30.5 -209.5q0 -124 -32.5 -237t-87.5 -198t-125.5 -148t-150.5 -95.5t-158 -32.5q-24 0 -41.5 1t-45 4t-46.5 11t-38 20.5t-29 33.5t-10 49 q0 52 11.5 107t12.5 60q0 16 -8 16t-22 -11t-66 -56.5t-99.5 -86.5t-100 -75.5t-79.5 -34.5q-35 0 -60 28.5t-36 74t-15 82.5t-4 71q0 84 42 186q86 209 285.5 347t423.5 138q17 0 17 -28l-151 -692q-4 -29 -4 -41q0 -59 33.5 -92t88.5 -33q83 0 163 58.5t135 148t89 196.5 t34 204q0 102 -26.5 196t-81.5 175t-134 141.5t-189.5 97t-241.5 41.5q-175 -4 -331.5 -80.5t-266.5 -201.5t-174 -291t-64 -343q0 -235 109 -422t299.5 -290.5t427.5 -103.5q269 0 460 144t293 399h77q-104 -271 -318 -435t-512 -183q-192 0 -361 67t-289.5 183.5 t-190.5 283t-70 357.5zM772 329q0 -22 1 -38.5t6 -40t13.5 -39t25.5 -26.5t40 -11q25 13 48.5 28t55 41t49.5 41.5t65 58t70 62.5l99 455q0 16 -27 16q-99 0 -198.5 -52t-150.5 -135q-86 -138 -97 -360z" />
<glyph unicode="A" horiz-adv-x="1558" d="M-20 12q0 4 3 16q5 12 18 12h22q35 0 55.5 13t41.5 41q183 238 542.5 706.5t444.5 579.5q28 37 63 37h26q26 0 35.5 -14t10.5 -40l29 -1213q1 -57 48 -83.5t107 -26.5h44q13 0 13 -15v-11q0 -5 -4 -9.5t-10 -4.5h-621q-14 0 -14 11v19q0 10 12 10q113 0 171 26 q47 20 62 68.5t15 117.5q0 72 -3.5 164t-3.5 124v18q0 12 -2.5 20.5t-15 16t-35.5 7.5h-402q-40 0 -65 -34q-37 -50 -107.5 -141.5t-99.5 -129.5q-2 -3 -14.5 -19t-16 -21.5t-13 -20t-13 -23t-9 -21.5t-7.5 -25.5t-2 -25.5q0 -45 37.5 -73t98.5 -28h49q13 0 13 -11 q-1 -8 -5 -20q-3 -9 -20 -9h-459q-19 0 -19 12zM661 682q0 -5 5 -5h369q22 0 35 13.5t13 36.5q0 82 -5.5 220.5t-5.5 227.5q0 27 -12 27q-7 -1 -23 -21q-28 -38 -85 -112.5t-138 -179.5t-122 -158q0 -1 -10 -13.5t-15.5 -21.5t-5.5 -14z" />
<glyph unicode="B" horiz-adv-x="1306" d="M20 8l7 34q3 8 10 8q35 0 62 4t58.5 15.5t53.5 38.5t31 68l224 1055q5 23 5 46t-8 39t-19 24t-33.5 12.5t-39 5t-48.5 0.5h-68q-7 0 -7 9l8 33q0 10 9 10h575q71 0 135.5 -10t125.5 -34t105.5 -60t71.5 -91.5t27 -124.5q0 -44 -16.5 -84t-40 -69t-57 -55t-61.5 -41.5 t-58.5 -29t-42.5 -18t-20 -6.5q256 -159 256 -343q0 -68 -14 -125.5t-36.5 -99.5t-57 -76t-70 -56.5t-79.5 -39.5t-82.5 -26t-83 -14t-76 -6.5t-66.5 -1.5h-18q-14 0 -51 0.5t-101 0.5h-196h-307q-7 0 -7 8zM422 199q0 -65 74 -109t164 -44q178 0 295 113.5t117 289.5 q0 140 -92 230t-236 90h-178q-24 0 -31 -36q-113 -533 -113 -534zM563 863q0 -28 28 -31q65 -6 121 -6q192 0 301.5 78t109.5 180q0 119 -61 196.5t-193 77.5q-127 0 -165.5 -7t-45.5 -39l-94 -438q-1 -4 -1 -11z" />
<glyph unicode="C" horiz-adv-x="1531" d="M110 629q0 120 39.5 232t107.5 201t160.5 163t197.5 123.5t219.5 76.5t225.5 27q31 0 86 -4t132.5 -15t143.5 -27t112.5 -44.5t45.5 -63.5q0 -21 -15.5 -95.5t-33.5 -132.5q-25 -77 -40 -77q-13 0 -18.5 3t-6.5 14q0 8 -1.5 39t-3 44t-4.5 37t-9 42.5t-15 35.5 q-40 79 -135 130.5t-191 51.5q-154 0 -302.5 -63.5t-260 -169t-180 -251.5t-68.5 -301q0 -160 66 -290t192.5 -207t290.5 -77q160 0 293.5 99.5t178.5 220.5q5 13 7 18t8 12.5t14 10.5t21 3q26 0 26 -17q0 -1 -1.5 -8t-5 -27t-11 -54t-22.5 -102.5t-35 -158.5q-1 -8 -19 -8 q-13 0 -40 6t-43 6q-65 0 -174.5 -31t-168.5 -31q-73 0 -144 9t-148 30.5t-144 54.5t-128 85.5t-104.5 119t-69 159t-25.5 201.5z" />
<glyph unicode="D" horiz-adv-x="1619" d="M0 8l7 34q3 8 10 8q35 0 62 4t58.5 15.5t53.5 38.5t31 68l225 1055q5 23 5 46q0 24 -9 40t-20 24.5t-35 12.5t-40.5 4.5t-49.5 0.5h-63q-7 0 -7 8l7 33q0 10 10 10h578q110 0 218 -19.5t213.5 -64t185.5 -110.5t129.5 -167t49.5 -224q0 -130 -32.5 -247t-108 -224 t-188.5 -184.5t-284 -123.5t-384 -46h-615q-7 0 -7 8zM407 200q0 -65 72.5 -106.5t163.5 -41.5q18 0 45.5 2t81 11t108 23.5t120.5 44t125 68t116 98.5t97.5 133.5t65.5 176.5t25 222t-39.5 213t-104 153t-155.5 98t-186 54.5t-203 15.5q-47 0 -69 -11.5t-29 -41.5 l-232 -1091q-2 -14 -2 -21z" />
<glyph unicode="E" horiz-adv-x="1360" d="M0 8l5 24q3 8 10 8q80 0 122.5 27.5t61.5 115.5q101 475 190 881q40 185 40 205q0 28 -19 49t-50 31.5t-62 15.5t-63 5q-6 0 -6 8l5 24q2 8 10 8h1046q26 0 38 -5t12 -21v-4q0 -2 -0.5 -4.5t-1 -7t-1.5 -10.5t-2.5 -17t-3.5 -24.5t-5 -34.5q-2 -22 -6 -46l-8 -59 q-5 -35 -10 -74q-2 -14 -18 -14q-26 0 -30 23q-2 12 -3 37t-2 31q-10 78 -57.5 126.5t-125.5 48.5h-367q-54 0 -66 -9t-22 -56l-105 -500q-2 -10 -2 -12q0 -25 42 -25h367q66 0 121 43.5t85 99.5q5 9 7.5 11t9.5 2h17q9 0 9 -10q0 -3 -0.5 -4t-0.5 -2l-80 -373 q-2 -8 -3.5 -11.5t-5.5 -6.5t-11 -3q-11 0 -15 4t-5 17q-1 5 -1.5 17t-2 24.5t-4.5 24.5q-13 54 -49.5 73t-101.5 19h-361q-10 0 -24.5 -7.5t-17.5 -19.5q-4 -12 -21 -88q-3 -11 -65 -309q-9 -40 -9 -80q0 -31 11.5 -53t28 -33.5t48 -17.5t57 -7.5t68.5 -1.5q78 0 136 3.5 t103 8t82.5 17.5t63 24t56 36.5t51 45t58.5 58.5q6 7 26 30t33 34.5t22 11.5q29 0 29 -19q0 -9 -13 -41q-22 -50 -39.5 -98t-25.5 -73.5t-16.5 -48t-16 -31.5t-19 -14t-30.5 -5h-1090q-7 0 -7 8z" />
<glyph unicode="F" horiz-adv-x="1351" d="M0 8l5 24q3 8 10 8q80 0 122.5 27.5t61.5 115.5q229 1074 229 1088q0 99 -192 99q-6 0 -6 8l5 24q2 8 10 8h1046q28 0 39 -3.5t11 -18.5q0 -7 -1 -11l-56 -263q-6 -25 -20 -25q-26 0 -30 23q-2 12 -3 37t-2 31q-10 79 -57.5 127t-127.5 48h-339q-58 0 -72.5 -11 t-25.5 -64l-103 -490q-1 -4 -1 -11q0 -26 41 -26h370q66 0 122 43t84 100q6 13 17 13h11q15 0 15 -10q0 -4 -79 -379q-4 -21 -22 -21q-11 0 -14.5 4t-5.5 17q-1 5 -1.5 17t-2 24.5t-4.5 24.5q-13 54 -49.5 73t-101.5 19h-365q-36 0 -45 -30q-4 -15 -24 -108t-45.5 -216.5 t-34.5 -163.5q-4 -22 -4 -31q0 -21 7.5 -37t23 -25.5t31 -15t40.5 -8t41 -3t43 -0.5q6 0 6 -8l-5 -24q-2 -8 -9 -8h-536q-7 0 -7 8z" />
<glyph unicode="G" horiz-adv-x="1625" d="M100 674q0 106 38.5 208.5t104 187t152.5 156.5t183.5 121.5t198.5 77t195 27.5q202 0 298.5 -15t245.5 -67q29 -10 35.5 -18.5t12.5 -46.5q17 -115 17 -230q0 -39 -14 -39q-17 0 -26.5 5.5t-12.5 11.5t-7.5 20.5t-8.5 22.5q-34 76 -71 129t-90 96t-125.5 63.5 t-168.5 20.5q-140 0 -278 -63t-243 -165.5t-170 -243t-65 -285.5q0 -132 34 -242.5t99 -193.5t168.5 -129.5t235.5 -46.5q58 0 114 5.5t119 20t105.5 45t52.5 73.5l49 221q3 12 3 22q0 41 -38.5 64t-89.5 23q-29 0 -29 18t29 18q16 0 217.5 -0.5t210.5 -0.5q33 0 33 -20 q0 -15 -33 -15q-41 0 -71 -25.5t-38 -62.5q-51 -238 -55 -256q-1 -4 -1 -10q0 -34 61 -34q18 0 18 -11q0 -35 -65 -55q-95 -30 -291.5 -56.5t-259.5 -26.5q-166 0 -307 45.5t-246.5 132t-165.5 221t-60 302.5z" />
<glyph unicode="H" horiz-adv-x="1626" d="M20 8l5 24q3 8 10 8q80 0 122.5 27.5t61.5 115.5l227 1067q4 20 4 27q0 51 -48.5 72t-117.5 21q-10 0 -10 10l5 22q2 8 10 8h521q6 0 6 -8l-5 -24q-2 -8 -10 -8q-80 0 -123.5 -27.5t-61.5 -115.5q-76 -363 -90 -425q-1 -2 -1 -3q-2 -10 -2 -13q0 -22 31 -22h712 q11 0 19 6.5t19.5 33t21.5 74.5q83 386 83 396q0 53 -50 74.5t-120 21.5q-6 0 -6 8l5 24q2 8 10 8h521q6 0 6 -8l-5 -24q-2 -8 -10 -8q-80 0 -123.5 -27.5t-62.5 -115.5l-226 -1067q-4 -16 -4 -32q0 -30 16.5 -49.5t49 -27t57 -9.5t63.5 -2q6 0 6 -8l-5 -24q-2 -8 -9 -8 h-536q-7 0 -7 8l5 24q3 8 10 8q80 0 122.5 27.5t61.5 115.5q92 428 92 444q0 61 -52 61h-663q-25 0 -41.5 -19t-22.5 -40.5t-16 -66.5q-89 -418 -89 -431q0 -31 16.5 -51t49 -28t56.5 -10t63 -2q6 0 6 -8l-5 -24q-2 -8 -9 -8h-536q-7 0 -7 8z" />
<glyph unicode="I" horiz-adv-x="667" d="M20 8l5 24q3 8 10 8q80 0 123 27.5t62 115.5q77 362 162 761q68 316 68 331q0 95 -170 95q-6 0 -6 8l5 24q2 8 10 8h521q6 0 6 -8l-5 -24q-2 -8 -10 -8q-80 0 -123 -27.5t-62 -115.5l-227 -1067q-4 -16 -4 -32q0 -30 16.5 -49.5t49 -27t57 -9.5t63.5 -2q6 0 6 -8l-5 -24 q-2 -8 -9 -8h-536q-7 0 -7 8z" />
<glyph unicode="J" horiz-adv-x="678" d="M-425 -608q0 46 32 69t75 23q39 0 122.5 -24.5t115.5 -24.5q68 0 105 40q53 59 111 281q44 171 200 919q69 332 121 575q5 25 5 39q0 49 -41 65t-130 16q-6 0 -6 8l5 24q2 8 10 8h521q6 0 6 -8l-5 -24q-2 -8 -10 -8q-80 0 -123 -27.5t-62 -115.5q-285 -1348 -296 -1391 q-127 -508 -609 -508q-147 0 -147 64z" />
<glyph unicode="K" horiz-adv-x="1556" d="M20 8l5 24q3 8 10 8q80 0 122.5 27.5t61.5 115.5l232 1088q2 10 2 14q0 25 -19 42.5t-48 26.5t-55.5 12.5t-50.5 3.5q-6 0 -6 8l5 24q2 8 10 8h521q6 0 6 -8l-5 -24q-2 -8 -10 -8q-80 0 -123 -27.5t-62 -115.5q-95 -441 -95 -450q0 -8 7 -8q5 0 21 10q135 93 167 118 q67 50 472 338q33 23 42.5 37.5t9.5 48.5q0 29 -12.5 39t-44.5 10h-35q-18 0 -18 13v16q0 11 17 11h497q12 0 12 -11v-17q0 -12 -23 -12q-28 0 -53.5 -5t-40.5 -11t-44 -18.5t-49 -20.5q-47 -18 -117 -63.5t-213 -151.5q-83 -61 -384 -275q-18 -13 -18 -23q0 -5 11 -20 q5 -8 13.5 -17.5t17 -20t11.5 -13.5q30 -36 125 -151t170.5 -205.5t130.5 -153.5q4 -4 29 -33.5t36 -42t37 -37t44 -36.5t43 -22t48 -10h66q9 0 9 -12v-18q0 -10 -13 -10h-343q-56 68 -531 638q-2 2 -7.5 9t-8.5 10t-8.5 9t-9.5 9.5t-9.5 7.5t-10.5 5.5t-10 1.5 q-16 0 -37 -19.5t-30 -53.5l-98 -457q-4 -16 -4 -32q0 -30 16.5 -49.5t49 -27t57 -9.5t63.5 -2q6 0 6 -8l-5 -24q-2 -8 -9 -8h-536q-7 0 -7 8z" />
<glyph unicode="L" horiz-adv-x="1286" d="M20 12q0 1 0.5 2t1 4.5t1.5 8.5q2 13 19 13q78 0 117.5 27t58.5 116q229 1079 229 1088q0 29 -19 50t-50 31t-61 14t-63 4q-6 0 -6 8l5 24q2 8 10 8h587q6 0 6 -8l-5 -24q-2 -8 -10 -8q-41 0 -72 -5t-64.5 -18.5t-56 -44t-31.5 -75.5q-213 -1004 -213 -1033 q0 -72 48 -102.5t138 -30.5q98 0 164.5 3t122 13.5t88.5 21t71 37.5t62 49.5t68 68.5q6 7 26 30t33 34.5t22 11.5q29 0 29 -19q0 -9 -13 -41q-22 -50 -39.5 -98t-25.5 -73.5t-16.5 -48t-16 -31.5t-19 -14t-30.5 -5h-1085q-11 0 -11 12z" />
<glyph unicode="M" horiz-adv-x="1882" d="M20 21q0 4 1 7.5t2 5t4 3.5t4 2.5t6 2t6 2.5q64 23 130 96q17 19 30.5 48t19.5 48t16.5 61t12.5 51q127 470 154 574q7 27 46 171q2 9 11 41t13 48.5t8.5 40t4.5 38.5q0 53 -34 81t-84 28h-41q-11 0 -16 3.5t-6 6.5t-1 10q0 19 23 21h374q31 0 39 -49q7 -53 9 -62 q31 -180 85.5 -533t75.5 -482q4 -19 12 -19q9 0 14 10q46 72 310.5 485.5t393.5 618.5q18 30 47 30h317q16 0 20.5 -4.5t4.5 -15.5q0 -13 -12.5 -17.5t-41.5 -4.5q-69 0 -103 -34.5t-52 -114.5q-43 -193 -43 -205l-172 -813q-3 -15 -3 -29q0 -50 31 -89t78 -43h47 q29 0 29 -17q0 -16 -9 -19.5t-32 -3.5h-539q-20 0 -20 14l1 10q0 16 30 16q56 0 113.5 51.5t70.5 114.5q40 193 179 837l18 87q2 10 2 20q0 11 -6 11q-9 0 -23 -22l-684 -1071q-22 -36 -42 -52t-50 -16q-29 0 -35 55q-108 677 -176 1107q-11 64 -16 64q-6 0 -15.5 -27 t-9.5 -34q-112 -416 -180 -676q-4 -17 -20.5 -74t-23.5 -87q-15 -67 -15 -110q0 -37 10.5 -75.5t38 -70.5t65.5 -32q41 0 41 -14v-13q0 -13 -40 -13h-384q-19 0 -19 21z" />
<glyph unicode="N" horiz-adv-x="1716" d="M17 23q0 14 8 21t28.5 12.5t23.5 6.5q47 18 90 67.5t54 100.5l211 994q1 5 3.5 16.5t4.5 20.5t2 15q0 31 -32 53.5t-69.5 31t-72.5 8.5q-17 0 -24.5 0.5t-13 5t-5.5 13.5q0 13 8 17t31 4h251q41 0 61 -6t31 -17t33 -43l693 -1018q21 -32 26 -32t8 5.5t5.5 16.5t3.5 13 q10 43 23 113q14 71 64.5 304t67.5 313q4 19 11.5 53t11.5 52t7.5 42t3.5 42q0 65 -51 104q-24 18 -118 18q-12 0 -17.5 7t-5.5 12q0 11 5.5 16t23.5 5h441q23 0 23 -21q0 -6 -1 -10t-6.5 -6.5t-15.5 -2.5h-40q-54 0 -97 -33t-56 -73q-16 -48 -29 -117q0 -3 -213 -1004 q-2 -9 -9 -47t-12 -58l-1 -1v-2q-3 -11 -5 -16.5t-8.5 -11.5t-17.5 -6q-10 0 -21 7t-23 22t-20.5 27t-22 33t-18.5 29q-160 234 -293.5 430.5t-197.5 290t-112 163.5t-65.5 95.5t-27.5 41.5q-32 47 -47 47q-12 0 -21 -46q-25 -123 -78 -368t-79 -372q-12 -54 -12 -118 q0 -65 13.5 -117.5t49 -89t89.5 -36.5q34 0 43.5 -3t9.5 -14v-9q0 -8 -4.5 -11t-17.5 -3h-451q-13 0 -18.5 1t-9.5 6t-4 16z" />
<glyph unicode="O" horiz-adv-x="1632" d="M125 651q0 159 63.5 306.5t170 256t252.5 173.5t303 65q180 0 322.5 -47.5t232 -132t136.5 -195.5t47 -241q0 -137 -41.5 -264t-118 -230t-179 -180.5t-230.5 -119.5t-267 -42q-191 0 -350 87.5t-250 237t-91 326.5zM324 625q0 -166 58 -297.5t170 -209t260 -77.5 q122 0 229 52t183 139t131 198.5t82 232.5t27 239q0 109 -31 201.5t-92 164t-159.5 111.5t-224.5 40q-121 0 -225.5 -45.5t-178.5 -123t-126.5 -179.5t-77.5 -215.5t-25 -230.5z" />
<glyph unicode="P" horiz-adv-x="1215" d="M20 8l5 24q3 8 10 8q80 0 123 27.5t61 115.5q5 24 222 1048q6 27 6 46q0 24 -9 40t-20 24.5t-35 12.5t-40.5 4.5t-49.5 0.5h-63q-7 0 -7 8l8 33q0 10 9 10q253 -1 546 -1q64 0 129 -12.5t128.5 -41t112.5 -69t79 -101t30 -133.5q0 -109 -38 -195.5t-101 -142.5 t-150 -93.5t-179.5 -53t-195.5 -15.5q-34 0 -34 17q0 14 9.5 22.5t23.5 8.5q224 0 352.5 118.5t128.5 340.5q0 107 -47 176.5t-123.5 98.5t-182.5 29q-84 0 -94 -51l-245 -1152q-3 -16 -3 -29q0 -31 16.5 -51t49 -28t56.5 -10t63 -2q6 0 6 -8l-5 -24q-2 -8 -9 -8h-536 q-7 0 -7 8z" />
<glyph unicode="Q" horiz-adv-x="1637" d="M125 682q0 168 70.5 314t188.5 245t272.5 155t320.5 56q131 0 255 -47.5t217.5 -129.5t150.5 -201t57 -253q0 -174 -84.5 -339t-226.5 -282t-311 -163q-64 -17 -64 -34q0 -8 30 -31t46 -32q45 -28 113 -70.5t95 -59t70 -40t67.5 -32t56.5 -15t65 -6.5q14 0 45.5 8.5 t46.5 8.5q23 0 23 -26q0 -10 -14 -21q-28 -24 -91.5 -43.5t-126.5 -19.5q-82 0 -161 32t-173 89q-180 108 -241 155q-166 123 -287 159q-123 37 -219 139t-143.5 229t-47.5 255zM318 598q0 -109 35 -208.5t96.5 -174.5t153.5 -119.5t200 -44.5q105 0 199 35.5t165.5 96.5 t129 142.5t94 175t56 192t19.5 194.5q0 154 -56.5 273.5t-170 190t-268.5 70.5q-123 0 -230.5 -48.5t-183.5 -130.5t-131 -188.5t-81.5 -222.5t-26.5 -233z" />
<glyph unicode="R" horiz-adv-x="1507" d="M20 8l5 24q3 8 10 8q80 0 123 27.5t61 115.5q5 24 10 47t18.5 87.5t33.5 157t63.5 298t99.5 468.5q5 25 5 40q0 46 -38.5 62t-128.5 16h-52q-6 0 -6 9l6 26q4 15 13 15h497q263 0 389.5 -82.5t126.5 -271.5q0 -60 -23 -109t-76 -94.5t-111 -81.5t-157 -88 q-28 -14 -28 -28q0 -13 12 -33q26 -44 59 -96t97 -140t123.5 -155t130 -117.5t125.5 -50.5q32 0 51 -1q27 -1 27 -25v-16q0 -20 -31 -20h-75q-81 0 -154 23.5t-128.5 59.5t-112 96t-97 116.5t-91.5 136.5q-12 19 -47 71.5t-60 92.5q-2 3 -7 12.5t-8 13t-9 9.5t-13.5 8 t-17.5 2q-7 0 -60 -3t-71 -3q-14 0 -17 -14l-98 -461q-4 -16 -4 -32q0 -21 8 -36.5t24 -25t31.5 -15t40.5 -8t40.5 -3t41.5 -0.5q6 0 6 -8l-5 -24q-2 -8 -9 -8h-536q-7 0 -7 8zM508 702q0 -16 41 -16q126 0 244.5 49.5t196 142t77.5 204.5q0 131 -77.5 205.5t-211.5 74.5 q-6 0 -23 0.5t-27 0.5q-84 0 -94 -51l-122 -575q-4 -16 -4 -35z" />
<glyph unicode="S" horiz-adv-x="1130" d="M50 162q6 46 24 127t23 108q0 2 3 16.5t5 21.5t6.5 18.5t12 16.5t17.5 5q7 0 11 -1t8.5 -9.5t4.5 -24.5q0 -194 88 -289.5t270 -95.5q126 0 222 74.5t96 194.5q0 72 -43.5 135.5t-115.5 131.5q-27 25 -88.5 75.5t-101 87.5t-84.5 88.5t-68 107.5t-23 115q0 112 60 199.5 t155 132.5t205 45q70 0 119 -14.5t82 -29t64 -14.5q23 0 50 15.5t37 15.5q20 -3 20 -25q-7 -72 -26 -214q-1 -8 -3 -28t-3.5 -33t-5.5 -28t-11 -22.5t-17 -7.5q-28 0 -30 31q-9 137 -87.5 219.5t-223.5 82.5q-97 0 -174.5 -70.5t-77.5 -162.5q0 -32 7 -61t22.5 -55.5 t29.5 -47t40.5 -46t42.5 -40t48 -40.5t45 -38q15 -13 57.5 -48.5t62 -53.5t54.5 -52.5t53 -61t38.5 -62.5t29 -74t8.5 -80q0 -99 -42 -176.5t-114 -124.5t-160 -71t-187 -24q-103 0 -226.5 41.5t-203.5 107.5q-5 5 -5 12z" />
<glyph unicode="T" horiz-adv-x="1423" d="M200 1076l71 343q6 30 26 30q7 0 15 -9.5t25.5 -19.5t46.5 -10h1051q24 0 40 6t20.5 13.5t11 13.5t15.5 6q26 0 26 -23l-66 -320l-6 -27q-1 -10 -11 -10h-13q-5 0 -7 3q-6 6 -11 36q-3 14 -8 43.5t-8.5 48t-11.5 43t-17.5 38.5t-25.5 24t-36 10h-315q-11 0 -16.5 -1 t-12 -7.5t-9.5 -19.5q-199 -931 -237 -1112q-1 -6 -1 -7q-1 -3 -1 -10q0 -40 67 -75.5t125 -41.5q15 -1 57 -1q8 0 8 -8v-24q0 -8 -8 -8h-687q-8 0 -8 8v24q0 8 8 8q42 0 57 1q76 8 127 47.5t62 91.5l236 1107q1 3 1 8q0 20 -31 20h-294q-74 0 -131 -66.5t-76 -140.5 q-1 -5 -3 -14t-3 -15t-2 -7q-2 -3 -10 -3h-23q-7 0 -7 7z" />
<glyph unicode="U" horiz-adv-x="1618" d="M251 403q0 34 8 74q169 792 169 800q0 51 -51 72t-120 21q-6 0 -6 8l5 24q2 8 10 8h521q6 0 6 -8l-5 -24q-2 -8 -10 -8q-80 0 -122.5 -27.5t-60.5 -115.5l-155 -719q-9 -42 -9 -82q0 -104 57 -187.5t143 -126t180 -42.5q223 0 364 109.5t188 329.5l122 572q16 74 16 126 q0 163 -158 163h-28q-21 0 -21 15v10q0 15 19 15h450q15 0 15 -13v-11q0 -4 -4.5 -7.5t-13 -5.5t-16 -3t-18 -2.5t-14.5 -2.5q-27 -6 -40.5 -10t-30.5 -15t-27 -30.5t-17 -49.5l-31 -143q-6 -29 -56.5 -267.5t-82.5 -388.5q-47 -220 -200 -340.5t-381 -120.5 q-108 0 -212.5 27t-190.5 76.5t-139 128t-53 171.5z" />
<glyph unicode="V" horiz-adv-x="1542" d="M250 1389q0 21 27 21h526q21 0 21 -19q0 -8 -7.5 -12.5t-29 -6.5t-63.5 -2q-47 0 -77 -44t-32 -96q-17 -532 -31 -918q0 -2 -0.5 -15t-0.5 -16q0 -14 13 -14q10 0 18 10q599 740 668 824q4 6 18.5 23.5t21.5 25.5t19 24.5t18.5 27t14 24.5t10.5 26t3 23q0 59 -31.5 77 t-99.5 18q-25 0 -25 20q0 8 6.5 14t18.5 6h-19h436q18 0 23.5 -3t5.5 -14q0 -13 -8.5 -18t-31.5 -5t-49.5 -13t-48 -30t-48.5 -46t-41 -46t-36.5 -46t-24.5 -32q-121 -151 -397 -490t-410 -507q-6 -8 -56.5 -71t-69.5 -86q-2 -3 -6 -8l-6 -7l-6 -6t-7.5 -5.5t-9.5 -2.5 t-14 -1h-26q-23 0 -23 22l42 1258q0 57 -42 87t-107 30q-26 0 -26 19z" />
<glyph unicode="W" horiz-adv-x="2162" d="M250 1387q0 15 5.5 19t19.5 4h476q20 0 20 -18q0 -13 -6.5 -17.5t-21.5 -4.5q-151 0 -162 -131q-12 -133 -34 -423t-33 -415q-1 -15 -3 -49t-4 -58q0 -28 13 -28q6 0 16 10q125 169 340 452.5t304 402.5q36 49 36 97q0 59 -46 100.5t-99 41.5q-23 0 -23 20t14 20h505 q16 0 16 -19q0 -21 -22 -21h-18q-137 0 -153 -80q-5 -173 -21.5 -516.5t-21.5 -486.5q0 -13 6 -13q12 0 29 28l31 44q47 67 164.5 229t177.5 250q22 31 71.5 100t99.5 137.5t54 74.5q2 3 60 86q17 25 17 53q0 39 -31 66.5t-87 27.5q-30 0 -30 18q0 22 20 22h368q25 0 25 -20 t-24 -20q-71 0 -90 -27q-169 -231 -499 -694.5t-466 -651.5q-18 -24 -42 -24h-23q-20 0 -20 26q0 3 0.5 10.5t0.5 12.5q8 159 31 744q1 25 5.5 90.5t4.5 101.5q0 61 -12 61q-4 0 -7.5 -2t-8 -7t-7.5 -8t-8.5 -11t-7.5 -10q-130 -166 -371.5 -490.5t-344.5 -458.5l-29 -39 q-15 -20 -51 -20h-24q-20 0 -20 26l96 1233q0 2 2.5 28.5t2.5 29.5v7q0 73 -139 73q-21 0 -21 17z" />
<glyph unicode="X" horiz-adv-x="1542" d="M20 12v15q0 13 14 13h35q55 0 116 41.5t106 90.5l509 546q10 10 10 17q0 5 -4 12l-278 527q-19 35 -38.5 53.5t-63.5 30.5t-117 12h-19q-10 0 -13 2.5t-3 12.5v12q0 14 15 14q91 0 294 -0.5t302 -0.5q13 0 17.5 -2t4.5 -9v-15q0 -10 -3.5 -12t-17.5 -2h-92q-27 0 -48 -20 t-21 -49q0 -20 9 -37q20 -39 62 -119t62 -119q58 -109 62 -115q18 -30 19 -30q6 0 17 13q40 42 102 106.5t106.5 110.5t65.5 69q68 72 68 120q0 34 -21.5 52t-54.5 18h-65q-18 0 -18 13v16q0 11 17 11h497q14 0 14 -12v-14q0 -14 -40 -14q-47 0 -80.5 -13t-86.5 -46 q-246 -250 -440 -457q-33 -36 -33 -55q0 -9 19 -51q8 -16 55 -99q128 -250 199 -382q57 -106 110 -163q17 -18 40 -28.5t58.5 -21t46.5 -14.5q9 -3 9 -12v-18q0 -10 -13 -10h-546q-13 0 -13 10q0 15 1 20q3 10 13 10h39q37 0 74.5 30.5t37.5 67.5q0 25 -10 44 q-27 51 -101 189.5t-115 217.5q-30 57 -48 57q-11 0 -30 -21q-35 -38 -101.5 -110t-124 -134.5t-108.5 -115.5q-6 -7 -22 -22.5t-23 -23.5t-17 -22t-15 -29t-6 -33q0 -36 34 -65.5t70 -29.5h38q18 0 18 -9v-18q0 -13 -16 -13h-507q-13 0 -13 12z" />
<glyph unicode="Y" horiz-adv-x="1484" d="M251 1382v13q0 11 19 14h441q19 0 19 -14v-13q0 -13 -16 -13h-38q-28 0 -54.5 -19.5t-26.5 -57.5q0 -24 15 -59q45 -100 116 -267t110 -255q1 -3 4.5 -10.5t5.5 -12t5.5 -10.5t7 -9t7.5 -3q15 0 42 33q18 22 44 53.5t44 52.5t19 22q62 73 168.5 200.5t152.5 181.5 q30 34 30 74q0 39 -20.5 62.5t-59.5 23.5h-37q-20 0 -20 14v13q0 14 20 14h370q6 0 10.5 -4t4.5 -8v-13q0 -12 -9 -15.5t-28.5 -7t-35.5 -14.5q-47 -31 -150 -156q-92 -111 -272 -324t-257 -305q-11 -58 -36.5 -178t-38.5 -185q-5 -23 -5 -39q0 -56 44.5 -88.5t124.5 -32.5 h47q18 0 18 -13v-14q0 -13 -16 -13h-625q-20 0 -20 15v12q0 13 20 13h60q48 0 88.5 25t62.5 58q17 28 21 49q61 298 73 379q0 12 -16 51q-233 537 -272 627q-60 140 -141 140q-20 0 -20 13z" />
<glyph unicode="Z" horiz-adv-x="1479" d="M20 35q0 28 34 62l1097 1151q5 5 13.5 14t14 15t13 14t12 13.5t9 11.5t6.5 11t2 8q0 20 -37 20h-417q-110 0 -185.5 -35t-137.5 -125q-14 -20 -41 -78.5t-37 -73.5q-13 -18 -31 -18q-23 0 -23 13q0 4 73 330q6 25 18 33t56 8h998q32 0 32 -31q0 -26 -14 -40l-1084 -1139 q-5 -5 -15.5 -16t-17 -18t-15.5 -17t-14.5 -16.5t-11 -14.5t-8 -14t-2.5 -11q0 -16 12 -17h624q117 0 212 72.5t162 198.5q4 6 12 22t13.5 23.5t17 15t26.5 7.5q17 0 17 -17q0 -7 -3 -17l-97 -352q-8 -28 -37 -28h-1219q-27 0 -27 35z" />
<glyph unicode="[" horiz-adv-x="806" d="M120 -342l439 2073h497l-17 -86h-271q-73 0 -89 -73q-133 -627 -275 -1290q-101 -474 -101 -489q0 -49 61 -49h294l-18 -86h-520z" />
<glyph unicode="\" horiz-adv-x="698" d="M70 1452h130l398 -1479h-130z" />
<glyph unicode="]" horiz-adv-x="784" d="M-125 -342l18 86h295q71 0 87 73l374 1755q3 15 3 26q0 47 -59 47h-274l17 86h498l-440 -2073h-519z" />
<glyph unicode="^" horiz-adv-x="886" d="M115 679l421 700h63l412 -700h-148l-295 507l-305 -507h-148z" />
<glyph unicode="_" horiz-adv-x="1014" d="M-16 -205h1046v-115h-1046v115z" />
<glyph unicode="`" horiz-adv-x="700" d="M140 1378q0 30 21 52t51 22q39 0 75 -49l213 -295q4 -4 4 -6t-4 -6l-22 -29q-4 -4 -8 -4q-2 0 -6 4l-269 217q-55 45 -55 94z" />
<glyph unicode="a" horiz-adv-x="918" d="M100 229q0 84 42 186q86 209 285.5 347t423.5 138q17 0 17 -28l-151 -692q-4 -29 -4 -41q0 -14 8 -26t18 -12q12 0 53 36.5t52 36.5q16 0 16 -18q0 -19 -108.5 -103t-136.5 -84q-14 0 -19 4q-30 25 -30 81q0 52 11.5 107t12.5 60q0 16 -8 16t-22 -11t-66 -56.5 t-99.5 -86.5t-100 -75.5t-79.5 -34.5q-35 0 -60 28.5t-36 74t-15 82.5t-4 71zM234 239q0 -22 1 -38.5t6 -40t13.5 -39t25.5 -26.5t40 -11q25 13 48.5 28t55 41t49.5 41.5t65 58t70 62.5l99 455q0 16 -27 16q-99 0 -198.5 -52t-150.5 -135q-86 -138 -97 -360z" />
<glyph unicode="b" horiz-adv-x="895" d="M125 177q0 23 6 50l261 1230q2 10 2 26q0 25 -22 25q-16 0 -28 -5t-90 -42l-13 31q109 58 164.5 87.5t86.5 45t38 18t13 2.5q23 0 23 -33q0 -14 -4 -30q-25 -116 -59 -293t-64 -317.5t-66 -275.5q-2 -6 -2 -10q0 -16 16 -16q7 0 21 11q11 8 87 77t143.5 118t101.5 49 q35 0 61 -29t37.5 -73.5t16.5 -82.5t5 -71q0 -126 -33 -248.5t-94 -223t-156.5 -162.5t-210.5 -62q-27 0 -62.5 9t-78 29t-71.5 63.5t-29 102.5zM257 135q0 -47 28.5 -84t93.5 -37q128 0 250 239q40 78 63.5 190.5t28.5 215.5q0 22 -1 38.5t-6 40t-13.5 39t-25.5 26.5 t-40 11q-31 -16 -66 -42t-56.5 -44t-78.5 -69.5t-84 -75.5l-89 -415q-4 -22 -4 -33z" />
<glyph unicode="c" horiz-adv-x="680" d="M77 192q0 148 48 283.5t122 227t163 145.5t172 54q52 0 75 -20.5t23 -72.5q0 -66 -35 -66q-30 0 -82 33t-80 33q-46 0 -88 -47t-71 -117t-51 -150.5t-32.5 -149t-10.5 -110.5q0 -77 32 -129t101 -52q39 0 76 18t88.5 58t64.5 48l21 -26q-43 -43 -73 -69.5t-73 -55 t-90 -41.5t-101 -13q-102 0 -150.5 59.5t-48.5 159.5z" />
<glyph unicode="d" horiz-adv-x="984" d="M130 229q0 70 25.5 159t74 178t110 164t141.5 122t160 47q33 0 61.5 -21t43.5 -21q10 0 12 11l124 589q4 20 4 26q0 25 -22 25q-16 0 -28 -5t-90 -42l-13 31q279 149 292 152q2 1 6 1q23 0 23 -33q0 -5 -2 -31l-305 -1401q-4 -29 -4 -41q0 -14 8 -26t18 -12q12 0 53 36.5 t52 36.5q16 0 16 -18q0 -19 -108.5 -103t-136.5 -84q-14 0 -19 4q-30 25 -30 81q0 52 11.5 107t12.5 60q0 16 -8 16t-22 -11t-66 -56.5t-99.5 -86.5t-100 -75.5t-79.5 -34.5q-35 0 -60 28.5t-36 74t-15 82.5t-4 71zM264 239q0 -22 1 -38.5t6 -40t13.5 -39t25.5 -26.5t40 -11 q25 13 48.5 28t55 41t49.5 41.5t65 58t70 62.5l85 385q3 16 3 27q0 34 -36 72t-93 38q-127 0 -236 -238q-89 -193 -97 -360z" />
<glyph unicode="e" horiz-adv-x="789" d="M100 279q7 81 34.5 167t75.5 167t109 145t143 103t171 39q68 0 117 -39t49 -105q0 -58 -27.5 -105.5t-67 -77.5t-100 -57t-109.5 -41.5t-113.5 -33t-94.5 -29.5q-32 -74 -32 -153q0 -88 43.5 -146.5t133.5 -58.5q88 0 232 84l14 -25q-20 -15 -49.5 -33.5t-79.5 -45 t-111 -44t-116 -17.5q-58 0 -102.5 25.5t-69.5 69.5t-37.5 96.5t-12.5 114.5zM301 472q0 -10 5.5 -13.5t21.5 -3.5q53 15 94 30t91.5 42t83.5 57.5t56 76.5t23 99q0 44 -20 72.5t-60 28.5q-50 0 -95.5 -28.5t-76 -70t-57 -97.5t-41 -101.5t-25.5 -91.5z" />
<glyph unicode="f" horiz-adv-x="614" d="M-385 -545q0 24 13 42t39 18q35 0 101.5 -43t102.5 -43q51 0 93 45.5t70 111.5q57 164 95 352l178 877q1 3 1 8q0 23 -37 23h-91l9 39q15 0 38.5 1t64.5 12t45 30q1 6 13 65.5t15 73.5q8 38 14.5 66t21 76.5t29 85.5t38.5 84.5t50.5 82.5t64.5 71.5t80 59.5t97 37.5 t117 14.5q57 0 94.5 -30.5t37.5 -63.5q0 -24 -13 -42t-39 -18q-35 0 -91.5 43t-92.5 43q-78 0 -116 -35t-67 -104q-41 -119 -92 -370q-1 -5 -12.5 -64t-11.5 -70q0 -34 31 -34h128l-12 -54h-143q-10 0 -17 -9t-9.5 -17.5t-5.5 -26.5l-181 -854q-13 -59 -37 -127.5 t-69 -150.5t-101 -147t-138 -109t-173 -44q-57 0 -94.5 30.5t-37.5 63.5z" />
<glyph unicode="g" horiz-adv-x="914" d="M-165 -458q0 29 18.5 60.5t42.5 55.5t66.5 54t70 46t76 43.5t62.5 35.5q45 27 56 38l-11 33q-10 30 -10 47q0 19 8.5 37t16 27.5t29 31.5t28.5 30t7 11q0 6 -16.5 23t-39.5 38t-27 26q-40 44 -60 113.5t-20 141.5q0 81 48 166.5t121 150.5t163.5 107t171.5 42 q204 0 245 -16q18 -7 18 -17v-46q0 -7 -6 -11t-12 -4h-118q2 -7 10 -36t13 -48.5t9.5 -54t4.5 -68.5q0 -68 -19.5 -128.5t-57 -112t-75.5 -90t-93 -83.5q-36 -29 -100.5 -57.5t-105 -50t-40.5 -44.5q0 -41 42 -85t101.5 -84.5t119.5 -83t102 -95t42 -106.5q0 -59 -44 -104 t-113 -68.5t-138.5 -35t-134.5 -11.5q-79 0 -141 4t-122 16t-99.5 31.5t-64 52.5t-24.5 78zM-41 -434q0 -43 16.5 -74.5t45 -51t73.5 -31.5t95 -16t118 -4q34 0 79 7t98.5 22t90 48t36.5 77q0 46 -57.5 97.5t-154.5 113t-128 86.5l-13 8q-12 -9 -71.5 -44.5t-104 -65.5 t-84 -78t-39.5 -94zM273 371q0 -50 11.5 -95t44.5 -81.5t83 -36.5t113 66q72 76 108.5 187t36.5 233q0 207 -135 207q-57 0 -107.5 -47.5t-83.5 -120t-52 -155.5t-19 -157z" />
<glyph unicode="h" horiz-adv-x="982" d="M100 0q0 5 16 85l292 1372q4 20 4 26q0 25 -22 25h-6q-2 0 -6 -0.5t-6 -1t-7.5 -3t-9.5 -4t-13 -5.5l-16 -8l-23 -11q-15 -7 -29 -14l-13 31q279 149 292 152q2 1 6 1q23 0 23 -33q0 -6 -6 -30l-227 -1072q0 -10 9 -10q11 0 33 26q333 374 471 374q31 0 53 -24t22 -61 q0 -13 -3 -27l-178 -692v-4q0 -9 7.5 -15.5t17.5 -6.5q18 0 44 17t45 35.5t42.5 43t25.5 26.5l19 -19q-12 -22 -60 -69t-112 -90t-102 -43q-31 0 -53 24.5t-22 61.5q0 13 3 27l178 692v4q0 9 -8.5 15.5t-19.5 6.5q-44 -1 -197.5 -155.5t-218.5 -239.5q-1 -1 -5 -6.5t-6 -7.5 t-5.5 -8t-5.5 -11t-4.5 -13t-4.5 -17l-71 -333q-25 -14 -62.5 -27t-52.5 -13q-13 0 -20.5 8.5t-7.5 20.5z" />
<glyph unicode="i" horiz-adv-x="557" d="M115 699q12 22 60 69t112 89.5t102 42.5q34 0 54.5 -26.5t20.5 -61.5q0 -12 -3 -24q-146 -690 -146 -696q0 -22 24 -22q18 0 44 17t45 35.5t42.5 43t25.5 26.5l19 -19q-12 -22 -60 -68.5t-112 -89t-102 -42.5q-34 0 -54 26.5t-20 61.5q0 14 5 36l144 679v4q0 9 -7.5 15.5 t-17.5 6.5q-18 0 -44 -17t-45 -35.5t-42.5 -43t-25.5 -26.5zM404 1218q1 32 11 69.5t35 71t59 33.5q30 0 46.5 -23.5t16.5 -54.5q0 -46 -33 -108t-77 -62q-27 0 -42.5 23t-15.5 51z" />
<glyph unicode="j" horiz-adv-x="576" d="M-290 -545q0 24 13 42t39 18q35 0 91.5 -43t92.5 -43q23 0 43.5 12t38.5 37.5t33 51.5t29 67t23.5 70.5t20.5 76t16 69t14 63.5q1 4 2.5 12t2.5 12q162 766 184 864q2 8 2 13q0 25 -25 25q-18 0 -44 -17t-45 -35.5t-42.5 -43t-25.5 -26.5l-19 19q12 22 60 69t112 89.5 t102 42.5q33 0 53.5 -27.5t20.5 -63.5q0 -10 -4 -28q-9 -46 -178 -842q-12 -58 -36.5 -127t-67.5 -151t-95 -147t-125.5 -109t-153.5 -44q-57 0 -94.5 30.5t-37.5 63.5zM443 1218q1 32 11 69.5t35 71t59 33.5q30 0 46.5 -23.5t16.5 -54.5q0 -46 -33 -108t-77 -62 q-27 0 -42.5 23t-15.5 51z" />
<glyph unicode="k" horiz-adv-x="1013" d="M117 4q0 39 9 81l292 1372q4 14 4 26q0 25 -22 25q-15 0 -34 -8t-43 -20.5t-39 -18.5l-13 31q19 10 46.5 25t56.5 30t38 20q11 6 35 19.5t39 21.5t33.5 17.5t31 14.5t18.5 5q23 0 23 -32q0 -4 -6 -31l-205 -968q-3 -11 -3 -18q0 -14 13 -14q5 0 9 4q9 7 139 111.5 t214.5 159.5t128.5 55q50 0 83 -59t33 -114q0 -52 -27 -100.5t-80 -90t-144 -67t-206 -25.5q-7 0 -13.5 -6.5t-6.5 -13.5q0 -4 3 -8q3 -5 28.5 -42t41.5 -59t46 -61.5t54 -65t53 -52.5t56.5 -40.5t50.5 -13.5q18 0 37 14t31 30.5t25.5 30.5t21.5 14q6 0 10.5 -5t4.5 -11 t-138 -149q-23 -23 -41 -23q-23 0 -40 7q-58 24 -104.5 62t-79.5 82.5t-60 88.5t-61 93.5t-68 83.5q-29 29 -36 29q-4 0 -9.5 -5t-7.5 -14l-86 -411q-7 -3 -32 -15.5t-42.5 -18.5t-33.5 -6q-28 0 -28 33zM351 477q59 -3 79 -3q162 0 233 25q97 33 157.5 97.5t60.5 135.5 q0 38 -17.5 67t-47.5 29q-49 0 -123 -46q-33 -20 -65.5 -44t-55.5 -42t-91.5 -74.5t-119.5 -97.5z" />
<glyph unicode="l" horiz-adv-x="559" d="M130 58q0 14 3 27l294 1372q4 20 4 26q0 25 -22 25q-16 0 -28 -5t-90 -42l-13 31q279 149 292 152q2 1 6 1q23 0 23 -33q0 -14 -4 -30q-317 -1475 -317 -1485v-4q0 -9 7.5 -15.5t17.5 -6.5q18 0 44 17t45 35.5t42.5 43t25.5 26.5l19 -19q-12 -22 -60 -69t-112 -89.5 t-102 -42.5q-31 0 -53 24t-22 61z" />
<glyph unicode="m" horiz-adv-x="1553" d="M115 647q16 30 110 117t162 122q27 14 42 14q36 0 36 -71q0 -26 -7 -62l-53 -256q0 -11 9 -11t31 26q10 11 78 90t106 117q58 58 136.5 112.5t125.5 54.5q31 0 54 -24t23 -61q0 -9 -3 -26l-55 -263q-2 -14 -2 -15q0 -11 9 -11t33 26q26 28 85.5 100t94.5 107 q58 58 136.5 112.5t125.5 54.5q31 0 53 -24t22 -61q0 -13 -3 -27l-147 -692v-4q0 -9 7.5 -15.5t17.5 -6.5q18 0 44 17t45 35.5t42.5 43t25.5 26.5l19 -19q-12 -22 -60 -69t-112 -89.5t-102 -42.5q-31 0 -53 24t-22 61q0 13 3 27l147 692v4q0 9 -7.5 15.5t-17.5 6.5 q-40 0 -129 -95q-113 -119 -172 -193q-63 -69 -90 -107q-2 -3 -7.5 -10t-9.5 -12.5t-8.5 -16.5t-7.5 -24l-72 -333q-25 -14 -62.5 -27t-52.5 -13q-13 0 -20.5 8.5t-7.5 20.5q0 5 16 85l147 691v4q0 9 -7.5 15.5t-17.5 6.5q-40 0 -129 -95q-137 -144 -176 -193 q-46 -50 -86 -107q-2 -3 -7.5 -10t-9.5 -12.5t-8.5 -16.5t-7.5 -24l-72 -333q-25 -14 -62.5 -27t-52.5 -13q-13 0 -20.5 8.5t-7.5 20.5q0 5 16 85l134 634v4q0 28 -23 28q-3 0 -7 -1q-4 -2 -10 -6l-12 -10q-6 -4 -14 -12t-15 -14.5t-18.5 -18t-19.5 -20t-22 -23t-24 -24.5z " />
<glyph unicode="n" horiz-adv-x="996" d="M110 647q16 30 110 117t162 122q27 14 42 14q36 0 36 -67q0 -21 -6 -57q0 -2 -54 -265q0 -11 9 -11t31 26q6 7 47 53.5t62 69.5t64 68.5t73.5 71t68.5 55t71 43t60 13.5q31 0 53 -24t22 -61q0 -13 -3 -27l-178 -692v-4q0 -9 7.5 -15.5t17.5 -6.5q18 0 44 17t45 35.5 t42.5 43t25.5 26.5l19 -19q-12 -22 -60 -69t-112 -89.5t-102 -42.5q-31 0 -53 24t-22 61q0 13 3 27l178 692v4q0 9 -8.5 15.5t-19.5 6.5q-30 -1 -116.5 -85.5t-160.5 -170.5t-114 -139q-23 -30 -30 -63l-72 -333q-25 -14 -62.5 -27t-52.5 -13q-13 0 -20.5 8.5t-7.5 20.5 q0 5 16 85l134 634v4q0 28 -23 28q-3 0 -7.5 -1.5t-10.5 -5.5l-10 -10q-6 -4 -14.5 -12t-15.5 -14.5t-18.5 -18t-19.5 -20t-22 -23t-24 -24.5z" />
<glyph unicode="o" horiz-adv-x="953" d="M155 280q0 128 53.5 245.5t137.5 198t188.5 128.5t206.5 48q59 0 114.5 -106t55.5 -243q0 -116 -54 -225t-139 -185.5t-190.5 -122t-206.5 -45.5q-35 0 -74.5 49.5t-65.5 122.5t-26 135zM305 288q0 -34 8.5 -73t25 -78t47.5 -64.5t71 -25.5q70 0 129.5 49t96.5 125.5 t57.5 165t20.5 173.5q0 28 -7 68t-21.5 86.5t-44.5 79t-69 32.5q-93 0 -167 -88t-110.5 -209t-36.5 -241z" />
<glyph unicode="p" horiz-adv-x="962" d="M-135 -620l7 32q42 0 72.5 10t49.5 25.5t34 47t24 61.5t20 83l230 1080v4q0 28 -23 28q-3 0 -7.5 -1.5t-9.5 -5.5l-12 -10q-5 -4 -13.5 -12t-15.5 -14.5t-18.5 -18t-19.5 -20t-22 -23t-24 -24.5l-24 25q16 29 112.5 116.5t164.5 122.5q27 14 42 14q14 0 27 -9.5t13 -26.5 q0 -26 -16 -94l-29 -129q-1 -3 -1 -9q0 -17 10 -17q16 0 29 11q2 2 86.5 84.5t153 136t102.5 53.5q35 0 61 -29t37.5 -73.5t16.5 -82.5t5 -71q0 -100 -20.5 -197t-62 -182.5t-99.5 -150.5t-138.5 -103t-173.5 -38q-69 0 -139 37l-105 -496q-4 -20 -4 -26q0 -43 43 -59.5 t133 -16.5l-7 -32h-489zM324 135q0 -47 28.5 -84t93.5 -37q70 0 149.5 89.5t136 236.5t56.5 294q0 22 -1 38.5t-6 40t-13.5 39t-25.5 26.5t-40 11q-39 -20 -81 -58t-110 -109.5t-111 -113.5l-72 -340q-4 -22 -4 -33z" />
<glyph unicode="q" horiz-adv-x="898" d="M95 229q0 84 42 186q86 210 284 347.5t422 137.5q17 0 17 -28l-272 -1398q0 -26 19 -40.5t40 -17t51.5 -3.5t37.5 -2l-7 -31h-411l7 32q111 0 124 73l136 744q0 8 -8 8t-22 -11t-66 -56.5t-99.5 -86.5t-100 -75.5t-79.5 -34.5q-35 0 -60 28.5t-36 74t-15 82.5t-4 71z M229 239q0 -22 1 -38.5t6 -40t13.5 -39t25.5 -26.5t40 -11q25 13 48.5 28t55 41t49.5 41.5t65 58t70 62.5l99 455q0 16 -27 16q-99 0 -198.5 -52t-150.5 -135q-86 -138 -97 -360z" />
<glyph unicode="r" horiz-adv-x="669" d="M100 665q0 14 29 44t77 73t62 57q4 3 23 17.5t30 22t28 15t30 7.5q33 -5 33 -70l-12 -135q0 -7 4 -14t10 -7q5 0 16 13.5t32 41.5t38 48q25 30 38.5 44.5t38 36.5t49.5 32t52 10q20 0 30.5 -22t10.5 -50q0 -48 -16.5 -68.5t-49.5 -21.5q-9 0 -25 4t-24 4q-43 0 -88 -32.5 t-71 -66.5t-45 -67q-24 -43 -52 -172l-86 -398q-94 -40 -121 -40q-26 0 -26 33q0 17 5 42q147 684 147 688q0 17 -15 17q-17 0 -37 -20l-84 -82q-5 -5 -9 -5q-22 0 -22 21z" />
<glyph unicode="s" horiz-adv-x="696" d="M30 69q0 31 21.5 50.5t53.5 19.5q25 0 121.5 -50t131.5 -50q54 0 86.5 35.5t32.5 88.5q0 51 -26.5 100t-64 89t-75 80.5t-64 90t-26.5 101.5q0 72 57.5 136t137.5 99.5t152 35.5q42 0 75 -37.5t33 -91.5q0 -31 -17.5 -54.5t-48.5 -23.5q-23 0 -40.5 22t-27.5 48.5 t-28 48.5t-41 22q-53 0 -101.5 -47.5t-48.5 -99.5q0 -40 25.5 -80.5t62 -77t73 -76.5t62 -94.5t25.5 -114.5q0 -81 -54 -146t-137 -91q-4 -1 -20 -7t-26.5 -8.5t-31 -6.5t-49 -5.5t-65.5 -1.5q-60 0 -106.5 26t-51.5 70z" />
<glyph unicode="t" horiz-adv-x="580" d="M138 54q0 17 4 34l154 727q2 12 2 16q0 15 -15 15h-45q-26 0 -26 18q0 13 7.5 19.5t27 11t22.5 5.5q38 14 89 64.5t103 114t62 73.5q17 -4 35 -16q-7 -17 -28 -63.5t-36 -84.5t-18 -62v-4q0 -22 24 -22h130l-11 -54h-145q-27 0 -34 -35l-139 -650q-12 -56 -12 -67 t7.5 -17t16.5 -6q36 0 83 47l111 111l14 -15q-7 -22 -56.5 -78.5t-120 -109.5t-117.5 -53q-39 0 -64 19.5t-25 61.5z" />
<glyph unicode="u" horiz-adv-x="1052" d="M120 697q12 22 60 69t112 89.5t102 42.5q31 0 53 -24t22 -61q0 -13 -141 -680v-4q0 -9 7.5 -15.5t17.5 -6.5q29 0 124 108q170 197 198 232q104 128 123 214l43 199q7 40 32 40h91q10 0 17 -6.5t7 -17.5q0 -6 -2 -15q-24 -110 -151 -710q0 -32 23 -32q4 0 9.5 3t14 9.5 t16 13.5t20.5 20t23 23.5t27 28.5t30 31l24 -25q-16 -30 -110 -115.5t-162 -120.5q-27 -14 -42 -14q-37 0 -37 63q0 31 8 67l73 336q0 11 -9 11t-31 -26q-20 -23 -63.5 -70t-79 -86.5t-61.5 -70.5q-187 -224 -262 -224q-34 0 -54 25.5t-20 60.5q0 15 2 23l147 692v4 q0 9 -7.5 15.5t-17.5 6.5q-18 0 -44 -17t-45 -35.5t-42.5 -43t-25.5 -26.5z" />
<glyph unicode="v" horiz-adv-x="897" d="M75 689q8 16 38 51t68.5 72.5t82.5 65.5t73 28q34 0 57.5 -25.5t23.5 -62.5q0 -7 -2 -19l-100 -660q-2 -20 -2 -26q0 -39 29 -39q50 0 168 136t166 237q29 47 57.5 138.5t28.5 147.5q0 1 -24.5 25t-24.5 45q0 41 31 69t72 28q32 0 66 -46t34 -98q0 -37 -17.5 -89 t-39.5 -91q-53 -94 -173.5 -236t-251 -255.5t-191.5 -113.5q-37 0 -54 37.5t-17 87.5q0 19 4 43l96 639v4q0 21 -28 21q-14 0 -32.5 -11t-37 -30t-32.5 -34.5t-29.5 -35t-17.5 -21.5z" />
<glyph unicode="w" horiz-adv-x="1416" d="M75 699q12 22 60 69t112 89.5t102 42.5q31 0 53 -24t22 -61q0 -13 -3 -27l-104 -693v-4q0 -9 8.5 -15.5t19.5 -6.5q66 2 364 395q23 30 30 63l48 333q1 12 8.5 26t21.5 14h100q22 -3 22 -29l-110 -731q-2 -10 -2 -26q0 -39 29 -39q41 0 168 139t172 234q29 47 57.5 138.5 t28.5 147.5q0 1 -24.5 25t-24.5 45q0 41 31 69t72 28q32 0 66 -46t34 -98q0 -37 -17.5 -89t-39.5 -91q-52 -93 -177 -235.5t-259.5 -256t-195.5 -113.5q-37 0 -54 37.5t-17 87.5q0 19 4 43l33 220q0 11 -9 11t-31 -26q-15 -17 -55.5 -64.5t-70 -82t-74.5 -80.5t-81 -75.5 t-76 -50.5t-72 -21q-31 0 -53 24t-22 61q0 14 3 27l104 693q0 26 -25 26q-18 0 -44 -17t-45 -35.5t-42.5 -43t-25.5 -26.5z" />
<glyph unicode="x" horiz-adv-x="1101" d="M50 43q0 38 24 113t50 75q11 0 16.5 -20t8.5 -43.5t19.5 -43.5t47.5 -20q63 0 118 70l182 231l-130 340q-14 39 -67 39q-33 0 -64.5 -36t-54 -71.5t-33.5 -35.5q-19 0 -19 12q1 25 40.5 82.5t103 111t117.5 53.5q30 0 56 -15.5t35 -38.5l120 -310q3 0 29 36.5t65.5 88 t86.5 103t102 88t102 36.5q96 0 96 -106q0 -29 -7 -62.5t-24 -33.5q-11 0 -22.5 15t-21.5 33t-32.5 33t-52.5 15q-31 0 -75 -36.5t-79 -78t-82.5 -102t-65.5 -80.5l137 -354q8 -20 23 -30.5t28 -10.5q25 0 47.5 22.5t36 49t30 49t31.5 22.5q6 -10 6 -22q0 -57 -76 -147.5 t-142 -90.5q-78 0 -96 46l-115 299q-9 24 -16 24q-6 0 -36 -37q-32 -42 -44.5 -58.5t-48 -60t-57 -65t-58.5 -55t-65.5 -50t-64.5 -30t-70 -13.5q-19 6 -29 26.5t-10 43.5z" />
<glyph unicode="y" horiz-adv-x="993" d="M-20 -620l7 32q73 0 105.5 13.5t60.5 60.5q34 55 78 151q97 205 145 369q21 74 21 135q0 161 -11.5 254.5t-52.5 266.5q-29 115 -70 121q-18 -3 -71.5 -73t-65.5 -70q-6 0 -12 5.5t-6 12.5q0 18 22 50.5t47 59.5t54.5 57t34.5 36q9 11 33.5 25t43.5 14q32 0 43 -19 q145 -251 145 -695q0 -37 19 -49l78 137q187 327 187 437q0 25 -16.5 53.5t-16.5 43.5q0 35 24.5 63.5t63.5 28.5q55 0 76.5 -33.5t21.5 -99.5q0 -45 -53 -144t-120 -198t-143 -215.5t-107 -176.5q-18 -40 -77.5 -186.5t-105.5 -248.5l-38 -84q-14 -35 -14 -50 q0 -10 1 -17.5t4.5 -13.5t7 -9.5t11.5 -5.5t14.5 -3.5t20 -2t23.5 -0.5h30h34l-7 -32h-469z" />
<glyph unicode="z" horiz-adv-x="1143" d="M62 17q0 30 23 67.5t65 77t69 61.5t66 52q200 150 477 293q38 20 90.5 54.5t52.5 47.5q0 15 -28 15q-8 0 -27 -2t-35 -2q-69 0 -135.5 18t-109.5 39t-96 39t-99 18q-21 0 -50 -26.5t-53 -53.5t-33 -27q-8 0 -18 10t-10 18q0 45 107.5 112.5t156.5 67.5q70 0 138 -22.5 t113 -49.5t104 -49.5t114 -22.5q52 0 88 60q6 10 9.5 34.5t12.5 39t33 14.5q17 0 31.5 -11.5t15 -26.5t-19 -47.5t-34.5 -51.5q-75 -95 -242 -215q-70 -50 -211.5 -124.5t-214.5 -129.5q-2 -1 -30.5 -20t-47.5 -35t-19 -25q0 -10 17 -10q9 0 29 3t28 3q131 0 250 -79 q80 -52 160 -52q50 0 90 25q12 7 41 42.5t49 35.5q29 0 29 -29q0 -11 -30 -40.5t-73.5 -61t-100.5 -56t-104 -24.5q-19 0 -39 4t-35 8.5t-36 14.5l-32 16q-11 6 -34.5 20t-32.5 19q-52 30 -121.5 54.5t-118.5 24.5q-28 0 -57.5 -18t-35.5 -44q-1 -5 -3.5 -26.5t-6.5 -33.5 t-15 -24.5t-31 -14.5q-40 0 -40 46z" />
<glyph unicode="{" horiz-adv-x="799" d="M120 -65q0 31 5 61t18 67t20 55t28 65t25 57q7 15 26.5 57.5t27 60.5t19 51t16 60.5t4.5 56.5q0 60 -30.5 99t-87.5 39q-10 0 -16.5 8.5t-6.5 20.5q0 20 12.5 36t26.5 16q71 0 117 40.5t64 100.5t18 138q0 39 -4 111.5t-4 107.5q0 69 12 125q13 63 48.5 117.5t83 93.5 t105.5 68t116.5 45t115.5 20q48 4 108 4q32 0 32 -22q0 -20 -10.5 -34.5t-25.5 -14.5q-47 0 -73 -3q-122 -16 -210 -83.5t-111 -178.5q-24 -120 -31 -244q-6 -115 -18 -171q-12 -58 -40.5 -103.5t-59.5 -70.5q-20 -19 -46 -38.5t-36 -30t-10 -20.5q0 -11 6 -21t22 -31.5 t29 -43.5q31 -41 31 -112q0 -26 -2 -46t-8.5 -44t-12 -39t-19.5 -53.5t-24 -65.5q-70 -197 -70 -293q0 -172 213 -228q37 -10 80 -10q10 0 10 -14q0 -17 -7 -37t-18 -20q-45 0 -75 2q-47 2 -94.5 11t-101 30.5t-94 52.5t-67 81.5t-26.5 113.5z" />
<glyph unicode="|" horiz-adv-x="581" d="M300 -35v1680h131v-1680h-131z" />
<glyph unicode="}" horiz-adv-x="857" d="M-75 -340q0 19 7 37t18 18q43 0 84 10q281 65 331 300q22 110 30 221q9 149 18 188q12 56 39 101t55 72q18 17 40 35.5t32.5 27t18 18t7.5 18.5q0 10 -5.5 19.5t-21 28t-27.5 37.5q-34 42 -34 116q0 22 3 44t10.5 49t12.5 42.5t17 49t16 44.5q3 8 17.5 49.5t18.5 54 t14.5 46.5t14.5 53t7.5 46.5t3.5 51.5q0 87 -58.5 139.5t-158.5 65.5q-24 3 -71 3q-21 0 -21 24q0 47 45 47q60 0 106 -4q86 -7 159.5 -38.5t123.5 -95t50 -147.5q0 -22 -2.5 -43.5t-9.5 -46.5t-11.5 -40.5t-17 -45t-17 -39.5t-20.5 -44t-18 -39q-6 -12 -24 -49.5t-26 -56.5 t-20 -50t-17 -57.5t-5 -51.5q0 -93 125 -123q22 0 22 -28q0 -19 -12.5 -36t-25.5 -17q-67 0 -116 -50t-70 -118.5t-21 -142.5q0 -38 4 -108.5t4 -105.5q0 -72 -12 -131q-14 -67 -47.5 -123t-79.5 -93.5t-97 -66t-107.5 -44.5t-103 -24.5t-90.5 -10.5q-32 -2 -77 -2 q-10 0 -10 16z" />
<glyph unicode="~" horiz-adv-x="898" d="M135 470q0 144 65 229.5t158 85.5q41 0 67 -4.5t79.5 -31t128.5 -80.5q9 -5 31.5 -20.5t36 -23.5t34.5 -16t39 -8q47 0 79 44t32 136h118q0 -143 -65 -229t-158 -86q-48 0 -90.5 18.5t-95.5 55.5q-103 71 -144.5 90.5t-84.5 19.5q-44 0 -77 -42t-34 -138h-119z" />
<glyph unicode="&#xa1;" horiz-adv-x="632" d="M67 -524q0 5 1 9l276 1039h59l-162 -1042q-5 -31 -30 -32l-108 5q-36 2 -36 21zM333 796q5 30 11.5 49.5t19.5 40.5t36 32t56 11q32 0 48 -35t16 -75q0 -43 -35.5 -78.5t-75.5 -35.5q-76 0 -76 91z" />
<glyph unicode="&#xa2;" horiz-adv-x="606" d="M77 192q0 123 33.5 238.5t88.5 202.5t123.5 150.5t142.5 93.5l52 243h61l-48 -223q30 5 52 5q52 0 75 -20.5t23 -72.5q0 -66 -35 -66q-29 0 -75.5 28.5t-58.5 32.5l-160 -750h12q39 0 76 18t88.5 58t64.5 48l21 -26q-76 -77 -137.5 -119.5t-140.5 -54.5l-72 -338h-61 l71 333q-100 1 -148 60.5t-48 158.5zM230 235q0 -117 64 -162l155 729q-65 -25 -118 -143t-77 -235.5t-24 -188.5z" />
<glyph unicode="&#xa3;" horiz-adv-x="1487" d="M100 -406q0 46 59 92t139 78q61 34 77 61q69 118 147 313h-276l14 64h288l263 630q21 50 38 87.5t52 102t69.5 112t86.5 103t107 90.5t127.5 59t151.5 24q112 0 112 -94q0 -23 -18.5 -41.5t-45.5 -18.5q-24 0 -46 13.5t-36.5 29.5t-37 29.5t-46.5 13.5q-78 0 -124 -35.5 t-88 -103.5q-62 -127 -428 -1001h317l-14 -64h-330q-92 -218 -216 -334q17 1 52 1q242 0 393 -107q128 -92 243 -92q55 0 100 46.5t45 95.5q0 36 -28 98t-28 97q0 25 20.5 40t45.5 17q35 0 63.5 -28.5t28.5 -83.5q0 -149 -105.5 -257t-251.5 -108q-102 0 -226 80 q-25 16 -66 42.5t-54 35t-40.5 25t-34.5 20t-28.5 12t-29 9t-28.5 3.5t-36 3h-43q-30 0 -60 -23t-54.5 -56.5t-48.5 -66.5t-51 -56t-53 -23q-37 0 -52 14t-15 52z" />
<glyph unicode="&#xa4;" horiz-adv-x="1049" d="M52 280l194 193q-65 92 -65 207q0 123 76 215l-196 198l63 63l197 -198q94 72 210 72q117 0 208 -67l194 194l62 -62l-194 -195q83 -100 83 -220q0 -113 -74 -214l187 -188l-62 -62l-188 188q-96 -74 -216 -74q-125 0 -225 79l-192 -191zM279 682q0 -105 74 -180t178 -75 q105 0 180 75t75 180t-75 178.5t-180 73.5q-104 0 -178 -73.5t-74 -178.5z" />
<glyph unicode="&#xa5;" horiz-adv-x="1484" d="M251 1382v13q0 11 19 14h441q19 0 19 -14v-13q0 -13 -16 -13h-38q-28 0 -54.5 -19.5t-26.5 -57.5q0 -24 15 -59q45 -100 116 -267t110 -255q1 -3 4.5 -10.5t5.5 -12t5.5 -10.5t7 -9t7.5 -3q15 0 42 33q18 22 44 53.5t44 52.5t19 22q62 73 168.5 200.5t152.5 181.5 q30 34 30 74q0 39 -20.5 62.5t-59.5 23.5h-37q-20 0 -20 14v13q0 14 20 14h370q6 0 10.5 -4t4.5 -8v-13q0 -12 -9 -15.5t-28.5 -7t-35.5 -14.5q-47 -31 -150 -156q-94 -113 -281.5 -334.5t-201.5 -238.5h266q9 0 15 -5.5t6 -14.5l-6 -30q-5 -25 -21 -25h-310 q-9 -46 -35 -165h299q9 0 15 -5.5t6 -14.5l-6 -30q-5 -24 -21 -24h-308l-21 -105q-5 -23 -5 -39q0 -56 44.5 -88.5t124.5 -32.5h47q18 0 18 -13v-14q0 -13 -16 -13h-625q-20 0 -20 15v12q0 13 20 13h60q48 0 88.5 25t62.5 58q17 28 21 49l27 133h-269q-21 0 -21 20l5 30 q5 24 22 24h279q18 90 29 165h-263q-21 0 -21 20l5 30q5 25 22 25h234q-148 342 -264 610q-60 140 -141 140q-20 0 -20 13z" />
<glyph unicode="&#xa6;" horiz-adv-x="571" d="M300 -35v752h121v-752h-121zM300 895v750h121v-750h-121z" />
<glyph unicode="&#xa7;" horiz-adv-x="1031" d="M-75 -408q0 27 27.5 51t91.5 24q23 0 44 -17t39 -41t38.5 -48t52 -41t69.5 -17q52 0 113.5 26t110.5 79.5t49 117.5q0 84 -47 186q-41 87 -101.5 205.5t-96.5 192t-73.5 164t-55 174.5t-17.5 171q0 101 31 209t92.5 208.5t144 180t194.5 127.5t234 48q38 0 83.5 -10 t89.5 -28.5t73.5 -51t29.5 -72.5q0 -26 -28 -50.5t-92 -24.5q-23 0 -44 17t-38.5 41t-38 48t-52 41t-69.5 17q-56 0 -94 -16.5t-113 -66.5q-66 -72 -66 -150q0 -93 48 -179q22 -59 84.5 -176t115 -218t96 -247t43.5 -282q0 -129 -42.5 -250.5t-125.5 -226.5t-221.5 -179 t-316.5 -98q-54 0 -112.5 17.5t-104 56t-45.5 88.5zM264 874q0 -76 21 -166.5t61 -191t76.5 -181.5t89.5 -192.5t79 -169.5q19 -41 34 -113.5t18 -136.5q76 75 114.5 201t38.5 252q0 97 -40 225t-89 230.5t-108.5 227t-83.5 190.5q-19 52 -35.5 125.5t-16.5 124.5 q-159 -214 -159 -425z" />
<glyph unicode="&#xa8;" horiz-adv-x="743" d="M260 1258q0 42 28.5 71.5t70.5 29.5t71 -29.5t29 -71.5q0 -41 -28.5 -69.5t-71.5 -28.5q-42 0 -70.5 28.5t-28.5 69.5zM619 1258q0 42 29 71.5t71 29.5t70.5 -29.5t28.5 -71.5t-28 -70t-71 -28q-42 0 -71 28.5t-29 69.5z" />
<glyph unicode="&#xa9;" horiz-adv-x="1717" d="M90 723q0 155 60.5 296t162 242.5t242.5 162t296 60.5t296 -60.5t242.5 -162t162 -242.5t60.5 -296t-60.5 -296t-162 -242.5t-242.5 -162t-296 -60.5t-296 60.5t-242.5 162t-162 242.5t-60.5 296zM186 724q0 -135 52.5 -258t141.5 -212.5t212 -142t258 -52.5t258 52.5 t212.5 142t142 212.5t52.5 258t-52.5 258t-142 212t-212.5 141.5t-258 52.5t-258 -52.5t-212 -141.5t-141.5 -212t-52.5 -258zM358 732q0 143 69 257t186.5 176t258.5 62q89 0 231 -36q11 -3 27 -9t27 -10t16 -4l9 2q9 3 11 3h20q8 0 8 -11v-203q0 -7 -16 -7q-8 0 -10 4 q-10 15 -15 30q-100 196 -298 196q-181 0 -281.5 -114.5t-100.5 -297.5q0 -94 28 -177.5t79.5 -148t130.5 -102t176 -37.5q198 0 326 215q1 4 8 4h8q7 0 7 -9q0 -6 -4 -14l-91 -199q-2 -5 -8 -5q-20 6 -35 6q-22 0 -117 -22t-139 -22q-103 0 -196 34t-163 94t-111 150 t-41 195z" />
<glyph unicode="&#xaa;" horiz-adv-x="558" d="M63 1127q0 49 26 112q54 126 180 208.5t267 82.5q11 0 11 -17l-95 -415q-3 -17 -3 -25t5 -15t12 -7q8 0 33.5 21.5t32.5 21.5q10 0 10 -10q0 -12 -68.5 -62.5t-86.5 -50.5q-8 0 -12 3q-18 15 -18 48q0 32 7.5 65.5t7.5 35.5q0 9 -5 9q-7 0 -14 -6q-4 -3 -56.5 -47.5 t-96 -74.5t-65.5 -30q-29 0 -46.5 31.5t-21.5 62t-4 59.5zM147 1133q0 -93 55 -93q13 7 27.5 16t24.5 16t29 22.5t28 23t35 30t37 31.5l62 273q0 10 -17 10q-63 0 -125 -31.5t-94 -81.5q-55 -82 -62 -216z" />
<glyph unicode="&#xab;" horiz-adv-x="812" d="M100 552l373 375h47l-279 -375l126 -373h-49zM402 552l373 375h47l-279 -375l126 -373h-49z" />
<glyph unicode="&#xac;" horiz-adv-x="1154" d="M265 562v127h864v-508h-127v381h-737z" />
<glyph unicode="&#xad;" horiz-adv-x="913" d="M125 427l32 152h704l-32 -152h-704z" />
<glyph unicode="&#xae;" horiz-adv-x="1702" d="M90 723q0 155 60.5 296t162 242.5t242.5 162t296 60.5t296 -60.5t242.5 -162t162 -242.5t60.5 -296t-60.5 -296t-162 -242.5t-242.5 -162t-296 -60.5t-296 60.5t-242.5 162t-162 242.5t-60.5 296zM186 724q0 -135 52.5 -258t141.5 -212.5t212 -142t258 -52.5t258 52.5 t212.5 142t142 212.5t52.5 258t-52.5 258t-142 212t-212.5 141.5t-258 52.5t-258 -52.5t-212 -141.5t-141.5 -212t-52.5 -258zM448 1147v14q0 4 5 5h1q2 0 6 0.5t10.5 0.5t19 0.5t29.5 0.5q21 0 117.5 3.5t148.5 3.5h60q106 -8 178 -77.5t72 -172.5q0 -70 -37 -114.5 t-105 -75.5q9 -12 122 -200l61 -97q51 -80 126 -110q6 -1 6 -8q0 -15 -20 -15q-85 0 -178 63q-36 43 -71 91l-154 241q-2 2 -3 2l-141 7q-9 0 -11 -1q-3 -2 -3 -8v-276q0 -33 18.5 -49.5t64.5 -22.5q1 0 23.5 -4t30.5 -4q5 0 5 -5v-14q0 -5 -5 -5h-369q-5 0 -5 12v7q0 5 5 5 q6 0 30 4l24 4q61 15 61 70v634q0 28 -12 47t-30.5 26.5t-30.5 10t-21 2.5h-23q-5 0 -5 5zM687 769l1 -18q2 -13 11 -13q32 -4 62 -4q114 0 164 52.5t50 152.5q0 96 -59 150.5t-151 54.5q-9 0 -63 -2q-15 0 -15 -10v-363z" />
<glyph unicode="&#xaf;" horiz-adv-x="764" d="M245 1208l27 99h627l-27 -99h-627z" />
<glyph unicode="&#xb0;" horiz-adv-x="658" d="M260 1150q0 95 67 162t162 67t162 -67t67 -162t-67 -162.5t-162 -67.5t-162 67.5t-67 162.5zM333 1148q0 -64 45.5 -110t110.5 -46t110.5 46t45.5 110t-45.5 109.5t-110.5 45.5t-110.5 -45.5t-45.5 -109.5z" />
<glyph unicode="&#xb1;" horiz-adv-x="1162" d="M265 0v127h872v-127h-872zM265 562v127h371v367h135v-367h366v-127h-366v-378h-135v378h-371z" />
<glyph unicode="&#xb2;" horiz-adv-x="661" d="M-11 554q0 25 29 51q48 45 128 107.5t143 111.5t124.5 105.5t96 113.5t34.5 111q0 62 -40.5 107t-101.5 45q-76 0 -141 -46q-39 -28 -62.5 -58t-32.5 -49t-14 -22q-4 -4 -18 -4q-8 0 -8 5q2 7 15.5 34.5t39.5 66.5t51 59q108 87 223 87q96 0 151 -50.5t55 -132.5 q0 -43 -15.5 -82.5t-37.5 -70.5t-67 -70t-84 -67.5t-108 -75.5q-29 -19 -137.5 -104.5t-109.5 -92.5h355q20 0 35 4.5t24.5 10t20 21.5t16.5 27t19 38h24l-62 -162q-7 -14 -19 -20h-512h-12q-2 0 -2 2z" />
<glyph unicode="&#xb3;" horiz-adv-x="661" d="M58 631q8 40 61 40q11 0 30 -15t38 -33.5t51 -34t67 -15.5q100 8 172.5 100t72.5 190q0 62 -35 93t-86 31q-16 0 -44 -9.5t-47 -21.5q-1 -1 -3 -1q-9 0 -9 13q0 8 39 30q196 109 196 222q0 39 -31 66t-75 27q-111 0 -211 -124q-2 0 -7.5 1t-10.5 3.5t-5 4.5l7 12 q46 71 125 120t143 49q79 0 122 -29.5t43 -81.5q0 -48 -29 -88.5t-82 -83.5q-6 -4 -24.5 -15t-33 -19.5t-14.5 -10.5q23 1 28 1q71 0 111.5 -50t40.5 -112q0 -69 -39.5 -136t-99 -114t-128 -75.5t-125.5 -28.5q-33 0 -63 3.5t-64.5 12.5t-56.5 29.5t-24 49.5z" />
<glyph unicode="&#xb4;" horiz-adv-x="700" d="M168 1102q0 2 4 6l213 295q36 49 75 49q30 0 51 -22t21 -52q0 -49 -55 -94l-269 -217q-4 -3 -7 -3q-4 0 -7 3l-22 29q-4 4 -4 6z" />
<glyph unicode="&#xb5;" horiz-adv-x="1030" d="M-41 -607q0 17 5 42q31 144 55 259l252 1185q3 14 5.5 17.5t11.5 3.5h119q10 0 10 -6q0 -4 -3 -15l-138 -649q-2 -9 -2 -26q0 -67 53.5 -99t128.5 -32q72 0 143.5 32t128.5 86l142 669q9 40 32 40h91q22 -3 22 -29l-143 -674q-3 -13 -3 -25q0 -57 76 -57l59 4q4 0 4 -6 q0 -16 -20 -24l-289 -110q-12 -6 -20 -6q-7 0 -7 11q0 4 22 109q0 5 -9 5l-6 -2q-41 -20 -98.5 -50t-74 -38t-50 -19.5t-59 -13.5t-68.5 -2q-45 0 -105 14l-124 -583q-79 -44 -115 -44q-26 0 -26 33z" />
<glyph unicode="&#xb6;" horiz-adv-x="1091" d="M200 1153q0 97 23 173t59 127.5t99.5 88t125 56.5t156.5 30.5t173 13.5t194 3h213q23 0 23 -11v-2q-1 -2 -3.5 -13t-5.5 -29q-2 -9 -7.5 -12.5t-22.5 -3.5h-133l-377 -1811q-3 -18 -21 -18h-55q-12 0 -12 10q0 4 376 1814h-166l-373 -1791q-4 -19 -8.5 -26t-14.5 -7h-56 q-11 0 -11 11q0 4 234 1132q-33 2 -53.5 3t-57.5 5t-62 9.5t-59 15.5t-56.5 23t-47.5 33t-40 44.5t-24.5 58t-9.5 73.5z" />
<glyph unicode="&#xb7;" horiz-adv-x="650" d="M320 678q0 53 38.5 91.5t91.5 38.5q54 0 92 -38.5t38 -91.5q0 -56 -37.5 -93t-92.5 -37q-54 0 -92 37t-38 93z" />
<glyph unicode="&#xb8;" horiz-adv-x="749" d="M90 -492q0 5 11 15t24 13q60 11 125 25q44 10 76 41t32 74q0 46 -39.5 75.5t-81.5 33.5l45 202h63l-31 -141q76 -21 113.5 -63.5t37.5 -87.5q0 -55 -28.5 -98t-77 -68.5t-100.5 -39.5t-113 -21q-56 0 -56 40z" />
<glyph unicode="&#xb9;" horiz-adv-x="661" d="M141 556l3 15q2 5 7 5q19 1 44.5 2.5t37.5 2t26 1.5t22 3t14 5q15 8 23 44l139 639q0 1 -5 -2.5t-15.5 -10t-24 -15t-30.5 -18.5t-34.5 -20t-38 -19.5t-38.5 -17.5h-2q-2 -1 -3 -1l-8 14q1 3 10 9q133 76 256 187h35q11 0 11 -6q0 -3 -1 -5l-157 -719q-6 -24 -6 -43 q0 -30 124 -30q4 0 4 -3l-4 -16q0 -5 -5 -5h-379q-5 0 -5 4z" />
<glyph unicode="&#xba;" horiz-adv-x="596" d="M96 1158q0 102 56.5 189.5t141 135t171.5 47.5q37 0 72 -63.5t35 -145.5q0 -93 -57.5 -174.5t-143 -127t-171.5 -45.5q-34 0 -69 63t-35 121zM190 1163q0 -48 24.5 -96.5t71.5 -48.5q58 0 103 50.5t66.5 119.5t21.5 138q0 17 -4 41t-13.5 52t-28 47.5t-43.5 19.5 q-59 0 -105.5 -52.5t-69.5 -125.5t-23 -145z" />
<glyph unicode="&#xbb;" horiz-adv-x="928" d="M125 179l280 373l-123 375h47l217 -375l-372 -373h-49zM427 179l280 373l-123 375h47l217 -375l-372 -373h-49z" />
<glyph unicode="&#xbc;" horiz-adv-x="1700" d="M266 556l3 15q2 5 7 5q19 1 44.5 2.5t37.5 2t26 1.5t22 3t14 5q15 8 23 44l139 639q0 1 -5 -2.5t-15.5 -10t-24 -15t-30.5 -18.5t-34.5 -20t-38 -19.5t-38.5 -17.5h-2q-2 -1 -3 -1l-8 14q1 3 10 9q133 76 256 187h35q11 0 11 -6q0 -3 -1 -5l-157 -719q-6 -24 -6 -43 q0 -30 124 -30q4 0 4 -3l-4 -16q0 -5 -5 -5h-379q-5 0 -5 4zM300 -55l1407 1553h130l-1408 -1553h-129zM1144 242q0 12 6 18l513 551q13 13 28 13q22 0 22 -10q0 -3 -109 -498q-2 -10 -2 -11q0 -4 11 -4h105q18 0 18 -8l-9 -44q-4 -14 -16 -14h-115q-7 0 -8.5 -1.5 t-3.5 -10.5l-52 -235q0 -4 -4 -8.5t-9 -4.5h-68q-10 0 -10 9q52 237 52 244t-23 7h-313q-13 0 -13 7zM1233 306q0 -5 19 -5h244q12 0 16 12q41 187 68 310q7 32 7 34q0 11 -12 11q-9 0 -21 -12l-312 -338q-1 -1 -3 -4t-4 -5t-2 -3z" />
<glyph unicode="&#xbd;" horiz-adv-x="1700" d="M266 556l3 15q2 5 7 5q19 1 44.5 2.5t37.5 2t26 1.5t22 3t14 5q15 8 23 44l139 639q0 1 -5 -2.5t-15.5 -10t-24 -15t-30.5 -18.5t-34.5 -20t-38 -19.5t-38.5 -17.5h-2q-2 -1 -3 -1l-8 14q1 3 10 9q133 76 256 187h35q11 0 11 -6q0 -3 -1 -5l-157 -719q-6 -24 -6 -43 q0 -30 124 -30q4 0 4 -3l-4 -16q0 -5 -5 -5h-379q-5 0 -5 4zM300 -55l1407 1553h130l-1408 -1553h-129zM1109 2q0 25 29 51q48 45 128 107.5t143 111.5t124.5 105.5t96 113.5t34.5 111q0 62 -40.5 107t-101.5 45q-76 0 -141 -46q-39 -28 -62.5 -58t-32.5 -49t-14 -22 q-4 -4 -18 -4q-8 0 -8 5q2 7 15.5 34.5t39.5 66.5t51 59q108 87 223 87q96 0 151 -50.5t55 -132.5q0 -43 -15.5 -82.5t-37.5 -70.5t-67 -70t-84 -67.5t-108 -75.5q-29 -19 -137.5 -104.5t-109.5 -92.5h355q20 0 35 4.5t24.5 10t20 21.5t16.5 27t19 38h24l-62 -162 q-7 -14 -19 -20h-512h-12q-2 0 -2 2z" />
<glyph unicode="&#xbe;" horiz-adv-x="1700" d="M198 631q8 40 61 40q11 0 30 -15t38 -33.5t51 -34t67 -15.5q100 8 172.5 100t72.5 190q0 62 -35 93t-86 31q-16 0 -44 -9.5t-47 -21.5q-1 -1 -3 -1q-9 0 -9 13q0 8 39 30q196 109 196 222q0 39 -31 66t-75 27q-111 0 -211 -124q-2 0 -7.5 1t-10.5 3.5t-5 4.5l7 12 q46 71 125 120t143 49q79 0 122 -29.5t43 -81.5q0 -48 -29 -88.5t-82 -83.5q-6 -4 -24.5 -15t-33 -19.5t-14.5 -10.5q23 1 28 1q71 0 111.5 -50t40.5 -112q0 -69 -39.5 -136t-99 -114t-128 -75.5t-125.5 -28.5q-33 0 -63 3.5t-64.5 12.5t-56.5 29.5t-24 49.5zM300 -55 l1407 1553h130l-1408 -1553h-129zM1144 242q0 12 6 18l513 551q13 13 28 13q22 0 22 -10q0 -3 -109 -498q-2 -10 -2 -11q0 -4 11 -4h105q18 0 18 -8l-9 -44q-4 -14 -16 -14h-115q-7 0 -8.5 -1.5t-3.5 -10.5l-52 -235q0 -4 -4 -8.5t-9 -4.5h-68q-10 0 -10 9q52 237 52 244 t-23 7h-313q-13 0 -13 7zM1233 306q0 -5 19 -5h244q12 0 16 12q41 187 68 310q7 32 7 34q0 11 -12 11q-9 0 -21 -12l-312 -338q-1 -1 -3 -4t-4 -5t-2 -3z" />
<glyph unicode="&#xbf;" horiz-adv-x="867" d="M140 -187q0 58 8.5 105t29 84t41.5 64t59 55.5t66.5 47.5t79 50t84.5 54q40 27 63.5 78t39 118t22.5 85h39q0 -133 -17 -219.5t-44.5 -133t-77.5 -90.5q-36 -32 -86 -63t-87 -52.5t-72 -48.5t-53.5 -63.5t-18.5 -84.5q0 -80 66.5 -124.5t146.5 -44.5q28 0 76 19.5 t71 19.5q43 0 43 -73q0 -38 -14.5 -62t-42.5 -35t-54.5 -14.5t-64.5 -3.5q-134 0 -218.5 97.5t-84.5 234.5zM610 796q5 30 11.5 49.5t19.5 40.5t36 32t56 11q32 0 48 -35t16 -75q0 -43 -35.5 -78.5t-75.5 -35.5q-76 0 -76 91z" />
<glyph unicode="&#xc0;" horiz-adv-x="1558" d="M-20 12q0 4 3 16q5 12 18 12h22q35 0 55.5 13t41.5 41q183 238 542.5 706.5t444.5 579.5q28 37 63 37h26q26 0 35.5 -14t10.5 -40l29 -1213q1 -57 48 -83.5t107 -26.5h44q13 0 13 -15v-11q0 -5 -4 -9.5t-10 -4.5h-621q-14 0 -14 11v19q0 10 12 10q113 0 171 26 q47 20 62 68.5t15 117.5q0 72 -3.5 164t-3.5 124v18q0 12 -2.5 20.5t-15 16t-35.5 7.5h-402q-40 0 -65 -34q-37 -50 -107.5 -141.5t-99.5 -129.5q-2 -3 -14.5 -19t-16 -21.5t-13 -20t-13 -23t-9 -21.5t-7.5 -25.5t-2 -25.5q0 -45 37.5 -73t98.5 -28h49q13 0 13 -11 q-1 -8 -5 -20q-3 -9 -20 -9h-459q-19 0 -19 12zM661 682q0 -5 5 -5h369q22 0 35 13.5t13 36.5q0 82 -5.5 220.5t-5.5 227.5q0 27 -12 27q-7 -1 -23 -21q-28 -38 -85 -112.5t-138 -179.5t-122 -158q0 -1 -10 -13.5t-15.5 -21.5t-5.5 -14zM840 1876q0 30 21 52t51 22 q39 0 75 -49l213 -295q4 -4 4 -6t-4 -6l-22 -29q-4 -4 -8 -4q-2 0 -6 4l-269 217q-55 45 -55 94z" />
<glyph unicode="&#xc1;" horiz-adv-x="1633" d="M-20 12q0 4 3 16q5 12 18 12h22q35 0 55.5 13t41.5 41q183 238 542.5 706.5t444.5 579.5q28 37 63 37h26q26 0 35.5 -14t10.5 -40l29 -1213q1 -57 48 -83.5t107 -26.5h44q13 0 13 -15v-11q0 -5 -4 -9.5t-10 -4.5h-621q-14 0 -14 11v19q0 10 12 10q113 0 171 26 q47 20 62 68.5t15 117.5q0 72 -3.5 164t-3.5 124v18q0 12 -2.5 20.5t-15 16t-35.5 7.5h-402q-40 0 -65 -34q-37 -50 -107.5 -141.5t-99.5 -129.5q-2 -3 -14.5 -19t-16 -21.5t-13 -20t-13 -23t-9 -21.5t-7.5 -25.5t-2 -25.5q0 -45 37.5 -73t98.5 -28h49q13 0 13 -11 q-1 -8 -5 -20q-3 -9 -20 -9h-459q-19 0 -19 12zM661 682q0 -5 5 -5h369q22 0 35 13.5t13 36.5q0 82 -5.5 220.5t-5.5 227.5q0 27 -12 27q-7 -1 -23 -21q-28 -38 -85 -112.5t-138 -179.5t-122 -158q0 -1 -10 -13.5t-15.5 -21.5t-5.5 -14zM1194 1600q0 2 4 6l213 295 q36 49 75 49q30 0 51 -22t21 -52q0 -49 -55 -94l-269 -217q-4 -3 -7 -3q-4 0 -7 3l-22 29q-4 4 -4 6z" />
<glyph unicode="&#xc2;" horiz-adv-x="1558" d="M-20 12q0 4 3 16q5 12 18 12h22q35 0 55.5 13t41.5 41q183 238 542.5 706.5t444.5 579.5q28 37 63 37h26q26 0 35.5 -14t10.5 -40l29 -1213q1 -57 48 -83.5t107 -26.5h44q13 0 13 -15v-11q0 -5 -4 -9.5t-10 -4.5h-621q-14 0 -14 11v19q0 10 12 10q113 0 171 26 q47 20 62 68.5t15 117.5q0 72 -3.5 164t-3.5 124v18q0 12 -2.5 20.5t-15 16t-35.5 7.5h-402q-40 0 -65 -34q-37 -50 -107.5 -141.5t-99.5 -129.5q-2 -3 -14.5 -19t-16 -21.5t-13 -20t-13 -23t-9 -21.5t-7.5 -25.5t-2 -25.5q0 -45 37.5 -73t98.5 -28h49q13 0 13 -11 q-1 -8 -5 -20q-3 -9 -20 -9h-459q-19 0 -19 12zM661 682q0 -5 5 -5h369q22 0 35 13.5t13 36.5q0 82 -5.5 220.5t-5.5 227.5q0 27 -12 27q-7 -1 -23 -21q-28 -38 -85 -112.5t-138 -179.5t-122 -158q0 -1 -10 -13.5t-15.5 -21.5t-5.5 -14zM957 1562l280 386h106v-388h-50 l-44 247l-242 -245h-50z" />
<glyph unicode="&#xc3;" horiz-adv-x="1558" d="M-20 12q0 4 3 16q5 12 18 12h22q35 0 55.5 13t41.5 41q183 238 542.5 706.5t444.5 579.5q28 37 63 37h26q26 0 35.5 -14t10.5 -40l29 -1213q1 -57 48 -83.5t107 -26.5h44q13 0 13 -15v-11q0 -5 -4 -9.5t-10 -4.5h-621q-14 0 -14 11v19q0 10 12 10q113 0 171 26 q47 20 62 68.5t15 117.5q0 72 -3.5 164t-3.5 124v18q0 12 -2.5 20.5t-15 16t-35.5 7.5h-402q-40 0 -65 -34q-37 -50 -107.5 -141.5t-99.5 -129.5q-2 -3 -14.5 -19t-16 -21.5t-13 -20t-13 -23t-9 -21.5t-7.5 -25.5t-2 -25.5q0 -45 37.5 -73t98.5 -28h49q13 0 13 -11 q-1 -8 -5 -20q-3 -9 -20 -9h-459q-19 0 -19 12zM661 682q0 -5 5 -5h369q22 0 35 13.5t13 36.5q0 82 -5.5 220.5t-5.5 227.5q0 27 -12 27q-7 -1 -23 -21q-28 -38 -85 -112.5t-138 -179.5t-122 -158q0 -1 -10 -13.5t-15.5 -21.5t-5.5 -14zM846 1688q0 94 42.5 154t113.5 60 q56 0 161.5 -52.5t157.5 -52.5q33 0 53.5 39.5t20.5 77.5q0 6 5 10t11 4h19q14 0 14 -41q0 -70 -45 -123.5t-117 -53.5q-56 0 -153.5 52t-149.5 52q-29 0 -58.5 -41.5t-29.5 -88.5q0 -12 -16 -12h-21q-8 0 -8 16z" />
<glyph unicode="&#xc4;" horiz-adv-x="1558" d="M-20 12q0 4 3 16q5 12 18 12h22q35 0 55.5 13t41.5 41q183 238 542.5 706.5t444.5 579.5q28 37 63 37h26q26 0 35.5 -14t10.5 -40l29 -1213q1 -57 48 -83.5t107 -26.5h44q13 0 13 -15v-11q0 -5 -4 -9.5t-10 -4.5h-621q-14 0 -14 11v19q0 10 12 10q113 0 171 26 q47 20 62 68.5t15 117.5q0 72 -3.5 164t-3.5 124v18q0 12 -2.5 20.5t-15 16t-35.5 7.5h-402q-40 0 -65 -34q-37 -50 -107.5 -141.5t-99.5 -129.5q-2 -3 -14.5 -19t-16 -21.5t-13 -20t-13 -23t-9 -21.5t-7.5 -25.5t-2 -25.5q0 -45 37.5 -73t98.5 -28h49q13 0 13 -11 q-1 -8 -5 -20q-3 -9 -20 -9h-459q-19 0 -19 12zM661 682q0 -5 5 -5h369q22 0 35 13.5t13 36.5q0 82 -5.5 220.5t-5.5 227.5q0 27 -12 27q-7 -1 -23 -21q-28 -38 -85 -112.5t-138 -179.5t-122 -158q0 -1 -10 -13.5t-15.5 -21.5t-5.5 -14zM886 1829q0 42 28.5 71.5t70.5 29.5 t71 -29.5t29 -71.5q0 -41 -28.5 -69.5t-71.5 -28.5q-42 0 -70.5 28.5t-28.5 69.5zM1245 1829q0 42 29 71.5t71 29.5t70.5 -29.5t28.5 -71.5q0 -41 -28 -69.5t-71 -28.5q-42 0 -71 28.5t-29 69.5z" />
<glyph unicode="&#xc5;" horiz-adv-x="1558" d="M-20 12q0 4 3 16q5 12 18 12h22q35 0 55.5 13t41.5 41q183 238 542.5 706.5t444.5 579.5q28 37 63 37h26q26 0 35.5 -14t10.5 -40l29 -1213q1 -57 48 -83.5t107 -26.5h44q13 0 13 -15v-11q0 -5 -4 -9.5t-10 -4.5h-621q-14 0 -14 11v19q0 10 12 10q113 0 171 26 q47 20 62 68.5t15 117.5q0 72 -3.5 164t-3.5 124v18q0 12 -2.5 20.5t-15 16t-35.5 7.5h-402q-40 0 -65 -34q-37 -50 -107.5 -141.5t-99.5 -129.5q-2 -3 -14.5 -19t-16 -21.5t-13 -20t-13 -23t-9 -21.5t-7.5 -25.5t-2 -25.5q0 -45 37.5 -73t98.5 -28h49q13 0 13 -11 q-1 -8 -5 -20q-3 -9 -20 -9h-459q-19 0 -19 12zM661 682q0 -5 5 -5h369q22 0 35 13.5t13 36.5q0 82 -5.5 220.5t-5.5 227.5q0 27 -12 27q-7 -1 -23 -21q-28 -38 -85 -112.5t-138 -179.5t-122 -158q0 -1 -10 -13.5t-15.5 -21.5t-5.5 -14zM996 1800q0 75 54.5 129.5 t130.5 54.5t130 -54.5t54 -129.5q0 -76 -54 -130t-130 -54t-130.5 54t-54.5 130zM1071 1802q0 -48 33.5 -81.5t81.5 -33.5q46 0 79.5 33.5t33.5 81.5q0 46 -33.5 79.5t-79.5 33.5q-48 0 -81.5 -33.5t-33.5 -79.5z" />
<glyph unicode="&#xc6;" horiz-adv-x="2109" d="M-20 12v10q0 18 15 18h28q15 0 22.5 1t20.5 5.5t26 16.5t28 31q64 82 458.5 598.5t510.5 664.5q-47 13 -106 13q-6 0 -6 8l5 24q2 8 10 8h1047q26 0 38 -5t12 -21v-4q0 -2 -0.5 -4.5t-1 -7t-1.5 -10.5t-2.5 -17t-3.5 -24.5t-4.5 -34.5t-5.5 -46l-9 -59q-5 -35 -10 -74 q-2 -14 -18 -14q-26 0 -30 23q-2 12 -3 37t-2 31q-10 78 -57.5 126.5t-125.5 48.5h-367q-54 0 -66 -9t-22 -56l-105 -500q-2 -10 -2 -12q0 -25 42 -25h367q66 0 121 43.5t85 99.5q5 9 7.5 11t9.5 2h17q9 0 9 -10q0 -3 -0.5 -4t-0.5 -2l-80 -373q-2 -8 -3.5 -11.5t-5.5 -6.5 t-11 -3q-11 0 -15 4t-5 17q-1 5 -1.5 17t-2 24.5t-4.5 24.5q-13 54 -49.5 73t-101.5 19h-361q-10 0 -24.5 -7.5t-17.5 -19.5q-4 -12 -21 -88q-3 -11 -65 -309q-9 -40 -9 -80q0 -31 11.5 -53t28 -33.5t48 -17.5t57 -7.5t68.5 -1.5q78 0 136 3.5t103 8t82.5 17.5t63 24 t56 36.5t51 45t58.5 58.5q6 7 26 30t33 34.5t22 11.5q29 0 29 -19q0 -9 -13 -41q-22 -50 -39.5 -98t-25.5 -73.5t-16.5 -48t-16 -31.5t-19 -14t-30.5 -5h-1091q-7 0 -7 8l5 24q3 8 10 8q80 0 122.5 27.5t61.5 115.5l82 384h-421q-40 0 -66 -34q-88 -118 -181 -236 q-84 -107 -84 -183q0 -74 96 -74h61q12 0 12 -11v-15q0 -14 -20 -14h-427q-19 0 -19 12zM636 646q0 -4 20 -4h352q36 0 43 28l124 580q4 18 4 35t-3 24.5t-15 7.5q-13 0 -22.5 -9t-33.5 -40l-438 -572l-21 -29q-10 -10 -10 -21z" />
<glyph unicode="&#xc7;" horiz-adv-x="1531" d="M110 629q0 120 39.5 232t107.5 201t160.5 163t197.5 123.5t219.5 76.5t225.5 27q31 0 86 -4t132.5 -15t143.5 -27t112.5 -44.5t46.5 -63.5q0 -21 -16 -95.5t-34 -132.5q-25 -77 -40 -77q-13 0 -18.5 3t-6.5 14q0 8 -1.5 39t-3 44t-4.5 37t-9 42.5t-15 35.5 q-40 79 -135 130.5t-191 51.5q-154 0 -302.5 -63.5t-260 -169t-180 -251.5t-68.5 -301q0 -160 66 -290t192.5 -207t290.5 -77q160 0 293.5 99.5t178.5 220.5q5 13 7 18t8 12.5t14 10.5t21 3q26 0 26 -17q0 -1 -1.5 -8t-5 -27t-11 -54t-22.5 -102.5t-35 -158.5q-1 -8 -19 -8 q-13 0 -40 6t-43 6q-65 0 -174.5 -31t-168.5 -31q-4 0 -10.5 0.5t-9.5 0.5l-107 -125q72 -20 106 -67.5t34 -83.5q-5 -56 -35 -98.5t-79.5 -68t-102.5 -39.5t-116 -21q-56 0 -56 43q0 19 16 25q11 4 45 9.5t64 12.5t61.5 20t50.5 38t19 60q0 45 -52 75t-98 34l154 191 q-97 10 -184 35t-174 75.5t-149 121t-101 179t-39 242.5z" />
<glyph unicode="&#xc8;" horiz-adv-x="1360" d="M0 8l5 24q3 8 10 8q80 0 122.5 27.5t61.5 115.5q101 475 190 881q40 185 40 205q0 28 -19 49t-50 31.5t-62 15.5t-63 5q-6 0 -6 8l5 24q2 8 10 8h1046q26 0 38 -5t12 -21v-4q0 -2 -0.5 -4.5t-1 -7t-1.5 -10.5t-2.5 -17t-3.5 -24.5t-4.5 -34.5t-6.5 -46l-8 -59 q-5 -35 -10 -74q-2 -14 -18 -14q-26 0 -30 23q-2 12 -3 37t-2 31q-10 78 -57.5 126.5t-125.5 48.5h-367q-54 0 -66 -9t-22 -56l-105 -500q-2 -10 -2 -12q0 -25 42 -25h367q66 0 121 43.5t85 99.5q5 9 7.5 11t9.5 2h17q9 0 9 -10q0 -3 -0.5 -4t-0.5 -2l-80 -373 q-2 -8 -3.5 -11.5t-5.5 -6.5t-11 -3q-11 0 -15 4t-5 17q-1 5 -1.5 17t-2 24.5t-4.5 24.5q-13 54 -49.5 73t-101.5 19h-361q-10 0 -24.5 -7.5t-17.5 -19.5q-4 -12 -21 -88q-3 -11 -65 -309q-9 -40 -9 -80q0 -31 11.5 -53t28 -33.5t48 -17.5t57 -7.5t68.5 -1.5q78 0 136 3.5 t103 8t82.5 17.5t63 24t56 36.5t51 45t58.5 58.5q6 7 26 30t33 34.5t22 11.5q29 0 29 -19q0 -9 -13 -41q-22 -50 -39.5 -98t-25.5 -73.5t-16.5 -48t-16 -31.5t-19 -14t-30.5 -5h-1090q-7 0 -7 8zM791 1876q0 30 21 52t51 22q39 0 75 -49l213 -295q4 -4 4 -6t-4 -6l-22 -29 q-4 -4 -8 -4q-2 0 -6 4l-269 217q-55 45 -55 94z" />
<glyph unicode="&#xc9;" horiz-adv-x="1360" d="M0 8l5 24q3 8 10 8q80 0 122.5 27.5t61.5 115.5q101 475 190 881q40 185 40 205q0 28 -19 49t-50 31.5t-62 15.5t-63 5q-6 0 -6 8l5 24q2 8 10 8h1046q26 0 38 -5t12 -21v-4q0 -2 -0.5 -4.5t-1 -7t-1.5 -10.5t-2.5 -17t-3.5 -24.5t-4.5 -34.5t-6.5 -46l-8 -59 q-5 -35 -10 -74q-2 -14 -18 -14q-26 0 -30 23q-2 12 -3 37t-2 31q-10 78 -57.5 126.5t-125.5 48.5h-367q-54 0 -66 -9t-22 -56l-105 -500q-2 -10 -2 -12q0 -25 42 -25h367q66 0 121 43.5t85 99.5q5 9 7.5 11t9.5 2h17q9 0 9 -10q0 -3 -0.5 -4t-0.5 -2l-80 -373 q-2 -8 -3.5 -11.5t-5.5 -6.5t-11 -3q-11 0 -15 4t-5 17q-1 5 -1.5 17t-2 24.5t-4.5 24.5q-13 54 -49.5 73t-101.5 19h-361q-10 0 -24.5 -7.5t-17.5 -19.5q-4 -12 -21 -88q-3 -11 -65 -309q-9 -40 -9 -80q0 -31 11.5 -53t28 -33.5t48 -17.5t57 -7.5t68.5 -1.5q78 0 136 3.5 t103 8t82.5 17.5t63 24t56 36.5t51 45t58.5 58.5q6 7 26 30t33 34.5t22 11.5q29 0 29 -19q0 -9 -13 -41q-22 -50 -39.5 -98t-25.5 -73.5t-16.5 -48t-16 -31.5t-19 -14t-30.5 -5h-1090q-7 0 -7 8zM774 1600q0 2 4 6l213 295q36 49 75 49q30 0 51 -22t21 -52q0 -49 -55 -94 l-269 -217q-4 -3 -7 -3q-4 0 -7 3l-22 29q-4 4 -4 6z" />
<glyph unicode="&#xca;" horiz-adv-x="1360" d="M0 8l5 24q3 8 10 8q80 0 122.5 27.5t61.5 115.5q101 475 190 881q40 185 40 205q0 28 -19 49t-50 31.5t-62 15.5t-63 5q-6 0 -6 8l5 24q2 8 10 8h1046q26 0 38 -5t12 -21v-4q0 -2 -0.5 -4.5t-1 -7t-1.5 -10.5t-2.5 -17t-3.5 -24.5t-4.5 -34.5t-6.5 -46l-8 -59 q-5 -35 -10 -74q-2 -14 -18 -14q-26 0 -30 23q-2 12 -3 37t-2 31q-10 78 -57.5 126.5t-125.5 48.5h-367q-54 0 -66 -9t-22 -56l-105 -500q-2 -10 -2 -12q0 -25 42 -25h367q66 0 121 43.5t85 99.5q5 9 7.5 11t9.5 2h17q9 0 9 -10q0 -3 -0.5 -4t-0.5 -2l-80 -373 q-2 -8 -3.5 -11.5t-5.5 -6.5t-11 -3q-11 0 -15 4t-5 17q-1 5 -1.5 17t-2 24.5t-4.5 24.5q-13 54 -49.5 73t-101.5 19h-361q-10 0 -24.5 -7.5t-17.5 -19.5q-4 -12 -21 -88q-3 -11 -65 -309q-9 -40 -9 -80q0 -31 11.5 -53t28 -33.5t48 -17.5t57 -7.5t68.5 -1.5q78 0 136 3.5 t103 8t82.5 17.5t63 24t56 36.5t51 45t58.5 58.5q6 7 26 30t33 34.5t22 11.5q29 0 29 -19q0 -9 -13 -41q-22 -50 -39.5 -98t-25.5 -73.5t-16.5 -48t-16 -31.5t-19 -14t-30.5 -5h-1090q-7 0 -7 8zM711 1586l280 386h106v-388h-50l-44 247l-242 -245h-50z" />
<glyph unicode="&#xcb;" horiz-adv-x="1360" d="M0 8l5 24q3 8 10 8q80 0 122.5 27.5t61.5 115.5q101 475 190 881q40 185 40 205q0 28 -19 49t-50 31.5t-62 15.5t-63 5q-6 0 -6 8l5 24q2 8 10 8h1046q26 0 38 -5t12 -21v-4q0 -2 -0.5 -4.5t-1 -7t-1.5 -10.5t-2.5 -17t-3.5 -24.5t-4.5 -34.5t-6.5 -46l-8 -59 q-5 -35 -10 -74q-2 -14 -18 -14q-26 0 -30 23q-2 12 -3 37t-2 31q-10 78 -57.5 126.5t-125.5 48.5h-367q-54 0 -66 -9t-22 -56l-105 -500q-2 -10 -2 -12q0 -25 42 -25h367q66 0 121 43.5t85 99.5q5 9 7.5 11t9.5 2h17q9 0 9 -10q0 -3 -0.5 -4t-0.5 -2l-80 -373 q-2 -8 -3.5 -11.5t-5.5 -6.5t-11 -3q-11 0 -15 4t-5 17q-1 5 -1.5 17t-2 24.5t-4.5 24.5q-13 54 -49.5 73t-101.5 19h-361q-10 0 -24.5 -7.5t-17.5 -19.5q-4 -12 -21 -88q-3 -11 -65 -309q-9 -40 -9 -80q0 -31 11.5 -53t28 -33.5t48 -17.5t57 -7.5t68.5 -1.5q78 0 136 3.5 t103 8t82.5 17.5t63 24t56 36.5t51 45t58.5 58.5q6 7 26 30t33 34.5t22 11.5q29 0 29 -19q0 -9 -13 -41q-22 -50 -39.5 -98t-25.5 -73.5t-16.5 -48t-16 -31.5t-19 -14t-30.5 -5h-1090q-7 0 -7 8zM656 1829q0 42 28.5 71.5t70.5 29.5t71 -29.5t29 -71.5q0 -41 -28.5 -69.5 t-71.5 -28.5q-42 0 -70.5 28.5t-28.5 69.5zM1015 1829q0 42 29 71.5t71 29.5t70.5 -29.5t28.5 -71.5q0 -41 -28 -69.5t-71 -28.5q-42 0 -71 28.5t-29 69.5z" />
<glyph unicode="&#xcc;" horiz-adv-x="667" d="M20 8l5 24q3 8 10 8q80 0 123 27.5t62 115.5q77 362 162 761q68 316 68 331q0 95 -170 95q-6 0 -6 8l5 24q2 8 10 8h521q6 0 6 -8l-5 -24q-2 -8 -10 -8q-80 0 -123 -27.5t-62 -115.5l-227 -1067q-4 -16 -4 -32q0 -30 16.5 -49.5t49 -27t57 -9.5t63.5 -2q6 0 6 -8l-5 -24 q-2 -8 -9 -8h-536q-7 0 -7 8zM351 1876q0 30 21 52t51 22q39 0 75 -49l213 -295q4 -4 4 -6t-4 -6l-22 -29q-4 -4 -8 -4q-2 0 -6 4l-269 217q-55 45 -55 94z" />
<glyph unicode="&#xcd;" horiz-adv-x="699" d="M29 8l5 24q3 8 10 8q80 0 123 27.5t62 115.5q77 362 162 761q68 316 68 331q0 95 -170 95q-6 0 -6 8l5 24q2 8 10 8h521q6 0 6 -8l-5 -24q-2 -8 -10 -8q-80 0 -123 -27.5t-62 -115.5l-227 -1067q-4 -16 -4 -32q0 -30 16.5 -49.5t49 -27t57 -9.5t63.5 -2q6 0 6 -8l-5 -24 q-2 -8 -9 -8h-536q-7 0 -7 8zM558 1600q0 2 4 6l213 295q36 49 75 49q30 0 51 -22t21 -52q0 -49 -55 -94l-269 -217q-4 -3 -7 -3q-4 0 -7 3l-22 29q-4 4 -4 6z" />
<glyph unicode="&#xce;" horiz-adv-x="699" d="M29 8l5 24q3 8 10 8q80 0 123 27.5t62 115.5q77 362 162 761q68 316 68 331q0 95 -170 95q-6 0 -6 8l5 24q2 8 10 8h521q6 0 6 -8l-5 -24q-2 -8 -10 -8q-80 0 -123 -27.5t-62 -115.5l-227 -1067q-4 -16 -4 -32q0 -30 16.5 -49.5t49 -27t57 -9.5t63.5 -2q6 0 6 -8l-5 -24 q-2 -8 -9 -8h-536q-7 0 -7 8zM395 1562l280 386h106v-388h-50l-44 247l-242 -245h-50z" />
<glyph unicode="&#xcf;" horiz-adv-x="699" d="M29 8l5 24q3 8 10 8q80 0 123 27.5t62 115.5q77 362 162 761q68 316 68 331q0 95 -170 95q-6 0 -6 8l5 24q2 8 10 8h521q6 0 6 -8l-5 -24q-2 -8 -10 -8q-80 0 -123 -27.5t-62 -115.5l-227 -1067q-4 -16 -4 -32q0 -30 16.5 -49.5t49 -27t57 -9.5t63.5 -2q6 0 6 -8l-5 -24 q-2 -8 -9 -8h-536q-7 0 -7 8zM365 1829q0 42 28.5 71.5t70.5 29.5t71 -29.5t29 -71.5q0 -41 -28.5 -69.5t-71.5 -28.5q-42 0 -70.5 28.5t-28.5 69.5zM724 1829q0 42 29 71.5t71 29.5t70.5 -29.5t28.5 -71.5q0 -41 -28.5 -69.5t-70.5 -28.5t-71 28.5t-29 69.5z" />
<glyph unicode="&#xd0;" horiz-adv-x="1619" d="M0 8l7 34q3 8 10 8q35 0 62 4t58.5 15.5t53.5 38.5t31 68l106 499h-188q-9 0 -15.5 5.5t-6.5 14.5l6 30q5 25 22 25h198l103 481q5 23 5 46q0 24 -9 40t-20 24.5t-35 12.5t-40.5 4.5t-49.5 0.5h-63q-7 0 -7 8l7 33q0 10 10 10h578q110 0 218 -19.5t213.5 -64 t185.5 -110.5t129.5 -167t49.5 -224q0 -130 -32.5 -247t-108 -224t-188.5 -184.5t-284 -123.5t-384 -46h-615q-7 0 -7 8zM407 200q0 -65 72.5 -106.5t163.5 -41.5q18 0 45.5 2t81 11t108 23.5t120.5 44t125 68t116 98.5t97.5 133.5t65.5 176.5t25 222t-39.5 213t-104 153 t-155.5 98t-186 54.5t-203 15.5q-47 0 -69 -11.5t-29 -41.5l-120 -562h340q9 0 15 -5.5t6 -14.5l-6 -30q-5 -25 -21 -25h-350l-96 -454q-2 -14 -2 -21z" />
<glyph unicode="&#x189;" horiz-adv-x="1619" d="M0 8l7 34q3 8 10 8q35 0 62 4t58.5 15.5t53.5 38.5t31 68l106 499h-188q-9 0 -15.5 5.5t-6.5 14.5l6 30q5 25 22 25h198l103 481q5 23 5 46q0 24 -9 40t-20 24.5t-35 12.5t-40.5 4.5t-49.5 0.5h-63q-7 0 -7 8l7 33q0 10 10 10h578q110 0 218 -19.5t213.5 -64 t185.5 -110.5t129.5 -167t49.5 -224q0 -130 -32.5 -247t-108 -224t-188.5 -184.5t-284 -123.5t-384 -46h-615q-7 0 -7 8zM407 200q0 -65 72.5 -106.5t163.5 -41.5q18 0 45.5 2t81 11t108 23.5t120.5 44t125 68t116 98.5t97.5 133.5t65.5 176.5t25 222t-39.5 213t-104 153 t-155.5 98t-186 54.5t-203 15.5q-47 0 -69 -11.5t-29 -41.5l-120 -562h340q9 0 15 -5.5t6 -14.5l-6 -30q-5 -25 -21 -25h-350l-96 -454q-2 -14 -2 -21z" />
<glyph unicode="&#x110;" horiz-adv-x="1619" d="M0 8l7 34q3 8 10 8q35 0 62 4t58.5 15.5t53.5 38.5t31 68l106 499h-188q-9 0 -15.5 5.5t-6.5 14.5l6 30q5 25 22 25h198l103 481q5 23 5 46q0 24 -9 40t-20 24.5t-35 12.5t-40.5 4.5t-49.5 0.5h-63q-7 0 -7 8l7 33q0 10 10 10h578q110 0 218 -19.5t213.5 -64 t185.5 -110.5t129.5 -167t49.5 -224q0 -130 -32.5 -247t-108 -224t-188.5 -184.5t-284 -123.5t-384 -46h-615q-7 0 -7 8zM407 200q0 -65 72.5 -106.5t163.5 -41.5q18 0 45.5 2t81 11t108 23.5t120.5 44t125 68t116 98.5t97.5 133.5t65.5 176.5t25 222t-39.5 213t-104 153 t-155.5 98t-186 54.5t-203 15.5q-47 0 -69 -11.5t-29 -41.5l-120 -562h340q9 0 15 -5.5t6 -14.5l-6 -30q-5 -25 -21 -25h-350l-96 -454q-2 -14 -2 -21z" />
<glyph unicode="&#xd1;" horiz-adv-x="1716" d="M17 23q0 14 8 21t28.5 12.5t23.5 6.5q47 18 90 67.5t54 100.5l211 994q1 5 3.5 16.5t4.5 20.5t2 15q0 31 -32 53.5t-69.5 31t-72.5 8.5q-17 0 -24.5 0.5t-13 5t-5.5 13.5q0 13 8 17t31 4h251q41 0 61 -6t31 -17t33 -43l693 -1018q21 -32 26 -32t8 5.5t5.5 16.5t3.5 13 q10 43 23 113q14 71 64.5 304t67.5 313q4 19 11.5 53t11.5 52t7.5 42t3.5 42q0 65 -51 104q-24 18 -118 18q-12 0 -17.5 7t-5.5 12q0 11 5.5 16t23.5 5h441q23 0 23 -21q0 -6 -1 -10t-6.5 -6.5t-15.5 -2.5h-40q-54 0 -97 -33t-56 -73q-16 -48 -29 -117q0 -3 -213 -1004 q-2 -9 -9 -47t-12 -58l-1 -1v-2q-3 -11 -5 -16.5t-8.5 -11.5t-17.5 -6q-10 0 -21 7t-23 22t-20.5 27t-22 33t-18.5 29q-160 234 -293.5 430.5t-197.5 290t-112 163.5t-65.5 95.5t-27.5 41.5q-32 47 -47 47q-12 0 -21 -46q-25 -123 -78 -368t-79 -372q-12 -54 -12 -118 q0 -65 13.5 -117.5t49 -89t89.5 -36.5q34 0 43.5 -3t9.5 -14v-9q0 -8 -4.5 -11t-17.5 -3h-451q-13 0 -18.5 1t-9.5 6t-4 16zM835 1688q0 94 42.5 154t113.5 60q56 0 161.5 -52.5t157.5 -52.5q33 0 53.5 39.5t20.5 77.5q0 6 5 10t11 4h19q14 0 14 -41q0 -70 -45 -123.5 t-117 -53.5q-56 0 -153.5 52t-149.5 52q-29 0 -58.5 -41.5t-29.5 -88.5q0 -12 -16 -12h-21q-8 0 -8 16z" />
<glyph unicode="&#xd2;" horiz-adv-x="1632" d="M125 651q0 159 63.5 306.5t170 256t252.5 173.5t303 65q180 0 322.5 -47.5t232 -132t136.5 -195.5t47 -241q0 -137 -41.5 -264t-118 -230t-179 -180.5t-230.5 -119.5t-267 -42q-191 0 -350 87.5t-250 237t-91 326.5zM324 625q0 -166 58 -297.5t170 -209t260 -77.5 q122 0 229 52t183 139t131 198.5t82 232.5t27 239q0 109 -31 201.5t-92 164t-159.5 111.5t-224.5 40q-121 0 -225.5 -45.5t-178.5 -123t-126.5 -179.5t-77.5 -215.5t-25 -230.5zM760 1901q0 30 21 52t51 22q39 0 75 -49l213 -295q4 -4 4 -6t-4 -6l-22 -29q-4 -4 -8 -4 q-2 0 -6 4l-269 217q-55 45 -55 94z" />
<glyph unicode="&#xd3;" horiz-adv-x="1632" d="M125 651q0 159 63.5 306.5t170 256t252.5 173.5t303 65q180 0 322.5 -47.5t232 -132t136.5 -195.5t47 -241q0 -137 -41.5 -264t-118 -230t-179 -180.5t-230.5 -119.5t-267 -42q-191 0 -350 87.5t-250 237t-91 326.5zM324 625q0 -166 58 -297.5t170 -209t260 -77.5 q122 0 229 52t183 139t131 198.5t82 232.5t27 239q0 109 -31 201.5t-92 164t-159.5 111.5t-224.5 40q-121 0 -225.5 -45.5t-178.5 -123t-126.5 -179.5t-77.5 -215.5t-25 -230.5zM1017 1600q0 2 4 6l213 295q36 49 75 49q30 0 51 -22t21 -52q0 -49 -55 -94l-269 -217 q-5 -3 -7 -3q-4 0 -7 3l-22 29q-4 4 -4 6z" />
<glyph unicode="&#xd4;" horiz-adv-x="1632" d="M125 651q0 159 63.5 306.5t170 256t252.5 173.5t303 65q180 0 322.5 -47.5t232 -132t136.5 -195.5t47 -241q0 -137 -41.5 -264t-118 -230t-179 -180.5t-230.5 -119.5t-267 -42q-191 0 -350 87.5t-250 237t-91 326.5zM324 625q0 -166 58 -297.5t170 -209t260 -77.5 q122 0 229 52t183 139t131 198.5t82 232.5t27 239q0 109 -31 201.5t-92 164t-159.5 111.5t-224.5 40q-121 0 -225.5 -45.5t-178.5 -123t-126.5 -179.5t-77.5 -215.5t-25 -230.5zM825 1587l280 386h106v-388h-50l-44 247l-242 -245h-50z" />
<glyph unicode="&#xd5;" horiz-adv-x="1632" d="M125 651q0 159 63.5 306.5t170 256t252.5 173.5t303 65q180 0 322.5 -47.5t232 -132t136.5 -195.5t47 -241q0 -137 -41.5 -264t-118 -230t-179 -180.5t-230.5 -119.5t-267 -42q-191 0 -350 87.5t-250 237t-91 326.5zM324 625q0 -166 58 -297.5t170 -209t260 -77.5 q122 0 229 52t183 139t131 198.5t82 232.5t27 239q0 109 -31 201.5t-92 164t-159.5 111.5t-224.5 40q-121 0 -225.5 -45.5t-178.5 -123t-126.5 -179.5t-77.5 -215.5t-25 -230.5zM765 1617q0 94 42.5 154t113.5 60q56 0 161.5 -52.5t157.5 -52.5q33 0 53.5 39.5t20.5 77.5 q0 6 5 10t11 4h19q14 0 14 -41q0 -70 -45 -123.5t-117 -53.5q-56 0 -153.5 52t-149.5 52q-29 0 -58.5 -41.5t-29.5 -88.5q0 -12 -16 -12h-21q-8 0 -8 16z" />
<glyph unicode="&#xd6;" horiz-adv-x="1632" d="M125 651q0 159 63.5 306.5t170 256t252.5 173.5t303 65q180 0 322.5 -47.5t232 -132t136.5 -195.5t47 -241q0 -137 -41.5 -264t-118 -230t-179 -180.5t-230.5 -119.5t-267 -42q-191 0 -350 87.5t-250 237t-91 326.5zM324 625q0 -166 58 -297.5t170 -209t260 -77.5 q122 0 229 52t183 139t131 198.5t82 232.5t27 239q0 109 -31 201.5t-92 164t-159.5 111.5t-224.5 40q-121 0 -225.5 -45.5t-178.5 -123t-126.5 -179.5t-77.5 -215.5t-25 -230.5zM801 1760q0 42 28.5 71.5t70.5 29.5t71 -29.5t29 -71.5q0 -41 -28.5 -69.5t-71.5 -28.5 q-42 0 -70.5 28.5t-28.5 69.5zM1160 1760q0 42 29 71.5t71 29.5t70.5 -29.5t28.5 -71.5t-28.5 -70t-70.5 -28t-71 28.5t-29 69.5z" />
<glyph unicode="&#xd7;" horiz-adv-x="1049" d="M118 308l318 317l-316 315l89 89l315 -316l317 318l89 -88l-318 -318l320 -320l-88 -88l-320 320l-318 -318z" />
<glyph unicode="&#xd8;" horiz-adv-x="1642" d="M125 651q0 159 63.5 306.5t170 256t252.5 173.5t303 65q312 0 506 -141l167 179l75 -70l-165 -176q155 -164 155 -408q0 -137 -41.5 -264t-118 -230t-179 -180.5t-230.5 -119.5t-267 -42q-210 0 -381 106l-192 -206l-73 71l182 195q-107 92 -167 217.5t-60 267.5z M324 625q0 -223 103 -378l931 998q-135 174 -401 174q-121 0 -225.5 -45.5t-178.5 -123t-126.5 -179.5t-77.5 -215.5t-25 -230.5zM492 167q131 -126 320 -126q122 0 229 52t183 139t131 198.5t82 232.5t27 239q0 140 -51 252z" />
<glyph unicode="&#xd9;" horiz-adv-x="1618" d="M251 403q0 34 8 74q169 792 169 800q0 51 -51 72t-120 21q-6 0 -6 8l5 24q2 8 10 8h521q6 0 6 -8l-5 -24q-2 -8 -10 -8q-80 0 -122.5 -27.5t-60.5 -115.5l-155 -719q-9 -42 -9 -82q0 -104 57 -187.5t143 -126t180 -42.5q223 0 364 109.5t188 329.5l122 572q16 74 16 126 q0 163 -158 163h-28q-21 0 -21 15v10q0 15 19 15h450q15 0 15 -13v-11q0 -4 -4.5 -7.5t-13 -5.5t-16 -3t-18 -2.5t-14.5 -2.5q-27 -6 -40.5 -10t-30.5 -15t-27 -30.5t-17 -49.5l-31 -143q-6 -29 -56.5 -267.5t-82.5 -388.5q-47 -220 -200 -340.5t-381 -120.5 q-108 0 -212.5 27t-190.5 76.5t-139 128t-53 171.5zM847 1876q0 30 21 52t51 22q39 0 75 -49l213 -295q4 -4 4 -6t-4 -6l-22 -29q-4 -4 -8 -4q-2 0 -6 4l-269 217q-55 45 -55 94z" />
<glyph unicode="&#xda;" horiz-adv-x="1618" d="M251 403q0 34 8 74q169 792 169 800q0 51 -51 72t-120 21q-6 0 -6 8l5 24q2 8 10 8h521q6 0 6 -8l-5 -24q-2 -8 -10 -8q-80 0 -122.5 -27.5t-60.5 -115.5l-155 -719q-9 -42 -9 -82q0 -104 57 -187.5t143 -126t180 -42.5q223 0 364 109.5t188 329.5l122 572q16 74 16 126 q0 163 -158 163h-28q-21 0 -21 15v10q0 15 19 15h450q15 0 15 -13v-11q0 -4 -4.5 -7.5t-13 -5.5t-16 -3t-18 -2.5t-14.5 -2.5q-27 -6 -40.5 -10t-30.5 -15t-27 -30.5t-17 -49.5l-31 -143q-6 -29 -56.5 -267.5t-82.5 -388.5q-47 -220 -200 -340.5t-381 -120.5 q-108 0 -212.5 27t-190.5 76.5t-139 128t-53 171.5zM1075 1600q0 2 4 6l213 295q36 49 75 49q30 0 51 -22t21 -52q0 -49 -55 -94l-269 -217q-5 -3 -7 -3q-4 0 -7 3l-22 29q-4 4 -4 6z" />
<glyph unicode="&#xdb;" horiz-adv-x="1618" d="M251 403q0 34 8 74q169 792 169 800q0 51 -51 72t-120 21q-6 0 -6 8l5 24q2 8 10 8h521q6 0 6 -8l-5 -24q-2 -8 -10 -8q-80 0 -122.5 -27.5t-60.5 -115.5l-155 -719q-9 -42 -9 -82q0 -104 57 -187.5t143 -126t180 -42.5q223 0 364 109.5t188 329.5l122 572q16 74 16 126 q0 163 -158 163h-28q-21 0 -21 15v10q0 15 19 15h450q15 0 15 -13v-11q0 -4 -4.5 -7.5t-13 -5.5t-16 -3t-18 -2.5t-14.5 -2.5q-27 -6 -40.5 -10t-30.5 -15t-27 -30.5t-17 -49.5l-31 -143q-6 -29 -56.5 -267.5t-82.5 -388.5q-47 -220 -200 -340.5t-381 -120.5 q-108 0 -212.5 27t-190.5 76.5t-139 128t-53 171.5zM922 1562l280 386h106v-388h-50l-44 247l-242 -245h-50z" />
<glyph unicode="&#xdc;" horiz-adv-x="1618" d="M251 403q0 34 8 74q169 792 169 800q0 51 -51 72t-120 21q-6 0 -6 8l5 24q2 8 10 8h521q6 0 6 -8l-5 -24q-2 -8 -10 -8q-80 0 -122.5 -27.5t-60.5 -115.5l-155 -719q-9 -42 -9 -82q0 -104 57 -187.5t143 -126t180 -42.5q223 0 364 109.5t188 329.5l122 572q16 74 16 126 q0 163 -158 163h-28q-21 0 -21 15v10q0 15 19 15h450q15 0 15 -13v-11q0 -4 -4.5 -7.5t-13 -5.5t-16 -3t-18 -2.5t-14.5 -2.5q-27 -6 -40.5 -10t-30.5 -15t-27 -30.5t-17 -49.5l-31 -143q-6 -29 -56.5 -267.5t-82.5 -388.5q-47 -220 -200 -340.5t-381 -120.5 q-108 0 -212.5 27t-190.5 76.5t-139 128t-53 171.5zM857 1829q0 42 28.5 71.5t70.5 29.5t71 -29.5t29 -71.5q0 -41 -28.5 -69.5t-71.5 -28.5q-42 0 -70.5 28.5t-28.5 69.5zM1216 1829q0 42 29 71.5t71 29.5t70.5 -29.5t28.5 -71.5q0 -41 -28.5 -69.5t-70.5 -28.5t-71 28.5 t-29 69.5z" />
<glyph unicode="&#xdd;" horiz-adv-x="1484" d="M251 1382v13q0 11 19 14h441q19 0 19 -14v-13q0 -13 -16 -13h-38q-28 0 -54.5 -19.5t-26.5 -57.5q0 -24 15 -59q45 -100 116 -267t110 -255q1 -3 4.5 -10.5t5.5 -12t5.5 -10.5t7 -9t7.5 -3q15 0 42 33q18 22 44 53.5t44 52.5t19 22q62 73 168.5 200.5t152.5 181.5 q30 34 30 74q0 39 -20.5 62.5t-59.5 23.5h-37q-20 0 -20 14v13q0 14 20 14h370q6 0 10.5 -4t4.5 -8v-13q0 -12 -9 -15.5t-28.5 -7t-35.5 -14.5q-47 -31 -150 -156q-92 -111 -272 -324t-257 -305q-11 -58 -36.5 -178t-38.5 -185q-5 -23 -5 -39q0 -56 44.5 -88.5t124.5 -32.5 h47q18 0 18 -13v-14q0 -13 -16 -13h-625q-20 0 -20 15v12q0 13 20 13h60q48 0 88.5 25t62.5 58q17 28 21 49q61 298 73 379q0 12 -16 51q-233 537 -272 627q-60 140 -141 140q-20 0 -20 13zM997 1600q0 2 4 6l213 295q36 49 75 49q30 0 51 -22t21 -52q0 -49 -55 -94 l-269 -217q-5 -3 -7 -3q-4 0 -7 3l-22 29q-4 4 -4 6z" />
<glyph unicode="&#xde;" horiz-adv-x="1068" d="M20 8l5 24q3 8 10 8q80 0 122.5 27.5t61.5 115.5l228 1067q3 12 3 28q0 35 -29 57t-64 28.5t-77 6.5q-6 0 -6 8l5 24q2 8 10 8h521q6 0 6 -8l-5 -24q-2 -8 -10 -8q-76 0 -120 -35.5t-63 -125.5l-10 -45h11q81 0 162.5 -22.5t153.5 -65.5t117.5 -116t45.5 -163 q0 -108 -38 -192t-100.5 -136t-150.5 -85t-179 -46t-196 -13h-9l-36 -165q-4 -16 -4 -32q0 -30 16.5 -49.5t49 -27t57 -9.5t63.5 -2q6 0 6 -8l-5 -24q-2 -8 -9 -8h-536q-7 0 -7 8zM437 380q227 1 352 104t125 320q0 140 -82.5 226.5t-220.5 86.5h-13z" />
<glyph unicode="&#xdf;" horiz-adv-x="1253" d="M-340 -545q0 24 13 42t39 18q35 0 101.5 -43t102.5 -43q51 0 93 45.5t70 111.5q53 153 95 352l236 1129q11 51 20 88t31.5 101.5t48 112t68.5 103t93 90.5t122.5 59t157.5 24q151 0 246.5 -83.5t95.5 -211.5q0 -155 -116 -269.5t-316 -184.5l-1 -4q67 -14 126 -42 t108.5 -71.5t78.5 -107.5t29 -141q0 -102 -37.5 -194.5t-96 -157t-129 -112t-137 -70.5t-118.5 -23q-45 0 -71.5 18t-26.5 47q0 30 23 55t49 25q25 0 65.5 -27t70.5 -27q58 0 112 91t83.5 208.5t29.5 210.5q0 148 -80.5 220t-245.5 72l7 37q189 15 308 140.5t119 308.5 q0 108 -58 171t-160 63q-46 0 -82.5 -5.5t-75 -20t-68 -45.5t-48.5 -77q-39 -143 -87 -370l-238 -1128q-10 -48 -29.5 -103.5t-49.5 -123.5t-73.5 -128.5t-96 -111.5t-122.5 -81.5t-147 -30.5q-57 0 -94.5 30.5t-37.5 63.5z" />
<glyph unicode="&#xe0;" horiz-adv-x="893" d="M100 229q0 84 42 186q86 209 285.5 347t423.5 138q17 0 17 -28l-151 -692q-4 -29 -4 -41q0 -14 8 -26t18 -12q12 0 53 36.5t52 36.5q16 0 16 -18q0 -19 -108.5 -103t-136.5 -84q-14 0 -19 4q-30 25 -30 81q0 52 11.5 107t12.5 60q0 16 -8 16t-22 -11t-66 -56.5 t-99.5 -86.5t-100 -75.5t-79.5 -34.5q-35 0 -60 28.5t-36 74t-15 82.5t-4 71zM234 239q0 -22 1 -38.5t6 -40t13.5 -39t25.5 -26.5t40 -11q25 13 48.5 28t55 41t49.5 41.5t65 58t70 62.5l99 455q0 16 -27 16q-99 0 -198.5 -52t-150.5 -135q-86 -138 -97 -360zM465 1378 q0 30 21 52t51 22q39 0 75 -49l213 -295q4 -4 4 -6t-4 -6l-22 -29q-4 -4 -8 -4q-2 0 -6 4l-269 217q-55 45 -55 94z" />
<glyph unicode="&#xe1;" horiz-adv-x="893" d="M100 229q0 84 42 186q86 209 285.5 347t423.5 138q17 0 17 -28l-151 -692q-4 -29 -4 -41q0 -14 8 -26t18 -12q12 0 53 36.5t52 36.5q16 0 16 -18q0 -19 -108.5 -103t-136.5 -84q-14 0 -19 4q-30 25 -30 81q0 52 11.5 107t12.5 60q0 16 -8 16t-22 -11t-66 -56.5 t-99.5 -86.5t-100 -75.5t-79.5 -34.5q-35 0 -60 28.5t-36 74t-15 82.5t-4 71zM234 239q0 -22 1 -38.5t6 -40t13.5 -39t25.5 -26.5t40 -11q25 13 48.5 28t55 41t49.5 41.5t65 58t70 62.5l99 455q0 16 -27 16q-99 0 -198.5 -52t-150.5 -135q-86 -138 -97 -360zM601 1102 q0 2 4 6l213 295q36 49 75 49q30 0 51 -22t21 -52q0 -49 -55 -94l-269 -217q-5 -3 -7 -3q-4 0 -7 3l-22 29q-4 4 -4 6z" />
<glyph unicode="&#xe2;" horiz-adv-x="893" d="M100 229q0 84 42 186q86 209 285.5 347t423.5 138q17 0 17 -28l-151 -692q-4 -29 -4 -41q0 -14 8 -26t18 -12q12 0 53 36.5t52 36.5q16 0 16 -18q0 -19 -108.5 -103t-136.5 -84q-14 0 -19 4q-30 25 -30 81q0 52 11.5 107t12.5 60q0 16 -8 16t-22 -11t-66 -56.5 t-99.5 -86.5t-100 -75.5t-79.5 -34.5q-35 0 -60 28.5t-36 74t-15 82.5t-4 71zM234 239q0 -22 1 -38.5t6 -40t13.5 -39t25.5 -26.5t40 -11q25 13 48.5 28t55 41t49.5 41.5t65 58t70 62.5l99 455q0 16 -27 16q-99 0 -198.5 -52t-150.5 -135q-86 -138 -97 -360zM448 1065 l280 386h106v-388h-50l-44 247l-242 -245h-50z" />
<glyph unicode="&#xe3;" horiz-adv-x="893" d="M100 229q0 84 42 186q86 209 285.5 347t423.5 138q17 0 17 -28l-151 -692q-4 -29 -4 -41q0 -14 8 -26t18 -12q12 0 53 36.5t52 36.5q16 0 16 -18q0 -19 -108.5 -103t-136.5 -84q-14 0 -19 4q-30 25 -30 81q0 52 11.5 107t12.5 60q0 16 -8 16t-22 -11t-66 -56.5 t-99.5 -86.5t-100 -75.5t-79.5 -34.5q-35 0 -60 28.5t-36 74t-15 82.5t-4 71zM234 239q0 -22 1 -38.5t6 -40t13.5 -39t25.5 -26.5t40 -11q25 13 48.5 28t55 41t49.5 41.5t65 58t70 62.5l99 455q0 16 -27 16q-99 0 -198.5 -52t-150.5 -135q-86 -138 -97 -360zM381 1128 q0 94 42.5 154t113.5 60q56 0 161.5 -52.5t157.5 -52.5q33 0 53.5 39.5t20.5 77.5q0 6 5 10t11 4h19q14 0 14 -41q0 -70 -45 -123.5t-117 -53.5q-56 0 -153.5 52t-149.5 52q-29 0 -58.5 -41.5t-29.5 -88.5q0 -12 -16 -12h-21q-8 0 -8 16z" />
<glyph unicode="&#xe4;" horiz-adv-x="893" d="M100 229q0 84 42 186q86 209 285.5 347t423.5 138q17 0 17 -28l-151 -692q-4 -29 -4 -41q0 -14 8 -26t18 -12q12 0 53 36.5t52 36.5q16 0 16 -18q0 -19 -108.5 -103t-136.5 -84q-14 0 -19 4q-30 25 -30 81q0 52 11.5 107t12.5 60q0 16 -8 16t-22 -11t-66 -56.5 t-99.5 -86.5t-100 -75.5t-79.5 -34.5q-35 0 -60 28.5t-36 74t-15 82.5t-4 71zM234 239q0 -22 1 -38.5t6 -40t13.5 -39t25.5 -26.5t40 -11q25 13 48.5 28t55 41t49.5 41.5t65 58t70 62.5l99 455q0 16 -27 16q-99 0 -198.5 -52t-150.5 -135q-86 -138 -97 -360zM408 1258 q0 42 28.5 71.5t70.5 29.5t71 -29.5t29 -71.5q0 -41 -28.5 -69.5t-71.5 -28.5q-42 0 -70.5 28.5t-28.5 69.5zM767 1258q0 42 29 71.5t71 29.5t70.5 -29.5t28.5 -71.5t-28 -70t-71 -28q-42 0 -71 28.5t-29 69.5z" />
<glyph unicode="&#xe5;" horiz-adv-x="893" d="M100 229q0 84 42 186q86 209 285.5 347t423.5 138q17 0 17 -28l-151 -692q-4 -29 -4 -41q0 -14 8 -26t18 -12q12 0 53 36.5t52 36.5q16 0 16 -18q0 -19 -108.5 -103t-136.5 -84q-14 0 -19 4q-30 25 -30 81q0 52 11.5 107t12.5 60q0 16 -8 16t-22 -11t-66 -56.5 t-99.5 -86.5t-100 -75.5t-79.5 -34.5q-35 0 -60 28.5t-36 74t-15 82.5t-4 71zM234 239q0 -22 1 -38.5t6 -40t13.5 -39t25.5 -26.5t40 -11q25 13 48.5 28t55 41t49.5 41.5t65 58t70 62.5l99 455q0 16 -27 16q-99 0 -198.5 -52t-150.5 -135q-86 -138 -97 -360zM542 1263 q0 75 54.5 129.5t130.5 54.5t130 -54.5t54 -129.5q0 -76 -54 -130t-130 -54t-130.5 54t-54.5 130zM617 1265q0 -48 33.5 -81.5t81.5 -33.5q46 0 79.5 33.5t33.5 81.5q0 46 -33.5 79.5t-79.5 33.5q-48 0 -81.5 -33.5t-33.5 -79.5z" />
<glyph unicode="&#xe6;" horiz-adv-x="1261" d="M80 229q0 84 42 186q86 209 285.5 347t423.5 138q17 0 17 -28q-3 -14 -10 -45.5t-10 -47.5q134 121 292 121q68 0 117 -39t49 -105q0 -58 -27.5 -105.5t-67 -77.5t-100 -57t-109.5 -41.5t-113.5 -33t-94.5 -29.5q-32 -74 -32 -153q0 -88 43.5 -146.5t133.5 -58.5 q88 0 232 84l14 -25q-20 -15 -49.5 -33.5t-79.5 -45t-111 -44t-116 -17.5q-111 0 -165.5 84t-56.5 211l-47 -42q-5 -4 -89 -79t-153 -124.5t-103 -49.5q-35 0 -60 28.5t-36 74t-15 82.5t-4 71zM214 239q0 -22 1 -38.5t6 -40t13.5 -39t25.5 -26.5t40 -11q25 13 48.5 28t55 41 t49.5 41.5t65 58t70 62.5l99 455q0 16 -27 16q-99 0 -198.5 -52t-150.5 -135q-86 -138 -97 -360zM788 472h3q0 -10 4.5 -13.5t19.5 -3.5q53 15 94 30t91.5 42t83.5 57.5t56 76.5t23 99q0 44 -20 72.5t-60 28.5q-50 0 -95.5 -28.5t-76 -70t-57 -97.5t-41 -101.5t-25.5 -91.5z " />
<glyph unicode="&#xe7;" horiz-adv-x="680" d="M70 -492q0 5 11 15t24 13q60 11 125 25q44 10 76 41t32 74q0 46 -39.5 75.5t-81.5 33.5l45 188q-94 4 -139.5 63.5t-45.5 155.5q0 148 48 283.5t122 227t163 145.5t172 54q52 0 75 -20.5t23 -72.5q0 -66 -35 -66q-30 0 -82 33t-80 33q-46 0 -88 -47t-71 -117t-51 -150.5 t-32.5 -149t-10.5 -110.5q0 -77 32 -129t101 -52q39 0 76 18t88.5 58t64.5 48l21 -26q-78 -79 -141 -121.5t-146 -53.5l-32 -131q76 -21 113.5 -63.5t37.5 -87.5q0 -55 -28.5 -98t-77 -68.5t-100.5 -39.5t-113 -21q-56 0 -56 40z" />
<glyph unicode="&#xe8;" horiz-adv-x="789" d="M100 279q7 81 34.5 167t75.5 167t109 145t143 103t171 39q68 0 117 -39t49 -105q0 -58 -27.5 -105.5t-67 -77.5t-100 -57t-109.5 -41.5t-113.5 -33t-94.5 -29.5q-32 -74 -32 -153q0 -88 43.5 -146.5t133.5 -58.5q88 0 232 84l14 -25q-20 -15 -49.5 -33.5t-79.5 -45 t-111 -44t-116 -17.5q-58 0 -102.5 25.5t-69.5 69.5t-37.5 96.5t-12.5 114.5zM301 472q0 -10 5.5 -13.5t21.5 -3.5q53 15 94 30t91.5 42t83.5 57.5t56 76.5t23 99q0 44 -20 72.5t-60 28.5q-50 0 -95.5 -28.5t-76 -70t-57 -97.5t-41 -101.5t-25.5 -91.5zM338 1378q0 30 21 52 t51 22q39 0 75 -49l213 -295q4 -4 4 -6t-4 -6l-22 -29q-4 -4 -8 -4q-2 0 -6 4l-269 217q-55 45 -55 94z" />
<glyph unicode="&#xe9;" horiz-adv-x="789" d="M100 279q7 81 34.5 167t75.5 167t109 145t143 103t171 39q68 0 117 -39t49 -105q0 -58 -27.5 -105.5t-67 -77.5t-100 -57t-109.5 -41.5t-113.5 -33t-94.5 -29.5q-32 -74 -32 -153q0 -88 43.5 -146.5t133.5 -58.5q88 0 232 84l14 -25q-20 -15 -49.5 -33.5t-79.5 -45 t-111 -44t-116 -17.5q-58 0 -102.5 25.5t-69.5 69.5t-37.5 96.5t-12.5 114.5zM301 472q0 -10 5.5 -13.5t21.5 -3.5q53 15 94 30t91.5 42t83.5 57.5t56 76.5t23 99q0 44 -20 72.5t-60 28.5q-50 0 -95.5 -28.5t-76 -70t-57 -97.5t-41 -101.5t-25.5 -91.5zM528 1102q0 2 4 6 l213 295q36 49 75 49q30 0 51 -22t21 -52q0 -49 -55 -94l-269 -217q-4 -3 -7 -3q-4 0 -7 3l-22 29q-4 4 -4 6z" />
<glyph unicode="&#xea;" horiz-adv-x="795" d="M100 279q7 81 34.5 167t75.5 167t109 145t143 103t171 39q68 0 117 -39t49 -105q0 -58 -27.5 -105.5t-67 -77.5t-100 -57t-109.5 -41.5t-113.5 -33t-94.5 -29.5q-32 -74 -32 -153q0 -88 43.5 -146.5t133.5 -58.5q88 0 232 84l14 -25q-20 -15 -49.5 -33.5t-79.5 -45 t-111 -44t-116 -17.5q-58 0 -102.5 25.5t-69.5 69.5t-37.5 96.5t-12.5 114.5zM301 472q0 -10 5.5 -13.5t21.5 -3.5q53 15 94 30t91.5 42t83.5 57.5t56 76.5t23 99q0 44 -20 72.5t-60 28.5q-50 0 -95.5 -28.5t-76 -70t-57 -97.5t-41 -101.5t-25.5 -91.5zM419 1065l280 386 h106v-388h-50l-44 247l-242 -245h-50z" />
<glyph unicode="&#xeb;" horiz-adv-x="789" d="M100 279q7 81 34.5 167t75.5 167t109 145t143 103t171 39q68 0 117 -39t49 -105q0 -58 -27.5 -105.5t-67 -77.5t-100 -57t-109.5 -41.5t-113.5 -33t-94.5 -29.5q-32 -74 -32 -153q0 -88 43.5 -146.5t133.5 -58.5q88 0 232 84l14 -25q-20 -15 -49.5 -33.5t-79.5 -45 t-111 -44t-116 -17.5q-58 0 -102.5 25.5t-69.5 69.5t-37.5 96.5t-12.5 114.5zM301 472q0 -10 5.5 -13.5t21.5 -3.5q53 15 94 30t91.5 42t83.5 57.5t56 76.5t23 99q0 44 -20 72.5t-60 28.5q-50 0 -95.5 -28.5t-76 -70t-57 -97.5t-41 -101.5t-25.5 -91.5zM361 1258 q0 42 28.5 71.5t70.5 29.5t71 -29.5t29 -71.5q0 -41 -28.5 -69.5t-71.5 -28.5q-42 0 -70.5 28.5t-28.5 69.5zM720 1258q0 42 29 71.5t71 29.5t70.5 -29.5t28.5 -71.5t-28.5 -70t-70.5 -28t-71 28.5t-29 69.5z" />
<glyph unicode="&#xec;" horiz-adv-x="557" d="M115 699q12 22 60 69t112 89.5t102 42.5q31 0 53 -24t22 -61q0 -13 -3 -27l-147 -692v-4q0 -9 7.5 -15.5t17.5 -6.5q18 0 44 17t45 35.5t42.5 43t25.5 26.5l19 -19q-12 -22 -60 -69t-112 -89.5t-102 -42.5q-31 0 -53 24t-22 61q0 13 3 27l147 692v4q0 9 -7.5 15.5 t-17.5 6.5q-18 0 -44 -17t-45 -35.5t-42.5 -43t-25.5 -26.5zM125 1378q0 30 21 52t51 22q39 0 75 -49l213 -295q4 -4 4 -6t-4 -6l-22 -29q-4 -4 -8 -4q-2 0 -6 4l-269 217q-55 45 -55 94z" />
<glyph unicode="&#xed;" horiz-adv-x="557" d="M115 699q12 22 60 69t112 89.5t102 42.5q31 0 53 -24t22 -61q0 -13 -3 -27l-147 -692v-4q0 -9 7.5 -15.5t17.5 -6.5q18 0 44 17t45 35.5t42.5 43t25.5 26.5l19 -19q-12 -22 -60 -69t-112 -89.5t-102 -42.5q-31 0 -53 24t-22 61q0 13 3 27l147 692v4q0 9 -7.5 15.5 t-17.5 6.5q-18 0 -44 -17t-45 -35.5t-42.5 -43t-25.5 -26.5zM288 1102q0 2 4 6l213 295q36 49 75 49q30 0 51 -22t21 -52q0 -49 -55 -94l-269 -217q-4 -3 -7 -3q-4 0 -7 3l-22 29q-4 4 -4 6z" />
<glyph unicode="&#xee;" horiz-adv-x="557" d="M115 699q12 22 60 69t112 89.5t102 42.5q31 0 53 -24t22 -61q0 -13 -3 -27l-147 -692v-4q0 -9 7.5 -15.5t17.5 -6.5q18 0 44 17t45 35.5t42.5 43t25.5 26.5l19 -19q-12 -22 -60 -69t-112 -89.5t-102 -42.5q-31 0 -53 24t-22 61q0 13 3 27l147 692v4q0 9 -7.5 15.5 t-17.5 6.5q-18 0 -44 -17t-45 -35.5t-42.5 -43t-25.5 -26.5zM165 1065l280 386h106v-388h-50l-44 247l-242 -245h-50z" />
<glyph unicode="&#xef;" horiz-adv-x="557" d="M115 699q12 22 60 69t112 89.5t102 42.5q31 0 53 -24t22 -61q0 -13 -3 -27l-147 -692v-4q0 -9 7.5 -15.5t17.5 -6.5q18 0 44 17t45 35.5t42.5 43t25.5 26.5l19 -19q-12 -22 -60 -69t-112 -89.5t-102 -42.5q-31 0 -53 24t-22 61q0 13 3 27l147 692v4q0 9 -7.5 15.5 t-17.5 6.5q-18 0 -44 -17t-45 -35.5t-42.5 -43t-25.5 -26.5zM140 1258q0 42 28.5 71.5t70.5 29.5t71 -29.5t29 -71.5q0 -41 -28.5 -69.5t-71.5 -28.5q-42 0 -70.5 28.5t-28.5 69.5zM499 1258q0 42 29 71.5t71 29.5t70.5 -29.5t28.5 -71.5t-28 -70t-71 -28q-42 0 -71 28.5 t-29 69.5z" />
<glyph unicode="&#xf0;" horiz-adv-x="920" d="M125 280q0 178 96 326t243 227q125 67 247 67q13 0 27 -6q0 169 -119 389l-227 -132l-40 69l226 132q-97 156 -186 229l13 64q14 0 49.5 -27.5t89.5 -87.5t105 -136l221 129l40 -69l-219 -128q130 -219 178 -473q22 -112 22 -218q0 -183 -73.5 -333.5t-211.5 -239.5 t-315 -89q-35 0 -74.5 49.5t-65.5 122.5t-26 135zM275 288q0 -34 8.5 -73t25 -78t47.5 -64.5t71 -25.5q70 0 129.5 49t96.5 125.5t57.5 165t20.5 173.5q0 28 -7 68t-21.5 86.5t-44.5 79t-69 32.5q-93 0 -167 -88t-110.5 -209t-36.5 -241z" />
<glyph unicode="&#xf1;" horiz-adv-x="996" d="M110 647q16 30 110 117t162 122q27 14 42 14q36 0 36 -67q0 -21 -6 -57q0 -2 -54 -265q0 -11 9 -11t31 26q6 7 47 53.5t62 69.5t64 68.5t73.5 71t68.5 55t71 43t60 13.5q31 0 53 -24t22 -61q0 -13 -3 -27l-178 -692v-4q0 -9 7.5 -15.5t17.5 -6.5q18 0 44 17t45 35.5 t42.5 43t25.5 26.5l19 -19q-12 -22 -60 -69t-112 -89.5t-102 -42.5q-31 0 -53 24t-22 61q0 13 3 27l178 692v4q0 9 -8.5 15.5t-19.5 6.5q-30 -1 -116.5 -85.5t-160.5 -170.5t-114 -139q-23 -30 -30 -63l-72 -333q-25 -14 -62.5 -27t-52.5 -13q-13 0 -20.5 8.5t-7.5 20.5 q0 5 16 85l134 634v4q0 28 -23 28q-3 0 -7.5 -1.5t-10.5 -5.5l-10 -10q-6 -4 -14.5 -12t-15.5 -14.5t-18.5 -18t-19.5 -20t-22 -23t-24 -24.5zM375 1128q0 94 42.5 154t113.5 60q56 0 161.5 -52.5t157.5 -52.5q33 0 53.5 39.5t20.5 77.5q0 6 5 10t11 4h19q14 0 14 -41 q0 -70 -45 -123.5t-117 -53.5q-56 0 -153.5 52t-149.5 52q-29 0 -58.5 -41.5t-29.5 -88.5q0 -12 -16 -12h-21q-8 0 -8 16z" />
<glyph unicode="&#xf2;" horiz-adv-x="953" d="M155 280q0 128 53.5 245.5t137.5 198t188.5 128.5t206.5 48q59 0 114.5 -106t55.5 -243q0 -116 -54 -225t-139 -185.5t-190.5 -122t-206.5 -45.5q-35 0 -74.5 49.5t-65.5 122.5t-26 135zM305 288q0 -34 8.5 -73t25 -78t47.5 -64.5t71 -25.5q70 0 129.5 49t96.5 125.5 t57.5 165t20.5 173.5q0 28 -7 68t-21.5 86.5t-44.5 79t-69 32.5q-93 0 -167 -88t-110.5 -209t-36.5 -241zM420 1378q0 30 21 52t51 22q39 0 75 -49l213 -295q4 -4 4 -6t-4 -6l-22 -29q-4 -4 -8 -4q-2 0 -6 4l-269 217q-55 45 -55 94z" />
<glyph unicode="&#xf3;" horiz-adv-x="953" d="M155 280q0 128 53.5 245.5t137.5 198t188.5 128.5t206.5 48q59 0 114.5 -106t55.5 -243q0 -116 -54 -225t-139 -185.5t-190.5 -122t-206.5 -45.5q-35 0 -74.5 49.5t-65.5 122.5t-26 135zM305 288q0 -34 8.5 -73t25 -78t47.5 -64.5t71 -25.5q70 0 129.5 49t96.5 125.5 t57.5 165t20.5 173.5q0 28 -7 68t-21.5 86.5t-44.5 79t-69 32.5q-93 0 -167 -88t-110.5 -209t-36.5 -241zM638 1102q0 2 4 6l213 295q36 49 75 49q30 0 51 -22t21 -52q0 -49 -55 -94l-269 -217q-4 -3 -7 -3q-4 0 -7 3l-22 29q-4 4 -4 6z" />
<glyph unicode="&#xf4;" horiz-adv-x="953" d="M155 280q0 128 53.5 245.5t137.5 198t188.5 128.5t206.5 48q59 0 114.5 -106t55.5 -243q0 -116 -54 -225t-139 -185.5t-190.5 -122t-206.5 -45.5q-35 0 -74.5 49.5t-65.5 122.5t-26 135zM305 288q0 -34 8.5 -73t25 -78t47.5 -64.5t71 -25.5q70 0 129.5 49t96.5 125.5 t57.5 165t20.5 173.5q0 28 -7 68t-21.5 86.5t-44.5 79t-69 32.5q-93 0 -167 -88t-110.5 -209t-36.5 -241zM483 1065l280 386h106v-388h-50l-44 247l-242 -245h-50z" />
<glyph unicode="&#xf5;" horiz-adv-x="953" d="M155 280q0 128 53.5 245.5t137.5 198t188.5 128.5t206.5 48q59 0 114.5 -106t55.5 -243q0 -116 -54 -225t-139 -185.5t-190.5 -122t-206.5 -45.5q-35 0 -74.5 49.5t-65.5 122.5t-26 135zM305 288q0 -34 8.5 -73t25 -78t47.5 -64.5t71 -25.5q70 0 129.5 49t96.5 125.5 t57.5 165t20.5 173.5q0 28 -7 68t-21.5 86.5t-44.5 79t-69 32.5q-93 0 -167 -88t-110.5 -209t-36.5 -241zM445 1128q0 94 42.5 154t113.5 60q56 0 161.5 -52.5t157.5 -52.5q33 0 53.5 39.5t20.5 77.5q0 6 5 10t11 4h19q14 0 14 -41q0 -70 -45 -123.5t-117 -53.5 q-56 0 -153.5 52t-149.5 52q-29 0 -58.5 -41.5t-29.5 -88.5q0 -12 -16 -12h-21q-8 0 -8 16z" />
<glyph unicode="&#xf6;" horiz-adv-x="953" d="M155 280q0 128 53.5 245.5t137.5 198t188.5 128.5t206.5 48q59 0 114.5 -106t55.5 -243q0 -116 -54 -225t-139 -185.5t-190.5 -122t-206.5 -45.5q-35 0 -74.5 49.5t-65.5 122.5t-26 135zM305 288q0 -34 8.5 -73t25 -78t47.5 -64.5t71 -25.5q70 0 129.5 49t96.5 125.5 t57.5 165t20.5 173.5q0 28 -7 68t-21.5 86.5t-44.5 79t-69 32.5q-93 0 -167 -88t-110.5 -209t-36.5 -241zM440 1258q0 42 28.5 71.5t70.5 29.5t71 -29.5t29 -71.5q0 -41 -28.5 -69.5t-71.5 -28.5q-42 0 -70.5 28.5t-28.5 69.5zM799 1258q0 42 29 71.5t71 29.5t70.5 -29.5 t28.5 -71.5t-28 -70t-71 -28q-42 0 -71 28.5t-29 69.5z" />
<glyph unicode="&#xf7;" horiz-adv-x="1049" d="M88 563v127h872v-127h-872zM410 270q0 50 33.5 84.5t82.5 34.5t83 -34.5t34 -84.5q0 -48 -34 -82t-83 -34q-48 0 -82 34t-34 82zM410 975q0 49 33.5 83t82.5 34t83 -34t34 -83q0 -50 -34 -84.5t-83 -34.5t-82.5 34.5t-33.5 84.5z" />
<glyph unicode="&#xf8;" horiz-adv-x="945" d="M60 -29l127 137q-41 94 -41 172q0 128 53.5 245.5t137.5 198t188.5 128.5t206.5 48q26 0 54.5 -25t52.5 -68l114 122l51 -51l-133 -143q31 -88 31 -184q0 -116 -54 -225t-139 -185.5t-190.5 -122t-206.5 -45.5q-42 0 -88 69l-113 -121zM296 288q0 -23 5 -58l430 461 q-40 135 -121 135q-93 0 -167 -88t-110.5 -209t-36.5 -241zM324 149q42 -102 124 -102q70 0 129.5 49t96.5 125.5t57.5 165t20.5 173.5q0 17 -3 44z" />
<glyph unicode="&#xf9;" horiz-adv-x="1052" d="M120 697q12 22 60 69t112 89.5t102 42.5q31 0 53 -24t22 -61q0 -13 -141 -680v-4q0 -9 7.5 -15.5t17.5 -6.5q29 0 124 108q170 197 198 232q104 128 123 214l43 199q7 40 32 40h91q10 0 17 -6.5t7 -17.5q0 -6 -2 -15q-24 -110 -151 -710q0 -32 23 -32q4 0 9.5 3t14 9.5 t16 13.5t20.5 20t23 23.5t27 28.5t30 31l24 -25q-16 -30 -110 -115.5t-162 -120.5q-27 -14 -42 -14q-37 0 -37 63q0 31 8 67l73 336q0 11 -9 11t-31 -26q-20 -23 -63.5 -70t-79 -86.5t-61.5 -70.5q-187 -224 -262 -224q-34 0 -54 25.5t-20 60.5q0 15 2 23l147 692v4 q0 9 -7.5 15.5t-17.5 6.5q-18 0 -44 -17t-45 -35.5t-42.5 -43t-25.5 -26.5zM490 1378q0 30 21 52t51 22q39 0 75 -49l213 -295q4 -4 4 -6t-4 -6l-22 -29q-4 -4 -8 -4q-2 0 -6 4l-269 217q-55 45 -55 94z" />
<glyph unicode="&#xfa;" horiz-adv-x="1052" d="M120 697q12 22 60 69t112 89.5t102 42.5q31 0 53 -24t22 -61q0 -13 -141 -680v-4q0 -9 7.5 -15.5t17.5 -6.5q29 0 124 108q170 197 198 232q104 128 123 214l43 199q7 40 32 40h91q10 0 17 -6.5t7 -17.5q0 -6 -2 -15q-24 -110 -151 -710q0 -32 23 -32q4 0 9.5 3t14 9.5 t16 13.5t20.5 20t23 23.5t27 28.5t30 31l24 -25q-16 -30 -110 -115.5t-162 -120.5q-27 -14 -42 -14q-37 0 -37 63q0 31 8 67l73 336q0 11 -9 11t-31 -26q-20 -23 -63.5 -70t-79 -86.5t-61.5 -70.5q-187 -224 -262 -224q-34 0 -54 25.5t-20 60.5q0 15 2 23l147 692v4 q0 9 -7.5 15.5t-17.5 6.5q-18 0 -44 -17t-45 -35.5t-42.5 -43t-25.5 -26.5zM648 1102q0 2 4 6l213 295q36 49 75 49q30 0 51 -22t21 -52q0 -49 -55 -94l-269 -217q-4 -3 -7 -3q-4 0 -7 3l-22 29q-4 4 -4 6z" />
<glyph unicode="&#xfb;" horiz-adv-x="1052" d="M120 697q12 22 60 69t112 89.5t102 42.5q31 0 53 -24t22 -61q0 -13 -141 -680v-4q0 -9 7.5 -15.5t17.5 -6.5q29 0 124 108q170 197 198 232q104 128 123 214l43 199q7 40 32 40h91q10 0 17 -6.5t7 -17.5q0 -6 -2 -15q-24 -110 -151 -710q0 -32 23 -32q4 0 9.5 3t14 9.5 t16 13.5t20.5 20t23 23.5t27 28.5t30 31l24 -25q-16 -30 -110 -115.5t-162 -120.5q-27 -14 -42 -14q-37 0 -37 63q0 31 8 67l73 336q0 11 -9 11t-31 -26q-20 -23 -63.5 -70t-79 -86.5t-61.5 -70.5q-187 -224 -262 -224q-34 0 -54 25.5t-20 60.5q0 15 2 23l147 692v4 q0 9 -7.5 15.5t-17.5 6.5q-18 0 -44 -17t-45 -35.5t-42.5 -43t-25.5 -26.5zM508 1065l280 386h106v-388h-50l-44 247l-242 -245h-50z" />
<glyph unicode="&#xfc;" horiz-adv-x="1052" d="M120 697q12 22 60 69t112 89.5t102 42.5q31 0 53 -24t22 -61q0 -13 -141 -680v-4q0 -9 7.5 -15.5t17.5 -6.5q29 0 124 108q170 197 198 232q104 128 123 214l43 199q7 40 32 40h91q10 0 17 -6.5t7 -17.5q0 -6 -2 -15q-24 -110 -151 -710q0 -32 23 -32q4 0 9.5 3t14 9.5 t16 13.5t20.5 20t23 23.5t27 28.5t30 31l24 -25q-16 -30 -110 -115.5t-162 -120.5q-27 -14 -42 -14q-37 0 -37 63q0 31 8 67l73 336q0 11 -9 11t-31 -26q-20 -23 -63.5 -70t-79 -86.5t-61.5 -70.5q-187 -224 -262 -224q-34 0 -54 25.5t-20 60.5q0 15 2 23l147 692v4 q0 9 -7.5 15.5t-17.5 6.5q-18 0 -44 -17t-45 -35.5t-42.5 -43t-25.5 -26.5zM450 1258q0 42 28.5 71.5t70.5 29.5t71 -29.5t29 -71.5q0 -41 -28.5 -69.5t-71.5 -28.5q-42 0 -70.5 28.5t-28.5 69.5zM809 1258q0 42 29 71.5t71 29.5t70.5 -29.5t28.5 -71.5t-28 -70t-71 -28 q-42 0 -71 28.5t-29 69.5z" />
<glyph unicode="&#xfd;" horiz-adv-x="1042" d="M40 -620l7 32q73 0 105.5 13.5t60.5 60.5q34 55 78 151q97 205 145 369q21 74 21 135q0 161 -11.5 254.5t-52.5 266.5q-29 115 -70 121q-18 -3 -71.5 -73t-65.5 -70q-6 0 -12 5.5t-6 12.5q0 18 22 50.5t47 59.5t54.5 57t34.5 36q9 11 33.5 25t43.5 14q32 0 43 -19 q145 -251 145 -695q0 -37 19 -49l78 137q187 327 187 437q0 25 -16.5 53.5t-16.5 43.5q0 35 24.5 63.5t63.5 28.5q55 0 76.5 -33.5t21.5 -99.5q0 -45 -53 -144t-120 -198t-143 -215.5t-107 -176.5q-18 -40 -77.5 -186.5t-105.5 -248.5l-38 -84q-14 -35 -14 -50 q0 -10 1 -17.5t4.5 -13.5t7 -9.5t11.5 -5.5t14.5 -3.5t20 -2t23.5 -0.5h30h34l-7 -32h-469zM678 1102q0 2 4 6l213 295q36 49 75 49q30 0 51 -22t21 -52q0 -49 -55 -94l-269 -217q-4 -3 -7 -3q-4 0 -7 3l-22 29q-4 4 -4 6z" />
<glyph unicode="&#xfe;" horiz-adv-x="962" d="M-135 -620l7 32q42 0 72.5 10t50 25.5t34.5 47t23.5 62t19.5 82.5l388 1818q4 20 4 26q0 25 -22 25q-16 0 -28 -5t-90 -42l-13 31q281 149 292 152q3 1 7 1q23 0 23 -33q0 -14 -4 -30q-184 -853 -202 -941q-1 -3 -1 -9q0 -17 10 -17q16 0 29 11q2 2 86.5 84.5t153 136 t102.5 53.5q35 0 61 -29t37.5 -73.5t16.5 -82.5t5 -71q0 -100 -20.5 -197t-62 -182.5t-99.5 -150.5t-138.5 -103t-173.5 -38q-69 0 -139 37l-105 -496q-4 -20 -4 -26q0 -43 43 -59.5t133 -16.5l-7 -32h-489zM324 135q0 -47 28.5 -84t93.5 -37q70 0 149.5 89.5t136 236.5 t56.5 294q0 22 -1 38.5t-6 40t-13.5 39t-25.5 26.5t-40 11q-39 -20 -81 -58t-110 -109.5t-111 -113.5l-72 -340q-4 -22 -4 -33z" />
<glyph unicode="&#xff;" horiz-adv-x="1028" d="M40 -620l7 32q73 0 105.5 13.5t60.5 60.5q34 55 78 151q97 205 145 369q21 74 21 135q0 161 -11.5 254.5t-52.5 266.5q-29 115 -70 121q-18 -3 -71.5 -73t-65.5 -70q-6 0 -12 5.5t-6 12.5q0 18 22 50.5t47 59.5t54.5 57t34.5 36q9 11 33.5 25t43.5 14q32 0 43 -19 q145 -251 145 -695q0 -37 19 -49l78 137q187 327 187 437q0 25 -16.5 53.5t-16.5 43.5q0 35 24.5 63.5t63.5 28.5q55 0 76.5 -33.5t21.5 -99.5q0 -45 -53 -144t-120 -198t-143 -215.5t-107 -176.5q-18 -40 -77.5 -186.5t-105.5 -248.5l-38 -84q-14 -35 -14 -50 q0 -10 1 -17.5t4.5 -13.5t7 -9.5t11.5 -5.5t14.5 -3.5t20 -2t23.5 -0.5h30h34l-7 -32h-469zM420 1258q0 42 28.5 71.5t70.5 29.5t71 -29.5t29 -71.5q0 -41 -28.5 -69.5t-71.5 -28.5q-42 0 -70.5 28.5t-28.5 69.5zM779 1258q0 42 29 71.5t71 29.5t70.5 -29.5t28.5 -71.5 t-28 -70t-71 -28q-42 0 -71 28.5t-29 69.5z" />
<glyph unicode="&#x100;" horiz-adv-x="1560" d="M-20 12q0 4 3 16q5 12 18 12h22q35 0 55.5 13t41.5 41q183 238 542.5 706.5t444.5 579.5q28 37 63 37h26q26 0 35.5 -14t10.5 -40l29 -1213q1 -57 48 -83.5t107 -26.5h44q13 0 13 -15v-11q0 -5 -4 -9.5t-10 -4.5h-621q-14 0 -14 11v19q0 10 12 10q113 0 171 26 q47 20 62 68.5t15 117.5q0 72 -3.5 164t-3.5 124v18q0 12 -2.5 20.5t-15 16t-35.5 7.5h-402q-40 0 -65 -34q-37 -50 -107.5 -141.5t-99.5 -129.5q-2 -3 -14.5 -19t-16 -21.5t-13 -20t-13 -23t-9 -21.5t-7.5 -25.5t-2 -25.5q0 -45 37.5 -73t98.5 -28h49q13 0 13 -11 q-1 -8 -5 -20q-3 -9 -20 -9h-459q-19 0 -19 12zM661 682q0 -5 5 -5h369q22 0 35 13.5t13 36.5q0 82 -5.5 220.5t-5.5 227.5q0 27 -12 27q-7 -1 -23 -21q-28 -38 -85 -112.5t-138 -179.5t-122 -158q0 -1 -10 -13.5t-15.5 -21.5t-5.5 -14zM831 1750l27 99h627l-27 -99h-627z " />
<glyph unicode="&#x101;" horiz-adv-x="893" d="M100 229q0 84 42 186q86 209 285.5 347t423.5 138q17 0 17 -28l-151 -692q-4 -29 -4 -41q0 -14 8 -26t18 -12q12 0 53 36.5t52 36.5q16 0 16 -18q0 -19 -108.5 -103t-136.5 -84q-14 0 -19 4q-30 25 -30 81q0 52 11.5 107t12.5 60q0 16 -8 16t-22 -11t-66 -56.5 t-99.5 -86.5t-100 -75.5t-79.5 -34.5q-35 0 -60 28.5t-36 74t-15 82.5t-4 71zM234 239q0 -22 1 -38.5t6 -40t13.5 -39t25.5 -26.5t40 -11q25 13 48.5 28t55 41t49.5 41.5t65 58t70 62.5l99 455q0 16 -27 16q-99 0 -198.5 -52t-150.5 -135q-86 -138 -97 -360zM319 1208l27 99 h627l-27 -99h-627z" />
<glyph unicode="&#x102;" horiz-adv-x="1558" d="M-20 12q0 4 3 16q5 12 18 12h22q35 0 55.5 13t41.5 41q183 238 542.5 706.5t444.5 579.5q28 37 63 37h26q26 0 35.5 -14t10.5 -40l29 -1213q1 -57 48 -83.5t107 -26.5h44q13 0 13 -15v-11q0 -5 -4 -9.5t-10 -4.5h-621q-14 0 -14 11v19q0 10 12 10q113 0 171 26 q47 20 62 68.5t15 117.5q0 72 -3.5 164t-3.5 124v18q0 12 -2.5 20.5t-15 16t-35.5 7.5h-402q-40 0 -65 -34q-37 -50 -107.5 -141.5t-99.5 -129.5q-2 -3 -14.5 -19t-16 -21.5t-13 -20t-13 -23t-9 -21.5t-7.5 -25.5t-2 -25.5q0 -45 37.5 -73t98.5 -28h49q13 0 13 -11 q-1 -8 -5 -20q-3 -9 -20 -9h-459q-19 0 -19 12zM661 682q0 -5 5 -5h369q22 0 35 13.5t13 36.5q0 82 -5.5 220.5t-5.5 227.5q0 27 -12 27q-7 -1 -23 -21q-28 -38 -85 -112.5t-138 -179.5t-122 -158q0 -1 -10 -13.5t-15.5 -21.5t-5.5 -14zM916 1950h31q0 -86 67 -139.5 t161 -53.5q76 0 162.5 66.5t86.5 126.5h33q0 -112 -94.5 -212t-202.5 -100q-111 0 -177.5 92t-66.5 220z" />
<glyph unicode="&#x103;" horiz-adv-x="893" d="M100 229q0 84 42 186q86 209 285.5 347t423.5 138q17 0 17 -28l-151 -692q-4 -29 -4 -41q0 -14 8 -26t18 -12q12 0 53 36.5t52 36.5q16 0 16 -18q0 -19 -108.5 -103t-136.5 -84q-14 0 -19 4q-30 25 -30 81q0 52 11.5 107t12.5 60q0 16 -8 16t-22 -11t-66 -56.5 t-99.5 -86.5t-100 -75.5t-79.5 -34.5q-35 0 -60 28.5t-36 74t-15 82.5t-4 71zM234 239q0 -22 1 -38.5t6 -40t13.5 -39t25.5 -26.5t40 -11q25 13 48.5 28t55 41t49.5 41.5t65 58t70 62.5l99 455q0 16 -27 16q-99 0 -198.5 -52t-150.5 -135q-86 -138 -97 -360zM423 1408h31 q0 -86 67 -139.5t161 -53.5q76 0 162.5 66.5t86.5 126.5h33q0 -112 -94.5 -212t-202.5 -100q-111 0 -177.5 92t-66.5 220z" />
<glyph unicode="&#x104;" horiz-adv-x="1558" d="M-20 12q0 4 3 16q5 12 18 12h22q35 0 55.5 13t41.5 41q183 238 542.5 706.5t444.5 579.5q28 37 63 37h26q26 0 35.5 -14t10.5 -40l29 -1213q1 -57 48 -83.5t107 -26.5h44q13 0 13 -15v-11q0 -5 -4 -9.5t-10 -4.5h-621q-14 0 -14 11v19q0 10 12 10q113 0 171 26 q47 20 62 68.5t15 117.5q0 72 -3.5 164t-3.5 124v18q0 12 -2.5 20.5t-15 16t-35.5 7.5h-402q-40 0 -65 -34q-37 -50 -107.5 -141.5t-99.5 -129.5q-2 -3 -14.5 -19t-16 -21.5t-13 -20t-13 -23t-9 -21.5t-7.5 -25.5t-2 -25.5q0 -45 37.5 -73t98.5 -28h49q13 0 13 -11 q-1 -8 -5 -20q-3 -9 -20 -9h-459q-19 0 -19 12zM661 682q0 -5 5 -5h369q22 0 35 13.5t13 36.5q0 82 -5.5 220.5t-5.5 227.5q0 27 -12 27q-7 -1 -23 -21q-28 -38 -85 -112.5t-138 -179.5t-122 -158q0 -1 -10 -13.5t-15.5 -21.5t-5.5 -14zM981 -342q0 88 70.5 184.5 t157.5 157.5h52q-73 -82 -117.5 -162.5t-44.5 -142.5q0 -66 41 -113t117 -47q43 0 84 12q27 9 30 9q8 0 8 -6q0 -36 -48 -66t-103 -30q-109 0 -178 53.5t-69 150.5z" />
<glyph unicode="&#x105;" horiz-adv-x="893" d="M100 229q0 84 42 186q86 209 285.5 347t423.5 138q17 0 17 -28l-151 -692q-4 -29 -4 -41q0 -14 8 -26t18 -12q12 0 53 36.5t52 36.5q16 0 16 -18q0 -19 -108.5 -103t-136.5 -84q-14 0 -19 4q-30 25 -30 81q0 52 11.5 107t12.5 60q0 16 -8 16t-22 -11t-66 -56.5 t-99.5 -86.5t-100 -75.5t-79.5 -34.5q-35 0 -60 28.5t-36 74t-15 82.5t-4 71zM234 239q0 -22 1 -38.5t6 -40t13.5 -39t25.5 -26.5t40 -11q25 13 48.5 28t55 41t49.5 41.5t65 58t70 62.5l99 455q0 16 -27 16q-99 0 -198.5 -52t-150.5 -135q-86 -138 -97 -360zM395 -342 q0 88 70.5 184.5t157.5 157.5h52q-73 -82 -117.5 -162.5t-44.5 -142.5q0 -66 41 -113t117 -47q43 0 84 12q27 9 30 9q8 0 8 -6q0 -36 -48 -66t-103 -30q-109 0 -178 53.5t-69 150.5z" />
<glyph unicode="&#x106;" horiz-adv-x="1531" d="M110 629q0 120 39.5 232t107.5 201t160.5 163t197.5 123.5t219.5 76.5t225.5 27q31 0 86 -4t132.5 -15t143.5 -27t112.5 -44.5t46.5 -63.5q0 -21 -16 -95.5t-34 -132.5q-25 -77 -40 -77q-13 0 -18.5 3t-6.5 14q0 8 -1.5 39t-3 44t-4.5 37t-9 42.5t-15 35.5 q-40 79 -135 130.5t-191 51.5q-154 0 -302.5 -63.5t-260 -169t-180 -251.5t-68.5 -301q0 -160 66 -290t192.5 -207t290.5 -77q160 0 293.5 99.5t178.5 220.5q5 13 7 18t8 12.5t14 10.5t21 3q26 0 26 -17q0 -1 -1.5 -8t-5 -27t-11 -54t-22.5 -102.5t-35 -158.5q-1 -8 -19 -8 q-13 0 -40 6t-43 6q-65 0 -174.5 -31t-168.5 -31q-73 0 -144 9t-148 30.5t-144 54.5t-128 85.5t-104.5 119t-69 159t-25.5 201.5zM1107 1600q0 2 4 6l213 295q36 49 75 49q30 0 51 -22t21 -52q0 -49 -55 -94l-269 -217q-5 -3 -7 -3q-4 0 -7 3l-22 29q-4 4 -4 6z" />
<glyph unicode="&#x107;" horiz-adv-x="606" d="M77 192q0 148 48 283.5t122 227t163 145.5t172 54q52 0 75 -20.5t23 -72.5q0 -66 -35 -66q-30 0 -82 33t-80 33q-46 0 -88 -47t-71 -117t-51 -150.5t-32.5 -149t-10.5 -110.5q0 -77 32 -129t101 -52q39 0 76 18t88.5 58t64.5 48l21 -26q-43 -43 -73 -69.5t-73 -55 t-90 -41.5t-101 -13q-102 0 -150.5 59.5t-48.5 159.5zM532 1102q0 2 4 6l213 295q36 49 75 49q30 0 51 -22t21 -52q0 -49 -55 -94l-269 -217q-4 -3 -7 -3q-4 0 -7 3l-22 29q-4 4 -4 6z" />
<glyph unicode="&#x108;" horiz-adv-x="1531" d="M110 629q0 120 39.5 232t107.5 201t160.5 163t197.5 123.5t219.5 76.5t225.5 27q31 0 86 -4t132.5 -15t143.5 -27t112.5 -44.5t46.5 -63.5q0 -21 -16 -95.5t-34 -132.5q-25 -77 -40 -77q-13 0 -18.5 3t-6.5 14q0 8 -1.5 39t-3 44t-4.5 37t-9 42.5t-15 35.5 q-40 79 -135 130.5t-191 51.5q-154 0 -302.5 -63.5t-260 -169t-180 -251.5t-68.5 -301q0 -160 66 -290t192.5 -207t290.5 -77q160 0 293.5 99.5t178.5 220.5q5 13 7 18t8 12.5t14 10.5t21 3q26 0 26 -17q0 -1 -1.5 -8t-5 -27t-11 -54t-22.5 -102.5t-35 -158.5q-1 -8 -19 -8 q-13 0 -40 6t-43 6q-65 0 -174.5 -31t-168.5 -31q-73 0 -144 9t-148 30.5t-144 54.5t-128 85.5t-104.5 119t-69 159t-25.5 201.5zM904 1562l280 386h106v-388h-50l-44 247l-242 -245h-50z" />
<glyph unicode="&#x109;" horiz-adv-x="606" d="M77 192q0 148 48 283.5t122 227t163 145.5t172 54q52 0 75 -20.5t23 -72.5q0 -66 -35 -66q-30 0 -82 33t-80 33q-46 0 -88 -47t-71 -117t-51 -150.5t-32.5 -149t-10.5 -110.5q0 -77 32 -129t101 -52q39 0 76 18t88.5 58t64.5 48l21 -26q-43 -43 -73 -69.5t-73 -55 t-90 -41.5t-101 -13q-102 0 -150.5 59.5t-48.5 159.5zM375 1065l280 386h106v-388h-50l-44 247l-242 -245h-50z" />
<glyph unicode="&#x10a;" horiz-adv-x="1531" d="M110 629q0 120 39.5 232t107.5 201t160.5 163t197.5 123.5t219.5 76.5t225.5 27q31 0 86 -4t132.5 -15t143.5 -27t112.5 -44.5t46.5 -63.5q0 -21 -16 -95.5t-34 -132.5q-25 -77 -40 -77q-13 0 -18.5 3t-6.5 14q0 8 -1.5 39t-3 44t-4.5 37t-9 42.5t-15 35.5 q-40 79 -135 130.5t-191 51.5q-154 0 -302.5 -63.5t-260 -169t-180 -251.5t-68.5 -301q0 -160 66 -290t192.5 -207t290.5 -77q160 0 293.5 99.5t178.5 220.5q5 13 7 18t8 12.5t14 10.5t21 3q26 0 26 -17q0 -1 -1.5 -8t-5 -27t-11 -54t-22.5 -102.5t-35 -158.5q-1 -8 -19 -8 q-13 0 -40 6t-43 6q-65 0 -174.5 -31t-168.5 -31q-73 0 -144 9t-148 30.5t-144 54.5t-128 85.5t-104.5 119t-69 159t-25.5 201.5zM959 1798q0 50 34 84.5t83 34.5q50 0 83.5 -34.5t33.5 -84.5q0 -49 -33 -82t-84 -33q-49 0 -83 33t-34 82z" />
<glyph unicode="&#x10b;" horiz-adv-x="606" d="M77 192q0 148 48 283.5t122 227t163 145.5t172 54q52 0 75 -20.5t23 -72.5q0 -66 -35 -66q-30 0 -82 33t-80 33q-46 0 -88 -47t-71 -117t-51 -150.5t-32.5 -149t-10.5 -110.5q0 -77 32 -129t101 -52q39 0 76 18t88.5 58t64.5 48l21 -26q-43 -43 -73 -69.5t-73 -55 t-90 -41.5t-101 -13q-102 0 -150.5 59.5t-48.5 159.5zM430 1227q0 50 34 84.5t83 34.5q50 0 83.5 -34.5t33.5 -84.5q0 -49 -33 -82t-84 -33q-49 0 -83 33t-34 82z" />
<glyph unicode="&#x10c;" horiz-adv-x="1531" d="M110 629q0 120 39.5 232t107.5 201t160.5 163t197.5 123.5t219.5 76.5t225.5 27q31 0 86 -4t132.5 -15t143.5 -27t112.5 -44.5t46.5 -63.5q0 -21 -16 -95.5t-34 -132.5q-25 -77 -40 -77q-13 0 -18.5 3t-6.5 14q0 8 -1.5 39t-3 44t-4.5 37t-9 42.5t-15 35.5 q-40 79 -135 130.5t-191 51.5q-154 0 -302.5 -63.5t-260 -169t-180 -251.5t-68.5 -301q0 -160 66 -290t192.5 -207t290.5 -77q160 0 293.5 99.5t178.5 220.5q5 13 7 18t8 12.5t14 10.5t21 3q26 0 26 -17q0 -1 -1.5 -8t-5 -27t-11 -54t-22.5 -102.5t-35 -158.5q-1 -8 -19 -8 q-13 0 -40 6t-43 6q-65 0 -174.5 -31t-168.5 -31q-73 0 -144 9t-148 30.5t-144 54.5t-128 85.5t-104.5 119t-69 159t-25.5 201.5zM1024 1560v388h50l44 -247l242 245h50l-280 -386h-106z" />
<glyph unicode="&#x10d;" horiz-adv-x="606" d="M77 192q0 148 48 283.5t122 227t163 145.5t172 54q52 0 75 -20.5t23 -72.5q0 -66 -35 -66q-30 0 -82 33t-80 33q-46 0 -88 -47t-71 -117t-51 -150.5t-32.5 -149t-10.5 -110.5q0 -77 32 -129t101 -52q39 0 76 18t88.5 58t64.5 48l21 -26q-43 -43 -73 -69.5t-73 -55 t-90 -41.5t-101 -13q-102 0 -150.5 59.5t-48.5 159.5zM508 1063v388h50l44 -247l242 245h50l-280 -386h-106z" />
<glyph unicode="&#x10e;" horiz-adv-x="1619" d="M0 8l7 34q3 8 10 8q35 0 62 4t58.5 15.5t53.5 38.5t31 68l225 1055q5 23 5 46q0 24 -9 40t-20 24.5t-35 12.5t-40.5 4.5t-49.5 0.5h-63q-7 0 -7 8l7 33q0 10 10 10h578q110 0 218 -19.5t213.5 -64t185.5 -110.5t129.5 -167t49.5 -224q0 -130 -32.5 -247t-108 -224 t-188.5 -184.5t-284 -123.5t-384 -46h-615q-7 0 -7 8zM407 200q0 -65 72.5 -106.5t163.5 -41.5q18 0 45.5 2t81 11t108 23.5t120.5 44t125 68t116 98.5t97.5 133.5t65.5 176.5t25 222t-39.5 213t-104 153t-155.5 98t-186 54.5t-203 15.5q-47 0 -69 -11.5t-29 -41.5 l-232 -1091q-2 -14 -2 -21zM1015 1560v388h50l44 -247l242 245h50l-280 -386h-106z" />
<glyph unicode="&#x10f;" horiz-adv-x="1298" d="M130 229q0 70 25.5 159t74 178t110 164t141.5 122t160 47q33 0 61.5 -21t43.5 -21q10 0 12 11l124 589q4 20 4 26q0 25 -22 25q-16 0 -28 -5t-90 -42l-13 31q279 149 292 152q2 1 6 1q23 0 23 -33q0 -5 -2 -31l-305 -1401q-4 -29 -4 -41q0 -14 8 -26t18 -12q12 0 53 36.5 t52 36.5q16 0 16 -18q0 -19 -108.5 -103t-136.5 -84q-14 0 -19 4q-30 25 -30 81q0 52 11.5 107t12.5 60q0 16 -8 16t-22 -11t-66 -56.5t-99.5 -86.5t-100 -75.5t-79.5 -34.5q-35 0 -60 28.5t-36 74t-15 82.5t-4 71zM264 239q0 -22 1 -38.5t6 -40t13.5 -39t25.5 -26.5t40 -11 q25 13 48.5 28t55 41t49.5 41.5t65 58t70 62.5l85 385q3 16 3 27q0 34 -36 72t-93 38q-127 0 -236 -238q-89 -193 -97 -360zM1115 1152q0 16 22 29q41 25 69.5 45.5t59 51t46 68t15.5 81.5q0 34 -29.5 91.5t-29.5 90.5q0 9 7 29t27 42t46 22q46 0 80.5 -40.5t34.5 -86.5 q0 -146 -86 -265t-225 -187q-6 -3 -10 -3q-12 0 -19.5 9.5t-7.5 22.5z" />
<glyph unicode="&#x111;" horiz-adv-x="1014" d="M130 229q0 70 25.5 159t74 178t110 164t141.5 122t160 47q33 0 61.5 -21t43.5 -21q10 0 12 11l60 287h-317q-10 0 -16.5 7t-4.5 18l5 25q5 25 22 25h327l48 227q4 20 4 26q0 25 -22 25q-16 0 -28 -5t-90 -42l-13 31q279 149 292 152q2 1 6 1q23 0 23 -33q0 -5 -2 -31 l-76 -351h116q10 0 16.5 -7t4.5 -18l-6 -25q-5 -25 -21 -25h-127l-212 -975q-4 -29 -4 -41q0 -14 8 -26t18 -12q12 0 53 36.5t52 36.5q16 0 16 -18q0 -19 -108.5 -103t-136.5 -84q-14 0 -19 4q-30 25 -30 81q0 52 11.5 107t12.5 60q0 16 -8 16t-22 -11t-66 -56.5 t-99.5 -86.5t-100 -75.5t-79.5 -34.5q-35 0 -60 28.5t-36 74t-15 82.5t-4 71zM264 239q0 -22 1 -38.5t6 -40t13.5 -39t25.5 -26.5t40 -11q25 13 48.5 28t55 41t49.5 41.5t65 58t70 62.5l85 385q3 16 3 27q0 34 -36 72t-93 38q-127 0 -236 -238q-89 -193 -97 -360z" />
<glyph unicode="&#x112;" horiz-adv-x="1360" d="M0 8l5 24q3 8 10 8q80 0 122.5 27.5t61.5 115.5q101 475 190 881q40 185 40 205q0 28 -19 49t-50 31.5t-62 15.5t-63 5q-6 0 -6 8l5 24q2 8 10 8h1046q26 0 38 -5t12 -21v-4q0 -2 -0.5 -4.5t-1 -7t-1.5 -10.5t-2.5 -17t-3.5 -24.5t-4.5 -34.5t-6.5 -46l-8 -59 q-5 -35 -10 -74q-2 -14 -18 -14q-26 0 -30 23q-2 12 -3 37t-2 31q-10 78 -57.5 126.5t-125.5 48.5h-367q-54 0 -66 -9t-22 -56l-105 -500q-2 -10 -2 -12q0 -25 42 -25h367q66 0 121 43.5t85 99.5q5 9 7.5 11t9.5 2h17q9 0 9 -10q0 -3 -0.5 -4t-0.5 -2l-80 -373 q-2 -8 -3.5 -11.5t-5.5 -6.5t-11 -3q-11 0 -15 4t-5 17q-1 5 -1.5 17t-2 24.5t-4.5 24.5q-13 54 -49.5 73t-101.5 19h-361q-10 0 -24.5 -7.5t-17.5 -19.5q-4 -12 -21 -88q-3 -11 -65 -309q-9 -40 -9 -80q0 -31 11.5 -53t28 -33.5t48 -17.5t57 -7.5t68.5 -1.5q78 0 136 3.5 t103 8t82.5 17.5t63 24t56 36.5t51 45t58.5 58.5q6 7 26 30t33 34.5t22 11.5q29 0 29 -19q0 -9 -13 -41q-22 -50 -39.5 -98t-25.5 -73.5t-16.5 -48t-16 -31.5t-19 -14t-30.5 -5h-1090q-7 0 -7 8zM591 1750l27 99h627l-27 -99h-627z" />
<glyph unicode="&#x113;" horiz-adv-x="789" d="M100 279q7 81 34.5 167t75.5 167t109 145t143 103t171 39q68 0 117 -39t49 -105q0 -58 -27.5 -105.5t-67 -77.5t-100 -57t-109.5 -41.5t-113.5 -33t-94.5 -29.5q-32 -74 -32 -153q0 -88 43.5 -146.5t133.5 -58.5q88 0 232 84l14 -25q-20 -15 -49.5 -33.5t-79.5 -45 t-111 -44t-116 -17.5q-58 0 -102.5 25.5t-69.5 69.5t-37.5 96.5t-12.5 114.5zM292 1208l27 99h627l-27 -99h-627zM301 472q0 -10 5.5 -13.5t21.5 -3.5q53 15 94 30t91.5 42t83.5 57.5t56 76.5t23 99q0 44 -20 72.5t-60 28.5q-50 0 -95.5 -28.5t-76 -70t-57 -97.5t-41 -101.5 t-25.5 -91.5z" />
<glyph unicode="&#x114;" horiz-adv-x="1360" d="M0 8l5 24q3 8 10 8q80 0 122.5 27.5t61.5 115.5q101 475 190 881q40 185 40 205q0 28 -19 49t-50 31.5t-62 15.5t-63 5q-6 0 -6 8l5 24q2 8 10 8h1046q26 0 38 -5t12 -21v-4q0 -2 -0.5 -4.5t-1 -7t-1.5 -10.5t-2.5 -17t-3.5 -24.5t-4.5 -34.5t-6.5 -46l-8 -59 q-5 -35 -10 -74q-2 -14 -18 -14q-26 0 -30 23q-2 12 -3 37t-2 31q-10 78 -57.5 126.5t-125.5 48.5h-367q-54 0 -66 -9t-22 -56l-105 -500q-2 -10 -2 -12q0 -25 42 -25h367q66 0 121 43.5t85 99.5q5 9 7.5 11t9.5 2h17q9 0 9 -10q0 -3 -0.5 -4t-0.5 -2l-80 -373 q-2 -8 -3.5 -11.5t-5.5 -6.5t-11 -3q-11 0 -15 4t-5 17q-1 5 -1.5 17t-2 24.5t-4.5 24.5q-13 54 -49.5 73t-101.5 19h-361q-10 0 -24.5 -7.5t-17.5 -19.5q-4 -12 -21 -88q-3 -11 -65 -309q-9 -40 -9 -80q0 -31 11.5 -53t28 -33.5t48 -17.5t57 -7.5t68.5 -1.5q78 0 136 3.5 t103 8t82.5 17.5t63 24t56 36.5t51 45t58.5 58.5q6 7 26 30t33 34.5t22 11.5q29 0 29 -19q0 -9 -13 -41q-22 -50 -39.5 -98t-25.5 -73.5t-16.5 -48t-16 -31.5t-19 -14t-30.5 -5h-1090q-7 0 -7 8zM666 1950h31q0 -86 67 -139.5t161 -53.5q76 0 162.5 66.5t86.5 126.5h33 q0 -112 -94.5 -212t-202.5 -100q-111 0 -177.5 92t-66.5 220z" />
<glyph unicode="&#x115;" horiz-adv-x="789" d="M100 279q7 81 34.5 167t75.5 167t109 145t143 103t171 39q68 0 117 -39t49 -105q0 -58 -27.5 -105.5t-67 -77.5t-100 -57t-109.5 -41.5t-113.5 -33t-94.5 -29.5q-32 -74 -32 -153q0 -88 43.5 -146.5t133.5 -58.5q88 0 232 84l14 -25q-20 -15 -49.5 -33.5t-79.5 -45 t-111 -44t-116 -17.5q-58 0 -102.5 25.5t-69.5 69.5t-37.5 96.5t-12.5 114.5zM301 472q0 -10 5.5 -13.5t21.5 -3.5q53 15 94 30t91.5 42t83.5 57.5t56 76.5t23 99q0 44 -20 72.5t-60 28.5q-50 0 -95.5 -28.5t-76 -70t-57 -97.5t-41 -101.5t-25.5 -91.5zM330 1408h31 q0 -86 67 -139.5t161 -53.5q76 0 162.5 66.5t86.5 126.5h33q0 -112 -94.5 -212t-202.5 -100q-111 0 -177.5 92t-66.5 220z" />
<glyph unicode="&#x116;" horiz-adv-x="1360" d="M0 8l5 24q3 8 10 8q80 0 122.5 27.5t61.5 115.5q101 475 190 881q40 185 40 205q0 28 -19 49t-50 31.5t-62 15.5t-63 5q-6 0 -6 8l5 24q2 8 10 8h1046q26 0 38 -5t12 -21v-4q0 -2 -0.5 -4.5t-1 -7t-1.5 -10.5t-2.5 -17t-3.5 -24.5t-4.5 -34.5t-6.5 -46l-8 -59 q-5 -35 -10 -74q-2 -14 -18 -14q-26 0 -30 23q-2 12 -3 37t-2 31q-10 78 -57.5 126.5t-125.5 48.5h-367q-54 0 -66 -9t-22 -56l-105 -500q-2 -10 -2 -12q0 -25 42 -25h367q66 0 121 43.5t85 99.5q5 9 7.5 11t9.5 2h17q9 0 9 -10q0 -3 -0.5 -4t-0.5 -2l-80 -373 q-2 -8 -3.5 -11.5t-5.5 -6.5t-11 -3q-11 0 -15 4t-5 17q-1 5 -1.5 17t-2 24.5t-4.5 24.5q-13 54 -49.5 73t-101.5 19h-361q-10 0 -24.5 -7.5t-17.5 -19.5q-4 -12 -21 -88q-3 -11 -65 -309q-9 -40 -9 -80q0 -31 11.5 -53t28 -33.5t48 -17.5t57 -7.5t68.5 -1.5q78 0 136 3.5 t103 8t82.5 17.5t63 24t56 36.5t51 45t58.5 58.5q6 7 26 30t33 34.5t22 11.5q29 0 29 -19q0 -9 -13 -41q-22 -50 -39.5 -98t-25.5 -73.5t-16.5 -48t-16 -31.5t-19 -14t-30.5 -5h-1090q-7 0 -7 8zM766 1798q0 50 34 84.5t83 34.5q50 0 83.5 -34.5t33.5 -84.5q0 -49 -33 -82 t-84 -33q-49 0 -83 33t-34 82z" />
<glyph unicode="&#x117;" horiz-adv-x="789" d="M100 279q7 81 34.5 167t75.5 167t109 145t143 103t171 39q68 0 117 -39t49 -105q0 -58 -27.5 -105.5t-67 -77.5t-100 -57t-109.5 -41.5t-113.5 -33t-94.5 -29.5q-32 -74 -32 -153q0 -88 43.5 -146.5t133.5 -58.5q88 0 232 84l14 -25q-20 -15 -49.5 -33.5t-79.5 -45 t-111 -44t-116 -17.5q-58 0 -102.5 25.5t-69.5 69.5t-37.5 96.5t-12.5 114.5zM301 472q0 -10 5.5 -13.5t21.5 -3.5q53 15 94 30t91.5 42t83.5 57.5t56 76.5t23 99q0 44 -20 72.5t-60 28.5q-50 0 -95.5 -28.5t-76 -70t-57 -97.5t-41 -101.5t-25.5 -91.5zM550 1227 q0 50 34 84.5t83 34.5q50 0 83.5 -34.5t33.5 -84.5q0 -49 -33 -82t-84 -33q-49 0 -83 33t-34 82z" />
<glyph unicode="&#x118;" horiz-adv-x="1360" d="M0 8l5 24q3 8 10 8q80 0 122.5 27.5t61.5 115.5q101 475 190 881q40 185 40 205q0 28 -19 49t-50 31.5t-62 15.5t-63 5q-6 0 -6 8l5 24q2 8 10 8h1046q26 0 38 -5t12 -21v-4q0 -2 -0.5 -4.5t-1 -7t-1.5 -10.5t-2.5 -17t-3.5 -24.5t-4.5 -34.5t-6.5 -46l-8 -59 q-5 -35 -10 -74q-2 -14 -18 -14q-26 0 -30 23q-2 12 -3 37t-2 31q-10 78 -57.5 126.5t-125.5 48.5h-367q-54 0 -66 -9t-22 -56l-105 -500q-2 -10 -2 -12q0 -25 42 -25h367q66 0 121 43.5t85 99.5q5 9 7.5 11t9.5 2h17q9 0 9 -10q0 -3 -0.5 -4t-0.5 -2l-80 -373 q-2 -8 -3.5 -11.5t-5.5 -6.5t-11 -3q-11 0 -15 4t-5 17q-1 5 -1.5 17t-2 24.5t-4.5 24.5q-13 54 -49.5 73t-101.5 19h-361q-10 0 -24.5 -7.5t-17.5 -19.5q-4 -12 -21 -88q-3 -11 -65 -309q-9 -40 -9 -80q0 -31 11.5 -53t28 -33.5t48 -17.5t57 -7.5t68.5 -1.5q78 0 136 3.5 t103 8t82.5 17.5t63 24t56 36.5t51 45t58.5 58.5q6 7 26 30t33 34.5t22 11.5q29 0 29 -19q0 -9 -13 -41q-22 -50 -39.5 -98t-25.5 -73.5t-16.5 -48t-16 -31.5t-19 -14t-30.5 -5h-1090q-7 0 -7 8zM601 -342q0 88 70.5 184.5t157.5 157.5h52q-73 -82 -117.5 -162.5 t-44.5 -142.5q0 -66 41 -113t117 -47q43 0 84 12q27 9 30 9q8 0 8 -6q0 -36 -48 -66t-103 -30q-109 0 -178 53.5t-69 150.5z" />
<glyph unicode="&#x119;" horiz-adv-x="789" d="M100 279q7 81 34.5 167t75.5 167t109 145t143 103t171 39q68 0 117 -39t49 -105q0 -58 -27.5 -105.5t-67 -77.5t-100 -57t-109.5 -41.5t-113.5 -33t-94.5 -29.5q-32 -74 -32 -153q0 -88 43.5 -146.5t133.5 -58.5q88 0 232 84l14 -25q-20 -15 -49.5 -33.5t-79.5 -45 t-111 -44t-116 -17.5q-58 0 -102.5 25.5t-69.5 69.5t-37.5 96.5t-12.5 114.5zM135 -342q0 88 70.5 184.5t157.5 157.5h52q-73 -82 -117.5 -162.5t-44.5 -142.5q0 -66 41 -113t117 -47q43 0 84 12q27 9 30 9q8 0 8 -6q0 -36 -48 -66t-103 -30q-109 0 -178 53.5t-69 150.5z M301 472q0 -10 5.5 -13.5t21.5 -3.5q53 15 94 30t91.5 42t83.5 57.5t56 76.5t23 99q0 44 -20 72.5t-60 28.5q-50 0 -95.5 -28.5t-76 -70t-57 -97.5t-41 -101.5t-25.5 -91.5z" />
<glyph unicode="&#x11a;" horiz-adv-x="1360" d="M0 8l5 24q3 8 10 8q80 0 122.5 27.5t61.5 115.5q101 475 190 881q40 185 40 205q0 28 -19 49t-50 31.5t-62 15.5t-63 5q-6 0 -6 8l5 24q2 8 10 8h1046q26 0 38 -5t12 -21v-4q0 -2 -0.5 -4.5t-1 -7t-1.5 -10.5t-2.5 -17t-3.5 -24.5t-4.5 -34.5t-6.5 -46l-8 -59 q-5 -35 -10 -74q-2 -14 -18 -14q-26 0 -30 23q-2 12 -3 37t-2 31q-10 78 -57.5 126.5t-125.5 48.5h-367q-54 0 -66 -9t-22 -56l-105 -500q-2 -10 -2 -12q0 -25 42 -25h367q66 0 121 43.5t85 99.5q5 9 7.5 11t9.5 2h17q9 0 9 -10q0 -3 -0.5 -4t-0.5 -2l-80 -373 q-2 -8 -3.5 -11.5t-5.5 -6.5t-11 -3q-11 0 -15 4t-5 17q-1 5 -1.5 17t-2 24.5t-4.5 24.5q-13 54 -49.5 73t-101.5 19h-361q-10 0 -24.5 -7.5t-17.5 -19.5q-4 -12 -21 -88q-3 -11 -65 -309q-9 -40 -9 -80q0 -31 11.5 -53t28 -33.5t48 -17.5t57 -7.5t68.5 -1.5q78 0 136 3.5 t103 8t82.5 17.5t63 24t56 36.5t51 45t58.5 58.5q6 7 26 30t33 34.5t22 11.5q29 0 29 -19q0 -9 -13 -41q-22 -50 -39.5 -98t-25.5 -73.5t-16.5 -48t-16 -31.5t-19 -14t-30.5 -5h-1090q-7 0 -7 8zM851 1560v388h50l44 -247l242 245h50l-280 -386h-106z" />
<glyph unicode="&#x11b;" horiz-adv-x="789" d="M100 279q7 81 34.5 167t75.5 167t109 145t143 103t171 39q68 0 117 -39t49 -105q0 -58 -27.5 -105.5t-67 -77.5t-100 -57t-109.5 -41.5t-113.5 -33t-94.5 -29.5q-32 -74 -32 -153q0 -88 43.5 -146.5t133.5 -58.5q88 0 232 84l14 -25q-20 -15 -49.5 -33.5t-79.5 -45 t-111 -44t-116 -17.5q-58 0 -102.5 25.5t-69.5 69.5t-37.5 96.5t-12.5 114.5zM301 472q0 -10 5.5 -13.5t21.5 -3.5q53 15 94 30t91.5 42t83.5 57.5t56 76.5t23 99q0 44 -20 72.5t-60 28.5q-50 0 -95.5 -28.5t-76 -70t-57 -97.5t-41 -101.5t-25.5 -91.5zM595 1063v388h50 l44 -247l242 245h50l-280 -386h-106z" />
<glyph unicode="&#x11c;" horiz-adv-x="1625" d="M100 674q0 106 38.5 208.5t104 187t152.5 156.5t183.5 121.5t198.5 77t195 27.5q202 0 298.5 -15t245.5 -67q29 -10 35.5 -18.5t12.5 -46.5q17 -115 17 -230q0 -39 -14 -39q-17 0 -26.5 5.5t-12.5 11.5t-7.5 20.5t-8.5 22.5q-34 76 -71 129t-90 96t-125.5 63.5 t-168.5 20.5q-140 0 -278 -63t-243 -165.5t-170 -243t-65 -285.5q0 -132 34 -242.5t99 -193.5t168.5 -129.5t235.5 -46.5q58 0 114 5.5t119 20t105.5 45t52.5 73.5l49 221q3 12 3 22q0 41 -38.5 64t-89.5 23q-29 0 -29 18t29 18q16 0 217.5 -0.5t210.5 -0.5q33 0 33 -20 q0 -15 -33 -15q-41 0 -71 -25.5t-38 -62.5q-51 -238 -55 -256q-1 -4 -1 -10q0 -34 61 -34q18 0 18 -11q0 -35 -65 -55q-95 -30 -291.5 -56.5t-259.5 -26.5q-166 0 -307 45.5t-246.5 132t-165.5 221t-60 302.5zM895 1562l280 386h106v-388h-50l-44 247l-242 -245h-50z" />
<glyph unicode="&#x11d;" horiz-adv-x="914" d="M-165 -458q0 29 18.5 60.5t42.5 55.5t66.5 54t70 46t76 43.5t62.5 35.5q45 27 56 38l-11 33q-10 30 -10 47q0 19 8.5 37t16 27.5t29 31.5t28.5 30t7 11q0 6 -16.5 23t-39.5 38t-27 26q-40 44 -60 113.5t-20 141.5q0 81 48 166.5t121 150.5t163.5 107t171.5 42 q204 0 245 -16q18 -7 18 -17v-46q0 -7 -6 -11t-12 -4h-118q2 -7 10 -36t13 -48.5t9.5 -54t4.5 -68.5q0 -68 -19.5 -128.5t-57 -112t-75.5 -90t-93 -83.5q-36 -29 -100.5 -57.5t-105 -50t-40.5 -44.5q0 -41 42 -85t101.5 -84.5t119.5 -83t102 -95t42 -106.5q0 -59 -44 -104 t-113 -68.5t-138.5 -35t-134.5 -11.5q-79 0 -141 4t-122 16t-99.5 31.5t-64 52.5t-24.5 78zM-41 -434q0 -43 16.5 -74.5t45 -51t73.5 -31.5t95 -16t118 -4q34 0 79 7t98.5 22t90 48t36.5 77q0 46 -57.5 97.5t-154.5 113t-128 86.5l-13 8q-12 -9 -71.5 -44.5t-104 -65.5 t-84 -78t-39.5 -94zM273 371q0 -50 11.5 -95t44.5 -81.5t83 -36.5t113 66q72 76 108.5 187t36.5 233q0 207 -135 207q-57 0 -107.5 -47.5t-83.5 -120t-52 -155.5t-19 -157zM455 1065l280 386h106v-388h-50l-44 247l-242 -245h-50z" />
<glyph unicode="&#x11e;" horiz-adv-x="1625" d="M100 674q0 106 38.5 208.5t104 187t152.5 156.5t183.5 121.5t198.5 77t195 27.5q202 0 298.5 -15t245.5 -67q29 -10 35.5 -18.5t12.5 -46.5q17 -115 17 -230q0 -39 -14 -39q-17 0 -26.5 5.5t-12.5 11.5t-7.5 20.5t-8.5 22.5q-34 76 -71 129t-90 96t-125.5 63.5 t-168.5 20.5q-140 0 -278 -63t-243 -165.5t-170 -243t-65 -285.5q0 -132 34 -242.5t99 -193.5t168.5 -129.5t235.5 -46.5q58 0 114 5.5t119 20t105.5 45t52.5 73.5l49 221q3 12 3 22q0 41 -38.5 64t-89.5 23q-29 0 -29 18t29 18q16 0 217.5 -0.5t210.5 -0.5q33 0 33 -20 q0 -15 -33 -15q-41 0 -71 -25.5t-38 -62.5q-51 -238 -55 -256q-1 -4 -1 -10q0 -34 61 -34q18 0 18 -11q0 -35 -65 -55q-95 -30 -291.5 -56.5t-259.5 -26.5q-166 0 -307 45.5t-246.5 132t-165.5 221t-60 302.5zM880 1951h31q0 -86 67 -139.5t161 -53.5q76 0 162.5 66.5 t86.5 126.5h33q0 -112 -94.5 -212t-202.5 -100q-111 0 -177.5 92t-66.5 220z" />
<glyph unicode="&#x11f;" horiz-adv-x="977" d="M-165 -458q0 29 18.5 60.5t42.5 55.5t66.5 54t70 46t76 43.5t62.5 35.5q45 27 56 38l-11 33q-10 30 -10 47q0 19 8.5 37t16 27.5t29 31.5t28.5 30t7 11q0 6 -16.5 23t-39.5 38t-27 26q-40 44 -60 113.5t-20 141.5q0 81 48 166.5t121 150.5t163.5 107t171.5 42 q204 0 245 -16q18 -7 18 -17v-46q0 -7 -6 -11t-12 -4h-118q2 -7 10 -36t13 -48.5t9.5 -54t4.5 -68.5q0 -68 -19.5 -128.5t-57 -112t-75.5 -90t-93 -83.5q-36 -29 -100.5 -57.5t-105 -50t-40.5 -44.5q0 -41 42 -85t101.5 -84.5t119.5 -83t102 -95t42 -106.5q0 -59 -44 -104 t-113 -68.5t-138.5 -35t-134.5 -11.5q-79 0 -141 4t-122 16t-99.5 31.5t-64 52.5t-24.5 78zM-41 -434q0 -43 16.5 -74.5t45 -51t73.5 -31.5t95 -16t118 -4q34 0 79 7t98.5 22t90 48t36.5 77q0 46 -57.5 97.5t-154.5 113t-128 86.5l-13 8q-12 -9 -71.5 -44.5t-104 -65.5 t-84 -78t-39.5 -94zM273 371q0 -50 11.5 -95t44.5 -81.5t83 -36.5t113 66q72 76 108.5 187t36.5 233q0 207 -135 207q-57 0 -107.5 -47.5t-83.5 -120t-52 -155.5t-19 -157zM421 1408h31q0 -86 67 -139.5t161 -53.5q76 0 162.5 66.5t86.5 126.5h33q0 -112 -94.5 -212 t-202.5 -100q-111 0 -177.5 92t-66.5 220z" />
<glyph unicode="&#x120;" horiz-adv-x="1625" d="M100 674q0 106 38.5 208.5t104 187t152.5 156.5t183.5 121.5t198.5 77t195 27.5q202 0 298.5 -15t245.5 -67q29 -10 35.5 -18.5t12.5 -46.5q17 -115 17 -230q0 -39 -14 -39q-17 0 -26.5 5.5t-12.5 11.5t-7.5 20.5t-8.5 22.5q-34 76 -71 129t-90 96t-125.5 63.5 t-168.5 20.5q-140 0 -278 -63t-243 -165.5t-170 -243t-65 -285.5q0 -132 34 -242.5t99 -193.5t168.5 -129.5t235.5 -46.5q58 0 114 5.5t119 20t105.5 45t52.5 73.5l49 221q3 12 3 22q0 41 -38.5 64t-89.5 23q-29 0 -29 18t29 18q16 0 217.5 -0.5t210.5 -0.5q33 0 33 -20 q0 -15 -33 -15q-41 0 -71 -25.5t-38 -62.5q-51 -238 -55 -256q-1 -4 -1 -10q0 -34 61 -34q18 0 18 -11q0 -35 -65 -55q-95 -30 -291.5 -56.5t-259.5 -26.5q-166 0 -307 45.5t-246.5 132t-165.5 221t-60 302.5zM1010 1798q0 50 34 84.5t83 34.5q50 0 83.5 -34.5t33.5 -84.5 q0 -49 -33 -82t-84 -33q-49 0 -83 33t-34 82z" />
<glyph unicode="&#x121;" horiz-adv-x="914" d="M-165 -458q0 29 18.5 60.5t42.5 55.5t66.5 54t70 46t76 43.5t62.5 35.5q45 27 56 38l-11 33q-10 30 -10 47q0 19 8.5 37t16 27.5t29 31.5t28.5 30t7 11q0 6 -16.5 23t-39.5 38t-27 26q-40 44 -60 113.5t-20 141.5q0 81 48 166.5t121 150.5t163.5 107t171.5 42 q204 0 245 -16q18 -7 18 -17v-46q0 -7 -6 -11t-12 -4h-118q2 -7 10 -36t13 -48.5t9.5 -54t4.5 -68.5q0 -68 -19.5 -128.5t-57 -112t-75.5 -90t-93 -83.5q-36 -29 -100.5 -57.5t-105 -50t-40.5 -44.5q0 -41 42 -85t101.5 -84.5t119.5 -83t102 -95t42 -106.5q0 -59 -44 -104 t-113 -68.5t-138.5 -35t-134.5 -11.5q-79 0 -141 4t-122 16t-99.5 31.5t-64 52.5t-24.5 78zM-41 -434q0 -43 16.5 -74.5t45 -51t73.5 -31.5t95 -16t118 -4q34 0 79 7t98.5 22t90 48t36.5 77q0 46 -57.5 97.5t-154.5 113t-128 86.5l-13 8q-12 -9 -71.5 -44.5t-104 -65.5 t-84 -78t-39.5 -94zM273 371q0 -50 11.5 -95t44.5 -81.5t83 -36.5t113 66q72 76 108.5 187t36.5 233q0 207 -135 207q-57 0 -107.5 -47.5t-83.5 -120t-52 -155.5t-19 -157zM580 1227q0 50 34 84.5t83 34.5q50 0 83.5 -34.5t33.5 -84.5q0 -49 -33 -82t-84 -33q-49 0 -83 33 t-34 82z" />
<glyph unicode="&#x122;" horiz-adv-x="1625" d="M100 674q0 106 38.5 208.5t104 187t152.5 156.5t183.5 121.5t198.5 77t195 27.5q202 0 298.5 -15t245.5 -67q29 -10 35.5 -18.5t12.5 -46.5q17 -115 17 -230q0 -39 -14 -39q-17 0 -26.5 5.5t-12.5 11.5t-7.5 20.5t-8.5 22.5q-34 76 -71 129t-90 96t-125.5 63.5 t-168.5 20.5q-140 0 -278 -63t-243 -165.5t-170 -243t-65 -285.5q0 -132 34 -242.5t99 -193.5t168.5 -129.5t235.5 -46.5q58 0 114 5.5t119 20t105.5 45t52.5 73.5l49 221q3 12 3 22q0 41 -38.5 64t-89.5 23q-29 0 -29 18t29 18q16 0 217.5 -0.5t210.5 -0.5q33 0 33 -20 q0 -15 -33 -15q-41 0 -71 -25.5t-38 -62.5q-51 -238 -55 -256q-1 -4 -1 -10q0 -34 61 -34q18 0 18 -11q0 -35 -65 -55q-95 -30 -291.5 -56.5t-259.5 -26.5q-166 0 -307 45.5t-246.5 132t-165.5 221t-60 302.5zM811 -230q0 46 36.5 79.5t81.5 33.5q75 0 117.5 -61t42.5 -138 q0 -169 -173 -294q-42 -30 -62 -30q-15 0 -15 27q0 10 9 19.5t22.5 18.5t15.5 11q107 97 107 170q0 12 -1 18.5t-10 14.5t-26 8q-63 0 -104 29.5t-41 93.5z" />
<glyph unicode="&#x123;" horiz-adv-x="914" d="M-165 -458q0 29 18.5 60.5t42.5 55.5t66.5 54t70 46t76 43.5t62.5 35.5q45 27 56 38l-11 33q-10 30 -10 47q0 19 8.5 37t16 27.5t29 31.5t28.5 30t7 11q0 6 -16.5 23t-39.5 38t-27 26q-40 44 -60 113.5t-20 141.5q0 81 48 166.5t121 150.5t163.5 107t171.5 42 q204 0 245 -16q18 -7 18 -17v-46q0 -7 -6 -11t-12 -4h-118q2 -7 10 -36t13 -48.5t9.5 -54t4.5 -68.5q0 -68 -19.5 -128.5t-57 -112t-75.5 -90t-93 -83.5q-36 -29 -100.5 -57.5t-105 -50t-40.5 -44.5q0 -41 42 -85t101.5 -84.5t119.5 -83t102 -95t42 -106.5q0 -59 -44 -104 t-113 -68.5t-138.5 -35t-134.5 -11.5q-79 0 -141 4t-122 16t-99.5 31.5t-64 52.5t-24.5 78zM-41 -434q0 -43 16.5 -74.5t45 -51t73.5 -31.5t95 -16t118 -4q34 0 79 7t98.5 22t90 48t36.5 77q0 46 -57.5 97.5t-154.5 113t-128 86.5l-13 8q-12 -9 -71.5 -44.5t-104 -65.5 t-84 -78t-39.5 -94zM273 371q0 -50 11.5 -95t44.5 -81.5t83 -36.5t113 66q72 76 108.5 187t36.5 233q0 207 -135 207q-57 0 -107.5 -47.5t-83.5 -120t-52 -155.5t-19 -157zM365 1207q0 146 86 265t225 187q6 3 10 3q12 0 19.5 -9.5t7.5 -22.5q0 -16 -22 -29 q-41 -25 -69.5 -45.5t-59 -51t-46 -68t-15.5 -81.5q0 -34 29.5 -91.5t29.5 -90.5q0 -9 -7 -29t-27 -42t-46 -22q-46 0 -80.5 40.5t-34.5 86.5z" />
<glyph unicode="&#x124;" horiz-adv-x="1626" d="M20 8l5 24q3 8 10 8q80 0 122.5 27.5t61.5 115.5l227 1067q4 20 4 27q0 51 -48.5 72t-117.5 21q-10 0 -10 10l5 22q2 8 10 8h521q6 0 6 -8l-5 -24q-2 -8 -10 -8q-80 0 -123.5 -27.5t-61.5 -115.5q-76 -363 -90 -425q-1 -2 -1 -3q-2 -10 -2 -13q0 -22 31 -22h712 q11 0 19 6.5t19.5 33t21.5 74.5q83 386 83 396q0 53 -50 74.5t-120 21.5q-6 0 -6 8l5 24q2 8 10 8h521q6 0 6 -8l-5 -24q-2 -8 -10 -8q-80 0 -123.5 -27.5t-62.5 -115.5l-226 -1067q-4 -16 -4 -32q0 -30 16.5 -49.5t49 -27t57 -9.5t63.5 -2q6 0 6 -8l-5 -24q-2 -8 -9 -8 h-536q-7 0 -7 8l5 24q3 8 10 8q80 0 122.5 27.5t61.5 115.5q92 428 92 444q0 61 -52 61h-663q-25 0 -41.5 -19t-22.5 -40.5t-16 -66.5q-89 -418 -89 -431q0 -31 16.5 -51t49 -28t56.5 -10t63 -2q6 0 6 -8l-5 -24q-2 -8 -9 -8h-536q-7 0 -7 8zM893 1562l280 386h106v-388h-50 l-44 247l-242 -245h-50z" />
<glyph unicode="&#x125;" horiz-adv-x="982" d="M100 0q0 5 16 85l292 1372q4 20 4 26q0 25 -22 25h-6q-3 0 -6.5 -0.5t-5.5 -1t-7.5 -3t-9.5 -4t-13 -6t-16 -7.5l-23 -11q-15 -7 -29 -14l-13 31q279 149 292 152q2 1 6 1q23 0 23 -33q0 -6 -6 -30l-227 -1072q0 -10 9 -10q11 0 33 26q333 374 471 374q31 0 53 -24 t22 -61q0 -13 -3 -27l-178 -692v-4q0 -9 7.5 -15.5t17.5 -6.5q18 0 44 17t45 35.5t42.5 43t25.5 26.5l19 -19q-12 -22 -60 -69t-112 -90t-102 -43q-31 0 -53 24.5t-22 61.5q0 13 3 27l178 692v4q0 9 -8.5 15.5t-19.5 6.5q-44 -1 -197.5 -155.5t-218.5 -239.5q-1 -1 -5 -6.5 t-6 -7.5t-5.5 -8t-5.5 -11t-4.5 -13t-4.5 -17l-71 -333q-25 -14 -62.5 -27t-52.5 -13q-13 0 -20.5 8.5t-7.5 20.5zM635 1722l280 386h106v-388h-50l-44 247l-242 -245h-50z" />
<glyph unicode="&#x126;" horiz-adv-x="1626" d="M20 8l5 24q3 8 10 8q80 0 122.5 27.5t61.5 115.5l187 880h-195q-21 0 -21 20l5 30q5 25 22 25h205l24 112q4 20 4 27q0 51 -48.5 72t-117.5 21q-10 0 -10 10l5 22q2 8 10 8h521q6 0 6 -8l-5 -24q-2 -8 -10 -8q-80 0 -123.5 -27.5t-61.5 -115.5l-19 -89h785q27 128 27 136 q0 53 -50 74.5t-120 21.5q-6 0 -6 8l5 24q2 8 10 8h521q6 0 6 -8l-5 -24q-2 -8 -10 -8q-80 0 -123.5 -27.5t-62.5 -115.5l-19 -89h165q9 0 15 -5.5t6 -14.5l-6 -30q-5 -25 -21 -25h-175l-191 -903q-4 -16 -4 -32q0 -30 16.5 -49.5t49 -27t57 -9.5t63.5 -2q6 0 6 -8l-5 -24 q-2 -8 -9 -8h-536q-7 0 -7 8l5 24q3 8 10 8q80 0 122.5 27.5t61.5 115.5q92 428 92 444q0 61 -52 61h-663q-25 0 -41.5 -19t-22.5 -40.5t-16 -66.5q-89 -418 -89 -431q0 -31 16.5 -51t49 -28t56.5 -10t63 -2q6 0 6 -8l-5 -24q-2 -8 -9 -8h-536q-7 0 -7 8zM523 786 q0 -22 31 -22h712q11 0 19 6.5t19.5 33t21.5 74.5l40 185h-785q-12 -62 -22 -111t-16 -74t-10 -42.5t-6 -24.5t-3 -12.5t-1 -12.5z" />
<glyph unicode="&#x127;" horiz-adv-x="982" d="M100 0q0 5 16 85l227 1070h-141q-10 0 -16.5 7t-4.5 18l5 25q5 25 22 25h151l49 227q4 20 4 26q0 25 -22 25h-6q-3 0 -6.5 -0.5t-5.5 -1t-7.5 -3t-9.5 -4t-13 -6t-16 -7.5l-23 -11q-15 -7 -29 -14l-13 31q279 149 292 152q2 1 6 1q23 0 23 -33q0 -6 -6 -30l-75 -352h311 q10 0 16.5 -7t4.5 -18l-6 -25q-5 -25 -21 -25h-321l-136 -645q0 -10 9 -10q11 0 33 26q333 374 471 374q31 0 53 -24t22 -61q0 -13 -3 -27l-178 -692v-4q0 -9 7.5 -15.5t17.5 -6.5q18 0 44 17t45 35.5t42.5 43t25.5 26.5l19 -19q-12 -22 -60 -69t-112 -90t-102 -43 q-31 0 -53 24.5t-22 61.5q0 13 3 27l178 692v4q0 9 -8.5 15.5t-19.5 6.5q-44 -1 -197.5 -155.5t-218.5 -239.5q-1 -1 -5 -6.5t-6 -7.5t-5.5 -8t-5.5 -11t-4.5 -13t-4.5 -17l-71 -333q-25 -14 -62.5 -27t-52.5 -13q-13 0 -20.5 8.5t-7.5 20.5z" />
<glyph unicode="&#x128;" horiz-adv-x="667" d="M20 8l5 24q3 8 10 8q80 0 123 27.5t62 115.5q77 362 162 761q68 316 68 331q0 95 -170 95q-6 0 -6 8l5 24q2 8 10 8h521q6 0 6 -8l-5 -24q-2 -8 -10 -8q-80 0 -123 -27.5t-62 -115.5l-227 -1067q-4 -16 -4 -32q0 -30 16.5 -49.5t49 -27t57 -9.5t63.5 -2q6 0 6 -8l-5 -24 q-2 -8 -9 -8h-536q-7 0 -7 8zM306 1688q0 94 42.5 154t113.5 60q56 0 161.5 -52.5t157.5 -52.5q33 0 53.5 39.5t20.5 77.5q0 6 5 10t11 4h19q14 0 14 -41q0 -70 -45 -123.5t-117 -53.5q-56 0 -153.5 52t-149.5 52q-29 0 -58.5 -41.5t-29.5 -88.5q0 -12 -16 -12h-21 q-8 0 -8 16z" />
<glyph unicode="&#x129;" horiz-adv-x="557" d="M95 1128q0 94 42.5 154t113.5 60q56 0 161.5 -52.5t157.5 -52.5q33 0 53.5 39.5t20.5 77.5q0 6 5 10t11 4h19q14 0 14 -41q0 -70 -45 -123.5t-117 -53.5q-56 0 -153.5 52t-149.5 52q-29 0 -58.5 -41.5t-29.5 -88.5q0 -12 -16 -12h-21q-8 0 -8 16zM115 699q12 22 60 69 t112 89.5t102 42.5q31 0 53 -24t22 -61q0 -13 -3 -27l-147 -692v-4q0 -9 7.5 -15.5t17.5 -6.5q18 0 44 17t45 35.5t42.5 43t25.5 26.5l19 -19q-12 -22 -60 -69t-112 -89.5t-102 -42.5q-31 0 -53 24t-22 61q0 13 3 27l147 692v4q0 9 -7.5 15.5t-17.5 6.5q-18 0 -44 -17 t-45 -35.5t-42.5 -43t-25.5 -26.5z" />
<glyph unicode="&#x12a;" horiz-adv-x="667" d="M20 8l5 24q3 8 10 8q80 0 123 27.5t62 115.5q77 362 162 761q68 316 68 331q0 95 -170 95q-6 0 -6 8l5 24q2 8 10 8h521q6 0 6 -8l-5 -24q-2 -8 -10 -8q-80 0 -123 -27.5t-62 -115.5l-227 -1067q-4 -16 -4 -32q0 -30 16.5 -49.5t49 -27t57 -9.5t63.5 -2q6 0 6 -8l-5 -24 q-2 -8 -9 -8h-536q-7 0 -7 8zM286 1750l27 99h627l-27 -99h-627z" />
<glyph unicode="&#x12b;" horiz-adv-x="557" d="M115 699q12 22 60 69t112 89.5t102 42.5q31 0 53 -24t22 -61q0 -13 -3 -27l-147 -692v-4q0 -9 7.5 -15.5t17.5 -6.5q18 0 44 17t45 35.5t42.5 43t25.5 26.5l19 -19q-12 -22 -60 -69t-112 -89.5t-102 -42.5q-31 0 -53 24t-22 61q0 13 3 27l147 692v4q0 9 -7.5 15.5 t-17.5 6.5q-18 0 -44 -17t-45 -35.5t-42.5 -43t-25.5 -26.5zM175 1208l27 99h507l-27 -99h-507z" />
<glyph unicode="&#x12c;" horiz-adv-x="667" d="M20 8l5 24q3 8 10 8q80 0 123 27.5t62 115.5q77 362 162 761q68 316 68 331q0 95 -170 95q-6 0 -6 8l5 24q2 8 10 8h521q6 0 6 -8l-5 -24q-2 -8 -10 -8q-80 0 -123 -27.5t-62 -115.5l-227 -1067q-4 -16 -4 -32q0 -30 16.5 -49.5t49 -27t57 -9.5t63.5 -2q6 0 6 -8l-5 -24 q-2 -8 -9 -8h-536q-7 0 -7 8zM391 1951h31q0 -86 67 -139.5t161 -53.5q76 0 162.5 66.5t86.5 126.5h33q0 -112 -94.5 -212t-202.5 -100q-111 0 -177.5 92t-66.5 220z" />
<glyph unicode="&#x12d;" horiz-adv-x="557" d="M115 699q12 22 60 69t112 89.5t102 42.5q31 0 53 -24t22 -61q0 -13 -3 -27l-147 -692v-4q0 -9 7.5 -15.5t17.5 -6.5q18 0 44 17t45 35.5t42.5 43t25.5 26.5l19 -19q-12 -22 -60 -69t-112 -89.5t-102 -42.5q-31 0 -53 24t-22 61q0 13 3 27l147 692v4q0 9 -7.5 15.5 t-17.5 6.5q-18 0 -44 -17t-45 -35.5t-42.5 -43t-25.5 -26.5zM165 1408h31q0 -86 67 -139.5t161 -53.5q76 0 162.5 66.5t86.5 126.5h33q0 -112 -94.5 -212t-202.5 -100q-111 0 -177.5 92t-66.5 220z" />
<glyph unicode="&#x12e;" horiz-adv-x="667" d="M20 8l5 24q3 8 10 8q80 0 123 27.5t62 115.5q77 362 162 761q68 316 68 331q0 95 -170 95q-6 0 -6 8l5 24q2 8 10 8h521q6 0 6 -8l-5 -24q-2 -8 -10 -8q-80 0 -123 -27.5t-62 -115.5l-227 -1067q-4 -16 -4 -32q0 -30 16.5 -49.5t49 -27t57 -9.5t63.5 -2q6 0 6 -8l-5 -24 q-2 -8 -9 -8h-536q-7 0 -7 8zM46 -342q0 88 70.5 184.5t157.5 157.5h52q-73 -82 -117.5 -162.5t-44.5 -142.5q0 -66 41 -113t117 -47q43 0 84 12q27 9 30 9q8 0 8 -6q0 -36 -48 -66t-103 -30q-109 0 -178 53.5t-69 150.5z" />
<glyph unicode="&#x12f;" horiz-adv-x="557" d="M35 -342q0 88 70.5 184.5t157.5 157.5h52q-73 -82 -117.5 -162.5t-44.5 -142.5q0 -66 41 -113t117 -47q43 0 84 12q27 9 30 9q8 0 8 -6q0 -36 -48 -66t-103 -30q-109 0 -178 53.5t-69 150.5zM115 699q12 22 60 69t112 89.5t102 42.5q34 0 54.5 -26.5t20.5 -61.5 q0 -12 -3 -24q-146 -690 -146 -696q0 -22 24 -22q18 0 44 17t45 35.5t42.5 43t25.5 26.5l19 -19q-12 -22 -60 -68.5t-112 -89t-102 -42.5q-34 0 -54 26.5t-20 61.5q0 14 5 36l144 679v4q0 9 -7.5 15.5t-17.5 6.5q-18 0 -44 -17t-45 -35.5t-42.5 -43t-25.5 -26.5zM404 1218 q1 32 11 69.5t35 71t59 33.5q30 0 46.5 -23.5t16.5 -54.5q0 -46 -33 -108t-77 -62q-27 0 -42.5 23t-15.5 51z" />
<glyph unicode="&#x130;" horiz-adv-x="667" d="M20 8l5 24q3 8 10 8q80 0 123 27.5t62 115.5q77 362 162 761q68 316 68 331q0 95 -170 95q-6 0 -6 8l5 24q2 8 10 8h521q6 0 6 -8l-5 -24q-2 -8 -10 -8q-80 0 -123 -27.5t-62 -115.5l-227 -1067q-4 -16 -4 -32q0 -30 16.5 -49.5t49 -27t57 -9.5t63.5 -2q6 0 6 -8l-5 -24 q-2 -8 -9 -8h-536q-7 0 -7 8zM521 1798q0 50 34 84.5t83 34.5q50 0 83.5 -34.5t33.5 -84.5q0 -49 -33 -82t-84 -33q-49 0 -83 33t-34 82z" />
<glyph unicode="&#x131;" horiz-adv-x="557" d="M115 699q12 22 60 69t112 89.5t102 42.5q31 0 53 -24t22 -61q0 -13 -3 -27l-147 -692v-4q0 -9 7.5 -15.5t17.5 -6.5q18 0 44 17t45 35.5t42.5 43t25.5 26.5l19 -19q-12 -22 -60 -69t-112 -89.5t-102 -42.5q-31 0 -53 24t-22 61q0 13 3 27l147 692v4q0 9 -7.5 15.5 t-17.5 6.5q-18 0 -44 -17t-45 -35.5t-42.5 -43t-25.5 -26.5z" />
<glyph unicode="&#x132;" horiz-adv-x="1336" d="M20 8l5 24q3 8 10 8q80 0 123 27.5t62 115.5q77 362 162 761q68 316 68 331q0 95 -170 95q-6 0 -6 8l5 24q2 8 10 8h521q6 0 6 -8l-5 -24q-2 -8 -10 -8q-80 0 -123 -27.5t-62 -115.5l-227 -1067q-4 -16 -4 -32q0 -30 16.5 -49.5t49 -27t57 -9.5t63.5 -2q6 0 6 -8l-5 -24 q-2 -8 -9 -8h-536q-7 0 -7 8zM233 -608q0 46 32 69t75 23q39 0 122.5 -24.5t115.5 -24.5q68 0 105 40q53 59 111 281q44 171 200 919q69 332 121 575q5 25 5 39q0 49 -41 65t-130 16q-6 0 -6 8l5 24q2 8 10 8h521q6 0 6 -8l-5 -24q-2 -8 -10 -8q-80 0 -123 -27.5t-62 -115.5 q-285 -1348 -296 -1391q-127 -508 -609 -508q-147 0 -147 64z" />
<glyph unicode="&#x133;" horiz-adv-x="1096" d="M115 699q12 22 60 69t112 89.5t102 42.5q34 0 54.5 -26.5t20.5 -61.5q0 -12 -3 -24q-146 -690 -146 -696q0 -22 24 -22q18 0 44 17t45 35.5t42.5 43t25.5 26.5l19 -19q-12 -22 -60 -68.5t-112 -89t-102 -42.5q-34 0 -54 26.5t-20 61.5q0 14 5 36l144 679v4q0 9 -7.5 15.5 t-17.5 6.5q-18 0 -44 -17t-45 -35.5t-42.5 -43t-25.5 -26.5zM230 -545q0 24 13 42t39 18q35 0 91.5 -43t92.5 -43q23 0 43.5 12t38.5 37.5t33 51.5t29 67t23.5 70.5t20.5 76t16 69t14 63.5q1 4 2.5 12t2.5 12q162 766 184 864q2 8 2 13q0 25 -25 25q-18 0 -44 -17t-45 -35.5 t-42.5 -43t-25.5 -26.5l-19 19q12 22 60 69t112 89.5t102 42.5q33 0 53.5 -27.5t20.5 -63.5q0 -10 -4 -28q-9 -46 -178 -842q-12 -58 -36.5 -127t-67.5 -151t-95 -147t-125.5 -109t-153.5 -44q-57 0 -94.5 30.5t-37.5 63.5zM404 1218q1 32 11 69.5t35 71t59 33.5 q30 0 46.5 -23.5t16.5 -54.5q0 -46 -33 -108t-77 -62q-27 0 -42.5 23t-15.5 51zM963 1218q1 32 11 69.5t35 71t59 33.5q30 0 46.5 -23.5t16.5 -54.5q0 -46 -33 -108t-77 -62q-27 0 -42.5 23t-15.5 51z" />
<glyph unicode="&#x134;" horiz-adv-x="678" d="M-425 -608q0 46 32 69t75 23q39 0 122.5 -24.5t115.5 -24.5q68 0 105 40q53 59 111 281q44 171 200 919q69 332 121 575q5 25 5 39q0 49 -41 65t-130 16q-6 0 -6 8l5 24q2 8 10 8h521q6 0 6 -8l-5 -24q-2 -8 -10 -8q-80 0 -123 -27.5t-62 -115.5q-285 -1348 -296 -1391 q-127 -508 -609 -508q-147 0 -147 64zM372 1562l280 386h106v-388h-50l-44 247l-242 -245h-50z" />
<glyph unicode="&#x135;" horiz-adv-x="576" d="M-290 -545q0 24 13 42t39 18q35 0 91.5 -43t92.5 -43q38 0 77 46.5t66 110.5q40 115 90 353l176 837v4q0 9 -7.5 15.5t-17.5 6.5q-18 0 -44 -17t-45 -35.5t-42.5 -43t-25.5 -26.5l-19 19q12 22 60 69t112 89.5t102 42.5q31 0 53 -24t22 -61q0 -13 -3 -27l-180 -849 q-12 -58 -36.5 -127t-67.5 -151t-95 -147t-125.5 -109t-153.5 -44q-57 0 -94.5 30.5t-37.5 63.5zM236 1065l280 386h106v-388h-50l-44 247l-242 -245h-50z" />
<glyph unicode="&#x136;" horiz-adv-x="1556" d="M20 8l5 24q3 8 10 8q80 0 122.5 27.5t61.5 115.5l232 1088q2 10 2 14q0 25 -19 42.5t-48 26.5t-55.5 12.5t-50.5 3.5q-6 0 -6 8l5 24q2 8 10 8h521q6 0 6 -8l-5 -24q-2 -8 -10 -8q-80 0 -123 -27.5t-62 -115.5q-95 -441 -95 -450q0 -8 7 -8q5 0 21 10q135 93 167 118 q67 50 472 338q33 23 42.5 37.5t9.5 48.5q0 29 -12.5 39t-44.5 10h-35q-18 0 -18 13v16q0 11 17 11h497q12 0 12 -11v-17q0 -12 -23 -12q-28 0 -53.5 -5t-40.5 -11t-44 -18.5t-49 -20.5q-47 -18 -117 -63.5t-213 -151.5q-83 -61 -384 -275q-18 -13 -18 -23q0 -5 11 -20 q5 -8 13.5 -17.5t17 -20t11.5 -13.5q30 -36 125 -151t170.5 -205.5t130.5 -153.5q4 -4 29 -33.5t36 -42t37 -37t44 -36.5t43 -22t48 -10h66q9 0 9 -12v-18q0 -10 -13 -10h-343q-56 68 -531 638q-2 2 -7.5 9t-8.5 10t-8.5 9t-9.5 9.5t-9.5 7.5t-10.5 5.5t-10 1.5 q-16 0 -37 -19.5t-30 -53.5l-98 -457q-4 -16 -4 -32q0 -30 16.5 -49.5t49 -27t57 -9.5t63.5 -2q6 0 6 -8l-5 -24q-2 -8 -9 -8h-536q-7 0 -7 8zM643 -230q0 46 36.5 79.5t81.5 33.5q75 0 117.5 -61t42.5 -138q0 -169 -173 -294q-42 -30 -62 -30q-15 0 -15 27q0 10 9 19.5 t22.5 18.5t15.5 11q107 97 107 170q0 12 -1 18.5t-10 14.5t-26 8q-63 0 -104 29.5t-41 93.5z" />
<glyph unicode="&#x137;" horiz-adv-x="1013" d="M117 4q0 39 9 81l292 1372q4 14 4 26q0 25 -22 25q-15 0 -34 -8t-43 -20.5t-39 -18.5l-13 31q19 10 46.5 25t56.5 30t38 20q11 6 35 19.5t39 21.5t33.5 17.5t31 14.5t18.5 5q23 0 23 -32q0 -4 -6 -31l-205 -968q-3 -11 -3 -18q0 -14 13 -14q5 0 9 4q9 7 139 111.5 t214.5 159.5t128.5 55q50 0 83 -59t33 -114q0 -52 -27 -100.5t-80 -90t-144 -67t-206 -25.5q-7 0 -13.5 -6.5t-6.5 -13.5q0 -4 3 -8q3 -5 28.5 -42t41.5 -59t46 -61.5t54 -65t53 -52.5t56.5 -40.5t50.5 -13.5q18 0 37 14t31 30.5t25.5 30.5t21.5 14q6 0 10.5 -5t4.5 -11 t-138 -149q-23 -23 -41 -23q-23 0 -40 7q-58 24 -104.5 62t-79.5 82.5t-60 88.5t-61 93.5t-68 83.5q-29 29 -36 29q-4 0 -9.5 -5t-7.5 -14l-86 -411q-7 -3 -32 -15.5t-42.5 -18.5t-33.5 -6q-28 0 -28 33zM351 477q59 -3 79 -3q162 0 233 25q97 33 157.5 97.5t60.5 135.5 q0 38 -17.5 67t-47.5 29q-49 0 -123 -46q-33 -20 -65.5 -44t-55.5 -42t-91.5 -74.5t-119.5 -97.5zM361 -230q0 46 36.5 79.5t81.5 33.5q75 0 117.5 -61t42.5 -138q0 -169 -173 -294q-42 -30 -62 -30q-15 0 -15 27q0 10 9 19.5t22.5 18.5t15.5 11q107 97 107 170 q0 12 -1 18.5t-10 14.5t-26 8q-63 0 -104 29.5t-41 93.5z" />
<glyph unicode="&#x138;" horiz-adv-x="975" d="M-19 10q0 14 14 19q8 3 38 9.5t53 14t47 33t33 66.5l123 578q2 10 2 14q0 18 -13 31t-26.5 18t-41.5 12.5t-37 10.5t-9 18q0 13 19 22l267 114q15 6 16 6q13 0 13 -14q0 -6 -71 -339q-1 -3 -1 -9q0 -30 40 -30q31 0 109.5 47t145 104t66.5 82q0 14 -17 19.5t-38 5.5 t-38 8.5t-17 26.5q0 23 46 23h341q30 0 30 -23q0 -13 -28.5 -21.5t-79 -24t-87.5 -40.5l-343 -228q2 -2 17 -22q101 -140 322 -439q23 -32 57 -48t55.5 -21t21.5 -15q0 -18 -24 -18h-391q-10 0 -10 18q0 10 18 17t39.5 11.5t39.5 14.5t18 25q0 25 -30 64l-218 297 q-23 32 -56 32q-19 0 -29 -49l-59 -278q-4 -24 -4 -31q0 -29 16 -47.5t35 -24.5t42 -11t30 -9q7 -3 7 -12q0 -1 -0.5 -4.5t-0.5 -4.5t-1.5 -3t-4 -3t-6.5 -2h-432q-8 1 -8 10z" />
<glyph unicode="&#x139;" horiz-adv-x="1286" d="M20 12q0 1 0.5 2t1 4.5t1.5 8.5q2 13 19 13q78 0 117.5 27t58.5 116q229 1079 229 1088q0 29 -19 50t-50 31t-61 14t-63 4q-6 0 -6 8l5 24q2 8 10 8h587q6 0 6 -8l-5 -24q-2 -8 -10 -8q-41 0 -72 -5t-64.5 -18.5t-56 -44t-31.5 -75.5q-213 -1004 -213 -1033 q0 -72 48 -102.5t138 -30.5q98 0 164.5 3t122 13.5t88.5 21t71 37.5t62 49.5t68 68.5q6 7 26 30t33 34.5t22 11.5q29 0 29 -19q0 -9 -13 -41q-22 -50 -39.5 -98t-25.5 -73.5t-16.5 -48t-16 -31.5t-19 -14t-30.5 -5h-1085q-11 0 -11 12zM563 1600q0 2 4 6l213 295 q36 49 75 49q30 0 51 -22t21 -52q0 -49 -55 -94l-269 -217q-5 -3 -7 -3q-4 0 -7 3l-22 29q-4 4 -4 6z" />
<glyph unicode="&#x13a;" horiz-adv-x="559" d="M130 58q0 14 3 27l294 1372q4 20 4 26q0 25 -22 25q-16 0 -28 -5t-90 -42l-13 31q279 149 292 152q2 1 6 1q23 0 23 -33q0 -14 -4 -30q-317 -1475 -317 -1485v-4q0 -9 7.5 -15.5t17.5 -6.5q18 0 44 17t45 35.5t42.5 43t25.5 26.5l19 -19q-12 -22 -60 -69t-112 -89.5 t-102 -42.5q-31 0 -53 24t-22 61zM365 1712q0 4 4 8l282 230q37 30 70 30q30 0 49 -22.5t19 -51.5q0 -60 -80 -95l-316 -140q-1 -1 -4 -1q-7 0 -9 5z" />
<glyph unicode="&#x13b;" horiz-adv-x="1286" d="M20 12q0 1 0.5 2t1 4.5t1.5 8.5q2 13 19 13q78 0 117.5 27t58.5 116q229 1079 229 1088q0 29 -19 50t-50 31t-61 14t-63 4q-6 0 -6 8l5 24q2 8 10 8h587q6 0 6 -8l-5 -24q-2 -8 -10 -8q-41 0 -72 -5t-64.5 -18.5t-56 -44t-31.5 -75.5q-213 -1004 -213 -1033 q0 -72 48 -102.5t138 -30.5q98 0 164.5 3t122 13.5t88.5 21t71 37.5t62 49.5t68 68.5q6 7 26 30t33 34.5t22 11.5q29 0 29 -19q0 -9 -13 -41q-22 -50 -39.5 -98t-25.5 -73.5t-16.5 -48t-16 -31.5t-19 -14t-30.5 -5h-1085q-11 0 -11 12zM516 -230q0 46 36.5 79.5t81.5 33.5 q75 0 117.5 -61t42.5 -138q0 -169 -173 -294q-42 -30 -62 -30q-15 0 -15 27q0 10 9 19.5t22.5 18.5t15.5 11q107 97 107 170q0 12 -1 18.5t-10 14.5t-26 8q-63 0 -104 29.5t-41 93.5z" />
<glyph unicode="&#x13c;" horiz-adv-x="559" d="M130 58q0 14 3 27l294 1372q4 20 4 26q0 25 -22 25q-16 0 -28 -5t-90 -42l-13 31q279 149 292 152q2 1 6 1q23 0 23 -33q0 -14 -4 -30q-317 -1475 -317 -1485v-4q0 -9 7.5 -15.5t17.5 -6.5q18 0 44 17t45 35.5t42.5 43t25.5 26.5l19 -19q-12 -22 -60 -69t-112 -89.5 t-102 -42.5q-31 0 -53 24t-22 61zM141 -230q0 46 36.5 79.5t81.5 33.5q75 0 117.5 -61t42.5 -138q0 -169 -173 -294q-42 -30 -62 -30q-15 0 -15 27q0 10 9 19.5t22.5 18.5t15.5 11q107 97 107 170q0 12 -1 18.5t-10 14.5t-26 8q-63 0 -104 29.5t-41 93.5z" />
<glyph unicode="&#x13d;" horiz-adv-x="1286" d="M20 12q0 1 0.5 2t1 4.5t1.5 8.5q2 13 19 13q78 0 117.5 27t58.5 116q229 1079 229 1088q0 29 -19 50t-50 31t-61 14t-63 4q-6 0 -6 8l5 24q2 8 10 8h587q6 0 6 -8l-5 -24q-2 -8 -10 -8q-41 0 -72 -5t-64.5 -18.5t-56 -44t-31.5 -75.5q-213 -1004 -213 -1033 q0 -72 48 -102.5t138 -30.5q98 0 164.5 3t122 13.5t88.5 21t71 37.5t62 49.5t68 68.5q6 7 26 30t33 34.5t22 11.5q29 0 29 -19q0 -9 -13 -41q-22 -50 -39.5 -98t-25.5 -73.5t-16.5 -48t-16 -31.5t-19 -14t-30.5 -5h-1085q-11 0 -11 12zM900 902q0 16 22 29q41 25 69.5 45.5 t59 51t46 68t15.5 81.5q0 34 -29.5 91.5t-29.5 90.5q0 9 7 29t27 42t46 22q46 0 80.5 -40.5t34.5 -86.5q0 -146 -86 -265t-225 -187q-6 -3 -10 -3q-12 0 -19.5 9.5t-7.5 22.5z" />
<glyph unicode="&#x13e;" horiz-adv-x="747" d="M130 58q0 14 3 27l294 1372q4 20 4 26q0 25 -22 25q-16 0 -28 -5t-90 -42l-13 31q279 149 292 152q2 1 6 1q23 0 23 -33q0 -14 -4 -30q-317 -1475 -317 -1485v-4q0 -9 7.5 -15.5t17.5 -6.5q18 0 44 17t45 35.5t42.5 43t25.5 26.5l19 -19q-12 -22 -60 -69t-112 -89.5 t-102 -42.5q-31 0 -53 24t-22 61zM665 1135q0 16 22 29q41 25 69.5 45.5t59 51t46 68t15.5 81.5q0 34 -29.5 91.5t-29.5 90.5q0 9 7 29t27 42t46 22q46 0 80.5 -40.5t34.5 -86.5q0 -146 -86 -265t-225 -187q-6 -3 -10 -3q-12 0 -19.5 9.5t-7.5 22.5z" />
<glyph unicode="&#x13f;" horiz-adv-x="1286" d="M20 12q0 1 0.5 2t1 4.5t1.5 8.5q2 13 19 13q78 0 117.5 27t58.5 116q229 1079 229 1088q0 29 -19 50t-50 31t-61 14t-63 4q-6 0 -6 8l5 24q2 8 10 8h587q6 0 6 -8l-5 -24q-2 -8 -10 -8q-41 0 -72 -5t-64.5 -18.5t-56 -44t-31.5 -75.5q-213 -1004 -213 -1033 q0 -72 48 -102.5t138 -30.5q98 0 164.5 3t122 13.5t88.5 21t71 37.5t62 49.5t68 68.5q6 7 26 30t33 34.5t22 11.5q29 0 29 -19q0 -9 -13 -41q-22 -50 -39.5 -98t-25.5 -73.5t-16.5 -48t-16 -31.5t-19 -14t-30.5 -5h-1085q-11 0 -11 12zM795 657q0 50 34 84.5t83 34.5 q50 0 83.5 -34.5t33.5 -84.5q0 -49 -33 -82t-84 -33q-49 0 -83 33t-34 82z" />
<glyph unicode="&#x140;" horiz-adv-x="783" d="M130 58q0 14 3 27l294 1372q4 20 4 26q0 25 -22 25q-16 0 -28 -5t-90 -42l-13 31q279 149 292 152q2 1 6 1q23 0 23 -33q0 -14 -4 -30q-317 -1475 -317 -1485v-4q0 -9 7.5 -15.5t17.5 -6.5q18 0 44 17t45 35.5t42.5 43t25.5 26.5l19 -19q-12 -22 -60 -69t-112 -89.5 t-102 -42.5q-31 0 -53 24t-22 61zM580 677q0 50 34 84.5t83 34.5q50 0 83.5 -34.5t33.5 -84.5q0 -49 -33 -82t-84 -33q-49 0 -83 33t-34 82z" />
<glyph unicode="&#x141;" horiz-adv-x="1286" d="M20 12q0 4 3 15q4 13 24 13q78 0 115.5 27t55.5 116l81 384l-171 -130l27 124l170 128q123 579 123 586q0 28 -19 48t-50.5 29.5t-62 13.5t-62.5 4q-6 0 -6 8l5 24q2 8 10 8h587q6 0 6 -8l-5 -24q-2 -8 -10 -8q-41 0 -72 -5t-64.5 -18.5t-56 -44t-31.5 -75.5l-80 -379 l342 258l-25 -118l-343 -260l-100 -474q-7 -31 -7 -60q0 -72 48 -102.5t138 -30.5q98 0 164.5 3t122 13.5t88.5 21t71 37.5t62 49.5t68 68.5q6 7 26 30t33 34.5t22 11.5q29 0 29 -19q0 -9 -13 -41q-22 -50 -39.5 -98t-25.5 -73.5t-16.5 -48t-16 -31.5t-19 -14t-30.5 -5 h-1085q-11 0 -11 12z" />
<glyph unicode="&#x142;" horiz-adv-x="547" d="M45 561l212 160l158 736q4 20 4 26q0 25 -22 25q-16 0 -28 -5t-90 -42l-13 31q279 149 292 152q2 1 6 1q23 0 23 -33q0 -14 -4 -30l-158 -735l212 160l49 -64l-287 -216q-133 -620 -133 -630v-4q0 -9 7.5 -15.5t17.5 -6.5q18 0 44 17t45 35.5t42.5 43t25.5 26.5l19 -19 q-12 -22 -60 -69t-112 -89.5t-102 -42.5q-31 0 -53 24t-22 61q0 14 3 27l110 515l-137 -103z" />
<glyph unicode="&#x143;" horiz-adv-x="1716" d="M17 23q0 14 8 21t28.5 12.5t23.5 6.5q47 18 90 67.5t54 100.5l211 994q1 5 3.5 16.5t4.5 20.5t2 15q0 31 -32 53.5t-69.5 31t-72.5 8.5q-17 0 -24.5 0.5t-13 5t-5.5 13.5q0 13 8 17t31 4h251q41 0 61 -6t31 -17t33 -43l693 -1018q21 -32 26 -32t8 5.5t5.5 16.5t3.5 13 q10 43 23 113q14 71 64.5 304t67.5 313q4 19 11.5 53t11.5 52t7.5 42t3.5 42q0 65 -51 104q-24 18 -118 18q-12 0 -17.5 7t-5.5 12q0 11 5.5 16t23.5 5h441q23 0 23 -21q0 -6 -1 -10t-6.5 -6.5t-15.5 -2.5h-40q-54 0 -97 -33t-56 -73q-16 -48 -29 -117q0 -3 -213 -1004 q-2 -9 -9 -47t-12 -58l-1 -1v-2q-3 -11 -5 -16.5t-8.5 -11.5t-17.5 -6q-10 0 -21 7t-23 22t-20.5 27t-22 33t-18.5 29q-160 234 -293.5 430.5t-197.5 290t-112 163.5t-65.5 95.5t-27.5 41.5q-32 47 -47 47q-12 0 -21 -46q-25 -123 -78 -368t-79 -372q-12 -54 -12 -118 q0 -65 13.5 -117.5t49 -89t89.5 -36.5q34 0 43.5 -3t9.5 -14v-9q0 -8 -4.5 -11t-17.5 -3h-451q-13 0 -18.5 1t-9.5 6t-4 16zM1088 1600q0 2 4 6l213 295q36 49 75 49q30 0 51 -22t21 -52q0 -49 -55 -94l-269 -217q-4 -3 -7 -3q-4 0 -7 3l-22 29q-4 4 -4 6z" />
<glyph unicode="&#x144;" horiz-adv-x="996" d="M110 647q16 30 110 117t162 122q27 14 42 14q36 0 36 -67q0 -21 -6 -57q0 -2 -54 -265q0 -11 9 -11t31 26q6 7 47 53.5t62 69.5t64 68.5t73.5 71t68.5 55t71 43t60 13.5q31 0 53 -24t22 -61q0 -13 -3 -27l-178 -692v-4q0 -9 7.5 -15.5t17.5 -6.5q18 0 44 17t45 35.5 t42.5 43t25.5 26.5l19 -19q-12 -22 -60 -69t-112 -89.5t-102 -42.5q-31 0 -53 24t-22 61q0 13 3 27l178 692v4q0 9 -8.5 15.5t-19.5 6.5q-30 -1 -116.5 -85.5t-160.5 -170.5t-114 -139q-23 -30 -30 -63l-72 -333q-25 -14 -62.5 -27t-52.5 -13q-13 0 -20.5 8.5t-7.5 20.5 q0 5 16 85l134 634v4q0 28 -23 28q-3 0 -7.5 -1.5t-10.5 -5.5l-10 -10q-6 -4 -14.5 -12t-15.5 -14.5t-18.5 -18t-19.5 -20t-22 -23t-24 -24.5zM588 1102q0 2 4 6l213 295q36 49 75 49q30 0 51 -22t21 -52q0 -49 -55 -94l-269 -217q-4 -3 -7 -3q-4 0 -7 3l-22 29q-4 4 -4 6z " />
<glyph unicode="&#x145;" horiz-adv-x="1716" d="M17 23q0 14 8 21t28.5 12.5t23.5 6.5q47 18 90 67.5t54 100.5l211 994q1 5 3.5 16.5t4.5 20.5t2 15q0 31 -32 53.5t-69.5 31t-72.5 8.5q-17 0 -24.5 0.5t-13 5t-5.5 13.5q0 13 8 17t31 4h251q41 0 61 -6t31 -17t33 -43l693 -1018q21 -32 26 -32t8 5.5t5.5 16.5t3.5 13 q10 43 23 113q14 71 64.5 304t67.5 313q4 19 11.5 53t11.5 52t7.5 42t3.5 42q0 65 -51 104q-24 18 -118 18q-12 0 -17.5 7t-5.5 12q0 11 5.5 16t23.5 5h441q23 0 23 -21q0 -6 -1 -10t-6.5 -6.5t-15.5 -2.5h-40q-54 0 -97 -33t-56 -73q-16 -48 -29 -117q0 -3 -213 -1004 q-2 -9 -9 -47t-12 -58l-1 -1v-2q-3 -11 -5 -16.5t-8.5 -11.5t-17.5 -6q-10 0 -21 7t-23 22t-20.5 27t-22 33t-18.5 29q-160 234 -293.5 430.5t-197.5 290t-112 163.5t-65.5 95.5t-27.5 41.5q-32 47 -47 47q-12 0 -21 -46q-25 -123 -78 -368t-79 -372q-12 -54 -12 -118 q0 -65 13.5 -117.5t49 -89t89.5 -36.5q34 0 43.5 -3t9.5 -14v-9q0 -8 -4.5 -11t-17.5 -3h-451q-13 0 -18.5 1t-9.5 6t-4 16zM746 -230q0 46 36.5 79.5t81.5 33.5q75 0 117.5 -61t42.5 -138q0 -169 -173 -294q-42 -30 -62 -30q-15 0 -15 27q0 10 9 19.5t22.5 18.5t15.5 11 q107 97 107 170q0 12 -1 18.5t-10 14.5t-26 8q-63 0 -104 29.5t-41 93.5z" />
<glyph unicode="&#x146;" horiz-adv-x="996" d="M110 647q16 30 110 117t162 122q27 14 42 14q36 0 36 -67q0 -21 -6 -57q0 -2 -54 -265q0 -11 9 -11t31 26q6 7 47 53.5t62 69.5t64 68.5t73.5 71t68.5 55t71 43t60 13.5q31 0 53 -24t22 -61q0 -13 -3 -27l-178 -692v-4q0 -9 7.5 -15.5t17.5 -6.5q18 0 44 17t45 35.5 t42.5 43t25.5 26.5l19 -19q-12 -22 -60 -69t-112 -89.5t-102 -42.5q-31 0 -53 24t-22 61q0 13 3 27l178 692v4q0 9 -8.5 15.5t-19.5 6.5q-30 -1 -116.5 -85.5t-160.5 -170.5t-114 -139q-23 -30 -30 -63l-72 -333q-25 -14 -62.5 -27t-52.5 -13q-13 0 -20.5 8.5t-7.5 20.5 q0 5 16 85l134 634v4q0 28 -23 28q-3 0 -7.5 -1.5t-10.5 -5.5l-10 -10q-6 -4 -14.5 -12t-15.5 -14.5t-18.5 -18t-19.5 -20t-22 -23t-24 -24.5zM351 -230q0 46 36.5 79.5t81.5 33.5q75 0 117.5 -61t42.5 -138q0 -169 -173 -294q-42 -30 -62 -30q-15 0 -15 27q0 10 9 19.5 t22.5 18.5t15.5 11q107 97 107 170q0 12 -1 18.5t-10 14.5t-26 8q-63 0 -104 29.5t-41 93.5z" />
<glyph unicode="&#x147;" horiz-adv-x="1716" d="M17 23q0 14 8 21t28.5 12.5t23.5 6.5q47 18 90 67.5t54 100.5l211 994q1 5 3.5 16.5t4.5 20.5t2 15q0 31 -32 53.5t-69.5 31t-72.5 8.5q-17 0 -24.5 0.5t-13 5t-5.5 13.5q0 13 8 17t31 4h251q41 0 61 -6t31 -17t33 -43l693 -1018q21 -32 26 -32t8 5.5t5.5 16.5t3.5 13 q10 43 23 113q14 71 64.5 304t67.5 313q4 19 11.5 53t11.5 52t7.5 42t3.5 42q0 65 -51 104q-24 18 -118 18q-12 0 -17.5 7t-5.5 12q0 11 5.5 16t23.5 5h441q23 0 23 -21q0 -6 -1 -10t-6.5 -6.5t-15.5 -2.5h-40q-54 0 -97 -33t-56 -73q-16 -48 -29 -117q0 -3 -213 -1004 q-2 -9 -9 -47t-12 -58l-1 -1v-2q-3 -11 -5 -16.5t-8.5 -11.5t-17.5 -6q-10 0 -21 7t-23 22t-20.5 27t-22 33t-18.5 29q-160 234 -293.5 430.5t-197.5 290t-112 163.5t-65.5 95.5t-27.5 41.5q-32 47 -47 47q-12 0 -21 -46q-25 -123 -78 -368t-79 -372q-12 -54 -12 -118 q0 -65 13.5 -117.5t49 -89t89.5 -36.5q34 0 43.5 -3t9.5 -14v-9q0 -8 -4.5 -11t-17.5 -3h-451q-13 0 -18.5 1t-9.5 6t-4 16zM1075 1560v388h50l44 -247l242 245h50l-280 -386h-106z" />
<glyph unicode="&#x148;" horiz-adv-x="996" d="M110 647q16 30 110 117t162 122q27 14 42 14q36 0 36 -67q0 -21 -6 -57q0 -2 -54 -265q0 -11 9 -11t31 26q6 7 47 53.5t62 69.5t64 68.5t73.5 71t68.5 55t71 43t60 13.5q31 0 53 -24t22 -61q0 -13 -3 -27l-178 -692v-4q0 -9 7.5 -15.5t17.5 -6.5q18 0 44 17t45 35.5 t42.5 43t25.5 26.5l19 -19q-12 -22 -60 -69t-112 -89.5t-102 -42.5q-31 0 -53 24t-22 61q0 13 3 27l178 692v4q0 9 -8.5 15.5t-19.5 6.5q-30 -1 -116.5 -85.5t-160.5 -170.5t-114 -139q-23 -30 -30 -63l-72 -333q-25 -14 -62.5 -27t-52.5 -13q-13 0 -20.5 8.5t-7.5 20.5 q0 5 16 85l134 634v4q0 28 -23 28q-3 0 -7.5 -1.5t-10.5 -5.5l-10 -10q-6 -4 -14.5 -12t-15.5 -14.5t-18.5 -18t-19.5 -20t-22 -23t-24 -24.5zM585 1063v388h50l44 -247l242 245h50l-280 -386h-106z" />
<glyph unicode="&#x149;" horiz-adv-x="996" d="M35 902q0 16 22 29q41 25 69.5 45.5t59 51t46 68t15.5 81.5q0 34 -29.5 91.5t-29.5 90.5q0 9 7 29t27 42t46 22q46 0 80.5 -40.5t34.5 -86.5q0 -146 -86 -265t-225 -187q-6 -3 -10 -3q-12 0 -19.5 9.5t-7.5 22.5zM110 647q16 30 110 117t162 122q27 14 42 14q36 0 36 -67 q0 -21 -6 -57q0 -2 -54 -265q0 -11 9 -11t31 26q6 7 47 53.5t62 69.5t64 68.5t73.5 71t68.5 55t71 43t60 13.5q31 0 53 -24t22 -61q0 -13 -3 -27l-178 -692v-4q0 -9 7.5 -15.5t17.5 -6.5q18 0 44 17t45 35.5t42.5 43t25.5 26.5l19 -19q-12 -22 -60 -69t-112 -89.5 t-102 -42.5q-31 0 -53 24t-22 61q0 13 3 27l178 692v4q0 9 -8.5 15.5t-19.5 6.5q-30 -1 -116.5 -85.5t-160.5 -170.5t-114 -139q-23 -30 -30 -63l-72 -333q-25 -14 -62.5 -27t-52.5 -13q-13 0 -20.5 8.5t-7.5 20.5q0 5 16 85l134 634v4q0 28 -23 28q-3 0 -7.5 -1.5 t-10.5 -5.5l-10 -10q-6 -4 -14.5 -12t-15.5 -14.5t-18.5 -18t-19.5 -20t-22 -23t-24 -24.5z" />
<glyph unicode="&#x14a;" horiz-adv-x="1716" d="M17 23q0 14 8 21t28.5 12.5t23.5 6.5q47 18 90 67.5t54 100.5l211 994q1 5 3.5 16.5t4.5 20.5t2 15q0 31 -32 53.5t-69.5 31t-72.5 8.5q-17 0 -24.5 0.5t-13 5t-5.5 13.5q0 13 8 17t31 4h251q41 0 61 -6t31 -17t33 -43l693 -1018q21 -32 26 -32t8 5.5t5.5 16.5t3.5 13 q10 43 23 113q14 71 64.5 304t67.5 313q4 19 11.5 53t11.5 52t7.5 42t3.5 42q0 65 -51 104q-24 18 -118 18q-12 0 -17.5 7t-5.5 12q0 11 5.5 16t23.5 5h441q23 0 23 -21q0 -6 -1 -10t-6.5 -6.5t-15.5 -2.5h-40q-54 0 -97 -33t-56 -73q-16 -48 -29 -117q-1 -7 -43.5 -204 t-100.5 -471.5t-90 -433.5l-1 -1v-2q-1 -3 -2.5 -8.5t-2.5 -8.5q-4 -13 -5 -22q-19 -94 -34.5 -158t-37.5 -132t-46.5 -111.5t-59 -86.5t-76.5 -68t-98 -45.5t-125.5 -28.5t-157.5 -8q-147 0 -147 64q0 46 32 69t75 23q39 0 122.5 -24.5t115.5 -24.5q57 0 96 7.5t74.5 32 t59.5 60.5t49 104t46 150t48 209q-10 11 -20.5 26.5t-23 35.5t-18.5 29q-160 234 -293.5 430.5t-197.5 290t-112 163.5t-65.5 95.5t-27.5 41.5q-32 47 -47 47q-12 0 -21 -46q-25 -123 -78 -368t-79 -372q-12 -54 -12 -118q0 -65 13.5 -117.5t49 -89t89.5 -36.5q34 0 43.5 -3 t9.5 -14v-9q0 -8 -4.5 -11t-17.5 -3h-451q-13 0 -18.5 1t-9.5 6t-4 16z" />
<glyph unicode="&#x14b;" horiz-adv-x="976" d="M110 647q16 30 110 117t162 122q27 14 42 14q36 0 36 -71q0 -26 -7 -62l-53 -256q0 -11 9 -11t31 26q6 7 47 53.5t62 69.5t64 68.5t73.5 71t68.5 55t71 43t60 13.5q31 0 53 -24t22 -61q0 -13 -3 -27l-181 -849q-15 -72 -40.5 -145.5t-68 -153t-94.5 -140t-124 -100 t-153 -39.5q-57 0 -94.5 30.5t-37.5 63.5q0 24 13 42t39 18q35 0 91.5 -43t92.5 -43q38 0 78.5 47t64.5 110q13 33 23.5 66t21 76.5t15 64.5t16.5 78t14 68l175 838l4 3q0 9 -8.5 15.5t-19.5 6.5q-30 -1 -116.5 -85.5t-160.5 -170.5t-114 -139q-23 -30 -30 -63l-72 -333 q-25 -14 -62.5 -27t-52.5 -13q-13 0 -20.5 8.5t-7.5 20.5q0 5 16 85l134 634v4q0 28 -23 28q-3 0 -7.5 -1.5t-10.5 -5.5l-10 -10q-6 -4 -14.5 -12t-15.5 -14.5t-18.5 -18t-19.5 -20t-22 -23t-24 -24.5z" />
<glyph unicode="&#x14c;" horiz-adv-x="1632" d="M125 651q0 159 63.5 306.5t170 256t252.5 173.5t303 65q180 0 322.5 -47.5t232 -132t136.5 -195.5t47 -241q0 -137 -41.5 -264t-118 -230t-179 -180.5t-230.5 -119.5t-267 -42q-191 0 -350 87.5t-250 237t-91 326.5zM324 625q0 -166 58 -297.5t170 -209t260 -77.5 q122 0 229 52t183 139t131 198.5t82 232.5t27 239q0 109 -31 201.5t-92 164t-159.5 111.5t-224.5 40q-121 0 -225.5 -45.5t-178.5 -123t-126.5 -179.5t-77.5 -215.5t-25 -230.5zM715 1750l27 99h627l-27 -99h-627z" />
<glyph unicode="&#x14d;" horiz-adv-x="953" d="M155 280q0 128 53.5 245.5t137.5 198t188.5 128.5t206.5 48q59 0 114.5 -106t55.5 -243q0 -116 -54 -225t-139 -185.5t-190.5 -122t-206.5 -45.5q-35 0 -74.5 49.5t-65.5 122.5t-26 135zM305 288q0 -34 8.5 -73t25 -78t47.5 -64.5t71 -25.5q70 0 129.5 49t96.5 125.5 t57.5 165t20.5 173.5q0 28 -7 68t-21.5 86.5t-44.5 79t-69 32.5q-93 0 -167 -88t-110.5 -209t-36.5 -241zM345 1208l27 99h627l-27 -99h-627z" />
<glyph unicode="&#x14e;" horiz-adv-x="1632" d="M125 651q0 159 63.5 306.5t170 256t252.5 173.5t303 65q180 0 322.5 -47.5t232 -132t136.5 -195.5t47 -241q0 -137 -41.5 -264t-118 -230t-179 -180.5t-230.5 -119.5t-267 -42q-191 0 -350 87.5t-250 237t-91 326.5zM324 625q0 -166 58 -297.5t170 -209t260 -77.5 q122 0 229 52t183 139t131 198.5t82 232.5t27 239q0 109 -31 201.5t-92 164t-159.5 111.5t-224.5 40q-121 0 -225.5 -45.5t-178.5 -123t-126.5 -179.5t-77.5 -215.5t-25 -230.5zM850 1950h31q0 -86 67 -139.5t161 -53.5q76 0 162.5 66.5t86.5 126.5h33q0 -112 -94.5 -212 t-202.5 -100q-111 0 -177.5 92t-66.5 220z" />
<glyph unicode="&#x14f;" horiz-adv-x="953" d="M155 280q0 128 53.5 245.5t137.5 198t188.5 128.5t206.5 48q59 0 114.5 -106t55.5 -243q0 -116 -54 -225t-139 -185.5t-190.5 -122t-206.5 -45.5q-35 0 -74.5 49.5t-65.5 122.5t-26 135zM305 288q0 -34 8.5 -73t25 -78t47.5 -64.5t71 -25.5q70 0 129.5 49t96.5 125.5 t57.5 165t20.5 173.5q0 28 -7 68t-21.5 86.5t-44.5 79t-69 32.5q-93 0 -167 -88t-110.5 -209t-36.5 -241zM460 1408h31q0 -86 67 -139.5t161 -53.5q76 0 162.5 66.5t86.5 126.5h33q0 -112 -94.5 -212t-202.5 -100q-111 0 -177.5 92t-66.5 220z" />
<glyph unicode="&#x150;" horiz-adv-x="1632" d="M125 651q0 159 63.5 306.5t170 256t252.5 173.5t303 65q180 0 322.5 -47.5t232 -132t136.5 -195.5t47 -241q0 -137 -41.5 -264t-118 -230t-179 -180.5t-230.5 -119.5t-267 -42q-191 0 -350 87.5t-250 237t-91 326.5zM324 625q0 -166 58 -297.5t170 -209t260 -77.5 q122 0 229 52t183 139t131 198.5t82 232.5t27 239q0 109 -31 201.5t-92 164t-159.5 111.5t-224.5 40q-121 0 -225.5 -45.5t-178.5 -123t-126.5 -179.5t-77.5 -215.5t-25 -230.5zM885 1600q0 2 4 6l213 295q36 49 75 49q30 0 51 -22t21 -52q0 -49 -55 -94l-269 -217 q-5 -3 -7 -3q-4 0 -7 3l-22 29q-4 4 -4 6zM1155 1600q0 2 4 6l213 295q36 49 75 49q30 0 51 -22t21 -52q0 -49 -55 -94l-269 -217q-5 -3 -7 -3q-4 0 -7 3l-22 29q-4 4 -4 6z" />
<glyph unicode="&#x151;" horiz-adv-x="953" d="M155 280q0 128 53.5 245.5t137.5 198t188.5 128.5t206.5 48q59 0 114.5 -106t55.5 -243q0 -116 -54 -225t-139 -185.5t-190.5 -122t-206.5 -45.5q-35 0 -74.5 49.5t-65.5 122.5t-26 135zM305 288q0 -34 8.5 -73t25 -78t47.5 -64.5t71 -25.5q70 0 129.5 49t96.5 125.5 t57.5 165t20.5 173.5q0 28 -7 68t-21.5 86.5t-44.5 79t-69 32.5q-93 0 -167 -88t-110.5 -209t-36.5 -241zM475 1102q0 2 4 6l213 295q36 49 75 49q30 0 51 -22t21 -52q0 -49 -55 -94l-269 -217q-5 -3 -7 -3q-4 0 -7 3l-22 29q-4 4 -4 6zM745 1102q0 2 4 6l213 295 q36 49 75 49q30 0 51 -22t21 -52q0 -49 -55 -94l-269 -217q-5 -3 -7 -3q-4 0 -7 3l-22 29q-4 4 -4 6z" />
<glyph unicode="&#x152;" horiz-adv-x="2108" d="M40 648q0 159 63.5 306.5t170 256t252.5 173.5t303 65q160 0 294 -39h915q26 0 38 -5t12 -21v-4q0 -2 -0.5 -4.5t-1 -7t-1.5 -10.5t-2.5 -17t-3.5 -24.5t-4.5 -34.5t-6.5 -46l-8 -59q-5 -35 -10 -74q-2 -14 -18 -14q-26 0 -30 23q-2 12 -3 37t-2 31q-10 78 -57.5 126.5 t-125.5 48.5h-367q-54 0 -66 -9t-22 -56l-105 -500q-2 -10 -2 -12q0 -25 42 -25h367q66 0 121 43.5t85 99.5q5 9 7.5 11t9.5 2h17q9 0 9 -10q0 -3 -0.5 -4t-0.5 -2l-80 -373q-2 -8 -3.5 -11.5t-5.5 -6.5t-11 -3q-11 0 -15 4t-5 17q-1 5 -1.5 17t-2 24.5t-4.5 24.5 q-13 54 -49.5 73t-101.5 19h-361q-10 0 -24.5 -7.5t-17.5 -19.5q-4 -12 -21 -88q-3 -11 -65 -309q-9 -40 -9 -80q0 -31 11.5 -53t28 -33.5t48 -17.5t57 -7.5t68.5 -1.5q78 0 136 3.5t103 8t82.5 17.5t63 24t56 36.5t51 45t58.5 58.5q6 7 26 30t33 34.5t22 11.5q29 0 29 -19 q0 -9 -13 -41q-22 -50 -39.5 -98t-25.5 -73.5t-16.5 -48t-16 -31.5t-19 -14t-30.5 -5h-1043q-36 -3 -71 -3q-191 0 -350 87.5t-250 237t-91 326.5zM239 622q0 -166 58 -297.5t170 -209t260 -77.5q52 0 83 4t61 18.5t47.5 44t28.5 78.5l225 1053q4 28 4 44q-8 71 -130 113 q-80 23 -174 23q-121 0 -225.5 -45.5t-178.5 -123t-126.5 -179.5t-77.5 -215.5t-25 -230.5z" />
<glyph unicode="&#x153;" horiz-adv-x="1343" d="M95 280q0 128 53.5 245.5t137.5 198t188.5 128.5t206.5 48q41 0 84 -57t66 -144q158 201 366 201q68 0 117 -39t49 -105q0 -58 -27.5 -105.5t-67 -77.5t-100 -57t-109.5 -41.5t-113.5 -33t-94.5 -29.5q-32 -74 -32 -153q0 -88 43.5 -146.5t133.5 -58.5q88 0 232 84 l14 -25q-20 -15 -49.5 -33.5t-79.5 -45t-111 -44t-116 -17.5q-163 0 -209 187q-88 -87 -198.5 -137t-217.5 -50q-35 0 -74.5 49.5t-65.5 122.5t-26 135zM245 288q0 -34 8.5 -73t25 -78t47.5 -64.5t71 -25.5q70 0 129.5 49t96.5 125.5t57.5 165t20.5 173.5q0 28 -7 68 t-21.5 86.5t-44.5 79t-69 32.5q-93 0 -167 -88t-110.5 -209t-36.5 -241zM865 472q0 -10 5.5 -13.5t21.5 -3.5q53 15 94 30t91.5 42t83.5 57.5t56 76.5t23 99q0 44 -20 72.5t-60 28.5q-50 0 -95.5 -28.5t-76 -70t-57 -97.5t-41 -101.5t-25.5 -91.5z" />
<glyph unicode="&#x154;" horiz-adv-x="1507" d="M20 8l5 24q3 8 10 8q80 0 123 27.5t61 115.5q5 24 10 47t18.5 87.5t33.5 157t63.5 298t99.5 468.5q5 25 5 40q0 46 -38.5 62t-128.5 16h-52q-6 0 -6 9l6 26q4 15 13 15h497q263 0 389.5 -82.5t126.5 -271.5q0 -60 -23 -109t-76 -94.5t-111 -81.5t-157 -88 q-28 -14 -28 -28q0 -13 12 -33q26 -44 59 -96t97 -140t123.5 -155t130 -117.5t125.5 -50.5q32 0 51 -1q27 -1 27 -25v-16q0 -20 -31 -20h-75q-81 0 -154 23.5t-128.5 59.5t-112 96t-97 116.5t-91.5 136.5q-12 19 -47 71.5t-60 92.5q-2 3 -7 12.5t-8 13t-9 9.5t-13.5 8 t-17.5 2q-7 0 -60 -3t-71 -3q-14 0 -17 -14l-98 -461q-4 -16 -4 -32q0 -21 8 -36.5t24 -25t31.5 -15t40.5 -8t40.5 -3t41.5 -0.5q6 0 6 -8l-5 -24q-2 -8 -9 -8h-536q-7 0 -7 8zM508 702q0 -16 41 -16q126 0 244.5 49.5t196 142t77.5 204.5q0 131 -77.5 205.5t-211.5 74.5 q-6 0 -23 0.5t-27 0.5q-84 0 -94 -51l-122 -575q-4 -16 -4 -35zM797 1600q0 2 4 6l213 295q36 49 75 49q30 0 51 -22t21 -52q0 -49 -55 -94l-269 -217q-5 -3 -7 -3q-4 0 -7 3l-22 29q-4 4 -4 6z" />
<glyph unicode="&#x155;" horiz-adv-x="619" d="M100 665q0 14 29 44t77 73t62 57q4 3 23 17.5t30 22t28 15t30 7.5q33 -5 33 -70l-12 -135q0 -7 4 -14t10 -7q5 0 16 13.5t32 41.5t38 48q25 30 38.5 44.5t38 36.5t49.5 32t52 10q20 0 30.5 -22t10.5 -50q0 -48 -16.5 -68.5t-49.5 -21.5q-9 0 -25 4t-24 4q-43 0 -88 -32.5 t-71 -66.5t-45 -67q-24 -43 -52 -172l-86 -398q-94 -40 -121 -40q-26 0 -26 33q0 17 5 42q147 684 147 688q0 17 -15 17q-17 0 -37 -20l-84 -82q-5 -5 -9 -5q-22 0 -22 21zM350 1102q0 2 4 6l213 295q36 49 75 49q30 0 51 -22t21 -52q0 -49 -55 -94l-269 -217q-4 -3 -7 -3 q-4 0 -7 3l-22 29q-4 4 -4 6z" />
<glyph unicode="&#x156;" horiz-adv-x="1507" d="M20 8l5 24q3 8 10 8q80 0 123 27.5t61 115.5q5 24 10 47t18.5 87.5t33.5 157t63.5 298t99.5 468.5q5 25 5 40q0 46 -38.5 62t-128.5 16h-52q-6 0 -6 9l6 26q4 15 13 15h497q263 0 389.5 -82.5t126.5 -271.5q0 -60 -23 -109t-76 -94.5t-111 -81.5t-157 -88 q-28 -14 -28 -28q0 -13 12 -33q26 -44 59 -96t97 -140t123.5 -155t130 -117.5t125.5 -50.5q32 0 51 -1q27 -1 27 -25v-16q0 -20 -31 -20h-75q-81 0 -154 23.5t-128.5 59.5t-112 96t-97 116.5t-91.5 136.5q-12 19 -47 71.5t-60 92.5q-2 3 -7 12.5t-8 13t-9 9.5t-13.5 8 t-17.5 2q-7 0 -60 -3t-71 -3q-14 0 -17 -14l-98 -461q-4 -16 -4 -32q0 -21 8 -36.5t24 -25t31.5 -15t40.5 -8t40.5 -3t41.5 -0.5q6 0 6 -8l-5 -24q-2 -8 -9 -8h-536q-7 0 -7 8zM508 702q0 -16 41 -16q126 0 244.5 49.5t196 142t77.5 204.5q0 131 -77.5 205.5t-211.5 74.5 q-6 0 -23 0.5t-27 0.5q-84 0 -94 -51l-122 -575q-4 -16 -4 -35zM640 -230q0 46 36.5 79.5t81.5 33.5q75 0 117.5 -61t42.5 -138q0 -169 -173 -294q-42 -30 -62 -30q-15 0 -15 27q0 10 9 19.5t22.5 18.5t15.5 11q107 97 107 170q0 12 -1 18.5t-10 14.5t-26 8q-63 0 -104 29.5 t-41 93.5z" />
<glyph unicode="&#x157;" horiz-adv-x="619" d="M100 665q0 14 29 44t77 73t62 57q4 3 23 17.5t30 22t28 15t30 7.5q33 -5 33 -70l-12 -135q0 -7 4 -14t10 -7q5 0 16 13.5t32 41.5t38 48q25 30 38.5 44.5t38 36.5t49.5 32t52 10q20 0 30.5 -22t10.5 -50q0 -48 -16.5 -68.5t-49.5 -21.5q-9 0 -25 4t-24 4q-43 0 -88 -32.5 t-71 -66.5t-45 -67q-24 -43 -52 -172l-86 -398q-94 -40 -121 -40q-26 0 -26 33q0 17 5 42q147 684 147 688q0 17 -15 17q-17 0 -37 -20l-84 -82q-5 -5 -9 -5q-22 0 -22 21zM101 -230q0 46 36.5 79.5t81.5 33.5q75 0 117.5 -61t42.5 -138q0 -169 -173 -294q-42 -30 -62 -30 q-15 0 -15 27q0 10 9 19.5t22.5 18.5t15.5 11q107 97 107 170q0 12 -1 18.5t-10 14.5t-26 8q-63 0 -104 29.5t-41 93.5z" />
<glyph unicode="&#x158;" horiz-adv-x="1507" d="M20 8l5 24q3 8 10 8q80 0 123 27.5t61 115.5q5 24 10 47t18.5 87.5t33.5 157t63.5 298t99.5 468.5q5 25 5 40q0 46 -38.5 62t-128.5 16h-52q-6 0 -6 9l6 26q4 15 13 15h497q263 0 389.5 -82.5t126.5 -271.5q0 -60 -23 -109t-76 -94.5t-111 -81.5t-157 -88 q-28 -14 -28 -28q0 -13 12 -33q26 -44 59 -96t97 -140t123.5 -155t130 -117.5t125.5 -50.5q32 0 51 -1q27 -1 27 -25v-16q0 -20 -31 -20h-75q-81 0 -154 23.5t-128.5 59.5t-112 96t-97 116.5t-91.5 136.5q-12 19 -47 71.5t-60 92.5q-2 3 -7 12.5t-8 13t-9 9.5t-13.5 8 t-17.5 2q-7 0 -60 -3t-71 -3q-14 0 -17 -14l-98 -461q-4 -16 -4 -32q0 -21 8 -36.5t24 -25t31.5 -15t40.5 -8t40.5 -3t41.5 -0.5q6 0 6 -8l-5 -24q-2 -8 -9 -8h-536q-7 0 -7 8zM508 702q0 -16 41 -16q126 0 244.5 49.5t196 142t77.5 204.5q0 131 -77.5 205.5t-211.5 74.5 q-6 0 -23 0.5t-27 0.5q-84 0 -94 -51l-122 -575q-4 -16 -4 -35zM764 1560v388h50l44 -247l242 245h50l-280 -386h-106z" />
<glyph unicode="&#x159;" horiz-adv-x="619" d="M100 665q0 14 29 44t77 73t62 57q4 3 23 17.5t30 22t28 15t30 7.5q33 -5 33 -70l-12 -135q0 -7 4 -14t10 -7q5 0 16 13.5t32 41.5t38 48q25 30 38.5 44.5t38 36.5t49.5 32t52 10q20 0 30.5 -22t10.5 -50q0 -48 -16.5 -68.5t-49.5 -21.5q-9 0 -25 4t-24 4q-43 0 -88 -32.5 t-71 -66.5t-45 -67q-24 -43 -52 -172l-86 -398q-94 -40 -121 -40q-26 0 -26 33q0 17 5 42q147 684 147 688q0 17 -15 17q-17 0 -37 -20l-84 -82q-5 -5 -9 -5q-22 0 -22 21zM385 1063v388h50l44 -247l242 245h50l-280 -386h-106z" />
<glyph unicode="&#x15a;" horiz-adv-x="1130" d="M50 162q6 46 24 127t23 108q0 2 3 16.5t5 21.5t6.5 18.5t12 16.5t17.5 5q7 0 11 -1t8.5 -9.5t4.5 -24.5q0 -194 88 -289.5t270 -95.5q126 0 222 74.5t96 194.5q0 72 -43.5 135.5t-115.5 131.5q-27 25 -88.5 75.5t-101 87.5t-84.5 88.5t-68 107.5t-23 115q0 112 60 199.5 t155 132.5t205 45q70 0 119 -14.5t82 -29t64 -14.5q23 0 50 15.5t37 15.5q20 -3 20 -25q-7 -72 -26 -214q-1 -8 -3 -28t-3.5 -33t-5.5 -28t-11 -22.5t-17 -7.5q-28 0 -30 31q-9 137 -87.5 219.5t-223.5 82.5q-97 0 -174.5 -70.5t-77.5 -162.5q0 -32 7 -61t22.5 -55.5 t29.5 -47t40.5 -46t42.5 -40t48 -40.5t45 -38q15 -13 57.5 -48.5t62 -53.5t54.5 -52.5t53 -61t38.5 -62.5t29 -74t8.5 -80q0 -99 -42 -176.5t-114 -124.5t-160 -71t-187 -24q-103 0 -226.5 41.5t-203.5 107.5q-5 5 -5 12zM688 1600q0 2 4 6l213 295q36 49 75 49q30 0 51 -22 t21 -52q0 -49 -55 -94l-269 -217q-4 -3 -7 -3q-4 0 -7 3l-22 29q-4 4 -4 6z" />
<glyph unicode="&#x15b;" horiz-adv-x="696" d="M30 69q0 31 21.5 50.5t53.5 19.5q25 0 121.5 -50t131.5 -50q54 0 86.5 35.5t32.5 88.5q0 51 -26.5 100t-64 89t-75 80.5t-64 90t-26.5 101.5q0 72 57.5 136t137.5 99.5t152 35.5q42 0 75 -37.5t33 -91.5q0 -31 -17.5 -54.5t-48.5 -23.5q-23 0 -40.5 22t-27.5 48.5 t-28 48.5t-41 22q-53 0 -101.5 -47.5t-48.5 -99.5q0 -40 25.5 -80.5t62 -77t73 -76.5t62 -94.5t25.5 -114.5q0 -81 -54 -146t-137 -91q-4 -1 -20 -7t-26.5 -8.5t-31 -6.5t-49 -5.5t-65.5 -1.5q-60 0 -106.5 26t-51.5 70zM428 1102q0 2 4 6l213 295q36 49 75 49q30 0 51 -22 t21 -52q0 -49 -55 -94l-269 -217q-4 -3 -7 -3q-4 0 -7 3l-22 29q-4 4 -4 6z" />
<glyph unicode="&#x15c;" horiz-adv-x="1130" d="M50 162q6 46 24 127t23 108q0 2 3 16.5t5 21.5t6.5 18.5t12 16.5t17.5 5q7 0 11 -1t8.5 -9.5t4.5 -24.5q0 -194 88 -289.5t270 -95.5q126 0 222 74.5t96 194.5q0 72 -43.5 135.5t-115.5 131.5q-27 25 -88.5 75.5t-101 87.5t-84.5 88.5t-68 107.5t-23 115q0 112 60 199.5 t155 132.5t205 45q70 0 119 -14.5t82 -29t64 -14.5q23 0 50 15.5t37 15.5q20 -3 20 -25q-7 -72 -26 -214q-1 -8 -3 -28t-3.5 -33t-5.5 -28t-11 -22.5t-17 -7.5q-28 0 -30 31q-9 137 -87.5 219.5t-223.5 82.5q-97 0 -174.5 -70.5t-77.5 -162.5q0 -32 7 -61t22.5 -55.5 t29.5 -47t40.5 -46t42.5 -40t48 -40.5t45 -38q15 -13 57.5 -48.5t62 -53.5t54.5 -52.5t53 -61t38.5 -62.5t29 -74t8.5 -80q0 -99 -42 -176.5t-114 -124.5t-160 -71t-187 -24q-103 0 -226.5 41.5t-203.5 107.5q-5 5 -5 12zM535 1562l280 386h106v-388h-50l-44 247l-242 -245 h-50z" />
<glyph unicode="&#x15d;" horiz-adv-x="696" d="M30 69q0 31 21.5 50.5t53.5 19.5q25 0 121.5 -50t131.5 -50q54 0 86.5 35.5t32.5 88.5q0 51 -26.5 100t-64 89t-75 80.5t-64 90t-26.5 101.5q0 72 57.5 136t137.5 99.5t152 35.5q42 0 75 -37.5t33 -91.5q0 -31 -17.5 -54.5t-48.5 -23.5q-23 0 -40.5 22t-27.5 48.5 t-28 48.5t-41 22q-53 0 -101.5 -47.5t-48.5 -99.5q0 -40 25.5 -80.5t62 -77t73 -76.5t62 -94.5t25.5 -114.5q0 -81 -54 -146t-137 -91q-4 -1 -20 -7t-26.5 -8.5t-31 -6.5t-49 -5.5t-65.5 -1.5q-60 0 -106.5 26t-51.5 70zM335 1065l280 386h106v-388h-50l-44 247l-242 -245 h-50z" />
<glyph unicode="&#x15e;" horiz-adv-x="1130" d="M50 162q6 46 24 127t23 108q0 2 3 16.5t5 21.5t6.5 18.5t12 16.5t17.5 5q7 0 11 -1t8.5 -9.5t4.5 -24.5q0 -194 88 -289.5t270 -95.5q126 0 222 74.5t96 194.5q0 72 -43.5 135.5t-115.5 131.5q-27 25 -88.5 75.5t-101 87.5t-84.5 88.5t-68 107.5t-23 115q0 112 60 199.5 t155 132.5t205 45q70 0 119 -14.5t82 -29t64 -14.5q23 0 50 15.5t37 15.5q20 -3 20 -25q-7 -72 -26 -214q-1 -8 -3 -28t-3.5 -33t-5.5 -28t-11 -22.5t-17 -7.5q-28 0 -30 31q-9 137 -87.5 219.5t-223.5 82.5q-97 0 -174.5 -70.5t-77.5 -162.5q0 -32 7 -61t22.5 -55.5 t29.5 -47t40.5 -46t42.5 -40t48 -40.5t45 -38q15 -13 57.5 -48.5t62 -53.5t54.5 -52.5t53 -61t38.5 -62.5t29 -74t8.5 -80q0 -99 -42 -176.5t-114 -124.5t-160 -71t-187 -24q-103 0 -226.5 41.5t-203.5 107.5q-5 5 -5 12zM270 -492q0 -40 56 -40q61 7 113 21t100.5 39.5 t77 68.5t28.5 98q0 45 -37.5 87.5t-113.5 63.5l33 155h-63l-47 -216q42 -4 81.5 -33.5t39.5 -75.5q0 -43 -32 -74t-76 -41q-65 -14 -125 -25q-13 -3 -24 -13t-11 -15z" />
<glyph unicode="&#x15f;" horiz-adv-x="696" d="M30 69q0 31 21.5 50.5t53.5 19.5q25 0 121.5 -50t131.5 -50q54 0 86.5 35.5t32.5 88.5q0 51 -26.5 100t-64 89t-75 80.5t-64 90t-26.5 101.5q0 72 57.5 136t137.5 99.5t152 35.5q42 0 75 -37.5t33 -91.5q0 -31 -17.5 -54.5t-48.5 -23.5q-23 0 -40.5 22t-27.5 48.5 t-28 48.5t-41 22q-53 0 -101.5 -47.5t-48.5 -99.5q0 -40 25.5 -80.5t62 -77t73 -76.5t62 -94.5t25.5 -114.5q0 -81 -54 -146t-137 -91q-4 -1 -20 -7t-26.5 -8.5t-31 -6.5t-49 -5.5t-65.5 -1.5q-60 0 -106.5 26t-51.5 70zM100 -492q0 -40 56 -40q61 7 113 21t100.5 39.5 t77 68.5t28.5 98q0 45 -37.5 87.5t-113.5 63.5l31 141h-63l-45 -202q42 -4 81.5 -33.5t39.5 -75.5q0 -43 -32 -74t-76 -41q-65 -14 -125 -25q-13 -3 -24 -13t-11 -15z" />
<glyph unicode="&#x160;" horiz-adv-x="1130" d="M50 162q6 46 24 127t23 108q0 2 3 16.5t5 21.5t6.5 18.5t12 16.5t17.5 5q7 0 11 -1t8.5 -9.5t4.5 -24.5q0 -194 88 -289.5t270 -95.5q126 0 222 74.5t96 194.5q0 72 -43.5 135.5t-115.5 131.5q-27 25 -88.5 75.5t-101 87.5t-84.5 88.5t-68 107.5t-23 115q0 112 60 199.5 t155 132.5t205 45q70 0 119 -14.5t82 -29t64 -14.5q23 0 50 15.5t37 15.5q20 -3 20 -25q-7 -72 -26 -214q-1 -8 -3 -28t-3.5 -33t-5.5 -28t-11 -22.5t-17 -7.5q-28 0 -30 31q-9 137 -87.5 219.5t-223.5 82.5q-97 0 -174.5 -70.5t-77.5 -162.5q0 -32 7 -61t22.5 -55.5 t29.5 -47t40.5 -46t42.5 -40t48 -40.5t45 -38q15 -13 57.5 -48.5t62 -53.5t54.5 -52.5t53 -61t38.5 -62.5t29 -74t8.5 -80q0 -99 -42 -176.5t-114 -124.5t-160 -71t-187 -24q-103 0 -226.5 41.5t-203.5 107.5q-5 5 -5 12zM735 1560v388h50l44 -247l242 245h50l-280 -386 h-106z" />
<glyph unicode="&#x161;" horiz-adv-x="696" d="M30 69q0 31 21.5 50.5t53.5 19.5q25 0 121.5 -50t131.5 -50q54 0 86.5 35.5t32.5 88.5q0 51 -26.5 100t-64 89t-75 80.5t-64 90t-26.5 101.5q0 72 57.5 136t137.5 99.5t152 35.5q42 0 75 -37.5t33 -91.5q0 -31 -17.5 -54.5t-48.5 -23.5q-23 0 -40.5 22t-27.5 48.5 t-28 48.5t-41 22q-53 0 -101.5 -47.5t-48.5 -99.5q0 -40 25.5 -80.5t62 -77t73 -76.5t62 -94.5t25.5 -114.5q0 -81 -54 -146t-137 -91q-4 -1 -20 -7t-26.5 -8.5t-31 -6.5t-49 -5.5t-65.5 -1.5q-60 0 -106.5 26t-51.5 70zM495 1063v388h50l44 -247l242 245h50l-280 -386h-106 z" />
<glyph unicode="&#x162;" horiz-adv-x="1502" d="M251 1076l71 343q6 30 26 30q7 0 15 -9.5t25.5 -19.5t46.5 -10h1051q24 0 40 6t21 13.5t11 13.5t15 6q26 0 26 -23l-66 -320l-6 -27q-1 -10 -11 -10h-13q-5 0 -7 3q-6 6 -11 36q-3 14 -8 43.5t-8.5 48t-11.5 43t-17.5 38.5t-25.5 24t-36 10h-315q-11 0 -16.5 -1t-12 -7.5 t-9.5 -19.5q-199 -931 -237 -1112q-1 -6 -1 -7q-1 -3 -1 -10q0 -40 67 -75.5t125 -41.5q15 -1 57 -1q8 0 8 -8v-24q0 -8 -8 -8h-687q-8 0 -8 8v24q0 8 8 8q42 0 57 1q76 8 127 47.5t62 91.5l236 1107q1 3 1 8q0 20 -31 20h-294q-74 0 -131 -66.5t-76 -140.5q-1 -5 -3 -14 t-3 -15t-2 -7q-2 -3 -10 -3h-23q-7 0 -7 7zM450 -492q0 -40 56 -40q61 7 113 21t100.5 39.5t77 68.5t28.5 98q0 45 -37.5 87.5t-113.5 63.5l34 154h-63l-48 -215q42 -4 81.5 -33.5t39.5 -75.5q0 -43 -32 -74t-76 -41q-65 -14 -125 -25q-13 -3 -24 -13t-11 -15z" />
<glyph unicode="&#x163;" horiz-adv-x="580" d="M0 -492q0 -40 56 -40q61 7 113 21t100.5 39.5t77 68.5t28.5 98q0 45 -37.5 87.5t-113.5 63.5l31 141h-63l-45 -202q42 -4 81.5 -33.5t39.5 -75.5q0 -43 -32 -74t-76 -41q-65 -14 -125 -25q-13 -3 -24 -13t-11 -15zM138 54q0 17 4 34l154 727q2 12 2 16q0 15 -15 15h-45 q-26 0 -26 18q0 13 7.5 19.5t27 11t22.5 5.5q38 14 89 64.5t103 114t62 73.5q17 -4 35 -16q-7 -17 -28 -63.5t-36 -84.5t-18 -62v-4q0 -22 24 -22h130l-11 -54h-145q-27 0 -34 -35l-139 -650q-12 -56 -12 -67t7.5 -17t16.5 -6q36 0 83 47l111 111l14 -15q-7 -22 -56.5 -78.5 t-120 -109.5t-117.5 -53q-39 0 -64 19.5t-25 61.5z" />
<glyph unicode="&#x164;" horiz-adv-x="1424" d="M201 1076l71 343q6 30 26 30q7 0 15 -9.5t25.5 -19.5t46.5 -10h1051q24 0 40 6t21 13.5t11 13.5t15 6q26 0 26 -23l-66 -320l-6 -27q-1 -10 -11 -10h-13q-5 0 -7 3q-6 6 -11 36q-3 14 -8 43.5t-8.5 48t-11.5 43t-17.5 38.5t-25.5 24t-36 10h-315q-11 0 -16.5 -1t-12 -7.5 t-9.5 -19.5q-199 -931 -237 -1112q-1 -6 -1 -7q-1 -3 -1 -10q0 -40 67 -75.5t125 -41.5q15 -1 57 -1q8 0 8 -8v-24q0 -8 -8 -8h-687q-8 0 -8 8v24q0 8 8 8q42 0 57 1q76 8 127 47.5t62 91.5l236 1107q1 3 1 8q0 20 -31 20h-294q-74 0 -131 -66.5t-76 -140.5q-1 -5 -3 -14 t-3 -15t-2 -7q-2 -3 -10 -3h-23q-7 0 -7 7zM875 1560v388h50l44 -247l242 245h50l-280 -386h-106z" />
<glyph unicode="&#x165;" horiz-adv-x="873" d="M138 54q0 17 4 34l154 727q2 12 2 16q0 15 -15 15h-45q-26 0 -26 18q0 13 7.5 19.5t27 11t22.5 5.5q38 14 89 64.5t103 114t62 73.5q17 -4 35 -16q-7 -17 -28 -63.5t-36 -84.5t-18 -62v-4q0 -22 24 -22h130l-11 -54h-145q-27 0 -34 -35l-139 -650q-12 -56 -12 -67 t7.5 -17t16.5 -6q36 0 83 47l111 111l14 -15q-7 -22 -56.5 -78.5t-120 -109.5t-117.5 -53q-39 0 -64 19.5t-25 61.5zM705 992q0 16 22 29q41 25 69.5 45.5t59 51t46 68t15.5 81.5q0 34 -29.5 91.5t-29.5 90.5q0 9 7 29t27 42t46 22q46 0 80.5 -40.5t34.5 -86.5 q0 -146 -86 -265t-225 -187q-6 -3 -10 -3q-12 0 -19.5 9.5t-7.5 22.5z" />
<glyph unicode="&#x166;" horiz-adv-x="1424" d="M201 1076l71 343q6 30 26 30q7 0 15 -9.5t25.5 -19.5t46.5 -10h1051q24 0 40 6t21 13.5t11 13.5t15 6q26 0 26 -23l-66 -320l-6 -27q-1 -10 -11 -10h-13q-5 0 -7 3q-6 6 -11 36q-3 14 -8 43.5t-8.5 48t-11.5 43t-17.5 38.5t-25.5 24t-36 10h-315q-11 0 -16.5 -1t-12 -7.5 t-9.5 -19.5q-84 -396 -115 -537h331q9 0 15 -5.5t6 -14.5l-5 -30q-5 -25 -22 -25h-341q-78 -365 -104 -495q-3 -11 -3 -12q-1 -3 -1 -10q0 -40 67 -75.5t125 -41.5q15 -1 57 -1q8 0 8 -8v-24q0 -8 -8 -8h-687q-8 0 -8 8v24q0 8 8 8q42 0 57 1q76 8 127 47.5t62 91.5l105 495 h-290q-21 0 -21 25l5 25q5 25 22 25h300l115 537q1 3 1 8q0 20 -31 20h-294q-74 0 -131 -66.5t-76 -140.5q-1 -5 -3 -14t-3 -15t-2 -7q-2 -3 -10 -3h-23q-7 0 -7 7z" />
<glyph unicode="&#x167;" horiz-adv-x="580" d="M71 445v5l5 25q5 25 22 25h131l67 315q2 12 2 16q0 15 -15 15h-45q-26 0 -26 18q0 13 7.5 19.5t27 11t22.5 5.5q38 14 89 64.5t103 114t62 73.5q17 -4 35 -16q-7 -17 -28 -63.5t-36 -84.5t-18 -62v-4q0 -22 24 -22h130l-11 -54h-145q-27 0 -34 -35l-67 -311h159 q10 0 17 -4.5t5 -15.5l-6 -30q-5 -25 -22 -25h-169q-68 -320 -68 -331t7.5 -17t16.5 -6q36 0 83 47l111 111l14 -15q-7 -22 -56.5 -78.5t-120 -109.5t-117.5 -53q-39 0 -64 19.5t-25 61.5q0 16 75 371h-121q-21 0 -21 20z" />
<glyph unicode="&#x168;" horiz-adv-x="1618" d="M251 403q0 34 8 74q169 792 169 800q0 51 -51 72t-120 21q-6 0 -6 8l5 24q2 8 10 8h521q6 0 6 -8l-5 -24q-2 -8 -10 -8q-80 0 -122.5 -27.5t-60.5 -115.5l-155 -719q-9 -42 -9 -82q0 -104 57 -187.5t143 -126t180 -42.5q223 0 364 109.5t188 329.5l122 572q16 74 16 126 q0 163 -158 163h-28q-21 0 -21 15v10q0 15 19 15h450q15 0 15 -13v-11q0 -4 -4.5 -7.5t-13 -5.5t-16 -3t-18 -2.5t-14.5 -2.5q-27 -6 -40.5 -10t-30.5 -15t-27 -30.5t-17 -49.5l-31 -143q-6 -29 -56.5 -267.5t-82.5 -388.5q-47 -220 -200 -340.5t-381 -120.5 q-108 0 -212.5 27t-190.5 76.5t-139 128t-53 171.5zM812 1688q0 94 42.5 154t113.5 60q56 0 161.5 -52.5t157.5 -52.5q33 0 53.5 39.5t20.5 77.5q0 6 5 10t11 4h19q14 0 14 -41q0 -70 -45 -123.5t-117 -53.5q-56 0 -153.5 52t-149.5 52q-29 0 -58.5 -41.5t-29.5 -88.5 q0 -12 -16 -12h-21q-8 0 -8 16z" />
<glyph unicode="&#x169;" horiz-adv-x="1052" d="M120 697q12 22 60 69t112 89.5t102 42.5q31 0 53 -24t22 -61q0 -13 -141 -680v-4q0 -9 7.5 -15.5t17.5 -6.5q29 0 124 108q170 197 198 232q104 128 123 214l43 199q7 40 32 40h91q10 0 17 -6.5t7 -17.5q0 -6 -2 -15q-24 -110 -151 -710q0 -32 23 -32q4 0 9.5 3t14 9.5 t16 13.5t20.5 20t23 23.5t27 28.5t30 31l24 -25q-16 -30 -110 -115.5t-162 -120.5q-27 -14 -42 -14q-37 0 -37 63q0 31 8 67l73 336q0 11 -9 11t-31 -26q-20 -23 -63.5 -70t-79 -86.5t-61.5 -70.5q-187 -224 -262 -224q-34 0 -54 25.5t-20 60.5q0 15 2 23l147 692v4 q0 9 -7.5 15.5t-17.5 6.5q-18 0 -44 -17t-45 -35.5t-42.5 -43t-25.5 -26.5zM405 1128q0 94 42.5 154t113.5 60q56 0 161.5 -52.5t157.5 -52.5q33 0 53.5 39.5t20.5 77.5q0 6 5 10t11 4h19q14 0 14 -41q0 -70 -45 -123.5t-117 -53.5q-56 0 -153.5 52t-149.5 52 q-29 0 -58.5 -41.5t-29.5 -88.5q0 -12 -16 -12h-21q-8 0 -8 16z" />
<glyph unicode="&#x16a;" horiz-adv-x="1618" d="M251 403q0 34 8 74q169 792 169 800q0 51 -51 72t-120 21q-6 0 -6 8l5 24q2 8 10 8h521q6 0 6 -8l-5 -24q-2 -8 -10 -8q-80 0 -122.5 -27.5t-60.5 -115.5l-155 -719q-9 -42 -9 -82q0 -104 57 -187.5t143 -126t180 -42.5q223 0 364 109.5t188 329.5l122 572q16 74 16 126 q0 163 -158 163h-28q-21 0 -21 15v10q0 15 19 15h450q15 0 15 -13v-11q0 -4 -4.5 -7.5t-13 -5.5t-16 -3t-18 -2.5t-14.5 -2.5q-27 -6 -40.5 -10t-30.5 -15t-27 -30.5t-17 -49.5l-31 -143q-6 -29 -56.5 -267.5t-82.5 -388.5q-47 -220 -200 -340.5t-381 -120.5 q-108 0 -212.5 27t-190.5 76.5t-139 128t-53 171.5zM792 1750l27 99h627l-27 -99h-627z" />
<glyph unicode="&#x16b;" horiz-adv-x="1052" d="M120 697q12 22 60 69t112 89.5t102 42.5q31 0 53 -24t22 -61q0 -13 -141 -680v-4q0 -9 7.5 -15.5t17.5 -6.5q29 0 124 108q170 197 198 232q104 128 123 214l43 199q7 40 32 40h91q10 0 17 -6.5t7 -17.5q0 -6 -2 -15q-24 -110 -151 -710q0 -32 23 -32q4 0 9.5 3t14 9.5 t16 13.5t20.5 20t23 23.5t27 28.5t30 31l24 -25q-16 -30 -110 -115.5t-162 -120.5q-27 -14 -42 -14q-37 0 -37 63q0 31 8 67l73 336q0 11 -9 11t-31 -26q-20 -23 -63.5 -70t-79 -86.5t-61.5 -70.5q-187 -224 -262 -224q-34 0 -54 25.5t-20 60.5q0 15 2 23l147 692v4 q0 9 -7.5 15.5t-17.5 6.5q-18 0 -44 -17t-45 -35.5t-42.5 -43t-25.5 -26.5zM365 1208l27 99h627l-27 -99h-627z" />
<glyph unicode="&#x16c;" horiz-adv-x="1618" d="M251 403q0 34 8 74q169 792 169 800q0 51 -51 72t-120 21q-6 0 -6 8l5 24q2 8 10 8h521q6 0 6 -8l-5 -24q-2 -8 -10 -8q-80 0 -122.5 -27.5t-60.5 -115.5l-155 -719q-9 -42 -9 -82q0 -104 57 -187.5t143 -126t180 -42.5q223 0 364 109.5t188 329.5l122 572q16 74 16 126 q0 163 -158 163h-28q-21 0 -21 15v10q0 15 19 15h450q15 0 15 -13v-11q0 -4 -4.5 -7.5t-13 -5.5t-16 -3t-18 -2.5t-14.5 -2.5q-27 -6 -40.5 -10t-30.5 -15t-27 -30.5t-17 -49.5l-31 -143q-6 -29 -56.5 -267.5t-82.5 -388.5q-47 -220 -200 -340.5t-381 -120.5 q-108 0 -212.5 27t-190.5 76.5t-139 128t-53 171.5zM857 1950h31q0 -86 67 -139.5t161 -53.5q76 0 162.5 66.5t86.5 126.5h33q0 -112 -94.5 -212t-202.5 -100q-111 0 -177.5 92t-66.5 220z" />
<glyph unicode="&#x16d;" horiz-adv-x="1052" d="M120 697q12 22 60 69t112 89.5t102 42.5q31 0 53 -24t22 -61q0 -13 -141 -680v-4q0 -9 7.5 -15.5t17.5 -6.5q29 0 124 108q170 197 198 232q104 128 123 214l43 199q7 40 32 40h91q10 0 17 -6.5t7 -17.5q0 -6 -2 -15q-24 -110 -151 -710q0 -32 23 -32q4 0 9.5 3t14 9.5 t16 13.5t20.5 20t23 23.5t27 28.5t30 31l24 -25q-16 -30 -110 -115.5t-162 -120.5q-27 -14 -42 -14q-37 0 -37 63q0 31 8 67l73 336q0 11 -9 11t-31 -26q-20 -23 -63.5 -70t-79 -86.5t-61.5 -70.5q-187 -224 -262 -224q-34 0 -54 25.5t-20 60.5q0 15 2 23l147 692v4 q0 9 -7.5 15.5t-17.5 6.5q-18 0 -44 -17t-45 -35.5t-42.5 -43t-25.5 -26.5zM460 1408h31q0 -86 67 -139.5t161 -53.5q76 0 162.5 66.5t86.5 126.5h33q0 -112 -94.5 -212t-202.5 -100q-111 0 -177.5 92t-66.5 220z" />
<glyph unicode="&#x16e;" horiz-adv-x="1618" d="M251 403q0 34 8 74q169 792 169 800q0 51 -51 72t-120 21q-6 0 -6 8l5 24q2 8 10 8h521q6 0 6 -8l-5 -24q-2 -8 -10 -8q-80 0 -122.5 -27.5t-60.5 -115.5l-155 -719q-9 -42 -9 -82q0 -104 57 -187.5t143 -126t180 -42.5q223 0 364 109.5t188 329.5l122 572q16 74 16 126 q0 163 -158 163h-28q-21 0 -21 15v10q0 15 19 15h450q15 0 15 -13v-11q0 -4 -4.5 -7.5t-13 -5.5t-16 -3t-18 -2.5t-14.5 -2.5q-27 -6 -40.5 -10t-30.5 -15t-27 -30.5t-17 -49.5l-31 -143q-6 -29 -56.5 -267.5t-82.5 -388.5q-47 -220 -200 -340.5t-381 -120.5 q-108 0 -212.5 27t-190.5 76.5t-139 128t-53 171.5zM927 1800q0 75 54.5 129.5t130.5 54.5t130 -54.5t54 -129.5q0 -76 -54 -130t-130 -54t-130.5 54t-54.5 130zM1002 1802q0 -48 33.5 -81.5t81.5 -33.5q46 0 79.5 33.5t33.5 81.5q0 46 -33.5 79.5t-79.5 33.5 q-48 0 -81.5 -33.5t-33.5 -79.5z" />
<glyph unicode="&#x16f;" horiz-adv-x="1052" d="M120 697q12 22 60 69t112 89.5t102 42.5q31 0 53 -24t22 -61q0 -13 -141 -680v-4q0 -9 7.5 -15.5t17.5 -6.5q29 0 124 108q170 197 198 232q104 128 123 214l43 199q7 40 32 40h91q10 0 17 -6.5t7 -17.5q0 -6 -2 -15q-24 -110 -151 -710q0 -32 23 -32q4 0 9.5 3t14 9.5 t16 13.5t20.5 20t23 23.5t27 28.5t30 31l24 -25q-16 -30 -110 -115.5t-162 -120.5q-27 -14 -42 -14q-37 0 -37 63q0 31 8 67l73 336q0 11 -9 11t-31 -26q-20 -23 -63.5 -70t-79 -86.5t-61.5 -70.5q-187 -224 -262 -224q-34 0 -54 25.5t-20 60.5q0 15 2 23l147 692v4 q0 9 -7.5 15.5t-17.5 6.5q-18 0 -44 -17t-45 -35.5t-42.5 -43t-25.5 -26.5zM520 1263q0 75 54.5 129.5t130.5 54.5t130 -54.5t54 -129.5q0 -76 -54 -130t-130 -54t-130.5 54t-54.5 130zM595 1265q0 -48 33.5 -81.5t81.5 -33.5q46 0 79.5 33.5t33.5 81.5q0 46 -33.5 79.5 t-79.5 33.5q-48 0 -81.5 -33.5t-33.5 -79.5z" />
<glyph unicode="&#x170;" horiz-adv-x="1618" d="M251 403q0 34 8 74q169 792 169 800q0 51 -51 72t-120 21q-6 0 -6 8l5 24q2 8 10 8h521q6 0 6 -8l-5 -24q-2 -8 -10 -8q-80 0 -122.5 -27.5t-60.5 -115.5l-155 -719q-9 -42 -9 -82q0 -104 57 -187.5t143 -126t180 -42.5q223 0 364 109.5t188 329.5l122 572q16 74 16 126 q0 163 -158 163h-28q-21 0 -21 15v10q0 15 19 15h450q15 0 15 -13v-11q0 -4 -4.5 -7.5t-13 -5.5t-16 -3t-18 -2.5t-14.5 -2.5q-27 -6 -40.5 -10t-30.5 -15t-27 -30.5t-17 -49.5l-31 -143q-6 -29 -56.5 -267.5t-82.5 -388.5q-47 -220 -200 -340.5t-381 -120.5 q-108 0 -212.5 27t-190.5 76.5t-139 128t-53 171.5zM922 1600q0 2 4 6l213 295q36 49 75 49q30 0 51 -22t21 -52q0 -49 -55 -94l-269 -217q-4 -3 -7 -3q-4 0 -7 3l-22 29q-4 4 -4 6zM1192 1600q0 2 4 6l213 295q36 49 75 49q30 0 51 -22t21 -52q0 -49 -55 -94l-269 -217 q-4 -3 -7 -3q-4 0 -7 3l-22 29q-4 4 -4 6z" />
<glyph unicode="&#x171;" horiz-adv-x="1052" d="M120 697q12 22 60 69t112 89.5t102 42.5q31 0 53 -24t22 -61q0 -13 -141 -680v-4q0 -9 7.5 -15.5t17.5 -6.5q29 0 124 108q170 197 198 232q104 128 123 214l43 199q7 40 32 40h91q10 0 17 -6.5t7 -17.5q0 -6 -2 -15q-24 -110 -151 -710q0 -32 23 -32q4 0 9.5 3t14 9.5 t16 13.5t20.5 20t23 23.5t27 28.5t30 31l24 -25q-16 -30 -110 -115.5t-162 -120.5q-27 -14 -42 -14q-37 0 -37 63q0 31 8 67l73 336q0 11 -9 11t-31 -26q-20 -23 -63.5 -70t-79 -86.5t-61.5 -70.5q-187 -224 -262 -224q-34 0 -54 25.5t-20 60.5q0 15 2 23l147 692v4 q0 9 -7.5 15.5t-17.5 6.5q-18 0 -44 -17t-45 -35.5t-42.5 -43t-25.5 -26.5zM465 1102q0 2 4 6l213 295q36 49 75 49q30 0 51 -22t21 -52q0 -49 -55 -94l-269 -217q-5 -3 -7 -3q-4 0 -7 3l-22 29q-4 4 -4 6zM735 1102q0 2 4 6l213 295q36 49 75 49q30 0 51 -22t21 -52 q0 -49 -55 -94l-269 -217q-5 -3 -7 -3q-4 0 -7 3l-22 29q-4 4 -4 6z" />
<glyph unicode="&#x172;" horiz-adv-x="1618" d="M251 403q0 34 8 74q169 792 169 800q0 51 -51 72t-120 21q-6 0 -6 8l5 24q2 8 10 8h521q6 0 6 -8l-5 -24q-2 -8 -10 -8q-80 0 -122.5 -27.5t-60.5 -115.5l-155 -719q-9 -42 -9 -82q0 -104 57 -187.5t143 -126t180 -42.5q223 0 364 109.5t188 329.5l122 572q16 74 16 126 q0 163 -158 163h-28q-21 0 -21 15v10q0 15 19 15h450q15 0 15 -13v-11q0 -4 -4.5 -7.5t-13 -5.5t-16 -3t-18 -2.5t-14.5 -2.5q-27 -6 -40.5 -10t-30.5 -15t-27 -30.5t-17 -49.5l-31 -143q-6 -29 -56.5 -267.5t-82.5 -388.5q-47 -220 -200 -340.5t-381 -120.5 q-108 0 -212.5 27t-190.5 76.5t-139 128t-53 171.5zM652 -342q0 88 70.5 184.5t157.5 157.5h52q-73 -82 -117.5 -162.5t-44.5 -142.5q0 -66 41 -113t117 -47q43 0 84 12q27 9 30 9q8 0 8 -6q0 -36 -48 -66t-103 -30q-109 0 -178 53.5t-69 150.5z" />
<glyph unicode="&#x173;" horiz-adv-x="1052" d="M120 697q12 22 60 69t112 89.5t102 42.5q31 0 53 -24t22 -61q0 -13 -141 -680v-4q0 -9 7.5 -15.5t17.5 -6.5q29 0 124 108q170 197 198 232q104 128 123 214l43 199q7 40 32 40h91q10 0 17 -6.5t7 -17.5q0 -6 -2 -15q-24 -110 -151 -710q0 -32 23 -32q4 0 9.5 3t14 9.5 t16 13.5t20.5 20t23 23.5t27 28.5t30 31l24 -25q-16 -30 -110 -115.5t-162 -120.5q-27 -14 -42 -14q-37 0 -37 63q0 31 8 67l73 336q0 11 -9 11t-31 -26q-20 -23 -63.5 -70t-79 -86.5t-61.5 -70.5q-187 -224 -262 -224q-34 0 -54 25.5t-20 60.5q0 15 2 23l147 692v4 q0 9 -7.5 15.5t-17.5 6.5q-18 0 -44 -17t-45 -35.5t-42.5 -43t-25.5 -26.5zM474 -342q0 88 70.5 184.5t157.5 157.5h52q-73 -82 -117.5 -162.5t-44.5 -142.5q0 -66 41 -113t117 -47q43 0 84 12q27 9 30 9q8 0 8 -6q0 -36 -48 -66t-103 -30q-109 0 -178 53.5t-69 150.5z" />
<glyph unicode="&#x174;" horiz-adv-x="2162" d="M250 1387q0 15 5.5 19t19.5 4h476q20 0 20 -18q0 -13 -6.5 -17.5t-21.5 -4.5q-151 0 -162 -131q-12 -133 -34 -423t-33 -415q-1 -15 -3 -49t-4 -58q0 -28 13 -28q6 0 16 10q125 169 340 452.5t304 402.5q36 49 36 97q0 59 -46 100.5t-99 41.5q-23 0 -23 20t14 20h505 q16 0 16 -19q0 -21 -22 -21h-18q-137 0 -153 -80q-5 -173 -21.5 -516.5t-21.5 -486.5q0 -13 6 -13q12 0 29 28l31 44q47 67 164.5 229t177.5 250q22 31 71.5 100t99.5 137.5t54 74.5q2 3 60 86q17 25 17 53q0 39 -31 66.5t-87 27.5q-30 0 -30 18q0 22 20 22h368q25 0 25 -20 t-24 -20q-71 0 -90 -27q-169 -231 -499 -694.5t-466 -651.5q-18 -24 -42 -24h-23q-20 0 -20 26q0 3 0.5 10.5t0.5 12.5q8 159 31 744q1 25 5.5 90.5t4.5 101.5q0 61 -12 61q-4 0 -7.5 -2t-8 -7t-7.5 -8t-8.5 -11t-7.5 -10q-130 -166 -371.5 -490.5t-344.5 -458.5l-29 -39 q-15 -20 -51 -20h-24q-20 0 -20 26l96 1233q0 2 2.5 28.5t2.5 29.5v7q0 73 -139 73q-21 0 -21 17zM1130 1562l280 386h106v-388h-50l-44 247l-242 -245h-50z" />
</font>
</defs>
</svg>
