<?xml version="1.0" standalone="no"?>
<!DOCTYPE svg PUBLIC "-//W3C//DTD SVG 1.1//EN" "http://www.w3.org/Graphics/SVG/1.1/DTD/svg11.dtd" >
<svg xmlns="http://www.w3.org/2000/svg">
<metadata>
This is a custom SVG webfont generated by Font Squirrel.
Copyright   : Copyright URW copyright 1999 by URW Design  Development Cyrillic glyphs added by Valek Filippov copyright 20012002 Vietnamese characters were added by Han The Thanh copyright 2006 2008 for TeX Gyre extensions by B Jackowski and JM Nowacki on behalf of TeX users groups This work is released under the GUST Font License   see httptugorgfontslicensesGUSTFONTLICENSEtxt for details
</metadata>
<defs>
<font id="webfontVqeOXkJG" horiz-adv-x="1398" >
<font-face units-per-em="2048" ascent="1655" descent="-393" />
<missing-glyph horiz-adv-x="567" />
<glyph unicode="IJ" horiz-adv-x="1370" d="M68 0l280 1513h152l-281 -1513h-151zM432 299q0 37 4 59h150q12 -131 57 -189t152 -58q127 0 204.5 88t114.5 274l195 1040h151l-194 -1040q-45 -248 -171 -375t-323 -127q-158 0 -249 84t-91 244z" />
<glyph unicode="ij" horiz-adv-x="829" d="M68 0l206 1120h152l-207 -1120h-151zM182 -393l27 145q131 8 193.5 79t97.5 247l192 1042h152l-193 -1042q-72 -451 -469 -471zM299 1243l47 258h152l-47 -258h-152zM717 1243l47 258h151l-47 -258h-151z" />
<glyph unicode="fk" horiz-adv-x="1611" d="M145 0l183 983h-174l24 137h174q41 203 166 298t301 95h35l-25 -137h-30q-131 0 -201 -60.5t-94 -195.5h276l-24 -137h-277l-182 -983h-152zM651 0l281 1513h151l-198 -1073l647 680h186l-540 -563l362 -557h-188l-289 449l-217 -218l-43 -231h-152z" />
<glyph unicode="&#xfb00;" horiz-adv-x="1173" d="M145 0l183 983h-174l24 137h174q41 203 166 298t301 95h35l-25 -137h-30q-131 0 -201 -60.5t-94 -195.5h354q41 203 166 298t301 95h35l-25 -137h-30q-131 0 -201 -60.5t-94 -195.5h276l-24 -137h-277l-182 -983h-152l183 983h-355l-182 -983h-152z" />
<glyph unicode="&#xfb01;" horiz-adv-x="997" d="M145 0l183 983h-174l24 137h174q41 203 166 298t301 95h35l-25 -137h-30q-131 0 -201 -60.5t-94 -195.5h276l-24 -137h-277l-182 -983h-152zM655 0l207 1120h152l-207 -1120h-152zM887 1243l47 258h151l-47 -258h-151z" />
<glyph unicode="&#xfb02;" horiz-adv-x="993" d="M145 0l183 983h-174l24 137h174q41 203 166 298t301 95h35l-25 -137h-30q-131 0 -201 -60.5t-94 -195.5h276l-24 -137h-277l-182 -983h-152zM651 0l281 1513h151l-280 -1513h-152z" />
<glyph unicode="&#xfb03;" horiz-adv-x="1499" d="M145 0l183 983h-174l24 137h174q41 203 166 298t301 95h35l-25 -137h-30q-131 0 -201 -60.5t-94 -195.5h354q41 203 166 298t301 95h35l-25 -137h-30q-131 0 -201 -60.5t-94 -195.5h276l-24 -137h-277l-182 -983h-152l183 983h-355l-182 -983h-152zM1157 0l207 1120h152 l-207 -1120h-152zM1386 1243l48 258h151l-47 -258h-152z" />
<glyph unicode="&#xfb04;" horiz-adv-x="1499" d="M145 0l183 983h-174l24 137h174q41 203 166 298t301 95h35l-25 -137h-30q-131 0 -201 -60.5t-94 -195.5h354q41 203 166 298t301 95h35l-25 -137h-30q-131 0 -201 -60.5t-94 -195.5h276l-24 -137h-277l-182 -983h-152l183 983h-355l-182 -983h-152zM1157 0l281 1513h151 l-280 -1513h-152z" />
<glyph unicode=" "  horiz-adv-x="567" />
<glyph unicode="&#x09;" horiz-adv-x="567" />
<glyph unicode="&#xa0;" horiz-adv-x="567" />
<glyph unicode="!" horiz-adv-x="604" d="M166 0l47 258h152l-48 -258h-151zM242 403l204 1110h152l-205 -1110h-151z" />
<glyph unicode="&#x22;" horiz-adv-x="632" d="M285 1051l86 462h102l-86 -462h-102zM516 1051l86 462h103l-87 -462h-102z" />
<glyph unicode="#" horiz-adv-x="1134" d="M43 485l23 123h262l121 320h-248l22 123h271l174 462h131l-172 -462h260l170 462h135l-170 -462h227l-22 -123h-250l-117 -320h236l-23 -123h-258l-178 -485h-135l178 485h-264l-180 -485h-136l183 485h-240zM463 608h262l117 320h-260z" />
<glyph unicode="$" horiz-adv-x="1134" d="M168 365q0 37 12 102h139q-4 -49 -4 -66q0 -96 60.5 -156.5t159.5 -60.5q133 0 226 97.5t93 234.5q0 84 -47 134t-182 93q-160 49 -221.5 122t-61.5 186q0 162 105.5 285.5t269.5 154.5l31 168h135l-31 -168q139 -31 201.5 -105.5t62.5 -211.5q0 -8 -4 -54h-143 q4 47 4 66q0 78 -55.5 127t-141.5 49q-121 0 -204 -87t-83 -218q0 -59 46.5 -99t166.5 -81q184 -63 247 -138t63 -198q0 -170 -115 -308.5t-311 -173.5l-33 -174h-135l33 174q-117 16 -200 96.5t-83 209.5z" />
<glyph unicode="%" horiz-adv-x="1587" d="M178 1110q0 160 131 292t303 132q127 0 212 -84t85 -209q0 -166 -131 -297t-297 -131q-131 0 -217 84t-86 213zM313 0l959 1513h153l-964 -1513h-148zM317 1130q0 -76 51.5 -127t129.5 -51q109 0 190.5 80t81.5 187q0 74 -52 125t-128 51q-109 0 -191 -79.5t-82 -185.5z M815 270q0 164 132 293t302 129q127 0 212 -84t85 -209q0 -166 -131 -296t-299 -130q-131 0 -216 84t-85 213zM954 291q0 -76 52.5 -127t128.5 -51q109 0 190.5 79.5t81.5 186.5q0 72 -52 123t-128 51q-106 0 -189.5 -80t-83.5 -182z" />
<glyph unicode="&#x26;" horiz-adv-x="1550" d="M129 354q0 125 69.5 244t190.5 195l146 75q20 10 34 19q-113 154 -112 260q0 156 129 274.5t299 118.5q135 0 220 -77t85 -199q0 -141 -81 -235.5t-288 -186.5l236 -283l299 426h168l-377 -534l313 -373l-123 -105l-288 340q-219 -340 -525 -340q-180 0 -287.5 103.5 t-107.5 277.5zM276 362q0 -109 76 -179t193 -70q104 0 212.5 79.5t198.5 229.5l-299 356q-209 -96 -295 -189.5t-86 -226.5zM614 1171q0 -47 25 -92t92 -129q188 78 249.5 135.5t61.5 149.5q0 78 -48 122t-132 44q-94 0 -171 -70t-77 -160z" />
<glyph unicode="'" horiz-adv-x="405" d="M285 1051l86 462h102l-86 -462h-102z" />
<glyph unicode="(" horiz-adv-x="755" d="M156 453q0 201 91 415.5t266 395t392 249.5l-24 -129q-276 -166 -422 -412.5t-146 -496.5q0 -397 289 -598l-24 -133q-201 80 -311.5 278t-110.5 431z" />
<glyph unicode=")" horiz-adv-x="755" d="M-41 -256l25 131q242 129 405.5 390t163.5 517q0 379 -291 598l25 133q193 -70 308.5 -272.5t115.5 -437.5q0 -205 -92.5 -417t-266.5 -387t-393 -255z" />
<glyph unicode="*" horiz-adv-x="870" d="M291 1233l20 106l215 -45l-82 209l113 37l70 -205l143 168l84 -78l-149 -165l210 -33l-18 -107l-209 43l80 -205l-109 -38l-71 206l-144 -163l-90 73l154 162z" />
<glyph unicode="+" horiz-adv-x="1241" d="M176 436v152h416v416h151v-416h416v-152h-416v-416h-151v416h-416z" />
<glyph unicode="," horiz-adv-x="567" d="M100 -137l254 395h150l-254 -395h-150z" />
<glyph unicode="-" horiz-adv-x="679" d="M102 477l25 129h557l-25 -129h-557z" />
<glyph unicode="." horiz-adv-x="567" d="M145 0l48 258h151l-47 -258h-152z" />
<glyph unicode="/" horiz-adv-x="894" d="M-29 -262l920 1775h141l-923 -1775h-138z" />
<glyph unicode="0" horiz-adv-x="1134" d="M84 358q0 96 16 174l4 19l80 430q51 279 210 419t401 140q182 0 298.5 -103.5t116.5 -258.5q0 -96 -18 -197l-80 -430q-109 -578 -606 -578q-195 0 -308.5 103.5t-113.5 281.5zM242 387q0 -123 79.5 -198.5t210.5 -75.5q176 0 283 109.5t152 352.5l67 371q18 109 19 180 q0 129 -81 202t-206 73q-358 0 -440 -455l-68 -371q-16 -75 -16 -188z" />
<glyph unicode="1" horiz-adv-x="1134" d="M512 1376l25 137h407l-280 -1513h-150l256 1376h-258z" />
<glyph unicode="2" horiz-adv-x="1134" d="M6 0l25 137l626 512q219 178 293 278.5t74 219.5q0 115 -73.5 184.5t-196.5 69.5q-156 0 -261.5 -100.5t-134.5 -276.5h-149q35 229 193.5 372.5t377.5 143.5q180 0 291 -101.5t111 -267.5q0 -152 -80 -274.5t-293 -294.5l-573 -465h755l-24 -137h-961z" />
<glyph unicode="3" horiz-adv-x="1134" d="M84 350q0 45 6 123h150l-2 -31q0 -176 68.5 -252.5t199.5 -76.5q158 0 277.5 120.5t119.5 282.5q0 152 -93 215.5t-278 63.5l25 135l80 -4q125 0 212 82t87 206q0 82 -51 134.5t-140 52.5q-109 0 -188.5 -75t-91.5 -189h-150q39 190 167 296.5t294 106.5q143 0 230.5 -84 t87.5 -219q0 -231 -222 -371q188 -100 189 -313q0 -229 -172 -404.5t-397 -175.5q-180 0 -294 106.5t-114 270.5z" />
<glyph unicode="4" horiz-adv-x="1134" d="M14 276l25 138l944 1099h178l-205 -1099h140l-25 -138h-139l-51 -276h-150l51 276h-768zM215 414h592l166 891z" />
<glyph unicode="5" horiz-adv-x="1134" d="M76 389v86h147q0 -182 81 -272t214 -90q180 0 312.5 141t132.5 332q0 135 -82 220t-213 85q-176 0 -344 -168l-109 45l272 745h687l-25 -137h-565l-152 -418q152 72 279 72q182 0 295.5 -117.5t113.5 -304.5q0 -250 -189.5 -442.5t-426.5 -192.5q-176 0 -302 117 t-126 299z" />
<glyph unicode="6" horiz-adv-x="1134" d="M74 387q0 145 50 257t224 312l477 557h174l-452 -526q102 43 186 43q172 0 281.5 -116.5t109.5 -301.5q0 -258 -184 -448.5t-434 -190.5q-190 0 -311 116t-121 298zM231 418q0 -139 83 -222t221 -83q172 0 302 144t130 329q0 137 -79 221t-210 84q-176 0 -311.5 -140 t-135.5 -333z" />
<glyph unicode="7" horiz-adv-x="1134" d="M160 0l882 1376h-716l24 137h873l-25 -137l-879 -1376h-159z" />
<glyph unicode="8" horiz-adv-x="1134" d="M98 360q0 152 91.5 284t246.5 202q-76 57 -101.5 106t-25.5 127q0 186 149.5 323.5t334.5 137.5q150 0 241.5 -85t91.5 -220q0 -127 -59 -231.5t-184 -157.5q195 -102 194 -299q0 -238 -166 -406t-401 -168q-188 0 -300 105.5t-112 281.5zM256 371q0 -113 78 -185.5 t196 -72.5q162 0 278 117.5t116 281.5q0 115 -75 185.5t-196 70.5q-162 0 -279.5 -115.5t-117.5 -281.5zM467 1108q0 -84 61.5 -141.5t151.5 -57.5q117 0 203 90.5t86 202.5q0 90 -55.5 144.5t-149.5 54.5q-121 0 -209 -87t-88 -206z" />
<glyph unicode="9" horiz-adv-x="1134" d="M168 891q0 262 183.5 455.5t430.5 193.5q195 0 316 -114.5t121 -299.5q0 -145 -66 -280q-45 -94 -211 -289l-477 -557h-174l454 526q-102 -43 -186 -43q-170 0 -280.5 116t-110.5 292zM326 932q0 -139 77.5 -224t208.5 -85q182 0 315.5 139t133.5 328q0 139 -84 225 t-219 86q-176 0 -304 -146.5t-128 -322.5z" />
<glyph unicode=":" horiz-adv-x="567" d="M145 0l48 258h151l-47 -258h-152zM293 780l47 258h152l-48 -258h-151z" />
<glyph unicode=";" horiz-adv-x="567" d="M-2 -137l256 395h147l-254 -395h-149zM350 780l47 258h152l-47 -258h-152z" />
<glyph unicode="&#x3c;" horiz-adv-x="1241" d="M256 455v114l774 650v-197l-606 -510l606 -510v-197z" />
<glyph unicode="=" horiz-adv-x="1241" d="M176 248v151h983v-151h-983zM176 625v151h983v-151h-983z" />
<glyph unicode="&#x3e;" horiz-adv-x="1241" d="M256 2l606 510l-606 510v197l774 -650v-114l-774 -650v197z" />
<glyph unicode="?" horiz-adv-x="1210" d="M264 1040q53 242 207 371t365 129q176 0 281.5 -98.5t105.5 -259.5q0 -131 -51.5 -221.5t-206.5 -212.5q-133 -106 -193.5 -186.5t-77.5 -166.5h-143q18 209 285 418q135 106 174 166q55 80 55 182q0 106 -71.5 173t-186.5 67q-303 0 -399 -361h-144zM473 0l47 258h152 l-47 -258h-152z" />
<glyph unicode="@" horiz-adv-x="1775" d="M211 610q0 242 132 457t352 344t468 129q252 0 418 -152.5t166 -386.5q0 -160 -92 -328.5t-232.5 -278t-271.5 -109.5q-74 0 -110.5 26.5t-51.5 89.5q-135 -106 -264 -106q-106 0 -168.5 62.5t-62.5 168.5q0 147 98 310t244.5 270.5t277.5 107.5q168 0 209 -141l53 103 h125l-297 -570q-53 -111 -61 -131t-8 -43q0 -16 18 -28.5t45 -12.5q82 0 185.5 87t179 230.5t75.5 278.5q0 197 -142 322t-366 125q-313 0 -562 -247t-249 -558q0 -240 159 -394.5t405 -154.5q281 0 516 203l69 -68q-266 -242 -622 -242q-274 0 -454.5 180.5t-180.5 456.5z M641 555q0 -66 36 -103.5t95 -37.5q82 0 155.5 58t162.5 192q135 207 135 323q0 53 -33 86t-92 35h-10q-90 0 -197 -91t-179.5 -222t-72.5 -240z" />
<glyph unicode="A" horiz-adv-x="1515" d="M-39 0l930 1513h170l371 -1513h-166l-125 510h-705l-315 -510h-160zM520 647h588l-164 694z" />
<glyph unicode="B" horiz-adv-x="1175" d="M94 0l281 1513h354q231 0 342 -71.5t111 -222.5q0 -137 -60.5 -249t-185.5 -163q115 -55 161 -116.5t46 -158.5q0 -117 -47 -224t-127 -177q-82 -72 -196 -101.5t-304 -29.5h-375zM270 137h207q283 0 395.5 94.5t112.5 264.5q0 133 -102 188q-76 41 -322 41h-186z M406 862h184q139 0 215 18.5t127 65.5q92 86 92 238q0 109 -72.5 150.5t-265.5 41.5h-184z" />
<glyph unicode="C" horiz-adv-x="1665" d="M156 594q0 252 129 470t348 347t471 129q233 0 404 -116.5t210 -303.5h-168q-125 281 -467 281q-197 0 -375 -105.5t-286.5 -283.5t-108.5 -377q0 -227 151.5 -374.5t383.5 -147.5q315 0 575 284h168q-137 -201 -337.5 -312.5t-430.5 -111.5q-297 0 -482 173.5 t-185 447.5z" />
<glyph unicode="D" horiz-adv-x="1523" d="M94 0l281 1513h356q381 0 551 -118q242 -166 242 -477q0 -209 -88 -393.5t-250 -315.5q-139 -111 -299 -160t-385 -49h-408zM270 137h211q238 0 385.5 46t263.5 155q109 100 172.5 249.5t63.5 303.5q0 238 -150.5 361.5t-502.5 123.5h-211z" />
<glyph unicode="E" horiz-adv-x="1097" d="M94 0l281 1513h827l-24 -137h-676l-103 -542h654l-25 -138h-653l-105 -559h676l-24 -137h-828z" />
<glyph unicode="F" horiz-adv-x="993" d="M94 0l281 1513h768l-25 -137h-616l-103 -547h594l-24 -137h-594l-129 -692h-152z" />
<glyph unicode="G" horiz-adv-x="1785" d="M158 614q0 180 78.5 350.5t208.5 296t307.5 202.5t363.5 77q248 0 422 -117.5t217 -312.5h-172q-47 133 -175 212t-298 79q-322 0 -558.5 -227.5t-236.5 -534.5q0 -238 157 -382t398 -144q215 0 404.5 122.5t288.5 325.5h-848l24 137h1030q-76 -301 -340 -513t-577 -212 q-305 0 -499.5 179t-194.5 462z" />
<glyph unicode="H" d="M94 0l281 1513h151l-123 -665h785l123 665h151l-280 -1513h-152l131 711h-784l-131 -711h-152z" />
<glyph unicode="I" horiz-adv-x="462" d="M94 0l281 1513h151l-280 -1513h-152z" />
<glyph unicode="J" horiz-adv-x="987" d="M23 299q0 37 4 59h149q12 -131 57.5 -189t151.5 -58q127 0 205 88t115 274l194 1040h152l-195 -1040q-45 -248 -171 -375t-323 -127q-158 0 -248.5 84t-90.5 244z" />
<glyph unicode="K" horiz-adv-x="1210" d="M94 0l281 1513h151l-161 -870l862 870h190l-735 -737l455 -776h-191l-383 655l-241 -241l-76 -414h-152z" />
<glyph unicode="L" horiz-adv-x="946" d="M94 0l281 1513h151l-256 -1376h627l-25 -137h-778z" />
<glyph unicode="M" horiz-adv-x="1882" d="M94 0l281 1513h235l312 -1288l788 1288h236l-281 -1513h-152l250 1348l-819 -1348h-131l-317 1348l-250 -1348h-152z" />
<glyph unicode="N" horiz-adv-x="1515" d="M94 0l281 1513h205l614 -1255l233 1255h152l-281 -1513h-151l-655 1331l-246 -1331h-152z" />
<glyph unicode="O" horiz-adv-x="1779" d="M156 618q0 236 136 450t360.5 343t469.5 129q272 0 466 -183t194 -464q0 -233 -136.5 -447.5t-360.5 -343.5t-470 -129q-276 0 -467.5 184.5t-191.5 460.5zM313 647q0 -225 152.5 -379.5t374.5 -154.5q305 0 544.5 230t239.5 521q0 233 -151.5 385t-387.5 152 q-293 0 -532.5 -233.5t-239.5 -520.5z" />
<glyph unicode="P" horiz-adv-x="1212" d="M94 0l281 1513h420q268 0 386.5 -80.5t118.5 -261.5q0 -117 -41.5 -226t-117.5 -185q-80 -80 -192.5 -114t-299.5 -34h-291l-112 -612h-152zM385 750h281q147 0 232 24.5t140 83.5q47 51 76 129t29 156q0 131 -96 188q-74 45 -330 45h-215z" />
<glyph unicode="Q" horiz-adv-x="1783" d="M154 612q0 246 139 462t364.5 341t470.5 125q305 0 492.5 -173t187.5 -452q0 -211 -99 -406.5t-269 -318.5q90 -78 180 -77q18 0 33 2l-27 -142q-111 2 -173 29t-134 102q-209 -131 -477 -131q-297 0 -492.5 182.5t-195.5 456.5zM309 571q180 53 346 54q211 0 359.5 -74 t335.5 -260q162 143 231.5 280.5t69.5 302.5q0 236 -150.5 381.5t-394.5 145.5q-326 0 -560.5 -233.5t-234.5 -583.5zM350 442q33 -123 180.5 -226t331.5 -103q182 0 352 92q-135 150 -278 215t-334 65q-139 0 -252 -43z" />
<glyph unicode="R" horiz-adv-x="1243" d="M94 0l281 1513h375q307 0 437 -91t130 -289q0 -233 -149.5 -390t-389.5 -178l320 -565h-189l-383 686q289 0 410 49q98 41 160.5 145.5t62.5 227.5q0 145 -102.5 206.5t-341.5 61.5h-213l-256 -1376h-152z" />
<glyph unicode="S" horiz-adv-x="1019" d="M53 338q0 20 4 86h162q0 -164 64.5 -237.5t195.5 -73.5q147 0 255 107.5t108 254.5q0 94 -61.5 148.5t-223.5 105.5q-199 61 -260 134t-61 202q0 182 148 328.5t355 146.5q160 0 257.5 -91t97.5 -241q0 -23 -7 -78h-157q0 270 -217 271q-133 0 -226.5 -97.5t-93.5 -216.5 q0 -31 13.5 -69.5t31.5 -56.5q23 -23 60 -40.5t147 -54.5q225 -76 289 -155q66 -84 65 -207q0 -209 -165.5 -370t-384.5 -161q-174 0 -285 101.5t-111 263.5z" />
<glyph unicode="T" horiz-adv-x="872" d="M209 1376l24 137h844l-24 -137h-346l-256 -1376h-152l256 1376h-346z" />
<glyph unicode="U" horiz-adv-x="1341" d="M182 354q0 90 23 215l174 944h151l-174 -944q-18 -98 -18 -184q0 -121 82 -196.5t213 -75.5q172 0 287.5 112.5t158.5 343.5l174 944h152l-174 -944q-55 -297 -220 -446.5t-405 -149.5q-188 0 -306 106.5t-118 274.5z" />
<glyph unicode="V" horiz-adv-x="1437" d="M240 1513h166l286 -1325l781 1325h163l-907 -1513h-147z" />
<glyph unicode="W" horiz-adv-x="1966" d="M240 1513h155l129 -1316l606 1316h144l119 -1316l616 1316h156l-715 -1513h-195l-106 1241l-561 -1241h-197z" />
<glyph unicode="X" horiz-adv-x="1247" d="M-45 0l657 774l-348 739h178l289 -606l512 606h176l-622 -739l372 -774h-180l-305 647l-551 -647h-178z" />
<glyph unicode="Y" horiz-adv-x="1212" d="M223 1513h168l273 -847l598 847h165l-714 -1007l-95 -506h-151l94 506z" />
<glyph unicode="Z" horiz-adv-x="983" d="M-27 0l25 137l975 1239h-721l24 137h891l-24 -137l-973 -1239h764l-25 -137h-936z" />
<glyph unicode="[" horiz-adv-x="718" d="M209 176q0 53 20 160l113 610q33 207 173 361.5t345 205.5l-29 -153q-156 -59 -235.5 -159.5t-116.5 -282.5l-102 -556q-20 -104 -21 -180q0 -195 205 -284l-29 -154q-323 98 -323 432z" />
<glyph unicode="\" horiz-adv-x="1239" d="M391 1513h148l350 -1513h-146z" />
<glyph unicode="]" horiz-adv-x="718" d="M-33 -256l29 154q154 55 236.5 160.5t115.5 281.5l103 557q20 104 20 180q0 197 -205 283l29 153q150 -45 236.5 -153.5t86.5 -251.5q0 -88 -18 -186l-113 -609q-41 -217 -175 -364.5t-345 -204.5z" />
<glyph unicode="^" horiz-adv-x="1241" d="M43 369l711 1144h172l284 -1144h-166l-233 977l-598 -977h-170z" />
<glyph unicode="_" horiz-adv-x="1024" d="M-109 -256l23 119h1024l-23 -119h-1024z" />
<glyph unicode="`" horiz-adv-x="768" d="M281 1450l94 119l350 -238l-92 -114z" />
<glyph unicode="a" d="M119 442q0 285 211 495t497 210q285 0 400 -225l37 198h151l-207 -1120h-151l37 197q-125 -127 -227.5 -175.5t-245.5 -48.5q-225 0 -363.5 129t-138.5 340zM276 481q0 -164 103.5 -266t271.5 -102q205 0 361.5 163.5t156.5 376.5q0 154 -101 254.5t-255 100.5 q-213 0 -375 -159t-162 -368z" />
<glyph unicode="b" horiz-adv-x="1396" d="M68 0l280 1513h152l-109 -585q88 104 214 161.5t265 57.5q215 0 354.5 -133t139.5 -338q0 -285 -213 -494t-500 -209q-137 0 -240.5 57.5t-156.5 162.5l-35 -193h-151zM303 485q0 -160 104.5 -266t266.5 -106q213 0 372.5 161.5t159.5 376.5q0 160 -100 258.5t-264 98.5 q-211 0 -375 -161t-164 -362z" />
<glyph unicode="c" horiz-adv-x="1325" d="M119 455q0 272 217 482t500 210q193 0 324.5 -98.5t168.5 -268.5h-170q-41 109 -132 168.5t-216 59.5q-213 0 -374 -160t-161 -371q0 -160 105.5 -262t269.5 -102q125 0 210 43t216 174h170q-143 -195 -289.5 -276t-324.5 -81q-229 0 -371.5 133.5t-142.5 348.5z" />
<glyph unicode="d" horiz-adv-x="1402" d="M119 444q0 281 215 492t502 211q260 0 399 -205l106 571h152l-281 -1513h-151l37 203q-109 -123 -218.5 -176.5t-254.5 -53.5q-219 0 -362.5 133t-143.5 338zM276 483q0 -166 104.5 -268t274.5 -102q203 0 364 164.5t161 373.5q0 154 -107.5 255.5t-269.5 101.5 q-207 0 -367 -160t-160 -365z" />
<glyph unicode="e" horiz-adv-x="1331" d="M119 451q0 276 210 486t486 210q213 0 349 -131t136 -336q0 -66 -18 -170h-1014q-4 -49 -4 -57q0 -143 106.5 -241.5t260.5 -98.5q125 0 249 71.5t189 184.5h158q-98 -180 -267 -288t-356 -108q-209 0 -347 136.5t-138 341.5zM299 647h858q-8 166 -107.5 263.5 t-261.5 97.5q-160 0 -297 -101.5t-192 -259.5z" />
<glyph unicode="f" horiz-adv-x="643" d="M145 0l183 983h-174l24 137h174q41 203 166 298t301 95h35l-25 -137h-30q-131 0 -201 -60.5t-94 -195.5h276l-24 -137h-277l-182 -983h-152z" />
<glyph unicode="g" horiz-adv-x="1378" d="M61 -35h148q68 -158 143.5 -212t218.5 -54q199 0 325 114.5t167 338.5l14 75q-166 -254 -473 -254q-213 0 -350 133.5t-137 342.5q0 276 211 487t483 211q137 0 224 -46t171 -179l37 198h152l-172 -919q-35 -180 -72 -270.5t-113 -170.5q-188 -201 -495 -200 q-203 0 -325 96t-157 309zM274 483q0 -160 92.5 -265t262.5 -105q205 0 363.5 164.5t158.5 388.5q0 147 -103.5 244.5t-259.5 97.5q-197 0 -355.5 -156t-158.5 -369z" />
<glyph unicode="h" horiz-adv-x="1249" d="M68 0l280 1513h152l-101 -538q156 172 379 172q193 0 300.5 -99.5t107.5 -277.5q0 -53 -21 -168l-110 -602h-152l111 602q14 90 14 148q0 113 -80 185.5t-205 72.5q-156 0 -264 -101.5t-145 -292.5l-115 -614h-151z" />
<glyph unicode="i" horiz-adv-x="409" d="M68 0l206 1120h152l-207 -1120h-151zM299 1243l47 258h152l-47 -258h-152z" />
<glyph unicode="j" horiz-adv-x="415" d="M-227 -393l26 145q131 8 193.5 79t97.5 247l193 1042h151l-192 -1042q-72 -451 -469 -471zM307 1243l47 258h152l-47 -258h-152z" />
<glyph unicode="k" horiz-adv-x="1028" d="M68 0l280 1513h152l-199 -1073l647 680h187l-541 -563l362 -557h-188l-289 449l-217 -218l-43 -231h-151z" />
<glyph unicode="l" horiz-adv-x="409" d="M68 0l280 1513h152l-281 -1513h-151z" />
<glyph unicode="m" horiz-adv-x="1921" d="M68 0l206 1120h152l-23 -129q96 96 166 126t174 30q262 0 326 -215q100 115 198.5 165t229.5 50q166 0 267.5 -89t101.5 -235q0 -63 -17 -157l-123 -666h-151l121 649q12 74 12 127q0 106 -64.5 169t-177.5 63q-141 0 -239.5 -89.5t-132.5 -269.5l-121 -649h-152l121 653 q12 63 12 109q0 121 -69.5 183.5t-177.5 62.5q-139 0 -237.5 -95.5t-129.5 -259.5l-121 -653h-151z" />
<glyph unicode="n" horiz-adv-x="1249" d="M68 0l206 1120h152l-27 -145q178 172 385 172q184 0 293 -100.5t109 -270.5q0 -72 -23 -188l-108 -588h-152l109 588q16 92 16 151q0 123 -77 196t-208 73q-156 0 -264 -96.5t-145 -295.5l-115 -616h-151z" />
<glyph unicode="o" horiz-adv-x="1341" d="M117 440q0 289 215 498t497 209q213 0 346.5 -129t133.5 -338q0 -287 -209 -497t-479 -210q-223 0 -363.5 130t-140.5 337zM274 467q0 -158 101.5 -256t265.5 -98q213 0 361.5 160.5t148.5 392.5q0 150 -98.5 246t-249.5 96q-215 0 -372 -161t-157 -380z" />
<glyph unicode="p" horiz-adv-x="1396" d="M-6 -393l280 1513h152l-35 -192q76 100 205 159.5t274 59.5q221 0 356.5 -133t135.5 -348q0 -272 -214 -482.5t-493 -210.5q-287 0 -401 220l-109 -586h-151zM301 465q0 -152 104.5 -252t260.5 -100q207 0 372.5 156.5t165.5 379.5q0 156 -103.5 257.5t-262.5 101.5 q-203 0 -370 -157t-167 -386z" />
<glyph unicode="q" horiz-adv-x="1396" d="M117 444q0 281 212 492t494 211q297 0 404 -219l35 192h151l-280 -1513h-152l109 586q-186 -219 -486 -220q-213 0 -350 133t-137 338zM274 469q0 -156 101.5 -256t259.5 -100q215 0 379 159.5t164 378.5q0 154 -105.5 255.5t-267.5 101.5q-211 0 -371 -162t-160 -377z " />
<glyph unicode="r" horiz-adv-x="616" d="M68 0l206 1120h152l-29 -159q61 92 142.5 135t210.5 51l-29 -150q-324 -35 -381 -344l-121 -653h-151z" />
<glyph unicode="s" horiz-adv-x="794" d="M27 240q0 41 6 90h149q0 -127 42 -172t128 -45q94 0 163 68.5t69 160.5q0 63 -33 97t-148 83q-92 41 -127.5 61.5t-58.5 47.5q-53 59 -53 147q0 147 117.5 258t267.5 111q113 0 186.5 -68.5t73.5 -173.5q0 -39 -2 -61h-154q0 164 -133 164q-76 0 -137 -58.5t-61 -130.5 q0 -78 77 -121q35 -18 195 -90q147 -66 147 -221q0 -170 -124.5 -292t-290.5 -122q-135 0 -217 78t-82 189z" />
<glyph unicode="t" horiz-adv-x="694" d="M145 983l25 137h229l74 393h152l-74 -393h264l-24 -137h-265l-182 -983h-151l182 983h-230z" />
<glyph unicode="u" horiz-adv-x="1245" d="M141 317q0 96 19 199l112 604h152l-113 -604q-12 -53 -12 -137q0 -127 69.5 -196.5t204.5 -69.5q158 0 271.5 103t156.5 329l109 575h152l-209 -1120h-152l33 174q-82 -109 -175 -155t-227 -46q-178 0 -284.5 93t-106.5 251z" />
<glyph unicode="v" horiz-adv-x="1134" d="M162 1120h153l220 -942l575 942h154l-678 -1120h-160z" />
<glyph unicode="w" horiz-adv-x="1701" d="M160 1120h151l183 -938l413 801h125l115 -801l539 938h147l-641 -1120h-162l-106 743l-379 -743h-164z" />
<glyph unicode="x" horiz-adv-x="983" d="M-45 0l496 571l-289 549h172l223 -432l381 432h174l-491 -549l284 -571h-174l-217 449l-387 -449h-172z" />
<glyph unicode="y" horiz-adv-x="1097" d="M137 -393l260 430l-233 1083h166l188 -893l545 893h162l-928 -1513h-160z" />
<glyph unicode="z" horiz-adv-x="870" d="M-41 0l25 137l776 846h-598l24 137h770l-22 -129l-772 -854h651l-25 -137h-829z" />
<glyph unicode="{" horiz-adv-x="718" d="M131 557l27 141q96 16 134 53t52 132l66 348q47 182 113.5 230t250.5 52l-26 -137q-100 -8 -129 -31.5t-52 -113.5l-65 -348q-25 -119 -70 -169t-160 -87q84 -29 114 -65t30 -109l-6 -78l-66 -348q-6 -31 -6 -64q0 -43 22.5 -59.5t90.5 -22.5l20 -2l-27 -137 q-150 4 -190 29q-76 45 -76 145q0 66 8 111l66 348l6 65q0 57 -23.5 79t-103.5 38z" />
<glyph unicode="|" horiz-adv-x="1376" d="M659 -256v1769h152v-1769h-152z" />
<glyph unicode="}" horiz-adv-x="718" d="M-33 -258l25 137q100 8 127.5 29.5t54.5 118.5l64 348q16 106 67 162.5t160 89.5q-92 41 -117.5 70.5t-25.5 90.5q0 47 10 95l65 348q2 8 2 63q0 43 -20.5 58.5t-85.5 21.5l-23 2l25 137q150 -4 190 -28q78 -47 78 -158q0 -31 -10 -96l-66 -348l-8 -84q0 -43 28 -64.5 t99 -36.5l-26 -141q-100 -18 -130 -47t-57 -135l-63 -348q-31 -166 -109 -225.5t-254 -59.5z" />
<glyph unicode="~" horiz-adv-x="1241" d="M141 526q98 133 176 189.5t164 56.5q59 0 150 -39l123 -55q102 -47 153 -45q96 0 228 166l71 -97q-72 -104 -162 -166.5t-170 -62.5q-57 0 -178 53l-102 45q-96 41 -141 41q-63 0 -108.5 -33.5t-135.5 -148.5z" />
<glyph unicode="&#xa1;" horiz-adv-x="604" d="M90 -393l205 1110h151l-204 -1110h-152zM324 862l47 258h151l-47 -258h-151z" />
<glyph unicode="&#xa2;" horiz-adv-x="1134" d="M170 692q0 205 149.5 370t382.5 195l35 191h137l-34 -191q131 -23 214 -102.5t103 -206.5h-168l-12 25q-72 147 -252 147q-158 0 -277.5 -119.5t-119.5 -277.5q0 -125 75.5 -202t198.5 -77q170 0 313 150h164q-57 -111 -171.5 -188.5t-243.5 -96.5l-33 -182h-137l32 182 q-158 14 -257 120.5t-99 262.5z" />
<glyph unicode="&#xa3;" horiz-adv-x="1134" d="M57 0l25 137h283q61 57 98 141t37 173q0 63 -32 121.5t-110 138.5h-254l27 137h156q-25 82 -25 137q0 227 181.5 391t404.5 164q190 0 311 -109.5t121 -265.5q0 -8 -4 -57h-143q0 133 -84 213t-226 80q-166 0 -284.5 -125t-118.5 -301q0 -49 31 -127h579l-26 -137h-443 q96 -131 96 -262q0 -139 -114 -312h116q209 0 318.5 110.5t109.5 301.5h148q0 -258 -162 -403.5t-432 -145.5h-584z" />
<glyph unicode="&#xa4;" horiz-adv-x="1134" d="M43 227l104 86q-47 80 -47 199q0 225 160 414l-72 88l131 110l72 -86q111 57 176.5 77t147.5 20q178 0 291 -97l104 86l88 -110l-100 -88q49 -113 49 -205q0 -113 -44 -224.5t-118 -183.5l70 -86l-131 -108l-68 86q-180 -102 -334 -103q-86 0 -149.5 22.5t-134.5 80.5 l-105 -86zM248 553q0 -137 84 -219t225 -82q178 0 310 132t132 312q0 137 -86 213t-215 76q-182 0 -316 -132t-134 -300z" />
<glyph unicode="&#xa5;" horiz-adv-x="1134" d="M137 485l25 138h373l-66 188h-287l27 137h213l-199 565h156l297 -843l594 843h155l-399 -565h209l-27 -137h-282l-135 -188h368l-24 -138h-420l-90 -485h-152l90 485h-426z" />
<glyph unicode="&#xa6;" horiz-adv-x="1376" d="M659 -256v709h152v-709h-152zM659 805v708h152v-708h-152z" />
<glyph unicode="&#xa7;" horiz-adv-x="1259" d="M172 45q0 33 6 86h139q-2 -18 -2 -51q0 -102 67 -166t173 -64q113 0 201 79t88 177q0 88 -160 175l-266 143q-96 53 -138 101t-42 110q0 109 64.5 208t176.5 163q-49 57 -49 143q0 156 126 273.5t296 117.5q127 0 217 -72.5t90 -175.5q0 -6 -4 -51h-145q-6 160 -191 160 q-100 0 -173 -66.5t-73 -156.5q0 -96 93 -144l292 -151q174 -90 175 -238q0 -190 -213 -346q63 -78 63 -156q0 -188 -141.5 -310t-317.5 -122q-156 0 -254 97.5t-98 236.5zM385 682q0 -29 23.5 -60.5t60.5 -52.5l371 -196q145 96 145 241q0 86 -92 134l-350 182 q-68 -43 -113 -114t-45 -134z" />
<glyph unicode="&#xa8;" horiz-adv-x="755" d="M317 1243l48 258h151l-47 -258h-152zM618 1243l48 258h151l-47 -258h-152z" />
<glyph unicode="&#xa9;" horiz-adv-x="1529" d="M90 698q0 299 212 512t511 213t512 -213t213 -512t-213 -511t-512 -212t-511 212t-212 511zM166 698.5q0 -268.5 189.5 -458t457.5 -189.5t458.5 189.5t190.5 458t-190.5 459t-458.5 190.5t-457.5 -190.5t-189.5 -459zM334 606q-4 215 167 374t406 159q152 0 259.5 -73 t123.5 -185h-125q-74 152 -276 151q-174 0 -305 -118.5t-129 -276.5q2 -119 90 -195.5t223 -76.5q184 0 336 153h127q-80 -123 -207 -191.5t-274 -68.5q-182 0 -297 97t-119 251z" />
<glyph unicode="&#xaa;" horiz-adv-x="755" d="M125 653l18 107h652l-19 -107h-651zM236 1165q0 139 117.5 250t267.5 111q109 0 180 -105l16 92h98l-110 -595h-98l16 92q-100 -106 -234 -107q-106 0 -179.5 75.5t-73.5 186.5zM344 1178q0 -72 49 -123t119 -51q90 0 168 77.5t78 167.5q0 74 -46 125t-116 51 q-96 0 -174 -76.5t-78 -170.5z" />
<glyph unicode="&#xab;" horiz-adv-x="870" d="M135 614l305 408l109 -66l-254 -342l127 -344l-133 -67zM492 614l305 408l108 -66l-254 -342l127 -344l-133 -67z" />
<glyph unicode="&#xac;" horiz-adv-x="1241" d="M176 625v151h983v-452h-151v301h-832z" />
<glyph unicode="&#xad;" horiz-adv-x="679" d="M102 477l25 129h557l-25 -129h-557z" />
<glyph unicode="&#xae;" horiz-adv-x="1529" d="M90 698q0 299 212 512t511 213t512 -213t213 -512t-213 -511t-512 -212t-511 212t-212 511zM166 698.5q0 -268.5 189.5 -458t457.5 -189.5t458.5 189.5t190.5 458t-190.5 459t-458.5 190.5t-457.5 -190.5t-189.5 -459zM440 272l158 852h238q188 0 268 -52t84 -167 q2 -127 -82 -216t-221 -107l198 -310h-149l-254 404q197 -2 270 26q53 20 86 71.5t31 111.5q-2 74 -60.5 103.5t-197.5 29.5h-115l-137 -746h-117z" />
<glyph unicode="&#xaf;" horiz-adv-x="993" d="M332 1309l24 127h691l-25 -127h-690z" />
<glyph unicode="&#xb0;" horiz-adv-x="819" d="M260 1090q0 127 92 216t226 89q127 0 217 -91.5t90 -216.5q0 -127 -91.5 -217t-222.5 -90q-129 0 -220 90.5t-91 219.5zM377 1090q0 -80 57.5 -136.5t136.5 -56.5q82 0 139.5 56.5t57.5 134t-57.5 134t-135.5 56.5q-82 0 -140 -55t-58 -133z" />
<glyph unicode="&#xb1;" horiz-adv-x="1241" d="M176 0v152h983v-152h-983zM176 588v151h416v416h151v-416h416v-151h-416v-299h-151v299h-416z" />
<glyph unicode="&#xb2;" horiz-adv-x="679" d="M76 608l18 101l391 299q156 119 191 164t35 116q0 59 -46.5 97t-119.5 38q-193 0 -234 -219h-116q23 152 124 239t250 87q117 0 188.5 -63.5t71.5 -168.5q0 -88 -52 -161.5t-183 -173.5l-330 -248h457l-19 -107h-626z" />
<glyph unicode="&#xb3;" horiz-adv-x="679" d="M125 823q0 37 6 84h117l-2 -71q-2 -55 47 -96.5t117 -41.5q92 0 163.5 64.5t71.5 146.5q0 162 -227 162h-19l21 103h49q84 0 138.5 40.5t54.5 104.5q0 49 -31 76.5t-84 27.5q-143 0 -168 -153h-117q16 113 101.5 186.5t199.5 73.5q100 0 158.5 -52.5t58.5 -140.5 q0 -66 -35.5 -123t-95.5 -88q115 -59 115 -192t-112.5 -237.5t-258.5 -104.5q-121 0 -194.5 65.5t-73.5 165.5z" />
<glyph unicode="&#xb4;" horiz-adv-x="768" d="M414 1331l438 238l49 -119l-438 -233z" />
<glyph unicode="&#xb5;" horiz-adv-x="1245" d="M-6 -393l280 1513h152l-107 -575q-14 -78 -14 -139q0 -293 305 -293q150 0 248 96t143 336l109 575h152l-209 -1120h-152l33 174q-70 -109 -148.5 -155t-193.5 -46q-229 0 -338 220l-109 -586h-151z" />
<glyph unicode="&#xb6;" horiz-adv-x="1155" d="M215 1044q0 197 143.5 333t393.5 136h473l-330 -1785h-152l306 1648h-238l-305 -1648h-152l185 999q-154 16 -239 98t-85 219z" />
<glyph unicode="&#xb7;" horiz-adv-x="567" d="M203 512q0 53 38 91t91 38t91 -38t38 -91t-38 -91t-91 -38t-91 38t-38 91z" />
<glyph unicode="&#xb8;" horiz-adv-x="663" d="M39 -340l111 12q4 -37 21 -52t56 -15q49 0 84 38t35 93q2 39 -20.5 60.5t-61.5 21.5q-59 0 -104 -39l-58 39l113 192h80l-55 -108l26 4q29 6 43 6q76 0 123 -42t47 -112q0 -14 -4 -39q-16 -98 -93 -165.5t-179 -67.5q-150 0 -164 174z" />
<glyph unicode="&#xb9;" horiz-adv-x="679" d="M403 1407l19 106h274l-166 -905h-118l147 799h-156z" />
<glyph unicode="&#xba;" horiz-adv-x="755" d="M127 653l18 107h625l-18 -107h-625zM227 1161q0 143 115 254t264 111q109 0 181.5 -74t72.5 -184q0 -141 -115.5 -252t-265.5 -111q-106 0 -179 73.5t-73 182.5zM336 1171q0 -72 48 -118.5t120 -46.5q100 0 174 76.5t74 181.5q0 66 -48.5 113.5t-115.5 47.5 q-102 0 -177 -76t-75 -178z" />
<glyph unicode="&#xbb;" horiz-adv-x="870" d="M72 270l254 344l-127 342l133 66l153 -408l-305 -411zM428 270l254 344l-127 342l133 66l154 -408l-305 -411z" />
<glyph unicode="&#xbc;" horiz-adv-x="1701" d="M383 0l981 1513h111l-981 -1513h-111zM418 1407l18 106h275l-166 -905h-119l147 799h-155zM930 162l18 98l584 645h129l-119 -637h86l-18 -106h-86l-31 -162h-119l31 162h-475zM1094 268h329l88 465z" />
<glyph unicode="&#xbd;" horiz-adv-x="1701" d="M362 0l981 1513h111l-981 -1513h-111zM397 1407l19 106h274l-166 -905h-118l147 799h-156zM975 0l18 100l391 299q156 119 191 164t35 117q0 59 -46 97t-120 38q-193 0 -234 -219h-116q23 152 124 239t250 87q117 0 189 -63.5t72 -168.5q0 -88 -52.5 -161.5 t-183.5 -174.5l-330 -248h457l-18 -106h-627z" />
<glyph unicode="&#xbe;" horiz-adv-x="1701" d="M125 823q0 37 6 84h117l-2 -71q-2 -55 47 -96.5t117 -41.5q92 0 163.5 64.5t71.5 146.5q0 162 -227 162h-19l21 103h49q84 0 138.5 40.5t54.5 104.5q0 49 -31 76.5t-84 27.5q-143 0 -168 -153h-117q16 113 101.5 186.5t199.5 73.5q100 0 158.5 -52.5t58.5 -140.5 q0 -66 -35.5 -123t-95.5 -88q115 -59 115 -192t-112.5 -237.5t-258.5 -104.5q-121 0 -194.5 65.5t-73.5 165.5zM403 0l981 1513h111l-981 -1513h-111zM930 162l18 98l584 645h129l-119 -637h86l-18 -106h-86l-31 -162h-119l31 162h-475zM1094 268h329l88 465z" />
<glyph unicode="&#xbf;" horiz-adv-x="1210" d="M72 -61q0 131 51 221t207 213q133 106 193.5 186t76.5 166h143q-18 -209 -284 -418q-135 -106 -174 -166q-55 -80 -56 -182q0 -106 72 -173t186 -67q303 0 400 361h143q-53 -242 -206.5 -371t-364.5 -129q-176 0 -281.5 98.5t-105.5 260.5zM623 862l47 258h151l-47 -258 h-151z" />
<glyph unicode="&#xc0;" horiz-adv-x="1515" d="M-39 0l930 1513h170l371 -1513h-166l-125 510h-705l-315 -510h-160zM520 647h588l-164 694zM723 1823l94 119l350 -238l-92 -115z" />
<glyph unicode="&#xc1;" horiz-adv-x="1515" d="M-39 0l930 1513h170l371 -1513h-166l-125 510h-705l-315 -510h-160zM520 647h588l-164 694zM854 1704l438 238l49 -119l-438 -234z" />
<glyph unicode="&#xc2;" horiz-adv-x="1515" d="M-39 0l930 1513h170l371 -1513h-166l-125 510h-705l-315 -510h-160zM520 647h588l-164 694zM633 1616l344 258h135l246 -258h-182l-148 151l-209 -151h-186z" />
<glyph unicode="&#xc3;" horiz-adv-x="1515" d="M-39 0l930 1513h170l371 -1513h-166l-125 510h-705l-315 -510h-160zM520 647h588l-164 694zM721 1743q100 104 182 104q29 0 113 -37.5t102 -37.5q74 0 146 77l43 -94q-82 -113 -189 -113q-55 0 -196 68q-14 8 -35 8q-18 0 -37 -11t-82 -56z" />
<glyph unicode="&#xc4;" horiz-adv-x="1515" d="M-39 0l930 1513h170l371 -1513h-166l-125 510h-705l-315 -510h-160zM520 647h588l-164 694zM766 1616l47 258h152l-47 -258h-152zM1067 1616l47 258h152l-47 -258h-152z" />
<glyph unicode="&#xc5;" horiz-adv-x="1515" d="M-39 0l930 1513h170l371 -1513h-166l-125 510h-705l-315 -510h-160zM520 647h588l-164 694zM811 1726q0 102 72.5 177t173.5 75q80 0 128 -49t48 -129q0 -90 -78 -162.5t-172 -72.5q-74 0 -123 45.5t-49 115.5zM897 1749q0 -41 28.5 -67.5t73.5 -26.5q53 0 100.5 43 t47.5 92q0 41 -31 69.5t-74 28.5q-55 0 -100 -43t-45 -96z" />
<glyph unicode="&#xc6;" horiz-adv-x="2031" d="M-39 0l1327 1513h848l-25 -137h-653l-102 -542h631l-25 -138h-631l-104 -559h653l-25 -137h-804l94 512h-555l-449 -512h-180zM713 649h458l123 670z" />
<glyph unicode="&#xc7;" horiz-adv-x="1665" d="M156 594q0 252 129 470t348 347t471 129q233 0 404 -116.5t210 -303.5h-168q-125 281 -467 281q-197 0 -375 -105.5t-286.5 -283.5t-108.5 -377q0 -227 151.5 -374.5t383.5 -147.5q315 0 575 284h168q-135 -201 -334.5 -311.5t-427.5 -112.5l-36 -71l26 4q29 6 43 6 q76 0 123 -42t47 -112q0 -14 -4 -39q-16 -98 -93 -165.5t-179 -67.5q-150 0 -164 174l110 12q4 -37 21.5 -52t56.5 -15q49 0 84 38t35 93q2 39 -20.5 60.5t-61.5 21.5q-59 0 -104 -39l-58 39l93 159q-266 23 -429 192t-163 425z" />
<glyph unicode="&#xc8;" horiz-adv-x="1097" d="M94 0l281 1513h827l-24 -137h-676l-103 -542h654l-25 -138h-653l-105 -559h676l-24 -137h-828zM535 1823l94 119l350 -238l-92 -115z" />
<glyph unicode="&#xc9;" horiz-adv-x="1097" d="M94 0l281 1513h827l-24 -137h-676l-103 -542h654l-25 -138h-653l-105 -559h676l-24 -137h-828zM668 1704l438 238l49 -119l-438 -234z" />
<glyph unicode="&#xca;" horiz-adv-x="1097" d="M94 0l281 1513h827l-24 -137h-676l-103 -542h654l-25 -138h-653l-105 -559h676l-24 -137h-828zM446 1616l345 258h135l245 -258h-182l-147 151l-209 -151h-187z" />
<glyph unicode="&#xcb;" horiz-adv-x="1097" d="M94 0l281 1513h827l-24 -137h-676l-103 -542h654l-25 -138h-653l-105 -559h676l-24 -137h-828zM578 1616l47 258h151l-47 -258h-151zM879 1616l47 258h151l-47 -258h-151z" />
<glyph unicode="&#xcc;" horiz-adv-x="462" d="M94 0l281 1513h151l-280 -1513h-152zM188 1823l95 119l350 -238l-92 -115z" />
<glyph unicode="&#xcd;" horiz-adv-x="462" d="M94 0l281 1513h151l-280 -1513h-152zM338 1704l438 238l49 -119l-438 -234z" />
<glyph unicode="&#xce;" horiz-adv-x="462" d="M94 0l281 1513h151l-280 -1513h-152zM109 1616l344 258h135l246 -258h-183l-147 151l-209 -151h-186z" />
<glyph unicode="&#xcf;" horiz-adv-x="462" d="M94 0l281 1513h151l-280 -1513h-152zM240 1616l47 258h151l-47 -258h-151zM541 1616l47 258h151l-47 -258h-151z" />
<glyph unicode="&#xd0;" horiz-adv-x="1617" d="M129 711l25 137h190l125 665h356q205 0 332 -27.5t219 -90.5q242 -168 242 -471q0 -442 -338 -715q-139 -111 -299 -160t-385 -49h-408l131 711h-190zM367 137h211q236 0 383 46t264 155q109 100 172 249.5t63 303.5q0 238 -150.5 361.5t-502.5 123.5h-211l-100 -528h422 l-25 -137h-422z" />
<glyph unicode="&#xd1;" horiz-adv-x="1515" d="M94 0l281 1513h205l614 -1255l233 1255h152l-281 -1513h-151l-655 1331l-246 -1331h-152zM721 1743q100 104 182 104q29 0 113 -37.5t102 -37.5q74 0 146 77l43 -94q-82 -113 -189 -113q-55 0 -196 68q-14 8 -35 8q-18 0 -37 -11t-82 -56z" />
<glyph unicode="&#xd2;" horiz-adv-x="1779" d="M156 618q0 236 136 450t360.5 343t469.5 129q272 0 466 -183t194 -464q0 -233 -136.5 -447.5t-360.5 -343.5t-470 -129q-276 0 -467.5 184.5t-191.5 460.5zM313 647q0 -225 152.5 -379.5t374.5 -154.5q305 0 544.5 230t239.5 521q0 233 -151.5 385t-387.5 152 q-293 0 -532.5 -233.5t-239.5 -520.5zM864 1823l94 119l351 -238l-92 -115z" />
<glyph unicode="&#xd3;" horiz-adv-x="1779" d="M156 618q0 236 136 450t360.5 343t469.5 129q272 0 466 -183t194 -464q0 -233 -136.5 -447.5t-360.5 -343.5t-470 -129q-276 0 -467.5 184.5t-191.5 460.5zM313 647q0 -225 152.5 -379.5t374.5 -154.5q305 0 544.5 230t239.5 521q0 233 -151.5 385t-387.5 152 q-293 0 -532.5 -233.5t-239.5 -520.5zM995 1704l439 238l49 -119l-439 -234z" />
<glyph unicode="&#xd4;" horiz-adv-x="1779" d="M156 618q0 236 136 450t360.5 343t469.5 129q272 0 466 -183t194 -464q0 -233 -136.5 -447.5t-360.5 -343.5t-470 -129q-276 0 -467.5 184.5t-191.5 460.5zM313 647q0 -225 152.5 -379.5t374.5 -154.5q305 0 544.5 230t239.5 521q0 233 -151.5 385t-387.5 152 q-293 0 -532.5 -233.5t-239.5 -520.5zM774 1616l344 258h135l246 -258h-182l-148 151l-208 -151h-187z" />
<glyph unicode="&#xd5;" horiz-adv-x="1779" d="M156 618q0 236 136 450t360.5 343t469.5 129q272 0 466 -183t194 -464q0 -233 -136.5 -447.5t-360.5 -343.5t-470 -129q-276 0 -467.5 184.5t-191.5 460.5zM313 647q0 -225 152.5 -379.5t374.5 -154.5q305 0 544.5 230t239.5 521q0 233 -151.5 385t-387.5 152 q-293 0 -532.5 -233.5t-239.5 -520.5zM862 1743q100 104 182 104q29 0 113 -37.5t103 -37.5q74 0 145 77l43 -94q-82 -113 -188 -113q-55 0 -197 68q-14 8 -35 8q-18 0 -36.5 -11t-82.5 -56z" />
<glyph unicode="&#xd6;" horiz-adv-x="1779" d="M156 618q0 236 136 450t360.5 343t469.5 129q272 0 466 -183t194 -464q0 -233 -136.5 -447.5t-360.5 -343.5t-470 -129q-276 0 -467.5 184.5t-191.5 460.5zM313 647q0 -225 152.5 -379.5t374.5 -154.5q305 0 544.5 230t239.5 521q0 233 -151.5 385t-387.5 152 q-293 0 -532.5 -233.5t-239.5 -520.5zM907 1616l47 258h152l-47 -258h-152zM1208 1616l47 258h152l-47 -258h-152z" />
<glyph unicode="&#xd7;" horiz-adv-x="1241" d="M266 217l295 295l-295 295l107 106l295 -295l295 295l106 -106l-295 -295l295 -295l-106 -106l-295 295l-295 -295z" />
<glyph unicode="&#xd8;" horiz-adv-x="1777" d="M86 -86l240 254q-176 172 -176 434q0 244 134 462t352 347t458 129q238 0 407 -115l240 256l92 -88l-234 -250q176 -172 177 -438q0 -236 -135.5 -452.5t-357.5 -348t-462 -131.5q-104 0 -212.5 31t-182.5 82l-242 -256zM307 633q0 -115 24.5 -184.5t100.5 -165.5 l965 1030q-127 88 -324 88q-301 0 -533.5 -239.5t-232.5 -528.5zM530 199q154 -86 310 -86q299 0 538.5 228t239.5 531q0 109 -22.5 176.5t-88.5 159.5l-14 21z" />
<glyph unicode="&#xd9;" horiz-adv-x="1341" d="M182 354q0 90 23 215l174 944h151l-174 -944q-18 -98 -18 -184q0 -121 82 -196.5t213 -75.5q172 0 287.5 112.5t158.5 343.5l174 944h152l-174 -944q-55 -297 -220 -446.5t-405 -149.5q-188 0 -306 106.5t-118 274.5zM639 1823l94 119l350 -238l-92 -115z" />
<glyph unicode="&#xda;" horiz-adv-x="1341" d="M182 354q0 90 23 215l174 944h151l-174 -944q-18 -98 -18 -184q0 -121 82 -196.5t213 -75.5q172 0 287.5 112.5t158.5 343.5l174 944h152l-174 -944q-55 -297 -220 -446.5t-405 -149.5q-188 0 -306 106.5t-118 274.5zM770 1704l438 238l49 -119l-438 -234z" />
<glyph unicode="&#xdb;" horiz-adv-x="1341" d="M182 354q0 90 23 215l174 944h151l-174 -944q-18 -98 -18 -184q0 -121 82 -196.5t213 -75.5q172 0 287.5 112.5t158.5 343.5l174 944h152l-174 -944q-55 -297 -220 -446.5t-405 -149.5q-188 0 -306 106.5t-118 274.5zM549 1616l344 258h135l246 -258h-182l-148 151 l-209 -151h-186z" />
<glyph unicode="&#xdc;" horiz-adv-x="1341" d="M182 354q0 90 23 215l174 944h151l-174 -944q-18 -98 -18 -184q0 -121 82 -196.5t213 -75.5q172 0 287.5 112.5t158.5 343.5l174 944h152l-174 -944q-55 -297 -220 -446.5t-405 -149.5q-188 0 -306 106.5t-118 274.5zM682 1616l47 258h152l-47 -258h-152zM983 1616 l47 258h152l-47 -258h-152z" />
<glyph unicode="&#xdd;" horiz-adv-x="1212" d="M223 1513h168l273 -847l598 847h165l-714 -1007l-95 -506h-151l94 506zM702 1704l439 238l49 -119l-438 -234z" />
<glyph unicode="&#xde;" horiz-adv-x="1212" d="M94 0l281 1513h151l-55 -301h266q268 0 387 -80.5t119 -261.5q0 -117 -42 -226t-118 -185q-80 -80 -192.5 -114t-298.5 -34h-289l-57 -311h-152zM328 449h280q147 0 232.5 24.5t140.5 83.5q47 51 75.5 129t28.5 156q0 131 -96 188q-74 45 -330 45h-215z" />
<glyph unicode="&#xdf;" horiz-adv-x="1134" d="M59 0l183 985q55 287 184 421t338 134q158 0 256 -93t98 -243q0 -270 -235 -407q213 -74 213 -295q0 -215 -149.5 -372t-356.5 -157q-262 0 -338 250l-41 -223h-152zM289 416h104q-8 -41 -8 -64q0 -106 62.5 -172.5t162.5 -66.5q131 0 229.5 107.5t98.5 250.5 q0 109 -85 170t-239 61q-43 0 -88 -4l27 138h31q162 0 269.5 100t107.5 240q0 102 -61.5 163.5t-162.5 61.5q-139 0 -222 -99.5t-122 -316.5z" />
<glyph unicode="&#xe0;" d="M119 442q0 285 211 495t497 210q285 0 400 -225l37 198h151l-207 -1120h-151l37 197q-125 -127 -227.5 -175.5t-245.5 -48.5q-225 0 -363.5 129t-138.5 340zM276 481q0 -164 103.5 -266t271.5 -102q205 0 361.5 163.5t156.5 376.5q0 154 -101 254.5t-255 100.5 q-213 0 -375 -159t-162 -368zM573 1450l95 119l350 -238l-92 -114z" />
<glyph unicode="&#xe1;" d="M119 442q0 285 211 495t497 210q285 0 400 -225l37 198h151l-207 -1120h-151l37 197q-125 -127 -227.5 -175.5t-245.5 -48.5q-225 0 -363.5 129t-138.5 340zM276 481q0 -164 103.5 -266t271.5 -102q205 0 361.5 163.5t156.5 376.5q0 154 -101 254.5t-255 100.5 q-213 0 -375 -159t-162 -368zM705 1331l438 238l49 -119l-438 -233z" />
<glyph unicode="&#xe2;" d="M119 442q0 285 211 495t497 210q285 0 400 -225l37 198h151l-207 -1120h-151l37 197q-125 -127 -227.5 -175.5t-245.5 -48.5q-225 0 -363.5 129t-138.5 340zM276 481q0 -164 103.5 -266t271.5 -102q205 0 361.5 163.5t156.5 376.5q0 154 -101 254.5t-255 100.5 q-213 0 -375 -159t-162 -368zM481 1243l344 258h136l245 -258h-182l-147 152l-209 -152h-187z" />
<glyph unicode="&#xe3;" d="M119 442q0 285 211 495t497 210q285 0 400 -225l37 198h151l-207 -1120h-151l37 197q-125 -127 -227.5 -175.5t-245.5 -48.5q-225 0 -363.5 129t-138.5 340zM276 481q0 -164 103.5 -266t271.5 -102q205 0 361.5 163.5t156.5 376.5q0 154 -101 254.5t-255 100.5 q-213 0 -375 -159t-162 -368zM567 1370q100 104 183 105q29 0 112.5 -38t102.5 -38q74 0 145 78l43 -95q-82 -113 -188 -112q-55 0 -197 67q-14 8 -35 9q-18 0 -36.5 -11.5t-82.5 -56.5z" />
<glyph unicode="&#xe4;" d="M119 442q0 285 211 495t497 210q285 0 400 -225l37 198h151l-207 -1120h-151l37 197q-125 -127 -227.5 -175.5t-245.5 -48.5q-225 0 -363.5 129t-138.5 340zM276 481q0 -164 103.5 -266t271.5 -102q205 0 361.5 163.5t156.5 376.5q0 154 -101 254.5t-255 100.5 q-213 0 -375 -159t-162 -368zM614 1243l48 258h151l-47 -258h-152zM915 1243l48 258h151l-47 -258h-152z" />
<glyph unicode="&#xe5;" d="M119 442q0 285 211 495t497 210q285 0 400 -225l37 198h151l-207 -1120h-151l37 197q-125 -127 -227.5 -175.5t-245.5 -48.5q-225 0 -363.5 129t-138.5 340zM276 481q0 -164 103.5 -266t271.5 -102q205 0 361.5 163.5t156.5 376.5q0 154 -101 254.5t-255 100.5 q-213 0 -375 -159t-162 -368zM662 1348q0 102 72.5 176.5t172.5 74.5q78 0 126 -49t48 -129q0 -90 -77.5 -162.5t-172.5 -72.5q-74 0 -121.5 46t-47.5 116zM748 1370q0 -41 27.5 -67.5t72.5 -26.5q53 0 101 43t48 92q0 41 -30.5 69.5t-75.5 28.5q-53 0 -98 -43t-45 -96z" />
<glyph unicode="&#xe6;" horiz-adv-x="2369" d="M119 449q0 268 211 483t493 215q295 0 406 -221l37 194h145l-37 -194q215 221 481 221q213 0 348.5 -130t135.5 -335q0 -82 -21 -176h-1013q-2 -20 -2 -45q0 -147 107.5 -247.5t264.5 -100.5q127 0 248 69.5t184 182.5h158q-74 -162 -255 -277t-363 -115q-262 0 -410 215 l-35 -188h-145l35 188q-209 -215 -478 -215q-223 0 -359 131.5t-136 344.5zM276 473q0 -158 102.5 -259t260.5 -101q213 0 375 162.5t162 377.5q0 158 -101.5 256.5t-263.5 98.5q-219 0 -377 -162t-158 -373zM1337 643h861q-2 168 -100.5 266.5t-262.5 98.5 q-166 0 -307.5 -103.5t-190.5 -261.5z" />
<glyph unicode="&#xe7;" horiz-adv-x="1325" d="M119 455q0 272 217 482t500 210q193 0 324.5 -98.5t168.5 -268.5h-170q-41 109 -132 168.5t-216 59.5q-213 0 -374 -160t-161 -371q0 -160 105.5 -262t269.5 -102q125 0 210 43t216 174h170q-139 -190 -283.5 -271.5t-318.5 -85.5l-37 -71l27 4q29 6 43 6q76 0 123 -42 t47 -112q0 -14 -4 -39q-16 -98 -93 -165.5t-180 -67.5q-150 0 -163 174l110 12q4 -37 21.5 -52t56.5 -15q49 0 84 38t35 93q2 39 -20.5 60.5t-61.5 21.5q-59 0 -105 -39l-57 39l92 159q-201 20 -322.5 149.5t-121.5 328.5z" />
<glyph unicode="&#xe8;" horiz-adv-x="1331" d="M119 451q0 276 210 486t486 210q213 0 349 -131t136 -336q0 -66 -18 -170h-1014q-4 -49 -4 -57q0 -143 106.5 -241.5t260.5 -98.5q125 0 249 71.5t189 184.5h158q-98 -180 -267 -288t-356 -108q-209 0 -347 136.5t-138 341.5zM299 647h858q-8 166 -107.5 263.5 t-261.5 97.5q-160 0 -297 -101.5t-192 -259.5zM561 1450l94 119l351 -238l-93 -114z" />
<glyph unicode="&#xe9;" horiz-adv-x="1331" d="M119 451q0 276 210 486t486 210q213 0 349 -131t136 -336q0 -66 -18 -170h-1014q-4 -49 -4 -57q0 -143 106.5 -241.5t260.5 -98.5q125 0 249 71.5t189 184.5h158q-98 -180 -267 -288t-356 -108q-209 0 -347 136.5t-138 341.5zM299 647h858q-8 166 -107.5 263.5 t-261.5 97.5q-160 0 -297 -101.5t-192 -259.5zM692 1331l438 238l50 -119l-439 -233z" />
<glyph unicode="&#xea;" horiz-adv-x="1331" d="M119 451q0 276 210 486t486 210q213 0 349 -131t136 -336q0 -66 -18 -170h-1014q-4 -49 -4 -57q0 -143 106.5 -241.5t260.5 -98.5q125 0 249 71.5t189 184.5h158q-98 -180 -267 -288t-356 -108q-209 0 -347 136.5t-138 341.5zM299 647h858q-8 166 -107.5 263.5 t-261.5 97.5q-160 0 -297 -101.5t-192 -259.5zM469 1243l344 258h135l246 -258h-182l-148 152l-209 -152h-186z" />
<glyph unicode="&#xeb;" horiz-adv-x="1331" d="M119 451q0 276 210 486t486 210q213 0 349 -131t136 -336q0 -66 -18 -170h-1014q-4 -49 -4 -57q0 -143 106.5 -241.5t260.5 -98.5q125 0 249 71.5t189 184.5h158q-98 -180 -267 -288t-356 -108q-209 0 -347 136.5t-138 341.5zM299 647h858q-8 166 -107.5 263.5 t-261.5 97.5q-160 0 -297 -101.5t-192 -259.5zM602 1243l47 258h152l-47 -258h-152zM903 1243l47 258h152l-47 -258h-152z" />
<glyph unicode="&#xec;" horiz-adv-x="409" d="M68 0l206 1120h152l-207 -1120h-151zM92 1450l94 119l351 -238l-93 -114z" />
<glyph unicode="&#xed;" horiz-adv-x="409" d="M68 0l206 1120h152l-207 -1120h-151zM242 1331l438 238l49 -119l-438 -233z" />
<glyph unicode="&#xee;" horiz-adv-x="409" d="M10 1243l344 258h135l246 -258h-182l-147 152l-209 -152h-187zM68 0l206 1120h152l-207 -1120h-151z" />
<glyph unicode="&#xef;" horiz-adv-x="409" d="M68 0l206 1120h152l-207 -1120h-151zM143 1243l47 258h152l-47 -258h-152zM444 1243l48 258h151l-47 -258h-152z" />
<glyph unicode="&#xf0;" horiz-adv-x="1341" d="M117 451q0 274 206.5 482t479.5 208q90 0 186 -35l-151 188l-195 -82l-57 93l176 75l-94 93l112 75q20 -16 119 -112l205 82l59 -93l-190 -75q344 -354 344 -641q0 -305 -204 -520.5t-495 -215.5q-227 0 -364 130.5t-137 347.5zM274 469q0 -162 101.5 -259t269.5 -97 q211 0 362.5 158.5t151.5 381.5q0 158 -97 256.5t-253 98.5q-217 0 -376 -160t-159 -379z" />
<glyph unicode="&#xf1;" horiz-adv-x="1249" d="M68 0l206 1120h152l-27 -145q178 172 385 172q184 0 293 -100.5t109 -270.5q0 -72 -23 -188l-108 -588h-152l109 588q16 92 16 151q0 123 -77 196t-208 73q-156 0 -264 -96.5t-145 -295.5l-115 -616h-151zM514 1370q100 104 182 105q29 0 113 -38t102 -38q74 0 146 78 l43 -95q-82 -113 -189 -112q-55 0 -196 67q-14 8 -35 9q-18 0 -36.5 -11.5t-82.5 -56.5z" />
<glyph unicode="&#xf2;" horiz-adv-x="1341" d="M117 440q0 289 215 498t497 209q213 0 346.5 -129t133.5 -338q0 -287 -209 -497t-479 -210q-223 0 -363.5 130t-140.5 337zM274 467q0 -158 101.5 -256t265.5 -98q213 0 361.5 160.5t148.5 392.5q0 150 -98.5 246t-249.5 96q-215 0 -372 -161t-157 -380zM575 1450l95 119 l350 -238l-92 -114z" />
<glyph unicode="&#xf3;" horiz-adv-x="1341" d="M117 440q0 289 215 498t497 209q213 0 346.5 -129t133.5 -338q0 -287 -209 -497t-479 -210q-223 0 -363.5 130t-140.5 337zM274 467q0 -158 101.5 -256t265.5 -98q213 0 361.5 160.5t148.5 392.5q0 150 -98.5 246t-249.5 96q-215 0 -372 -161t-157 -380zM707 1331 l438 238l49 -119l-438 -233z" />
<glyph unicode="&#xf4;" horiz-adv-x="1341" d="M117 440q0 289 215 498t497 209q213 0 346.5 -129t133.5 -338q0 -287 -209 -497t-479 -210q-223 0 -363.5 130t-140.5 337zM274 467q0 -158 101.5 -256t265.5 -98q213 0 361.5 160.5t148.5 392.5q0 150 -98.5 246t-249.5 96q-215 0 -372 -161t-157 -380zM483 1243 l344 258h136l245 -258h-182l-147 152l-209 -152h-187z" />
<glyph unicode="&#xf5;" horiz-adv-x="1341" d="M117 440q0 289 215 498t497 209q213 0 346.5 -129t133.5 -338q0 -287 -209 -497t-479 -210q-223 0 -363.5 130t-140.5 337zM274 467q0 -158 101.5 -256t265.5 -98q213 0 361.5 160.5t148.5 392.5q0 150 -98.5 246t-249.5 96q-215 0 -372 -161t-157 -380zM569 1370 q100 104 183 105q29 0 112.5 -38t102.5 -38q74 0 145 78l43 -95q-82 -113 -188 -112q-55 0 -197 67q-14 8 -35 9q-18 0 -36.5 -11.5t-82.5 -56.5z" />
<glyph unicode="&#xf6;" horiz-adv-x="1341" d="M117 440q0 289 215 498t497 209q213 0 346.5 -129t133.5 -338q0 -287 -209 -497t-479 -210q-223 0 -363.5 130t-140.5 337zM274 467q0 -158 101.5 -256t265.5 -98q213 0 361.5 160.5t148.5 392.5q0 150 -98.5 246t-249.5 96q-215 0 -372 -161t-157 -380zM616 1243l48 258 h151l-47 -258h-152zM918 1243l47 258h151l-47 -258h-151z" />
<glyph unicode="&#xf7;" horiz-adv-x="1241" d="M176 436v152h983v-152h-983zM539 133q0 53 37.5 91t91 38t91.5 -38t38 -91t-38 -91t-91.5 -38t-91 38t-37.5 91zM539 891q0 53 37.5 91t91 38t91.5 -38t38 -91t-38 -91t-91.5 -38t-91 38t-37.5 91z" />
<glyph unicode="&#xf8;" horiz-adv-x="1337" d="M94 4l127 135q-57 84 -78.5 149.5t-21.5 149.5q0 190 104.5 356.5t265 259.5t328.5 93q170 0 289 -84l143 151l95 -86l-144 -149q106 -113 107 -283q0 -295 -206 -509t-491 -214q-168 0 -297 84l-129 -135zM279 461q0 -113 47 -213l680 710q-92 49 -197 50 q-205 0 -367.5 -168t-162.5 -379zM416 162q82 -33 111.5 -41t84.5 -8q229 0 384 164.5t155 410.5q0 92 -51 184z" />
<glyph unicode="&#xf9;" horiz-adv-x="1245" d="M141 317q0 96 19 199l112 604h152l-113 -604q-12 -53 -12 -137q0 -127 69.5 -196.5t204.5 -69.5q158 0 271.5 103t156.5 329l109 575h152l-209 -1120h-152l33 174q-82 -109 -175 -155t-227 -46q-178 0 -284.5 93t-106.5 251zM518 1450l94 119l351 -238l-93 -114z" />
<glyph unicode="&#xfa;" horiz-adv-x="1245" d="M141 317q0 96 19 199l112 604h152l-113 -604q-12 -53 -12 -137q0 -127 69.5 -196.5t204.5 -69.5q158 0 271.5 103t156.5 329l109 575h152l-209 -1120h-152l33 174q-82 -109 -175 -155t-227 -46q-178 0 -284.5 93t-106.5 251zM649 1331l438 238l50 -119l-439 -233z" />
<glyph unicode="&#xfb;" horiz-adv-x="1245" d="M141 317q0 96 19 199l112 604h152l-113 -604q-12 -53 -12 -137q0 -127 69.5 -196.5t204.5 -69.5q158 0 271.5 103t156.5 329l109 575h152l-209 -1120h-152l33 174q-82 -109 -175 -155t-227 -46q-178 0 -284.5 93t-106.5 251zM426 1243l344 258h135l246 -258h-182 l-148 152l-209 -152h-186z" />
<glyph unicode="&#xfc;" horiz-adv-x="1245" d="M141 317q0 96 19 199l112 604h152l-113 -604q-12 -53 -12 -137q0 -127 69.5 -196.5t204.5 -69.5q158 0 271.5 103t156.5 329l109 575h152l-209 -1120h-152l33 174q-82 -109 -175 -155t-227 -46q-178 0 -284.5 93t-106.5 251zM559 1243l47 258h152l-47 -258h-152z M860 1243l47 258h152l-47 -258h-152z" />
<glyph unicode="&#xfd;" horiz-adv-x="1097" d="M137 -393l260 430l-233 1083h166l188 -893l545 893h162l-928 -1513h-160zM580 1331l438 238l49 -119l-438 -233z" />
<glyph unicode="&#xfe;" horiz-adv-x="1396" d="M-6 -393l354 1906h152l-109 -585q76 100 205 159.5t274 59.5q221 0 356.5 -133t135.5 -348q0 -272 -214 -482.5t-493 -210.5q-287 0 -401 220l-109 -586h-151zM301 465q0 -152 104.5 -252t260.5 -100q207 0 372.5 156.5t165.5 379.5q0 158 -103.5 258.5t-264.5 100.5 q-201 0 -368 -157t-167 -386z" />
<glyph unicode="&#xff;" horiz-adv-x="1097" d="M137 -393l260 430l-233 1083h166l188 -893l545 893h162l-928 -1513h-160zM489 1243l48 258h151l-47 -258h-152zM791 1243l47 258h151l-47 -258h-151z" />
<glyph unicode="&#x100;" horiz-adv-x="1515" d="M-39 0l930 1513h170l371 -1513h-166l-125 510h-705l-315 -510h-160zM520 647h588l-164 694zM662 1681l24 127h690l-24 -127h-690z" />
<glyph unicode="&#x101;" d="M119 442q0 285 211 495t497 210q285 0 400 -225l37 198h151l-207 -1120h-151l37 197q-125 -127 -227.5 -175.5t-245.5 -48.5q-225 0 -363.5 129t-138.5 340zM276 481q0 -164 103.5 -266t271.5 -102q205 0 361.5 163.5t156.5 376.5q0 154 -101 254.5t-255 100.5 q-213 0 -375 -159t-162 -368zM510 1309l25 127h690l-25 -127h-690z" />
<glyph unicode="&#x102;" horiz-adv-x="1515" d="M-39 0l930 1513h170l371 -1513h-166l-125 510h-705l-315 -510h-160zM520 647h588l-164 694zM729 1866h131q8 -74 46 -100.5t120 -26.5q78 0 137.5 33.5t79.5 93.5h109q-72 -240 -353 -240q-127 0 -195.5 54.5t-74.5 185.5z" />
<glyph unicode="&#x103;" d="M119 442q0 285 211 495t497 210q285 0 400 -225l37 198h151l-207 -1120h-151l37 197q-125 -127 -227.5 -175.5t-245.5 -48.5q-225 0 -363.5 129t-138.5 340zM276 481q0 -164 103.5 -266t271.5 -102q205 0 361.5 163.5t156.5 376.5q0 154 -101 254.5t-255 100.5 q-213 0 -375 -159t-162 -368zM567 1493h131q8 -74 46 -100.5t120 -26.5q78 0 137.5 34t79.5 93h109q-72 -240 -352 -240q-127 0 -196 54.5t-75 185.5z" />
<glyph unicode="&#x104;" horiz-adv-x="1515" d="M-39 0l930 1513h170l371 -1513q-94 -47 -151.5 -114.5t-57.5 -123.5q0 -123 73 -122q59 0 103 8l-29 -152q-55 -8 -123 -8q-94 0 -137 63.5t-43 147.5q0 90 55 164q59 82 144 137l-125 510h-705l-315 -510h-160zM520 647h588l-164 694z" />
<glyph unicode="&#x105;" d="M119 442q0 285 211 495t497 210q285 0 400 -225l37 198h151l-207 -1120q-94 -47 -151.5 -114.5t-57.5 -123.5q0 -123 74 -122q59 0 103 8l-29 -152q-55 -8 -123 -8q-94 0 -137 63.5t-43 147.5q0 166 213 301l37 197q-125 -127 -227.5 -175.5t-245.5 -48.5 q-225 0 -363.5 129t-138.5 340zM276 481q0 -164 103.5 -266t271.5 -102q205 0 361.5 163.5t156.5 376.5q0 154 -101 254.5t-255 100.5q-213 0 -375 -159t-162 -368z" />
<glyph unicode="&#x106;" horiz-adv-x="1665" d="M156 594q0 252 129 470t348 347t471 129q233 0 404 -116.5t210 -303.5h-168q-125 281 -467 281q-197 0 -375 -105.5t-286.5 -283.5t-108.5 -377q0 -227 151.5 -374.5t383.5 -147.5q315 0 575 284h168q-137 -201 -337.5 -312.5t-430.5 -111.5q-297 0 -482 173.5 t-185 447.5zM977 1704l438 238l49 -119l-438 -234z" />
<glyph unicode="&#x107;" horiz-adv-x="1325" d="M119 455q0 272 217 482t500 210q193 0 324.5 -98.5t168.5 -268.5h-170q-41 109 -132 168.5t-216 59.5q-213 0 -374 -160t-161 -371q0 -160 105.5 -262t269.5 -102q125 0 210 43t216 174h170q-143 -195 -289.5 -276t-324.5 -81q-229 0 -371.5 133.5t-142.5 348.5z M713 1331l438 238l49 -119l-438 -233z" />
<glyph unicode="&#x108;" horiz-adv-x="1665" d="M156 594q0 252 129 470t348 347t471 129q233 0 404 -116.5t210 -303.5h-168q-125 281 -467 281q-197 0 -375 -105.5t-286.5 -283.5t-108.5 -377q0 -227 151.5 -374.5t383.5 -147.5q315 0 575 284h168q-137 -201 -337.5 -312.5t-430.5 -111.5q-297 0 -482 173.5 t-185 447.5zM756 1616l344 258h135l246 -258h-183l-147 151l-209 -151h-186z" />
<glyph unicode="&#x109;" horiz-adv-x="1325" d="M119 455q0 272 217 482t500 210q193 0 324.5 -98.5t168.5 -268.5h-170q-41 109 -132 168.5t-216 59.5q-213 0 -374 -160t-161 -371q0 -160 105.5 -262t269.5 -102q125 0 210 43t216 174h170q-143 -195 -289.5 -276t-324.5 -81q-229 0 -371.5 133.5t-142.5 348.5z M489 1243l345 258h135l245 -258h-182l-147 152l-209 -152h-187z" />
<glyph unicode="&#x10a;" horiz-adv-x="1665" d="M156 594q0 252 129 470t348 347t471 129q233 0 404 -116.5t210 -303.5h-168q-125 281 -467 281q-197 0 -375 -105.5t-286.5 -283.5t-108.5 -377q0 -227 151.5 -374.5t383.5 -147.5q315 0 575 284h168q-137 -201 -337.5 -312.5t-430.5 -111.5q-297 0 -482 173.5 t-185 447.5zM1042 1616l48 258h151l-47 -258h-152z" />
<glyph unicode="&#x10b;" horiz-adv-x="1325" d="M119 455q0 272 217 482t500 210q193 0 324.5 -98.5t168.5 -268.5h-170q-41 109 -132 168.5t-216 59.5q-213 0 -374 -160t-161 -371q0 -160 105.5 -262t269.5 -102q125 0 210 43t216 174h170q-143 -195 -289.5 -276t-324.5 -81q-229 0 -371.5 133.5t-142.5 348.5z M778 1243l47 258h152l-47 -258h-152z" />
<glyph unicode="&#x10c;" horiz-adv-x="1665" d="M156 594q0 252 129 470t348 347t471 129q233 0 404 -116.5t210 -303.5h-168q-125 281 -467 281q-197 0 -375 -105.5t-286.5 -283.5t-108.5 -377q0 -227 151.5 -374.5t383.5 -147.5q315 0 575 284h168q-137 -201 -337.5 -312.5t-430.5 -111.5q-297 0 -482 173.5 t-185 447.5zM803 1874h182l148 -152l208 152h187l-344 -258h-135z" />
<glyph unicode="&#x10d;" horiz-adv-x="1325" d="M119 455q0 272 217 482t500 210q193 0 324.5 -98.5t168.5 -268.5h-170q-41 109 -132 168.5t-216 59.5q-213 0 -374 -160t-161 -371q0 -160 105.5 -262t269.5 -102q125 0 210 43t216 174h170q-143 -195 -289.5 -276t-324.5 -81q-229 0 -371.5 133.5t-142.5 348.5z M539 1501h182l147 -151l209 151h187l-344 -258h-136z" />
<glyph unicode="&#x10e;" horiz-adv-x="1523" d="M94 0l281 1513h356q381 0 551 -118q242 -166 242 -477q0 -209 -88 -393.5t-250 -315.5q-139 -111 -299 -160t-385 -49h-408zM270 137h211q238 0 385.5 46t263.5 155q109 100 172.5 249.5t63.5 303.5q0 238 -150.5 361.5t-502.5 123.5h-211zM543 1874h182l147 -152 l209 152h187l-344 -258h-136z" />
<glyph unicode="&#x10f;" horiz-adv-x="1402" d="M119 444q0 281 215 492t502 211q260 0 399 -205l106 571h152l-281 -1513h-151l37 203q-109 -123 -218.5 -176.5t-254.5 -53.5q-219 0 -362.5 133t-143.5 338zM276 483q0 -166 104.5 -268t274.5 -102q203 0 364 164.5t161 373.5q0 154 -107.5 255.5t-269.5 101.5 q-207 0 -367 -160t-160 -365zM1554 1147l172 366h152l-178 -366h-146z" />
<glyph unicode="&#x110;" horiz-adv-x="1617" d="M129 711l25 137h190l125 665h356q205 0 332 -27.5t219 -90.5q242 -168 242 -471q0 -442 -338 -715q-139 -111 -299 -160t-385 -49h-408l131 711h-190zM367 137h211q236 0 383 46t264 155q109 100 172 249.5t63 303.5q0 238 -150.5 361.5t-502.5 123.5h-211l-100 -528h422 l-25 -137h-422z" />
<glyph unicode="&#x111;" horiz-adv-x="1402" d="M119 444q0 281 215 492t502 211q260 0 399 -205l55 291h-311l25 129h311l26 151h152l-29 -151h129l-22 -129h-129l-230 -1233h-151l37 203q-109 -123 -218.5 -176.5t-254.5 -53.5q-219 0 -362.5 133t-143.5 338zM276 483q0 -166 104.5 -268t274.5 -102q203 0 364 164.5 t161 373.5q0 152 -107.5 254.5t-269.5 102.5q-207 0 -367 -160t-160 -365z" />
<glyph unicode="&#x112;" horiz-adv-x="1097" d="M94 0l281 1513h827l-24 -137h-676l-103 -542h654l-25 -138h-653l-105 -559h676l-24 -137h-828zM473 1681l25 127h690l-25 -127h-690z" />
<glyph unicode="&#x113;" horiz-adv-x="1331" d="M119 451q0 276 210 486t486 210q213 0 349 -131t136 -336q0 -66 -18 -170h-1014q-4 -49 -4 -57q0 -143 106.5 -241.5t260.5 -98.5q125 0 249 71.5t189 184.5h158q-98 -180 -267 -288t-356 -108q-209 0 -347 136.5t-138 341.5zM299 647h858q-8 166 -107.5 263.5 t-261.5 97.5q-160 0 -297 -101.5t-192 -259.5zM498 1309l24 127h690l-24 -127h-690z" />
<glyph unicode="&#x114;" horiz-adv-x="1097" d="M94 0l281 1513h827l-24 -137h-676l-103 -542h654l-25 -138h-653l-105 -559h676l-24 -137h-828zM543 1866h131q8 -74 46 -100.5t120 -26.5q78 0 137 33.5t80 93.5h108q-72 -240 -352 -240q-127 0 -195.5 54.5t-74.5 185.5z" />
<glyph unicode="&#x115;" horiz-adv-x="1331" d="M119 451q0 276 210 486t486 210q213 0 349 -131t136 -336q0 -66 -18 -170h-1014q-4 -49 -4 -57q0 -143 106.5 -241.5t260.5 -98.5q125 0 249 71.5t189 184.5h158q-98 -180 -267 -288t-356 -108q-209 0 -347 136.5t-138 341.5zM299 647h858q-8 166 -107.5 263.5 t-261.5 97.5q-160 0 -297 -101.5t-192 -259.5zM555 1493h131q8 -74 46 -100.5t120 -26.5q78 0 137.5 34t79.5 93h109q-72 -240 -353 -240q-127 0 -195.5 54.5t-74.5 185.5z" />
<glyph unicode="&#x116;" horiz-adv-x="1097" d="M94 0l281 1513h827l-24 -137h-676l-103 -542h654l-25 -138h-653l-105 -559h676l-24 -137h-828zM733 1616l47 258h152l-47 -258h-152z" />
<glyph unicode="&#x117;" horiz-adv-x="1331" d="M119 451q0 276 210 486t486 210q213 0 349 -131t136 -336q0 -66 -18 -170h-1014q-4 -49 -4 -57q0 -143 106.5 -241.5t260.5 -98.5q125 0 249 71.5t189 184.5h158q-98 -180 -267 -288t-356 -108q-209 0 -347 136.5t-138 341.5zM299 647h858q-8 166 -107.5 263.5 t-261.5 97.5q-160 0 -297 -101.5t-192 -259.5zM758 1243l47 258h151l-47 -258h-151z" />
<glyph unicode="&#x118;" horiz-adv-x="1097" d="M94 0l281 1513h827l-24 -137h-676l-103 -542h654l-25 -138h-653l-105 -559h676l-24 -137q-94 -47 -151.5 -114.5t-57.5 -123.5q0 -123 73 -122q59 0 103 8l-27 -152q-57 -8 -123 -8q-94 0 -138 63.5t-44 147.5q0 166 213 301h-676z" />
<glyph unicode="&#x119;" horiz-adv-x="1331" d="M119 451q0 276 210 486t486 210q213 0 349 -131t136 -336q0 -66 -18 -170h-1014q-4 -49 -4 -57q0 -143 106.5 -241.5t260.5 -98.5q125 0 249 71.5t189 184.5h158q-109 -201 -301 -308l-114 -67q-34 -20 -93.5 -64.5t-84 -84.5t-24.5 -83q0 -123 74 -122q59 0 102 8 l-28 -152q-55 -8 -123 -8q-94 0 -137 63.5t-43 147.5q0 152 174 274h-25q-209 0 -347 136.5t-138 341.5zM299 647h858q-8 166 -107.5 263.5t-261.5 97.5q-160 0 -297 -101.5t-192 -259.5z" />
<glyph unicode="&#x11a;" horiz-adv-x="1097" d="M94 0l281 1513h827l-24 -137h-676l-103 -542h654l-25 -138h-653l-105 -559h676l-24 -137h-828zM494 1874h182l147 -152l209 152h187l-345 -258h-135z" />
<glyph unicode="&#x11b;" horiz-adv-x="1331" d="M119 451q0 276 210 486t486 210q213 0 349 -131t136 -336q0 -66 -18 -170h-1014q-4 -49 -4 -57q0 -143 106.5 -241.5t260.5 -98.5q125 0 249 71.5t189 184.5h158q-98 -180 -267 -288t-356 -108q-209 0 -347 136.5t-138 341.5zM299 647h858q-8 166 -107.5 263.5 t-261.5 97.5q-160 0 -297 -101.5t-192 -259.5zM518 1501h182l148 -151l209 151h186l-344 -258h-135z" />
<glyph unicode="&#x11c;" horiz-adv-x="1785" d="M158 614q0 180 78.5 350.5t208.5 296t307.5 202.5t363.5 77q248 0 422 -117.5t217 -312.5h-172q-47 133 -175 212t-298 79q-322 0 -558.5 -227.5t-236.5 -534.5q0 -238 157 -382t398 -144q215 0 404.5 122.5t288.5 325.5h-848l24 137h1030q-76 -301 -340 -513t-577 -212 q-305 0 -499.5 179t-194.5 462zM768 1616l344 258h135l246 -258h-182l-148 151l-209 -151h-186z" />
<glyph unicode="&#x11d;" horiz-adv-x="1378" d="M61 -35h148q68 -158 143.5 -212t218.5 -54q199 0 325 114.5t167 338.5l14 75q-166 -254 -473 -254q-213 0 -350 133.5t-137 342.5q0 276 211 487t483 211q137 0 224 -46t171 -179l37 198h152l-172 -919q-35 -180 -72 -270.5t-113 -170.5q-188 -201 -495 -200 q-203 0 -325 96t-157 309zM274 483q0 -160 92.5 -265t262.5 -105q205 0 363.5 164.5t158.5 388.5q0 147 -103.5 244.5t-259.5 97.5q-197 0 -355.5 -156t-158.5 -369zM465 1243l344 258h135l246 -258h-182l-148 152l-209 -152h-186z" />
<glyph unicode="&#x11e;" horiz-adv-x="1785" d="M158 614q0 180 78.5 350.5t208.5 296t307.5 202.5t363.5 77q248 0 422 -117.5t217 -312.5h-172q-47 133 -175 212t-298 79q-322 0 -558.5 -227.5t-236.5 -534.5q0 -238 157 -382t398 -144q215 0 404.5 122.5t288.5 325.5h-848l24 137h1030q-76 -301 -340 -513t-577 -212 q-305 0 -499.5 179t-194.5 462zM864 1866h131q8 -74 46 -100.5t120 -26.5q78 0 137.5 33.5t79.5 93.5h109q-72 -240 -352 -240q-127 0 -196 54.5t-75 185.5z" />
<glyph unicode="&#x11f;" horiz-adv-x="1378" d="M61 -35h148q68 -158 143.5 -212t218.5 -54q199 0 325 114.5t167 338.5l14 75q-166 -254 -473 -254q-213 0 -350 133.5t-137 342.5q0 276 211 487t483 211q137 0 224 -46t171 -179l37 198h152l-172 -919q-35 -180 -72 -270.5t-113 -170.5q-188 -201 -495 -200 q-203 0 -325 96t-157 309zM274 483q0 -160 92.5 -265t262.5 -105q205 0 363.5 164.5t158.5 388.5q0 147 -103.5 244.5t-259.5 97.5q-197 0 -355.5 -156t-158.5 -369zM551 1493h131q8 -74 46 -100.5t120 -26.5q78 0 137 34t80 93h109q-72 -240 -353 -240q-127 0 -195.5 54.5 t-74.5 185.5z" />
<glyph unicode="&#x120;" horiz-adv-x="1785" d="M158 614q0 180 78.5 350.5t208.5 296t307.5 202.5t363.5 77q248 0 422 -117.5t217 -312.5h-172q-47 133 -175 212t-298 79q-322 0 -558.5 -227.5t-236.5 -534.5q0 -238 157 -382t398 -144q215 0 404.5 122.5t288.5 325.5h-848l24 137h1030q-76 -301 -340 -513t-577 -212 q-305 0 -499.5 179t-194.5 462zM1055 1616l47 258h151l-47 -258h-151z" />
<glyph unicode="&#x121;" horiz-adv-x="1378" d="M61 -35h148q68 -158 143.5 -212t218.5 -54q199 0 325 114.5t167 338.5l14 75q-166 -254 -473 -254q-213 0 -350 133.5t-137 342.5q0 276 211 487t483 211q137 0 224 -46t171 -179l37 198h152l-172 -919q-35 -180 -72 -270.5t-113 -170.5q-188 -201 -495 -200 q-203 0 -325 96t-157 309zM274 483q0 -160 92.5 -265t262.5 -105q205 0 363.5 164.5t158.5 388.5q0 147 -103.5 244.5t-259.5 97.5q-197 0 -355.5 -156t-158.5 -369zM754 1243l47 258h151l-47 -258h-151z" />
<glyph unicode="&#x122;" horiz-adv-x="1785" d="M158 614q0 180 78.5 350.5t208.5 296t307.5 202.5t363.5 77q248 0 422 -117.5t217 -312.5h-172q-47 133 -175 212t-298 79q-322 0 -558.5 -227.5t-236.5 -534.5q0 -238 157 -382t398 -144q215 0 404.5 122.5t288.5 325.5h-848l24 137h1030q-76 -301 -340 -513t-577 -212 q-305 0 -499.5 179t-194.5 462zM606 -475l172 366h152l-178 -366h-146z" />
<glyph unicode="&#x123;" horiz-adv-x="1378" d="M61 -35h148q68 -158 143.5 -212t218.5 -54q199 0 325 114.5t167 338.5l14 75q-166 -254 -473 -254q-213 0 -350 133.5t-137 342.5q0 276 211 487t483 211q137 0 224 -46t171 -179l37 198h152l-172 -919q-35 -180 -72 -270.5t-113 -170.5q-188 -201 -495 -200 q-203 0 -325 96t-157 309zM274 483q0 -160 92.5 -265t262.5 -105q205 0 363.5 164.5t158.5 388.5q0 147 -103.5 244.5t-259.5 97.5q-197 0 -355.5 -156t-158.5 -369zM702 1255l179 367h145l-172 -367h-152z" />
<glyph unicode="&#x124;" d="M94 0l281 1513h151l-123 -665h785l123 665h151l-280 -1513h-152l131 711h-784l-131 -711h-152zM575 1616l345 258h135l245 -258h-182l-147 151l-209 -151h-187z" />
<glyph unicode="&#x125;" horiz-adv-x="1249" d="M68 0l280 1513h152l-101 -538q156 172 379 172q193 0 300.5 -99.5t107.5 -277.5q0 -53 -21 -168l-110 -602h-152l111 602q14 90 14 148q0 113 -80 185.5t-205 72.5q-156 0 -264 -101.5t-145 -292.5l-115 -614h-151zM502 1616l344 258h135l246 -258h-183l-147 151 l-209 -151h-186z" />
<glyph unicode="&#x126;" d="M94 0l215 1157h-131l25 131h131l41 225h151l-41 -225h785l41 225h151l-41 -225h138l-25 -131h-137l-215 -1157h-152l131 711h-784l-131 -711h-152zM403 848h785l57 309h-784z" />
<glyph unicode="&#x127;" horiz-adv-x="1249" d="M66 0l233 1260h-109l25 131h111l22 122h152l-23 -122h203l-25 -131h-202l-56 -285q150 172 389 172q254 0 355 -174q74 -131 26 -371l-110 -602h-152l111 602q35 190 -23 283q-74 123 -248 123q-182 0 -305 -140q-76 -82 -108 -254l-115 -614h-151z" />
<glyph unicode="&#x128;" horiz-adv-x="462" d="M94 0l281 1513h151l-280 -1513h-152zM195 1743q100 104 182 104q29 0 112.5 -37.5t102.5 -37.5q74 0 145 77l43 -94q-82 -113 -188 -113q-55 0 -197 68q-14 8 -35 8q-18 0 -36.5 -11t-81.5 -56z" />
<glyph unicode="&#x129;" horiz-adv-x="409" d="M68 0l206 1120h152l-207 -1120h-151zM96 1370q100 104 183 105q29 0 112.5 -38t102.5 -38q74 0 145 78l43 -95q-82 -113 -188 -112q-55 0 -197 67q-14 8 -35 9q-18 0 -36.5 -11.5t-82.5 -56.5z" />
<glyph unicode="&#x12a;" horiz-adv-x="462" d="M94 0l281 1513h151l-280 -1513h-152zM135 1681l25 127h690l-25 -127h-690z" />
<glyph unicode="&#x12b;" horiz-adv-x="409" d="M39 1309l24 127h691l-25 -127h-690zM68 0l206 1120h152l-207 -1120h-151z" />
<glyph unicode="&#x12c;" horiz-adv-x="462" d="M94 0l281 1513h151l-280 -1513h-152zM205 1866h131q8 -74 46 -100.5t120 -26.5q78 0 137 33.5t80 93.5h108q-72 -240 -352 -240q-127 0 -195.5 54.5t-74.5 185.5z" />
<glyph unicode="&#x12d;" horiz-adv-x="409" d="M68 0l206 1120h152l-207 -1120h-151zM96 1493h131q8 -74 46 -100.5t120 -26.5q78 0 137.5 34t79.5 93h109q-72 -240 -352 -240q-127 0 -196 54.5t-75 185.5z" />
<glyph unicode="&#x12e;" horiz-adv-x="462" d="M-119 -301q0 129 123 235q29 25 90 66l281 1513h151l-280 -1513q-94 -47 -151.5 -114.5t-57.5 -123.5q0 -123 74 -122q59 0 102 8l-29 -152q-55 -8 -123 -8q-94 0 -137 63.5t-43 147.5z" />
<glyph unicode="&#x12f;" horiz-adv-x="409" d="M-145 -301q0 166 213 301l206 1120h152l-207 -1120q-94 -47 -151.5 -114.5t-57.5 -123.5q0 -123 74 -122q59 0 102 8l-28 -152q-55 -8 -123 -8q-94 0 -137 63.5t-43 147.5zM299 1243l47 258h152l-47 -258h-152z" />
<glyph unicode="&#x130;" horiz-adv-x="462" d="M94 0l281 1513h151l-280 -1513h-152zM395 1616l47 258h152l-47 -258h-152z" />
<glyph unicode="&#x131;" horiz-adv-x="409" d="M68 0l206 1120h152l-207 -1120h-151z" />
<glyph unicode="&#x134;" horiz-adv-x="987" d="M23 299q0 37 4 59h149q12 -131 57.5 -189t151.5 -58q127 0 205 88t115 274l194 1040h152l-195 -1040q-45 -248 -171 -375t-323 -127q-158 0 -248.5 84t-90.5 244zM633 1616l344 258h135l246 -258h-182l-148 151l-209 -151h-186z" />
<glyph unicode="&#x135;" horiz-adv-x="415" d="M-227 -393l26 145q131 8 193.5 79t97.5 247l193 1042h151l-192 -1042q-72 -451 -469 -471zM18 1243l344 258h136l245 -258h-182l-147 152l-209 -152h-187z" />
<glyph unicode="&#x136;" horiz-adv-x="1210" d="M94 0l281 1513h151l-161 -870l862 870h190l-735 -737l455 -776h-191l-383 655l-241 -241l-76 -414h-152zM373 -475l172 366h151l-178 -366h-145z" />
<glyph unicode="&#x137;" horiz-adv-x="1028" d="M68 0l280 1513h152l-199 -1073l647 680h187l-541 -563l362 -557h-188l-289 449l-217 -218l-43 -231h-151zM270 -475l172 366h152l-178 -366h-146z" />
<glyph unicode="&#x139;" horiz-adv-x="946" d="M94 0l281 1513h151l-256 -1376h627l-25 -137h-778zM338 1704l438 238l49 -119l-438 -234z" />
<glyph unicode="&#x13a;" horiz-adv-x="409" d="M68 0l280 1513h152l-281 -1513h-151zM311 1704l439 238l49 -119l-439 -234z" />
<glyph unicode="&#x13b;" horiz-adv-x="946" d="M94 0l281 1513h151l-256 -1376h627l-25 -137h-778zM260 -475l172 366h152l-178 -366h-146z" />
<glyph unicode="&#x13c;" horiz-adv-x="409" d="M-80 -475l172 366h152l-178 -366h-146zM68 0l280 1513h152l-281 -1513h-151z" />
<glyph unicode="&#x13d;" horiz-adv-x="946" d="M94 0l281 1513h151l-256 -1376h627l-25 -137h-778zM588 1147l172 366h151l-178 -366h-145z" />
<glyph unicode="&#x13e;" horiz-adv-x="409" d="M68 0l280 1513h152l-281 -1513h-151zM561 1147l172 366h152l-178 -366h-146z" />
<glyph unicode="&#x13f;" horiz-adv-x="946" d="M94 0l281 1513h151l-256 -1376h627l-25 -137h-778zM688 655l47 258h152l-47 -258h-152z" />
<glyph unicode="&#x140;" horiz-adv-x="561" d="M68 0l280 1513h152l-281 -1513h-151zM469 655l47 258h152l-47 -258h-152z" />
<glyph unicode="&#x141;" horiz-adv-x="1058" d="M82 463l33 172l221 166l133 712h152l-119 -641l370 271l-30 -172l-373 -271l-104 -563h626l-24 -137h-779l117 629z" />
<glyph unicode="&#x142;" horiz-adv-x="614" d="M131 610l27 152l184 108l119 643h151l-106 -587l190 112l-28 -149l-191 -113l-145 -776h-152l135 721z" />
<glyph unicode="&#x143;" horiz-adv-x="1515" d="M94 0l281 1513h205l614 -1255l233 1255h152l-281 -1513h-151l-655 1331l-246 -1331h-152zM856 1704l438 238l49 -119l-438 -234z" />
<glyph unicode="&#x144;" horiz-adv-x="1249" d="M68 0l206 1120h152l-27 -145q178 172 385 172q184 0 293 -100.5t109 -270.5q0 -72 -23 -188l-108 -588h-152l109 588q16 92 16 151q0 123 -77 196t-208 73q-156 0 -264 -96.5t-145 -295.5l-115 -616h-151zM651 1331l439 238l49 -119l-439 -233z" />
<glyph unicode="&#x145;" horiz-adv-x="1515" d="M94 0l281 1513h205l614 -1255l233 1255h152l-281 -1513h-151l-655 1331l-246 -1331h-152zM473 -475l172 366h152l-179 -366h-145z" />
<glyph unicode="&#x146;" horiz-adv-x="1249" d="M68 0l206 1120h152l-27 -145q178 172 385 172q184 0 293 -100.5t109 -270.5q0 -72 -23 -188l-108 -588h-152l109 588q16 92 16 151q0 123 -77 196t-208 73q-156 0 -264 -96.5t-145 -295.5l-115 -616h-151zM338 -475l172 366h152l-179 -366h-145z" />
<glyph unicode="&#x147;" horiz-adv-x="1515" d="M94 0l281 1513h205l614 -1255l233 1255h152l-281 -1513h-151l-655 1331l-246 -1331h-152zM682 1874h182l148 -152l209 152h186l-344 -258h-135z" />
<glyph unicode="&#x148;" horiz-adv-x="1249" d="M68 0l206 1120h152l-27 -145q178 172 385 172q184 0 293 -100.5t109 -270.5q0 -72 -23 -188l-108 -588h-152l109 588q16 92 16 151q0 123 -77 196t-208 73q-156 0 -264 -96.5t-145 -295.5l-115 -616h-151zM477 1501h182l148 -151l209 151h186l-344 -258h-135z" />
<glyph unicode="&#x14a;" horiz-adv-x="1515" d="M94 0l281 1513h205l614 -1255l233 1255h152l-285 -1525q-45 -248 -171 -375t-322 -127q-158 0 -249 84t-91 244q0 37 4 59h149q12 -131 57.5 -189.5t151.5 -58.5q113 0 201 96.5t113 227.5l10 53l-655 1329l-246 -1331h-152z" />
<glyph unicode="&#x14b;" horiz-adv-x="1249" d="M68 0l206 1120h152l-27 -145q178 172 385 172q184 0 293 -100.5t109 -270.5q0 -72 -23 -188l-94 -510q-72 -451 -469 -471l27 145q131 8 193.5 79t97.5 247l94 510q16 92 16 151q0 123 -77 196t-208 73q-156 0 -264 -96.5t-145 -295.5l-115 -616h-151z" />
<glyph unicode="&#x14c;" horiz-adv-x="1779" d="M156 618q0 236 136 450t360.5 343t469.5 129q272 0 466 -183t194 -464q0 -233 -136.5 -447.5t-360.5 -343.5t-470 -129q-276 0 -467.5 184.5t-191.5 460.5zM313 647q0 -225 152.5 -379.5t374.5 -154.5q305 0 544.5 230t239.5 521q0 233 -151.5 385t-387.5 152 q-293 0 -532.5 -233.5t-239.5 -520.5zM803 1681l24 127h691l-25 -127h-690z" />
<glyph unicode="&#x14d;" horiz-adv-x="1341" d="M117 440q0 289 215 498t497 209q213 0 346.5 -129t133.5 -338q0 -287 -209 -497t-479 -210q-223 0 -363.5 130t-140.5 337zM274 467q0 -158 101.5 -256t265.5 -98q213 0 361.5 160.5t148.5 392.5q0 150 -98.5 246t-249.5 96q-215 0 -372 -161t-157 -380zM512 1309l25 127 h690l-25 -127h-690z" />
<glyph unicode="&#x14e;" horiz-adv-x="1779" d="M156 618q0 236 136 450t360.5 343t469.5 129q272 0 466 -183t194 -464q0 -233 -136.5 -447.5t-360.5 -343.5t-470 -129q-276 0 -467.5 184.5t-191.5 460.5zM313 647q0 -225 152.5 -379.5t374.5 -154.5q305 0 544.5 230t239.5 521q0 233 -151.5 385t-387.5 152 q-293 0 -532.5 -233.5t-239.5 -520.5zM870 1866h131q8 -74 46 -100.5t120 -26.5q78 0 137.5 33.5t79.5 93.5h109q-72 -240 -352 -240q-127 0 -196 54.5t-75 185.5z" />
<glyph unicode="&#x14f;" horiz-adv-x="1341" d="M117 440q0 289 215 498t497 209q213 0 346.5 -129t133.5 -338q0 -287 -209 -497t-479 -210q-223 0 -363.5 130t-140.5 337zM274 467q0 -158 101.5 -256t265.5 -98q213 0 361.5 160.5t148.5 392.5q0 150 -98.5 246t-249.5 96q-215 0 -372 -161t-157 -380zM569 1493h131 q8 -74 46 -100.5t120 -26.5q78 0 137.5 34t79.5 93h109q-72 -240 -352 -240q-127 0 -196 54.5t-75 185.5z" />
<glyph unicode="&#x150;" horiz-adv-x="1779" d="M156 618q0 236 136 450t360.5 343t469.5 129q272 0 466 -183t194 -464q0 -233 -136.5 -447.5t-360.5 -343.5t-470 -129q-276 0 -467.5 184.5t-191.5 460.5zM313 647q0 -225 152.5 -379.5t374.5 -154.5q305 0 544.5 230t239.5 521q0 233 -151.5 385t-387.5 152 q-293 0 -532.5 -233.5t-239.5 -520.5zM883 1692l393 250l63 -103l-397 -250zM1282 1692l395 250l62 -103l-398 -250z" />
<glyph unicode="&#x151;" horiz-adv-x="1341" d="M117 440q0 289 215 498t497 209q213 0 346.5 -129t133.5 -338q0 -287 -209 -497t-479 -210q-223 0 -363.5 130t-140.5 337zM274 467q0 -158 101.5 -256t265.5 -98q213 0 361.5 160.5t148.5 392.5q0 150 -98.5 246t-249.5 96q-215 0 -372 -161t-157 -380zM590 1298 l393 250l64 -102l-398 -250zM989 1298l395 250l62 -102l-397 -250z" />
<glyph unicode="&#x152;" horiz-adv-x="2445" d="M156 614q0 373 284.5 649.5t669.5 276.5q211 0 359.5 -85t216.5 -243l57 301h807l-27 -137h-653l-101 -542h631l-24 -138h-631l-105 -559h654l-25 -137h-807l58 309q-262 -336 -676 -336q-311 0 -499.5 175t-188.5 466zM313 641q0 -227 148.5 -377.5t396.5 -150.5 q195 0 371 104.5t283.5 285.5t107.5 390q0 227 -148.5 367.5t-390.5 140.5q-307 0 -537.5 -229.5t-230.5 -530.5z" />
<glyph unicode="&#x153;" horiz-adv-x="2328" d="M119 444q0 193 103.5 357t263 255t329.5 91q162 0 262.5 -64.5t186.5 -234.5q70 115 225.5 207t331.5 92q209 0 344 -127t135 -326q0 -68 -27 -186h-999q-4 -53 -4 -66q0 -133 108.5 -231t268.5 -98q268 0 428 254h153q-74 -160 -243.5 -277t-362.5 -117q-164 0 -290 77 t-173 233q-86 -102 -125 -140.5t-92 -70.5q-162 -98 -324 -99q-219 0 -359 131t-140 340zM276 471q0 -158 99.5 -258t255.5 -100q205 0 360.5 164.5t155.5 377.5q0 158 -98.5 255.5t-255.5 97.5q-207 0 -362 -160t-155 -377zM1300 645h859v6v19q0 143 -103.5 240.5 t-257.5 97.5q-162 0 -291 -93.5t-207 -269.5z" />
<glyph unicode="&#x154;" horiz-adv-x="1243" d="M94 0l281 1513h375q307 0 437 -91t130 -289q0 -233 -149.5 -390t-389.5 -178l320 -565h-189l-383 686q289 0 410 49q98 41 160.5 145.5t62.5 227.5q0 145 -102.5 206.5t-341.5 61.5h-213l-256 -1376h-152zM737 1704l439 238l49 -119l-439 -234z" />
<glyph unicode="&#x155;" horiz-adv-x="616" d="M68 0l206 1120h152l-29 -159q61 92 142.5 135t210.5 51l-29 -150q-324 -35 -381 -344l-121 -653h-151zM309 1331l439 238l49 -119l-439 -233z" />
<glyph unicode="&#x156;" horiz-adv-x="1243" d="M94 0l281 1513h375q307 0 437 -91t130 -289q0 -233 -149.5 -390t-389.5 -178l320 -565h-189l-383 686q289 0 410 49q98 41 160.5 145.5t62.5 227.5q0 145 -102.5 206.5t-341.5 61.5h-213l-256 -1376h-152zM354 -475l172 366h152l-178 -366h-146z" />
<glyph unicode="&#x157;" horiz-adv-x="616" d="M-80 -475l172 366h152l-178 -366h-146zM68 0l206 1120h152l-29 -159q61 92 142.5 135t210.5 51l-29 -150q-324 -35 -381 -344l-121 -653h-151z" />
<glyph unicode="&#x158;" horiz-adv-x="1243" d="M94 0l281 1513h375q307 0 437 -91t130 -289q0 -233 -149.5 -390t-389.5 -178l320 -565h-189l-383 686q289 0 410 49q98 41 160.5 145.5t62.5 227.5q0 145 -102.5 206.5t-341.5 61.5h-213l-256 -1376h-152zM563 1874h182l148 -152l209 152h186l-344 -258h-135z" />
<glyph unicode="&#x159;" horiz-adv-x="616" d="M68 0l206 1120h152l-29 -159q61 92 142.5 135t210.5 51l-29 -150q-324 -35 -381 -344l-121 -653h-151zM135 1501h182l148 -151l209 151h186l-344 -258h-135z" />
<glyph unicode="&#x15a;" horiz-adv-x="1019" d="M53 338q0 20 4 86h162q0 -164 64.5 -237.5t195.5 -73.5q147 0 255 107.5t108 254.5q0 94 -61.5 148.5t-223.5 105.5q-199 61 -260 134t-61 202q0 182 148 328.5t355 146.5q160 0 257.5 -91t97.5 -241q0 -23 -7 -78h-157q0 270 -217 271q-133 0 -226.5 -97.5t-93.5 -216.5 q0 -31 13.5 -69.5t31.5 -56.5q23 -23 60 -40.5t147 -54.5q225 -76 289 -155q66 -84 65 -207q0 -209 -165.5 -370t-384.5 -161q-174 0 -285 101.5t-111 263.5zM612 1704l439 238l49 -119l-438 -234z" />
<glyph unicode="&#x15b;" horiz-adv-x="794" d="M27 240q0 41 6 90h149q0 -127 42 -172t128 -45q94 0 163 68.5t69 160.5q0 63 -33 97t-148 83q-92 41 -127.5 61.5t-58.5 47.5q-53 59 -53 147q0 147 117.5 258t267.5 111q113 0 186.5 -68.5t73.5 -173.5q0 -39 -2 -61h-154q0 164 -133 164q-76 0 -137 -58.5t-61 -130.5 q0 -78 77 -121q35 -18 195 -90q147 -66 147 -221q0 -170 -124.5 -292t-290.5 -122q-135 0 -217 78t-82 189zM426 1331l438 238l49 -119l-438 -233z" />
<glyph unicode="&#x15c;" horiz-adv-x="1019" d="M53 338q0 20 4 86h162q0 -164 64.5 -237.5t195.5 -73.5q147 0 255 107.5t108 254.5q0 94 -61.5 148.5t-223.5 105.5q-199 61 -260 134t-61 202q0 182 148 328.5t355 146.5q160 0 257.5 -91t97.5 -241q0 -23 -7 -78h-157q0 270 -217 271q-133 0 -226.5 -97.5t-93.5 -216.5 q0 -31 13.5 -69.5t31.5 -56.5q23 -23 60 -40.5t147 -54.5q225 -76 289 -155q66 -84 65 -207q0 -209 -165.5 -370t-384.5 -161q-174 0 -285 101.5t-111 263.5zM391 1616l344 258h135l246 -258h-182l-148 151l-208 -151h-187z" />
<glyph unicode="&#x15d;" horiz-adv-x="794" d="M27 240q0 41 6 90h149q0 -127 42 -172t128 -45q94 0 163 68.5t69 160.5q0 63 -33 97t-148 83q-92 41 -127.5 61.5t-58.5 47.5q-53 59 -53 147q0 147 117.5 258t267.5 111q113 0 186.5 -68.5t73.5 -173.5q0 -39 -2 -61h-154q0 164 -133 164q-76 0 -137 -58.5t-61 -130.5 q0 -78 77 -121q35 -18 195 -90q147 -66 147 -221q0 -170 -124.5 -292t-290.5 -122q-135 0 -217 78t-82 189zM203 1243l344 258h135l246 -258h-183l-147 152l-209 -152h-186z" />
<glyph unicode="&#x15e;" horiz-adv-x="1019" d="M53 338q0 20 4 86h162q0 -164 64.5 -237.5t195.5 -73.5q147 0 255 107.5t108 254.5q0 94 -61.5 148.5t-223.5 105.5q-199 61 -260 134t-61 202q0 182 148 328.5t355 146.5q160 0 257.5 -91t97.5 -241q0 -23 -7 -78h-157q0 270 -217 271q-133 0 -226.5 -97.5t-93.5 -216.5 q0 -31 13.5 -69.5t31.5 -56.5q23 -23 60 -40.5t147 -54.5q225 -76 289 -155q66 -84 65 -207q0 -205 -161.5 -366t-376.5 -165l-37 -71l27 4q29 6 43 6q76 0 123 -42t47 -112q0 -14 -5 -39q-16 -98 -93 -165.5t-179 -67.5q-150 0 -164 174l111 12q4 -37 21.5 -52t56.5 -15 q49 0 83.5 38t34.5 93q2 39 -20.5 60.5t-60.5 21.5q-59 0 -105 -39l-57 39l94 159q-147 20 -237.5 119t-90.5 242z" />
<glyph unicode="&#x15f;" horiz-adv-x="794" d="M27 240q0 41 6 90h149q0 -127 42 -172t128 -45q94 0 163 68.5t69 160.5q0 63 -33 97t-148 83q-92 41 -127.5 61.5t-58.5 47.5q-53 59 -53 147q0 147 117.5 258t267.5 111q113 0 186.5 -68.5t73.5 -173.5q0 -39 -2 -61h-154q0 164 -133 164q-76 0 -137 -58.5t-61 -130.5 q0 -78 77 -121q35 -18 195 -90q147 -66 147 -221q0 -164 -116.5 -283.5t-276.5 -130.5l-37 -71l27 4q27 6 43 6q76 0 123 -42t47 -112q0 -14 -4 -39q-16 -98 -93 -165.5t-180 -67.5q-150 0 -163 174l110 12q4 -37 21.5 -52t56.5 -15q49 0 84 38t35 93q2 39 -20.5 60.5 t-61.5 21.5q-59 0 -105 -39l-57 39l94 159q-111 16 -176 90.5t-65 172.5z" />
<glyph unicode="&#x160;" horiz-adv-x="1019" d="M53 338q0 20 4 86h162q0 -164 64.5 -237.5t195.5 -73.5q147 0 255 107.5t108 254.5q0 94 -61.5 148.5t-223.5 105.5q-199 61 -260 134t-61 202q0 182 148 328.5t355 146.5q160 0 257.5 -91t97.5 -241q0 -23 -7 -78h-157q0 270 -217 271q-133 0 -226.5 -97.5t-93.5 -216.5 q0 -31 13.5 -69.5t31.5 -56.5q23 -23 60 -40.5t147 -54.5q225 -76 289 -155q66 -84 65 -207q0 -209 -165.5 -370t-384.5 -161q-174 0 -285 101.5t-111 263.5zM438 1874h183l147 -152l209 152h186l-344 -258h-135z" />
<glyph unicode="&#x161;" horiz-adv-x="794" d="M27 240q0 41 6 90h149q0 -127 42 -172t128 -45q94 0 163 68.5t69 160.5q0 63 -33 97t-148 83q-92 41 -127.5 61.5t-58.5 47.5q-53 59 -53 147q0 147 117.5 258t267.5 111q113 0 186.5 -68.5t73.5 -173.5q0 -39 -2 -61h-154q0 164 -133 164q-76 0 -137 -58.5t-61 -130.5 q0 -78 77 -121q35 -18 195 -90q147 -66 147 -221q0 -170 -124.5 -292t-290.5 -122q-135 0 -217 78t-82 189zM252 1501h182l148 -151l209 151h186l-344 -258h-135z" />
<glyph unicode="&#x162;" horiz-adv-x="872" d="M162 -340l110 12q4 -37 21.5 -52t56.5 -15q49 0 84 38t35 93q2 39 -20.5 60.5t-61.5 21.5q-59 0 -104 -39l-58 39l107 182h-33l256 1376h-346l24 137h844l-24 -137h-346l-256 -1376h-39l-50 -98l27 4q29 6 43 6q76 0 123 -42t47 -112q0 -14 -4 -39q-16 -98 -93 -165.5 t-179 -67.5q-150 0 -164 174z" />
<glyph unicode="&#x163;" horiz-adv-x="694" d="M80 -340l110 12q4 -37 21.5 -52t56.5 -15q49 0 84 38t35 93q2 39 -20.5 60.5t-61.5 21.5q-59 0 -104 -39l-58 39l107 182h-57l182 983h-230l25 137h229l74 393h152l-74 -393h264l-24 -137h-265l-182 -983h-14l-49 -98l26 4q29 6 43 6q76 0 123 -42t47 -112q0 -14 -4 -39 q-16 -98 -93 -165.5t-179 -67.5q-150 0 -164 174z" />
<glyph unicode="&#x164;" horiz-adv-x="872" d="M209 1376l24 137h844l-24 -137h-346l-256 -1376h-152l256 1376h-346zM360 1874h183l147 -152l209 152h186l-344 -258h-135z" />
<glyph unicode="&#x165;" horiz-adv-x="694" d="M145 983l25 137h229l74 393h152l-74 -393h264l-24 -137h-265l-182 -983h-151l182 983h-230zM629 1186l172 366h151l-178 -366h-145z" />
<glyph unicode="&#x168;" horiz-adv-x="1341" d="M182 354q0 90 23 215l174 944h151l-174 -944q-18 -98 -18 -184q0 -121 82 -196.5t213 -75.5q172 0 287.5 112.5t158.5 343.5l174 944h152l-174 -944q-55 -297 -220 -446.5t-405 -149.5q-188 0 -306 106.5t-118 274.5zM637 1743q100 104 182 104q29 0 113 -37.5t102 -37.5 q74 0 146 77l43 -94q-82 -113 -189 -113q-55 0 -196 68q-14 8 -35 8q-18 0 -36.5 -11t-82.5 -56z" />
<glyph unicode="&#x169;" horiz-adv-x="1245" d="M141 317q0 96 19 199l112 604h152l-113 -604q-12 -53 -12 -137q0 -127 69.5 -196.5t204.5 -69.5q158 0 271.5 103t156.5 329l109 575h152l-209 -1120h-152l33 174q-82 -109 -175 -155t-227 -46q-178 0 -284.5 93t-106.5 251zM512 1370q100 104 182 105q29 0 113 -38 t102 -38q74 0 146 78l43 -95q-82 -113 -189 -112q-55 0 -196 67q-14 8 -35 9q-18 0 -36.5 -11.5t-82.5 -56.5z" />
<glyph unicode="&#x16a;" horiz-adv-x="1341" d="M182 354q0 90 23 215l174 944h151l-174 -944q-18 -98 -18 -184q0 -121 82 -196.5t213 -75.5q172 0 287.5 112.5t158.5 343.5l174 944h152l-174 -944q-55 -297 -220 -446.5t-405 -149.5q-188 0 -306 106.5t-118 274.5zM578 1681l24 127h690l-24 -127h-690z" />
<glyph unicode="&#x16b;" horiz-adv-x="1245" d="M141 317q0 96 19 199l112 604h152l-113 -604q-12 -53 -12 -137q0 -127 69.5 -196.5t204.5 -69.5q158 0 271.5 103t156.5 329l109 575h152l-209 -1120h-152l33 174q-82 -109 -175 -155t-227 -46q-178 0 -284.5 93t-106.5 251zM455 1309l24 127h690l-24 -127h-690z" />
<glyph unicode="&#x16c;" horiz-adv-x="1341" d="M182 354q0 90 23 215l174 944h151l-174 -944q-18 -98 -18 -184q0 -121 82 -196.5t213 -75.5q172 0 287.5 112.5t158.5 343.5l174 944h152l-174 -944q-55 -297 -220 -446.5t-405 -149.5q-188 0 -306 106.5t-118 274.5zM645 1866h131q8 -74 46 -100.5t120 -26.5 q78 0 137.5 33.5t79.5 93.5h109q-72 -240 -353 -240q-127 0 -195.5 54.5t-74.5 185.5z" />
<glyph unicode="&#x16d;" horiz-adv-x="1245" d="M141 317q0 96 19 199l112 604h152l-113 -604q-12 -53 -12 -137q0 -127 69.5 -196.5t204.5 -69.5q158 0 271.5 103t156.5 329l109 575h152l-209 -1120h-152l33 174q-82 -109 -175 -155t-227 -46q-178 0 -284.5 93t-106.5 251zM512 1493h131q8 -74 46 -100.5t120 -26.5 q78 0 137.5 34t79.5 93h109q-72 -240 -353 -240q-127 0 -195.5 54.5t-74.5 185.5z" />
<glyph unicode="&#x16e;" horiz-adv-x="1341" d="M182 354q0 90 23 215l174 944h151l-174 -944q-18 -98 -18 -184q0 -121 82 -196.5t213 -75.5q172 0 287.5 112.5t158.5 343.5l174 944h152l-174 -944q-55 -297 -220 -446.5t-405 -149.5q-188 0 -306 106.5t-118 274.5zM727 1726q0 102 72.5 177t173.5 75q80 0 128 -49 t48 -129q0 -90 -78 -162.5t-172 -72.5q-74 0 -123 45.5t-49 115.5zM813 1749q0 -41 28.5 -67.5t73.5 -26.5q53 0 100.5 43t47.5 92q0 41 -31 69.5t-74 28.5q-55 0 -100 -43t-45 -96z" />
<glyph unicode="&#x16f;" horiz-adv-x="1245" d="M141 317q0 96 19 199l112 604h152l-113 -604q-12 -53 -12 -137q0 -127 69.5 -196.5t204.5 -69.5q158 0 271.5 103t156.5 329l109 575h152l-209 -1120h-152l33 174q-82 -109 -175 -155t-227 -46q-178 0 -284.5 93t-106.5 251zM606 1348q0 102 73 176.5t173 74.5 q78 0 126 -49t48 -129q0 -90 -78 -162.5t-172 -72.5q-74 0 -122 46t-48 116zM692 1370q0 -41 28 -67.5t73 -26.5q53 0 101 43t48 92q0 41 -30.5 69.5t-75.5 28.5q-53 0 -98.5 -43t-45.5 -96z" />
<glyph unicode="&#x170;" horiz-adv-x="1341" d="M182 354q0 90 23 215l174 944h151l-174 -944q-18 -98 -18 -184q0 -121 82 -196.5t213 -75.5q172 0 287.5 112.5t158.5 343.5l174 944h152l-174 -944q-55 -297 -220 -446.5t-405 -149.5q-188 0 -306 106.5t-118 274.5zM657 1692l394 250l63 -103l-397 -250zM1057 1692 l395 250l61 -103l-397 -250z" />
<glyph unicode="&#x171;" horiz-adv-x="1245" d="M141 317q0 96 19 199l112 604h152l-113 -604q-12 -53 -12 -137q0 -127 69.5 -196.5t204.5 -69.5q158 0 271.5 103t156.5 329l109 575h152l-209 -1120h-152l33 174q-82 -109 -175 -155t-227 -46q-178 0 -284.5 93t-106.5 251zM532 1298l394 250l63 -102l-397 -250z M932 1298l395 250l62 -102l-398 -250z" />
<glyph unicode="&#x172;" horiz-adv-x="1341" d="M182 354q0 90 23 215l174 944h151l-174 -944q-18 -98 -18 -184q0 -121 82 -196.5t213 -75.5q172 0 287.5 112.5t158.5 343.5l174 944h152l-174 -944q-78 -414 -369 -544q-254 -113 -254 -263q0 -47 17.5 -84.5t58.5 -37.5q55 0 102 8l-28 -152q-55 -8 -123 -8 q-94 0 -138 63.5t-44 147.5q0 152 174 274h-21q-188 0 -306 106.5t-118 274.5z" />
<glyph unicode="&#x173;" horiz-adv-x="1245" d="M141 317q0 96 19 199l112 604h152l-113 -604q-12 -53 -12 -137q0 -127 69.5 -196.5t204.5 -69.5q158 0 271.5 103t156.5 329l109 575h152l-209 -1120q-94 -47 -151.5 -114.5t-57.5 -123.5q0 -47 17.5 -84.5t58.5 -37.5q55 0 102 8l-29 -152q-55 -8 -123 -8 q-94 0 -138 63.5t-44 147.5q0 164 215 301q-2 0 15 86l16 88q-82 -109 -175 -155t-227 -46q-178 0 -284.5 93t-106.5 251z" />
<glyph unicode="&#x174;" horiz-adv-x="1966" d="M240 1513h155l129 -1316l606 1316h144l119 -1316l616 1316h156l-715 -1513h-195l-106 1241l-561 -1241h-197zM860 1616l344 258h135l246 -258h-182l-148 151l-208 -151h-187z" />
<glyph unicode="&#x175;" horiz-adv-x="1701" d="M160 1120h151l183 -938l413 801h125l115 -801l539 938h147l-641 -1120h-162l-106 743l-379 -743h-164zM655 1243l344 258h136l245 -258h-182l-147 152l-209 -152h-187z" />
<glyph unicode="&#x176;" horiz-adv-x="1212" d="M223 1513h168l273 -847l598 847h165l-714 -1007l-95 -506h-151l94 506zM481 1616l344 258h136l245 -258h-182l-147 151l-209 -151h-187z" />
<glyph unicode="&#x177;" horiz-adv-x="1097" d="M137 -393l260 430l-233 1083h166l188 -893l545 893h162l-928 -1513h-160zM356 1243l344 258h136l245 -258h-182l-147 152l-209 -152h-187z" />
<glyph unicode="&#x178;" horiz-adv-x="1212" d="M223 1513h168l273 -847l598 847h165l-714 -1007l-95 -506h-151l94 506zM612 1616l47 258h152l-47 -258h-152zM913 1616l48 258h151l-47 -258h-152z" />
<glyph unicode="&#x179;" horiz-adv-x="983" d="M-27 0l25 137l975 1239h-721l24 137h891l-24 -137l-973 -1239h764l-25 -137h-936zM600 1704l438 238l49 -119l-438 -234z" />
<glyph unicode="&#x17a;" horiz-adv-x="870" d="M-41 0l25 137l776 846h-598l24 137h770l-22 -129l-772 -854h651l-25 -137h-829zM455 1331l438 238l49 -119l-438 -233z" />
<glyph unicode="&#x17b;" horiz-adv-x="983" d="M-27 0l25 137l975 1239h-721l24 137h891l-24 -137l-973 -1239h764l-25 -137h-936zM666 1616l47 258h151l-47 -258h-151z" />
<glyph unicode="&#x17c;" horiz-adv-x="870" d="M-41 0l25 137l776 846h-598l24 137h770l-22 -129l-772 -854h651l-25 -137h-829zM520 1243l47 258h152l-47 -258h-152z" />
<glyph unicode="&#x17d;" horiz-adv-x="983" d="M-27 0l25 137l975 1239h-721l24 137h891l-24 -137l-973 -1239h764l-25 -137h-936zM426 1874h182l148 -152l209 152h186l-344 -258h-135z" />
<glyph unicode="&#x17e;" horiz-adv-x="870" d="M-41 0l25 137l776 846h-598l24 137h770l-22 -129l-772 -854h651l-25 -137h-829zM281 1501h182l147 -151l209 151h187l-344 -258h-136z" />
<glyph unicode="&#x17f;" horiz-adv-x="643" d="M145 0l183 983h-174l24 137h174q23 111 57.5 175.5t100.5 115.5q131 102 309 102h12h23l-25 -137h-22h-8q-131 0 -201 -60.5t-94 -195.5l-207 -1120h-152z" />
<glyph unicode="&#x18e;" horiz-adv-x="1097" d="M94 0l27 137h676l102 559h-653l26 138h654l100 542h-676l25 137h827l-280 -1513h-828z" />
<glyph unicode="&#x192;" horiz-adv-x="1134" d="M-104 -299l51 131l41 -4q10 -2 49 -2q145 0 225 74.5t160 287.5l326 871h-232l51 137h228l18 47q168 432 481 432q20 0 47 -6l-47 -135q-23 4 -39 4h-4q-92 2 -155.5 -60.5t-137.5 -234.5l-20 -47h229l-49 -137h-229l-328 -883q-66 -176 -109.5 -251t-115.5 -132 q-137 -106 -330 -106q-42 0 -110 14z" />
<glyph unicode="&#x1a0;" horiz-adv-x="1779" d="M156 618q0 236 136 450t360.5 343t469.5 129q143 0 274.5 -57.5t225.5 -159.5q76 74 90 190h127q-18 -168 -147 -282q90 -150 90 -338q0 -233 -136.5 -447.5t-360.5 -343.5t-470 -129q-158 0 -303 70t-233 188q-123 166 -123 387zM313 647q0 -225 152.5 -379.5 t374.5 -154.5q305 0 544.5 230t239.5 521q0 233 -151.5 385t-387.5 152q-293 0 -532.5 -233.5t-239.5 -520.5z" />
<glyph unicode="&#x1a1;" horiz-adv-x="1429" d="M117 440q0 127 50 253t140 222q215 231 522 232q137 0 245 -57.5t169 -157.5q74 74 88 188h127q-18 -184 -168 -301q18 -78 19 -139q0 -279 -197 -485q-209 -221 -491 -222q-223 0 -363.5 130t-140.5 337zM274 467q0 -158 101.5 -256t265.5 -98q213 0 361.5 160.5 t148.5 392.5q0 150 -98.5 246t-249.5 96q-215 0 -372 -161t-157 -380z" />
<glyph unicode="&#x1af;" horiz-adv-x="1492" d="M182 354q0 90 23 215l174 944h151l-174 -944q-18 -98 -18 -184q0 -121 82 -196.5t213 -75.5q190 0 317 143q88 100 129 313l174 944h152l-43 -235q131 84 149 235h127q-27 -258 -305 -383l-102 -561q-49 -266 -182 -409q-176 -186 -443 -187q-188 0 -306 106.5 t-118 274.5z" />
<glyph unicode="&#x1b0;" horiz-adv-x="1429" d="M141 317q0 96 19 199l112 604h152l-113 -604q-12 -80 -12 -137q0 -100 43 -168q29 -45 92.5 -71.5t138.5 -26.5q178 0 306 139q84 92 122 293l109 575h152l-45 -235q133 82 151 235h127q-27 -256 -305 -383l-137 -737h-152l33 174q-82 -109 -175 -155t-227 -46 q-178 0 -284.5 93t-106.5 251z" />
<glyph unicode="&#x1dd;" horiz-adv-x="1331" d="M119 440q0 66 18 170h1014q4 49 4 58q0 143 -106.5 241.5t-260.5 98.5q-125 0 -248.5 -72t-189.5 -184h-157q98 180 267 287.5t355 107.5q209 0 347 -136.5t138 -340.5q0 -276 -209.5 -486.5t-486.5 -210.5q-213 0 -349 131t-136 336zM262 473q8 -166 107.5 -263 t261.5 -97q160 0 297 101t192 259h-858z" />
<glyph unicode="&#x1e6;" horiz-adv-x="1785" d="M158 614q0 180 78.5 350.5t208.5 296t307.5 202.5t363.5 77q248 0 422 -117.5t217 -312.5h-172q-47 133 -175 212t-298 79q-322 0 -558.5 -227.5t-236.5 -534.5q0 -238 157 -382t398 -144q215 0 404.5 122.5t288.5 325.5h-848l24 137h1030q-76 -301 -340 -513t-577 -212 q-305 0 -499.5 179t-194.5 462zM815 1874h182l148 -152l209 152h186l-344 -258h-135z" />
<glyph unicode="&#x1e7;" horiz-adv-x="1378" d="M61 -35h148q68 -158 143.5 -212t218.5 -54q199 0 325 114.5t167 338.5l14 75q-166 -254 -473 -254q-213 0 -350 133.5t-137 342.5q0 276 211 487t483 211q137 0 224 -46t171 -179l37 198h152l-172 -919q-35 -180 -72 -270.5t-113 -170.5q-188 -201 -495 -200 q-203 0 -325 96t-157 309zM274 483q0 -160 92.5 -265t262.5 -105q205 0 363.5 164.5t158.5 388.5q0 147 -103.5 244.5t-259.5 97.5q-197 0 -355.5 -156t-158.5 -369zM514 1501h182l148 -151l209 151h186l-344 -258h-135z" />
<glyph unicode="&#x1ea;" horiz-adv-x="1779" d="M156 618q0 236 136 450t360.5 343t469.5 129q272 0 466 -183t194 -464q0 -283 -193.5 -527.5t-480.5 -342.5q-123 -41 -205 -107t-82 -154q0 -123 74 -122q59 0 102 8l-28 -152q-55 -8 -123 -8q-94 0 -137 63.5t-43 147.5q0 154 174 274h-25q-276 0 -467.5 184.5 t-191.5 460.5zM313 647q0 -225 152.5 -379.5t374.5 -154.5q305 0 544.5 230t239.5 521q0 233 -151.5 385t-387.5 152q-293 0 -532.5 -233.5t-239.5 -520.5z" />
<glyph unicode="&#x1eb;" horiz-adv-x="1341" d="M117 440q0 289 215 498t497 209q213 0 346.5 -129t133.5 -338q0 -205 -113 -377t-289 -260q-61 -31 -103 -55.5t-88 -60.5t-69.5 -78t-23.5 -87q0 -123 73 -122q59 0 103 8l-27 -152q-57 -8 -125 -8q-94 0 -137 63.5t-43 147.5q0 152 174 274h-20q-223 0 -363.5 130 t-140.5 337zM274 467q0 -158 101.5 -256t265.5 -98q213 0 361.5 160.5t148.5 392.5q0 150 -98.5 246t-249.5 96q-215 0 -372 -161t-157 -380z" />
<glyph unicode="&#x1f4;" horiz-adv-x="1785" d="M158 614q0 180 78.5 350.5t208.5 296t307.5 202.5t363.5 77q248 0 422 -117.5t217 -312.5h-172q-47 133 -175 212t-298 79q-322 0 -558.5 -227.5t-236.5 -534.5q0 -238 157 -382t398 -144q215 0 404.5 122.5t288.5 325.5h-848l24 137h1030q-76 -301 -340 -513t-577 -212 q-305 0 -499.5 179t-194.5 462zM989 1704l438 238l50 -119l-439 -234z" />
<glyph unicode="&#x1f5;" horiz-adv-x="1378" d="M61 -35h148q68 -158 143.5 -212t218.5 -54q199 0 325 114.5t167 338.5l14 75q-166 -254 -473 -254q-213 0 -350 133.5t-137 342.5q0 276 211 487t483 211q137 0 224 -46t171 -179l37 198h152l-172 -919q-35 -180 -72 -270.5t-113 -170.5q-188 -201 -495 -200 q-203 0 -325 96t-157 309zM274 483q0 -160 92.5 -265t262.5 -105q205 0 363.5 164.5t158.5 388.5q0 147 -103.5 244.5t-259.5 97.5q-197 0 -355.5 -156t-158.5 -369zM688 1331l438 238l50 -119l-439 -233z" />
<glyph unicode="&#x1fa;" horiz-adv-x="1515" d="M-39 0l930 1513h170l371 -1513h-166l-125 510h-705l-315 -510h-160zM520 647h588l-164 694zM811 1726q0 102 72.5 177t173.5 75q80 0 128 -49t48 -129q0 -90 -78 -162.5t-172 -72.5q-74 0 -123 45.5t-49 115.5zM897 1749q0 -41 28.5 -67.5t73.5 -26.5q53 0 100.5 43 t47.5 92q0 41 -31 69.5t-74 28.5q-55 0 -100 -43t-45 -96zM934 2134l438 238l49 -119l-438 -234z" />
<glyph unicode="&#x1fb;" d="M119 442q0 285 211 495t497 210q285 0 400 -225l37 198h151l-207 -1120h-151l37 197q-125 -127 -227.5 -175.5t-245.5 -48.5q-225 0 -363.5 129t-138.5 340zM276 481q0 -164 103.5 -266t271.5 -102q205 0 361.5 163.5t156.5 376.5q0 154 -101 254.5t-255 100.5 q-213 0 -375 -159t-162 -368zM657 1333q0 102 73 177t173 75q80 0 128 -49t48 -129q0 -90 -77.5 -163t-172.5 -73q-74 0 -123 46t-49 116zM743 1356q0 -41 29 -67.5t74 -26.5q53 0 100 43t47 92q0 41 -30.5 69.5t-73.5 28.5q-55 0 -100.5 -43t-45.5 -96zM780 1741l439 237 l49 -118l-439 -234z" />
<glyph unicode="&#x1fc;" horiz-adv-x="2031" d="M-39 0l1327 1513h848l-25 -137h-653l-102 -542h631l-25 -138h-631l-104 -559h653l-25 -137h-804l94 512h-555l-449 -512h-180zM713 649h458l123 670zM1284 1704l438 238l50 -119l-439 -234z" />
<glyph unicode="&#x1fd;" horiz-adv-x="2369" d="M119 449q0 268 211 483t493 215q295 0 406 -221l37 194h145l-37 -194q215 221 481 221q213 0 348.5 -130t135.5 -335q0 -82 -21 -176h-1013q-2 -20 -2 -45q0 -147 107.5 -247.5t264.5 -100.5q127 0 248 69.5t184 182.5h158q-74 -162 -255 -277t-363 -115q-262 0 -410 215 l-35 -188h-145l35 188q-209 -215 -478 -215q-223 0 -359 131.5t-136 344.5zM276 473q0 -158 102.5 -259t260.5 -101q213 0 375 162.5t162 377.5q0 158 -101.5 256.5t-263.5 98.5q-219 0 -377 -162t-158 -373zM1221 1331l438 238l49 -119l-438 -233zM1337 643h861 q-2 168 -100.5 266.5t-262.5 98.5q-166 0 -307.5 -103.5t-190.5 -261.5z" />
<glyph unicode="&#x1fe;" horiz-adv-x="1777" d="M86 -86l240 254q-176 172 -176 434q0 244 134 462t352 347t458 129q238 0 407 -115l240 256l92 -88l-234 -250q176 -172 177 -438q0 -236 -135.5 -452.5t-357.5 -348t-462 -131.5q-104 0 -212.5 31t-182.5 82l-242 -256zM307 633q0 -115 24.5 -184.5t100.5 -165.5 l965 1030q-127 88 -324 88q-301 0 -533.5 -239.5t-232.5 -528.5zM530 199q154 -86 310 -86q299 0 538.5 228t239.5 531q0 109 -22.5 176.5t-88.5 159.5l-14 21zM987 1704l438 238l50 -119l-439 -234z" />
<glyph unicode="&#x1ff;" horiz-adv-x="1337" d="M94 4l127 135q-57 84 -78.5 149.5t-21.5 149.5q0 190 104.5 356.5t265 259.5t328.5 93q170 0 289 -84l143 151l95 -86l-144 -149q106 -113 107 -283q0 -295 -206 -509t-491 -214q-168 0 -297 84l-129 -135zM279 461q0 -113 47 -213l680 710q-92 49 -197 50 q-205 0 -367.5 -168t-162.5 -379zM416 162q82 -33 111.5 -41t84.5 -8q229 0 384 164.5t155 410.5q0 92 -51 184zM698 1331l439 238l49 -119l-438 -233z" />
<glyph unicode="&#x200;" horiz-adv-x="1515" d="M-39 0l930 1513h170l371 -1513h-166l-125 510h-705l-315 -510h-160zM475 1839l100 103l302 -250l-97 -103zM520 647h588l-164 694zM874 1839l103 103l299 -250l-96 -103z" />
<glyph unicode="&#x201;" d="M119 442q0 285 211 495t497 210q285 0 400 -225l37 198h151l-207 -1120h-151l37 197q-125 -127 -227.5 -175.5t-245.5 -48.5q-225 0 -363.5 129t-138.5 340zM276 481q0 -164 103.5 -266t271.5 -102q205 0 361.5 163.5t156.5 376.5q0 154 -101 254.5t-255 100.5 q-213 0 -375 -159t-162 -368zM322 1446l100 102l301 -250l-96 -102zM721 1446l102 102l299 -250l-96 -102z" />
<glyph unicode="&#x204;" horiz-adv-x="1097" d="M94 0l281 1513h827l-24 -137h-676l-103 -542h654l-25 -138h-653l-105 -559h676l-24 -137h-828zM289 1839l100 103l301 -250l-96 -103zM688 1839l103 103l299 -250l-97 -103z" />
<glyph unicode="&#x205;" horiz-adv-x="1331" d="M119 451q0 276 210 486t486 210q213 0 349 -131t136 -336q0 -66 -18 -170h-1014q-4 -49 -4 -57q0 -143 106.5 -241.5t260.5 -98.5q125 0 249 71.5t189 184.5h158q-98 -180 -267 -288t-356 -108q-209 0 -347 136.5t-138 341.5zM299 647h858q-8 166 -107.5 263.5 t-261.5 97.5q-160 0 -297 -101.5t-192 -259.5zM309 1446l101 102l301 -250l-97 -102zM709 1446l102 102l299 -250l-96 -102z" />
<glyph unicode="&#x208;" horiz-adv-x="462" d="M-49 1839l100 103l301 -250l-96 -103zM94 0l281 1513h151l-280 -1513h-152zM350 1839l103 103l299 -250l-97 -103z" />
<glyph unicode="&#x209;" horiz-adv-x="409" d="M-150 1446l101 102l301 -250l-96 -102zM68 0l206 1120h152l-207 -1120h-151zM250 1446l102 102l299 -250l-96 -102z" />
<glyph unicode="&#x20c;" horiz-adv-x="1779" d="M156 618q0 236 136 450t360.5 343t469.5 129q272 0 466 -183t194 -464q0 -233 -136.5 -447.5t-360.5 -343.5t-470 -129q-276 0 -467.5 184.5t-191.5 460.5zM313 647q0 -225 152.5 -379.5t374.5 -154.5q305 0 544.5 230t239.5 521q0 233 -151.5 385t-387.5 152 q-293 0 -532.5 -233.5t-239.5 -520.5zM616 1839l101 103l301 -250l-96 -103zM1016 1839l102 103l299 -250l-96 -103z" />
<glyph unicode="&#x20d;" horiz-adv-x="1341" d="M117 440q0 289 215 498t497 209q213 0 346.5 -129t133.5 -338q0 -287 -209 -497t-479 -210q-223 0 -363.5 130t-140.5 337zM274 467q0 -158 101.5 -256t265.5 -98q213 0 361.5 160.5t148.5 392.5q0 150 -98.5 246t-249.5 96q-215 0 -372 -161t-157 -380zM324 1446 l100 102l301 -250l-96 -102zM723 1446l102 102l299 -250l-96 -102z" />
<glyph unicode="&#x210;" horiz-adv-x="1243" d="M94 0l281 1513h375q307 0 437 -91t130 -289q0 -233 -149.5 -390t-389.5 -178l320 -565h-189l-383 686q289 0 410 49q98 41 160.5 145.5t62.5 227.5q0 145 -102.5 206.5t-341.5 61.5h-213l-256 -1376h-152zM358 1839l101 103l301 -250l-96 -103zM758 1839l102 103 l299 -250l-96 -103z" />
<glyph unicode="&#x211;" horiz-adv-x="616" d="M-74 1446l101 102l301 -250l-97 -102zM68 0l206 1120h152l-29 -159q61 92 142.5 135t210.5 51l-29 -150q-324 -35 -381 -344l-121 -653h-151zM326 1446l102 102l299 -250l-96 -102z" />
<glyph unicode="&#x214;" horiz-adv-x="1341" d="M182 354q0 90 23 215l174 944h151l-174 -944q-18 -98 -18 -184q0 -121 82 -196.5t213 -75.5q172 0 287.5 112.5t158.5 343.5l174 944h152l-174 -944q-55 -297 -220 -446.5t-405 -149.5q-188 0 -306 106.5t-118 274.5zM391 1839l101 103l301 -250l-97 -103zM791 1839 l102 103l299 -250l-96 -103z" />
<glyph unicode="&#x215;" horiz-adv-x="1245" d="M141 317q0 96 19 199l112 604h152l-113 -604q-12 -53 -12 -137q0 -127 69.5 -196.5t204.5 -69.5q158 0 271.5 103t156.5 329l109 575h152l-209 -1120h-152l33 174q-82 -109 -175 -155t-227 -46q-178 0 -284.5 93t-106.5 251zM266 1446l101 102l301 -250l-97 -102z M666 1446l102 102l299 -250l-96 -102z" />
<glyph unicode="&#x218;" horiz-adv-x="1019" d="M53 338q0 20 4 86h162q0 -164 64.5 -237.5t195.5 -73.5q147 0 255 107.5t108 254.5q0 94 -61.5 148.5t-223.5 105.5q-199 61 -260 134t-61 202q0 182 148 328.5t355 146.5q160 0 257.5 -91t97.5 -241q0 -23 -7 -78h-157q0 270 -217 271q-133 0 -226.5 -97.5t-93.5 -216.5 q0 -31 13.5 -69.5t31.5 -56.5q23 -23 60 -40.5t147 -54.5q225 -76 289 -155q66 -84 65 -207q0 -209 -165.5 -370t-384.5 -161q-174 0 -285 101.5t-111 263.5zM229 -475l172 366h152l-178 -366h-146z" />
<glyph unicode="&#x219;" horiz-adv-x="794" d="M27 240q0 41 6 90h149q0 -127 42 -172t128 -45q94 0 163 68.5t69 160.5q0 63 -33 97t-148 83q-92 41 -127.5 61.5t-58.5 47.5q-53 59 -53 147q0 147 117.5 258t267.5 111q113 0 186.5 -68.5t73.5 -173.5q0 -39 -2 -61h-154q0 164 -133 164q-76 0 -137 -58.5t-61 -130.5 q0 -78 77 -121q35 -18 195 -90q147 -66 147 -221q0 -170 -124.5 -292t-290.5 -122q-135 0 -217 78t-82 189zM113 -475l172 366h151l-178 -366h-145z" />
<glyph unicode="&#x21a;" horiz-adv-x="872" d="M152 -475l172 366h151l-178 -366h-145zM209 1376l24 137h844l-24 -137h-346l-256 -1376h-152l256 1376h-346z" />
<glyph unicode="&#x21b;" horiz-adv-x="694" d="M61 -475l172 366h152l-178 -366h-146zM145 983l25 137h229l74 393h152l-74 -393h264l-24 -137h-265l-182 -983h-151l182 983h-230z" />
<glyph unicode="&#x258;" horiz-adv-x="1331" d="M119 510q20 106 45 170q78 207 261 337t396 130q276 0 408.5 -210t30.5 -486q-76 -205 -264.5 -341.5t-397.5 -136.5q-186 0 -315 107.5t-160 288.5h158q25 -113 121 -184.5t221 -71.5q154 0 297 98t196 242l17 57h-1014zM295 647h858q4 158 -96.5 259.5t-259.5 101.5 q-162 0 -297 -97.5t-205 -263.5z" />
<glyph unicode="&#x259;" horiz-adv-x="1331" d="M119 440q0 66 18 170h1014q4 49 4 58q0 143 -106.5 241.5t-260.5 98.5q-125 0 -248.5 -72t-189.5 -184h-157q98 180 267 287.5t355 107.5q209 0 347 -136.5t138 -340.5q0 -276 -209.5 -486.5t-486.5 -210.5q-213 0 -349 131t-136 336zM262 473q8 -166 107.5 -263 t261.5 -97q160 0 297 101t192 259h-858z" />
<glyph unicode="&#x2be;" horiz-adv-x="1064" d="M238 905q-2 8 4 15.5t14 7.5h115q4 0 12 -8q55 -143 219 -144q133 0 234.5 100.5t101.5 233.5q0 100 -66.5 164.5t-169.5 64.5q-80 0 -134 -27.5t-138 -111.5q-4 -4 -12 -4h-113q-10 0 -13 7t3 16q98 135 200.5 191t225.5 56q160 0 257 -92t99 -244 q-2 -190 -151.5 -335.5t-345.5 -145.5q-133 0 -225 68.5t-117 187.5z" />
<glyph unicode="&#x2bf;" horiz-adv-x="1064" d="M256 985q2 188 152.5 334.5t347.5 146.5q133 0 224 -68.5t118 -187.5q2 -8 -5.5 -15t-15.5 -7h-114q-4 0 -13 8q-55 143 -219 143q-133 0 -234.5 -100t-101.5 -233q0 -100 66.5 -165t169.5 -65q80 0 134 27.5t138 111.5q4 4 12 5h113q10 0 13 -7.5t-3 -15.5 q-98 -135 -199.5 -191.5t-224.5 -56.5q-160 0 -258 92t-100 244z" />
<glyph unicode="&#x2c6;" horiz-adv-x="1028" d="M319 1243l345 258h135l245 -258h-182l-147 152l-209 -152h-187z" />
<glyph unicode="&#x2c7;" horiz-adv-x="1028" d="M369 1501h182l147 -151l209 151h187l-344 -258h-136z" />
<glyph unicode="&#x2d8;" horiz-adv-x="927" d="M356 1493h131q8 -74 46 -100.5t120 -26.5q78 0 137.5 34t79.5 93h109q-72 -240 -352 -240q-127 0 -196 54.5t-75 185.5z" />
<glyph unicode="&#x2d9;" horiz-adv-x="454" d="M322 1243l47 258h151l-47 -258h-151z" />
<glyph unicode="&#x2da;" horiz-adv-x="679" d="M326 1348q0 102 72.5 176.5t172.5 74.5q78 0 126 -49t48 -129q0 -90 -77.5 -162.5t-171.5 -72.5q-74 0 -122 46t-48 116zM412 1370q0 -41 27.5 -67.5t72.5 -26.5q53 0 101.5 43t48.5 92q0 41 -31 69.5t-76 28.5q-53 0 -98 -43t-45 -96z" />
<glyph unicode="&#x2db;" horiz-adv-x="618" d="M25 -301q0 166 213 301h151q-94 -47 -151.5 -114.5t-57.5 -123.5q0 -123 74 -122q59 0 102 8l-28 -152q-55 -8 -123 -8q-94 0 -137 63.5t-43 147.5z" />
<glyph unicode="&#x2dc;" horiz-adv-x="899" d="M342 1370q100 104 182 105q29 0 113 -38t102 -38q74 0 146 78l43 -95q-82 -113 -189 -112q-55 0 -196 67q-14 8 -35 9q-18 0 -36.5 -11.5t-82.5 -56.5z" />
<glyph unicode="&#x2dd;" horiz-adv-x="1130" d="M477 1298l393 250l64 -102l-397 -250zM877 1298l395 250l61 -102l-397 -250z" />
<glyph unicode="&#x300;" horiz-adv-x="0" d="M-803 1450l94 119l351 -238l-93 -114z" />
<glyph unicode="&#x301;" horiz-adv-x="0" d="M-670 1331l439 238l49 -119l-439 -233z" />
<glyph unicode="&#x302;" horiz-adv-x="0" d="M-893 1243l344 258h135l246 -258h-182l-148 152l-209 -152h-186z" />
<glyph unicode="&#x303;" horiz-adv-x="0" d="M-807 1370q100 104 182 105q29 0 113 -38t102 -38q74 0 146 78l43 -95q-82 -113 -189 -112q-55 0 -196 67q-14 8 -35 9q-18 0 -36.5 -11.5t-82.5 -56.5z" />
<glyph unicode="&#x304;" horiz-adv-x="0" d="M-864 1309l24 127h690l-24 -127h-690z" />
<glyph unicode="&#x306;" horiz-adv-x="0" d="M-807 1493h131q8 -74 46 -100.5t120 -26.5q78 0 137.5 34t79.5 93h109q-72 -240 -353 -240q-127 0 -195.5 54.5t-74.5 185.5z" />
<glyph unicode="&#x307;" horiz-adv-x="0" d="M-604 1243l47 258h151l-47 -258h-151z" />
<glyph unicode="&#x308;" horiz-adv-x="0" d="M-760 1243l47 258h152l-47 -258h-152zM-459 1243l47 258h152l-47 -258h-152z" />
<glyph unicode="&#x309;" horiz-adv-x="0" d="M-713 1405q35 117 99.5 166t160.5 49q82 0 129.5 -38t47.5 -103q0 -57 -39 -103q-20 -20 -72 -55h-2q-84 -53 -94 -115h-111q10 109 125 185q78 51 78 82q0 45 -72 45q-98 0 -137 -113h-113z" />
<glyph unicode="&#x30a;" horiz-adv-x="0" d="M-713 1348q0 102 73 176.5t173 74.5q78 0 126 -49t48 -129q0 -90 -78 -162.5t-172 -72.5q-74 0 -122 46t-48 116zM-627 1370q0 -41 28 -67.5t73 -26.5q53 0 101 43t48 92q0 41 -30.5 69.5t-75.5 28.5q-53 0 -98.5 -43t-45.5 -96z" />
<glyph unicode="&#x30b;" horiz-adv-x="0" d="M-786 1298l393 250l63 -102l-397 -250zM-387 1298l395 250l62 -102l-398 -250z" />
<glyph unicode="&#x30c;" horiz-adv-x="0" d="M-844 1501h182l148 -151l209 151h186l-344 -258h-135z" />
<glyph unicode="&#x30f;" horiz-adv-x="0" d="M-1053 1446l101 102l301 -250l-97 -102zM-653 1446l102 102l299 -250l-96 -102z" />
<glyph unicode="&#x311;" horiz-adv-x="0" d="M-850 1253q72 240 352 240q127 0 196 -54.5t75 -185.5h-131q-8 74 -46 100.5t-120 26.5q-78 0 -137.5 -33.5t-79.5 -93.5h-109z" />
<glyph unicode="&#x323;" horiz-adv-x="0" d="M-905 -381l47 258h151l-47 -258h-151z" />
<glyph unicode="&#x326;" horiz-adv-x="0" d="M-985 -475l172 366h151l-178 -366h-145z" />
<glyph unicode="&#x32e;" horiz-adv-x="0" d="M-1096 -131h131q8 -74 46 -100.5t120 -26.5q78 0 137.5 34t79.5 93h109q-72 -240 -352 -240q-127 0 -196 54.5t-75 185.5z" />
<glyph unicode="&#x32f;" horiz-adv-x="0" d="M-1141 -371q72 240 353 240q127 0 195.5 -54.5t74.5 -185.5h-131q-8 74 -46 100.5t-120 26.5q-78 0 -137.5 -33.5t-79.5 -93.5h-109z" />
<glyph unicode="&#x330;" horiz-adv-x="0" d="M-1106 -254q100 104 182 104q29 0 113 -37.5t102 -37.5q74 0 146 78l43 -95q-82 -113 -189 -112q-55 0 -196 67q-14 8 -35 8q-18 0 -36.5 -11t-82.5 -56z" />
<glyph unicode="&#x331;" horiz-adv-x="0" d="M-1165 -315l24 127h690l-24 -127h-690z" />
<glyph unicode="&#x332;" horiz-adv-x="0" d="M-1165 -315l24 127h690l-24 -127h-690z" />
<glyph unicode="&#x391;" horiz-adv-x="1515" d="M-39 0l930 1513h170l371 -1513h-166l-125 510h-705l-315 -510h-160zM520 647h588l-164 694z" />
<glyph unicode="&#x392;" horiz-adv-x="1175" d="M94 0l281 1513h354q231 0 342 -71.5t111 -222.5q0 -137 -60.5 -249t-185.5 -163q115 -55 161 -116.5t46 -158.5q0 -117 -47 -224t-127 -177q-82 -72 -196 -101.5t-304 -29.5h-375zM270 137h207q283 0 395.5 94.5t112.5 264.5q0 133 -102 188q-76 41 -322 41h-186z M406 862h184q139 0 215 18.5t127 65.5q92 86 92 238q0 109 -72.5 150.5t-265.5 41.5h-184z" />
<glyph unicode="&#x393;" horiz-adv-x="993" d="M94 0l281 1513h768l-25 -137h-616l-256 -1376h-152z" />
<glyph unicode="&#x394;" horiz-adv-x="1320" d="M-63 0l831 1393h152l344 -1393h-1327zM209 154h835l-239 1017z" />
<glyph unicode="&#x395;" horiz-adv-x="1097" d="M94 0l281 1513h827l-24 -137h-676l-103 -542h654l-25 -138h-653l-105 -559h676l-24 -137h-828z" />
<glyph unicode="&#x396;" horiz-adv-x="983" d="M-27 0l25 137l975 1239h-721l24 137h891l-24 -137l-973 -1239h764l-25 -137h-936z" />
<glyph unicode="&#x397;" d="M94 0l281 1513h151l-123 -665h785l123 665h151l-280 -1513h-152l131 711h-784l-131 -711h-152z" />
<glyph unicode="&#x398;" horiz-adv-x="1779" d="M156 618q0 236 136 450t360.5 343t469.5 129q272 0 466 -183t194 -464q0 -233 -136.5 -447.5t-360.5 -343.5t-470 -129q-276 0 -467.5 184.5t-191.5 460.5zM313 647q0 -225 152.5 -379.5t374.5 -154.5q305 0 544.5 230t239.5 521q0 233 -151.5 385t-387.5 152 q-293 0 -532.5 -233.5t-239.5 -520.5zM653 682l29 152h602l-27 -152h-604z" />
<glyph unicode="&#x399;" horiz-adv-x="462" d="M94 0l281 1513h151l-280 -1513h-152z" />
<glyph unicode="&#x39a;" horiz-adv-x="1210" d="M94 0l281 1513h151l-161 -870l862 870h190l-735 -737l455 -776h-191l-383 655l-241 -241l-76 -414h-152z" />
<glyph unicode="&#x39b;" horiz-adv-x="1515" d="M-39 0l930 1513h170l371 -1513h-166l-322 1341l-823 -1341h-160z" />
<glyph unicode="&#x39c;" horiz-adv-x="1882" d="M94 0l281 1513h235l312 -1288l788 1288h236l-281 -1513h-152l250 1348l-819 -1348h-131l-317 1348l-250 -1348h-152z" />
<glyph unicode="&#x39d;" horiz-adv-x="1515" d="M94 0l281 1513h205l614 -1255l233 1255h152l-281 -1513h-151l-655 1331l-246 -1331h-152z" />
<glyph unicode="&#x39e;" d="M4 0l29 152h1267l-28 -152h-1268zM256 1362l29 151h1267l-28 -151h-1268zM285 682l26 152h961l-27 -152h-960z" />
<glyph unicode="&#x39f;" horiz-adv-x="1779" d="M156 618q0 236 136 450t360.5 343t469.5 129q272 0 466 -183t194 -464q0 -233 -136.5 -447.5t-360.5 -343.5t-470 -129q-276 0 -467.5 184.5t-191.5 460.5zM313 647q0 -225 152.5 -379.5t374.5 -154.5q305 0 544.5 230t239.5 521q0 233 -151.5 385t-387.5 152 q-293 0 -532.5 -233.5t-239.5 -520.5z" />
<glyph unicode="&#x3a0;" horiz-adv-x="1302" d="M66 0l245 1393h1121l-246 -1393h-170l219 1241h-780l-219 -1241h-170z" />
<glyph unicode="&#x3a1;" horiz-adv-x="1212" d="M94 0l281 1513h420q268 0 386.5 -80.5t118.5 -261.5q0 -117 -41.5 -226t-117.5 -185q-80 -80 -192.5 -114t-299.5 -34h-291l-112 -612h-152zM385 750h281q147 0 232 24.5t140 83.5q47 51 76 129t29 156q0 131 -96 188q-74 45 -330 45h-215z" />
<glyph unicode="&#x3a3;" horiz-adv-x="927" d="M-43 0l23 139l448 570l-235 542l24 142h848l-27 -152h-653l236 -532l-441 -557h692l-26 -152h-889z" />
<glyph unicode="&#x3a4;" horiz-adv-x="872" d="M209 1376l24 137h844l-24 -137h-346l-256 -1376h-152l256 1376h-346z" />
<glyph unicode="&#x3a5;" horiz-adv-x="1212" d="M223 1513h168l273 -847l598 847h165l-714 -1007l-95 -506h-151l94 506z" />
<glyph unicode="&#x3a6;" horiz-adv-x="1656" d="M207 758q25 135 135.5 236.5t256.5 152.5t316 61l56 305h151l-55 -305q258 -16 416.5 -133t122.5 -317q-37 -203 -239 -319.5t-468 -133.5l-57 -305h-152l58 305q-166 10 -294 61.5t-200 153t-47 238.5zM358 758q-18 -98 40.5 -167t153.5 -98.5t224 -35.5l111 600 q-205 -10 -353.5 -83t-175.5 -216zM928 457q207 10 353 82.5t173 218.5q27 143 -93 216t-323 83z" />
<glyph unicode="&#x3a7;" horiz-adv-x="1247" d="M-45 0l657 774l-348 739h178l289 -606l512 606h176l-622 -739l372 -774h-180l-305 647l-551 -647h-178z" />
<glyph unicode="&#x3a8;" horiz-adv-x="1628" d="M274 1120l74 393h152l-74 -393q-33 -186 73.5 -320t295.5 -159l161 872h152l-162 -872q199 25 356.5 159t190.5 320l74 393h151l-73 -393q-45 -248 -255 -427t-470 -206l-93 -487h-151l92 487q-252 27 -395.5 206t-98.5 427z" />
<glyph unicode="&#x3a9;" horiz-adv-x="1632" d="M111 -4l28 156h168q-86 63 -135 177.5t-49 250.5q0 61 8 108q31 193 163 361t322.5 266t389.5 98q264 0 449 -173t185 -423q0 -59 -12 -121q-33 -168 -132 -319.5t-228 -224.5h162l-29 -156h-475l28 160q186 51 328.5 199.5t179.5 340.5q10 51 11 90q0 195 -143.5 331 t-350.5 136q-236 0 -440.5 -167.5t-241.5 -397.5q-6 -41 -6 -82q0 -162 92 -283.5t238 -166.5l-29 -160h-481z" />
<glyph unicode="&#x3b1;" horiz-adv-x="1458" d="M166 537q47 250 236.5 430t420.5 180q129 0 215 -77t121 -208q72 154 144 258h172q-147 -207 -301 -592q-14 -90 -18.5 -145t-0.5 -122.5t36 -101.5t89 -34l-27 -152q-203 0 -237 260q-188 -260 -410 -260q-227 0 -354 166.5t-86 397.5zM317 537q-31 -170 60.5 -291 t255.5 -121q129 0 221 115.5t168 302.5q16 119 1 218t-73.5 166.5t-154.5 67.5q-168 0 -305.5 -136t-172.5 -322z" />
<glyph unicode="&#x3b2;" horiz-adv-x="991" d="M-70 -442q100 240 138 442l206 1120q33 174 166 300t295 126q143 0 212 -120.5t38 -286.5q-20 -102 -93 -190.5t-175 -139.5q96 -61 140 -162.5t24 -220.5q-35 -186 -159 -322.5t-280 -136.5q-123 0 -217 64l-6 -31q-39 -219 -133 -442h-156zM258 205q74 -86 213 -86 q96 0 166 91t92 216q25 133 -64.5 223t-232.5 90l25 140q133 0 244.5 72.5t132.5 187.5q20 104 -13 180t-114 76q-98 0 -179.5 -82t-101.5 -193z" />
<glyph unicode="&#x3b3;" horiz-adv-x="976" d="M113 1120h217q268 -317 264 -809l491 809h166l-690 -1136l-63 -334h-152l66 350q57 311 -23.5 601t-275.5 519z" />
<glyph unicode="&#x3b4;" horiz-adv-x="1427" d="M160 440q0 268 189.5 471t451.5 232l-330 254l61 125h805l-26 -138h-580q188 -152 432 -321q188 -129 189 -383q0 -287 -209 -497t-479 -210q-223 0 -363.5 130t-140.5 337zM317 467q0 -158 101.5 -256t265.5 -98q213 0 361.5 160.5t148.5 392.5q0 150 -98.5 246 t-249.5 96q-215 0 -372 -161t-157 -380z" />
<glyph unicode="&#x3b5;" horiz-adv-x="1169" d="M135 367q33 172 238 247q-150 76 -121 240q29 150 178.5 241t329.5 91q238 0 473 -115l-80 -125q-178 88 -422 88q-121 0 -216 -46t-112 -134q-6 -39 6.5 -67.5t34 -48t66.5 -33t81 -19.5t99.5 -10t100.5 -4h106l-25 -135h-110q-39 0 -107.5 -4.5t-108.5 -9.5t-92.5 -18 t-82 -30.5t-54 -45.5t-30.5 -62q-25 -125 73.5 -202t249.5 -77q236 0 424 84l37 -123q-258 -113 -489 -112q-213 0 -347.5 121t-99.5 309z" />
<glyph unicode="&#x3b6;" horiz-adv-x="868" d="M154 293q-4 125 18 268q43 231 173 442t325 373h-346l24 137h610l-24 -137h-55q-219 -141 -364.5 -357t-190.5 -458q-16 -88 -22.5 -148.5t-3.5 -126t35 -100t91 -34.5h51q98 0 144.5 -86t25.5 -203l-39 -213h-137l39 213q10 55 -5.5 96t-56.5 41h-51q-113 0 -175 84 t-66 209z" />
<glyph unicode="&#x3b7;" horiz-adv-x="1110" d="M68 0l206 1120h152l-23 -125q156 152 338 152q162 0 254 -117t64 -282l-205 -1098h-152l205 1098q18 102 -38 174.5t-156 72.5q-123 0 -222.5 -96t-148.5 -242l-123 -657h-151z" />
<glyph unicode="&#x3b8;" horiz-adv-x="1114" d="M175 457q1 129 28 276q31 158 76 292t113.5 255t167.5 190.5t220 69.5t196 -69.5t98.5 -189.5t19.5 -255t-35 -293q-37 -201 -104.5 -363.5t-189.5 -279.5t-273 -117q-115 0 -190 65.5t-101.5 177.5t-25.5 241zM318.5 401.5q-5.5 -118.5 45 -197.5t154.5 -79 q80 0 144.5 44t107.5 125t71.5 166t51.5 197h-551q-18 -137 -23.5 -255.5zM369 809h553q16 98 24 171t6 155t-20.5 134t-63.5 86t-114 34q-88 0 -153.5 -47.5t-110 -138.5t-70.5 -179t-51 -215z" />
<glyph unicode="&#x3b9;" horiz-adv-x="665" d="M264 218.5q-2 107.5 17 230.5l122 671h152l-123 -671q-12 -61 -17 -95.5t-8.5 -86.5t4 -79.5t28 -49t57.5 -21.5l-27 -152q-96 0 -149.5 73t-55.5 180.5z" />
<glyph unicode="&#x3ba;" horiz-adv-x="1028" d="M68 0l206 1120h152l-125 -680l647 680h187l-541 -563l362 -557h-188l-289 449l-217 -218l-43 -231h-151z" />
<glyph unicode="&#x3bb;" horiz-adv-x="1247" d="M68 0l692 1014l-12 84q-16 121 -69.5 199.5t-152.5 78.5l29 152q145 0 234.5 -109.5t111.5 -275.5l156 -1143h-160l-111 807l-550 -807h-168z" />
<glyph unicode="&#x3bc;" horiz-adv-x="1245" d="M2 -350l272 1470h152l-104 -569q-4 -184 59 -298t207 -114q141 0 247.5 114t170.5 298l104 569h152l-207 -1120h-152l35 188q-170 -203 -379 -200q-213 -2 -305 200l-100 -538h-152z" />
<glyph unicode="&#x3bd;" horiz-adv-x="1009" d="M207 1120h158l90 -948q287 233 352 576q31 172 41 372h153q-10 -186 -43 -372q-43 -229 -184 -433t-352 -340l-111 43z" />
<glyph unicode="&#x3be;" horiz-adv-x="808" d="M152 459q23 117 101.5 217t188.5 162q-80 49 -117.5 129t-19.5 176q25 133 125 233h-106l24 137h551l-25 -137h-233q-68 -20 -118 -85.5t-66 -147.5q-18 -104 57.5 -169t196.5 -65l-25 -137q-133 0 -245.5 -91t-137.5 -222q-55 -307 88 -307h43q94 0 133 -86t19 -203 l-39 -213h-137l39 213q27 137 -41 137h-46q-141 0 -192 135.5t-18 323.5z" />
<glyph unicode="&#x3bf;" horiz-adv-x="1341" d="M117 440q0 289 215 498t497 209q213 0 346.5 -129t133.5 -338q0 -287 -209 -497t-479 -210q-223 0 -363.5 130t-140.5 337zM274 467q0 -158 101.5 -256t265.5 -98q213 0 361.5 160.5t148.5 392.5q0 150 -98.5 246t-249.5 96q-215 0 -372 -161t-157 -380z" />
<glyph unicode="&#x3c0;" horiz-adv-x="1507" d="M207 748q29 154 147.5 263t261.5 109h908l-27 -151h-274l-181 -969h-151l180 969h-303l-180 -969h-152l180 969h-26q-82 0 -148.5 -65.5t-83.5 -155.5h-151z" />
<glyph unicode="&#x3c1;" horiz-adv-x="1241" d="M2 -350l170 911q45 238 216 412t384 174t320.5 -174t62.5 -411.5t-217 -413t-383 -175.5q-188 0 -315 133l-86 -456h-152zM274 295q39 -82 121 -126t187 -44q152 0 270.5 130t151.5 306q33 174 -39 304t-221.5 130t-268.5 -130t-151 -304z" />
<glyph unicode="&#x3c2;" horiz-adv-x="1107" d="M174 573.5q43 233.5 204 403.5t361 170q143 0 234.5 -94.5t87.5 -237.5l-139 -22q2 88 -57.5 145t-151.5 57q-141 0 -249 -126t-138 -296q-33 -170 28.5 -295.5t200.5 -125.5h78q125 0 199.5 -84t52.5 -205l-39 -213h-137l39 213q12 59 -32 98t-112 39h-76 q-203 0 -300 170t-54 403.5z" />
<glyph unicode="&#x3c3;" horiz-adv-x="1492" d="M160 440q0 289 215 498t497 209q61 0 117 -12q242 16 572 86l4 -148q-174 -37 -353 -49q139 -129 140 -344q0 -287 -209 -497t-479 -210q-223 0 -363.5 130t-140.5 337zM317 467q0 -158 101.5 -256t265.5 -98q213 0 361.5 160.5t148.5 392.5q0 150 -98.5 246t-249.5 96 q-215 0 -372 -161t-157 -380z" />
<glyph unicode="&#x3c4;" horiz-adv-x="980" d="M248 969l26 151h723l-26 -151h-287l-96 -520q-23 -127 41.5 -219.5t185.5 -92.5l-27 -151q-184 0 -285.5 136t-66.5 327l96 520h-284z" />
<glyph unicode="&#x3c5;" horiz-adv-x="1107" d="M137 373l137 747h152l-137 -747q-20 -102 39 -175t161 -73q133 0 237.5 115.5t133.5 271.5q55 295 60 608h153q-4 -301 -61 -608q-39 -217 -198 -378t-353 -161q-164 0 -259.5 118t-64.5 282z" />
<glyph unicode="&#x3c6;" horiz-adv-x="1441" d="M170 561q31 168 135.5 319.5t259.5 252.5l68 -123q-123 -78 -205 -197t-106 -252q-31 -162 52 -282.5t234 -147.5l70 381q23 125 58.5 230.5t89 200.5t132 149.5t172.5 54.5q117 0 180.5 -89t65.5 -219t-20 -278q-41 -223 -220.5 -389t-404.5 -195l-61 -327h-152l62 327 q-215 29 -333 194t-77 390zM760 131q162 27 288 147.5t156 282.5q14 78 21.5 125t9.5 113.5t-9.5 103.5t-42 64.5t-81.5 27.5q-43 0 -79 -17t-63.5 -60.5t-46 -78t-36 -105t-24.5 -106.5l-24 -116z" />
<glyph unicode="&#x3c7;" horiz-adv-x="1148" d="M2 -350l498 735l-226 735h170l172 -563l381 563h170l-497 -735l225 -735h-170l-172 563l-381 -563h-170z" />
<glyph unicode="&#x3c8;" horiz-adv-x="1441" d="M139 373l137 747h152l-137 -747q-20 -115 71 -174.5t246 -71.5l256 1386h152l-256 -1386q160 12 274.5 71.5t134.5 174.5l138 747h151l-137 -747q-33 -172 -201 -275.5t-389 -122.5l-59 -325h-152l60 325q-213 18 -343.5 122t-97.5 276z" />
<glyph unicode="&#x3c9;" horiz-adv-x="1472" d="M153 362.5q1 104.5 23 223.5q43 229 156 534h139q-90 -240 -143 -534l-22.5 -132.5t-11.5 -121t9 -109.5t44 -69.5t85 -28.5q111 0 171.5 102.5t96.5 278.5q8 84 37 242h152l-22 -125q-7 -41 -18 -119t-12 -121t2 -99.5t17 -86t42 -51t67 -21.5q45 0 80.5 17.5t63.5 55.5 t46.5 74.5t35.5 99t26 103.5l22 111q55 301 55 534h140q0 -301 -43 -534q-23 -119 -60 -223.5t-92 -194.5t-133 -142.5t-170 -52.5q-186 0 -231 195q-125 -195 -302 -195q-92 0 -150 52.5t-79.5 142.5t-20.5 194.5z" />
<glyph unicode="&#x3d1;" horiz-adv-x="1183" d="M152 449l55 299h151l-55 -299q-25 -131 34.5 -227.5t178.5 -96.5q117 0 213 96t121 228l70 382q-113 4 -200 15.5t-172 37t-137.5 65.5t-77 104.5t-7.5 150.5q29 158 164 267.5t296 109.5q178 0 275.5 -136t62.5 -325l-28 -155h75l-24 -138h-76l-70 -378 q-37 -195 -185 -335.5t-328.5 -140.5t-276.5 140.5t-59 335.5zM461 1204q-12 -68 20.5 -115t107.5 -71.5t158.5 -35.5t196.5 -15l29 153q25 131 -34.5 228.5t-178.5 97.5q-104 0 -191.5 -71t-107.5 -171z" />
<glyph unicode="&#x3d5;" horiz-adv-x="1341" d="M117 440q0 264 184 466t442 235l70 372h154l-70 -370q186 -23 299 -148t113 -315q0 -268 -187.5 -473t-439.5 -230l-61 -327h-154l61 330q-186 27 -298.5 151.5t-112.5 308.5zM274 467q0 -135 76 -228.5t205 -117.5l164 878q-188 -33 -316.5 -184t-128.5 -348zM709 117 q190 27 316 181.5t126 367.5q0 131 -77 222t-202 113z" />
<glyph unicode="&#x3d6;" horiz-adv-x="1472" d="M153 362.5q1 104.5 23 223.5q43 229 156 534h139q-90 -240 -143 -534l-22.5 -132.5t-11.5 -121t9 -109.5t44 -69.5t85 -28.5q111 0 171.5 102.5t96.5 278.5q8 84 37 242h152l-22 -125q-7 -41 -18 -119t-12 -121t2 -99.5t17 -86t42 -51t67 -21.5q45 0 80.5 17.5t63.5 55.5 t46.5 74.5t35.5 99t26 103.5l22 111q27 143 30 267t-18.5 234.5t-90 174t-179.5 63.5q-229 0 -457 -74l-20 131q256 78 502 78q137 0 232 -75.5t133 -199.5t46 -280.5t-26 -318.5q-23 -119 -60 -223.5t-92 -194.5t-133 -142.5t-170 -52.5q-186 0 -231 195 q-125 -195 -302 -195q-92 0 -150 52.5t-79.5 142.5t-20.5 194.5z" />
<glyph unicode="&#x3f5;" horiz-adv-x="1325" d="M119 455q0 272 217 482t500 210q174 0 300 -81t177 -226h-183q-102 168 -319 168q-170 0 -313.5 -108.5t-196.5 -270.5h637l-25 -137h-637v-15q0 -160 105.5 -262t269.5 -102q113 0 192 34.5t183 133.5h182q-133 -168 -271 -238t-304 -70q-229 0 -371.5 133.5 t-142.5 348.5z" />
<glyph unicode="&#x400;" horiz-adv-x="1097" d="M94 0l281 1513h827l-24 -137h-676l-103 -542h654l-25 -138h-653l-105 -559h676l-24 -137h-828zM633 1956l82 106l370 -239l-79 -105z" />
<glyph unicode="&#x401;" horiz-adv-x="1097" d="M94 0l281 1513h827l-24 -137h-676l-103 -542h654l-25 -138h-653l-105 -559h676l-24 -137h-828zM582 1649l47 258h151l-47 -258h-151zM883 1649l47 258h151l-47 -258h-151z" />
<glyph unicode="&#x402;" horiz-adv-x="872" d="M209 1376l24 137h844l-24 -137h-346l-76 -401q156 172 379 172q193 0 300 -99.5t107 -277.5q0 -53 -20 -168l-111 -602q-35 -184 -129 -280.5t-278 -96.5h-52l23 119q119 0 191.5 70.5t93.5 187.5l110 602q14 86 15 148q0 113 -80 185.5t-205 72.5q-82 0 -165 -38 t-136 -102q-45 -51 -67.5 -103t-41.5 -151l-114 -614h-152l256 1376h-346z" />
<glyph unicode="&#x403;" horiz-adv-x="993" d="M94 0l281 1513h768l-25 -137h-616l-256 -1376h-152zM680 1712l438 238l49 -119l-438 -234z" />
<glyph unicode="&#x404;" horiz-adv-x="1665" d="M154 594q0 252 129 470t348 347t471 129q233 0 404 -116.5t210 -303.5h-168q-53 119 -131 180q-135 100 -336 101q-178 0 -334.5 -80t-271.5 -227q-90 -117 -129 -246h840l-27 -137h-842q-6 -37 -6 -76q0 -227 151.5 -374.5t383.5 -147.5q315 0 575 284h168 q-137 -201 -337.5 -312.5t-430.5 -111.5q-297 0 -482 173.5t-185 447.5z" />
<glyph unicode="&#x405;" horiz-adv-x="1019" d="M53 338q0 20 4 86h162q0 -133 37 -199q63 -113 223 -112q147 0 255 107.5t108 254.5q0 94 -61.5 148.5t-223.5 105.5q-199 61 -258 135q-63 78 -63 201q0 162 126 309q143 166 377 166q160 0 257.5 -91t97.5 -241q0 -23 -7 -78h-157q0 127 -37 181q-61 90 -180 90 q-156 0 -246 -117q-74 -98 -74 -197q0 -31 13.5 -69.5t31.5 -56.5q23 -23 60 -40.5t147 -54.5q131 -45 193.5 -78.5t95.5 -76.5q66 -82 65 -207q0 -186 -139 -344q-168 -186 -411 -187q-174 0 -285 101.5t-111 263.5z" />
<glyph unicode="&#x406;" horiz-adv-x="462" d="M94 0l281 1513h151l-280 -1513h-152z" />
<glyph unicode="&#x407;" horiz-adv-x="462" d="M94 0l281 1513h151l-280 -1513h-152zM250 1649l47 258h152l-48 -258h-151zM551 1649l47 258h152l-48 -258h-151z" />
<glyph unicode="&#x408;" horiz-adv-x="987" d="M23 299q0 37 4 59h149q6 -70 12 -94q31 -154 197 -153q168 0 254 159q39 70 66 203l194 1040h152l-195 -1040q-45 -248 -171 -375t-323 -127q-176 0 -272 109q-67 80 -67 219z" />
<glyph unicode="&#x409;" horiz-adv-x="2332" d="M102 0l908 1513h147l150 -651h448q270 0 407.5 -72.5t137.5 -257.5q0 -117 -47 -224t-127 -177q-82 -72 -195.5 -101.5t-304.5 -29.5h-293l-286 1325l-781 -1325h-164zM1335 725l131 -588h168q297 0 404 101q104 100 104 258q0 133 -102 188q-76 41 -322 41h-383z" />
<glyph unicode="&#x40a;" horiz-adv-x="2111" d="M94 0l281 1513h151l-120 -655h784l121 655h151l-121 -651h193q276 0 410.5 -72.5t134.5 -257.5q0 -117 -47 -224t-127 -177q-82 -72 -196 -101.5t-304 -29.5h-375l133 721h-784l-133 -721h-152zM1206 137h207q297 0 404 101q104 100 104 258q0 133 -102 188 q-76 41 -322 41h-180z" />
<glyph unicode="&#x40b;" horiz-adv-x="872" d="M209 1376l24 137h844l-24 -137h-346l-76 -401q156 172 379 172q193 0 300 -99.5t107 -277.5q0 -53 -20 -168l-111 -602h-151l110 602q14 68 15 148q0 113 -80 185.5t-205 72.5q-82 0 -165 -38t-136 -102q-45 -51 -67.5 -103t-41.5 -151l-114 -614h-152l256 1376h-346z " />
<glyph unicode="&#x40c;" horiz-adv-x="1130" d="M94 0l281 1513h151l-280 -1513h-152zM420 776l727 737h190l-716 -737l454 -776h-209zM680 1712l438 238l49 -119l-438 -234z" />
<glyph unicode="&#x40d;" horiz-adv-x="1515" d="M94 0l281 1513h157l-237 -1255l1079 1255h205l-281 -1513h-151l246 1331l-1147 -1331h-152zM821 1956l82 106l371 -239l-80 -105z" />
<glyph unicode="&#x40e;" horiz-adv-x="1212" d="M188 0l359 516l-324 997h168l273 -847l598 847h165l-1073 -1513h-166zM596 1769h131q8 -70 39 -94q37 -33 127 -33t151 44q47 29 66 83h109q-35 -121 -132 -182q-90 -57 -221 -57q-139 0 -211 69q-53 53 -59 170z" />
<glyph unicode="&#x40f;" d="M94 0l281 1513h151l-254 -1376h785l254 1376h151l-280 -1513h-449l-57 -315h-150l60 315h-492z" />
<glyph unicode="&#x410;" horiz-adv-x="1515" d="M-39 0l930 1513h170l371 -1513h-166l-125 510h-705l-315 -510h-160zM520 647h588l-164 694z" />
<glyph unicode="&#x411;" horiz-adv-x="1175" d="M94 0l295 1513h950l-26 -137h-799l-80 -405h223q291 0 431.5 -86t140.5 -275q0 -289 -200 -449.5t-560 -160.5h-375zM272 137h213q276 0 431 108.5t155 327.5q0 143 -112.5 202t-337.5 59h-213z" />
<glyph unicode="&#x412;" horiz-adv-x="1175" d="M94 0l295 1513h416q258 0 364 -88q86 -74 86 -217q0 -137 -68.5 -247.5t-174.5 -153.5q197 -70 196 -272q0 -252 -181 -393.5t-503 -141.5h-430zM272 137h269q236 0 374 88t138 279q0 125 -102.5 173t-321.5 48h-242zM414 858h245q440 0 441 332q0 111 -89 148.5 t-276 37.5h-221z" />
<glyph unicode="&#x413;" horiz-adv-x="993" d="M94 0l281 1513h850l-25 -137h-698l-256 -1376h-152z" />
<glyph unicode="&#x414;" horiz-adv-x="1835" d="M4 -315l86 465h268l818 1363h147l307 -1363h268l-86 -465h-149l59 315h-1511l-59 -315h-148zM520 150h946l-254 1175z" />
<glyph unicode="&#x415;" horiz-adv-x="1097" d="M94 0l281 1513h827l-24 -137h-676l-103 -542h654l-25 -138h-653l-105 -559h676l-24 -137h-828z" />
<glyph unicode="&#x416;" horiz-adv-x="1898" d="M61 0l738 737l-455 776h191l446 -776l-737 -737h-183zM870 0l281 1513h152l-281 -1513h-152zM1188 776l737 737h180l-735 -737l455 -776h-191z" />
<glyph unicode="&#x417;" horiz-adv-x="1183" d="M-41 397h162q29 -90 142.5 -187t287.5 -97q213 0 357.5 96t144.5 276q0 111 -76 178.5t-193 67.5h-254l27 137h258q133 0 232.5 88t99.5 213q0 109 -99.5 170.5t-234.5 61.5q-119 0 -221.5 -43t-156.5 -95.5t-83 -95.5l-30 -43h-154l20 43q23 43 76 103.5t127 122 t196 104.5t261 43q186 0 322.5 -95t136.5 -251q0 -129 -80 -237.5t-191 -163.5q72 -23 123 -101t51 -184q0 -244 -200.5 -389.5t-497.5 -145.5q-123 0 -223.5 38t-157.5 91.5t-98 117t-56.5 107t-17.5 70.5z" />
<glyph unicode="&#x418;" horiz-adv-x="1515" d="M94 0l281 1513h157l-237 -1255l1079 1255h205l-281 -1513h-151l246 1331l-1147 -1331h-152z" />
<glyph unicode="&#x419;" horiz-adv-x="1515" d="M94 0l281 1513h157l-237 -1255l1079 1255h205l-281 -1513h-151l246 1331l-1147 -1331h-152zM682 1761h131q8 -70 39 -94q37 -33 127 -33t151 43q47 29 66 84h109q-35 -121 -131 -182q-90 -57 -222 -57q-139 0 -211 69q-53 53 -59 170z" />
<glyph unicode="&#x41a;" horiz-adv-x="1130" d="M94 0l281 1513h151l-280 -1513h-152zM420 776l727 737h190l-716 -737l454 -776h-209z" />
<glyph unicode="&#x41b;" horiz-adv-x="1437" d="M102 0l908 1513h147l342 -1513h-166l-286 1325l-781 -1325h-164z" />
<glyph unicode="&#x41c;" horiz-adv-x="1882" d="M94 0l281 1513h235l312 -1288l788 1288h236l-281 -1513h-152l250 1348l-819 -1348h-131l-317 1348l-250 -1348h-152z" />
<glyph unicode="&#x41d;" d="M94 0l281 1513h151l-123 -665h785l123 665h151l-280 -1513h-152l131 711h-784l-131 -711h-152z" />
<glyph unicode="&#x41e;" horiz-adv-x="1779" d="M156 618q0 236 136 450t360.5 343t469.5 129q158 0 300.5 -68.5t234.5 -189.5q125 -168 125 -389q0 -233 -136.5 -447.5t-360.5 -343.5t-470 -129q-158 0 -303 70t-233 188q-123 166 -123 387zM313 647q0 -225 152.5 -379.5t374.5 -154.5q305 0 544.5 230t239.5 521 q0 233 -151.5 385t-387.5 152q-293 0 -532.5 -233.5t-239.5 -520.5z" />
<glyph unicode="&#x41f;" d="M94 0l281 1513h1087l-280 -1513h-152l254 1376h-784l-254 -1376h-152z" />
<glyph unicode="&#x420;" horiz-adv-x="1212" d="M94 0l281 1513h420q268 0 386.5 -80.5t118.5 -261.5q0 -117 -41.5 -226t-117.5 -185q-80 -80 -192.5 -114t-299.5 -34h-291l-112 -612h-152zM385 750h281q147 0 232 24.5t140 83.5q47 51 76 129t29 156q0 131 -96 188q-74 45 -330 45h-215z" />
<glyph unicode="&#x421;" horiz-adv-x="1665" d="M156 594q0 252 129 470t348 347t471 129q233 0 404 -116.5t210 -303.5h-168q-53 119 -131 180q-135 100 -336 101q-178 0 -334.5 -80t-271.5 -227q-164 -213 -164 -459q0 -227 151.5 -374.5t383.5 -147.5q315 0 575 284h168q-137 -201 -337.5 -312.5t-430.5 -111.5 q-297 0 -482 173.5t-185 447.5z" />
<glyph unicode="&#x422;" horiz-adv-x="995" d="M209 1376l24 137h844l-24 -137h-346l-256 -1376h-152l256 1376h-346z" />
<glyph unicode="&#x423;" horiz-adv-x="1212" d="M188 0l359 516l-324 997h168l273 -847l598 847h165l-1073 -1513h-166z" />
<glyph unicode="&#x424;" horiz-adv-x="1859" d="M156 680q0 233 135 446t358 343t469 130l17 84h151l-18 -84q158 -2 301 -71.5t231 -186.5q123 -166 123 -387q0 -233 -133 -447t-355.5 -344t-465.5 -130l-31 -156h-152l31 156q-158 2 -301 70.5t-235 187.5q-125 168 -125 389zM313 709q0 -231 150.5 -383t384.5 -154 l246 1288q-147 0 -291 -64.5t-251.5 -167t-173 -240.5t-65.5 -279zM997 172q293 2 530.5 235.5t237.5 518.5q0 223 -151.5 377.5t-370.5 156.5z" />
<glyph unicode="&#x425;" horiz-adv-x="1247" d="M-45 0l657 774l-348 739h178l289 -606l512 606h176l-622 -739l372 -774h-180l-305 647l-551 -647h-178z" />
<glyph unicode="&#x426;" d="M94 0l281 1513h151l-256 -1363h781l260 1363h151l-252 -1363h240l-86 -465h-150l60 315h-1180z" />
<glyph unicode="&#x427;" horiz-adv-x="1210" d="M68 743q0 53 20 168l111 602h151l-110 -602q-14 -68 -15 -147q0 -113 80 -185.5t205 -72.5q82 0 165 38t136 101q45 51 67.5 103.5t41.5 150.5l114 614h152l-281 -1513h-151l100 539q-156 -172 -379 -172q-193 0 -300 99t-107 277z" />
<glyph unicode="&#x428;" horiz-adv-x="2031" d="M94 0l281 1513h151l-256 -1363h648l260 1363h151l-252 -1363h606l261 1363h151l-283 -1513h-1718z" />
<glyph unicode="&#x429;" horiz-adv-x="2031" d="M94 0l281 1513h151l-256 -1363h648l260 1363h151l-252 -1363h606l261 1363h151l-254 -1363h240l-86 -465h-150l60 315h-1811z" />
<glyph unicode="&#x42a;" horiz-adv-x="1257" d="M10 1364l23 149h504l-107 -542h223q291 0 431.5 -86t140.5 -275q0 -289 -200 -449.5t-560 -160.5h-375l258 1364h-338zM268 137h213q276 0 431 108.5t155 327.5q0 143 -112.5 202t-338.5 59h-213z" />
<glyph unicode="&#x42b;" horiz-adv-x="1564" d="M88 0l295 1513h152l-107 -542h223q291 0 431.5 -86t140.5 -275q0 -289 -200 -449.5t-560 -160.5h-375zM266 137h213q276 0 431 108.5t155 327.5q0 143 -112.5 202t-338.5 59h-213zM1257 0l281 1513h152l-281 -1513h-152z" />
<glyph unicode="&#x42c;" horiz-adv-x="1175" d="M88 0l295 1513h152l-107 -542h223q291 0 431.5 -86t140.5 -275q0 -289 -200 -449.5t-560 -160.5h-375zM266 137h213q276 0 431 108.5t155 327.5q0 143 -112.5 202t-338.5 59h-213z" />
<glyph unicode="&#x42d;" horiz-adv-x="1779" d="M193 397h180q68 -129 191.5 -206.5t275.5 -77.5q260 0 481 175t283 423h-836l27 137h829v16q0 233 -151.5 385t-387.5 152q-158 0 -309 -77t-266 -204h-180q139 188 351 304t441 116q158 0 300.5 -68.5t234.5 -189.5q125 -168 125 -389q0 -233 -136.5 -447.5 t-360.5 -343.5t-470 -129q-158 0 -303 70t-233 188q-55 74 -86 166z" />
<glyph unicode="&#x42e;" horiz-adv-x="2211" d="M94 0l295 1513h152l-129 -665h225q90 289 357.5 490.5t568.5 201.5q289 0 475 -182t186 -457q0 -193 -89 -368t-228.5 -295.5t-311.5 -192.5t-335 -72q-289 0 -472.5 182.5t-183.5 454.5q0 49 6 101h-225l-139 -711h-152zM752 637q0 -227 148.5 -375.5t385.5 -148.5 q186 0 366.5 101t298 279.5t117.5 380.5q0 225 -150.5 376t-381.5 151q-186 0 -366.5 -101.5t-299 -280.5t-118.5 -382z" />
<glyph unicode="&#x42f;" horiz-adv-x="1257" d="M29 0l602 571q-213 0 -323.5 93.5t-110.5 255.5q0 170 90 311t227 209q150 74 438 73h375l-295 -1513h-151l268 1376h-213q-233 0 -358 -55q-100 -43 -163 -146.5t-63 -230.5q0 -182 176 -231q53 -14 416 -15l-727 -698h-188z" />
<glyph unicode="&#x430;" d="M119 442q0 285 211 495t497 210q164 0 275 -74q72 -47 125 -151l37 198h151l-207 -1120h-151l37 197q-125 -127 -227.5 -175.5t-245.5 -48.5q-225 0 -363.5 129t-138.5 340zM276 481q0 -164 103.5 -266t271.5 -102q205 0 361.5 163.5t156.5 376.5q0 154 -101 254.5 t-255 100.5q-213 0 -375 -159t-162 -368z" />
<glyph unicode="&#x431;" horiz-adv-x="1341" d="M123 440q0 123 28.5 272.5t84 303t152.5 285t220 190.5q113 41 224.5 61.5t198.5 21.5t196 7q139 8 241 53l2 -135q-33 -12 -58.5 -24.5t-66 -18.5t-94.5 -2q-133 -2 -300 -21.5t-298 -82.5q-86 -53 -146.5 -123t-85 -122t-32.5 -89l-10 -37q205 168 457 168 q213 0 346 -129t133 -338q0 -279 -197 -485q-209 -221 -491 -222q-221 0 -362.5 134t-141.5 333zM281 467q0 -158 101 -256t265 -98q213 0 361.5 160.5t148.5 392.5q0 150 -98 246t-250 96q-215 0 -371.5 -161t-156.5 -380z" />
<glyph unicode="&#x432;" horiz-adv-x="1003" d="M59 0l217 1120h390q150 0 218 -67.5t68 -163.5q0 -129 -110 -230q170 -74 170 -243q0 -188 -148.5 -302t-353.5 -114h-451zM238 139h297q139 2 230 67.5t91 182.5q0 82 -65.5 124t-180.5 42h-291zM346 692h229q119 0 172.5 56.5t53.5 128.5q0 102 -164 104h-236z" />
<glyph unicode="&#x433;" horiz-adv-x="905" d="M68 0l206 1120h715l-26 -147h-568l-176 -973h-151z" />
<glyph unicode="&#x434;" horiz-adv-x="1198" d="M-6 -287l80 434h200l588 973h160l229 -973h222l-80 -434h-152l55 287h-1116l-55 -287h-131zM428 147h670l-185 795z" />
<glyph unicode="&#x435;" horiz-adv-x="1331" d="M119 451q0 276 210 486t486 210q213 0 349 -131t136 -336q0 -66 -18 -170h-1014q-4 -49 -4 -57q0 -143 106.5 -241.5t260.5 -98.5q125 0 249 71.5t189 184.5h158q-98 -180 -267 -288t-356 -108q-209 0 -347 136.5t-138 341.5zM299 647h858q-8 166 -107.5 263.5 t-261.5 97.5q-160 0 -297 -101.5t-192 -259.5z" />
<glyph unicode="&#x436;" horiz-adv-x="1505" d="M-31 0l541 563l-363 557h189l352 -561l-532 -559h-187zM610 0l209 1120h152l-209 -1120h-152zM891 561l532 559h187l-541 -563l363 -557h-189z" />
<glyph unicode="&#x437;" horiz-adv-x="1105" d="M68 309h137l20 -49q18 -49 87 -98t167 -49q139 0 240.5 65.5t101.5 173.5q0 82 -67.5 126t-175.5 44h-148l31 150h147q86 0 160 58t74 144q0 59 -58.5 96.5t-132.5 37.5q-78 0 -142.5 -39t-90.5 -76l-25 -39h-137l27 47q27 45 73.5 99.5t134 100.5t189.5 46 q145 0 224 -63.5t79 -170.5q0 -229 -192 -305q78 -12 127 -82.5t49 -158.5q0 -190 -139.5 -292t-376.5 -102q-100 0 -176 35t-114 84t-60.5 98.5t-26.5 83.5z" />
<glyph unicode="&#x438;" horiz-adv-x="1249" d="M68 0l206 1120h152l-160 -862l791 862h205l-207 -1120h-152l176 938l-860 -938h-151z" />
<glyph unicode="&#x439;" horiz-adv-x="1249" d="M68 0l206 1120h152l-160 -862l791 862h205l-207 -1120h-152l176 938l-860 -938h-151zM520 1415h131q8 -70 39 -94q37 -33 127 -33t152 43q47 29 65 84h109q-35 -121 -131 -182q-90 -57 -221 -57q-139 0 -211 69q-54 53 -60 170z" />
<glyph unicode="&#x43a;" horiz-adv-x="964" d="M68 0l208 1120h152l-209 -1120h-151zM348 561l533 559h186l-541 -563l363 -557h-189l-156 243q-133 203 -196 318z" />
<glyph unicode="&#x43b;" horiz-adv-x="1155" d="M96 0l678 1120h160l264 -1120h-154l-219 942l-575 -942h-154z" />
<glyph unicode="&#x43c;" horiz-adv-x="1357" d="M68 0l206 1120h154l219 -942l576 942h147l-207 -1120h-151l145 760l-459 -760h-159l-181 760l-139 -760h-151z" />
<glyph unicode="&#x43d;" horiz-adv-x="1204" d="M68 0l206 1120h152l-82 -461h680l86 461h152l-207 -1120h-152l101 539h-682l-103 -539h-151z" />
<glyph unicode="&#x43e;" horiz-adv-x="1341" d="M117 440q0 127 50 253t140 222q215 231 522 232q213 0 346.5 -129t133.5 -338q0 -279 -197 -485q-209 -221 -491 -222q-223 0 -363.5 130t-140.5 337zM274 467q0 -158 101.5 -256t265.5 -98q213 0 361.5 160.5t148.5 392.5q0 150 -98.5 246t-249.5 96q-215 0 -372 -161 t-157 -380z" />
<glyph unicode="&#x43f;" horiz-adv-x="1198" d="M68 0l206 1120h988l-207 -1120h-152l182 973h-686l-180 -973h-151z" />
<glyph unicode="&#x440;" horiz-adv-x="1396" d="M-6 -393l280 1513h152l-35 -192q76 100 205 159.5t274 59.5q221 0 356.5 -133t135.5 -348q0 -272 -214 -482.5t-493 -210.5q-287 0 -401 220l-109 -586h-151zM301 465q0 -152 104.5 -252t260.5 -100q240 0 409 194q57 63 93 159.5t36 182.5q0 156 -103.5 257.5 t-262.5 101.5q-117 0 -229.5 -57.5t-194.5 -157.5q-113 -140 -113 -328z" />
<glyph unicode="&#x441;" horiz-adv-x="1325" d="M119 455q0 272 217 482t500 210q193 0 324.5 -98.5t168.5 -268.5h-170q-41 109 -132 168.5t-216 59.5q-213 0 -374 -160t-161 -371q0 -160 105.5 -262t269.5 -102q154 0 281 86q43 29 145 131h170q-115 -158 -217 -230q-186 -127 -397 -127q-115 0 -223.5 42t-171.5 112 q-119 129 -119 328z" />
<glyph unicode="&#x442;" horiz-adv-x="903" d="M145 983l25 137h645l-24 -137h-265l-182 -983h-151l182 983h-230z" />
<glyph unicode="&#x443;" horiz-adv-x="1097" d="M137 -393l260 430l-233 1083h166l188 -893l545 893h162l-928 -1513h-160z" />
<glyph unicode="&#x444;" horiz-adv-x="1484" d="M117 440q0 127 50 253t140 222q215 231 522 232l11 80h151l-14 -80q213 -2 344 -131t131 -336q0 -279 -197 -485q-209 -217 -495 -222l-49 -260h-152l55 260q-221 2 -359 131t-138 336zM274 467q0 -158 100.5 -255t262.5 -99l164 895q-215 0 -371 -161t-156 -380z M784 113q213 2 361.5 162.5t148.5 390.5q0 147 -97 243.5t-247 98.5z" />
<glyph unicode="&#x445;" horiz-adv-x="983" d="M-45 0l496 571l-289 549h172l223 -432l381 432h174l-491 -549l284 -571h-174l-217 449l-387 -449h-172z" />
<glyph unicode="&#x446;" horiz-adv-x="1196" d="M68 0l206 1120h152l-182 -973h585l181 973h151l-180 -973h205l-80 -434h-152l56 287h-942z" />
<glyph unicode="&#x447;" horiz-adv-x="874" d="M41 692q0 37 6 74l66 354h151l-61 -350q-6 -41 -6 -74q0 -102 57 -157.5t164 -55.5q74 0 156.5 31t125.5 70l105 536h151l-206 -1120h-152l82 463q-57 -43 -141 -70.5t-146 -27.5q-143 0 -247.5 91t-104.5 236z" />
<glyph unicode="&#x448;" horiz-adv-x="1798" d="M68 0l206 1120h152l-182 -973h575l180 973h152l-180 -973h553l180 973h151l-206 -1120h-1581z" />
<glyph unicode="&#x449;" horiz-adv-x="1798" d="M68 0l206 1120h152l-182 -973h575l180 973h152l-180 -973h553l180 973h151l-180 -973h150l-80 -434h-152l56 287h-1581z" />
<glyph unicode="&#x44a;" horiz-adv-x="1167" d="M117 969l28 151h504l-69 -364h290q168 0 268.5 -83t100.5 -222q0 -193 -154.5 -322t-353.5 -129h-450l178 969h-342zM459 137h297q135 2 231 82t96 203q0 88 -65.5 141t-175.5 53h-291z" />
<glyph unicode="&#x44b;" horiz-adv-x="1415" d="M61 0l218 1120h151l-70 -364h291q168 0 268.5 -83t100.5 -222q0 -193 -154.5 -322t-353.5 -129h-451zM240 137h297q135 2 231 82t96 203q0 88 -65.5 141t-175.5 53h-291zM1110 0l207 1120h151l-206 -1120h-152z" />
<glyph unicode="&#x44c;" horiz-adv-x="954" d="M61 0l218 1120h151l-70 -364h291q168 0 268.5 -83t100.5 -222q0 -193 -154.5 -322t-353.5 -129h-451zM240 137h297q135 2 231 82t96 203q0 88 -65.5 141t-175.5 53h-291z" />
<glyph unicode="&#x44d;" horiz-adv-x="1306" d="M129 330h170q39 -100 129 -158.5t213 -58.5q180 0 318.5 119.5t179.5 306.5h-625l23 120h614q2 154 -97.5 251.5t-250.5 97.5q-129 0 -240.5 -61.5t-185.5 -166.5h-166q39 72 96 135q215 231 522 232q213 0 346.5 -129t133.5 -338q0 -303 -193.5 -505t-494.5 -202 q-188 0 -321.5 97.5t-170.5 259.5z" />
<glyph unicode="&#x44e;" horiz-adv-x="1730" d="M68 0l217 1120h149l-94 -491h215q66 223 260.5 370.5t425.5 147.5q217 0 348 -128t131 -335q0 -295 -214 -503t-482 -208q-227 0 -362.5 130t-135.5 341q0 31 2 48h-217l-94 -492h-149zM682 463q0 -158 100.5 -254t266.5 -96q203 0 359.5 159.5t156.5 380.5 q0 158 -96.5 256.5t-256.5 98.5q-207 0 -368.5 -161t-161.5 -384z" />
<glyph unicode="&#x44f;" horiz-adv-x="1077" d="M-51 0l389 379q-113 29 -177.5 105.5t-64.5 185.5q0 195 155 322.5t353 127.5h451l-217 -1120h-152l191 983h-297q-135 -2 -231.5 -82t-96.5 -203q0 -88 65.5 -141t176.5 -53h159l-516 -504h-188z" />
<glyph unicode="&#x450;" horiz-adv-x="1331" d="M119 451q0 276 210 486t486 210q213 0 349 -131t136 -336q0 -66 -18 -170h-1014q-4 -49 -4 -57q0 -143 106.5 -241.5t260.5 -98.5q125 0 249 71.5t189 184.5h158q-98 -180 -267 -288t-356 -108q-209 0 -347 136.5t-138 341.5zM299 647h858q-8 166 -107.5 263.5 t-261.5 97.5q-160 0 -297 -101.5t-192 -259.5zM664 1563l81 106l371 -239l-80 -105z" />
<glyph unicode="&#x451;" horiz-adv-x="1331" d="M119 451q0 276 210 486t486 210q213 0 349 -131t136 -336q0 -66 -18 -170h-1014q-4 -49 -4 -57q0 -143 106.5 -241.5t260.5 -98.5q125 0 249 71.5t189 184.5h158q-98 -180 -267 -288t-356 -108q-209 0 -347 136.5t-138 341.5zM299 647h858q-8 166 -107.5 263.5 t-261.5 97.5q-160 0 -297 -101.5t-192 -259.5zM631 1276l47 258h151l-47 -258h-151zM932 1276l47 258h151l-47 -258h-151z" />
<glyph unicode="&#x452;" horiz-adv-x="694" d="M68 0l227 1233h-135l24 127h135l29 153h152l-29 -153h387l-24 -127h-388l-73 -426q57 43 141 70.5t145 27.5q143 0 248 -91t105 -236q0 -37 -6 -74l-95 -504q-35 -184 -129 -280.5t-278 -96.5h-49l20 119q119 0 191.5 70.5t93.5 187.5l90 500q6 41 6 73 q0 102 -57.5 157.5t-163.5 55.5q-74 0 -157 -30.5t-126 -69.5l-133 -686h-151z" />
<glyph unicode="&#x453;" horiz-adv-x="905" d="M68 0l206 1120h715l-26 -147h-568l-176 -973h-151zM512 1360l438 237l49 -118l-438 -234z" />
<glyph unicode="&#x454;" horiz-adv-x="1325" d="M119 455q0 272 217 482t500 210q193 0 324.5 -98.5t168.5 -268.5h-170q-41 109 -132 168.5t-216 59.5q-162 0 -300 -98.5t-200 -250.5h654l-21 -120h-661q-6 -31 -7 -62q0 -160 105.5 -262t269.5 -102q154 0 281 86q43 29 145 131h170q-115 -158 -217 -230 q-186 -127 -397 -127q-115 0 -223.5 42t-171.5 112q-119 129 -119 328z" />
<glyph unicode="&#x455;" horiz-adv-x="794" d="M27 240q0 8 4 53q0 20 2 37h149q0 -106 23 -144q45 -74 147 -73q94 0 163 68.5t69 160.5q0 63 -33 97t-148 83q-92 39 -126.5 59.5t-59.5 49.5q-53 63 -53 147q0 57 28.5 127t71.5 117q115 125 285 125q113 0 186.5 -68.5t73.5 -173.5q0 -39 -2 -61h-154q0 164 -133 164 q-76 0 -137 -58.5t-61 -130.5q0 -82 77 -121q35 -18 195 -90q147 -70 147 -221q0 -158 -110 -278q-127 -135 -305 -136q-156 0 -236 97q-63 78 -63 170z" />
<glyph unicode="&#x456;" horiz-adv-x="409" d="M68 0l206 1120h152l-207 -1120h-151zM301 1255l47 258h152l-47 -258h-152z" />
<glyph unicode="&#x457;" horiz-adv-x="409" d="M68 0l206 1120h150l-207 -1120h-149zM152 1276l47 258h151l-47 -258h-151zM453 1276l47 258h151l-47 -258h-151z" />
<glyph unicode="&#x458;" horiz-adv-x="415" d="M-227 -393l26 145q131 8 193.5 79t97.5 247l193 1042h151l-192 -1042q-72 -451 -469 -471zM305 1255l49 258h152l-49 -258h-152z" />
<glyph unicode="&#x459;" horiz-adv-x="1869" d="M96 0l678 1120h160l108 -465h377q463 0 463 -268q0 -219 -132 -303t-388 -84h-318l-219 942l-575 -942h-154zM1075 518l86 -371h207q154 0 252 56.5t98 167.5q0 147 -327 147h-316z" />
<glyph unicode="&#x45a;" horiz-adv-x="1789" d="M68 0l206 1120h152l-82 -461h680l86 461h152l-86 -461h163q86 0 159 -12t146.5 -40.5t115.5 -88t42 -145.5q0 -90 -29.5 -156.5t-78.5 -107.5t-124 -66t-153 -34t-176 -9h-338l101 539h-682l-103 -539h-151zM1081 147h166q164 0 277.5 53.5t113.5 170.5q0 82 -90 125 t-233 43h-164z" />
<glyph unicode="&#x45b;" horiz-adv-x="694" d="M68 0l227 1233h-135l24 127h135l29 153h152l-29 -153h387l-24 -127h-388l-73 -426q57 43 141 70.5t145 27.5q143 0 248 -91t105 -236q0 -37 -6 -74l-95 -504h-151l90 500q6 41 6 73q0 102 -57.5 157.5t-163.5 55.5q-74 0 -157 -30.5t-126 -69.5l-133 -686h-151z" />
<glyph unicode="&#x45c;" horiz-adv-x="964" d="M68 0l208 1120h152l-209 -1120h-151zM348 561l533 559h186l-541 -563l363 -557h-189l-156 243q-133 203 -196 318zM512 1360l438 237l49 -118l-438 -234z" />
<glyph unicode="&#x45d;" horiz-adv-x="1249" d="M68 0l206 1120h152l-160 -862l791 862h205l-207 -1120h-152l176 938l-860 -938h-151zM612 1563l82 106l371 -239l-80 -105z" />
<glyph unicode="&#x45e;" horiz-adv-x="1097" d="M137 -393l260 430l-233 1083h166l188 -893l545 893h162l-928 -1513h-160zM473 1415h131q8 -70 39 -94q37 -33 127 -33t152 43q47 29 65 84h109q-35 -121 -131 -182q-90 -57 -222 -57q-139 0 -211 69q-53 53 -59 170z" />
<glyph unicode="&#x45f;" horiz-adv-x="1249" d="M68 0l206 1120h152l-182 -973h686l180 973h152l-207 -1120h-410l-53 -287h-152l56 287h-428z" />
<glyph unicode="&#x48c;" horiz-adv-x="1175" d="M94 0l215 1155h-170l25 127h168l43 231h151l-43 -231h371l-25 -127h-368l-55 -293h192q272 0 408.5 -72.5t136.5 -257.5q0 -117 -47 -224t-127 -177q-82 -72 -196 -101.5t-304 -29.5h-375zM270 137h207q297 0 404 101q104 100 104 258q0 133 -102 188q-76 41 -322 41 h-180z" />
<glyph unicode="&#x48d;" horiz-adv-x="954" d="M35 829l24 127h185l30 164h152l-31 -164h197l-25 -127h-196l-31 -172l164 -2q205 -4 309 -57q25 -16 57.5 -28.5t62.5 -59.5t34 -117q4 -76 -21.5 -141.5t-47 -91t-60.5 -64.5q-96 -96 -432 -96h-338l153 829h-186zM246 147h166q172 0 311 74q20 10 44 44t34 79t-12.5 83 t-63.5 60q-53 31 -250 31h-164z" />
<glyph unicode="&#x48e;" horiz-adv-x="1212" d="M94 0l281 1513h420q268 0 386.5 -80.5t118.5 -261.5q0 -117 -41.5 -226t-117.5 -185q-80 -80 -192.5 -114t-299.5 -34h-291l-112 -612h-152zM385 750h281q147 0 232 24.5t140 83.5q47 51 76 129t29 156q0 131 -96 188q-74 45 -330 45h-215z" />
<glyph unicode="&#x48f;" horiz-adv-x="1396" d="M-6 -393l280 1513h152l-35 -192q76 100 205 159.5t274 59.5q221 0 356.5 -133t135.5 -348q0 -264 -205 -473l166 -242l-119 -51l-145 209q-188 -135 -404 -136q-287 0 -401 220l-109 -586h-151zM301 465q0 -152 104.5 -252t260.5 -100q174 0 317 108l-170 246l119 51 l143 -211q57 63 93 159.5t36 182.5q0 156 -103.5 257.5t-262.5 101.5q-117 0 -229.5 -57.5t-194.5 -157.5q-113 -140 -113 -328z" />
<glyph unicode="&#x490;" horiz-adv-x="1124" d="M94 0l281 1513h616l25 138h151l-49 -275h-616l-256 -1376h-152z" />
<glyph unicode="&#x491;" horiz-adv-x="966" d="M68 0l206 1120h566l28 150h152l-57 -297h-568l-176 -973h-151z" />
<glyph unicode="&#x492;" horiz-adv-x="993" d="M94 0l191 1032h-170l24 127h170l66 354h768l-25 -137h-616l-41 -217h368l-24 -127h-367l-192 -1032h-152z" />
<glyph unicode="&#x493;" horiz-adv-x="905" d="M2 584l25 127h172l75 409h715l-26 -147h-568l-47 -262h369l-25 -127h-366l-107 -584h-151l108 584h-174z" />
<glyph unicode="&#x494;" horiz-adv-x="993" d="M94 0l281 1513h768l-25 -137h-616l-76 -401q156 172 379 172q193 0 300 -99.5t107 -277.5q0 -53 -20 -168l-111 -602q-35 -184 -129 -280.5t-278 -96.5h-51l22 119q119 0 191.5 70.5t93.5 187.5l110 602q14 86 15 148q0 113 -80 185.5t-205 72.5q-82 0 -165 -38 t-136 -102q-45 -51 -67.5 -103t-41.5 -151l-114 -614h-152z" />
<glyph unicode="&#x495;" horiz-adv-x="905" d="M68 0l206 1120h715l-26 -147h-568l-49 -285q156 172 379 172q193 0 300.5 -99t107.5 -278q0 -53 -21 -168l-57 -315q-35 -184 -129.5 -280.5t-278.5 -96.5h-49l20 119q119 0 192 70.5t93 187.5l58 315q14 68 14 148q0 113 -80 185.5t-205 72.5q-82 0 -165 -38t-136 -101 q-45 -51 -67.5 -103.5t-40.5 -150.5l-62 -328h-151z" />
<glyph unicode="&#x496;" horiz-adv-x="1898" d="M61 0l738 737l-455 776h191l446 -776l-737 -737h-183zM870 0l281 1513h152l-281 -1513h-152zM1188 776l737 737h180l-735 -737l455 -776h-191z" />
<glyph unicode="&#x497;" horiz-adv-x="1505" d="M-31 0l541 563l-363 557h189l352 -561l-532 -559h-187zM610 0l209 1120h152l-209 -1120h-152zM891 561l532 559h187l-541 -563l363 -557h-189z" />
<glyph unicode="&#x498;" horiz-adv-x="1122" d="M-41 397h162q29 -90 142.5 -187t287.5 -97q213 0 357.5 96t144.5 276q0 111 -76 178.5t-193 67.5h-254l27 137h258q133 0 232.5 88t99.5 213q0 109 -99.5 170.5t-234.5 61.5q-119 0 -221.5 -43t-156.5 -95.5t-83 -95.5l-30 -43h-154l20 43q23 43 76 103.5t127 122 t196 104.5t261 43q186 0 322.5 -95t136.5 -251q0 -129 -80 -237.5t-191 -163.5q72 -23 123 -101t51 -184q0 -244 -200.5 -389.5t-497.5 -145.5q-123 0 -223.5 38t-157.5 91.5t-98 117t-56.5 107t-17.5 70.5z" />
<glyph unicode="&#x499;" horiz-adv-x="1003" d="M68 309h137l20 -49q18 -49 87 -98t167 -49q139 0 240.5 65.5t101.5 173.5q0 82 -67.5 126t-175.5 44h-148l31 150h147q86 0 160 58t74 144q0 59 -58.5 96.5t-132.5 37.5q-78 0 -142.5 -39t-90.5 -76l-25 -39h-137l27 47q27 45 73.5 99.5t134 100.5t189.5 46 q145 0 224 -63.5t79 -170.5q0 -229 -192 -305q78 -12 127 -82.5t49 -158.5q0 -190 -139.5 -292t-376.5 -102q-100 0 -176 35t-114 84t-60.5 98.5t-26.5 83.5z" />
<glyph unicode="&#x49a;" horiz-adv-x="1130" d="M94 0l281 1513h151l-280 -1513h-152zM420 776l727 737h190l-716 -737l454 -776h-209z" />
<glyph unicode="&#x49b;" horiz-adv-x="964" d="M68 0l208 1120h152l-209 -1120h-151zM348 561l533 559h186l-541 -563l363 -557h-189l-156 243q-133 203 -196 318z" />
<glyph unicode="&#x49c;" horiz-adv-x="1130" d="M94 0l281 1513h151l-280 -1513h-152zM420 776l727 737h190l-716 -737l454 -776h-209z" />
<glyph unicode="&#x49d;" horiz-adv-x="964" d="M68 0l208 1120h152l-209 -1120h-151zM317 213l56 303l-25 45l41 43l53 287h131l-22 -117l330 346h186l-541 -563l363 -557h-189l-227 352l-27 -139h-129z" />
<glyph unicode="&#x49e;" horiz-adv-x="1130" d="M94 0l230 1241h-181l25 127h180l27 145h151l-26 -145h235l-24 -127h-236l-229 -1241h-152zM420 776l727 737h190l-716 -737l454 -776h-209z" />
<glyph unicode="&#x49f;" horiz-adv-x="964" d="M35 887l24 127h197l20 106h152l-20 -106h202l-24 -127h-201l-166 -887h-151l165 887h-198zM348 561l533 559h186l-541 -563l363 -557h-189l-156 243q-133 203 -196 318z" />
<glyph unicode="&#x4a0;" horiz-adv-x="1130" d="M94 0l281 1513h151l-280 -1513h-152zM420 776l727 737h190l-716 -737l454 -776h-209z" />
<glyph unicode="&#x4a1;" horiz-adv-x="964" d="M68 0l208 1120h152l-209 -1120h-151zM348 561l533 559h186l-541 -563l363 -557h-189l-156 243q-133 203 -196 318z" />
<glyph unicode="&#x4a2;" d="M94 0l281 1513h151l-123 -665h785l123 665h151l-280 -1513h-152l131 711h-784l-131 -711h-152z" />
<glyph unicode="&#x4a3;" horiz-adv-x="1204" d="M68 0l206 1120h152l-82 -461h680l86 461h152l-207 -1120h-152l101 539h-682l-103 -539h-151z" />
<glyph unicode="&#x4a4;" d="M94 0l281 1513h151l-123 -665h785l123 665h151l-280 -1513h-152l131 711h-784l-131 -711h-152z" />
<glyph unicode="&#x4a5;" horiz-adv-x="1204" d="M68 0l206 1120h152l-82 -461h680l86 461h152l-207 -1120h-152l101 539h-682l-103 -539h-151z" />
<glyph unicode="&#x4a6;" d="M94 0l281 1513h1087l-100 -538q156 172 379 172q193 0 300 -99.5t107 -277.5q0 -53 -20 -168l-111 -602q-35 -184 -129 -280.5t-278 -96.5h-49l20 119q119 0 191.5 70.5t93.5 187.5l110 602q14 86 15 148q0 113 -80 185.5t-205 72.5q-82 0 -165 -38t-136 -102 q-45 -51 -67.5 -103t-41.5 -151l-114 -614h-152l254 1376h-784l-254 -1376h-152z" />
<glyph unicode="&#x4a7;" horiz-adv-x="1249" d="M68 0l206 1120h988l-207 -1120h-152l182 973h-686l-180 -973h-151z" />
<glyph unicode="&#x4a8;" horiz-adv-x="1665" d="M156 594q0 252 129 470t348 347t471 129q233 0 404 -116.5t210 -303.5h-168q-53 119 -131 180q-135 100 -336 101q-178 0 -334.5 -80t-271.5 -227q-164 -213 -164 -459q0 -227 151.5 -374.5t383.5 -147.5q315 0 575 284h168q-137 -201 -337.5 -312.5t-430.5 -111.5 q-297 0 -482 173.5t-185 447.5z" />
<glyph unicode="&#x4a9;" horiz-adv-x="1325" d="M119 455q0 272 217 482t500 210q193 0 324.5 -98.5t168.5 -268.5h-170q-41 109 -132 168.5t-216 59.5q-213 0 -374 -160t-161 -371q0 -160 105.5 -262t269.5 -102q154 0 281 86q43 29 145 131h170q-115 -158 -217 -230q-186 -127 -397 -127q-115 0 -223.5 42t-171.5 112 q-119 129 -119 328z" />
<glyph unicode="&#x4aa;" horiz-adv-x="1665" d="M156 594q0 252 129 470t348 347t471 129q233 0 404 -116.5t210 -303.5h-168q-53 119 -131 180q-135 100 -336 101q-178 0 -334.5 -80t-271.5 -227q-164 -213 -164 -459q0 -227 151.5 -374.5t383.5 -147.5q315 0 575 284h168q-137 -201 -337.5 -312.5t-430.5 -111.5 q-297 0 -482 173.5t-185 447.5z" />
<glyph unicode="&#x4ab;" horiz-adv-x="1325" d="M119 455q0 272 217 482t500 210q193 0 324.5 -98.5t168.5 -268.5h-170q-41 109 -132 168.5t-216 59.5q-213 0 -374 -160t-161 -371q0 -160 105.5 -262t269.5 -102q154 0 281 86q43 29 145 131h170q-115 -158 -217 -230q-186 -127 -397 -127q-115 0 -223.5 42t-171.5 112 q-119 129 -119 328z" />
<glyph unicode="&#x4ac;" horiz-adv-x="872" d="M209 1376l24 137h844l-24 -137h-346l-256 -1376h-152l256 1376h-346z" />
<glyph unicode="&#x4ad;" horiz-adv-x="694" d="M145 983l25 137h645l-24 -137h-265l-182 -983h-151l182 983h-230z" />
<glyph unicode="&#x4ae;" horiz-adv-x="1212" d="M223 1513h168l273 -847l598 847h165l-714 -1007l-95 -506h-151l94 506z" />
<glyph unicode="&#x4af;" horiz-adv-x="1134" d="M162 1120h153l220 -942l575 942h154l-678 -1120l-78 -393h-158l76 393z" />
<glyph unicode="&#x4b0;" horiz-adv-x="1212" d="M223 1513h168l273 -847l598 847h165l-714 -1007l-95 -506h-151l94 506z" />
<glyph unicode="&#x4b1;" horiz-adv-x="1134" d="M162 1120h153l220 -942l575 942h154l-678 -1120l-78 -393h-158l76 393z" />
<glyph unicode="&#x4b2;" horiz-adv-x="1247" d="M-45 0l657 774l-348 739h178l289 -606l512 606h176l-622 -739l372 -774h-180l-305 647l-551 -647h-178z" />
<glyph unicode="&#x4b3;" horiz-adv-x="983" d="M-45 0l496 571l-289 549h172l223 -432l381 432h174l-491 -549l284 -571h-174l-217 449l-387 -449h-172z" />
<glyph unicode="&#x4b4;" d="M94 0l281 1513h151l-256 -1363h781l260 1363h151l-252 -1363h240l-86 -465h-150l60 315h-1180z" />
<glyph unicode="&#x4b5;" horiz-adv-x="1196" d="M68 0l206 1120h152l-182 -973h585l181 973h151l-180 -973h205l-80 -434h-152l56 287h-942z" />
<glyph unicode="&#x4b6;" horiz-adv-x="1249" d="M68 743q0 53 20 168l111 602h151l-110 -602q-14 -68 -15 -147q0 -113 80 -185.5t205 -72.5q82 0 165 38t136 101q45 51 67.5 103.5t41.5 150.5l114 614h152l-281 -1513h-151l100 539q-156 -172 -379 -172q-193 0 -300 99t-107 277z" />
<glyph unicode="&#x4b7;" horiz-adv-x="874" d="M47 766l66 354h151l-61 -350q-23 -139 33.5 -213t181.5 -74q74 0 156.5 31t125.5 70l105 536h151l-206 -1120h-152l82 463q-57 -43 -141 -70.5t-146 -27.5q-162 0 -269.5 112.5t-76.5 288.5z" />
<glyph unicode="&#x4b8;" horiz-adv-x="1249" d="M68 743q0 53 20 168l111 602h151l-110 -602q-14 -68 -15 -147q0 -113 80 -185.5t205 -72.5q82 0 165 38t136 101q45 51 67.5 103.5t41.5 150.5l114 614h152l-281 -1513h-151l100 539q-156 -172 -379 -172q-193 0 -300 99t-107 277z" />
<glyph unicode="&#x4b9;" horiz-adv-x="874" d="M47 766l66 354h151l-61 -350q-23 -139 33.5 -213t181.5 -74q74 0 156.5 31t125.5 70l105 536h151l-206 -1120h-152l82 463q-57 -43 -141 -70.5t-146 -27.5q-162 0 -269.5 112.5t-76.5 288.5z" />
<glyph unicode="&#x4ba;" horiz-adv-x="1249" d="M68 0l280 1513h152l-101 -538q156 172 379 172q193 0 300.5 -99.5t107.5 -277.5q0 -53 -21 -168l-110 -602h-152l111 602q14 68 14 148q0 113 -80 185.5t-205 72.5q-82 0 -164.5 -38t-136.5 -102q-45 -51 -67.5 -103t-40.5 -151l-115 -614h-151z" />
<glyph unicode="&#x4bb;" horiz-adv-x="874" d="M41 0l207 1120h151l-82 -463q57 43 141.5 71t145.5 28q162 0 269.5 -113t76.5 -289l-65 -354h-152l62 350q23 139 -33.5 213t-181.5 74q-74 -2 -157 -32t-126 -68l-104 -537h-152z" />
<glyph unicode="&#x4bc;" horiz-adv-x="1665" d="M156 594q0 252 129 470t348 347t471 129q233 0 404 -116.5t210 -303.5h-168q-53 119 -131 180q-135 100 -336 101q-178 0 -334.5 -80t-271.5 -227q-164 -213 -164 -459q0 -227 151.5 -374.5t383.5 -147.5q315 0 575 284h168q-137 -201 -337.5 -312.5t-430.5 -111.5 q-297 0 -482 173.5t-185 447.5z" />
<glyph unicode="&#x4bd;" horiz-adv-x="1325" d="M119 455q0 272 217 482t500 210q193 0 324.5 -98.5t168.5 -268.5h-170q-41 109 -132 168.5t-216 59.5q-213 0 -374 -160t-161 -371q0 -160 105.5 -262t269.5 -102q154 0 281 86q43 29 145 131h170q-115 -158 -217 -230q-186 -127 -397 -127q-115 0 -223.5 42t-171.5 112 q-119 129 -119 328z" />
<glyph unicode="&#x4be;" horiz-adv-x="1665" d="M156 594q0 252 129 470t348 347t471 129q233 0 404 -116.5t210 -303.5h-168q-53 119 -131 180q-135 100 -336 101q-178 0 -334.5 -80t-271.5 -227q-164 -213 -164 -459q0 -227 151.5 -374.5t383.5 -147.5q315 0 575 284h168q-137 -201 -337.5 -312.5t-430.5 -111.5 q-297 0 -482 173.5t-185 447.5z" />
<glyph unicode="&#x4bf;" horiz-adv-x="1325" d="M119 455q0 272 217 482t500 210q193 0 324.5 -98.5t168.5 -268.5h-170q-41 109 -132 168.5t-216 59.5q-213 0 -374 -160t-161 -371q0 -160 105.5 -262t269.5 -102q154 0 281 86q43 29 145 131h170q-115 -158 -217 -230q-186 -127 -397 -127q-115 0 -223.5 42t-171.5 112 q-119 129 -119 328z" />
<glyph unicode="&#x4c0;" horiz-adv-x="462" d="M94 0l281 1513h151l-280 -1513h-152z" />
<glyph unicode="&#x4c1;" horiz-adv-x="1898" d="M61 0l738 737l-455 776h191l446 -776l-737 -737h-183zM870 0l281 1513h152l-281 -1513h-152zM985 1903h131q8 -70 39 -95q37 -33 127 -32.5t152 43.5q47 29 65 84h109q-35 -121 -131 -183q-90 -57 -222 -57q-139 0 -211 70q-53 53 -59 170zM1188 776l737 737h180 l-735 -737l455 -776h-191z" />
<glyph unicode="&#x4c2;" horiz-adv-x="1505" d="M-31 0l541 563l-363 557h189l352 -561l-532 -559h-187zM610 0l209 1120h152l-209 -1120h-152zM639 1509h131q8 -70 39 -94q37 -33 127 -33t151 43q47 29 66 84h109q-35 -121 -132 -182q-90 -57 -221 -57q-139 0 -211 69q-53 53 -59 170zM891 561l532 559h187l-541 -563 l363 -557h-189z" />
<glyph unicode="&#x4c3;" horiz-adv-x="1130" d="M94 0l281 1513h151l-280 -1513h-152zM420 776l727 737h190l-716 -737l454 -776h-209z" />
<glyph unicode="&#x4c4;" horiz-adv-x="964" d="M68 0l208 1120h152l-209 -1120h-151zM348 561l533 559h186l-541 -563l363 -557h-189l-156 243q-133 203 -196 318z" />
<glyph unicode="&#x4c7;" d="M94 0l281 1513h151l-123 -665h785l123 665h151l-280 -1513h-152l131 711h-784l-131 -711h-152z" />
<glyph unicode="&#x4c8;" horiz-adv-x="1204" d="M68 0l206 1120h152l-82 -461h680l86 461h152l-207 -1120h-152l101 539h-682l-103 -539h-151z" />
<glyph unicode="&#x4cb;" horiz-adv-x="1249" d="M68 743q0 53 20 168l111 602h151l-110 -602q-14 -68 -15 -147q0 -113 80 -185.5t205 -72.5q82 0 165 38t136 101q45 51 67.5 103.5t41.5 150.5l114 614h152l-281 -1513h-151l100 539q-156 -172 -379 -172q-193 0 -300 99t-107 277z" />
<glyph unicode="&#x4cc;" horiz-adv-x="874" d="M47 766l66 354h151l-61 -350q-23 -139 33.5 -213t181.5 -74q74 0 156.5 31t125.5 70l105 536h151l-206 -1120h-152l82 463q-57 -43 -141 -70.5t-146 -27.5q-162 0 -269.5 112.5t-76.5 288.5z" />
<glyph unicode="&#x4d0;" horiz-adv-x="1515" d="M-39 0l930 1513h170l371 -1513h-166l-125 510h-705l-315 -510h-160zM520 647h588l-164 694zM737 1903h131q8 -70 39 -95q37 -33 127 -32.5t152 43.5q47 29 65 84h109q-35 -121 -131 -183q-90 -57 -221 -57q-139 0 -211 70q-54 53 -60 170z" />
<glyph unicode="&#x4d1;" d="M119 442q0 285 211 495t497 210q164 0 275 -74q72 -47 125 -151l37 198h151l-207 -1120h-151l37 197q-125 -127 -227.5 -175.5t-245.5 -48.5q-225 0 -363.5 129t-138.5 340zM276 481q0 -164 103.5 -266t271.5 -102q205 0 361.5 163.5t156.5 376.5q0 154 -101 254.5 t-255 100.5q-213 0 -375 -159t-162 -368zM584 1509h131q8 -70 39 -94q37 -33 127 -33t151 43q47 29 66 84h108q-35 -121 -131 -182q-90 -57 -221 -57q-139 0 -211 69q-53 53 -59 170z" />
<glyph unicode="&#x4d2;" horiz-adv-x="1515" d="M-39 0l930 1513h170l371 -1513h-166l-125 510h-705l-315 -510h-160zM520 647h588l-164 694zM778 1663l47 258h152l-47 -258h-152zM1079 1663l47 258h152l-47 -258h-152z" />
<glyph unicode="&#x4d3;" d="M119 442q0 285 211 495t497 210q164 0 275 -74q72 -47 125 -151l37 198h151l-207 -1120h-151l37 197q-125 -127 -227.5 -175.5t-245.5 -48.5q-225 0 -363.5 129t-138.5 340zM276 481q0 -164 103.5 -266t271.5 -102q205 0 361.5 163.5t156.5 376.5q0 154 -101 254.5 t-255 100.5q-213 0 -375 -159t-162 -368zM625 1270l47 258h151l-47 -258h-151zM926 1270l47 258h151l-47 -258h-151z" />
<glyph unicode="&#x4d4;" horiz-adv-x="2031" d="M-39 0l1327 1513h848l-25 -137h-653l-102 -542h631l-25 -138h-631l-104 -559h653l-25 -137h-804l94 512h-555l-449 -512h-180zM713 649h458l123 670z" />
<glyph unicode="&#x4d5;" horiz-adv-x="2369" d="M119 449q0 240 178 450q209 248 526 248q295 0 406 -221l37 194h145l-37 -194q215 221 481 221q213 0 348.5 -130t135.5 -335q0 -82 -21 -176h-1013q-2 -20 -2 -45q0 -147 107.5 -247.5t264.5 -100.5q127 0 248 69.5t184 182.5h158q-61 -133 -207 -244 q-193 -147 -411 -148q-262 0 -410 215l-35 -188h-145l35 188q-209 -215 -478 -215q-223 0 -359 131.5t-136 344.5zM276 473q0 -158 102.5 -259t260.5 -101q213 0 375 162.5t162 377.5q0 158 -101.5 256.5t-263.5 98.5q-262 0 -418 -207q-117 -156 -117 -328zM1337 643h861 q-2 168 -100.5 266.5t-262.5 98.5q-166 0 -307.5 -103.5t-190.5 -261.5z" />
<glyph unicode="&#x4d6;" horiz-adv-x="1097" d="M94 0l281 1513h827l-24 -137h-676l-103 -542h654l-25 -138h-653l-105 -559h676l-24 -137h-828zM549 1903h131q8 -70 39 -95q37 -33 127 -32.5t151 43.5q47 29 66 84h108q-35 -121 -131 -183q-90 -57 -221 -57q-139 0 -211 70q-53 53 -59 170z" />
<glyph unicode="&#x4d7;" horiz-adv-x="1331" d="M119 451q0 276 210 486t486 210q213 0 349 -131t136 -336q0 -66 -18 -170h-1014q-4 -49 -4 -57q0 -143 106.5 -241.5t260.5 -98.5q125 0 249 71.5t189 184.5h158q-98 -180 -267 -288t-356 -108q-209 0 -347 136.5t-138 341.5zM299 647h858q-8 166 -107.5 263.5 t-261.5 97.5q-160 0 -297 -101.5t-192 -259.5zM571 1509h131q8 -70 39 -94q37 -33 127 -33t152 43q47 29 65 84h109q-35 -121 -131 -182q-90 -57 -221 -57q-139 0 -211 69q-54 53 -60 170z" />
<glyph unicode="&#x4d8;" horiz-adv-x="1779" d="M156 618q0 115 34 230h1434v16q0 233 -151.5 385t-387.5 152q-158 0 -309 -77t-266 -204h-180q139 188 351 304t441 116q272 0 466 -180t194 -467q0 -176 -81 -345t-213 -295t-310.5 -203t-362.5 -77q-270 0 -463.5 182t-195.5 463zM313 647q2 -225 153.5 -379.5 t373.5 -154.5q262 0 482 175t282 423h-1287q-4 -41 -4 -64z" />
<glyph unicode="&#x4d9;" horiz-adv-x="1306" d="M119 440q0 66 18 170h1014q4 49 4 58q0 143 -106.5 241.5t-260.5 98.5q-125 0 -248.5 -72t-189.5 -184h-157q98 180 267 287.5t355 107.5q209 0 347 -136.5t138 -340.5q0 -276 -209.5 -486.5t-486.5 -210.5q-213 0 -349 131t-136 336zM262 473q8 -166 107.5 -263 t261.5 -97q160 0 297 101t192 259h-858z" />
<glyph unicode="&#x4da;" horiz-adv-x="1779" d="M156 618q0 115 34 230h1434v16q0 233 -151.5 385t-387.5 152q-158 0 -309 -77t-266 -204h-180q139 188 351 304t441 116q272 0 466 -180t194 -467q0 -176 -81 -345t-213 -295t-310.5 -203t-362.5 -77q-270 0 -463.5 182t-195.5 463zM313 647q2 -225 153.5 -379.5 t373.5 -154.5q262 0 482 175t282 423h-1287q-4 -41 -4 -64zM920 1663l47 258h151l-47 -258h-151zM1221 1663l47 258h151l-47 -258h-151z" />
<glyph unicode="&#x4db;" horiz-adv-x="1306" d="M119 440q0 66 18 170h1014q4 49 4 58q0 143 -106.5 241.5t-260.5 98.5q-125 0 -248.5 -72t-189.5 -184h-157q98 180 267 287.5t355 107.5q209 0 347 -136.5t138 -340.5q0 -276 -209.5 -486.5t-486.5 -210.5q-213 0 -349 131t-136 336zM262 473q8 -166 107.5 -263 t261.5 -97q160 0 297 101t192 259h-858zM612 1270l47 258h152l-47 -258h-152zM913 1270l48 258h151l-47 -258h-152z" />
<glyph unicode="&#x4dc;" horiz-adv-x="1898" d="M61 0l738 737l-455 776h191l446 -776l-737 -737h-183zM870 0l281 1513h152l-281 -1513h-152zM1026 1663l47 258h152l-47 -258h-152zM1188 776l737 737h180l-735 -737l455 -776h-191zM1327 1663l47 258h152l-47 -258h-152z" />
<glyph unicode="&#x4dd;" horiz-adv-x="1505" d="M-31 0l541 563l-363 557h189l352 -561l-532 -559h-187zM610 0l209 1120h152l-209 -1120h-152zM680 1270l47 258h152l-48 -258h-151zM891 561l532 559h187l-541 -563l363 -557h-189zM981 1270l47 258h152l-47 -258h-152z" />
<glyph unicode="&#x4de;" horiz-adv-x="1122" d="M-41 397h162q29 -90 142.5 -187t287.5 -97q213 0 357.5 96t144.5 276q0 111 -76 178.5t-193 67.5h-254l27 137h258q133 0 232.5 88t99.5 213q0 109 -99.5 170.5t-234.5 61.5q-119 0 -221.5 -43t-156.5 -95.5t-83 -95.5l-30 -43h-154l20 43q23 43 76 103.5t127 122 t196 104.5t261 43q186 0 322.5 -95t136.5 -251q0 -129 -80 -237.5t-191 -163.5q72 -23 123 -101t51 -184q0 -244 -200.5 -389.5t-497.5 -145.5q-123 0 -223.5 38t-157.5 91.5t-98 117t-56.5 107t-17.5 70.5zM645 1663l47 258h152l-47 -258h-152zM946 1663l47 258h152 l-47 -258h-152z" />
<glyph unicode="&#x4df;" horiz-adv-x="1003" d="M68 309h137l20 -49q18 -49 87 -98t167 -49q139 0 240.5 65.5t101.5 173.5q0 82 -67.5 126t-175.5 44h-148l31 150h147q86 0 160 58t74 144q0 59 -58.5 96.5t-132.5 37.5q-78 0 -142.5 -39t-90.5 -76l-25 -39h-137l27 47q27 45 73.5 99.5t134 100.5t189.5 46 q145 0 224 -63.5t79 -170.5q0 -229 -192 -305q78 -12 127 -82.5t49 -158.5q0 -190 -139.5 -292t-376.5 -102q-100 0 -176 35t-114 84t-60.5 98.5t-26.5 83.5zM477 1270l47 258h152l-47 -258h-152zM778 1270l47 258h152l-47 -258h-152z" />
<glyph unicode="&#x4e0;" horiz-adv-x="1122" d="M-41 397h162q29 -90 142.5 -187t287.5 -97q213 0 357.5 96t144.5 276q0 111 -76 178.5t-193 67.5h-254l27 137h258q133 0 232.5 88t99.5 213q0 109 -99.5 170.5t-234.5 61.5q-119 0 -221.5 -43t-156.5 -95.5t-83 -95.5l-30 -43h-154l20 43q23 43 76 103.5t127 122 t196 104.5t261 43q186 0 322.5 -95t136.5 -251q0 -129 -80 -237.5t-191 -163.5q72 -23 123 -101t51 -184q0 -244 -200.5 -389.5t-497.5 -145.5q-123 0 -223.5 38t-157.5 91.5t-98 117t-56.5 107t-17.5 70.5z" />
<glyph unicode="&#x4e1;" horiz-adv-x="1003" d="M68 309h137l20 -49q18 -49 87 -98t167 -49q139 0 240.5 65.5t101.5 173.5q0 82 -67.5 126t-175.5 44h-148l31 150h147q86 0 160 58t74 144q0 59 -58.5 96.5t-132.5 37.5q-78 0 -142.5 -39t-90.5 -76l-25 -39h-137l27 47q27 45 73.5 99.5t134 100.5t189.5 46 q145 0 224 -63.5t79 -170.5q0 -229 -192 -305q78 -12 127 -82.5t49 -158.5q0 -190 -139.5 -292t-376.5 -102q-100 0 -176 35t-114 84t-60.5 98.5t-26.5 83.5z" />
<glyph unicode="&#x4e2;" horiz-adv-x="1515" d="M94 0l281 1513h157l-237 -1255l1079 1255h205l-281 -1513h-151l246 1331l-1147 -1331h-152zM659 1663l25 127h690l-24 -127h-691z" />
<glyph unicode="&#x4e3;" horiz-adv-x="1249" d="M68 0l206 1120h152l-160 -862l791 862h205l-207 -1120h-152l176 938l-860 -938h-151zM451 1270l24 127h690l-24 -127h-690z" />
<glyph unicode="&#x4e4;" horiz-adv-x="1515" d="M94 0l281 1513h157l-237 -1255l1079 1255h205l-281 -1513h-151l246 1331l-1147 -1331h-152zM778 1663l47 258h152l-47 -258h-152zM1079 1663l47 258h152l-47 -258h-152z" />
<glyph unicode="&#x4e5;" horiz-adv-x="1249" d="M68 0l206 1120h152l-160 -862l791 862h205l-207 -1120h-152l176 938l-860 -938h-151zM569 1270l47 258h152l-47 -258h-152zM870 1270l48 258h151l-47 -258h-152z" />
<glyph unicode="&#x4e6;" horiz-adv-x="1779" d="M156 618q0 236 136 450t360.5 343t469.5 129q158 0 300.5 -68.5t234.5 -189.5q125 -168 125 -389q0 -233 -136.5 -447.5t-360.5 -343.5t-470 -129q-158 0 -303 70t-233 188q-123 166 -123 387zM313 647q0 -225 152.5 -379.5t374.5 -154.5q305 0 544.5 230t239.5 521 q0 233 -151.5 385t-387.5 152q-293 0 -532.5 -233.5t-239.5 -520.5zM920 1663l47 258h151l-47 -258h-151zM1221 1663l47 258h151l-47 -258h-151z" />
<glyph unicode="&#x4e7;" horiz-adv-x="1341" d="M117 440q0 127 50 253t140 222q215 231 522 232q213 0 346.5 -129t133.5 -338q0 -279 -197 -485q-209 -221 -491 -222q-223 0 -363.5 130t-140.5 337zM274 467q0 -158 101.5 -256t265.5 -98q213 0 361.5 160.5t148.5 392.5q0 150 -98.5 246t-249.5 96q-215 0 -372 -161 t-157 -380zM627 1270l47 258h151l-47 -258h-151zM928 1270l47 258h151l-47 -258h-151z" />
<glyph unicode="&#x4e8;" horiz-adv-x="1779" d="M156 618q0 236 136 450t360.5 343t469.5 129q158 0 300.5 -68.5t234.5 -189.5q125 -168 125 -389q0 -233 -136.5 -447.5t-360.5 -343.5t-470 -129q-158 0 -303 70t-233 188q-123 166 -123 387zM313 647q0 -225 152.5 -379.5t374.5 -154.5q260 0 481 175t285 423h-1289 q-4 -41 -4 -64zM348 848h1276v16q0 233 -151.5 385t-387.5 152q-238 0 -449.5 -161t-287.5 -392z" />
<glyph unicode="&#x4e9;" horiz-adv-x="1341" d="M117 440q0 127 50 253t140 222q215 231 522 232q213 0 346.5 -129t133.5 -338q0 -279 -197 -485q-209 -221 -491 -222q-223 0 -363.5 130t-140.5 337zM274 467q0 -158 101.5 -256t265.5 -98q180 0 318.5 119.5t179.5 306.5h-860q-5 -45 -5 -72zM311 659h840v7 q0 150 -98.5 246t-249.5 96q-164 0 -299.5 -97.5t-192.5 -251.5z" />
<glyph unicode="&#x4ea;" horiz-adv-x="1779" d="M156 618q0 236 136 450t360.5 343t469.5 129q158 0 300.5 -68.5t234.5 -189.5q125 -168 125 -389q0 -233 -136.5 -447.5t-360.5 -343.5t-470 -129q-158 0 -303 70t-233 188q-123 166 -123 387zM313 647q0 -225 152.5 -379.5t374.5 -154.5q260 0 481 175t285 423h-1289 q-4 -41 -4 -64zM348 848h1276v16q0 233 -151.5 385t-387.5 152q-238 0 -449.5 -161t-287.5 -392zM920 1663l47 258h151l-47 -258h-151zM1221 1663l47 258h151l-47 -258h-151z" />
<glyph unicode="&#x4eb;" horiz-adv-x="1341" d="M117 440q0 127 50 253t140 222q215 231 522 232q213 0 346.5 -129t133.5 -338q0 -279 -197 -485q-209 -221 -491 -222q-223 0 -363.5 130t-140.5 337zM274 467q0 -158 101.5 -256t265.5 -98q180 0 318.5 119.5t179.5 306.5h-860q-5 -45 -5 -72zM311 659h840v7 q0 150 -98.5 246t-249.5 96q-164 0 -299.5 -97.5t-192.5 -251.5zM627 1270l47 258h151l-47 -258h-151zM928 1270l47 258h151l-47 -258h-151z" />
<glyph unicode="&#x4ec;" horiz-adv-x="1779" d="M193 397h180q68 -129 191.5 -206.5t275.5 -77.5q260 0 481 175t283 423h-836l27 137h829v16q0 233 -151.5 385t-387.5 152q-158 0 -309 -77t-266 -204h-180q139 188 351 304t441 116q158 0 300.5 -68.5t234.5 -189.5q125 -168 125 -389q0 -233 -136.5 -447.5 t-360.5 -343.5t-470 -129q-158 0 -303 70t-233 188q-55 74 -86 166zM920 1663l47 258h151l-47 -258h-151zM1221 1663l47 258h151l-47 -258h-151z" />
<glyph unicode="&#x4ed;" horiz-adv-x="1306" d="M129 330h170q39 -100 129 -158.5t213 -58.5q180 0 318.5 119.5t179.5 306.5h-625l23 120h614q2 154 -97.5 251.5t-250.5 97.5q-129 0 -240.5 -61.5t-185.5 -166.5h-166q39 72 96 135q215 231 522 232q213 0 346.5 -129t133.5 -338q0 -303 -193.5 -505t-494.5 -202 q-188 0 -321.5 97.5t-170.5 259.5zM627 1270l47 258h151l-47 -258h-151zM928 1270l47 258h151l-47 -258h-151z" />
<glyph unicode="&#x4ee;" horiz-adv-x="1212" d="M188 0l359 516l-324 997h168l273 -847l598 847h165l-1073 -1513h-166zM508 1663l24 127h691l-25 -127h-690z" />
<glyph unicode="&#x4ef;" horiz-adv-x="1097" d="M137 -393l260 430l-233 1083h166l188 -893l545 893h162l-928 -1513h-160zM377 1270l24 127h691l-25 -127h-690z" />
<glyph unicode="&#x4f0;" horiz-adv-x="1212" d="M188 0l359 516l-324 997h168l273 -847l598 847h165l-1073 -1513h-166zM627 1663l47 258h151l-47 -258h-151zM928 1663l47 258h151l-47 -258h-151z" />
<glyph unicode="&#x4f1;" horiz-adv-x="1097" d="M137 -393l260 430l-233 1083h166l188 -893l545 893h162l-928 -1513h-160zM496 1270l47 258h151l-47 -258h-151zM797 1270l47 258h151l-47 -258h-151z" />
<glyph unicode="&#x4f2;" horiz-adv-x="1212" d="M188 0l359 516l-324 997h168l273 -847l598 847h165l-1073 -1513h-166zM594 1765l393 250l64 -102l-398 -250zM993 1765l396 250l61 -102l-397 -250z" />
<glyph unicode="&#x4f3;" horiz-adv-x="1097" d="M137 -393l260 430l-233 1083h166l188 -893l545 893h162l-928 -1513h-160zM463 1372l393 250l64 -102l-398 -250zM862 1372l395 250l62 -102l-397 -250z" />
<glyph unicode="&#x4f4;" horiz-adv-x="1210" d="M68 743q0 53 20 168l111 602h151l-110 -602q-14 -68 -15 -147q0 -113 80 -185.5t205 -72.5q82 0 165 38t136 101q45 51 67.5 103.5t41.5 150.5l114 614h152l-281 -1513h-151l100 539q-156 -172 -379 -172q-193 0 -300 99t-107 277zM494 1663l47 258h151l-47 -258h-151z M795 1663l47 258h151l-47 -258h-151z" />
<glyph unicode="&#x4f5;" horiz-adv-x="874" d="M41 692q0 37 6 74l66 354h151l-61 -350q-6 -41 -6 -74q0 -102 57 -157.5t164 -55.5q74 0 156.5 31t125.5 70l105 536h151l-206 -1120h-152l82 463q-57 -43 -141 -70.5t-146 -27.5q-143 0 -247.5 91t-104.5 236zM336 1270l47 258h152l-48 -258h-151zM637 1270l47 258h152 l-48 -258h-151z" />
<glyph unicode="&#x4f8;" horiz-adv-x="1564" d="M88 0l295 1513h152l-107 -542h223q291 0 431.5 -86t140.5 -275q0 -289 -200 -449.5t-560 -160.5h-375zM266 137h213q276 0 431 108.5t155 327.5q0 143 -112.5 202t-338.5 59h-213zM803 1663l47 258h151l-47 -258h-151zM1104 1663l47 258h152l-48 -258h-151zM1257 0 l281 1513h152l-281 -1513h-152z" />
<glyph unicode="&#x4f9;" horiz-adv-x="1415" d="M61 0l218 1120h151l-70 -364h291q168 0 268.5 -83t100.5 -222q0 -193 -154.5 -322t-353.5 -129h-451zM240 137h297q135 2 231 82t96 203q0 88 -65.5 141t-175.5 53h-291zM653 1270l47 258h152l-47 -258h-152zM954 1270l47 258h152l-47 -258h-152zM1110 0l207 1120h151 l-206 -1120h-152z" />
<glyph unicode="&#xe3f;" horiz-adv-x="1175" d="M94 0l281 1513h354h25l30 170h113l-35 -176q319 -39 320 -288q0 -137 -60.5 -249t-185.5 -163q115 -55 161 -116.5t46 -158.5q0 -117 -47 -224t-127 -177q-133 -115 -385 -129l-31 -172h-113l33 170h-4h-375zM270 137h207q283 0 395.5 94.5t112.5 264.5q0 133 -102 188 q-76 41 -322 41h-186zM406 862h184q139 0 215 18.5t127 65.5q92 86 92 238q0 109 -72.5 150.5t-265.5 41.5h-184z" />
<glyph unicode="&#x1e0c;" horiz-adv-x="1523" d="M94 0l281 1513h356q381 0 551 -118q242 -166 242 -477q0 -209 -88 -393.5t-250 -315.5q-139 -111 -299 -160t-385 -49h-408zM270 137h211q238 0 385.5 46t263.5 155q109 100 172.5 249.5t63.5 303.5q0 238 -150.5 361.5t-502.5 123.5h-211zM414 -381l47 258h151l-47 -258 h-151z" />
<glyph unicode="&#x1e0d;" horiz-adv-x="1402" d="M119 444q0 281 215 492t502 211q260 0 399 -205l106 571h152l-281 -1513h-151l37 203q-109 -123 -218.5 -176.5t-254.5 -53.5q-219 0 -362.5 133t-143.5 338zM276 483q0 -166 104.5 -268t274.5 -102q203 0 364 164.5t161 373.5q0 154 -107.5 255.5t-269.5 101.5 q-207 0 -367 -160t-160 -365zM496 -381l47 258h151l-47 -258h-151z" />
<glyph unicode="&#x1e0e;" horiz-adv-x="1523" d="M94 0l281 1513h356q381 0 551 -118q242 -166 242 -477q0 -209 -88 -393.5t-250 -315.5q-139 -111 -299 -160t-385 -49h-408zM154 -315l24 127h690l-24 -127h-690zM270 137h211q238 0 385.5 46t263.5 155q109 100 172.5 249.5t63.5 303.5q0 238 -150.5 361.5t-502.5 123.5 h-211z" />
<glyph unicode="&#x1e0f;" horiz-adv-x="1402" d="M119 444q0 281 215 492t502 211q260 0 399 -205l106 571h152l-281 -1513h-151l37 203q-109 -123 -218.5 -176.5t-254.5 -53.5q-219 0 -362.5 133t-143.5 338zM236 -315l24 127h690l-24 -127h-690zM276 483q0 -166 104.5 -268t274.5 -102q203 0 364 164.5t161 373.5 q0 154 -107.5 255.5t-269.5 101.5q-207 0 -367 -160t-160 -365z" />
<glyph unicode="&#x1e24;" d="M94 0l281 1513h151l-123 -665h785l123 665h151l-280 -1513h-152l131 711h-784l-131 -711h-152zM494 -381l47 258h151l-47 -258h-151z" />
<glyph unicode="&#x1e25;" horiz-adv-x="1249" d="M68 0l280 1513h152l-101 -538q156 172 379 172q193 0 300.5 -99.5t107.5 -277.5q0 -53 -21 -168l-110 -602h-152l111 602q14 90 14 148q0 113 -80 185.5t-205 72.5q-156 0 -264 -101.5t-145 -292.5l-115 -614h-151zM416 -381l47 258h151l-47 -258h-151z" />
<glyph unicode="&#x1e26;" d="M94 0l281 1513h151l-123 -665h785l123 665h151l-280 -1513h-152l131 711h-784l-131 -711h-152zM709 1616l47 258h151l-47 -258h-151zM1010 1616l47 258h151l-47 -258h-151z" />
<glyph unicode="&#x1e27;" horiz-adv-x="1249" d="M68 0l280 1513h152l-101 -538q156 172 379 172q193 0 300.5 -99.5t107.5 -277.5q0 -53 -21 -168l-110 -602h-152l111 602q14 90 14 148q0 113 -80 185.5t-205 72.5q-156 0 -264 -101.5t-145 -292.5l-115 -614h-151zM633 1616l47 258h151l-47 -258h-151zM934 1616l47 258 h152l-48 -258h-151z" />
<glyph unicode="&#x1e2a;" d="M94 0l281 1513h151l-123 -665h785l123 665h151l-280 -1513h-152l131 711h-784l-131 -711h-152zM303 -131h131q8 -74 46 -100.5t120 -26.5q78 0 137.5 34t79.5 93h109q-72 -240 -353 -240q-127 0 -195.5 54.5t-74.5 185.5z" />
<glyph unicode="&#x1e2b;" horiz-adv-x="1249" d="M68 0l280 1513h152l-101 -538q156 172 379 172q193 0 300.5 -99.5t107.5 -277.5q0 -53 -21 -168l-110 -602h-152l111 602q14 90 14 148q0 113 -80 185.5t-205 72.5q-156 0 -264 -101.5t-145 -292.5l-115 -614h-151zM225 -131h131q8 -74 46 -100.5t120 -26.5 q78 0 137.5 34t79.5 93h109q-72 -240 -352 -240q-127 0 -196 54.5t-75 185.5z" />
<glyph unicode="&#x1e36;" horiz-adv-x="946" d="M94 0l281 1513h151l-256 -1376h627l-25 -137h-778zM338 -381l47 258h152l-48 -258h-151z" />
<glyph unicode="&#x1e37;" horiz-adv-x="409" d="M-2 -381l47 258h152l-47 -258h-152zM68 0l280 1513h152l-281 -1513h-151z" />
<glyph unicode="&#x1e38;" horiz-adv-x="946" d="M94 0l281 1513h151l-256 -1376h627l-25 -137h-778zM135 1681l25 127h690l-25 -127h-690zM338 -381l47 258h152l-48 -258h-151z" />
<glyph unicode="&#x1e39;" horiz-adv-x="409" d="M-2 -381l47 258h152l-47 -258h-152zM68 0l280 1513h152l-281 -1513h-151zM109 1681l24 127h690l-24 -127h-690z" />
<glyph unicode="&#x1e42;" horiz-adv-x="1882" d="M94 0l281 1513h235l312 -1288l788 1288h236l-281 -1513h-152l250 1348l-819 -1348h-131l-317 1348l-250 -1348h-152zM735 -381l47 258h152l-47 -258h-152z" />
<glyph unicode="&#x1e43;" horiz-adv-x="1921" d="M68 0l206 1120h152l-23 -129q96 96 166 126t174 30q262 0 326 -215q100 115 198.5 165t229.5 50q166 0 267.5 -89t101.5 -235q0 -63 -17 -157l-123 -666h-151l121 649q12 74 12 127q0 106 -64.5 169t-177.5 63q-141 0 -239.5 -89.5t-132.5 -269.5l-121 -649h-152l121 653 q12 63 12 109q0 121 -69.5 183.5t-177.5 62.5q-139 0 -237.5 -95.5t-129.5 -259.5l-121 -653h-151zM754 -381l47 258h151l-47 -258h-151z" />
<glyph unicode="&#x1e44;" horiz-adv-x="1515" d="M94 0l281 1513h205l614 -1255l233 1255h152l-281 -1513h-151l-655 1331l-246 -1331h-152zM922 1616l47 258h151l-47 -258h-151z" />
<glyph unicode="&#x1e45;" horiz-adv-x="1249" d="M68 0l206 1120h152l-27 -145q178 172 385 172q184 0 293 -100.5t109 -270.5q0 -72 -23 -188l-108 -588h-152l109 588q16 92 16 151q0 123 -77 196t-208 73q-156 0 -264 -96.5t-145 -295.5l-115 -616h-151zM717 1243l47 258h151l-47 -258h-151z" />
<glyph unicode="&#x1e46;" horiz-adv-x="1515" d="M94 0l281 1513h205l614 -1255l233 1255h152l-281 -1513h-151l-655 1331l-246 -1331h-152zM551 -381l47 258h152l-48 -258h-151z" />
<glyph unicode="&#x1e47;" horiz-adv-x="1249" d="M68 0l206 1120h152l-27 -145q178 172 385 172q184 0 293 -100.5t109 -270.5q0 -72 -23 -188l-108 -588h-152l109 588q16 92 16 151q0 123 -77 196t-208 73q-156 0 -264 -96.5t-145 -295.5l-115 -616h-151zM416 -381l47 258h151l-47 -258h-151z" />
<glyph unicode="&#x1e58;" horiz-adv-x="1243" d="M94 0l281 1513h375q307 0 437 -91t130 -289q0 -233 -149.5 -390t-389.5 -178l320 -565h-189l-383 686q289 0 410 49q98 41 160.5 145.5t62.5 227.5q0 145 -102.5 206.5t-341.5 61.5h-213l-256 -1376h-152zM803 1616l47 258h151l-47 -258h-151z" />
<glyph unicode="&#x1e59;" horiz-adv-x="616" d="M68 0l206 1120h152l-29 -159q61 92 142.5 135t210.5 51l-29 -150q-324 -35 -381 -344l-121 -653h-151zM375 1243l47 258h151l-47 -258h-151z" />
<glyph unicode="&#x1e5a;" horiz-adv-x="1243" d="M94 0l281 1513h375q307 0 437 -91t130 -289q0 -233 -149.5 -390t-389.5 -178l320 -565h-189l-383 686q289 0 410 49q98 41 160.5 145.5t62.5 227.5q0 145 -102.5 206.5t-341.5 61.5h-213l-256 -1376h-152zM432 -381l47 258h152l-47 -258h-152z" />
<glyph unicode="&#x1e5b;" horiz-adv-x="616" d="M-2 -381l47 258h152l-47 -258h-152zM68 0l206 1120h152l-29 -159q61 92 142.5 135t210.5 51l-29 -150q-324 -35 -381 -344l-121 -653h-151z" />
<glyph unicode="&#x1e5c;" horiz-adv-x="1243" d="M94 0l281 1513h375q307 0 437 -91t130 -289q0 -233 -149.5 -390t-389.5 -178l320 -565h-189l-383 686q289 0 410 49q98 41 160.5 145.5t62.5 227.5q0 145 -102.5 206.5t-341.5 61.5h-213l-256 -1376h-152zM432 -381l47 258h152l-47 -258h-152zM543 1681l24 127h690 l-24 -127h-690z" />
<glyph unicode="&#x1e5d;" horiz-adv-x="616" d="M-2 -381l47 258h152l-47 -258h-152zM68 0l206 1120h152l-29 -159q61 92 142.5 135t210.5 51l-29 -150q-324 -35 -381 -344l-121 -653h-151zM119 1335l24 127h691l-25 -127h-690z" />
<glyph unicode="&#x1e62;" horiz-adv-x="1019" d="M53 338q0 20 4 86h162q0 -164 64.5 -237.5t195.5 -73.5q147 0 255 107.5t108 254.5q0 94 -61.5 148.5t-223.5 105.5q-199 61 -260 134t-61 202q0 182 148 328.5t355 146.5q160 0 257.5 -91t97.5 -241q0 -23 -7 -78h-157q0 270 -217 271q-133 0 -226.5 -97.5t-93.5 -216.5 q0 -31 13.5 -69.5t31.5 -56.5q23 -23 60 -40.5t147 -54.5q225 -76 289 -155q66 -84 65 -207q0 -209 -165.5 -370t-384.5 -161q-174 0 -285 101.5t-111 263.5zM309 -381l47 258h152l-47 -258h-152z" />
<glyph unicode="&#x1e63;" horiz-adv-x="794" d="M27 240q0 41 6 90h149q0 -127 42 -172t128 -45q94 0 163 68.5t69 160.5q0 63 -33 97t-148 83q-92 41 -127.5 61.5t-58.5 47.5q-53 59 -53 147q0 147 117.5 258t267.5 111q113 0 186.5 -68.5t73.5 -173.5q0 -39 -2 -61h-154q0 164 -133 164q-76 0 -137 -58.5t-61 -130.5 q0 -78 77 -121q35 -18 195 -90q147 -66 147 -221q0 -170 -124.5 -292t-290.5 -122q-135 0 -217 78t-82 189zM190 -381l48 258h151l-47 -258h-152z" />
<glyph unicode="&#x1e6c;" horiz-adv-x="872" d="M209 1376l24 137h844l-24 -137h-346l-256 -1376h-152l256 1376h-346zM229 -381l47 258h152l-47 -258h-152z" />
<glyph unicode="&#x1e6d;" horiz-adv-x="694" d="M141 -381l47 258h152l-47 -258h-152zM145 983l25 137h229l74 393h152l-74 -393h264l-24 -137h-265l-182 -983h-151l182 983h-230z" />
<glyph unicode="&#x1e6e;" horiz-adv-x="872" d="M-29 -315l25 127h690l-24 -127h-691zM209 1376l24 137h844l-24 -137h-346l-256 -1376h-152l256 1376h-346z" />
<glyph unicode="&#x1e6f;" horiz-adv-x="694" d="M-119 -315l25 127h690l-25 -127h-690zM145 983l25 137h229l74 393h152l-74 -393h264l-24 -137h-265l-182 -983h-151l182 983h-230z" />
<glyph unicode="&#x1e80;" horiz-adv-x="1966" d="M240 1513h155l129 -1316l606 1316h144l119 -1316l616 1316h156l-715 -1513h-195l-106 1241l-561 -1241h-197zM948 1823l94 119l351 -238l-93 -115z" />
<glyph unicode="&#x1e81;" horiz-adv-x="1701" d="M160 1120h151l183 -938l413 801h125l115 -801l539 938h147l-641 -1120h-162l-106 743l-379 -743h-164zM745 1450l95 119l350 -238l-92 -114z" />
<glyph unicode="&#x1e82;" horiz-adv-x="1966" d="M240 1513h155l129 -1316l606 1316h144l119 -1316l616 1316h156l-715 -1513h-195l-106 1241l-561 -1241h-197zM1081 1704l439 238l49 -119l-439 -234z" />
<glyph unicode="&#x1e83;" horiz-adv-x="1701" d="M160 1120h151l183 -938l413 801h125l115 -801l539 938h147l-641 -1120h-162l-106 743l-379 -743h-164zM879 1331l438 238l49 -119l-438 -233z" />
<glyph unicode="&#x1e84;" horiz-adv-x="1966" d="M240 1513h155l129 -1316l606 1316h144l119 -1316l616 1316h156l-715 -1513h-195l-106 1241l-561 -1241h-197zM991 1616l47 258h152l-47 -258h-152zM1292 1616l47 258h152l-47 -258h-152z" />
<glyph unicode="&#x1e85;" horiz-adv-x="1701" d="M160 1120h151l183 -938l413 801h125l115 -801l539 938h147l-641 -1120h-162l-106 743l-379 -743h-164zM788 1243l48 258h151l-47 -258h-152zM1090 1243l47 258h151l-47 -258h-151z" />
<glyph unicode="&#x1e92;" horiz-adv-x="983" d="M-27 0l25 137l975 1239h-721l24 137h891l-24 -137l-973 -1239h764l-25 -137h-936zM297 -381l47 258h152l-47 -258h-152z" />
<glyph unicode="&#x1e93;" horiz-adv-x="870" d="M-41 0l25 137l776 846h-598l24 137h770l-22 -129l-772 -854h651l-25 -137h-829zM219 -381l47 258h152l-47 -258h-152z" />
<glyph unicode="&#x1e97;" horiz-adv-x="694" d="M145 983l25 137h229l74 393h152l-74 -393h264l-24 -137h-265l-182 -983h-151l182 983h-230zM338 1616l47 258h152l-48 -258h-151zM639 1616l47 258h152l-47 -258h-152z" />
<glyph unicode="&#x1ea0;" horiz-adv-x="1515" d="M-39 0l930 1513h170l371 -1513h-166l-125 510h-705l-315 -510h-160zM520 647h588l-164 694zM551 -381l47 258h152l-48 -258h-151z" />
<glyph unicode="&#x1ea1;" d="M119 442q0 285 211 495t497 210q285 0 400 -225l37 198h151l-207 -1120h-151l37 197q-125 -127 -227.5 -175.5t-245.5 -48.5q-225 0 -363.5 129t-138.5 340zM276 481q0 -164 103.5 -266t271.5 -102q205 0 361.5 163.5t156.5 376.5q0 154 -101 254.5t-255 100.5 q-213 0 -375 -159t-162 -368zM469 -381l47 258h152l-47 -258h-152z" />
<glyph unicode="&#x1ea2;" horiz-adv-x="1515" d="M-39 0l930 1513h170l371 -1513h-166l-125 510h-705l-315 -510h-160zM520 647h588l-164 694zM815 1798q35 117 99.5 166t160.5 49q82 0 129 -38t47 -103q0 -57 -39 -103q-20 -20 -71 -55h-2q-84 -53 -95 -115h-110q10 109 125 185q78 51 78 82q0 45 -72 45 q-98 0 -137 -113h-113z" />
<glyph unicode="&#x1ea3;" d="M119 442q0 285 211 495t497 210q285 0 400 -225l37 198h151l-207 -1120h-151l37 197q-125 -127 -227.5 -175.5t-245.5 -48.5q-225 0 -363.5 129t-138.5 340zM276 481q0 -164 103.5 -266t271.5 -102q205 0 361.5 163.5t156.5 376.5q0 154 -101 254.5t-255 100.5 q-213 0 -375 -159t-162 -368zM662 1405q63 215 260 215q82 0 129 -38t47 -103q0 -57 -39 -103q-20 -20 -72 -55h-2q-84 -53 -94 -115h-111q10 109 125 185q78 51 78 82q0 45 -72 45q-98 0 -137 -113h-112z" />
<glyph unicode="&#x1ea4;" horiz-adv-x="1515" d="M-39 0l930 1513h170l371 -1513h-166l-125 510h-705l-315 -510h-160zM520 647h588l-164 694zM633 1616l344 258h135l246 -258h-182l-148 151l-209 -151h-186zM915 2030l439 237l49 -119l-438 -233z" />
<glyph unicode="&#x1ea5;" d="M119 442q0 285 211 495t497 210q285 0 400 -225l37 198h151l-207 -1120h-151l37 197q-125 -127 -227.5 -175.5t-245.5 -48.5q-225 0 -363.5 129t-138.5 340zM276 481q0 -164 103.5 -266t271.5 -102q205 0 361.5 163.5t156.5 376.5q0 154 -101 254.5t-255 100.5 q-213 0 -375 -159t-162 -368zM479 1223l344 258h135l246 -258h-182l-148 151l-208 -151h-187zM762 1636l438 238l49 -119l-438 -233z" />
<glyph unicode="&#x1ea6;" horiz-adv-x="1515" d="M-39 0l930 1513h170l371 -1513h-166l-125 510h-705l-315 -510h-160zM520 647h588l-164 694zM633 1616l344 258h135l246 -258h-182l-148 151l-209 -151h-186zM782 2148l95 119l350 -237l-92 -115z" />
<glyph unicode="&#x1ea7;" d="M119 442q0 285 211 495t497 210q285 0 400 -225l37 198h151l-207 -1120h-151l37 197q-125 -127 -227.5 -175.5t-245.5 -48.5q-225 0 -363.5 129t-138.5 340zM276 481q0 -164 103.5 -266t271.5 -102q205 0 361.5 163.5t156.5 376.5q0 154 -101 254.5t-255 100.5 q-213 0 -375 -159t-162 -368zM479 1223l344 258h135l246 -258h-182l-148 151l-208 -151h-187zM629 1755l94 119l350 -238l-92 -114z" />
<glyph unicode="&#x1ea8;" horiz-adv-x="1515" d="M-39 0l930 1513h170l371 -1513h-166l-125 510h-705l-315 -510h-160zM520 647h588l-164 694zM633 1616l344 258h135l246 -258h-182l-148 151l-209 -151h-186zM1028 2138q35 117 99.5 166t160.5 49q82 0 129 -38t47 -103q0 -57 -39 -103q-20 -20 -71 -55h-2 q-84 -53 -95 -115h-110q10 109 125 185q78 51 78 82q0 45 -72 45q-98 0 -137 -113h-113z" />
<glyph unicode="&#x1ea9;" d="M119 442q0 285 211 495t497 210q285 0 400 -225l37 198h151l-207 -1120h-151l37 197q-125 -127 -227.5 -175.5t-245.5 -48.5q-225 0 -363.5 129t-138.5 340zM276 481q0 -164 103.5 -266t271.5 -102q205 0 361.5 163.5t156.5 376.5q0 154 -101 254.5t-255 100.5 q-213 0 -375 -159t-162 -368zM479 1223l344 258h135l246 -258h-182l-148 151l-208 -151h-187zM874 1745q63 215 261 215q82 0 129 -38t47 -103q0 -57 -39 -103q-20 -20 -72 -55h-2q-84 -53 -94 -115h-111q10 109 125 185q78 51 78 81q0 45 -72 46q-98 0 -137 -113h-113z" />
<glyph unicode="&#x1eaa;" horiz-adv-x="1515" d="M-39 0l930 1513h170l371 -1513h-166l-125 510h-705l-315 -510h-160zM520 647h588l-164 694zM633 1616l344 258h135l246 -258h-182l-148 151l-209 -151h-186zM774 2036q100 104 182 104q29 0 113 -38t102 -38q74 0 146 78l43 -94q-82 -113 -189 -113q-55 0 -196 68 q-14 8 -35 8q-18 0 -36.5 -11t-82.5 -56z" />
<glyph unicode="&#x1eab;" d="M119 442q0 285 211 495t497 210q285 0 400 -225l37 198h151l-207 -1120h-151l37 197q-125 -127 -227.5 -175.5t-245.5 -48.5q-225 0 -363.5 129t-138.5 340zM276 481q0 -164 103.5 -266t271.5 -102q205 0 361.5 163.5t156.5 376.5q0 154 -101 254.5t-255 100.5 q-213 0 -375 -159t-162 -368zM479 1223l344 258h135l246 -258h-182l-148 151l-208 -151h-187zM621 1642q100 104 182 105q29 0 112.5 -38t102.5 -38q74 0 145 78l43 -94q-82 -113 -188 -113q-55 0 -197 68q-14 8 -35 8q-18 0 -36.5 -11.5t-81.5 -56.5z" />
<glyph unicode="&#x1eac;" horiz-adv-x="1515" d="M-39 0l930 1513h170l371 -1513h-166l-125 510h-705l-315 -510h-160zM520 647h588l-164 694zM551 -381l47 258h152l-48 -258h-151zM633 1616l344 258h135l246 -258h-182l-148 151l-209 -151h-186z" />
<glyph unicode="&#x1ead;" d="M119 442q0 285 211 495t497 210q285 0 400 -225l37 198h151l-207 -1120h-151l37 197q-125 -127 -227.5 -175.5t-245.5 -48.5q-225 0 -363.5 129t-138.5 340zM276 481q0 -164 103.5 -266t271.5 -102q205 0 361.5 163.5t156.5 376.5q0 154 -101 254.5t-255 100.5 q-213 0 -375 -159t-162 -368zM469 -381l47 258h152l-47 -258h-152zM481 1243l344 258h136l245 -258h-182l-147 152l-209 -152h-187z" />
<glyph unicode="&#x1eae;" horiz-adv-x="1515" d="M-39 0l930 1513h170l371 -1513h-166l-125 510h-705l-315 -510h-160zM520 647h588l-164 694zM731 1866h131q8 -74 46 -100.5t120 -26.5q78 0 137.5 33.5t79.5 93.5h109q-72 -240 -353 -240q-127 0 -195.5 54.5t-74.5 185.5zM961 2044l438 237l49 -118l-438 -234z" />
<glyph unicode="&#x1eaf;" d="M119 442q0 285 211 495t497 210q285 0 400 -225l37 198h151l-207 -1120h-151l37 197q-125 -127 -227.5 -175.5t-245.5 -48.5q-225 0 -363.5 129t-138.5 340zM276 481q0 -164 103.5 -266t271.5 -102q205 0 361.5 163.5t156.5 376.5q0 154 -101 254.5t-255 100.5 q-213 0 -375 -159t-162 -368zM578 1473h131q8 -74 46 -100.5t119 -26.5q78 0 137.5 33.5t80.5 93.5h108q-72 -240 -352 -240q-127 0 -195.5 54.5t-74.5 185.5zM807 1651l438 237l49 -119l-438 -233z" />
<glyph unicode="&#x1eb0;" horiz-adv-x="1515" d="M-39 0l930 1513h170l371 -1513h-166l-125 510h-705l-315 -510h-160zM520 647h588l-164 694zM731 1866h131q8 -74 46 -100.5t120 -26.5q78 0 137.5 33.5t79.5 93.5h109q-72 -240 -353 -240q-127 0 -195.5 54.5t-74.5 185.5zM745 2163l95 118l350 -237l-92 -115z" />
<glyph unicode="&#x1eb1;" d="M119 442q0 285 211 495t497 210q285 0 400 -225l37 198h151l-207 -1120h-151l37 197q-125 -127 -227.5 -175.5t-245.5 -48.5q-225 0 -363.5 129t-138.5 340zM276 481q0 -164 103.5 -266t271.5 -102q205 0 361.5 163.5t156.5 376.5q0 154 -101 254.5t-255 100.5 q-213 0 -375 -159t-162 -368zM578 1473h131q8 -74 46 -100.5t119 -26.5q78 0 137.5 33.5t80.5 93.5h108q-72 -240 -352 -240q-127 0 -195.5 54.5t-74.5 185.5zM592 1769l94 119l350 -237l-92 -115z" />
<glyph unicode="&#x1eb2;" horiz-adv-x="1515" d="M-39 0l930 1513h170l371 -1513h-166l-125 510h-705l-315 -510h-160zM520 647h588l-164 694zM731 1866h131q8 -74 46 -100.5t120 -26.5q78 0 137.5 33.5t79.5 93.5h109q-72 -240 -353 -240q-127 0 -195.5 54.5t-74.5 185.5zM860 2038q35 117 99.5 166t160.5 49 q82 0 129 -38t47 -104q0 -57 -39 -102q-20 -20 -71 -55h-2q-84 -53 -94 -115h-111q10 109 125 184q78 51 78 82q0 45 -72 45q-98 0 -137 -112h-113z" />
<glyph unicode="&#x1eb3;" d="M119 442q0 285 211 495t497 210q285 0 400 -225l37 198h151l-207 -1120h-151l37 197q-125 -127 -227.5 -175.5t-245.5 -48.5q-225 0 -363.5 129t-138.5 340zM276 481q0 -164 103.5 -266t271.5 -102q205 0 361.5 163.5t156.5 376.5q0 154 -101 254.5t-255 100.5 q-213 0 -375 -159t-162 -368zM578 1473h131q8 -74 46 -100.5t119 -26.5q78 0 137.5 33.5t80.5 93.5h108q-72 -240 -352 -240q-127 0 -195.5 54.5t-74.5 185.5zM707 1645q63 215 260 215q82 0 129 -38t47 -104q0 -57 -39 -102q-20 -20 -72 -55h-2q-84 -53 -94 -115h-111 q10 109 125 184q78 51 78 82q0 45 -72 45q-98 0 -137 -112h-112z" />
<glyph unicode="&#x1eb4;" horiz-adv-x="1515" d="M-39 0l930 1513h170l371 -1513h-166l-125 510h-705l-315 -510h-160zM520 647h588l-164 694zM731 1866h131q8 -74 46 -100.5t120 -26.5q78 0 137.5 33.5t79.5 93.5h109q-72 -240 -353 -240q-127 0 -195.5 54.5t-74.5 185.5zM778 2052q100 104 183 105q29 0 112.5 -38 t102.5 -38q74 0 145 78l43 -95q-82 -113 -188 -112q-55 0 -197 67q-14 8 -35 9q-18 0 -36.5 -11.5t-82.5 -56.5z" />
<glyph unicode="&#x1eb5;" d="M119 442q0 285 211 495t497 210q285 0 400 -225l37 198h151l-207 -1120h-151l37 197q-125 -127 -227.5 -175.5t-245.5 -48.5q-225 0 -363.5 129t-138.5 340zM276 481q0 -164 103.5 -266t271.5 -102q205 0 361.5 163.5t156.5 376.5q0 154 -101 254.5t-255 100.5 q-213 0 -375 -159t-162 -368zM578 1473h131q8 -74 46 -100.5t119 -26.5q78 0 137.5 33.5t80.5 93.5h108q-72 -240 -352 -240q-127 0 -195.5 54.5t-74.5 185.5zM625 1659q100 104 182 104q29 0 113 -37.5t102 -37.5q74 0 145 77l43 -94q-82 -113 -188 -112q-55 0 -197 67 q-14 8 -34 8q-18 0 -37 -11t-82 -56z" />
<glyph unicode="&#x1eb6;" horiz-adv-x="1515" d="M-39 0l930 1513h170l371 -1513h-166l-125 510h-705l-315 -510h-160zM520 647h588l-164 694zM551 -381l47 258h152l-48 -258h-151zM729 1866h131q8 -74 46 -100.5t120 -26.5q78 0 137.5 33.5t79.5 93.5h109q-72 -240 -353 -240q-127 0 -195.5 54.5t-74.5 185.5z" />
<glyph unicode="&#x1eb7;" d="M119 442q0 285 211 495t497 210q285 0 400 -225l37 198h151l-207 -1120h-151l37 197q-125 -127 -227.5 -175.5t-245.5 -48.5q-225 0 -363.5 129t-138.5 340zM276 481q0 -164 103.5 -266t271.5 -102q205 0 361.5 163.5t156.5 376.5q0 154 -101 254.5t-255 100.5 q-213 0 -375 -159t-162 -368zM469 -381l47 258h152l-47 -258h-152zM567 1493h131q8 -74 46 -100.5t120 -26.5q78 0 137.5 34t79.5 93h109q-72 -240 -352 -240q-127 0 -196 54.5t-75 185.5z" />
<glyph unicode="&#x1eb8;" horiz-adv-x="1097" d="M94 0l281 1513h827l-24 -137h-676l-103 -542h654l-25 -138h-653l-105 -559h676l-24 -137h-828zM342 -381l47 258h152l-47 -258h-152z" />
<glyph unicode="&#x1eb9;" horiz-adv-x="1331" d="M119 451q0 276 210 486t486 210q213 0 349 -131t136 -336q0 -66 -18 -170h-1014q-4 -49 -4 -57q0 -143 106.5 -241.5t260.5 -98.5q125 0 249 71.5t189 184.5h158q-98 -180 -267 -288t-356 -108q-209 0 -347 136.5t-138 341.5zM299 647h858q-8 166 -107.5 263.5 t-261.5 97.5q-160 0 -297 -101.5t-192 -259.5zM457 -381l47 258h151l-47 -258h-151z" />
<glyph unicode="&#x1eba;" horiz-adv-x="1097" d="M94 0l281 1513h827l-24 -137h-676l-103 -542h654l-25 -138h-653l-105 -559h676l-24 -137h-828zM629 1798q63 215 260 215q82 0 129 -38t47 -103q0 -57 -39 -103q-20 -20 -72 -55h-2q-84 -53 -94 -115h-110q10 109 124 185q78 51 78 82q0 45 -71 45q-98 0 -138 -113h-112z " />
<glyph unicode="&#x1ebb;" horiz-adv-x="1331" d="M119 451q0 276 210 486t486 210q213 0 349 -131t136 -336q0 -66 -18 -170h-1014q-4 -49 -4 -57q0 -143 106.5 -241.5t260.5 -98.5q125 0 249 71.5t189 184.5h158q-98 -180 -267 -288t-356 -108q-209 0 -347 136.5t-138 341.5zM299 647h858q-8 166 -107.5 263.5 t-261.5 97.5q-160 0 -297 -101.5t-192 -259.5zM649 1405q63 215 260 215q82 0 129 -38t47 -103q0 -57 -38 -103q-20 -20 -72 -55h-2q-84 -53 -94 -115h-111q10 109 125 185q78 51 78 82q0 45 -72 45q-98 0 -137 -113h-113z" />
<glyph unicode="&#x1ebc;" horiz-adv-x="1097" d="M94 0l281 1513h827l-24 -137h-676l-103 -542h654l-25 -138h-653l-105 -559h676l-24 -137h-828zM532 1743q100 104 183 104q29 0 112.5 -37.5t102.5 -37.5q74 0 145 77l43 -94q-82 -113 -188 -113q-55 0 -197 68q-14 8 -35 8q-18 0 -36.5 -11t-81.5 -56z" />
<glyph unicode="&#x1ebd;" horiz-adv-x="1331" d="M119 451q0 276 210 486t486 210q213 0 349 -131t136 -336q0 -66 -18 -170h-1014q-4 -49 -4 -57q0 -143 106.5 -241.5t260.5 -98.5q125 0 249 71.5t189 184.5h158q-98 -180 -267 -288t-356 -108q-209 0 -347 136.5t-138 341.5zM299 647h858q-8 166 -107.5 263.5 t-261.5 97.5q-160 0 -297 -101.5t-192 -259.5zM555 1370q100 104 182 105q29 0 113 -38t102 -38q74 0 146 78l43 -95q-82 -113 -189 -112q-55 0 -196 67q-14 8 -35 9q-18 0 -36.5 -11.5t-82.5 -56.5z" />
<glyph unicode="&#x1ebe;" horiz-adv-x="1097" d="M94 0l281 1513h827l-24 -137h-676l-103 -542h654l-25 -138h-653l-105 -559h676l-24 -137h-828zM446 1616l345 258h135l245 -258h-182l-147 151l-209 -151h-187zM729 2030l438 237l50 -119l-439 -233z" />
<glyph unicode="&#x1ebf;" horiz-adv-x="1331" d="M119 451q0 276 210 486t486 210q213 0 349 -131t136 -336q0 -66 -18 -170h-1014q-4 -49 -4 -57q0 -143 106.5 -241.5t260.5 -98.5q125 0 249 71.5t189 184.5h158q-98 -180 -267 -288t-356 -108q-209 0 -347 136.5t-138 341.5zM299 647h858q-8 166 -107.5 263.5 t-261.5 97.5q-160 0 -297 -101.5t-192 -259.5zM467 1223l344 258h135l246 -258h-182l-148 151l-209 -151h-186zM750 1636l438 238l49 -119l-438 -233z" />
<glyph unicode="&#x1ec0;" horiz-adv-x="1097" d="M94 0l281 1513h827l-24 -137h-676l-103 -542h654l-25 -138h-653l-105 -559h676l-24 -137h-828zM446 1616l345 258h135l245 -258h-182l-147 151l-209 -151h-187zM596 2148l94 119l350 -237l-92 -115z" />
<glyph unicode="&#x1ec1;" horiz-adv-x="1331" d="M119 451q0 276 210 486t486 210q213 0 349 -131t136 -336q0 -66 -18 -170h-1014q-4 -49 -4 -57q0 -143 106.5 -241.5t260.5 -98.5q125 0 249 71.5t189 184.5h158q-98 -180 -267 -288t-356 -108q-209 0 -347 136.5t-138 341.5zM299 647h858q-8 166 -107.5 263.5 t-261.5 97.5q-160 0 -297 -101.5t-192 -259.5zM467 1223l344 258h135l246 -258h-182l-148 151l-209 -151h-186zM616 1755l95 119l350 -238l-92 -114z" />
<glyph unicode="&#x1ec2;" horiz-adv-x="1097" d="M94 0l281 1513h827l-24 -137h-676l-103 -542h654l-25 -138h-653l-105 -559h676l-24 -137h-828zM446 1616l345 258h135l245 -258h-182l-147 151l-209 -151h-187zM842 2138q63 215 260 215q82 0 129 -38t47 -103q0 -57 -39 -103q-20 -20 -72 -55h-2q-84 -53 -94 -115h-110 q10 109 124 185q78 51 78 82q0 45 -71 45q-98 0 -138 -113h-112z" />
<glyph unicode="&#x1ec3;" horiz-adv-x="1331" d="M119 451q0 276 210 486t486 210q213 0 349 -131t136 -336q0 -66 -18 -170h-1014q-4 -49 -4 -57q0 -143 106.5 -241.5t260.5 -98.5q125 0 249 71.5t189 184.5h158q-98 -180 -267 -288t-356 -108q-209 0 -347 136.5t-138 341.5zM299 647h858q-8 166 -107.5 263.5 t-261.5 97.5q-160 0 -297 -101.5t-192 -259.5zM467 1223l344 258h135l246 -258h-182l-148 151l-209 -151h-186zM862 1745q63 215 260 215q82 0 129 -38t47 -103q0 -57 -38 -103q-20 -20 -72 -55h-2q-84 -53 -94 -115h-111q10 109 125 185q78 51 78 81q0 45 -72 46 q-98 0 -137 -113h-113z" />
<glyph unicode="&#x1ec4;" horiz-adv-x="1097" d="M94 0l281 1513h827l-24 -137h-676l-103 -542h654l-25 -138h-653l-105 -559h676l-24 -137h-828zM446 1616l345 258h135l245 -258h-182l-147 151l-209 -151h-187zM588 2036q100 104 182 104q29 0 113 -38t102 -38q74 0 145 78l44 -94q-82 -113 -189 -113q-55 0 -197 68 q-14 8 -34 8q-18 0 -37 -11t-82 -56z" />
<glyph unicode="&#x1ec5;" horiz-adv-x="1331" d="M119 451q0 276 210 486t486 210q213 0 349 -131t136 -336q0 -66 -18 -170h-1014q-4 -49 -4 -57q0 -143 106.5 -241.5t260.5 -98.5q125 0 249 71.5t189 184.5h158q-98 -180 -267 -288t-356 -108q-209 0 -347 136.5t-138 341.5zM299 647h858q-8 166 -107.5 263.5 t-261.5 97.5q-160 0 -297 -101.5t-192 -259.5zM467 1223l344 258h135l246 -258h-182l-148 151l-209 -151h-186zM608 1642q100 104 183 105q29 0 112.5 -38t102.5 -38q74 0 145 78l43 -94q-82 -113 -188 -113q-55 0 -197 68q-14 8 -35 8q-18 0 -36.5 -11.5t-82.5 -56.5z" />
<glyph unicode="&#x1ec6;" horiz-adv-x="1097" d="M94 0l281 1513h827l-24 -137h-676l-103 -542h654l-25 -138h-653l-105 -559h676l-24 -137h-828zM342 -381l47 258h152l-47 -258h-152zM446 1616l345 258h135l245 -258h-182l-147 151l-209 -151h-187z" />
<glyph unicode="&#x1ec7;" horiz-adv-x="1331" d="M119 451q0 276 210 486t486 210q213 0 349 -131t136 -336q0 -66 -18 -170h-1014q-4 -49 -4 -57q0 -143 106.5 -241.5t260.5 -98.5q125 0 249 71.5t189 184.5h158q-98 -180 -267 -288t-356 -108q-209 0 -347 136.5t-138 341.5zM299 647h858q-8 166 -107.5 263.5 t-261.5 97.5q-160 0 -297 -101.5t-192 -259.5zM457 -381l47 258h151l-47 -258h-151zM469 1243l344 258h135l246 -258h-182l-148 152l-209 -152h-186z" />
<glyph unicode="&#x1ec8;" horiz-adv-x="462" d="M94 0l281 1513h151l-280 -1513h-152zM291 1798q35 117 99.5 166t160.5 49q82 0 129 -38t47 -103q0 -57 -39 -103q-20 -20 -72 -55h-2q-84 -53 -94 -115h-110q10 109 125 185q78 51 77 82q0 45 -71 45q-98 0 -138 -113h-112z" />
<glyph unicode="&#x1ec9;" horiz-adv-x="409" d="M68 0l206 1120h152l-207 -1120h-151zM190 1405q63 215 261 215q82 0 129 -38t47 -103q0 -57 -39 -103q-20 -20 -72 -55h-2q-84 -53 -94 -115h-111q10 109 125 185q78 51 78 82q0 45 -72 45q-98 0 -137 -113h-113z" />
<glyph unicode="&#x1eca;" horiz-adv-x="462" d="M25 -381l47 258h151l-47 -258h-151zM94 0l281 1513h151l-280 -1513h-152z" />
<glyph unicode="&#x1ecb;" horiz-adv-x="409" d="M-2 -381l47 258h152l-47 -258h-152zM68 0l206 1120h152l-207 -1120h-151zM299 1243l47 258h152l-47 -258h-152z" />
<glyph unicode="&#x1ecc;" horiz-adv-x="1779" d="M156 618q0 236 136 450t360.5 343t469.5 129q272 0 466 -183t194 -464q0 -233 -136.5 -447.5t-360.5 -343.5t-470 -129q-276 0 -467.5 184.5t-191.5 460.5zM313 647q0 -225 152.5 -379.5t374.5 -154.5q305 0 544.5 230t239.5 521q0 233 -151.5 385t-387.5 152 q-293 0 -532.5 -233.5t-239.5 -520.5zM692 -381l47 258h152l-47 -258h-152z" />
<glyph unicode="&#x1ecd;" horiz-adv-x="1341" d="M117 440q0 289 215 498t497 209q213 0 346.5 -129t133.5 -338q0 -287 -209 -497t-479 -210q-223 0 -363.5 130t-140.5 337zM274 467q0 -158 101.5 -256t265.5 -98q213 0 361.5 160.5t148.5 392.5q0 150 -98.5 246t-249.5 96q-215 0 -372 -161t-157 -380zM471 -381l47 258 h152l-47 -258h-152z" />
<glyph unicode="&#x1ece;" horiz-adv-x="1779" d="M156 618q0 236 136 450t360.5 343t469.5 129q272 0 466 -183t194 -464q0 -233 -136.5 -447.5t-360.5 -343.5t-470 -129q-276 0 -467.5 184.5t-191.5 460.5zM313 647q0 -225 152.5 -379.5t374.5 -154.5q305 0 544.5 230t239.5 521q0 233 -151.5 385t-387.5 152 q-293 0 -532.5 -233.5t-239.5 -520.5zM956 1798q63 215 261 215q82 0 129 -38t47 -103q0 -57 -39 -103q-20 -20 -72 -55h-2q-84 -53 -94 -115h-111q10 109 125 185q78 51 78 82q0 45 -72 45q-98 0 -137 -113h-113z" />
<glyph unicode="&#x1ecf;" horiz-adv-x="1341" d="M117 440q0 289 215 498t497 209q213 0 346.5 -129t133.5 -338q0 -287 -209 -497t-479 -210q-223 0 -363.5 130t-140.5 337zM274 467q0 -158 101.5 -256t265.5 -98q213 0 361.5 160.5t148.5 392.5q0 150 -98.5 246t-249.5 96q-215 0 -372 -161t-157 -380zM664 1405 q35 117 99 166t161 49q82 0 129 -38t47 -103q0 -57 -39 -103q-20 -20 -72 -55h-2q-84 -53 -94 -115h-111q10 109 125 185q78 51 78 82q0 45 -72 45q-98 0 -137 -113h-112z" />
<glyph unicode="&#x1ed0;" horiz-adv-x="1779" d="M156 618q0 236 136 450t360.5 343t469.5 129q272 0 466 -183t194 -464q0 -233 -136.5 -447.5t-360.5 -343.5t-470 -129q-276 0 -467.5 184.5t-191.5 460.5zM313 647q0 -225 152.5 -379.5t374.5 -154.5q305 0 544.5 230t239.5 521q0 233 -151.5 385t-387.5 152 q-293 0 -532.5 -233.5t-239.5 -520.5zM774 1616l344 258h135l246 -258h-182l-148 151l-208 -151h-187zM1057 2030l438 237l49 -119l-438 -233z" />
<glyph unicode="&#x1ed1;" horiz-adv-x="1341" d="M117 440q0 289 215 498t497 209q213 0 346.5 -129t133.5 -338q0 -287 -209 -497t-479 -210q-223 0 -363.5 130t-140.5 337zM274 467q0 -158 101.5 -256t265.5 -98q213 0 361.5 160.5t148.5 392.5q0 150 -98.5 246t-249.5 96q-215 0 -372 -161t-157 -380zM481 1223 l344 258h136l245 -258h-182l-147 151l-209 -151h-187zM764 1636l438 238l49 -119l-438 -233z" />
<glyph unicode="&#x1ed2;" horiz-adv-x="1779" d="M156 618q0 236 136 450t360.5 343t469.5 129q272 0 466 -183t194 -464q0 -233 -136.5 -447.5t-360.5 -343.5t-470 -129q-276 0 -467.5 184.5t-191.5 460.5zM313 647q0 -225 152.5 -379.5t374.5 -154.5q305 0 544.5 230t239.5 521q0 233 -151.5 385t-387.5 152 q-293 0 -532.5 -233.5t-239.5 -520.5zM774 1616l344 258h135l246 -258h-182l-148 151l-208 -151h-187zM924 2148l94 119l350 -237l-92 -115z" />
<glyph unicode="&#x1ed3;" horiz-adv-x="1341" d="M117 440q0 289 215 498t497 209q213 0 346.5 -129t133.5 -338q0 -287 -209 -497t-479 -210q-223 0 -363.5 130t-140.5 337zM274 467q0 -158 101.5 -256t265.5 -98q213 0 361.5 160.5t148.5 392.5q0 150 -98.5 246t-249.5 96q-215 0 -372 -161t-157 -380zM481 1223 l344 258h136l245 -258h-182l-147 151l-209 -151h-187zM631 1755l94 119l350 -238l-92 -114z" />
<glyph unicode="&#x1ed4;" horiz-adv-x="1779" d="M156 618q0 236 136 450t360.5 343t469.5 129q272 0 466 -183t194 -464q0 -233 -136.5 -447.5t-360.5 -343.5t-470 -129q-276 0 -467.5 184.5t-191.5 460.5zM313 647q0 -225 152.5 -379.5t374.5 -154.5q305 0 544.5 230t239.5 521q0 233 -151.5 385t-387.5 152 q-293 0 -532.5 -233.5t-239.5 -520.5zM774 1616l344 258h135l246 -258h-182l-148 151l-208 -151h-187zM1169 2138q63 215 261 215q82 0 129 -38t47 -103q0 -57 -39 -103q-20 -20 -72 -55h-2q-84 -53 -94 -115h-111q10 109 125 185q78 51 78 82q0 45 -72 45q-98 0 -137 -113 h-113z" />
<glyph unicode="&#x1ed5;" horiz-adv-x="1341" d="M117 440q0 289 215 498t497 209q213 0 346.5 -129t133.5 -338q0 -287 -209 -497t-479 -210q-223 0 -363.5 130t-140.5 337zM274 467q0 -158 101.5 -256t265.5 -98q213 0 361.5 160.5t148.5 392.5q0 150 -98.5 246t-249.5 96q-215 0 -372 -161t-157 -380zM481 1223 l344 258h136l245 -258h-182l-147 151l-209 -151h-187zM877 1745q35 117 99 166t161 49q82 0 129 -38t47 -103q0 -57 -39 -103q-20 -20 -72 -55h-2q-84 -53 -94 -115h-111q10 109 125 185q78 51 78 81q0 45 -72 46q-98 0 -137 -113h-112z" />
<glyph unicode="&#x1ed6;" horiz-adv-x="1779" d="M156 618q0 236 136 450t360.5 343t469.5 129q272 0 466 -183t194 -464q0 -233 -136.5 -447.5t-360.5 -343.5t-470 -129q-276 0 -467.5 184.5t-191.5 460.5zM313 647q0 -225 152.5 -379.5t374.5 -154.5q305 0 544.5 230t239.5 521q0 233 -151.5 385t-387.5 152 q-293 0 -532.5 -233.5t-239.5 -520.5zM774 1616l344 258h135l246 -258h-182l-148 151l-208 -151h-187zM915 2036q100 104 183 104q29 0 112.5 -38t102.5 -38q74 0 145 78l43 -94q-82 -113 -188 -113q-55 0 -197 68q-14 8 -35 8q-18 0 -36.5 -11t-81.5 -56z" />
<glyph unicode="&#x1ed7;" horiz-adv-x="1341" d="M117 440q0 289 215 498t497 209q213 0 346.5 -129t133.5 -338q0 -287 -209 -497t-479 -210q-223 0 -363.5 130t-140.5 337zM274 467q0 -158 101.5 -256t265.5 -98q213 0 361.5 160.5t148.5 392.5q0 150 -98.5 246t-249.5 96q-215 0 -372 -161t-157 -380zM481 1223 l344 258h136l245 -258h-182l-147 151l-209 -151h-187zM623 1642q100 104 182 105q29 0 112.5 -38t102.5 -38q74 0 145 78l43 -94q-82 -113 -188 -113q-55 0 -197 68q-14 8 -35 8q-18 0 -36.5 -11.5t-81.5 -56.5z" />
<glyph unicode="&#x1ed8;" horiz-adv-x="1779" d="M156 618q0 236 136 450t360.5 343t469.5 129q272 0 466 -183t194 -464q0 -233 -136.5 -447.5t-360.5 -343.5t-470 -129q-276 0 -467.5 184.5t-191.5 460.5zM313 647q0 -225 152.5 -379.5t374.5 -154.5q305 0 544.5 230t239.5 521q0 233 -151.5 385t-387.5 152 q-293 0 -532.5 -233.5t-239.5 -520.5zM692 -381l47 258h152l-47 -258h-152zM774 1616l344 258h135l246 -258h-182l-148 151l-208 -151h-187z" />
<glyph unicode="&#x1ed9;" horiz-adv-x="1341" d="M117 440q0 289 215 498t497 209q213 0 346.5 -129t133.5 -338q0 -287 -209 -497t-479 -210q-223 0 -363.5 130t-140.5 337zM274 467q0 -158 101.5 -256t265.5 -98q213 0 361.5 160.5t148.5 392.5q0 150 -98.5 246t-249.5 96q-215 0 -372 -161t-157 -380zM471 -381l47 258 h152l-47 -258h-152zM483 1243l344 258h136l245 -258h-182l-147 152l-209 -152h-187z" />
<glyph unicode="&#x1eda;" horiz-adv-x="1779" d="M156 618q0 236 136 450t360.5 343t469.5 129q143 0 274.5 -57.5t225.5 -159.5q76 74 90 190h127q-18 -168 -147 -282q90 -150 90 -338q0 -233 -136.5 -447.5t-360.5 -343.5t-470 -129q-158 0 -303 70t-233 188q-123 166 -123 387zM313 647q0 -225 152.5 -379.5 t374.5 -154.5q305 0 544.5 230t239.5 521q0 233 -151.5 385t-387.5 152q-293 0 -532.5 -233.5t-239.5 -520.5zM995 1704l439 238l49 -119l-439 -234z" />
</font>
</defs>
</svg>
