<?xml version="1.0" standalone="no"?>
<!DOCTYPE svg PUBLIC "-//W3C//DTD SVG 1.1//EN" "http://www.w3.org/Graphics/SVG/1.1/DTD/svg11.dtd" >
<svg xmlns="http://www.w3.org/2000/svg">
<metadata>
This is a custom SVG webfont generated by Font Squirrel.
Copyright   : Copyright URW copyright 1999 by URW Design  Development Cyrillic glyphs added by Valek Filippov copyright 20012002 Vietnamese characters were added by Han The Thanh copyright 2006 2008 for TeX Gyre extensions by B Jackowski and JM Nowacki on behalf of TeX users groups This work is released under the GUST Font License   see httptugorgfontslicensesGUSTFONTLICENSEtxt for details
</metadata>
<defs>
<font id="webfont2BrOc2FP" horiz-adv-x="1310" >
<font-face units-per-em="2048" ascent="1669" descent="-379" />
<missing-glyph horiz-adv-x="573" />
<glyph unicode="IJ" horiz-adv-x="1460" d="M49 0l281 1513h280l-280 -1513h-281zM518 287q0 14 4 71h281l2 -14q14 -100 113 -100q135 0 172 198l198 1071h281l-201 -1079q-43 -223 -178 -342t-316 -119q-158 0 -257 88.5t-99 225.5z" />
<glyph unicode="ij" horiz-adv-x="1021" d="M49 0l211 1135h272l-210 -1135h-273zM291 1298l51 271h272l-51 -271h-272zM395 -379l49 264q78 14 103.5 49t46.5 148l194 1053h273l-197 -1059q-35 -211 -158 -331t-311 -124zM819 1298l51 271h273l-51 -271h-273z" />
<glyph unicode="fk" horiz-adv-x="1761" d="M55 0l164 887h-98l43 227h98q53 203 171 301t272 98q35 0 79 -4l-49 -258h-37q-145 0 -163 -137h159l-43 -227h-159l-164 -887h-273zM623 0l280 1513h273l-170 -913l460 535h326l-508 -555l365 -580h-367l-289 530l-98 -530h-272z" />
<glyph unicode="&#xfb00;" horiz-adv-x="1150" d="M55 0l164 887h-98l43 227h98q53 203 171 301t272 98q35 0 79 -4l-49 -258h-37q-145 0 -163 -137h294q53 203 171 301t272 98q35 0 80 -4l-49 -258h-37q-145 0 -164 -137h160l-43 -227h-160l-164 -887h-272l163 887h-294l-164 -887h-273z" />
<glyph unicode="&#xfb01;" horiz-adv-x="1064" d="M55 0l164 887h-98l43 227h98q53 203 171 301t272 98q35 0 79 -4l-49 -258h-37q-145 0 -163 -137h159l-43 -227h-159l-164 -887h-273zM623 0l211 1135h272l-211 -1135h-272zM862 1298l51 271h273l-51 -271h-273z" />
<glyph unicode="&#xfb02;" horiz-adv-x="1064" d="M55 0l164 887h-98l43 227h98q53 203 171 301t272 98q35 0 79 -4l-49 -258h-37q-145 0 -163 -137h159l-43 -227h-159l-164 -887h-273zM623 0l280 1513h273l-281 -1513h-272z" />
<glyph unicode="&#xfb03;" horiz-adv-x="1632" d="M55 0l164 887h-98l43 227h98q53 203 171 301t272 98q35 0 79 -4l-49 -258h-37q-145 0 -163 -137h294q53 203 171 301t272 98q35 0 80 -4l-49 -258h-37q-145 0 -164 -137h160l-43 -227h-160l-164 -887h-272l163 887h-294l-164 -887h-273zM1190 0l211 1135h272l-211 -1135 h-272zM1430 1298l51 271h272l-51 -271h-272z" />
<glyph unicode="&#xfb04;" horiz-adv-x="1632" d="M55 0l164 887h-98l43 227h98q53 203 171 301t272 98q35 0 79 -4l-49 -258h-37q-145 0 -163 -137h294q53 203 171 301t272 98q35 0 80 -4l-49 -258h-37q-145 0 -164 -137h160l-43 -227h-160l-164 -887h-272l163 887h-294l-164 -887h-273zM1190 0l280 1513h273l-281 -1513 h-272z" />
<glyph unicode=" "  horiz-adv-x="573" />
<glyph unicode="&#x09;" horiz-adv-x="573" />
<glyph unicode="&#xa0;" horiz-adv-x="573" />
<glyph unicode="!" horiz-adv-x="573" d="M86 0l49 262h273l-50 -262h-272zM158 385l209 1128h272l-209 -1128h-272z" />
<glyph unicode="&#x22;" horiz-adv-x="737" d="M285 1051l86 462h155l-86 -462h-155zM557 1051l86 462h156l-86 -462h-156z" />
<glyph unicode="#" horiz-adv-x="1146" d="M96 477l39 205h227l60 182h-195l37 205h223l144 444h186l-143 -444h172l143 444h182l-141 -444h184l-36 -205h-211l-58 -182h181l-39 -205h-209l-154 -477h-186l155 477h-172l-153 -477h-187l154 477h-203zM549 682h174l57 182h-172z" />
<glyph unicode="$" horiz-adv-x="1146" d="M143 424q0 39 11 86h274q-4 -37 -4 -43q0 -55 41 -94t98 -39q86 0 148.5 61.5t62.5 147.5q0 59 -57 104q-35 27 -197 92q-205 82 -205 281q0 158 94.5 292t254.5 169l49 272h260l-49 -272q90 -23 141 -103t51 -172q0 -29 -6 -78h-258q0 59 -27.5 93t-76.5 34 q-63 0 -107.5 -47t-44.5 -112q0 -61 37 -95q27 -23 64.5 -41t176.5 -73q180 -72 181 -256q0 -195 -103.5 -337t-285.5 -200l-50 -270h-260l50 270q-125 33 -194 121t-69 209z" />
<glyph unicode="%" horiz-adv-x="1761" d="M193 1106q0 170 136 302t310 132q131 0 219 -86t88 -215q0 -172 -137 -305t-313 -133q-131 0 -217 87t-86 218zM395 0l905 1513h211l-907 -1513h-209zM414 1151q0 -59 34.5 -95t94.5 -36q70 0 126 55t56 123q0 53 -37 89t-92 36q-68 0 -125 -54.5t-57 -117.5zM963 272 q0 174 135 307.5t311 133.5q131 0 219 -86t88 -215q0 -174 -137 -306.5t-315 -132.5q-127 0 -214 86t-87 213zM1184 315q0 -53 35.5 -87.5t89.5 -34.5q72 0 129 56t57 126q0 49 -38 85t-91 36q-72 0 -127 -54.5t-55 -126.5z" />
<glyph unicode="&#x26;" horiz-adv-x="1392" d="M84 367q0 326 377 520q-51 70 -67.5 110.5t-16.5 96.5q0 176 138 311t319 135q143 0 236 -82t93 -207q0 -143 -65.5 -245.5t-247.5 -208.5l111 -156l190 246h305l-346 -451l217 -289l-227 -174l-172 228q-119 -129 -212 -178.5t-214 -49.5q-184 0 -301 110t-117 284z M358 405.5q0 -73.5 47.5 -117.5t126.5 -44q133 0 244 162l-188 253q-129 -55 -179.5 -117.5t-50.5 -136zM639 1130q0 -59 76 -145l16 8q166 66 166 203q0 37 -29.5 62.5t-74.5 25.5q-61 0 -107.5 -46.5t-46.5 -107.5z" />
<glyph unicode="'" horiz-adv-x="450" d="M285 1051l86 462h155l-86 -462h-155z" />
<glyph unicode="(" horiz-adv-x="778" d="M188 434q0 213 102.5 443.5t270.5 398.5q82 82 163 133t210 104l-55 -294q-197 -139 -303.5 -334t-106.5 -416q0 -139 52 -266t134 -187l-55 -297q-174 59 -293 259t-119 456z" />
<glyph unicode=")" horiz-adv-x="778" d="M-35 -281l55 295q195 137 302.5 336t107.5 420q0 133 -53 261t-135 186l55 296q180 -63 297 -261.5t117 -442.5q0 -344 -205 -648.5t-541 -441.5z" />
<glyph unicode="*" horiz-adv-x="901" d="M299 1178l27 145l200 -47l-75 197l141 40l57 -190l123 158l111 -97l-142 -149l201 -25l-27 -143l-196 45l78 -186l-133 -56l-62 197l-123 -162l-119 86l144 164z" />
<glyph unicode="+" horiz-adv-x="1228" d="M158 371v282h362v363h283v-363h362v-282h-362v-363h-283v363h-362z" />
<glyph unicode="," horiz-adv-x="573" d="M35 -287l24 137q143 18 148 150h-119l49 262h273l-52 -276q-23 -121 -108.5 -197t-192.5 -76h-22z" />
<glyph unicode="-" horiz-adv-x="860" d="M188 469l45 242h568l-45 -242h-568z" />
<glyph unicode="." horiz-adv-x="573" d="M86 0l49 262h275l-50 -262h-274z" />
<glyph unicode="/" horiz-adv-x="942" d="M-57 -262l991 1775h192l-989 -1775h-194z" />
<glyph unicode="0" horiz-adv-x="1146" d="M78 379q0 63 12 127l96 514q45 240 206 380t392 140q197 0 313.5 -102.5t116.5 -276.5q0 -63 -12 -127l-98 -528q-47 -254 -207 -393.5t-383 -139.5q-205 0 -320.5 108t-115.5 298zM356 424q0 -201 199 -201q223 0 276 283l97 514q8 39 8 86q0 88 -51 136t-142 48 q-109 0 -185.5 -72.5t-98.5 -197.5l-94 -506q-9 -39 -9 -90z" />
<glyph unicode="1" horiz-adv-x="1146" d="M442 0l234 1257h-191l47 256h463l-280 -1513h-273z" />
<glyph unicode="2" horiz-adv-x="1146" d="M25 0l45 240l626 510q121 98 175.5 181t54.5 171q0 84 -47.5 136t-124.5 52q-217 0 -293 -299h-268q29 131 57.5 197.5t81.5 130.5q88 106 210 163.5t255 57.5q182 0 295.5 -108.5t113.5 -282.5t-84 -305t-311 -307l-362 -281h595l-47 -256h-972z" />
<glyph unicode="3" horiz-adv-x="1146" d="M47 377q0 29 6 82h275v-15q0 -102 53 -161.5t145 -59.5q119 0 204 94.5t85 204.5q0 90 -64.5 148.5t-185.5 58.5h-47l49 262q135 2 197.5 48t62.5 139q0 53 -27.5 82.5t-74.5 29.5q-119 0 -154 -137h-276q47 182 177 284.5t296 102.5q154 0 247 -90t93 -240 q0 -225 -182 -338q90 -51 130 -117.5t40 -168.5q0 -252 -181.5 -432.5t-435.5 -180.5q-190 0 -311 115t-121 289z" />
<glyph unicode="4" horiz-adv-x="1146" d="M-20 227l40 219l895 1067h230l-193 -1044h160l-45 -242h-160l-43 -227h-272l43 227h-655zM303 469h377l108 586z" />
<glyph unicode="5" horiz-adv-x="1146" d="M41 375q0 27 6 78h272q0 -111 53.5 -170.5t151.5 -59.5q123 0 212 103.5t89 236.5q0 94 -55 151.5t-145 57.5q-115 0 -230 -115l-229 66l289 790h684l-47 -256h-480l-102 -278q123 43 207 43q178 0 283.5 -111.5t105.5 -300.5q0 -250 -187.5 -443.5t-439.5 -193.5 q-184 0 -311 120t-127 282z" />
<glyph unicode="6" horiz-adv-x="1146" d="M66 377q0 268 233 543l506 593h325l-462 -538q63 20 129 20q158 0 248 -104.5t90 -272.5q0 -248 -186.5 -446.5t-444.5 -198.5q-188 0 -313 117t-125 287zM346 428q0 -94 56.5 -149.5t152.5 -55.5q121 0 210 96.5t89 227.5q0 94 -56.5 151.5t-148.5 57.5 q-127 0 -215 -95.5t-88 -232.5z" />
<glyph unicode="7" horiz-adv-x="1146" d="M113 0l794 1257h-600l47 256h889l-47 -256l-778 -1257h-305z" />
<glyph unicode="8" horiz-adv-x="1146" d="M80 389q0 137 75.5 262t213.5 191q-78 106 -78 209q0 190 153.5 339.5t350.5 149.5q147 0 241 -90t94 -231q0 -111 -46 -212.5t-138 -164.5q84 -53 119 -115.5t35 -165.5q0 -231 -181.5 -409.5t-418.5 -178.5q-190 0 -305 114t-115 302zM360 416q0 -88 52.5 -140.5 t136.5 -52.5q106 0 188 86t82 197q0 84 -52 138t-134 54q-106 0 -189.5 -85.5t-83.5 -196.5zM553 1090q0 -53 37 -91t90 -38q74 0 131 59t57 137q0 63 -32.5 98t-92.5 35q-74 0 -132 -61t-58 -139z" />
<glyph unicode="9" horiz-adv-x="1146" d="M160 0l465 539q-72 -25 -129 -25q-152 0 -244 104.5t-92 276.5q0 250 186 447.5t440 197.5q193 0 316 -114.5t123 -290.5q0 -266 -234 -541l-506 -594h-325zM440 961q0 -90 56.5 -148.5t144.5 -58.5q127 0 215 96t88 235q0 92 -57.5 148.5t-149.5 56.5q-127 0 -212 -101 t-85 -228z" />
<glyph unicode=":" horiz-adv-x="573" d="M86 0l49 262h275l-50 -262h-274zM225 766l49 262h275l-49 -262h-275z" />
<glyph unicode=";" horiz-adv-x="573" d="M35 -287l24 137q143 18 148 150h-119l49 262h273l-52 -276q-23 -121 -108.5 -197t-192.5 -76h-22zM225 766l49 262h275l-49 -262h-275z" />
<glyph unicode="&#x3c;" horiz-adv-x="1228" d="M180 401v222l875 692v-361l-559 -442l559 -442v-361z" />
<glyph unicode="=" horiz-adv-x="1228" d="M158 182v283h1007v-283h-1007zM158 559v283h1007v-283h-1007z" />
<glyph unicode="&#x3e;" horiz-adv-x="1228" d="M180 70l559 442l-559 442v361l875 -692v-222l-875 -692v361z" />
<glyph unicode="?" horiz-adv-x="1146" d="M203 1065q51 217 203.5 346t353.5 129q168 0 273.5 -104.5t105.5 -272.5q0 -150 -82 -268q-51 -72 -205 -190q-98 -78 -134 -137.5t-56 -184.5h-273q37 199 101.5 298t240.5 224q127 92 127 213q0 68 -45 110t-117 42q-162 0 -221 -205h-272zM319 0l48 262h272l-47 -262 h-273z" />
<glyph unicode="@" horiz-adv-x="1515" d="M70 602q0 256 130 479.5t351 355.5t473 132q276 0 446 -151.5t170 -428.5q0 -289 -155.5 -481.5t-388.5 -192.5q-168 0 -185 111q-96 -111 -256 -111q-125 0 -198.5 76t-73.5 207q0 236 153.5 410t360.5 174q154 0 217 -119l35 111h199l-183 -605q-8 -33 -8 -51 q0 -33 49 -33q104 0 199.5 154t95.5 336q0 203 -134 323.5t-359 120.5q-326 0 -562.5 -234.5t-236.5 -555.5q0 -223 157.5 -364.5t411.5 -141.5q172 0 332 96l72 -123q-115 -70 -208 -96.5t-220 -26.5q-309 0 -496.5 178.5t-187.5 450.5zM637 672q0 -66 35 -103t98 -37 q98 0 174 86.5t76 196.5q0 66 -32 101.5t-91 35.5q-102 0 -181 -84.5t-79 -195.5z" />
<glyph unicode="A" horiz-adv-x="1515" d="M-47 0l911 1513h221l355 -1513h-310l-90 391h-538l-240 -391h-309zM655 662h324l-78 456z" />
<glyph unicode="B" horiz-adv-x="1187" d="M78 0l280 1513h314q172 0 252 -14t139 -57q119 -88 119 -254q0 -258 -226 -363q106 -45 151.5 -110.5t45.5 -173.5q0 -236 -178 -388.5t-494 -152.5h-403zM408 270h139q319 0 319 224q0 86 -60.5 123.5t-193.5 37.5h-133zM530 930h91q274 0 274 194q0 119 -193 119h-114z " />
<glyph unicode="C" horiz-adv-x="1597" d="M127 621q0 233 132 446t349 343t453 130q233 0 403 -117.5t232 -343.5h-316q-59 102 -144 146.5t-216 44.5q-233 0 -419.5 -179.5t-186.5 -420.5q0 -186 118.5 -306t301.5 -120q111 0 202.5 40t206.5 138h330q-123 -205 -337 -327t-448 -122q-291 0 -476 183.5 t-185 464.5z" />
<glyph unicode="D" horiz-adv-x="1433" d="M78 0l280 1513h347q391 0 564 -147t173 -440q0 -227 -106.5 -440.5t-280.5 -333.5q-117 -82 -261.5 -117t-363.5 -35h-352zM408 268h61q188 0 307 39t205 127q174 180 174 428q0 197 -113.5 290t-396.5 93h-55z" />
<glyph unicode="E" horiz-adv-x="1064" d="M78 0l280 1513h813l-49 -270h-532l-68 -352h510l-49 -270h-510l-65 -351h532l-49 -270h-813z" />
<glyph unicode="F" horiz-adv-x="983" d="M78 0l280 1513h770l-49 -270h-489l-68 -352h467l-49 -270h-467l-115 -621h-280z" />
<glyph unicode="G" horiz-adv-x="1720" d="M125 614q0 238 134 453t356.5 344t468 129t432 -137t221.5 -334h-330q-123 201 -369 201q-256 0 -441 -183.5t-185 -422.5q0 -184 121.5 -302t322.5 -118q147 0 277.5 70.5t214.5 195.5h-627l49 262h987q-20 -205 -157.5 -390t-347.5 -297t-433 -112q-305 0 -499.5 180 t-194.5 461z" />
<glyph unicode="H" horiz-adv-x="1392" d="M78 0l280 1513h281l-113 -608h541l113 608h280l-280 -1513h-281l117 635h-541l-117 -635h-280z" />
<glyph unicode="I" horiz-adv-x="573" d="M78 0l280 1513h281l-281 -1513h-280z" />
<glyph unicode="J" horiz-adv-x="983" d="M16 287q0 14 4 71h281l2 -14q14 -100 113 -100q135 0 172 198l198 1071h281l-201 -1079q-43 -223 -178 -342t-315 -119q-158 0 -257.5 88.5t-99.5 225.5z" />
<glyph unicode="K" horiz-adv-x="1269" d="M78 0l280 1513h281l-121 -653l592 653h336l-705 -743l424 -770h-336l-348 666l-123 -666h-280z" />
<glyph unicode="L" horiz-adv-x="901" d="M78 0l280 1513h281l-231 -1243h464l-49 -270h-745z" />
<glyph unicode="M" horiz-adv-x="1843" d="M78 0l280 1513h385l195 -1146l616 1146h385l-280 -1513h-281l211 1135l-606 -1135h-229l-185 1135l-211 -1135h-280z" />
<glyph unicode="N" horiz-adv-x="1515" d="M78 0l280 1513h320l422 -1101l205 1101h280l-280 -1513h-314l-428 1100l-205 -1100h-280z" />
<glyph unicode="O" horiz-adv-x="1720" d="M125 614q0 242 137 458t359.5 342t461.5 126q283 0 465.5 -180t182.5 -461q0 -240 -130.5 -454t-348.5 -343t-461 -129q-291 0 -478.5 180t-187.5 461zM412 662q0 -182 120.5 -300t307.5 -118q238 0 421 183t183 431q0 180 -117 296t-299 116q-240 0 -428 -185t-188 -423 z" />
<glyph unicode="P" horiz-adv-x="1146" d="M78 0l280 1513h375q274 0 373 -69q141 -100 141 -293q0 -117 -49 -234.5t-131 -195.5q-94 -88 -194.5 -117t-317.5 -29h-90l-107 -575h-280zM514 844h82q176 0 270.5 55t94.5 184q0 90 -54.5 125t-222.5 35h-94z" />
<glyph unicode="Q" horiz-adv-x="1720" d="M125 612q0 242 134 457t356.5 343t471.5 128q299 0 485.5 -174t186.5 -455q0 -397 -286 -647q70 -45 141 -45q20 0 61 6l-47 -254q-20 -2 -49 -2q-96 0 -162.5 24.5t-161.5 98.5q-217 -119 -446 -119q-295 0 -489.5 182.5t-194.5 456.5zM410 684q100 27 252 27 q354 0 616 -293q90 74 142.5 190.5t52.5 247.5q0 184 -121 299t-316 115q-240 0 -423 -166t-203 -420zM455 465q127 -221 401 -221q96 0 197 39q-199 199 -449 198q-61 0 -149 -16z" />
<glyph unicode="R" horiz-adv-x="1187" d="M78 0l280 1513h437q489 0 489 -380q0 -213 -126 -365t-361 -209l305 -559h-346l-291 580l-107 -580h-280zM506 791h137q186 0 270 76.5t84 199.5q0 94 -60 135t-222 41h-125z" />
<glyph unicode="S" horiz-adv-x="1064" d="M39 350q0 16 4 82h293q-2 -16 -2 -43q0 -68 46 -106.5t128 -38.5q102 0 174 64.5t72 156.5q0 78 -45 117q-31 25 -66 42t-176 74q-248 98 -248 338q0 199 159 351.5t363 152.5q164 0 273.5 -95t109.5 -239q0 -45 -8 -96h-289q0 90 -31.5 125t-103.5 35q-78 0 -132 -55.5 t-54 -131.5q0 -59 61 -104q31 -23 156 -68q170 -63 243.5 -149t73.5 -219q0 -223 -176 -396.5t-401 -173.5q-190 0 -307 105.5t-117 271.5z" />
<glyph unicode="T" horiz-adv-x="860" d="M182 1243l49 270h844l-49 -270h-285l-231 -1243h-281l232 1243h-279z" />
<glyph unicode="U" d="M162 360q0 90 20 195l176 958h281l-176 -958q-18 -98 -19 -143q0 -70 55.5 -119t133.5 -49q231 0 291 311l176 958h280l-176 -958q-51 -279 -220 -430.5t-400 -151.5q-182 0 -302 109.5t-120 277.5z" />
<glyph unicode="V" horiz-adv-x="1433" d="M236 1513h294l195 -1151l621 1151h294l-866 -1513h-229z" />
<glyph unicode="W" horiz-adv-x="1843" d="M233 1513h287l70 -1056l454 1056h205l58 -1056l465 1056h286l-723 -1513h-223l-57 1001l-437 -1001h-221z" />
<glyph unicode="X" horiz-adv-x="1392" d="M-51 0l659 754l-379 759h334l254 -528l461 528h326l-666 -759l385 -754h-326l-266 522l-448 -522h-334z" />
<glyph unicode="Y" horiz-adv-x="1269" d="M225 1513h303l205 -696l465 696h303l-674 -954l-104 -559h-281l105 559z" />
<glyph unicode="Z" horiz-adv-x="1024" d="M-25 0l43 240l762 1003h-542l49 270h876l-47 -253l-754 -990h609l-49 -270h-947z" />
<glyph unicode="[" horiz-adv-x="655" d="M143 150q0 109 23 233l98 530q41 236 183.5 390.5t369.5 209.5l-55 -301q-104 -39 -152.5 -114.5t-79.5 -239.5l-98 -522q-10 -61 -10 -115q0 -82 25.5 -125t93.5 -76l-56 -301q-162 39 -252 155t-90 276z" />
<glyph unicode="\" d="M391 1513h197l381 -1513h-197z" />
<glyph unicode="]" horiz-adv-x="655" d="M-35 -281l55 301q106 35 156.5 111t83.5 244l98 522q10 61 11 115q0 84 -27 126t-100 74l55 301q166 -31 258 -148.5t92 -281.5q0 -109 -22 -233l-99 -531q-45 -242 -187.5 -395.5t-373.5 -204.5z" />
<glyph unicode="^" horiz-adv-x="1228" d="M205 776l502 760h247l234 -803l-236 -67l-170 553l-376 -555z" />
<glyph unicode="_" horiz-adv-x="1024" d="M-115 -283l33 185h1026l-33 -185h-1026z" />
<glyph unicode="`" horiz-adv-x="860" d="M262 1473l172 202l387 -260l-149 -180z" />
<glyph unicode="a" horiz-adv-x="1351" d="M92 436q0 297 209 511t498 214q238 0 334 -178l26 152h250l-209 -1135h-250l27 147q-182 -174 -410 -174q-215 0 -345 127t-130 336zM373 492q0 -123 74.5 -196t201.5 -73q170 0 287 120t117 298q0 125 -74 197.5t-201 72.5q-164 0 -284.5 -125.5t-120.5 -293.5z" />
<glyph unicode="b" horiz-adv-x="1351" d="M49 0l281 1513h272l-90 -483q98 80 184 113t205 33q201 0 331 -133.5t130 -340.5q0 -297 -204 -513t-464 -216q-129 0 -207.5 36t-160.5 136l-27 -145h-250zM403 494q0 -121 77 -196t200 -75q164 0 282.5 124t118.5 296q0 129 -73.5 206t-198.5 77q-168 0 -287 -127 t-119 -305z" />
<glyph unicode="c" d="M96 457q0 279 217 491.5t500 212.5q195 0 329 -103.5t169 -301.5h-307q-47 156 -232 155q-162 0 -278.5 -120.5t-116.5 -288.5q0 -127 73.5 -203t194.5 -76q176 0 287 150h307q-109 -193 -273.5 -296.5t-363.5 -103.5q-217 0 -361.5 138.5t-144.5 345.5z" />
<glyph unicode="d" horiz-adv-x="1351" d="M94 451q0 289 210 507t487 218q104 0 191 -38t132 -104l88 479h273l-281 -1513h-250l29 147q-186 -174 -408 -174q-213 0 -342 131.5t-129 346.5zM375 508q0 -127 78.5 -206t203.5 -79q156 0 278 128t122 292q0 127 -75 205t-198 78q-166 0 -287.5 -124t-121.5 -294z" />
<glyph unicode="e" d="M94 457q0 279 218 491.5t503 212.5q213 0 349 -129t136 -332q0 -156 -40 -254h-879q0 -98 74.5 -160.5t191.5 -62.5q164 0 277 113h297q-92 -168 -256 -265.5t-357 -97.5q-227 0 -370.5 135.5t-143.5 348.5zM418 688h629q-12 223 -275 223q-119 0 -217 -61.5t-137 -161.5 z" />
<glyph unicode="f" horiz-adv-x="573" d="M55 0l164 887h-98l43 227h98q53 203 171 301t272 98q35 0 79 -4l-49 -258h-37q-145 0 -163 -137h159l-43 -227h-159l-164 -887h-273z" />
<glyph unicode="g" horiz-adv-x="1351" d="M0 -92h309q47 -66 107.5 -93.5t156.5 -27.5q150 0 243 86t142 277q-98 -94 -190 -135.5t-213 -41.5q-211 0 -336 128t-125 343q0 293 204 505t482 212q119 0 198 -40t136 -130l27 144h260l-170 -920q-123 -668 -715 -668q-418 1 -516 361zM375 477q0 -119 69.5 -186.5 t192.5 -67.5q170 0 282.5 125t112.5 297q0 121 -73.5 193.5t-194.5 72.5q-170 0 -279.5 -123t-109.5 -311z" />
<glyph unicode="h" horiz-adv-x="1228" d="M49 0l281 1513h272l-84 -456q127 106 305 106q168 0 269.5 -89t101.5 -238q0 -90 -20 -195l-119 -641h-273l107 580q18 98 18 165q0 80 -47 124t-131 44q-121 0 -193.5 -75.5t-107.5 -262.5l-106 -575h-273z" />
<glyph unicode="i" horiz-adv-x="491" d="M49 0l211 1135h272l-210 -1135h-273zM291 1298l51 271h272l-51 -271h-272z" />
<glyph unicode="j" horiz-adv-x="532" d="M-96 -379l49 264q78 14 103.5 49t45.5 148l195 1053h272l-196 -1059q-35 -211 -158 -331t-311 -124zM328 1298l51 271h272l-51 -271h-272z" />
<glyph unicode="k" horiz-adv-x="1187" d="M49 0l281 1513h272l-170 -913l461 535h326l-508 -555l364 -580h-366l-289 530l-98 -530h-273z" />
<glyph unicode="l" horiz-adv-x="491" d="M49 0l281 1513h272l-280 -1513h-273z" />
<glyph unicode="m" horiz-adv-x="1925" d="M49 0l211 1135h250l-21 -107q133 133 324 133q223 0 297 -176q158 176 399 176q180 0 279.5 -89t99.5 -249q0 -74 -16 -168l-121 -655h-272l114 623q14 90 15 137q0 66 -47.5 108.5t-122.5 42.5q-121 0 -189.5 -73.5t-107.5 -278.5l-105 -559h-272l115 623q14 82 14 112 q0 176 -180 176q-121 0 -185.5 -74.5t-101.5 -277.5l-104 -559h-273z" />
<glyph unicode="n" horiz-adv-x="1228" d="M49 0l211 1135h252l-20 -109q94 76 168.5 105.5t168.5 29.5q176 0 270.5 -87t94.5 -249q0 -82 -25 -217l-112 -608h-273l103 555q18 102 18 188q0 168 -172 168q-121 0 -196.5 -78.5t-116.5 -297.5l-98 -535h-273z" />
<glyph unicode="o" d="M94 453q0 281 219 494.5t508 213.5q217 0 358.5 -139t141.5 -352q0 -274 -221 -485.5t-510 -211.5q-211 0 -353.5 137.5t-142.5 342.5zM375 500q0 -119 76.5 -198t193.5 -79q154 0 274.5 126t120.5 284q0 121 -75.5 199.5t-190.5 78.5q-156 0 -277.5 -124.5 t-121.5 -286.5z" />
<glyph unicode="p" horiz-adv-x="1351" d="M-20 -379l280 1514h250l-25 -134q72 76 178.5 118t221.5 42q207 0 338 -124t131 -332q0 -301 -202 -516.5t-486 -215.5q-203 0 -324 133l-90 -485h-272zM403 494q0 -117 79 -194t200 -77q152 0 271.5 126t119.5 284q0 119 -72.5 198.5t-195.5 79.5q-162 0 -282 -124.5 t-120 -292.5z" />
<glyph unicode="q" horiz-adv-x="1351" d="M96 457q0 279 210 491.5t485 212.5q246 0 331 -172l29 146h250l-281 -1514h-272l90 488q-154 -135 -373 -136q-209 0 -339 134.5t-130 349.5zM377 498q0 -127 72.5 -201t197.5 -74q158 0 277.5 122t119.5 284q0 127 -72.5 204.5t-193.5 77.5q-164 0 -282.5 -122.5 t-118.5 -290.5z" />
<glyph unicode="r" horiz-adv-x="655" d="M49 0l211 1135h250l-21 -111q66 80 129 110q59 28 152 27h12l-49 -262q-121 -2 -199.5 -73.5t-95.5 -194.5l-116 -631h-273z" />
<glyph unicode="s" horiz-adv-x="901" d="M39 281q0 18 4 79h274q4 -137 127 -137q59 0 102.5 39t43.5 92q0 41 -32 64.5t-136 60.5q-150 51 -204 110.5t-54 168.5q0 164 134 283.5t316 119.5q125 0 218.5 -77.5t93.5 -184.5q0 -31 -6 -78h-267q-4 90 -90 90q-47 0 -83 -33.5t-36 -78.5q0 -35 25 -52.5t143 -54.5 q145 -47 201.5 -104.5t56.5 -159.5q0 -180 -146 -317.5t-339 -137.5q-154 0 -250 85.5t-96 222.5z" />
<glyph unicode="t" horiz-adv-x="614" d="M90 0l164 887h-133l47 248h133l70 378h272l-70 -378h164l-47 -248h-164l-164 -887h-272z" />
<glyph unicode="u" horiz-adv-x="1228" d="M119 311q0 82 24 215l113 609h272l-102 -555q-21 -107 -21 -183q0 -7 1 -14q0 -76 45 -118t122 -42q135 0 210 77t116 300l98 535h273l-211 -1135h-252l20 109q-164 -135 -356 -136q-166 0 -259 95.5t-93 242.5z" />
<glyph unicode="v" horiz-adv-x="1146" d="M152 1135h303l123 -752l397 752h307l-668 -1135h-217z" />
<glyph unicode="w" horiz-adv-x="1638" d="M170 1135h293l74 -693l319 693h217l57 -693l336 693h291l-620 -1135h-170l-78 735l-357 -735h-167z" />
<glyph unicode="x" horiz-adv-x="1146" d="M-59 0l512 586l-246 549h307l141 -342l265 342h307l-449 -549l295 -586h-328l-165 389l-312 -389h-327z" />
<glyph unicode="y" horiz-adv-x="1187" d="M88 -379l299 485l-225 1029h311l115 -736l411 736h314l-932 -1514h-293z" />
<glyph unicode="z" horiz-adv-x="942" d="M-20 0l45 242l624 651h-444l45 242h770l-45 -242l-623 -651h539l-45 -242h-866z" />
<glyph unicode="{" horiz-adv-x="696" d="M131 543l31 166q94 20 137 65t57 135l60 322q27 150 111.5 217.5t246.5 67.5q35 0 64 -3l-31 -163q-82 -10 -117 -30t-49 -69l-27 -110l-47 -252q-35 -223 -213 -258l-20 -6q78 -16 111.5 -55.5t33.5 -112.5q0 -55 -8 -95l-47 -251q-14 -76 -14 -86l-7 -37l7 -31 q10 -45 129 -55l-31 -164q-29 -2 -66 -2q-135 0 -197.5 47t-62.5 147q0 43 11 90l59 322q8 57 8 70q0 104 -129 131z" />
<glyph unicode="|" horiz-adv-x="1228" d="M520 -281v1794h283v-1794h-283z" />
<glyph unicode="}" horiz-adv-x="696" d="M-33 -262l31 164l14 2q100 12 123 37.5t55 169.5l48 251q20 117 71 177.5t144 81.5l18 6q-80 20 -112.5 59t-32.5 115q0 49 8 88l47 252q18 100 20 114q0 47 -25.5 64.5t-109.5 30.5l31 163q31 2 68 3q133 0 195.5 -47.5t62.5 -147.5q0 -18 -11 -90l-59 -322 q-6 -33 -6 -67q0 -53 33.5 -89t95.5 -44l-31 -166q-86 -14 -133 -62.5t-63 -138.5l-60 -322q-29 -156 -112.5 -220t-243.5 -64q-37 0 -66 2z" />
<glyph unicode="~" horiz-adv-x="1228" d="M154 592q111 143 183.5 197.5t168.5 54.5q68 0 147 -33l129 -55l73 -30.5t36 -13.5t27 -1q74 0 186 151l102 -151q-102 -129 -180 -184.5t-158 -55.5q-70 0 -180 49l-102 45q-94 41 -123 41q-53 0 -105 -45q-20 -18 -104 -123z" />
<glyph unicode="&#xa1;" horiz-adv-x="573" d="M23 -379l208 1129h273l-209 -1129h-272zM254 872l49 263h272l-49 -263h-272z" />
<glyph unicode="&#xa2;" horiz-adv-x="1146" d="M156 682q0 199 130 359.5t330 209.5l41 213h256l-41 -213q125 -29 201 -123t80 -221h-291q-16 39 -65 66.5t-101 27.5q-106 0 -183 -79.5t-77 -188.5q0 -82 50.5 -131t134.5 -49q47 0 83.5 16.5t100.5 65.5h299q-84 -141 -178.5 -218t-227.5 -114l-43 -223h-256l43 223 q-137 31 -211.5 135.5t-74.5 243.5z" />
<glyph unicode="&#xa3;" horiz-adv-x="1146" d="M20 0l48 256h286q70 94 70 203q0 92 -78 176h-291l49 256h119q-12 39 -12 80q0 223 177 396t407 173q174 0 289.5 -105.5t115.5 -263.5q0 -6 -4 -63h-276q0 86 -48.5 134t-113.5 48q-104 0 -185 -88t-81 -201q0 -61 24 -110h424l-49 -256h-219q31 -84 30 -156 q0 -94 -59 -223h21q233 0 239 305h271q6 -43 6 -63q0 -78 -51.5 -178.5t-124.5 -169.5q-90 -84 -189.5 -117t-259.5 -33h-535z" />
<glyph unicode="&#xa4;" horiz-adv-x="1146" d="M80 469l104 88q-37 80 -37 152q0 207 136 374l-72 93l195 163l75 -90q133 74 275 74q143 0 258 -74l108 90l127 -168l-102 -88q35 -90 35 -170q0 -102 -27 -176.5t-106 -179.5l69 -88l-188 -166l-76 86q-135 -76 -291 -76q-127 0 -246 76l-104 -86zM399 760 q0 -80 64.5 -140.5t148.5 -60.5q125 0 221.5 93t96.5 212q0 90 -61.5 150.5t-149.5 60.5q-121 0 -220.5 -90t-99.5 -225z" />
<glyph unicode="&#xa5;" horiz-adv-x="1146" d="M43 383l33 178h397l-74 217h-295l33 178h199l-184 557h305l198 -698l455 698h315l-391 -557h195l-33 -178h-295l-156 -217h394l-33 -178h-393l-72 -383h-272l71 383h-397z" />
<glyph unicode="&#xa6;" horiz-adv-x="1228" d="M520 -281v717h283v-717h-283zM520 797v716h283v-716h-283z" />
<glyph unicode="&#xa7;" horiz-adv-x="1146" d="M78 18q0 39 6 95h272q-8 -33 -8 -64q0 -51 52.5 -86t127.5 -35q84 0 144.5 46t60.5 112q0 33 -23.5 55.5t-103.5 69.5l-303 172q-84 47 -120 105.5t-36 146.5q0 236 226 375q-29 57 -29 127q0 172 139.5 287.5t345.5 115.5q168 0 261.5 -86t93.5 -242q0 -35 -2 -59h-258 q-6 78 -41 107.5t-117 29.5q-74 0 -117 -31.5t-43 -89.5q0 -66 101 -120l305 -166q135 -72 135 -226q0 -96 -47 -177t-168 -173q63 -70 63 -178q0 -180 -152.5 -315.5t-369.5 -135.5q-182 0 -288.5 98.5t-106.5 241.5zM393 725l2 -25q6 -53 103 -104l282 -156 q104 74 105 146q0 31 -20.5 51t-86.5 57l-276 152q-109 -70 -109 -121z" />
<glyph unicode="&#xa8;" horiz-adv-x="1024" d="M328 1298l51 271h272l-51 -271h-272zM758 1298l51 271h272l-51 -271h-272z" />
<glyph unicode="&#xa9;" horiz-adv-x="1515" d="M88 690q0 297 210 507t507 210t507 -210t210 -507t-210 -507t-507 -210t-507 210t-210 507zM211 690q0 -246 174 -420t420 -174t420 174t174 420t-174 420t-420 174t-420 -174t-174 -420zM344 616q-4 190 162 343t377 153q145 0 249.5 -71.5t135.5 -206.5h-217 q-59 96 -197 96q-121 0 -216 -83t-93 -196q2 -88 64.5 -144t158.5 -56q106 0 221 92h221q-66 -123 -195.5 -199t-277.5 -76q-170 0 -279.5 99t-113.5 249z" />
<glyph unicode="&#xaa;" horiz-adv-x="737" d="M123 639l27 143h645l-27 -143h-645zM221 1147q0 156 115 274.5t260 118.5q113 0 174 -102l16 80h136l-115 -611h-135l16 84q-98 -104 -229 -104q-106 0 -172 74.5t-66 185.5zM383 1180q0 -61 38 -102.5t95 -41.5q82 0 143.5 65.5t61.5 153.5q0 57 -40 96.5t-97 39.5 q-76 0 -138.5 -65.5t-62.5 -145.5z" />
<glyph unicode="&#xab;" horiz-adv-x="942" d="M113 489l39 205l333 267l-47 -252l-159 -117l116 -119l-47 -252zM549 489l39 205l334 267l-48 -252l-159 -117l116 -119l-47 -252z" />
<glyph unicode="&#xac;" horiz-adv-x="1228" d="M158 559v283h1007v-518h-282v235h-725z" />
<glyph unicode="&#xad;" horiz-adv-x="860" d="M188 469l45 242h568l-45 -242h-568z" />
<glyph unicode="&#xae;" horiz-adv-x="1515" d="M88 690q0 297 210 507t507 210t507 -210t210 -507t-210 -507t-507 -210t-507 210t-210 507zM211 690q0 -246 174 -420t420 -174t420 174t174 420t-174 420t-420 174t-420 -174t-174 -420zM451 283l151 817h264q287 0 295 -213q2 -111 -63.5 -192t-190.5 -117l183 -295 h-248l-148 258l-47 -258h-196zM731 729h57q176 0 173 115q0 41 -32 57.5t-112 16.5h-51z" />
<glyph unicode="&#xaf;" horiz-adv-x="860" d="M332 1333l35 203h573l-37 -203h-571z" />
<glyph unicode="&#xb0;" horiz-adv-x="819" d="M260 1100q0 127 92 216t226 89q127 0 217 -90t90 -217t-91.5 -217t-222.5 -90q-129 0 -220 90t-91 219zM377 1100q0 -80 57.5 -136.5t136.5 -56.5q82 0 139.5 56.5t57.5 134.5t-57.5 134t-135.5 56q-82 0 -140 -55t-58 -133z" />
<glyph unicode="&#xb1;" horiz-adv-x="1228" d="M158 0v283h1007v-283h-1007zM158 653v283h362v362h283v-362h362v-283h-362v-116h-283v116h-362z" />
<glyph unicode="&#xb2;" horiz-adv-x="688" d="M82 606l31 154l395 301q143 109 143 199q0 49 -28.5 76.5t-79.5 27.5q-131 0 -176 -174h-183q35 168 138.5 253t250.5 85q117 0 192 -66.5t75 -171.5q0 -195 -246 -366l-213 -150h364l-30 -168h-633z" />
<glyph unicode="&#xb3;" horiz-adv-x="688" d="M106 842q0 6 5 51h186v-16q0 -55 32.5 -89t86.5 -34q72 0 126 50t54 116q0 61 -45 87.5t-156 26.5l33 172q172 0 172 99q0 59 -70 59q-72 0 -88 -80h-188q29 113 109.5 178.5t193.5 65.5q102 0 166.5 -58.5t64.5 -148.5q0 -117 -114 -193q111 -57 110 -176 q0 -145 -118.5 -253.5t-280.5 -108.5q-121 0 -200 71.5t-79 180.5z" />
<glyph unicode="&#xb4;" horiz-adv-x="860" d="M440 1415l484 260l96 -202l-498 -238z" />
<glyph unicode="&#xb5;" horiz-adv-x="1179" d="M-20 -379l280 1514h272l-106 -570q-8 -41 -8 -76q0 -117 60.5 -191.5t154.5 -74.5q117 0 188 105q27 41 39 85t39 187l98 535h273l-211 -1135h-252l20 109q-119 -135 -258 -136q-141 0 -227 133l-90 -485h-272z" />
<glyph unicode="&#xb6;" horiz-adv-x="1228" d="M211 1001q0 106 47 209t125 172q82 72 189.5 101.5t279.5 29.5h446l-329 -1775h-209l289 1556h-170l-289 -1556h-207l174 938q-168 8 -257 91.5t-89 233.5z" />
<glyph unicode="&#xb7;" horiz-adv-x="573" d="M203 512q0 53 39 92t92 39t92 -39t39 -92t-39 -92t-92 -39t-92 39t-39 92z" />
<glyph unicode="&#xb8;" horiz-adv-x="696" d="M27 -340h125q14 -59 65 -59q37 0 68.5 33.5t31.5 74.5q0 31 -18 52.5t-47 21.5q-39 0 -88 -55l-96 53l135 229h106l-86 -129q41 14 62 15q66 0 108.5 -47.5t42.5 -118.5q0 -12 -4 -41q-16 -90 -80.5 -145.5t-152.5 -55.5q-80 0 -126 47t-46 125z" />
<glyph unicode="&#xb9;" horiz-adv-x="688" d="M367 606l137 740h-137l30 167h316l-168 -907h-178z" />
<glyph unicode="&#xba;" horiz-adv-x="737" d="M123 641l27 143h628l-26 -143h-629zM221 1165q0 150 116 262.5t267 112.5q117 0 187.5 -71.5t70.5 -188.5q0 -145 -114.5 -258t-264.5 -113q-109 0 -185.5 75t-76.5 181zM373 1192q0 -59 39 -96t100 -37q78 0 138.5 59.5t60.5 134.5q0 61 -39 102.5t-97 41.5 q-80 0 -141 -62.5t-61 -142.5z" />
<glyph unicode="&#xbb;" horiz-adv-x="942" d="M139 221l47 252l162 119l-119 117l47 252l236 -267l-39 -205zM575 221l48 252l161 119l-118 117l47 252l235 -267l-39 -205z" />
<glyph unicode="&#xbc;" horiz-adv-x="1720" d="M367 0l907 1513h194l-907 -1513h-194zM367 606l137 740h-137l30 167h316l-168 -907h-178zM979 133l27 139l553 635h155l-115 -616h99l-29 -158h-98l-25 -133h-186l24 133h-405zM1204 291h209l57 311z" />
<glyph unicode="&#xbd;" horiz-adv-x="1720" d="M358 0l908 1513h194l-907 -1513h-195zM377 606l137 740h-137l31 167h315l-168 -907h-178zM1001 0l31 154l395 301q143 109 144 198q0 49 -29 77t-80 28q-131 0 -176 -174h-182q35 168 138.5 253t250.5 85q117 0 191.5 -67t74.5 -171q0 -195 -246 -367l-213 -149h365 l-31 -168h-633z" />
<glyph unicode="&#xbe;" horiz-adv-x="1720" d="M106 842q0 6 5 51h186v-16q0 -55 32.5 -89t86.5 -34q72 0 126 50t54 116q0 61 -45 87.5t-156 26.5l33 172q172 0 172 99q0 59 -70 59q-72 0 -88 -80h-188q29 113 109.5 178.5t193.5 65.5q102 0 166.5 -58.5t64.5 -148.5q0 -117 -114 -193q111 -57 110 -176 q0 -145 -118.5 -253.5t-280.5 -108.5q-121 0 -200 71.5t-79 180.5zM432 0l907 1513h195l-907 -1513h-195zM979 133l27 139l553 635h155l-115 -616h99l-29 -158h-98l-25 -133h-186l24 133h-405zM1204 291h209l57 311z" />
<glyph unicode="&#xbf;" horiz-adv-x="1146" d="M96 -29q0 150 82 269q51 72 205 190q98 78 134 137.5t56 184.5h273q-37 -199 -101.5 -298.5t-240.5 -224.5q-127 -92 -127 -213q0 -68 45 -109.5t117 -41.5q162 0 221 205h272q-51 -217 -203.5 -346.5t-353.5 -129.5q-168 0 -273.5 104.5t-105.5 272.5zM596 872l47 263 h272l-47 -263h-272z" />
<glyph unicode="&#xc0;" horiz-adv-x="1515" d="M-47 0l911 1513h221l355 -1513h-310l-90 391h-538l-240 -391h-309zM653 1831l172 203l387 -260l-149 -181zM655 662h324l-78 456z" />
<glyph unicode="&#xc1;" horiz-adv-x="1515" d="M-47 0l911 1513h221l355 -1513h-310l-90 391h-538l-240 -391h-309zM655 662h324l-78 456zM834 1774l483 260l96 -203l-498 -238z" />
<glyph unicode="&#xc2;" horiz-adv-x="1515" d="M-47 0l911 1513h221l355 -1513h-310l-90 391h-538l-240 -391h-309zM592 1651l354 282h219l244 -282h-297l-84 131l-135 -131h-301zM655 662h324l-78 456z" />
<glyph unicode="&#xc3;" horiz-adv-x="1515" d="M-47 0l911 1513h221l355 -1513h-310l-90 391h-538l-240 -391h-309zM655 662h324l-78 456zM690 1827q41 43 97.5 70.5t101.5 27.5q25 0 115 -31.5t110 -31.5q43 0 69.5 11t96.5 60l70 -168q-92 -115 -222 -114q-14 0 -122.5 31.5t-124.5 31.5q-41 0 -113 -61z" />
<glyph unicode="&#xc4;" horiz-adv-x="1515" d="M-47 0l911 1513h221l355 -1513h-310l-90 391h-538l-240 -391h-309zM637 1657l51 270h273l-52 -270h-272zM655 662h324l-78 456zM1067 1657l51 270h273l-52 -270h-272z" />
<glyph unicode="&#xc5;" horiz-adv-x="1515" d="M-47 0l911 1513h221l355 -1513h-310l-90 391h-538l-240 -391h-309zM655 662h324l-78 456zM795 1774q0 111 85 193.5t195 82.5q82 0 137.5 -53t55.5 -133q0 -111 -85 -194t-198 -83q-84 0 -137 52.5t-53 134.5zM948 1800q0 -25 20.5 -44t49.5 -19q37 0 66.5 29.5 t29.5 66.5q0 27 -20.5 47.5t-46.5 20.5q-39 0 -69 -31t-30 -70z" />
<glyph unicode="&#xc6;" horiz-adv-x="1843" d="M-27 0l1278 1513h695l-50 -270h-446l-68 -352h424l-49 -270h-424l-65 -351h446l-49 -270h-727l72 391h-398l-303 -391h-336zM825 662h236l72 389z" />
<glyph unicode="&#xc7;" horiz-adv-x="1597" d="M127 621q0 233 132 446t349 343t453 130q233 0 403 -117.5t232 -343.5h-316q-59 102 -144 146.5t-216 44.5q-233 0 -419.5 -179.5t-186.5 -420.5q0 -186 118.5 -306t301.5 -120q111 0 202.5 40t206.5 138h330q-117 -193 -315.5 -313.5t-419.5 -133.5l-62 -94q41 14 62 15 q66 0 108.5 -47.5t42.5 -118.5q0 -12 -4 -41q-16 -90 -80.5 -145.5t-152.5 -55.5q-80 0 -126 47t-46 125h125q14 -59 65 -59q37 0 68.5 33.5t31.5 74.5q0 31 -18 52.5t-47 21.5q-39 0 -88 -55l-96 53l114 194q-270 18 -439 199t-169 447z" />
<glyph unicode="&#xc8;" horiz-adv-x="1064" d="M78 0l280 1513h813l-49 -270h-532l-68 -352h510l-49 -270h-510l-65 -351h532l-49 -270h-813zM444 1831l172 203l388 -260l-150 -181z" />
<glyph unicode="&#xc9;" horiz-adv-x="1064" d="M78 0l280 1513h813l-49 -270h-532l-68 -352h510l-49 -270h-510l-65 -351h532l-49 -270h-813zM625 1774l483 260l96 -203l-497 -238z" />
<glyph unicode="&#xca;" horiz-adv-x="1064" d="M78 0l280 1513h813l-49 -270h-532l-68 -352h510l-49 -270h-510l-65 -351h532l-49 -270h-813zM383 1651l354 282h219l244 -282h-297l-84 131l-135 -131h-301z" />
<glyph unicode="&#xcb;" horiz-adv-x="1064" d="M78 0l280 1513h813l-49 -270h-532l-68 -352h510l-49 -270h-510l-65 -351h532l-49 -270h-813zM428 1657l51 270h273l-52 -270h-272zM858 1657l51 270h273l-52 -270h-272z" />
<glyph unicode="&#xcc;" horiz-adv-x="573" d="M78 0l280 1513h281l-281 -1513h-280zM244 1831l172 203l387 -260l-150 -181z" />
<glyph unicode="&#xcd;" horiz-adv-x="573" d="M78 0l280 1513h281l-281 -1513h-280zM293 1774l483 260l96 -203l-497 -238z" />
<glyph unicode="&#xce;" horiz-adv-x="573" d="M78 0l280 1513h281l-281 -1513h-280zM117 1651l354 282h219l244 -282h-297l-84 131l-135 -131h-301z" />
<glyph unicode="&#xcf;" horiz-adv-x="573" d="M78 0l280 1513h281l-281 -1513h-280zM162 1657l51 270h272l-51 -270h-272zM592 1657l51 270h272l-51 -270h-272z" />
<glyph unicode="&#xd0;" horiz-adv-x="1519" d="M88 657l41 220h193l118 636h346q395 0 568.5 -147t173.5 -432q0 -240 -104.5 -449t-286.5 -333q-121 -82 -264.5 -117t-360.5 -35h-352l121 657h-193zM489 268h62q188 0 310 39t206 127q80 82 127 199t47 235q0 193 -116.5 285t-399.5 92h-55l-68 -368h305l-41 -220h-305 z" />
<glyph unicode="&#xd1;" horiz-adv-x="1515" d="M78 0l280 1513h320l422 -1101l205 1101h280l-280 -1513h-314l-428 1100l-205 -1100h-280zM688 1827q41 43 97.5 70.5t101.5 27.5q27 0 117 -31.5t108 -31.5q43 0 69.5 11t96.5 60l70 -168q-92 -115 -222 -114q-14 0 -122.5 31.5t-124.5 31.5q-41 0 -113 -61z" />
<glyph unicode="&#xd2;" horiz-adv-x="1720" d="M125 614q0 242 137 458t359.5 342t461.5 126q283 0 465.5 -180t182.5 -461q0 -240 -130.5 -454t-348.5 -343t-461 -129q-291 0 -478.5 180t-187.5 461zM412 662q0 -182 120.5 -300t307.5 -118q238 0 421 183t183 431q0 180 -117 296t-299 116q-240 0 -428 -185t-188 -423 zM758 1831l172 203l387 -260l-150 -181z" />
<glyph unicode="&#xd3;" horiz-adv-x="1720" d="M125 614q0 242 137 458t359.5 342t461.5 126q283 0 465.5 -180t182.5 -461q0 -240 -130.5 -454t-348.5 -343t-461 -129q-291 0 -478.5 180t-187.5 461zM412 662q0 -182 120.5 -300t307.5 -118q238 0 421 183t183 431q0 180 -117 296t-299 116q-240 0 -428 -185t-188 -423 zM938 1774l483 260l97 -203l-498 -238z" />
<glyph unicode="&#xd4;" horiz-adv-x="1720" d="M125 614q0 242 137 458t359.5 342t461.5 126q283 0 465.5 -180t182.5 -461q0 -240 -130.5 -454t-348.5 -343t-461 -129q-291 0 -478.5 180t-187.5 461zM412 662q0 -182 120.5 -300t307.5 -118q238 0 421 183t183 431q0 180 -117 296t-299 116q-240 0 -428 -185t-188 -423 zM696 1651l355 282h219l243 -282h-296l-84 131l-136 -131h-301z" />
<glyph unicode="&#xd5;" horiz-adv-x="1720" d="M125 614q0 242 137 458t359.5 342t461.5 126q283 0 465.5 -180t182.5 -461q0 -240 -130.5 -454t-348.5 -343t-461 -129q-291 0 -478.5 180t-187.5 461zM412 662q0 -182 120.5 -300t307.5 -118q238 0 421 183t183 431q0 180 -117 296t-299 116q-240 0 -428 -185t-188 -423 zM795 1827q41 43 97 70.5t101 27.5q27 0 117 -31.5t109 -31.5q43 0 69.5 11t95.5 60l70 -168q-92 -115 -221 -114q-14 0 -123 31.5t-125 31.5q-41 0 -113 -61z" />
<glyph unicode="&#xd6;" horiz-adv-x="1720" d="M125 614q0 242 137 458t359.5 342t461.5 126q283 0 465.5 -180t182.5 -461q0 -240 -130.5 -454t-348.5 -343t-461 -129q-291 0 -478.5 180t-187.5 461zM412 662q0 -182 120.5 -300t307.5 -118q238 0 421 183t183 431q0 180 -117 296t-299 116q-240 0 -428 -185t-188 -423 zM741 1657l52 270h272l-51 -270h-273zM1171 1657l52 270h272l-51 -270h-273z" />
<glyph unicode="&#xd7;" horiz-adv-x="1228" d="M205 256l256 256l-256 256l201 201l256 -256l256 256l200 -201l-256 -256l256 -256l-200 -201l-256 256l-256 -256z" />
<glyph unicode="&#xd8;" horiz-adv-x="1720" d="M125 -23l170 201q-160 186 -160 430q0 240 132 456t350.5 346t459.5 130q166 0 324 -67l188 219l166 -142l-180 -209q168 -162 168 -444q0 -225 -128 -439t-347 -349.5t-463 -135.5q-168 0 -336 74l-180 -211zM422 659q0 -115 74 -247l706 829q-84 29 -170 29 q-240 0 -425 -185.5t-185 -425.5zM666 279q88 -35 182 -35q244 0 426 182t182 424q0 160 -78 260z" />
<glyph unicode="&#xd9;" d="M162 360q0 90 20 195l176 958h281l-176 -958q-18 -98 -19 -143q0 -70 55.5 -119t133.5 -49q231 0 291 311l176 958h280l-176 -958q-51 -279 -220 -430.5t-400 -151.5q-182 0 -302 109.5t-120 277.5zM549 1831l172 203l387 -260l-150 -181z" />
<glyph unicode="&#xda;" d="M162 360q0 90 20 195l176 958h281l-176 -958q-18 -98 -19 -143q0 -70 55.5 -119t133.5 -49q231 0 291 311l176 958h280l-176 -958q-51 -279 -220 -430.5t-400 -151.5q-182 0 -302 109.5t-120 277.5zM729 1774l483 260l97 -203l-498 -238z" />
<glyph unicode="&#xdb;" d="M162 360q0 90 20 195l176 958h281l-176 -958q-18 -98 -19 -143q0 -70 55.5 -119t133.5 -49q231 0 291 311l176 958h280l-176 -958q-51 -279 -220 -430.5t-400 -151.5q-182 0 -302 109.5t-120 277.5zM487 1651l355 282h219l244 -282h-297l-84 131l-136 -131h-301z" />
<glyph unicode="&#xdc;" d="M162 360q0 90 20 195l176 958h281l-176 -958q-18 -98 -19 -143q0 -70 55.5 -119t133.5 -49q231 0 291 311l176 958h280l-176 -958q-51 -279 -220 -430.5t-400 -151.5q-182 0 -302 109.5t-120 277.5zM532 1657l52 270h272l-51 -270h-273zM963 1657l51 270h272l-51 -270 h-272z" />
<glyph unicode="&#xdd;" horiz-adv-x="1269" d="M225 1513h303l205 -696l465 696h303l-674 -954l-104 -559h-281l105 559zM723 1774l483 260l97 -203l-498 -238z" />
<glyph unicode="&#xde;" horiz-adv-x="1146" d="M78 0l280 1513h281l-53 -286h94q274 0 373 -70q141 -100 141 -293q0 -117 -49 -234.5t-131 -195.5q-94 -88 -194.5 -116.5t-317.5 -28.5h-90l-54 -289h-280zM461 557h82q176 0 270 55.5t94 184.5q0 90 -54 124.5t-222 34.5h-94z" />
<glyph unicode="&#xdf;" horiz-adv-x="1228" d="M43 0l184 997q45 248 192.5 395.5t362.5 147.5q166 0 270.5 -95t104.5 -247q0 -252 -213 -360q281 -74 281 -306q0 -229 -171 -394t-401 -165q-258 0 -329 189l-31 -162h-250zM387 387h168q23 -164 164 -164q90 0 157.5 72t67.5 168q0 98 -69.5 140t-272.5 42h-22l45 242 h22q94 0 162 78.5t68 187.5q0 63 -39 100t-105 37q-178 0 -227 -260z" />
<glyph unicode="&#xe0;" horiz-adv-x="1351" d="M92 436q0 297 209 511t498 214q238 0 334 -178l26 152h250l-209 -1135h-250l27 147q-182 -174 -410 -174q-215 0 -345 127t-130 336zM373 492q0 -123 74.5 -196t201.5 -73q170 0 287 120t117 298q0 125 -74 197.5t-201 72.5q-164 0 -284.5 -125.5t-120.5 -293.5z M477 1473l172 202l387 -260l-149 -180z" />
<glyph unicode="&#xe1;" horiz-adv-x="1351" d="M92 436q0 297 209 511t498 214q238 0 334 -178l26 152h250l-209 -1135h-250l27 147q-182 -174 -410 -174q-215 0 -345 127t-130 336zM373 492q0 -123 74.5 -196t201.5 -73q170 0 287 120t117 298q0 125 -74 197.5t-201 72.5q-164 0 -284.5 -125.5t-120.5 -293.5z M655 1415l484 260l96 -202l-498 -238z" />
<glyph unicode="&#xe2;" horiz-adv-x="1351" d="M92 436q0 297 209 511t498 214q238 0 334 -178l26 152h250l-209 -1135h-250l27 147q-182 -174 -410 -174q-215 0 -345 127t-130 336zM373 492q0 -123 74.5 -196t201.5 -73q170 0 287 120t117 298q0 125 -74 197.5t-201 72.5q-164 0 -284.5 -125.5t-120.5 -293.5z M414 1292l354 283h219l244 -283h-297l-84 131l-135 -131h-301z" />
<glyph unicode="&#xe3;" horiz-adv-x="1351" d="M92 436q0 297 209 511t498 214q238 0 334 -178l26 152h250l-209 -1135h-250l27 147q-182 -174 -410 -174q-215 0 -345 127t-130 336zM373 492q0 -123 74.5 -196t201.5 -73q170 0 287 120t117 298q0 125 -74 197.5t-201 72.5q-164 0 -284.5 -125.5t-120.5 -293.5z M514 1468q41 43 97.5 71t101.5 28q25 0 115 -32t110 -32q43 0 69.5 11.5t96.5 60.5l70 -168q-92 -115 -222 -115q-14 0 -122.5 32t-124.5 32q-41 0 -113 -62z" />
<glyph unicode="&#xe4;" horiz-adv-x="1351" d="M92 436q0 297 209 511t498 214q238 0 334 -178l26 152h250l-209 -1135h-250l27 147q-182 -174 -410 -174q-215 0 -345 127t-130 336zM373 492q0 -123 74.5 -196t201.5 -73q170 0 287 120t117 298q0 125 -74 197.5t-201 72.5q-164 0 -284.5 -125.5t-120.5 -293.5z M461 1298l51 271h272l-51 -271h-272zM891 1298l51 271h272l-51 -271h-272z" />
<glyph unicode="&#xe5;" horiz-adv-x="1351" d="M92 436q0 297 209 511t498 214q238 0 334 -178l26 152h250l-209 -1135h-250l27 147q-182 -174 -410 -174q-215 0 -345 127t-130 336zM373 492q0 -123 74.5 -196t201.5 -73q170 0 287 120t117 298q0 125 -74 197.5t-201 72.5q-164 0 -284.5 -125.5t-120.5 -293.5z M616 1409q0 111 85 194t198 83q80 0 135.5 -53.5t55.5 -133.5q0 -111 -85 -193.5t-196 -82.5q-84 0 -138.5 52t-54.5 134zM770 1436q0 -25 20.5 -44.5t49.5 -19.5q37 0 66.5 30t29.5 66q0 27 -20.5 47.5t-47.5 20.5q-39 0 -68.5 -30.5t-29.5 -69.5z" />
<glyph unicode="&#xe6;" horiz-adv-x="2211" d="M94 442q0 287 212 503t493 216q113 0 186.5 -32.5t132.5 -106.5l21 113h250l-21 -113q156 139 377 139q199 0 331 -131t132 -330q0 -119 -56 -251h-876q12 -102 87 -164t189 -62q152 0 263 113h296q-90 -164 -251.5 -263.5t-337.5 -99.5q-113 0 -189 33t-131 117 l-24 -123h-250l24 123q-90 -84 -168.5 -117t-193.5 -33q-221 0 -358.5 130t-137.5 339zM375 492q0 -121 72.5 -195t193.5 -74q158 0 274.5 124t116.5 292q0 125 -77.5 198.5t-186.5 73.5q-162 0 -277.5 -123.5t-115.5 -295.5zM1307 690h622q-23 127 -86 174t-180 47 q-241 0 -356 -221z" />
<glyph unicode="&#xe7;" d="M96 457q0 279 217 491.5t500 212.5q195 0 329 -103.5t169 -301.5h-307q-47 156 -232 155q-162 0 -278.5 -120.5t-116.5 -288.5q0 -127 73.5 -203t194.5 -76q176 0 287 150h307q-100 -180 -250.5 -281.5t-333.5 -116.5l-63 -94q41 14 61 15q66 0 109 -47.5t43 -118.5 q0 -12 -4 -41q-16 -90 -81 -145.5t-153 -55.5q-80 0 -126 47t-46 125h125q14 -59 66 -59q37 0 68.5 33.5t31.5 74.5q0 31 -18.5 52.5t-46.5 21.5q-39 0 -89 -55l-96 53l115 194q-199 16 -327 151.5t-128 330.5z" />
<glyph unicode="&#xe8;" d="M94 457q0 279 218 491.5t503 212.5q213 0 349 -129t136 -332q0 -156 -40 -254h-879q0 -98 74.5 -160.5t191.5 -62.5q164 0 277 113h297q-92 -168 -256 -265.5t-357 -97.5q-227 0 -370.5 135.5t-143.5 348.5zM418 688h629q-12 223 -275 223q-119 0 -217 -61.5t-137 -161.5 zM494 1473l172 202l387 -260l-150 -180z" />
<glyph unicode="&#xe9;" d="M94 457q0 279 218 491.5t503 212.5q213 0 349 -129t136 -332q0 -156 -40 -254h-879q0 -98 74.5 -160.5t191.5 -62.5q164 0 277 113h297q-92 -168 -256 -265.5t-357 -97.5q-227 0 -370.5 135.5t-143.5 348.5zM418 688h629q-12 223 -275 223q-119 0 -217 -61.5t-137 -161.5 zM672 1415l483 260l96 -202l-497 -238z" />
<glyph unicode="&#xea;" d="M94 457q0 279 218 491.5t503 212.5q213 0 349 -129t136 -332q0 -156 -40 -254h-879q0 -98 74.5 -160.5t191.5 -62.5q164 0 277 113h297q-92 -168 -256 -265.5t-357 -97.5q-227 0 -370.5 135.5t-143.5 348.5zM418 688h629q-12 223 -275 223q-119 0 -217 -61.5t-137 -161.5 zM430 1292l354 283h220l243 -283h-297l-84 131l-135 -131h-301z" />
<glyph unicode="&#xeb;" d="M94 457q0 279 218 491.5t503 212.5q213 0 349 -129t136 -332q0 -156 -40 -254h-879q0 -98 74.5 -160.5t191.5 -62.5q164 0 277 113h297q-92 -168 -256 -265.5t-357 -97.5q-227 0 -370.5 135.5t-143.5 348.5zM418 688h629q-12 223 -275 223q-119 0 -217 -61.5t-137 -161.5 zM477 1298l51 271h273l-51 -271h-273zM907 1298l51 271h273l-51 -271h-273z" />
<glyph unicode="&#xec;" horiz-adv-x="491" d="M49 0l211 1135h272l-210 -1135h-273zM141 1473l172 202l387 -260l-149 -180z" />
<glyph unicode="&#xed;" horiz-adv-x="491" d="M49 0l211 1135h272l-210 -1135h-273zM195 1415l483 260l96 -202l-498 -238z" />
<glyph unicode="&#xee;" horiz-adv-x="491" d="M16 1292l355 283h219l244 -283h-297l-84 131l-136 -131h-301zM49 0l211 1135h272l-210 -1135h-273z" />
<glyph unicode="&#xef;" horiz-adv-x="491" d="M49 0l211 1135h272l-210 -1135h-273zM63 1298l52 271h272l-51 -271h-273zM494 1298l51 271h272l-51 -271h-272z" />
<glyph unicode="&#xf0;" d="M94 469q0 262 209 466t475 204q55 0 144 -33q-84 100 -154 160l-174 -68l-70 98l154 62l-33 31l-82 63l191 98q88 -66 137 -112l188 75l86 -90l-178 -73q166 -143 255 -310.5t89 -337.5q0 -289 -220 -509t-509 -220q-223 0 -365.5 139.5t-142.5 356.5zM375 498 q0 -119 78.5 -197t197.5 -78q156 0 278 126t122 284q0 121 -77 199.5t-194 78.5q-160 0 -282.5 -124.5t-122.5 -288.5z" />
<glyph unicode="&#xf1;" horiz-adv-x="1228" d="M49 0l211 1135h252l-20 -109q94 76 168.5 105.5t168.5 29.5q176 0 270.5 -87t94.5 -249q0 -82 -25 -217l-112 -608h-273l103 555q18 102 18 188q0 168 -172 168q-121 0 -196.5 -78.5t-116.5 -297.5l-98 -535h-273zM483 1468q41 43 97.5 71t101.5 28q27 0 117 -32t108 -32 q43 0 70 11.5t96 60.5l70 -168q-92 -115 -221 -115q-14 0 -123 32t-125 32q-41 0 -113 -62z" />
<glyph unicode="&#xf2;" d="M94 453q0 281 219 494.5t508 213.5q217 0 358.5 -139t141.5 -352q0 -274 -221 -485.5t-510 -211.5q-211 0 -353.5 137.5t-142.5 342.5zM375 500q0 -119 76.5 -198t193.5 -79q154 0 274.5 126t120.5 284q0 121 -75.5 199.5t-190.5 78.5q-156 0 -277.5 -124.5 t-121.5 -286.5zM500 1473l172 202l387 -260l-150 -180z" />
<glyph unicode="&#xf3;" d="M94 453q0 281 219 494.5t508 213.5q217 0 358.5 -139t141.5 -352q0 -274 -221 -485.5t-510 -211.5q-211 0 -353.5 137.5t-142.5 342.5zM375 500q0 -119 76.5 -198t193.5 -79q154 0 274.5 126t120.5 284q0 121 -75.5 199.5t-190.5 78.5q-156 0 -277.5 -124.5 t-121.5 -286.5zM678 1415l483 260l96 -202l-497 -238z" />
<glyph unicode="&#xf4;" d="M94 453q0 281 219 494.5t508 213.5q217 0 358.5 -139t141.5 -352q0 -274 -221 -485.5t-510 -211.5q-211 0 -353.5 137.5t-142.5 342.5zM375 500q0 -119 76.5 -198t193.5 -79q154 0 274.5 126t120.5 284q0 121 -75.5 199.5t-190.5 78.5q-156 0 -277.5 -124.5 t-121.5 -286.5zM436 1292l355 283h219l243 -283h-297l-84 131l-135 -131h-301z" />
<glyph unicode="&#xf5;" d="M94 453q0 281 219 494.5t508 213.5q217 0 358.5 -139t141.5 -352q0 -274 -221 -485.5t-510 -211.5q-211 0 -353.5 137.5t-142.5 342.5zM375 500q0 -119 76.5 -198t193.5 -79q154 0 274.5 126t120.5 284q0 121 -75.5 199.5t-190.5 78.5q-156 0 -277.5 -124.5 t-121.5 -286.5zM537 1468q41 43 97 71t101 28q25 0 115 -32t111 -32q43 0 69.5 11.5t95.5 60.5l70 -168q-92 -115 -221 -115q-14 0 -123 32t-125 32q-41 0 -113 -62z" />
<glyph unicode="&#xf6;" d="M94 453q0 281 219 494.5t508 213.5q217 0 358.5 -139t141.5 -352q0 -274 -221 -485.5t-510 -211.5q-211 0 -353.5 137.5t-142.5 342.5zM375 500q0 -119 76.5 -198t193.5 -79q154 0 274.5 126t120.5 284q0 121 -75.5 199.5t-190.5 78.5q-156 0 -277.5 -124.5 t-121.5 -286.5zM483 1298l52 271h272l-51 -271h-273zM913 1298l52 271h272l-51 -271h-273z" />
<glyph unicode="&#xf7;" horiz-adv-x="1228" d="M158 371v282h1007v-282h-1007zM530 133q0 55 39 93t92.5 38t92.5 -38t39 -93q0 -53 -39 -92t-92.5 -39t-92.5 39t-39 92zM530 891q0 53 39 92t92.5 39t92.5 -39t39 -92q0 -55 -39 -93t-92.5 -38t-92.5 38t-39 93z" />
<glyph unicode="&#xf8;" horiz-adv-x="1351" d="M94 -4l123 143q-117 145 -117 314q0 281 219.5 494.5t505.5 213.5q121 0 224 -47l133 156l149 -127l-123 -146q119 -141 119 -325q0 -270 -221 -484.5t-500 -214.5q-119 0 -233 50l-129 -154zM381 498q0 -66 29 -133l456 532q-57 14 -92 14q-152 0 -272.5 -126.5 t-120.5 -286.5zM559 238q39 -14 84 -15q158 0 281 124t123 284q0 94 -33 141z" />
<glyph unicode="&#xf9;" horiz-adv-x="1228" d="M119 311q0 82 24 215l113 609h272l-102 -555q-23 -117 -20 -197q0 -76 45 -118t122 -42q135 0 210 77t116 300l98 535h273l-211 -1135h-252l20 109q-164 -135 -356 -136q-166 0 -259 95.5t-93 242.5zM446 1473l172 202l388 -260l-150 -180z" />
<glyph unicode="&#xfa;" horiz-adv-x="1228" d="M119 311q0 82 24 215l113 609h272l-102 -555q-23 -117 -20 -197q0 -76 45 -118t122 -42q135 0 210 77t116 300l98 535h273l-211 -1135h-252l20 109q-164 -135 -356 -136q-166 0 -259 95.5t-93 242.5zM625 1415l483 260l96 -202l-497 -238z" />
<glyph unicode="&#xfb;" horiz-adv-x="1228" d="M119 311q0 82 24 215l113 609h272l-102 -555q-23 -117 -20 -197q0 -76 45 -118t122 -42q135 0 210 77t116 300l98 535h273l-211 -1135h-252l20 109q-164 -135 -356 -136q-166 0 -259 95.5t-93 242.5zM383 1292l354 283h219l244 -283h-297l-84 131l-135 -131h-301z" />
<glyph unicode="&#xfc;" horiz-adv-x="1228" d="M119 311q0 82 24 215l113 609h272l-102 -555q-23 -117 -20 -197q0 -76 45 -118t122 -42q135 0 210 77t116 300l98 535h273l-211 -1135h-252l20 109q-164 -135 -356 -136q-166 0 -259 95.5t-93 242.5zM430 1298l51 271h273l-52 -271h-272zM860 1298l51 271h273l-51 -271 h-273z" />
<glyph unicode="&#xfd;" horiz-adv-x="1187" d="M88 -379l299 485l-225 1029h311l115 -736l411 736h314l-932 -1514h-293zM598 1415l483 260l97 -202l-498 -238z" />
<glyph unicode="&#xfe;" horiz-adv-x="1351" d="M-20 -379l350 1892h250l-95 -512q72 76 178.5 118t221.5 42q207 0 338 -124t131 -332q0 -301 -202 -516.5t-486 -215.5q-203 0 -324 133l-90 -485h-272zM403 494q0 -117 79 -194t200 -77q152 0 271.5 126t119.5 284q0 119 -72.5 198.5t-195.5 79.5q-162 0 -282 -124.5 t-120 -292.5z" />
<glyph unicode="&#xff;" horiz-adv-x="1187" d="M88 -379l299 485l-225 1029h311l115 -736l411 736h314l-932 -1514h-293zM403 1298l52 271h272l-51 -271h-273zM834 1298l51 271h272l-51 -271h-272z" />
<glyph unicode="&#x100;" horiz-adv-x="1515" d="M-47 0l911 1513h221l355 -1513h-310l-90 391h-538l-240 -391h-309zM655 662h324l-78 456zM723 1692l35 202h573l-37 -202h-571z" />
<glyph unicode="&#x101;" horiz-adv-x="1351" d="M92 436q0 297 209 511t498 214q238 0 334 -178l26 152h250l-209 -1135h-250l27 147q-182 -174 -410 -174q-215 0 -345 127t-130 336zM373 492q0 -123 74.5 -196t201.5 -73q170 0 287 120t117 298q0 125 -74 197.5t-201 72.5q-164 0 -284.5 -125.5t-120.5 -293.5z M547 1333l35 203h573l-37 -203h-571z" />
<glyph unicode="&#x102;" horiz-adv-x="1515" d="M-47 0l911 1513h221l355 -1513h-310l-90 391h-538l-240 -391h-309zM655 662h324l-78 456zM713 1892q0 23 2 39h200q18 -86 125 -86q96 0 146 86h203q-29 -125 -136.5 -201.5t-246.5 -76.5q-137 0 -215 63t-78 176z" />
<glyph unicode="&#x103;" horiz-adv-x="1351" d="M92 436q0 297 209 511t498 214q238 0 334 -178l26 152h250l-209 -1135h-250l27 147q-182 -174 -410 -174q-215 0 -345 127t-130 336zM373 492q0 -123 74.5 -196t201.5 -73q170 0 287 120t117 298q0 125 -74 197.5t-201 72.5q-164 0 -284.5 -125.5t-120.5 -293.5z M530 1534q0 23 2 39h201q18 -86 125 -86q96 0 146 86h202q-29 -125 -136 -202t-247 -77q-137 0 -215 63.5t-78 176.5z" />
<glyph unicode="&#x104;" horiz-adv-x="1515" d="M-47 0l911 1513h221l355 -1513q-102 -33 -167 -90t-65 -105q0 -41 20.5 -70.5t57.5 -29.5q57 0 98 6l-36 -211q-59 -12 -129 -12q-92 0 -157 75t-65 163q0 72 45 135t148 139h-60l-90 391h-538l-240 -391h-309zM655 662h324l-78 456z" />
<glyph unicode="&#x105;" horiz-adv-x="1351" d="M92 436q0 297 209 511t498 214q238 0 334 -178l26 152h250l-209 -1135q-102 -33 -166.5 -90t-64.5 -105q0 -41 20.5 -70.5t57.5 -29.5q57 0 98 6l-37 -211q-59 -12 -129 -12q-92 0 -156.5 75t-64.5 163q0 72 45 135t147 139l27 147q-182 -174 -410 -174q-215 0 -345 127 t-130 336zM373 492q0 -123 74.5 -196t201.5 -73q170 0 287 120t117 298q0 125 -74 197.5t-201 72.5q-164 0 -284.5 -125.5t-120.5 -293.5z" />
<glyph unicode="&#x106;" horiz-adv-x="1597" d="M127 621q0 233 132 446t349 343t453 130q233 0 403 -117.5t232 -343.5h-316q-59 102 -144 146.5t-216 44.5q-233 0 -419.5 -179.5t-186.5 -420.5q0 -186 118.5 -306t301.5 -120q111 0 202.5 40t206.5 138h330q-123 -205 -337 -327t-448 -122q-291 0 -476 183.5 t-185 464.5zM915 1774l484 260l96 -203l-498 -238z" />
<glyph unicode="&#x107;" d="M96 457q0 279 217 491.5t500 212.5q195 0 329 -103.5t169 -301.5h-307q-47 156 -232 155q-162 0 -278.5 -120.5t-116.5 -288.5q0 -127 73.5 -203t194.5 -76q176 0 287 150h307q-109 -193 -273.5 -296.5t-363.5 -103.5q-217 0 -361.5 138.5t-144.5 345.5zM670 1415 l483 260l96 -202l-497 -238z" />
<glyph unicode="&#x108;" horiz-adv-x="1597" d="M127 621q0 233 132 446t349 343t453 130q233 0 403 -117.5t232 -343.5h-316q-59 102 -144 146.5t-216 44.5q-233 0 -419.5 -179.5t-186.5 -420.5q0 -186 118.5 -306t301.5 -120q111 0 202.5 40t206.5 138h330q-123 -205 -337 -327t-448 -122q-291 0 -476 183.5 t-185 464.5zM674 1651l354 282h219l244 -282h-297l-84 131l-135 -131h-301z" />
<glyph unicode="&#x109;" d="M96 457q0 279 217 491.5t500 212.5q195 0 329 -103.5t169 -301.5h-307q-47 156 -232 155q-162 0 -278.5 -120.5t-116.5 -288.5q0 -127 73.5 -203t194.5 -76q176 0 287 150h307q-109 -193 -273.5 -296.5t-363.5 -103.5q-217 0 -361.5 138.5t-144.5 345.5zM428 1292 l354 283h219l244 -283h-297l-84 131l-135 -131h-301z" />
<glyph unicode="&#x10a;" horiz-adv-x="1597" d="M127 621q0 233 132 446t349 343t453 130q233 0 403 -117.5t232 -343.5h-316q-59 102 -144 146.5t-216 44.5q-233 0 -419.5 -179.5t-186.5 -420.5q0 -186 118.5 -306t301.5 -120q111 0 202.5 40t206.5 138h330q-123 -205 -337 -327t-448 -122q-291 0 -476 183.5 t-185 464.5zM946 1657l51 270h273l-51 -270h-273z" />
<glyph unicode="&#x10b;" d="M96 457q0 279 217 491.5t500 212.5q195 0 329 -103.5t169 -301.5h-307q-47 156 -232 155q-162 0 -278.5 -120.5t-116.5 -288.5q0 -127 73.5 -203t194.5 -76q176 0 287 150h307q-109 -193 -273.5 -296.5t-363.5 -103.5q-217 0 -361.5 138.5t-144.5 345.5zM702 1298l52 271 h272l-51 -271h-273z" />
<glyph unicode="&#x10c;" horiz-adv-x="1597" d="M127 621q0 233 132 446t349 343t453 130q233 0 403 -117.5t232 -343.5h-316q-59 102 -144 146.5t-216 44.5q-233 0 -419.5 -179.5t-186.5 -420.5q0 -186 118.5 -306t301.5 -120q111 0 202.5 40t206.5 138h330q-123 -205 -337 -327t-448 -122q-291 0 -476 183.5 t-185 464.5zM725 1933h297l84 -131l135 131h301l-354 -282h-219z" />
<glyph unicode="&#x10d;" d="M96 457q0 279 217 491.5t500 212.5q195 0 329 -103.5t169 -301.5h-307q-47 156 -232 155q-162 0 -278.5 -120.5t-116.5 -288.5q0 -127 73.5 -203t194.5 -76q176 0 287 150h307q-109 -193 -273.5 -296.5t-363.5 -103.5q-217 0 -361.5 138.5t-144.5 345.5zM481 1575h297 l84 -131l135 131h301l-354 -283h-219z" />
<glyph unicode="&#x10e;" horiz-adv-x="1433" d="M78 0l280 1513h347q391 0 564 -147t173 -440q0 -227 -106.5 -440.5t-280.5 -333.5q-117 -82 -261.5 -117t-363.5 -35h-352zM408 268h61q188 0 307 39t205 127q174 180 174 428q0 197 -113.5 290t-396.5 93h-55zM623 1933h297l84 -131l135 131h301l-355 -282h-219z" />
<glyph unicode="&#x10f;" horiz-adv-x="1351" d="M94 451q0 289 210 507t487 218q104 0 191 -38t132 -104l88 479h273l-281 -1513h-250l29 147q-186 -174 -408 -174q-213 0 -342 131.5t-129 346.5zM375 508q0 -127 78.5 -206t203.5 -79q156 0 278 128t122 292q0 127 -75 205t-198 78q-166 0 -287.5 -124t-121.5 -294z M1511 1120l191 393h215l-193 -393h-213z" />
<glyph unicode="&#x110;" horiz-adv-x="1519" d="M88 657l41 220h193l118 636h346q395 0 568.5 -147t173.5 -432q0 -240 -104.5 -449t-286.5 -333q-121 -82 -264.5 -117t-360.5 -35h-352l121 657h-193zM489 268h62q188 0 310 39t206 127q80 82 127 199t47 235q0 193 -116.5 285t-399.5 92h-55l-68 -368h305l-41 -220h-305 z" />
<glyph unicode="&#x111;" horiz-adv-x="1351" d="M96 451q0 287 209 506t483 219q104 0 191.5 -38t132.5 -104l39 199h-231l32 178h232l18 102h273l-19 -102h123l-33 -178h-123l-229 -1233h-250l29 147q-186 -174 -408 -174q-211 0 -340 131.5t-129 346.5zM377 508q0 -127 77.5 -206t202.5 -79q156 0 278 128t122 292 q0 127 -75 205t-198 78q-166 0 -286.5 -124t-120.5 -294z" />
<glyph unicode="&#x112;" horiz-adv-x="1064" d="M78 0l280 1513h813l-49 -270h-532l-68 -352h510l-49 -270h-510l-65 -351h532l-49 -270h-813zM514 1692l35 202h573l-37 -202h-571z" />
<glyph unicode="&#x113;" d="M94 457q0 279 218 491.5t503 212.5q213 0 349 -129t136 -332q0 -156 -40 -254h-879q0 -98 74.5 -160.5t191.5 -62.5q164 0 277 113h297q-92 -168 -256 -265.5t-357 -97.5q-227 0 -370.5 135.5t-143.5 348.5zM418 688h629q-12 223 -275 223q-119 0 -217 -61.5t-137 -161.5 zM563 1333l35 203h573l-36 -203h-572z" />
<glyph unicode="&#x114;" horiz-adv-x="1064" d="M78 0l280 1513h813l-49 -270h-532l-68 -352h510l-49 -270h-510l-65 -351h532l-49 -270h-813zM504 1892q0 23 2 39h201q18 -86 124 -86q96 0 146 86h203q-29 -125 -136.5 -201.5t-246.5 -76.5q-137 0 -215 63t-78 176z" />
<glyph unicode="&#x115;" d="M94 457q0 279 218 491.5t503 212.5q213 0 349 -129t136 -332q0 -156 -40 -254h-879q0 -98 74.5 -160.5t191.5 -62.5q164 0 277 113h297q-92 -168 -256 -265.5t-357 -97.5q-227 0 -370.5 135.5t-143.5 348.5zM418 688h629q-12 223 -275 223q-119 0 -217 -61.5t-137 -161.5 zM547 1534q0 23 2 39h201q18 -86 124 -86q96 0 146 86h203q-29 -125 -136.5 -202t-246.5 -77q-137 0 -215 63.5t-78 176.5z" />
<glyph unicode="&#x116;" horiz-adv-x="1064" d="M78 0l280 1513h813l-49 -270h-532l-68 -352h510l-49 -270h-510l-65 -351h532l-49 -270h-813zM655 1657l52 270h272l-51 -270h-273z" />
<glyph unicode="&#x117;" d="M94 457q0 279 218 491.5t503 212.5q213 0 349 -129t136 -332q0 -156 -40 -254h-879q0 -98 74.5 -160.5t191.5 -62.5q164 0 277 113h297q-92 -168 -256 -265.5t-357 -97.5q-227 0 -370.5 135.5t-143.5 348.5zM418 688h629q-12 223 -275 223q-119 0 -217 -61.5t-137 -161.5 zM705 1298l51 271h272l-51 -271h-272z" />
<glyph unicode="&#x118;" horiz-adv-x="1064" d="M78 0l280 1513h813l-49 -270h-532l-68 -352h510l-49 -270h-510l-65 -351h532l-49 -270q-102 -33 -167 -90t-65 -105q0 -39 21.5 -69.5t58.5 -30.5q57 0 99 6l-39 -211q-57 -12 -127 -12q-92 0 -157.5 75t-65.5 163q0 72 45 135t147 139h-563z" />
<glyph unicode="&#x119;" d="M94 457q0 279 218 491.5t503 212.5q213 0 349 -129t136 -332q0 -156 -40 -254h-879q0 -98 74.5 -160.5t191.5 -62.5q164 0 277 113h297q-113 -207 -322 -299q-217 -102 -217 -232q0 -41 20.5 -70.5t57.5 -29.5q57 0 98 6l-37 -211q-59 -12 -129 -12q-92 0 -156.5 75 t-64.5 163q0 123 158 247h-21q-227 0 -370.5 135.5t-143.5 348.5zM418 688h629q-12 223 -275 223q-119 0 -217 -61.5t-137 -161.5z" />
<glyph unicode="&#x11a;" horiz-adv-x="1064" d="M78 0l280 1513h813l-49 -270h-532l-68 -352h510l-49 -270h-510l-65 -351h532l-49 -270h-813zM434 1933h297l84 -131l135 131h301l-354 -282h-219z" />
<glyph unicode="&#x11b;" d="M94 457q0 279 218 491.5t503 212.5q213 0 349 -129t136 -332q0 -156 -40 -254h-879q0 -98 74.5 -160.5t191.5 -62.5q164 0 277 113h297q-92 -168 -256 -265.5t-357 -97.5q-227 0 -370.5 135.5t-143.5 348.5zM418 688h629q-12 223 -275 223q-119 0 -217 -61.5t-137 -161.5 zM483 1575h297l84 -131l135 131h301l-354 -283h-219z" />
<glyph unicode="&#x11c;" horiz-adv-x="1720" d="M125 614q0 238 134 453t356.5 344t468 129t432 -137t221.5 -334h-330q-123 201 -369 201q-256 0 -441 -183.5t-185 -422.5q0 -184 121.5 -302t322.5 -118q147 0 277.5 70.5t214.5 195.5h-627l49 262h987q-20 -205 -157.5 -390t-347.5 -297t-433 -112q-305 0 -499.5 180 t-194.5 461zM696 1651l355 282h219l243 -282h-296l-84 131l-136 -131h-301z" />
<glyph unicode="&#x11d;" horiz-adv-x="1351" d="M0 -92h309q47 -66 107.5 -93.5t156.5 -27.5q150 0 243 86t142 277q-98 -94 -190 -135.5t-213 -41.5q-211 0 -336 128t-125 343q0 293 204 505t482 212q119 0 198 -40t136 -130l27 144h260l-170 -920q-123 -668 -715 -668q-418 1 -516 361zM375 477q0 -119 69.5 -186.5 t192.5 -67.5q170 0 282.5 125t112.5 297q0 121 -73.5 193.5t-194.5 72.5q-170 0 -279.5 -123t-109.5 -311zM395 1292l355 283h219l243 -283h-297l-84 131l-135 -131h-301z" />
<glyph unicode="&#x11e;" horiz-adv-x="1720" d="M125 614q0 238 134 453t356.5 344t468 129t432 -137t221.5 -334h-330q-123 201 -369 201q-256 0 -441 -183.5t-185 -422.5q0 -184 121.5 -302t322.5 -118q147 0 277.5 70.5t214.5 195.5h-627l49 262h987q-20 -205 -157.5 -390t-347.5 -297t-433 -112q-305 0 -499.5 180 t-194.5 461zM817 1892q0 23 2 39h201q18 -86 125 -86q96 0 145 86h203q-29 -125 -136.5 -201.5t-246.5 -76.5q-137 0 -215 63t-78 176z" />
<glyph unicode="&#x11f;" horiz-adv-x="1351" d="M0 -92h309q47 -66 107.5 -93.5t156.5 -27.5q150 0 243 86t142 277q-98 -94 -190 -135.5t-213 -41.5q-211 0 -336 128t-125 343q0 293 204 505t482 212q119 0 198 -40t136 -130l27 144h260l-170 -920q-123 -668 -715 -668q-418 1 -516 361zM375 477q0 -119 69.5 -186.5 t192.5 -67.5q170 0 282.5 125t112.5 297q0 121 -73.5 193.5t-194.5 72.5q-170 0 -279.5 -123t-109.5 -311zM512 1534q0 23 2 39h201q18 -86 125 -86q96 0 145 86h203q-29 -125 -136.5 -202t-246.5 -77q-137 0 -215 63.5t-78 176.5z" />
<glyph unicode="&#x120;" horiz-adv-x="1720" d="M125 614q0 238 134 453t356.5 344t468 129t432 -137t221.5 -334h-330q-123 201 -369 201q-256 0 -441 -183.5t-185 -422.5q0 -184 121.5 -302t322.5 -118q147 0 277.5 70.5t214.5 195.5h-627l49 262h987q-20 -205 -157.5 -390t-347.5 -297t-433 -112q-305 0 -499.5 180 t-194.5 461zM969 1657l51 270h272l-51 -270h-272z" />
<glyph unicode="&#x121;" horiz-adv-x="1351" d="M0 -92h309q47 -66 107.5 -93.5t156.5 -27.5q150 0 243 86t142 277q-98 -94 -190 -135.5t-213 -41.5q-211 0 -336 128t-125 343q0 293 204 505t482 212q119 0 198 -40t136 -130l27 144h260l-170 -920q-123 -668 -715 -668q-418 1 -516 361zM375 477q0 -119 69.5 -186.5 t192.5 -67.5q170 0 282.5 125t112.5 297q0 121 -73.5 193.5t-194.5 72.5q-170 0 -279.5 -123t-109.5 -311zM670 1298l51 271h272l-51 -271h-272z" />
<glyph unicode="&#x122;" horiz-adv-x="1720" d="M125 614q0 238 134 453t356.5 344t468 129t432 -137t221.5 -334h-330q-123 201 -369 201q-256 0 -441 -183.5t-185 -422.5q0 -184 121.5 -302t322.5 -118q147 0 277.5 70.5t214.5 195.5h-627l49 262h987q-20 -205 -157.5 -390t-347.5 -297t-433 -112q-305 0 -499.5 180 t-194.5 461zM539 -502l190 393h215l-192 -393h-213z" />
<glyph unicode="&#x123;" horiz-adv-x="1351" d="M0 -92h309q47 -66 107.5 -93.5t156.5 -27.5q150 0 243 86t142 277q-98 -94 -190 -135.5t-213 -41.5q-211 0 -336 128t-125 343q0 293 204 505t482 212q119 0 198 -40t136 -130l27 144h260l-170 -920q-123 -668 -715 -668q-418 1 -516 361zM375 477q0 -119 69.5 -186.5 t192.5 -67.5q170 0 282.5 125t112.5 297q0 121 -73.5 193.5t-194.5 72.5q-170 0 -279.5 -123t-109.5 -311zM639 1292l192 394h213l-190 -394h-215z" />
<glyph unicode="&#x124;" horiz-adv-x="1392" d="M78 0l280 1513h281l-113 -608h541l113 608h280l-280 -1513h-281l117 635h-541l-117 -635h-280zM526 1651l355 282h219l243 -282h-296l-84 131l-136 -131h-301z" />
<glyph unicode="&#x125;" horiz-adv-x="1228" d="M49 0l281 1513h272l-84 -456q127 106 305 106q168 0 269.5 -89t101.5 -238q0 -90 -20 -195l-119 -641h-273l107 580q18 98 18 165q0 80 -47 124t-131 44q-121 0 -193.5 -75.5t-107.5 -262.5l-106 -575h-273zM451 1651l354 282h219l244 -282h-297l-84 131l-135 -131h-301z " />
<glyph unicode="&#x126;" horiz-adv-x="1392" d="M78 0l209 1124h-123l37 205h123l34 184h281l-35 -184h541l35 184h280l-35 -184h136l-37 -205h-135l-209 -1124h-281l117 635h-541l-117 -635h-280zM526 903h541l41 221h-541z" />
<glyph unicode="&#x127;" horiz-adv-x="1228" d="M47 0l229 1233h-143l37 205h143l15 75h272l-14 -75h153l-37 -205h-151l-35 -176q135 106 307 106q254 0 336 -180q53 -117 12 -342l-118 -641h-273l107 580q35 178 -3 254.5t-157 76.5q-139 0 -219 -108q-53 -70 -82 -228l-107 -575h-272z" />
<glyph unicode="&#x128;" horiz-adv-x="573" d="M78 0l280 1513h281l-281 -1513h-280zM215 1827q41 43 97.5 70.5t101.5 27.5q25 0 114.5 -31.5t110.5 -31.5q43 0 69.5 11t96.5 60l69 -168q-92 -115 -221 -114q-14 0 -122.5 31.5t-124.5 31.5q-41 0 -113 -61z" />
<glyph unicode="&#x129;" horiz-adv-x="491" d="M49 0l211 1135h272l-210 -1135h-273zM117 1468q41 43 97 71t101 28q25 0 115 -32t111 -32q43 0 69.5 11.5t96.5 60.5l69 -168q-92 -115 -221 -115q-14 0 -122.5 32t-125.5 32q-41 0 -112 -62z" />
<glyph unicode="&#x12a;" horiz-adv-x="573" d="M78 0l280 1513h281l-281 -1513h-280zM248 1692l35 202h573l-37 -202h-571z" />
<glyph unicode="&#x12b;" horiz-adv-x="491" d="M49 0l211 1135h272l-210 -1135h-273zM150 1333l34 203h574l-37 -203h-571z" />
<glyph unicode="&#x12c;" horiz-adv-x="573" d="M78 0l280 1513h281l-281 -1513h-280zM238 1892q0 23 2 39h200q18 -86 125 -86q96 0 146 86h202q-29 -125 -136 -201.5t-247 -76.5q-137 0 -214.5 63t-77.5 176z" />
<glyph unicode="&#x12d;" horiz-adv-x="491" d="M49 0l211 1135h272l-210 -1135h-273zM133 1534q0 23 2 39h201q18 -86 125 -86q96 0 145 86h203q-29 -125 -136.5 -202t-246.5 -77q-137 0 -215 63.5t-78 176.5z" />
<glyph unicode="&#x12e;" horiz-adv-x="573" d="M-84 -274q0 72 45 135t148 139h-31l280 1513h281l-281 -1513q-102 -33 -166.5 -90t-64.5 -105q0 -41 20.5 -70.5t57.5 -29.5q57 0 98 6l-37 -211q-59 -12 -129 -12q-92 0 -156.5 75t-64.5 163z" />
<glyph unicode="&#x12f;" horiz-adv-x="491" d="M-121 -274q0 72 45 135t148 139h-23l211 1135h272l-210 -1135q-102 -33 -167 -90t-65 -105q0 -41 20.5 -70.5t57.5 -29.5q57 0 98 6l-37 -211q-57 -12 -129 -12q-92 0 -156.5 75t-64.5 163zM289 1298l51 271h272l-51 -271h-272z" />
<glyph unicode="&#x130;" horiz-adv-x="573" d="M78 0l280 1513h281l-281 -1513h-280zM389 1657l51 270h273l-51 -270h-273z" />
<glyph unicode="&#x131;" horiz-adv-x="491" d="M49 0l211 1135h272l-210 -1135h-273z" />
<glyph unicode="&#x134;" horiz-adv-x="983" d="M16 287q0 14 4 71h281l2 -14q14 -100 113 -100q135 0 172 198l198 1071h281l-201 -1079q-43 -223 -178 -342t-315 -119q-158 0 -257.5 88.5t-99.5 225.5zM545 1651l354 282h219l244 -282h-297l-84 131l-135 -131h-301z" />
<glyph unicode="&#x135;" horiz-adv-x="532" d="M-96 -379l49 264q78 14 103.5 49t45.5 148l195 1053h272l-196 -1059q-35 -211 -158 -331t-311 -124zM53 1292l355 283h219l243 -283h-297l-84 131l-135 -131h-301z" />
<glyph unicode="&#x136;" horiz-adv-x="1269" d="M78 0l280 1513h281l-121 -653l592 653h336l-705 -743l424 -770h-336l-348 666l-123 -666h-280zM334 -502l190 393h215l-192 -393h-213z" />
<glyph unicode="&#x137;" horiz-adv-x="1187" d="M49 0l281 1513h272l-170 -913l461 535h326l-508 -555l364 -580h-366l-289 530l-98 -530h-273zM256 -502l190 393h216l-193 -393h-213z" />
<glyph unicode="&#x139;" horiz-adv-x="901" d="M78 0l280 1513h281l-231 -1243h464l-49 -270h-745zM293 1774l483 260l96 -203l-497 -238z" />
<glyph unicode="&#x13a;" horiz-adv-x="491" d="M49 0l281 1513h272l-280 -1513h-273zM264 1774l484 260l96 -203l-498 -238z" />
<glyph unicode="&#x13b;" horiz-adv-x="901" d="M78 0l280 1513h281l-231 -1243h464l-49 -270h-745zM190 -502l191 393h215l-193 -393h-213z" />
<glyph unicode="&#x13c;" horiz-adv-x="491" d="M-76 -502l191 393h215l-193 -393h-213zM49 0l281 1513h272l-280 -1513h-273z" />
<glyph unicode="&#x13d;" horiz-adv-x="901" d="M78 0l280 1513h281l-231 -1243h464l-49 -270h-745zM676 1120l190 393h215l-192 -393h-213z" />
<glyph unicode="&#x13e;" horiz-adv-x="491" d="M49 0l281 1513h272l-280 -1513h-273zM639 1120l190 393h215l-192 -393h-213z" />
<glyph unicode="&#x13f;" horiz-adv-x="901" d="M78 0l280 1513h281l-231 -1243h464l-49 -270h-745zM653 649l52 271h272l-51 -271h-273z" />
<glyph unicode="&#x140;" horiz-adv-x="765" d="M49 0l281 1513h272l-280 -1513h-273zM551 649l51 271h272l-51 -271h-272z" />
<glyph unicode="&#x141;" horiz-adv-x="983" d="M39 385l49 266l227 162l129 700h281l-100 -550l331 227l-49 -266l-334 -228l-79 -434h464l-49 -262h-745l102 547z" />
<glyph unicode="&#x142;" horiz-adv-x="655" d="M59 494l45 237l199 139l117 643h272l-96 -516l203 133l-45 -239l-201 -133l-141 -758h-273l119 631z" />
<glyph unicode="&#x143;" horiz-adv-x="1515" d="M78 0l280 1513h320l422 -1101l205 1101h280l-280 -1513h-314l-428 1100l-205 -1100h-280zM831 1774l484 260l96 -203l-498 -238z" />
<glyph unicode="&#x144;" horiz-adv-x="1228" d="M49 0l211 1135h252l-20 -109q94 76 168.5 105.5t168.5 29.5q176 0 270.5 -87t94.5 -249q0 -82 -25 -217l-112 -608h-273l103 555q18 102 18 188q0 168 -172 168q-121 0 -196.5 -78.5t-116.5 -297.5l-98 -535h-273zM625 1415l483 260l96 -202l-497 -238z" />
<glyph unicode="&#x145;" horiz-adv-x="1515" d="M78 0l280 1513h320l422 -1101l205 1101h280l-280 -1513h-314l-428 1100l-205 -1100h-280zM432 -502l191 393h215l-193 -393h-213z" />
<glyph unicode="&#x146;" horiz-adv-x="1228" d="M49 0l211 1135h252l-20 -109q94 76 168.5 105.5t168.5 29.5q176 0 270.5 -87t94.5 -249q0 -82 -25 -217l-112 -608h-273l103 555q18 102 18 188q0 168 -172 168q-121 0 -196.5 -78.5t-116.5 -297.5l-98 -535h-273zM293 -502l190 393h215l-192 -393h-213z" />
<glyph unicode="&#x147;" horiz-adv-x="1515" d="M78 0l280 1513h320l422 -1101l205 1101h280l-280 -1513h-314l-428 1100l-205 -1100h-280zM641 1933h297l84 -131l135 131h301l-354 -282h-219z" />
<glyph unicode="&#x148;" horiz-adv-x="1228" d="M49 0l211 1135h252l-20 -109q94 76 168.5 105.5t168.5 29.5q176 0 270.5 -87t94.5 -249q0 -82 -25 -217l-112 -608h-273l103 555q18 102 18 188q0 168 -172 168q-121 0 -196.5 -78.5t-116.5 -297.5l-98 -535h-273zM436 1575h297l84 -131l135 131h301l-354 -283h-219z" />
<glyph unicode="&#x14a;" horiz-adv-x="1515" d="M78 0l280 1513h320l422 -1101l205 1101h280l-291 -1564q-43 -223 -178 -342t-315 -119q-158 0 -257.5 88t-99.5 225q0 14 5 72h280l2 -14q14 -100 113 -101q57 0 104 43t58 105l8 39l-451 1155l-205 -1100h-280z" />
<glyph unicode="&#x14b;" horiz-adv-x="1228" d="M49 0l211 1135h252l-20 -109q94 76 168.5 105.5t168.5 29.5q176 0 270.5 -87t94.5 -249q0 -82 -25 -217l-98 -532q-35 -211 -157.5 -331t-311.5 -124l49 264q78 14 103.5 49t46.5 148l86 473q18 102 18 188q0 168 -172 168q-121 0 -196.5 -78.5t-116.5 -297.5l-98 -535 h-273z" />
<glyph unicode="&#x14c;" horiz-adv-x="1720" d="M125 614q0 242 137 458t359.5 342t461.5 126q283 0 465.5 -180t182.5 -461q0 -240 -130.5 -454t-348.5 -343t-461 -129q-291 0 -478.5 180t-187.5 461zM412 662q0 -182 120.5 -300t307.5 -118q238 0 421 183t183 431q0 180 -117 296t-299 116q-240 0 -428 -185t-188 -423 zM827 1692l35 202h574l-37 -202h-572z" />
<glyph unicode="&#x14d;" d="M94 453q0 281 219 494.5t508 213.5q217 0 358.5 -139t141.5 -352q0 -274 -221 -485.5t-510 -211.5q-211 0 -353.5 137.5t-142.5 342.5zM375 500q0 -119 76.5 -198t193.5 -79q154 0 274.5 126t120.5 284q0 121 -75.5 199.5t-190.5 78.5q-156 0 -277.5 -124.5 t-121.5 -286.5zM569 1333l35 203h574l-37 -203h-572z" />
<glyph unicode="&#x14e;" horiz-adv-x="1720" d="M125 614q0 242 137 458t359.5 342t461.5 126q283 0 465.5 -180t182.5 -461q0 -240 -130.5 -454t-348.5 -343t-461 -129q-291 0 -478.5 180t-187.5 461zM412 662q0 -182 120.5 -300t307.5 -118q238 0 421 183t183 431q0 180 -117 296t-299 116q-240 0 -428 -185t-188 -423 zM817 1892q0 23 2 39h201q18 -86 125 -86q96 0 145 86h203q-29 -125 -136.5 -201.5t-246.5 -76.5q-137 0 -215 63t-78 176z" />
<glyph unicode="&#x14f;" d="M94 453q0 281 219 494.5t508 213.5q217 0 358.5 -139t141.5 -352q0 -274 -221 -485.5t-510 -211.5q-211 0 -353.5 137.5t-142.5 342.5zM375 500q0 -119 76.5 -198t193.5 -79q154 0 274.5 126t120.5 284q0 121 -75.5 199.5t-190.5 78.5q-156 0 -277.5 -124.5 t-121.5 -286.5zM553 1534q0 23 2 39h201q18 -86 125 -86q96 0 145 86h203q-29 -125 -136.5 -202t-246.5 -77q-137 0 -215 63.5t-78 176.5z" />
<glyph unicode="&#x150;" horiz-adv-x="1720" d="M125 614q0 242 137 458t359.5 342t461.5 126q283 0 465.5 -180t182.5 -461q0 -240 -130.5 -454t-348.5 -343t-461 -129q-291 0 -478.5 180t-187.5 461zM412 662q0 -182 120.5 -300t307.5 -118q238 0 421 183t183 431q0 180 -117 296t-299 116q-240 0 -428 -185t-188 -423 zM702 1749l472 291l106 -182l-500 -271zM1280 1749l473 291l105 -182l-498 -271z" />
<glyph unicode="&#x151;" d="M94 453q0 281 219 494.5t508 213.5q217 0 358.5 -139t141.5 -352q0 -274 -221 -485.5t-510 -211.5q-211 0 -353.5 137.5t-142.5 342.5zM375 500q0 -119 76.5 -198t193.5 -79q154 0 274.5 126t120.5 284q0 121 -75.5 199.5t-190.5 78.5q-156 0 -277.5 -124.5 t-121.5 -286.5zM440 1370l471 291l107 -182l-500 -271zM1018 1370l473 291l104 -182l-497 -271z" />
<glyph unicode="&#x152;" horiz-adv-x="2170" d="M143 594q0 250 127 468t342 348t459 130q315 0 445 -197l30 170h729l-49 -270h-444l-68 -352h422l-49 -270h-422l-66 -351h445l-49 -270h-729l30 168q-94 -90 -228 -142.5t-273 -52.5q-287 0 -469.5 173.5t-182.5 447.5zM430 651q0 -178 112.5 -291.5t295.5 -113.5 q240 0 412.5 182t172.5 434q0 182 -109.5 294t-287.5 112q-242 0 -419 -188.5t-177 -428.5z" />
<glyph unicode="&#x153;" horiz-adv-x="2211" d="M94 455q0 279 214 492.5t495 213.5q147 0 245.5 -54t172.5 -173q127 123 238.5 175t246.5 52q219 0 357.5 -126t138.5 -324q0 -102 -48 -265h-878q14 -106 90 -164.5t182 -58.5q72 0 146.5 31t122.5 80h288q-61 -145 -240 -253t-362 -108q-143 0 -253.5 61.5 t-164.5 170.5q-201 -231 -493 -232q-221 0 -359.5 133.5t-138.5 348.5zM375 498q0 -119 76.5 -197t193.5 -78q166 0 280.5 128t114.5 286q0 123 -73.5 198.5t-194.5 75.5q-160 0 -278.5 -122.5t-118.5 -290.5zM1309 688h618q-16 115 -80.5 169t-183.5 54q-231 0 -354 -223z " />
<glyph unicode="&#x154;" horiz-adv-x="1187" d="M78 0l280 1513h437q489 0 489 -380q0 -213 -126 -365t-361 -209l305 -559h-346l-291 580l-107 -580h-280zM506 791h137q186 0 270 76.5t84 199.5q0 94 -60 135t-222 41h-125zM653 1774l484 260l96 -203l-498 -238z" />
<glyph unicode="&#x155;" horiz-adv-x="655" d="M49 0l211 1135h250l-21 -111q66 80 129.5 109.5t163.5 27.5l-49 -262q-121 -2 -199.5 -73.5t-95.5 -194.5l-116 -631h-273zM371 1415l483 260l96 -202l-497 -238z" />
<glyph unicode="&#x156;" horiz-adv-x="1187" d="M78 0l280 1513h437q489 0 489 -380q0 -213 -126 -365t-361 -209l305 -559h-346l-291 580l-107 -580h-280zM254 -502l190 393h215l-192 -393h-213zM506 791h137q186 0 270 76.5t84 199.5q0 94 -60 135t-222 41h-125z" />
<glyph unicode="&#x157;" horiz-adv-x="655" d="M-74 -502l191 393h215l-193 -393h-213zM49 0l211 1135h250l-21 -111q66 80 129.5 109.5t163.5 27.5l-49 -262q-121 -2 -199.5 -73.5t-95.5 -194.5l-116 -631h-273z" />
<glyph unicode="&#x158;" horiz-adv-x="1187" d="M78 0l280 1513h437q489 0 489 -380q0 -213 -126 -365t-361 -209l305 -559h-346l-291 580l-107 -580h-280zM463 1933h297l84 -131l135 131h301l-354 -282h-219zM506 791h137q186 0 270 76.5t84 199.5q0 94 -60 135t-222 41h-125z" />
<glyph unicode="&#x159;" horiz-adv-x="655" d="M49 0l211 1135h250l-21 -111q66 80 129.5 109.5t163.5 27.5l-49 -262q-121 -2 -199.5 -73.5t-95.5 -194.5l-116 -631h-273zM182 1575h297l84 -131l135 131h301l-354 -283h-219z" />
<glyph unicode="&#x15a;" horiz-adv-x="1064" d="M39 350q0 16 4 82h293q-2 -16 -2 -43q0 -68 46 -106.5t128 -38.5q102 0 174 64.5t72 156.5q0 78 -45 117q-31 25 -66 42t-176 74q-248 98 -248 338q0 199 159 351.5t363 152.5q164 0 273.5 -95t109.5 -239q0 -45 -8 -96h-289q0 90 -31.5 125t-103.5 35q-78 0 -132 -55.5 t-54 -131.5q0 -59 61 -104q31 -23 156 -68q170 -63 243.5 -149t73.5 -219q0 -223 -176 -396.5t-401 -173.5q-190 0 -307 105.5t-117 271.5zM596 1774l483 260l97 -203l-498 -238z" />
<glyph unicode="&#x15b;" horiz-adv-x="901" d="M39 281q0 18 4 79h274q4 -137 127 -137q59 0 102.5 39t43.5 92q0 41 -32 64.5t-136 60.5q-150 51 -204 110.5t-54 168.5q0 164 134 283.5t316 119.5q125 0 218.5 -77.5t93.5 -184.5q0 -31 -6 -78h-267q-4 90 -90 90q-47 0 -83 -33.5t-36 -78.5q0 -35 25 -52.5t143 -54.5 q145 -47 201.5 -104.5t56.5 -159.5q0 -180 -146 -317.5t-339 -137.5q-154 0 -250 85.5t-96 222.5zM471 1415l483 260l97 -202l-498 -238z" />
<glyph unicode="&#x15c;" horiz-adv-x="1064" d="M39 350q0 16 4 82h293q-2 -16 -2 -43q0 -68 46 -106.5t128 -38.5q102 0 174 64.5t72 156.5q0 78 -45 117q-31 25 -66 42t-176 74q-248 98 -248 338q0 199 159 351.5t363 152.5q164 0 273.5 -95t109.5 -239q0 -45 -8 -96h-289q0 90 -31.5 125t-103.5 35q-78 0 -132 -55.5 t-54 -131.5q0 -59 61 -104q31 -23 156 -68q170 -63 243.5 -149t73.5 -219q0 -223 -176 -396.5t-401 -173.5q-190 0 -307 105.5t-117 271.5zM354 1651l355 282h219l243 -282h-297l-83 131l-136 -131h-301z" />
<glyph unicode="&#x15d;" horiz-adv-x="901" d="M39 281q0 18 4 79h274q4 -137 127 -137q59 0 102.5 39t43.5 92q0 41 -32 64.5t-136 60.5q-150 51 -204 110.5t-54 168.5q0 164 134 283.5t316 119.5q125 0 218.5 -77.5t93.5 -184.5q0 -31 -6 -78h-267q-4 90 -90 90q-47 0 -83 -33.5t-36 -78.5q0 -35 25 -52.5t143 -54.5 q145 -47 201.5 -104.5t56.5 -159.5q0 -180 -146 -317.5t-339 -137.5q-154 0 -250 85.5t-96 222.5zM229 1292l355 283h219l244 -283h-297l-84 131l-136 -131h-301z" />
<glyph unicode="&#x15e;" horiz-adv-x="1064" d="M39 350q0 16 4 82h293q-2 -16 -2 -43q0 -68 46 -106.5t128 -38.5q102 0 174 64.5t72 156.5q0 78 -45 117q-31 25 -66 42t-176 74q-248 98 -248 338q0 199 159 351.5t363 152.5q164 0 273.5 -95t109.5 -239q0 -45 -8 -96h-289q0 90 -31.5 125t-103.5 35q-78 0 -132 -55.5 t-54 -131.5q0 -59 61 -104q31 -23 156 -68q170 -63 243.5 -149t73.5 -219q0 -221 -173 -393.5t-398 -176.5l-61 -92q41 14 61 15q66 0 109 -47.5t43 -118.5q0 -12 -5 -41q-16 -90 -80.5 -145.5t-152.5 -55.5q-80 0 -126 47t-46 125h125q14 -59 65 -59q37 0 69 33.5t32 74.5 q0 31 -18.5 52.5t-47.5 21.5q-39 0 -88 -55l-96 53l119 201q-152 25 -242 124t-90 244z" />
<glyph unicode="&#x15f;" horiz-adv-x="901" d="M39 281q0 18 4 79h274q4 -137 127 -137q59 0 102.5 39t43.5 92q0 41 -32 64.5t-136 60.5q-150 51 -204 110.5t-54 168.5q0 164 134 283.5t316 119.5q125 0 218.5 -77.5t93.5 -184.5q0 -31 -6 -78h-267q-4 90 -90 90q-47 0 -83 -33.5t-36 -78.5q0 -35 25 -52.5t143 -54.5 q145 -47 201.5 -104.5t56.5 -159.5q0 -168 -131 -302t-309 -151l-63 -94q41 14 61 15q66 0 109 -47.5t43 -118.5q0 -12 -5 -41q-16 -90 -80.5 -145.5t-152.5 -55.5q-80 0 -126 47t-46 125h125q14 -59 65 -59q37 0 69 33.5t32 74.5q0 31 -18.5 52.5t-47.5 21.5q-39 0 -88 -55 l-96 53l115 196q-129 16 -208 98.5t-79 205.5z" />
<glyph unicode="&#x160;" horiz-adv-x="1064" d="M39 350q0 16 4 82h293q-2 -16 -2 -43q0 -68 46 -106.5t128 -38.5q102 0 174 64.5t72 156.5q0 78 -45 117q-31 25 -66 42t-176 74q-248 98 -248 338q0 199 159 351.5t363 152.5q164 0 273.5 -95t109.5 -239q0 -45 -8 -96h-289q0 90 -31.5 125t-103.5 35q-78 0 -132 -55.5 t-54 -131.5q0 -59 61 -104q31 -23 156 -68q170 -63 243.5 -149t73.5 -219q0 -223 -176 -396.5t-401 -173.5q-190 0 -307 105.5t-117 271.5zM406 1933h296l84 -131l136 131h301l-355 -282h-219z" />
<glyph unicode="&#x161;" horiz-adv-x="901" d="M39 281q0 18 4 79h274q4 -137 127 -137q59 0 102.5 39t43.5 92q0 41 -32 64.5t-136 60.5q-150 51 -204 110.5t-54 168.5q0 164 134 283.5t316 119.5q125 0 218.5 -77.5t93.5 -184.5q0 -31 -6 -78h-267q-4 90 -90 90q-47 0 -83 -33.5t-36 -78.5q0 -35 25 -52.5t143 -54.5 q145 -47 201.5 -104.5t56.5 -159.5q0 -180 -146 -317.5t-339 -137.5q-154 0 -250 85.5t-96 222.5zM283 1575h297l84 -131l135 131h301l-355 -283h-219z" />
<glyph unicode="&#x162;" horiz-adv-x="860" d="M150 -340h124q14 -59 66 -59q37 0 68.5 33.5t31.5 74.5q0 31 -18.5 52.5t-46.5 21.5q-39 0 -88 -55l-97 53l129 219h-90l232 1243h-279l49 270h844l-49 -270h-285l-231 -1243h-84l-80 -119q41 14 62 15q66 0 108.5 -47.5t42.5 -118.5q0 -12 -4 -41q-16 -90 -80.5 -145.5 t-152.5 -55.5q-80 0 -126 47t-46 125z" />
<glyph unicode="&#x163;" horiz-adv-x="614" d="M6 -340h125q14 -59 66 -59q37 0 68.5 33.5t31.5 74.5q0 31 -18.5 52.5t-47.5 21.5q-39 0 -88 -55l-96 53l129 219h-86l164 887h-133l47 248h133l70 378h272l-70 -378h164l-47 -248h-164l-164 -887h-79l-80 -119q41 14 61 15q66 0 109 -47.5t43 -118.5q0 -12 -4 -41 q-16 -90 -81 -145.5t-153 -55.5q-80 0 -126 47t-46 125z" />
<glyph unicode="&#x164;" horiz-adv-x="860" d="M182 1243l49 270h844l-49 -270h-285l-231 -1243h-281l232 1243h-279zM319 1933h297l84 -131l136 131h301l-355 -282h-219z" />
<glyph unicode="&#x165;" horiz-adv-x="614" d="M90 0l164 887h-133l47 248h133l70 378h272l-70 -378h164l-47 -248h-164l-164 -887h-272zM639 1190l190 393h215l-192 -393h-213z" />
<glyph unicode="&#x168;" d="M162 360q0 90 20 195l176 958h281l-176 -958q-18 -98 -19 -143q0 -70 55.5 -119t133.5 -49q231 0 291 311l176 958h280l-176 -958q-51 -279 -220 -430.5t-400 -151.5q-182 0 -302 109.5t-120 277.5zM586 1827q41 43 97 70.5t101 27.5q25 0 115 -31.5t111 -31.5 q43 0 69.5 11t96.5 60l69 -168q-92 -115 -221 -114q-14 0 -122.5 31.5t-125.5 31.5q-41 0 -112 -61z" />
<glyph unicode="&#x169;" horiz-adv-x="1228" d="M119 311q0 82 24 215l113 609h272l-102 -555q-23 -117 -20 -197q0 -76 45 -118t122 -42q135 0 210 77t116 300l98 535h273l-211 -1135h-252l20 109q-164 -135 -356 -136q-166 0 -259 95.5t-93 242.5zM483 1468q41 43 97.5 71t101.5 28q27 0 117 -32t108 -32q43 0 70 11.5 t96 60.5l70 -168q-92 -115 -221 -115q-14 0 -123 32t-125 32q-41 0 -113 -62z" />
<glyph unicode="&#x16a;" d="M162 360q0 90 20 195l176 958h281l-176 -958q-18 -98 -19 -143q0 -70 55.5 -119t133.5 -49q231 0 291 311l176 958h280l-176 -958q-51 -279 -220 -430.5t-400 -151.5q-182 0 -302 109.5t-120 277.5zM618 1692l35 202h574l-37 -202h-572z" />
<glyph unicode="&#x16b;" horiz-adv-x="1228" d="M119 311q0 82 24 215l113 609h272l-102 -555q-23 -117 -20 -197q0 -76 45 -118t122 -42q135 0 210 77t116 300l98 535h273l-211 -1135h-252l20 109q-164 -135 -356 -136q-166 0 -259 95.5t-93 242.5zM516 1333l35 203h573l-37 -203h-571z" />
<glyph unicode="&#x16c;" d="M162 360q0 90 20 195l176 958h281l-176 -958q-18 -98 -19 -143q0 -70 55.5 -119t133.5 -49q231 0 291 311l176 958h280l-176 -958q-51 -279 -220 -430.5t-400 -151.5q-182 0 -302 109.5t-120 277.5zM608 1892q0 23 2 39h201q18 -86 125 -86q96 0 145 86h203 q-29 -125 -136.5 -201.5t-246.5 -76.5q-137 0 -215 63t-78 176z" />
<glyph unicode="&#x16d;" horiz-adv-x="1228" d="M119 311q0 82 24 215l113 609h272l-102 -555q-23 -117 -20 -197q0 -76 45 -118t122 -42q135 0 210 77t116 300l98 535h273l-211 -1135h-252l20 109q-164 -135 -356 -136q-166 0 -259 95.5t-93 242.5zM500 1534q0 23 2 39h200q18 -86 125 -86q96 0 146 86h203 q-29 -125 -136.5 -202t-246.5 -77q-137 0 -215 63.5t-78 176.5z" />
<glyph unicode="&#x16e;" d="M162 360q0 90 20 195l176 958h281l-176 -958q-18 -98 -19 -143q0 -70 55.5 -119t133.5 -49q231 0 291 311l176 958h280l-176 -958q-51 -279 -220 -430.5t-400 -151.5q-182 0 -302 109.5t-120 277.5zM690 1774q0 111 85 193.5t196 82.5q82 0 137 -53t55 -133 q0 -111 -85 -194t-197 -83q-84 0 -137.5 52.5t-53.5 134.5zM844 1800q0 -25 20.5 -44t48.5 -19q37 0 67 29.5t30 66.5q0 27 -20.5 47.5t-47.5 20.5q-39 0 -68.5 -31t-29.5 -70z" />
<glyph unicode="&#x16f;" horiz-adv-x="1228" d="M119 311q0 82 24 215l113 609h272l-102 -555q-23 -117 -20 -197q0 -76 45 -118t122 -42q135 0 210 77t116 300l98 535h273l-211 -1135h-252l20 109q-164 -135 -356 -136q-166 0 -259 95.5t-93 242.5zM586 1409q0 111 85 194t197 83q80 0 135.5 -53.5t55.5 -133.5 q0 -111 -85 -193.5t-196 -82.5q-84 0 -138 52t-54 134zM739 1436q0 -25 20.5 -44.5t49.5 -19.5q37 0 66.5 30t29.5 66q0 27 -20.5 47.5t-46.5 20.5q-39 0 -69 -30.5t-30 -69.5z" />
<glyph unicode="&#x170;" d="M162 360q0 90 20 195l176 958h281l-176 -958q-18 -98 -19 -143q0 -70 55.5 -119t133.5 -49q231 0 291 311l176 958h280l-176 -958q-51 -279 -220 -430.5t-400 -151.5q-182 0 -302 109.5t-120 277.5zM494 1749l471 291l106 -182l-500 -271zM1071 1749l473 291l105 -182 l-498 -271z" />
<glyph unicode="&#x171;" horiz-adv-x="1228" d="M119 311q0 82 24 215l113 609h272l-102 -555q-23 -117 -20 -197q0 -76 45 -118t122 -42q135 0 210 77t116 300l98 535h273l-211 -1135h-252l20 109q-164 -135 -356 -136q-166 0 -259 95.5t-93 242.5zM387 1370l471 291l107 -182l-500 -271zM965 1370l473 291l104 -182 l-498 -271z" />
<glyph unicode="&#x172;" d="M162 360q0 90 20 195l176 958h281l-176 -958q-18 -98 -19 -143q0 -70 55.5 -119t133.5 -49q231 0 291 311l176 958h280l-176 -958q-66 -362 -330 -510q-217 -117 -217 -240q0 -41 20.5 -70.5t57.5 -29.5q57 0 99 6l-37 -211q-57 -12 -127 -12q-92 0 -158 75t-66 163 q0 123 160 247h-22q-182 0 -302 109.5t-120 277.5z" />
<glyph unicode="&#x173;" horiz-adv-x="1228" d="M119 311q0 82 24 215l113 609h272l-102 -555q-23 -117 -20 -197q0 -76 45 -118t122 -42q135 0 210 77t116 300l98 535h273l-211 -1135q-102 -33 -167 -90t-65 -105q0 -41 20.5 -70.5t57.5 -29.5q57 0 99 6l-37 -211q-57 -12 -129 -12q-92 0 -157 75t-65 163 q0 72 45.5 135t147.5 139q-2 0 8 53l10 56q-164 -135 -356 -136q-166 0 -259 95.5t-93 242.5z" />
<glyph unicode="&#x174;" horiz-adv-x="1843" d="M233 1513h287l70 -1056l454 1056h205l58 -1056l465 1056h286l-723 -1513h-223l-57 1001l-437 -1001h-221zM764 1651l354 282h219l244 -282h-297l-84 131l-135 -131h-301z" />
<glyph unicode="&#x175;" horiz-adv-x="1638" d="M170 1135h293l74 -693l319 693h217l57 -693l336 693h291l-620 -1135h-170l-78 735l-357 -735h-167zM584 1292l354 283h219l244 -283h-297l-84 131l-135 -131h-301z" />
<glyph unicode="&#x176;" horiz-adv-x="1269" d="M225 1513h303l205 -696l465 696h303l-674 -954l-104 -559h-281l105 559zM481 1651l355 282h219l243 -282h-297l-83 131l-136 -131h-301z" />
<glyph unicode="&#x177;" horiz-adv-x="1187" d="M88 -379l299 485l-225 1029h311l115 -736l411 736h314l-932 -1514h-293zM356 1292l355 283h219l244 -283h-297l-84 131l-136 -131h-301z" />
<glyph unicode="&#x178;" horiz-adv-x="1269" d="M225 1513h303l205 -696l465 696h303l-674 -954l-104 -559h-281l105 559zM526 1657l52 270h272l-51 -270h-273zM956 1657l52 270h272l-51 -270h-273z" />
<glyph unicode="&#x179;" horiz-adv-x="1024" d="M-25 0l43 240l762 1003h-542l49 270h876l-47 -253l-754 -990h609l-49 -270h-947zM584 1774l483 260l96 -203l-497 -238z" />
<glyph unicode="&#x17a;" horiz-adv-x="942" d="M-20 0l45 242l624 651h-444l45 242h770l-45 -242l-623 -651h539l-45 -242h-866zM496 1415l483 260l96 -202l-497 -238z" />
<glyph unicode="&#x17b;" horiz-adv-x="1024" d="M-25 0l43 240l762 1003h-542l49 270h876l-47 -253l-754 -990h609l-49 -270h-947zM614 1657l52 270h272l-51 -270h-273z" />
<glyph unicode="&#x17c;" horiz-adv-x="942" d="M-20 0l45 242l624 651h-444l45 242h770l-45 -242l-623 -651h539l-45 -242h-866zM528 1298l52 271h272l-51 -271h-273z" />
<glyph unicode="&#x17d;" horiz-adv-x="1024" d="M-25 0l43 240l762 1003h-542l49 270h876l-47 -253l-754 -990h609l-49 -270h-947zM393 1933h297l84 -131l135 131h301l-354 -282h-219z" />
<glyph unicode="&#x17e;" horiz-adv-x="942" d="M-20 0l45 242l624 651h-444l45 242h770l-45 -242l-623 -651h539l-45 -242h-866zM307 1575h297l84 -131l135 131h301l-354 -283h-219z" />
<glyph unicode="&#x17f;" horiz-adv-x="573" d="M55 0l164 887h-98l43 227h98q47 178 139 270q129 129 304 129q35 0 79 -4l-49 -258h-14h-23q-145 0 -163 -137l-207 -1114h-273z" />
<glyph unicode="&#x18e;" horiz-adv-x="1064" d="M78 0l51 270h533l65 351h-510l51 270h510l62 352h-533l51 270h813l-280 -1513h-813z" />
<glyph unicode="&#x192;" horiz-adv-x="1146" d="M-152 -291l84 238h25q20 -2 45 -2q115 0 178.5 64.5t130.5 252.5l252 701h-192l82 229h194l21 53q47 123 76.5 174t84.5 105q74 72 170.5 113.5t184.5 41.5q23 0 78 -6l-84 -239q-57 0 -97.5 -12.5t-71 -48.5t-50 -71.5t-54.5 -109.5h189l-82 -229h-191l-266 -746 q-61 -174 -108.5 -258t-114.5 -137q-160 -127 -373 -127q-60 0 -111 14z" />
<glyph unicode="&#x1a0;" horiz-adv-x="1753" d="M125 614q0 156 66.5 317t181.5 288q143 156 326.5 238.5t383.5 82.5q164 0 298.5 -64.5t222.5 -179.5q86 90 94 217h194q-31 -270 -194 -399q33 -98 33 -215q0 -240 -130.5 -454t-348.5 -343t-461 -129q-291 0 -478.5 180t-187.5 461zM412 662q0 -182 120.5 -300 t307.5 -118q139 0 263 63.5t212 179.5q129 172 129 371q0 180 -117 296t-299 116q-295 0 -481 -244q-135 -174 -135 -364z" />
<glyph unicode="&#x1a1;" horiz-adv-x="1478" d="M94 453q0 281 219 494.5t508 213.5q143 0 258 -63.5t176 -175.5q82 88 91 213h194q-33 -291 -221 -420q0 -6 1 -22.5t1 -22.5q0 -274 -221 -485.5t-510 -211.5q-211 0 -353.5 137.5t-142.5 342.5zM375 500q0 -119 76.5 -198t193.5 -79q154 0 274.5 126t120.5 284 q0 121 -75.5 199.5t-190.5 78.5q-156 0 -277.5 -124.5t-121.5 -286.5z" />
<glyph unicode="&#x1af;" horiz-adv-x="1499" d="M162 360q0 90 20 195l176 958h281l-176 -958q-18 -98 -19 -143q0 -70 55.5 -119t133.5 -49q131 0 213 102q53 68 78 209l176 958h280l-49 -264q137 92 152 264h194q-25 -225 -129 -337.5t-260 -159.5l-84 -461q-45 -250 -174 -387q-84 -90 -204.5 -142.5t-241.5 -52.5 q-182 0 -302 109.5t-120 277.5z" />
<glyph unicode="&#x1b0;" horiz-adv-x="1501" d="M119 311q0 82 24 215l113 609h272l-102 -555q-20 -102 -20 -197q0 -76 45 -118t122 -42q150 0 232 105q55 66 94 272l98 535h273l-51 -277q156 96 167 277h195q-14 -123 -53 -214.5t-98.5 -146.5t-119 -88t-134.5 -53l-117 -633h-252l20 109q-164 -135 -356 -136 q-166 0 -256 90q-41 43 -68.5 112.5t-27.5 135.5z" />
<glyph unicode="&#x1dd;" d="M96 434q0 156 41 254h879q0 98 -75 160.5t-191 62.5q-164 0 -277 -112h-297q92 168 256 265t356 97q227 0 371 -135t144 -348q0 -279 -218.5 -492t-502.5 -213q-213 0 -349.5 129t-136.5 332zM350 446q12 -223 275 -223q119 0 217 61.5t137 161.5h-629z" />
<glyph unicode="&#x1e6;" horiz-adv-x="1720" d="M125 614q0 238 134 453t356.5 344t468 129t432 -137t221.5 -334h-330q-123 201 -369 201q-256 0 -441 -183.5t-185 -422.5q0 -184 121.5 -302t322.5 -118q147 0 277.5 70.5t214.5 195.5h-627l49 262h987q-20 -205 -157.5 -390t-347.5 -297t-433 -112q-305 0 -499.5 180 t-194.5 461zM748 1933h296l84 -131l136 131h301l-355 -282h-219z" />
<glyph unicode="&#x1e7;" horiz-adv-x="1351" d="M0 -92h309q47 -66 107.5 -93.5t156.5 -27.5q150 0 243 86t142 277q-98 -94 -190 -135.5t-213 -41.5q-211 0 -336 128t-125 343q0 293 204 505t482 212q119 0 198 -40t136 -130l27 144h260l-170 -920q-123 -668 -715 -668q-418 1 -516 361zM375 477q0 -119 69.5 -186.5 t192.5 -67.5q170 0 282.5 125t112.5 297q0 121 -73.5 193.5t-194.5 72.5q-170 0 -279.5 -123t-109.5 -311zM449 1575h296l84 -131l136 131h301l-355 -283h-219z" />
<glyph unicode="&#x1ea;" horiz-adv-x="1720" d="M125 614q0 242 137 458t359.5 342t461.5 126q283 0 465.5 -180t182.5 -461q0 -268 -164 -502.5t-420 -347.5q-61 -27 -99 -46t-85.5 -50t-70 -68t-22.5 -80q0 -41 20.5 -70.5t57.5 -29.5q57 0 99 6l-37 -211q-57 -12 -127 -12q-92 0 -158 75t-66 163q0 123 160 247h-28 q-291 0 -478.5 180t-187.5 461zM412 662q0 -182 120.5 -300t307.5 -118q238 0 421 183t183 431q0 180 -117 296t-299 116q-240 0 -428 -185t-188 -423z" />
<glyph unicode="&#x1eb;" d="M94 453q0 281 219 494.5t508 213.5q217 0 358.5 -139t141.5 -352q0 -180 -103.5 -342t-269.5 -258q-86 -49 -137 -81t-102.5 -84t-51.5 -100q0 -41 20.5 -70.5t57.5 -29.5q57 0 99 6l-37 -211q-57 -12 -127 -12q-92 0 -158 75t-66 163q0 123 158 247h-14 q-211 0 -353.5 137.5t-142.5 342.5zM375 500q0 -119 76.5 -198t193.5 -79q154 0 274.5 126t120.5 284q0 121 -75.5 199.5t-190.5 78.5q-156 0 -277.5 -124.5t-121.5 -286.5z" />
<glyph unicode="&#x1f4;" horiz-adv-x="1720" d="M125 614q0 238 134 453t356.5 344t468 129t432 -137t221.5 -334h-330q-123 201 -369 201q-256 0 -441 -183.5t-185 -422.5q0 -184 121.5 -302t322.5 -118q147 0 277.5 70.5t214.5 195.5h-627l49 262h987q-20 -205 -157.5 -390t-347.5 -297t-433 -112q-305 0 -499.5 180 t-194.5 461zM938 1774l483 260l97 -203l-498 -238z" />
<glyph unicode="&#x1f5;" horiz-adv-x="1351" d="M0 -92h309q47 -66 107.5 -93.5t156.5 -27.5q150 0 243 86t142 277q-98 -94 -190 -135.5t-213 -41.5q-211 0 -336 128t-125 343q0 293 204 505t482 212q119 0 198 -40t136 -130l27 144h260l-170 -920q-123 -668 -715 -668q-418 1 -516 361zM375 477q0 -119 69.5 -186.5 t192.5 -67.5q170 0 282.5 125t112.5 297q0 121 -73.5 193.5t-194.5 72.5q-170 0 -279.5 -123t-109.5 -311zM637 1415l483 260l97 -202l-498 -238z" />
<glyph unicode="&#x1fa;" horiz-adv-x="1515" d="M-47 0l911 1513h221l355 -1513h-310l-90 391h-538l-240 -391h-309zM655 662h324l-78 456zM795 1774q0 111 85 193.5t195 82.5q82 0 137.5 -53t55.5 -133q0 -111 -85 -194t-198 -83q-84 0 -137 52.5t-53 134.5zM926 2271l483 260l96 -202l-497 -238zM948 1800 q0 -25 20.5 -44t49.5 -19q37 0 66.5 29.5t29.5 66.5q0 27 -20.5 47.5t-46.5 20.5q-39 0 -69 -31t-30 -70z" />
<glyph unicode="&#x1fb;" horiz-adv-x="1351" d="M92 436q0 297 209 511t498 214q238 0 334 -178l26 152h250l-209 -1135h-250l27 147q-182 -174 -410 -174q-215 0 -345 127t-130 336zM373 492q0 -123 74.5 -196t201.5 -73q170 0 287 120t117 298q0 125 -74 197.5t-201 72.5q-164 0 -284.5 -125.5t-120.5 -293.5z M614 1395q0 111 85 193.5t196 82.5q82 0 137 -53t55 -133q0 -111 -84.5 -194t-197.5 -83q-84 0 -137.5 52.5t-53.5 134.5zM745 1892l484 260l96 -202l-498 -238zM768 1421q0 -25 20.5 -44t49.5 -19q37 0 66.5 29.5t29.5 66.5q0 27 -20.5 47.5t-47.5 20.5q-39 0 -68.5 -31 t-29.5 -70z" />
<glyph unicode="&#x1fc;" horiz-adv-x="1843" d="M-27 0l1278 1513h695l-50 -270h-446l-68 -352h424l-49 -270h-424l-65 -351h446l-49 -270h-727l72 391h-398l-303 -391h-336zM825 662h236l72 389zM1219 1774l483 260l96 -203l-498 -238z" />
<glyph unicode="&#x1fd;" horiz-adv-x="2211" d="M94 442q0 287 212 503t493 216q113 0 186.5 -32.5t132.5 -106.5l21 113h250l-21 -113q156 139 377 139q199 0 331 -131t132 -330q0 -119 -56 -251h-876q12 -102 87 -164t189 -62q152 0 263 113h296q-90 -164 -251.5 -263.5t-337.5 -99.5q-113 0 -189 33t-131 117 l-24 -123h-250l24 123q-90 -84 -168.5 -117t-193.5 -33q-221 0 -358.5 130t-137.5 339zM375 492q0 -121 72.5 -195t193.5 -74q158 0 274.5 124t116.5 292q0 125 -77.5 198.5t-186.5 73.5q-162 0 -277.5 -123.5t-115.5 -295.5zM1116 1415l483 260l97 -202l-498 -238z M1307 690h622q-23 127 -86 174t-180 47q-241 0 -356 -221z" />
<glyph unicode="&#x1fe;" horiz-adv-x="1720" d="M125 -23l170 201q-160 186 -160 430q0 240 132 456t350.5 346t459.5 130q166 0 324 -67l188 219l166 -142l-180 -209q168 -162 168 -444q0 -225 -128 -439t-347 -349.5t-463 -135.5q-168 0 -336 74l-180 -211zM422 659q0 -115 74 -247l706 829q-84 29 -170 29 q-240 0 -425 -185.5t-185 -425.5zM666 279q88 -35 182 -35q244 0 426 182t182 424q0 160 -78 260zM938 1774l483 260l97 -203l-498 -238z" />
<glyph unicode="&#x1ff;" horiz-adv-x="1351" d="M94 -4l123 143q-117 145 -117 314q0 281 219.5 494.5t505.5 213.5q121 0 224 -47l133 156l149 -127l-123 -146q119 -141 119 -325q0 -270 -221 -484.5t-500 -214.5q-119 0 -233 50l-129 -154zM381 498q0 -66 29 -133l456 532q-57 14 -92 14q-152 0 -272.5 -126.5 t-120.5 -286.5zM559 238q39 -14 84 -15q158 0 281 124t123 284q0 94 -33 141zM686 1415l483 260l97 -202l-498 -238z" />
<glyph unicode="&#x200;" horiz-adv-x="1515" d="M-47 0l911 1513h221l355 -1513h-310l-90 391h-538l-240 -391h-309zM324 1858l172 182l364 -291l-139 -162zM655 662h324l-78 456zM901 1858l174 182l363 -291l-138 -162z" />
<glyph unicode="&#x201;" horiz-adv-x="1351" d="M92 436q0 297 209 511t498 214q238 0 334 -178l26 152h250l-209 -1135h-250l27 147q-182 -174 -410 -174q-215 0 -345 127t-130 336zM143 1479l172 182l365 -291l-139 -162zM373 492q0 -123 74.5 -196t201.5 -73q170 0 287 120t117 298q0 125 -74 197.5t-201 72.5 q-164 0 -284.5 -125.5t-120.5 -293.5zM721 1479l174 182l362 -291l-137 -162z" />
<glyph unicode="&#x204;" horiz-adv-x="1064" d="M78 0l280 1513h813l-49 -270h-532l-68 -352h510l-49 -270h-510l-65 -351h532l-49 -270h-813zM115 1858l172 182l364 -291l-139 -162zM692 1858l174 182l363 -291l-137 -162z" />
<glyph unicode="&#x205;" d="M94 457q0 279 218 491.5t503 212.5q213 0 349 -129t136 -332q0 -156 -40 -254h-879q0 -98 74.5 -160.5t191.5 -62.5q164 0 277 113h297q-92 -168 -256 -265.5t-357 -97.5q-227 0 -370.5 135.5t-143.5 348.5zM160 1479l172 182l364 -291l-139 -162zM418 688h629 q-12 223 -275 223q-119 0 -217 -61.5t-137 -161.5zM737 1479l174 182l363 -291l-137 -162z" />
<glyph unicode="&#x208;" horiz-adv-x="573" d="M-152 1858l172 182l365 -291l-139 -162zM78 0l280 1513h281l-281 -1513h-280zM426 1858l174 182l363 -291l-138 -162z" />
<glyph unicode="&#x209;" horiz-adv-x="491" d="M-254 1479l172 182l365 -291l-140 -162zM49 0l211 1135h272l-210 -1135h-273zM324 1479l174 182l362 -291l-137 -162z" />
<glyph unicode="&#x20c;" horiz-adv-x="1720" d="M125 614q0 242 137 458t359.5 342t461.5 126q283 0 465.5 -180t182.5 -461q0 -240 -130.5 -454t-348.5 -343t-461 -129q-291 0 -478.5 180t-187.5 461zM412 662q0 -182 120.5 -300t307.5 -118q238 0 421 183t183 431q0 180 -117 296t-299 116q-240 0 -428 -185t-188 -423 zM428 1858l172 182l365 -291l-140 -162zM1006 1858l174 182l362 -291l-137 -162z" />
<glyph unicode="&#x20d;" d="M94 453q0 281 219 494.5t508 213.5q217 0 358.5 -139t141.5 -352q0 -274 -221 -485.5t-510 -211.5q-211 0 -353.5 137.5t-142.5 342.5zM166 1479l172 182l364 -291l-139 -162zM375 500q0 -119 76.5 -198t193.5 -79q154 0 274.5 126t120.5 284q0 121 -75.5 199.5 t-190.5 78.5q-156 0 -277.5 -124.5t-121.5 -286.5zM743 1479l175 182l362 -291l-137 -162z" />
<glyph unicode="&#x210;" horiz-adv-x="1187" d="M78 0l280 1513h437q489 0 489 -380q0 -213 -126 -365t-361 -209l305 -559h-346l-291 580l-107 -580h-280zM143 1858l172 182l365 -291l-139 -162zM506 791h137q186 0 270 76.5t84 199.5q0 94 -60 135t-222 41h-125zM721 1858l174 182l362 -291l-137 -162z" />
<glyph unicode="&#x211;" horiz-adv-x="655" d="M-141 1479l172 182l364 -291l-139 -162zM49 0l211 1135h250l-21 -111q66 80 129.5 109.5t163.5 27.5l-49 -262q-121 -2 -199.5 -73.5t-95.5 -194.5l-116 -631h-273zM436 1479l174 182l363 -291l-137 -162z" />
<glyph unicode="&#x214;" d="M162 360q0 90 20 195l176 958h281l-176 -958q-18 -98 -19 -143q0 -70 55.5 -119t133.5 -49q231 0 291 311l176 958h280l-176 -958q-51 -279 -220 -430.5t-400 -151.5q-182 0 -302 109.5t-120 277.5zM219 1858l172 182l365 -291l-140 -162zM797 1858l174 182l362 -291 l-137 -162z" />
<glyph unicode="&#x215;" horiz-adv-x="1228" d="M113 1479l172 182l364 -291l-139 -162zM119 311q0 82 24 215l113 609h272l-102 -555q-23 -117 -20 -197q0 -76 45 -118t122 -42q135 0 210 77t116 300l98 535h273l-211 -1135h-252l20 109q-164 -135 -356 -136q-166 0 -259 95.5t-93 242.5zM690 1479l174 182l363 -291 l-137 -162z" />
<glyph unicode="&#x218;" horiz-adv-x="1064" d="M39 350q0 16 4 82h293q-2 -16 -2 -43q0 -68 46 -106.5t128 -38.5q102 0 174 64.5t72 156.5q0 78 -45 117q-31 25 -66 42t-176 74q-248 98 -248 338q0 199 159 351.5t363 152.5q164 0 273.5 -95t109.5 -239q0 -45 -8 -96h-289q0 90 -31.5 125t-103.5 35q-78 0 -132 -55.5 t-54 -131.5q0 -59 61 -104q31 -23 156 -68q170 -63 243.5 -149t73.5 -219q0 -223 -176 -396.5t-401 -173.5q-190 0 -307 105.5t-117 271.5zM197 -502l190 393h215l-192 -393h-213z" />
<glyph unicode="&#x219;" horiz-adv-x="901" d="M39 281q0 18 4 79h274q4 -137 127 -137q59 0 102.5 39t43.5 92q0 41 -32 64.5t-136 60.5q-150 51 -204 110.5t-54 168.5q0 164 134 283.5t316 119.5q125 0 218.5 -77.5t93.5 -184.5q0 -31 -6 -78h-267q-4 90 -90 90q-47 0 -83 -33.5t-36 -78.5q0 -35 25 -52.5t143 -54.5 q145 -47 201.5 -104.5t56.5 -159.5q0 -180 -146 -317.5t-339 -137.5q-154 0 -250 85.5t-96 222.5zM139 -502l191 393h215l-193 -393h-213z" />
<glyph unicode="&#x21a;" horiz-adv-x="860" d="M111 -502l190 393h215l-192 -393h-213zM182 1243l49 270h844l-49 -270h-285l-231 -1243h-281l232 1243h-279z" />
<glyph unicode="&#x21b;" horiz-adv-x="614" d="M-14 -502l190 393h215l-192 -393h-213zM90 0l164 887h-133l47 248h133l70 378h272l-70 -378h164l-47 -248h-164l-164 -887h-272z" />
<glyph unicode="&#x258;" d="M90 336h297q72 -113 234 -113q117 0 215 62.5t135 160.5h-879q-6 96 53 254q76 203 259.5 332t396.5 129q186 0 318 -100t168 -257t-25 -347q-80 -213 -273.5 -348.5t-421.5 -135.5q-193 0 -320.5 97.5t-156.5 265.5zM393 688h629q-2 100 -77 161.5t-193 61.5 q-263 0 -359 -223z" />
<glyph unicode="&#x259;" d="M96 434q0 156 41 254h879q0 98 -75 160.5t-191 62.5q-164 0 -277 -112h-297q92 168 256 265t356 97q227 0 371 -135t144 -348q0 -279 -218.5 -492t-502.5 -213q-213 0 -349.5 129t-136.5 332zM350 446q12 -223 275 -223q119 0 217 61.5t137 161.5h-629z" />
<glyph unicode="&#x2be;" horiz-adv-x="1034" d="M223 930q-2 8 4 15t15 7h204q12 0 13 -8q33 -96 143 -96q100 0 172 75.5t72 178.5q0 78 -45 125t-121 47q-111 0 -174 -90q-8 -8 -17 -8h-204q-23 0 -13 22q76 133 191 205t252 72q150 0 250 -96.5t100 -239.5q0 -193 -150.5 -341.5t-345.5 -148.5q-135 0 -228 72 t-118 209z" />
<glyph unicode="&#x2bf;" horiz-adv-x="1034" d="M240 985q-2 193 148.5 341.5t346.5 148.5q135 0 228.5 -72t117.5 -209q2 -8 -4 -15.5t-14 -7.5h-205q-12 0 -12 9q-33 96 -144 96q-100 0 -171.5 -76t-71.5 -178q0 -78 45 -125t121 -47q111 0 174 90q8 8 16 8h205q10 0 13 -7t-1 -15q-76 -133 -190.5 -205t-251.5 -72 q-150 0 -250 96.5t-100 239.5z" />
<glyph unicode="&#x2c6;" horiz-adv-x="1105" d="M322 1292l354 283h219l244 -283h-297l-84 131l-135 -131h-301z" />
<glyph unicode="&#x2c7;" horiz-adv-x="1105" d="M375 1575h297l84 -131l135 131h301l-354 -283h-220z" />
<glyph unicode="&#x2d8;" horiz-adv-x="983" d="M377 1534q0 23 2 39h201q18 -86 125 -86q96 0 145 86h203q-29 -125 -136.5 -202t-246.5 -77q-137 0 -215 63.5t-78 176.5z" />
<glyph unicode="&#x2d9;" horiz-adv-x="573" d="M330 1298l51 271h272l-51 -271h-272z" />
<glyph unicode="&#x2da;" horiz-adv-x="737" d="M340 1409q0 111 85 194t198 83q80 0 135 -53.5t55 -133.5q0 -111 -85 -193.5t-196 -82.5q-84 0 -138 52t-54 134zM494 1436q0 -25 20.5 -44.5t48.5 -19.5q37 0 66.5 30t29.5 66q0 27 -20.5 47.5t-46.5 20.5q-39 0 -68.5 -30.5t-29.5 -69.5z" />
<glyph unicode="&#x2db;" horiz-adv-x="696" d="M41 -274q0 72 45 135t147 139h250q-102 -33 -166.5 -90t-64.5 -105q0 -41 20.5 -70.5t57.5 -29.5q57 0 98 6l-37 -211q-59 -12 -129 -12q-92 0 -156.5 75t-64.5 163z" />
<glyph unicode="&#x2dc;" horiz-adv-x="983" d="M360 1468q41 43 97.5 71t101.5 28q27 0 117 -32t108 -32q43 0 70 11.5t96 60.5l70 -168q-92 -115 -221 -115q-14 0 -123 32t-125 32q-41 0 -113 -62z" />
<glyph unicode="&#x2dd;" horiz-adv-x="1433" d="M489 1370l472 291l106 -182l-500 -271zM1067 1370l473 291l105 -182l-498 -271z" />
<glyph unicode="&#x300;" horiz-adv-x="0" d="M-844 1473l172 202l387 -260l-149 -180z" />
<glyph unicode="&#x301;" horiz-adv-x="0" d="M-666 1415l484 260l96 -202l-498 -238z" />
<glyph unicode="&#x302;" horiz-adv-x="0" d="M-907 1292l354 283h219l244 -283h-297l-84 131l-135 -131h-301z" />
<glyph unicode="&#x303;" horiz-adv-x="0" d="M-807 1468q41 43 97.5 71t101.5 28q27 0 117 -32t108 -32q43 0 69.5 11.5t96.5 60.5l70 -168q-92 -115 -222 -115q-14 0 -122.5 32t-124.5 32q-41 0 -113 -62z" />
<glyph unicode="&#x304;" horiz-adv-x="0" d="M-774 1333l35 203h573l-37 -203h-571z" />
<glyph unicode="&#x306;" horiz-adv-x="0" d="M-791 1534q0 23 3 39h200q18 -86 125 -86q96 0 146 86h202q-29 -125 -136 -202t-247 -77q-137 0 -215 63.5t-78 176.5z" />
<glyph unicode="&#x307;" horiz-adv-x="0" d="M-633 1298l51 271h273l-51 -271h-273z" />
<glyph unicode="&#x308;" horiz-adv-x="0" d="M-860 1298l51 271h272l-51 -271h-272zM-430 1298l51 271h273l-52 -271h-272z" />
<glyph unicode="&#x309;" horiz-adv-x="0" d="M-719 1524q35 111 122 177t200 66q96 0 156.5 -50t60.5 -132q0 -63 -33 -111.5t-127 -105.5q-53 -33 -70.5 -58.5t-29.5 -84.5h-174q25 109 61.5 158t132.5 106q61 35 62 78q0 20 -20.5 33.5t-51.5 13.5q-41 0 -65.5 -19.5t-47.5 -70.5h-176z" />
<glyph unicode="&#x30a;" horiz-adv-x="0" d="M-705 1409q0 111 85 194t198 83q80 0 135.5 -53.5t55.5 -133.5q0 -111 -85 -193.5t-196 -82.5q-84 0 -138.5 52t-54.5 134zM-551 1436q0 -25 20.5 -44.5t49.5 -19.5q37 0 66.5 30t29.5 66q0 27 -20.5 47.5t-47.5 20.5q-39 0 -68.5 -30.5t-29.5 -69.5z" />
<glyph unicode="&#x30b;" horiz-adv-x="0" d="M-903 1370l471 291l106 -182l-499 -271zM-326 1370l473 291l105 -182l-498 -271z" />
<glyph unicode="&#x30c;" horiz-adv-x="0" d="M-854 1575h297l84 -131l135 131h301l-354 -283h-219z" />
<glyph unicode="&#x30f;" horiz-adv-x="0" d="M-1178 1479l172 182l365 -291l-139 -162zM-600 1479l174 182l363 -291l-138 -162z" />
<glyph unicode="&#x311;" horiz-adv-x="0" d="M-840 1294q29 125 136.5 202t246.5 77q137 0 215 -63.5t78 -176.5q0 -23 -2 -39h-201q-18 86 -125 86q-96 0 -145 -86h-203z" />
<glyph unicode="&#x323;" horiz-adv-x="0" d="M-954 -434l51 270h272l-51 -270h-272z" />
<glyph unicode="&#x326;" horiz-adv-x="0" d="M-997 -502l190 393h215l-192 -393h-213z" />
<glyph unicode="&#x32e;" horiz-adv-x="0" d="M-1106 -199q0 23 2 39h201q18 -86 125 -86q96 0 145 86h203q-29 -125 -136.5 -201.5t-246.5 -76.5q-137 0 -215 63t-78 176z" />
<glyph unicode="&#x32f;" horiz-adv-x="0" d="M-1155 -438q29 125 136.5 201.5t246.5 76.5q137 0 215 -63.5t78 -175.5q0 -23 -2 -39h-201q-18 86 -125 86q-96 0 -145 -86h-203z" />
<glyph unicode="&#x330;" horiz-adv-x="0" d="M-1128 -264q41 43 97 70.5t101 27.5q25 0 115 -31.5t110 -31.5q43 0 70 11t96 60l70 -168q-92 -115 -221 -114q-14 0 -123 31.5t-125 31.5q-41 0 -113 -61z" />
<glyph unicode="&#x331;" horiz-adv-x="0" d="M-1096 -399l35 202h574l-37 -202h-572z" />
<glyph unicode="&#x332;" horiz-adv-x="0" d="M-1096 -399l35 202h574l-37 -202h-572z" />
<glyph unicode="&#x391;" horiz-adv-x="1515" d="M-47 0l911 1513h221l355 -1513h-310l-90 391h-538l-240 -391h-309zM655 662h324l-78 456z" />
<glyph unicode="&#x392;" horiz-adv-x="1187" d="M78 0l280 1513h314q172 0 252 -14t139 -57q119 -88 119 -254q0 -258 -226 -363q106 -45 151.5 -110.5t45.5 -173.5q0 -236 -178 -388.5t-494 -152.5h-403zM408 270h139q319 0 319 224q0 86 -60.5 123.5t-193.5 37.5h-133zM530 930h91q274 0 274 194q0 119 -193 119h-114z " />
<glyph unicode="&#x393;" horiz-adv-x="983" d="M78 0l280 1513h770l-49 -270h-489l-232 -1243h-280z" />
<glyph unicode="&#x394;" horiz-adv-x="1241" d="M-68 -2l801 1401h234l307 -1401h-1342zM385 274h535l-138 740z" />
<glyph unicode="&#x395;" horiz-adv-x="1064" d="M78 0l280 1513h813l-49 -270h-532l-68 -352h510l-49 -270h-510l-65 -351h532l-49 -270h-813z" />
<glyph unicode="&#x396;" horiz-adv-x="1024" d="M-25 0l43 240l762 1003h-542l49 270h876l-47 -253l-754 -990h609l-49 -270h-947z" />
<glyph unicode="&#x397;" horiz-adv-x="1392" d="M78 0l280 1513h281l-113 -608h541l113 608h280l-280 -1513h-281l117 635h-541l-117 -635h-280z" />
<glyph unicode="&#x398;" horiz-adv-x="1720" d="M125 614q0 242 137 458t359.5 342t461.5 126q283 0 465.5 -180t182.5 -461q0 -240 -130.5 -454t-348.5 -343t-461 -129q-291 0 -478.5 180t-187.5 461zM412 662q0 -182 120.5 -300t307.5 -118q238 0 421 183t183 431q0 180 -117 296t-299 116q-240 0 -428 -185t-188 -423 zM610 616l52 283h583l-51 -283h-584z" />
<glyph unicode="&#x399;" horiz-adv-x="573" d="M78 0l280 1513h281l-281 -1513h-280z" />
<glyph unicode="&#x39a;" horiz-adv-x="1269" d="M78 0l280 1513h281l-121 -653l592 653h336l-705 -743l424 -770h-336l-348 666l-123 -666h-280z" />
<glyph unicode="&#x39b;" horiz-adv-x="1515" d="M-47 0l911 1513h221l355 -1513h-310l-229 1118l-639 -1118h-309z" />
<glyph unicode="&#x39c;" horiz-adv-x="1843" d="M78 0l280 1513h385l195 -1146l616 1146h385l-280 -1513h-281l211 1135l-606 -1135h-229l-185 1135l-211 -1135h-280z" />
<glyph unicode="&#x39d;" horiz-adv-x="1515" d="M78 0l280 1513h320l422 -1101l205 1101h280l-280 -1513h-314l-428 1100l-205 -1100h-280z" />
<glyph unicode="&#x39e;" horiz-adv-x="1392" d="M70 0l53 283h1128l-51 -283h-1130zM299 1231l51 282h1131l-54 -282h-1128zM471 616l53 283h555l-53 -283h-555z" />
<glyph unicode="&#x39f;" horiz-adv-x="1720" d="M125 614q0 242 137 458t359.5 342t461.5 126q283 0 465.5 -180t182.5 -461q0 -240 -130.5 -454t-348.5 -343t-461 -129q-291 0 -478.5 180t-187.5 461zM412 662q0 -182 120.5 -300t307.5 -118q238 0 421 183t183 431q0 180 -117 296t-299 116q-240 0 -428 -185t-188 -423 z" />
<glyph unicode="&#x3a0;" horiz-adv-x="1617" d="M53 0l248 1401h1049l-248 -1401h-289l199 1124h-471l-199 -1124h-289z" />
<glyph unicode="&#x3a1;" horiz-adv-x="1146" d="M78 0l280 1513h375q274 0 373 -69q141 -100 141 -293q0 -117 -49 -234.5t-131 -195.5q-94 -88 -194.5 -117t-317.5 -29h-90l-107 -575h-280zM514 844h82q176 0 270.5 55t94.5 184q0 90 -54.5 125t-222.5 35h-94z" />
<glyph unicode="&#x3a3;" horiz-adv-x="1187" d="M-41 0l39 236l369 483l-183 432l45 250h840l-49 -277h-492l170 -405l-342 -445h555l-49 -274h-903z" />
<glyph unicode="&#x3a4;" horiz-adv-x="860" d="M182 1243l49 270h844l-49 -270h-285l-231 -1243h-281l232 1243h-279z" />
<glyph unicode="&#x3a5;" horiz-adv-x="1269" d="M225 1513h303l205 -696l465 696h303l-674 -954l-104 -559h-281l105 559z" />
<glyph unicode="&#x3a6;" horiz-adv-x="1736" d="M188 758q41 211 243 345t470 165l45 245h281l-45 -245q258 -31 410.5 -165t111.5 -345q-39 -213 -240.5 -347.5t-470.5 -164.5l-47 -246h-280l47 246q-258 31 -411 165t-114 347zM471 758q-20 -109 62.5 -163t230.5 -69l86 461q-340 -30 -379 -229zM1044 526 q340 31 377 232q20 106 -61.5 160.5t-229.5 68.5z" />
<glyph unicode="&#x3a7;" horiz-adv-x="1392" d="M-51 0l659 754l-379 759h334l254 -528l461 528h326l-666 -759l385 -754h-326l-266 522l-448 -522h-334z" />
<glyph unicode="&#x3a8;" horiz-adv-x="1837" d="M260 1135l70 378h282l-69 -378q-29 -154 59 -264.5t248 -147.5l147 790h281l-148 -790q174 37 304.5 147.5t158.5 264.5l70 378h283l-70 -378q-49 -266 -277.5 -460t-519.5 -239l-82 -436h-280l82 436q-276 45 -432 239t-107 460z" />
<glyph unicode="&#x3a9;" horiz-adv-x="1609" d="M6 -2l49 283h127q-92 90 -92 280q0 63 12 131q51 307 310 520q258 215 565 215q311 0 489 -213q139 -164 140 -385q0 -63 -13 -135q-23 -125 -83 -238.5t-144 -174.5h121l-49 -283h-510l18 276q135 55 235.5 166t125.5 254q8 57 8 86q0 137 -86 238q-109 127 -285 133 l2 -4q-207 0 -364.5 -132t-190.5 -323q-8 -35 -8 -78q0 -117 60.5 -204.5t160.5 -135.5l-80 -276h-518z" />
<glyph unicode="&#x3b1;" horiz-adv-x="1558" d="M143 510q49 264 237.5 457.5t422.5 193.5q229 0 362 -203q41 102 99 177h333q-68 -84 -117.5 -187.5t-101 -236.5t-86.5 -203q8 -76 16.5 -122t34 -88t66.5 -42l-51 -283q-199 0 -291 215q-229 -215 -485 -215q-223 0 -351.5 157t-87.5 380zM426 510q-20 -106 41 -180 t168 -74q104 0 200.5 72.5t163.5 187.5q-37 362 -249 363q-119 0 -207 -109.5t-117 -259.5z" />
<glyph unicode="&#x3b2;" horiz-adv-x="1208" d="M-82 -387q98 209 131 387l211 1135q33 184 208 302.5t384 118.5q184 0 289.5 -135t70.5 -323q-35 -190 -213 -316q156 -135 119 -344q-37 -199 -201.5 -340t-361.5 -141q-115 0 -225 35q-43 -219 -117 -379h-295zM381 260q90 -20 227 -20q80 0 145.5 58t82.5 140 q18 96 -54.5 155.5t-187.5 59.5l47 250q102 0 187 54.5t102 140.5q14 72 -24 124t-107 52q-94 0 -169 -35t-87 -104z" />
<glyph unicode="&#x3b3;" horiz-adv-x="1030" d="M96 1135h389q180 -238 217 -584l340 584h306l-678 -1162l-68 -360h-283l72 387q57 309 -25 598t-270 537z" />
<glyph unicode="&#x3b4;" horiz-adv-x="1427" d="M143 453q0 221 142.5 407.5t357.5 261.5l-225 172l114 234h787l-47 -254h-371q131 -106 270 -203q199 -143 199 -401q0 -274 -221 -485.5t-510 -211.5q-211 0 -353.5 137.5t-142.5 342.5zM424 500q0 -119 77 -198t193 -79q154 0 275 126t121 284q0 121 -76 199.5 t-191 78.5q-156 0 -277.5 -124.5t-121.5 -286.5z" />
<glyph unicode="&#x3b5;" horiz-adv-x="960" d="M117 360q27 152 174 256q-84 92 -60 224q29 158 138.5 275.5t246.5 117.5q172 0 375 -94l-141 -236q-104 47 -285 47q-33 0 -51 -110q-10 -55 43 -78t139 -23l-47 -254q-96 0 -166.5 -29.5t-83.5 -95.5q-14 -72 5.5 -123t72.5 -51q172 0 273 39l57 -233 q-227 -88 -383 -88q-168 0 -255 135t-52 321z" />
<glyph unicode="&#x3b6;" horiz-adv-x="960" d="M154 567q74 389 387 693h-258l47 253h739l-47 -253h-104q-188 -115 -315.5 -299.5t-166.5 -393.5q-12 -66 -16 -102.5t-4 -85.5t19.5 -72.5t58.5 -23.5h51q131 0 184 -121t23 -285l-50 -264h-253l49 264q25 123 -6 123h-50q-182 0 -256.5 169t-31.5 398z" />
<glyph unicode="&#x3b7;" horiz-adv-x="1208" d="M49 0l211 1135h283l-8 -43q129 70 258 69q186 0 300.5 -115.5t82.5 -289.5l-211 -1143h-283l211 1143q12 57 -34 90t-118 33q-88 0 -164.5 -59.5t-119.5 -149.5l-125 -670h-283z" />
<glyph unicode="&#x3b8;" horiz-adv-x="1038" d="M151 435q1 124 27 265q160 840 565 840q412 0 252 -840q-27 -141 -70.5 -265t-109 -230.5t-159 -169t-204 -62.5t-180 62.5t-96 169t-25.5 230.5zM425 348q13 -92 81 -92q113 0 180 303h-250q-24 -119 -11 -211zM489 842h250q70 416 -47 415q-121 1 -203 -415z" />
<glyph unicode="&#x3b9;" horiz-adv-x="849" d="M244 455l127 680h282l-127 -680q-16 -90 42.5 -151.5t154.5 -61.5l-53 -283q-213 0 -339 144.5t-87 351.5z" />
<glyph unicode="&#x3ba;" horiz-adv-x="1187" d="M49 0l211 1135h272l-100 -535l461 535h326l-508 -555l364 -580h-366l-289 530l-98 -530h-273z" />
<glyph unicode="&#x3bb;" horiz-adv-x="1478" d="M49 0l752 1032l-10 51q-14 82 -82 129.5t-160 47.5l53 282q178 0 308 -97t163 -259l236 -1186h-303l-136 684l-497 -684h-324z" />
<glyph unicode="&#x3bc;" horiz-adv-x="1179" d="M-23 -387l283 1522h283l-125 -676q14 -188 159.5 -188.5t233.5 188.5l125 676h283l-211 -1135h-283l8 45q-96 -57 -206.5 -57t-186.5 57l-80 -432h-283z" />
<glyph unicode="&#x3bd;" horiz-adv-x="1105" d="M199 1135h293l57 -811q197 184 242 432q33 168 43 379h284q-6 -176 -45 -379q-45 -246 -205.5 -462t-394.5 -343l-194 84z" />
<glyph unicode="&#x3be;" horiz-adv-x="962" d="M141 496q39 207 242 346q-131 106 -100 276q14 72 57 142h-57l47 253h741l-47 -253h-326q-115 -43 -133 -142q-14 -80 61.5 -109.5t204.5 -29.5l-49 -256q-127 0 -233.5 -61.5t-124.5 -165.5q-39 -213 72 -213h49q131 0 185 -121t24 -285l-49 -264h-254l49 264 q25 123 -6 123h-52q-172 0 -255 147.5t-46 348.5z" />
<glyph unicode="&#x3bf;" d="M94 453q0 281 219 494.5t508 213.5q217 0 358.5 -139t141.5 -352q0 -274 -221 -485.5t-510 -211.5q-211 0 -353.5 137.5t-142.5 342.5zM375 500q0 -119 76.5 -198t193.5 -79q154 0 274.5 126t120.5 284q0 121 -75.5 199.5t-190.5 78.5q-156 0 -277.5 -124.5 t-121.5 -286.5z" />
<glyph unicode="&#x3c0;" horiz-adv-x="1449" d="M188 756q29 156 153 267.5t273 111.5h875l-53 -283h-160l-158 -852h-282l157 852h-123l-157 -852h-283l158 852h-27q-33 0 -57.5 -28.5t-32.5 -67.5h-283z" />
<glyph unicode="&#x3c1;" horiz-adv-x="1185" d="M-23 -387l177 954q45 240 214 417t379.5 177t313 -177t57.5 -416.5t-213 -417t-379 -177.5q-102 0 -190 50l-76 -410h-283zM393 330q55 -74 187 -74q96 0 164.5 92t91.5 219q25 129 -10 220.5t-131.5 91.5t-166 -92.5t-92.5 -219.5z" />
<glyph unicode="&#x3c2;" horiz-adv-x="983" d="M151.5 299q-16.5 129 6.5 283q43 236 183 407.5t329 171.5q162 0 241.5 -127t22.5 -291l-244 43q14 37 -9.5 65t-64.5 28q-43 0 -73.5 -25t-50 -75t-29.5 -91t-23 -106q-12 -68 -17 -109t-4 -91t22.5 -74.5t64.5 -24.5h53q133 0 189.5 -121t25.5 -285l-49 -264h-254 l49 264q23 123 -14 123h-51q-127 0 -207 85t-96.5 214z" />
<glyph unicode="&#x3c3;" horiz-adv-x="1499" d="M143 453q0 281 219.5 494.5t507.5 213.5q74 0 142 -18q201 31 495 147l66 -258q-127 -53 -283 -84q80 -121 80 -278q0 -274 -221 -485.5t-510 -211.5q-211 0 -353.5 137.5t-142.5 342.5zM424 500q0 -119 77 -198t193 -79q154 0 275 126t121 284q0 121 -76 199.5 t-191 78.5q-156 0 -277.5 -124.5t-121.5 -286.5z" />
<glyph unicode="&#x3c4;" horiz-adv-x="798" d="M207 852l53 283h578l-54 -283h-147l-74 -397q-14 -82 15.5 -141.5t95.5 -59.5l-53 -283q-182 0 -279.5 143.5t-60.5 340.5l73 397h-147z" />
<glyph unicode="&#x3c5;" horiz-adv-x="1126" d="M119 379l141 756h283l-142 -756q-8 -53 28 -88t93 -35q88 0 157 77t87 179q55 295 61 623h287q-6 -303 -65 -623q-41 -219 -208 -379t-370 -160q-174 0 -278.5 118t-73.5 288z" />
<glyph unicode="&#x3c6;" horiz-adv-x="1521" d="M152 567q35 176 148.5 330t281.5 244l102 -242q-96 -51 -162.5 -140t-87.5 -192q-18 -100 31 -177t145 -111l43 233q31 170 96.5 311.5t176 239.5t243.5 98q127 0 204 -88t90.5 -220t-9.5 -286q-39 -215 -214 -375.5t-402 -203.5l-70 -375h-283l70 375 q-211 43 -326.5 203.5t-76.5 375.5zM893 281q106 35 183 110.5t95 175.5l15.5 89t8.5 81t-3 75t-24.5 46.5t-51.5 20.5t-59.5 -25t-43 -54.5t-33.5 -89t-24.5 -95t-19.5 -103.5z" />
<glyph unicode="&#x3c7;" horiz-adv-x="1527" d="M-23 -387l627 760l-344 762h336l225 -498l410 498h336l-627 -760l344 -762h-336l-225 498l-410 -498h-336z" />
<glyph unicode="&#x3c8;" horiz-adv-x="1521" d="M121 379l141 756h283l-142 -756q-8 -41 21 -67.5t72 -38t110 -15.5l234 1255h282l-233 -1255q227 14 248 121l141 756h283l-142 -756q-33 -170 -194.5 -271.5t-386.5 -125.5l-68 -369h-283l68 369q-215 25 -341 126t-93 271z" />
<glyph unicode="&#x3c9;" horiz-adv-x="1468" d="M143 387q0 113 23 238q43 244 192 510h273q-133 -236 -182 -510l-19 -104q-6 -36 -12 -95t-2 -90t19.5 -55.5t43.5 -24.5q102 0 156 242q12 133 37 258h282q-29 -147 -41 -234.5t-5 -176.5t53 -89q35 0 63.5 30.5t49 95t30.5 112t26 131.5q49 283 5 510h272 q51 -256 6 -510q-23 -125 -65.5 -238t-104 -207t-147.5 -150.5t-187 -56.5q-152 0 -221 123q-117 -123 -262 -123q-100 0 -165.5 56.5t-91.5 150.5t-26 207z" />
<glyph unicode="&#x3d1;" horiz-adv-x="1267" d="M133 455l55 301h283l-55 -301q-14 -80 23.5 -139.5t109.5 -59.5q74 0 133 59.5t74 139.5l63 342q-264 29 -402 122t-104 291q35 176 178.5 303t313.5 127q193 0 295 -149.5t65 -355.5l-18 -99l141 -2l-47 -254l-141 2l-62 -327q-35 -199 -193.5 -340.5t-346.5 -141.5 q-190 0 -295 141.5t-70 340.5zM569 1210q-14 -72 67 -109.5t230 -51.5l17 86q18 102 -13.5 176.5t-111.5 74.5q-68 0 -122.5 -52t-66.5 -124z" />
<glyph unicode="&#x3d5;" d="M94 453q0 242 168 439.5t410 252.5l67 368h289l-67 -368q164 -41 262 -170t98 -305q0 -233 -167 -428t-409 -250l-69 -379h-289l70 377q-162 41 -262.5 167t-100.5 296zM375 500q0 -164 131 -242l115 619q-106 -51 -176 -155.5t-70 -221.5zM795 258q106 49 175.5 153.5 t69.5 221.5q0 166 -131 244z" />
<glyph unicode="&#x3d6;" horiz-adv-x="1468" d="M143 387q0 113 23 238q43 244 192 510h273q-133 -236 -182 -510l-19 -104q-6 -36 -12 -95t-2 -90t19.5 -55.5t43.5 -24.5q102 0 156 242q12 133 37 258h282q-29 -147 -41 -234.5t-5 -176.5t53 -89q35 0 63.5 30.5t49 95t30.5 112t26 131.5l18 101l16 98q11 69 13.5 101.5 t6.5 92t-1 89.5t-11.5 74t-22.5 66.5t-37.5 46t-54.5 33.5t-74 10q-225 0 -432 -120l-98 215q283 162 577 161q147 0 244.5 -83t134.5 -225t38 -308t-34 -352q-23 -125 -65.5 -238t-104 -207t-147.5 -150.5t-187 -56.5q-152 0 -221 123q-117 -123 -262 -123 q-100 0 -165.5 56.5t-91.5 150.5t-26 207z" />
<glyph unicode="&#x3f5;" d="M96 457q0 279 217 491.5t500 212.5q168 0 294 -78.5t179 -230.5h-340q-63 59 -174 59q-109 0 -203 -59t-145 -158h518l-49 -254h-510q16 -100 87 -158.5t175 -58.5q106 0 195 60l342 2q-225 -311 -580 -312q-217 0 -361.5 138.5t-144.5 345.5z" />
<glyph unicode="&#x400;" horiz-adv-x="1064" d="M78 0l280 1513h813l-49 -270h-532l-68 -352h510l-49 -270h-510l-65 -351h532l-49 -270h-813zM371 1917l143 186l416 -266l-137 -174z" />
<glyph unicode="&#x401;" horiz-adv-x="1064" d="M78 0l280 1513h813l-49 -270h-532l-68 -352h510l-49 -270h-510l-65 -351h532l-49 -270h-813zM436 1649l51 270h273l-51 -270h-273zM848 1649l51 270h272l-51 -270h-272z" />
<glyph unicode="&#x402;" horiz-adv-x="860" d="M182 1243l49 270h844l-49 -270h-285l-73 -391q127 106 315 106q172 0 281.5 -90t109.5 -237q0 -90 -20 -195l-80 -436q-29 -152 -128 -240t-263 -88h-117l43 234h8q166 0 199 168l53 301q18 98 18 166q0 78 -56 123t-142 45q-137 0 -221 -109q-59 -90 -80 -186l-78 -414 h-281l232 1243h-279z" />
<glyph unicode="&#x403;" horiz-adv-x="983" d="M78 0l280 1513h770l-49 -270h-489l-232 -1243h-280zM690 1843l484 260l96 -202l-498 -238z" />
<glyph unicode="&#x404;" horiz-adv-x="1597" d="M127 621q0 233 132 446t349 343t453 130q287 0 473 -174q113 -104 162 -287h-316q-43 74 -88 111q-102 80 -272 80q-299 0 -488 -256q-41 -55 -69 -123h569l-49 -270h-567q16 -168 132 -272.5t286 -104.5q111 0 202.5 40t206.5 138h330q-123 -205 -337 -327t-448 -122 q-317 0 -499 207q-76 84 -119 202t-43 239z" />
<glyph unicode="&#x405;" horiz-adv-x="1064" d="M39 350q0 16 4 82h293q-2 -16 -2 -43q0 -68 46 -106.5t128 -38.5q102 0 174 64.5t72 156.5q0 76 -45 117q-31 25 -66 42t-176 74q-248 98 -248 338q0 199 159 351.5t363 152.5q164 0 273.5 -95t109.5 -239q0 -45 -8 -96h-289q0 72 -14 100q-31 59 -121 60 q-78 0 -132 -55.5t-54 -131.5q0 -59 61 -104q31 -23 156 -68q170 -63 243.5 -149t73.5 -219q0 -223 -176 -396.5t-401 -173.5q-88 0 -173 29t-136.5 76t-83 121.5t-31.5 150.5z" />
<glyph unicode="&#x406;" horiz-adv-x="573" d="M78 0l280 1513h281l-281 -1513h-280z" />
<glyph unicode="&#x407;" horiz-adv-x="573" d="M78 0l280 1513h281l-281 -1513h-280zM170 1649l51 270h273l-52 -270h-272zM600 1649l51 270h273l-52 -270h-272z" />
<glyph unicode="&#x408;" horiz-adv-x="983" d="M16 287q0 14 4 71h281l2 -14q14 -100 113 -100q135 0 172 198l198 1071h281l-201 -1079q-39 -201 -143 -307q-147 -154 -350 -154q-158 0 -257.5 88.5t-99.5 225.5z" />
<glyph unicode="&#x409;" horiz-adv-x="2091" d="M-47 0l866 1513h230l118 -583h363q209 0 346 -70q180 -88 180 -319q0 -109 -47 -211.5t-129 -175.5q-172 -154 -496 -154h-321l-195 1151l-620 -1151h-295zM1223 655l77 -385h150q109 0 167 18.5t97 63.5q55 61 55 142q0 86 -60 123.5t-193 37.5h-293z" />
<glyph unicode="&#x40a;" horiz-adv-x="2009" d="M78 0l280 1513h281l-113 -608h541l113 608h278l-106 -583h96q209 0 346 -70q180 -88 180 -319q0 -109 -47 -211.5t-129 -175.5q-172 -154 -495 -154h-404l117 635h-541l-117 -635h-280zM1229 270h139q109 0 167 18.5t97 63.5q55 61 56 142q0 86 -60.5 123.5t-193.5 37.5 h-134z" />
<glyph unicode="&#x40b;" horiz-adv-x="860" d="M182 1243l49 270h844l-49 -270h-285l-73 -391q127 106 315 106q172 0 281.5 -90t109.5 -237q0 -90 -20 -195l-80 -436h-273l68 375q18 98 18 166q0 78 -56 123t-142 45q-137 0 -221 -109q-59 -90 -80 -186l-78 -414h-281l232 1243h-279z" />
<glyph unicode="&#x40c;" horiz-adv-x="1269" d="M78 0l280 1513h281l-121 -653l600 653h328l-705 -743l424 -770h-334l-350 666l-123 -666h-280zM848 1843l483 260l96 -202l-497 -238z" />
<glyph unicode="&#x40d;" horiz-adv-x="1515" d="M78 0l280 1513h281l-205 -1101l838 1101h313l-280 -1513h-281l203 1100l-830 -1100h-319zM770 1972l143 187l416 -267l-137 -174z" />
<glyph unicode="&#x40e;" horiz-adv-x="1269" d="M131 0l408 582l-314 931h293l207 -669l473 669h303l-1067 -1513h-303zM604 1903q0 23 2 39h201q18 -86 125 -87q96 0 145 87h203q-29 -125 -136.5 -202t-246.5 -77q-137 0 -215 63.5t-78 176.5z" />
<glyph unicode="&#x40f;" horiz-adv-x="1392" d="M78 0l280 1513h281l-231 -1243h540l232 1243h280l-280 -1513h-398l-63 -324h-295l63 324h-409z" />
<glyph unicode="&#x410;" horiz-adv-x="1515" d="M-47 0l911 1513h221l355 -1513h-310l-90 391h-538l-240 -391h-309zM655 662h324l-78 456z" />
<glyph unicode="&#x411;" horiz-adv-x="1187" d="M72 0l295 1513h1040l-51 -266h-760l-39 -192h225q272 0 425 -97.5t153 -300.5q0 -301 -214 -479t-568 -178h-506zM406 268h237q154 0 292 87t138 220q0 98 -97 154.5t-226 56.5h-244z" />
<glyph unicode="&#x412;" horiz-adv-x="1187" d="M72 0l295 1513h477q408 0 407 -299q0 -133 -61.5 -252.5t-151.5 -154.5q174 -57 174 -258q0 -244 -187 -396.5t-476 -152.5h-477zM406 268h196q158 0 241 62.5t83 173.5q0 152 -250 151h-197zM532 930h197q94 0 161.5 53t67.5 137q0 119 -167 119h-197z" />
<glyph unicode="&#x413;" horiz-adv-x="983" d="M78 0l280 1513h770l-49 -270h-489l-232 -1243h-280z" />
<glyph unicode="&#x414;" horiz-adv-x="1765" d="M-47 -287l102 557h267l710 1243h230l254 -1243h331l-102 -557h-281l54 287h-1231l-54 -287h-280zM602 270h645l-166 871z" />
<glyph unicode="&#x415;" horiz-adv-x="1064" d="M78 0l280 1513h813l-49 -270h-532l-68 -352h510l-49 -270h-510l-65 -351h532l-49 -270h-813z" />
<glyph unicode="&#x416;" horiz-adv-x="1947" d="M-51 0l704 743l-424 770h336l348 -665l123 665h281l-121 -653l600 653h328l-705 -743l422 -770h-334l-348 666l-123 -666h-280l121 653l-596 -653h-332z" />
<glyph unicode="&#x417;" horiz-adv-x="1173" d="M59 438h279q20 -74 106 -135t258 -61q182 0 297 70.5t115 189.5q0 152 -250 151l-231 2l57 289h230q98 0 163.5 51.5t65.5 128.5q0 57 -72.5 96.5t-169.5 39.5q-158 0 -241.5 -42t-137.5 -114h-280l22 45q20 45 75.5 109.5t130.5 128t200 108.5t270 45q217 0 354.5 -98.5 t137.5 -249.5q0 -156 -66.5 -259.5t-171.5 -137.5q90 -14 143.5 -87t53.5 -180q0 -246 -203 -400.5t-532 -154.5q-154 0 -272 48.5t-177 116t-97 136t-46 115.5z" />
<glyph unicode="&#x418;" horiz-adv-x="1515" d="M78 0l280 1513h281l-205 -1101l838 1101h313l-280 -1513h-281l203 1100l-830 -1100h-319z" />
<glyph unicode="&#x419;" horiz-adv-x="1515" d="M78 0l280 1513h281l-205 -1101l838 1101h313l-280 -1513h-281l203 1100l-830 -1100h-319zM649 1767q0 23 2 39h201q18 -86 125 -86q96 0 145 86h203q-29 -125 -136.5 -201.5t-246.5 -76.5q-137 0 -215 63t-78 176z" />
<glyph unicode="&#x41a;" horiz-adv-x="1269" d="M78 0l280 1513h281l-121 -653l600 653h328l-705 -743l424 -770h-334l-350 666l-123 -666h-280z" />
<glyph unicode="&#x41b;" horiz-adv-x="1433" d="M-47 0l866 1513h230l309 -1513h-268l-216 1126l-626 -1126h-295z" />
<glyph unicode="&#x41c;" horiz-adv-x="1843" d="M78 0l280 1513h385l195 -1146l616 1146h385l-280 -1513h-281l211 1135l-606 -1135h-229l-185 1135l-211 -1135h-280z" />
<glyph unicode="&#x41d;" horiz-adv-x="1392" d="M78 0l280 1513h281l-113 -608h541l113 608h280l-280 -1513h-281l117 635h-541l-117 -635h-280z" />
<glyph unicode="&#x41e;" horiz-adv-x="1720" d="M125 614q0 156 66.5 317t181.5 288q143 156 326.5 238.5t383.5 82.5q283 0 465.5 -180t182.5 -461q0 -240 -130.5 -454t-348.5 -343t-461 -129q-291 0 -478.5 180t-187.5 461zM412 662q0 -182 120.5 -300t307.5 -118q139 0 263 63.5t212 179.5q129 172 129 371 q0 180 -117 296t-299 116q-295 0 -481 -244q-135 -174 -135 -364z" />
<glyph unicode="&#x41f;" horiz-adv-x="1392" d="M78 0l280 1513h1102l-280 -1513h-281l231 1243h-540l-232 -1243h-280z" />
<glyph unicode="&#x420;" horiz-adv-x="1146" d="M78 0l280 1513h375q274 0 373 -69q141 -98 141 -293q0 -135 -32.5 -235.5t-108.5 -179.5t-214 -120t-337 -41h-90l-107 -575h-280zM514 844h82q365 0 365 239q0 98 -63.5 129t-213.5 31h-94z" />
<glyph unicode="&#x421;" horiz-adv-x="1597" d="M127 621q0 233 132 446t349 343t453 130q287 0 473 -174q113 -104 162 -287h-316q-43 74 -88 111q-102 80 -272 80q-299 0 -488 -256q-119 -160 -118 -344q0 -186 118.5 -306t301.5 -120q111 0 202.5 40t206.5 138h330q-123 -205 -337 -327t-448 -122q-317 0 -499 207 q-76 84 -119 202t-43 239z" />
<glyph unicode="&#x422;" horiz-adv-x="860" d="M182 1243l49 270h844l-49 -270h-285l-231 -1243h-281l232 1243h-279z" />
<glyph unicode="&#x423;" horiz-adv-x="1269" d="M131 0l408 582l-314 931h293l207 -669l473 669h303l-1067 -1513h-303z" />
<glyph unicode="&#x424;" horiz-adv-x="1933" d="M125 657q0 156 66.5 317t181.5 288q293 317 702 321l10 55h281l-8 -55q283 -2 465 -182t182 -459q0 -238 -130 -452t-348 -344t-460 -130l-23 -108h-280l22 108q-289 2 -475 182t-186 459zM412 705q0 -182 118.5 -299t305.5 -119l188 1026q-291 0 -477 -244 q-135 -174 -135 -364zM1118 287q289 4 471 243q129 172 129 371q0 178 -115.5 294t-295.5 118z" />
<glyph unicode="&#x425;" horiz-adv-x="1392" d="M-51 0l659 754l-379 759h334l254 -528l461 528h326l-666 -759l385 -754h-326l-266 522l-448 -522h-334z" />
<glyph unicode="&#x426;" horiz-adv-x="1511" d="M78 0l280 1513h281l-231 -1243h540l232 1243h280l-229 -1243h262l-102 -557h-281l53 287h-1085z" />
<glyph unicode="&#x427;" horiz-adv-x="1085" d="M61 801q0 35 7 71l118 641h281l-98 -538q-8 -25 -9 -49q0 -57 74 -62h365l121 649h280l-280 -1513h-281l109 594h-453q-234 0 -234 207z" />
<glyph unicode="&#x428;" horiz-adv-x="1939" d="M78 0l280 1513h281l-231 -1243h423l232 1243h280l-229 -1243h424l231 1243h281l-281 -1513h-1691z" />
<glyph unicode="&#x429;" horiz-adv-x="2101" d="M78 0l280 1513h281l-231 -1243h423l232 1243h280l-229 -1243h424l231 1243h281l-231 -1243h256l-103 -557h-280l53 287h-1667z" />
<glyph unicode="&#x42a;" horiz-adv-x="1361" d="M68 1235l51 278h737l-82 -417h225q268 0 421 -104.5t153 -311.5q0 -305 -218 -492.5t-569 -187.5h-505l229 1235h-442zM614 268h238q156 0 295 94.5t139 235.5q0 102 -95 165.5t-224 63.5h-244z" />
<glyph unicode="&#x42b;" horiz-adv-x="1722" d="M78 0l295 1513h280l-82 -417h226q268 0 420.5 -104.5t152.5 -311.5q0 -305 -218 -492.5t-568 -187.5h-506zM412 268h237q156 0 295 94.5t139 235.5q0 102 -95 165.5t-224 63.5h-244zM1393 -2l280 1513h281l-281 -1513h-280z" />
<glyph unicode="&#x42c;" horiz-adv-x="1187" d="M78 0l295 1513h280l-82 -417h226q268 0 420.5 -104.5t152.5 -311.5q0 -305 -218 -492.5t-568 -187.5h-506zM412 268h237q156 0 295 94.5t139 235.5q0 102 -95 165.5t-224 63.5h-244z" />
<glyph unicode="&#x42d;" horiz-adv-x="1597" d="M127 434h315q55 -104 138.5 -147t222.5 -43q190 0 350 108.5t213 282.5h-709l52 270h696q-18 162 -133 263.5t-283 101.5q-111 0 -203 -40t-206 -138h-330q123 205 337 326.5t447 121.5q283 0 472.5 -185.5t189.5 -461.5q0 -236 -123 -448t-340 -342t-471 -130 q-242 0 -415 122t-220 339z" />
<glyph unicode="&#x42e;" horiz-adv-x="2295" d="M78 0l295 1513h280l-118 -610h129q106 279 360 458t549 179q283 0 462 -179t179 -452q0 -197 -85 -374t-220 -298.5t-304 -192.5t-337 -71q-293 0 -476.5 179.5t-183.5 453.5v29h-127l-123 -635h-280zM895 653q0 -178 117.5 -293.5t304.5 -115.5q236 0 423 183t187 431 q0 180 -113.5 296t-295.5 116q-240 0 -431.5 -184.5t-191.5 -432.5z" />
<glyph unicode="&#x42f;" horiz-adv-x="1046" d="M-158 0l492 457q-291 92 -291 374q0 307 217 494.5t569 187.5h506l-295 -1513h-280l82 418h-226l-428 -418h-346zM330 915q0 -102 95 -165.5t224 -63.5h244l108 559h-237q-156 0 -295 -94.5t-139 -235.5z" />
<glyph unicode="&#x430;" horiz-adv-x="1351" d="M92 436q0 297 209 511t498 214q238 0 334 -178l26 152h250l-209 -1135h-250l27 147q-182 -174 -410 -174q-215 0 -345 127t-130 336zM373 492q0 -123 74.5 -196t201.5 -73q209 0 328 168q76 115 76 250q0 125 -74 197.5t-201 72.5q-164 0 -284.5 -125.5t-120.5 -293.5z " />
<glyph unicode="&#x431;" d="M98 451q0 123 31 273t88 305t156.5 286t222.5 190q113 41 224.5 61.5t198.5 21.5t195 7q139 8 242 54l2 -226q-33 -12 -58.5 -24.5t-66.5 -18.5t-94 -2q-133 -2 -300 -21.5t-298 -82.5q-76 -59 -117 -110.5t-45 -73.5l-2 -21q66 33 94.5 46t99 28.5t152.5 15.5 q215 0 357.5 -136t142.5 -349q0 -172 -91 -332t-261 -264.5t-375 -104.5q-219 0 -358.5 137.5t-139.5 340.5zM377 500q0 -119 76.5 -198t193.5 -79q154 0 274.5 126t120.5 284q0 121 -75.5 199.5t-190.5 78.5q-156 0 -277.5 -124.5t-121.5 -286.5z" />
<glyph unicode="&#x432;" horiz-adv-x="972" d="M86 0l217 1120h461q150 0 218.5 -67.5t68.5 -163.5q0 -129 -111 -230q170 -74 170 -243q0 -180 -149.5 -298t-352.5 -118h-522zM399 215h256q86 0 145.5 43t59.5 127q0 53 -39 83t-104 30h-262zM498 725h166q55 0 93 28.5t38 80.5q0 72 -97 71h-166z" />
<glyph unicode="&#x433;" horiz-adv-x="792" d="M90 0l211 1135h707l-47 -248h-435l-164 -887h-272z" />
<glyph unicode="&#x434;" horiz-adv-x="1419" d="M-49 -246l92 494h207l522 887h217l191 -887h233l-92 -494h-272l45 246h-824l-47 -246h-272zM543 248h360l-94 485z" />
<glyph unicode="&#x435;" d="M94 457q0 279 218 491.5t503 212.5q213 0 349 -129t136 -332q0 -156 -40 -254h-879q0 -98 74.5 -160.5t191.5 -62.5q164 0 277 113h297q-92 -168 -256 -265.5t-357 -97.5q-227 0 -370.5 135.5t-143.5 348.5zM418 688h629q-12 223 -275 223q-119 0 -217 -61.5t-137 -161.5 z" />
<glyph unicode="&#x436;" horiz-adv-x="1775" d="M-51 0l508 555l-365 580h342l314 -531l98 531h274l-100 -535l469 535h317l-508 -555l365 -580h-340l-315 530l-99 -530h-272l98 535l-467 -535h-319z" />
<glyph unicode="&#x437;" horiz-adv-x="1067" d="M86 326h254l8 -19q8 -20 27.5 -43.5t66.5 -43t113 -19.5q242 0 242 153q0 109 -176 109h-181l49 258h179q82 0 128 36t46 101q0 78 -144 78q-66 0 -118 -24.5t-72 -49.5l-19 -24h-223l15 30q14 33 50 78t87 91t137 78t186 32q170 0 248 -65.5t78 -168t-60.5 -189.5 t-132.5 -116q80 -12 128.5 -75.5t48.5 -155.5q0 -184 -151.5 -294t-387.5 -110q-117 0 -203 36t-127 88.5t-64.5 104.5t-27.5 89z" />
<glyph unicode="&#x438;" horiz-adv-x="1157" d="M49 0l211 1135h272l-153 -799l571 799h318l-211 -1135h-273l142 770l-570 -770h-307z" />
<glyph unicode="&#x439;" horiz-adv-x="1157" d="M49 0l211 1135h272l-153 -799l571 799h318l-211 -1135h-273l142 770l-570 -770h-307zM504 1407q0 23 2 39h201q18 -86 124 -86q96 0 146 86h203q-29 -125 -136.5 -202t-246.5 -77q-137 0 -215 63.5t-78 176.5z" />
<glyph unicode="&#x43a;" horiz-adv-x="1187" d="M49 0l209 1135h274l-100 -535l469 535h318l-508 -555l364 -580h-340l-315 530l-98 -530h-273z" />
<glyph unicode="&#x43b;" horiz-adv-x="1150" d="M-51 0l667 1135h218l245 -1135h-274l-148 737l-417 -737h-291z" />
<glyph unicode="&#x43c;" horiz-adv-x="1181" d="M-51 0l213 1135h266l160 -752l397 752h307l-213 -1135h-272l84 453l-266 -453h-217l-101 463l-86 -463h-272z" />
<glyph unicode="&#x43d;" horiz-adv-x="1157" d="M49 0l211 1135h272l-81 -445h460l84 445h273l-211 -1135h-273l82 442h-463l-81 -442h-273z" />
<glyph unicode="&#x43e;" horiz-adv-x="1259" d="M94 453q0 281 219 494.5t508 213.5q217 0 358.5 -139t141.5 -352q0 -274 -221 -485.5t-510 -211.5q-211 0 -353.5 137.5t-142.5 342.5zM375 500q0 -119 76.5 -198t193.5 -79q154 0 274.5 126t120.5 284q0 121 -75.5 199.5t-190.5 78.5q-156 0 -277.5 -124.5 t-121.5 -286.5z" />
<glyph unicode="&#x43f;" horiz-adv-x="1157" d="M49 0l211 1135h1008l-213 -1135h-273l166 887h-463l-163 -887h-273z" />
<glyph unicode="&#x440;" horiz-adv-x="1331" d="M-20 -379l280 1514h250l-25 -134q72 76 178.5 118t221.5 42q248 0 379 -170q90 -119 90 -286q0 -301 -202 -516.5t-486 -215.5q-203 0 -324 133l-90 -485h-272zM403 494q0 -117 79 -194t200 -77q86 0 169 45t138 121q84 125 84 244q0 109 -61 188q-31 39 -89.5 64.5 t-117.5 25.5q-162 0 -282 -124.5t-120 -292.5z" />
<glyph unicode="&#x441;" horiz-adv-x="1269" d="M96 457q0 279 217 491.5t500 212.5q195 0 330 -104.5t168 -300.5h-307q-47 156 -232 155q-162 0 -278.5 -120.5t-116.5 -288.5q0 -127 73.5 -203t194.5 -76q176 0 287 150h307q-109 -193 -273.5 -296.5t-363.5 -103.5q-217 0 -361.5 138.5t-144.5 345.5z" />
<glyph unicode="&#x442;" horiz-adv-x="868" d="M68 887l47 248h764l-48 -248h-245l-164 -887h-272l163 887h-245z" />
<glyph unicode="&#x443;" horiz-adv-x="1187" d="M88 -379l299 485l-225 1029h311l115 -732l411 732h314l-932 -1514h-293z" />
<glyph unicode="&#x444;" horiz-adv-x="1560" d="M94 453q0 281 218 493.5t505 214.5l17 94h256l-15 -94q217 -2 356.5 -140t139.5 -351q0 -274 -217 -484.5t-504 -212.5l-41 -231h-266l43 231q-209 0 -350.5 138.5t-141.5 341.5zM375 500q0 -119 75.5 -197t190.5 -80l131 688q-158 -2 -277.5 -125.5t-119.5 -285.5z M899 223q152 2 271.5 127t119.5 283q0 119 -74.5 197.5t-187.5 80.5z" />
<glyph unicode="&#x445;" horiz-adv-x="1146" d="M-59 0l512 586l-246 549h307l141 -342l265 342h307l-449 -549l295 -586h-328l-165 389l-312 -389h-327z" />
<glyph unicode="&#x446;" horiz-adv-x="1351" d="M49 0l211 1135h272l-165 -887h426l163 887h273l-164 -887h209l-92 -494h-273l45 246h-905z" />
<glyph unicode="&#x447;" horiz-adv-x="970" d="M55 575q0 14 4 52l93 508h272l-74 -402q-2 -12 -2 -33q0 -72 82 -71h285l96 506h272l-211 -1135h-272l70 381h-387q-86 0 -157 48t-71 146z" />
<glyph unicode="&#x448;" horiz-adv-x="1679" d="M49 0l215 1135h273l-166 -887h354l164 887h272l-164 -887h357l164 887h272l-211 -1135h-1530z" />
<glyph unicode="&#x449;" horiz-adv-x="1855" d="M49 0l215 1135h273l-166 -887h354l164 887h272l-164 -887h357l164 887h272l-164 -887h209l-92 -494h-273l46 246h-1467z" />
<glyph unicode="&#x44a;" horiz-adv-x="1179" d="M-12 887l45 248h653l-72 -363h154q195 0 303.5 -74.5t108.5 -224.5q0 -205 -163 -339t-399 -134h-425l167 887h-372zM512 246h227q88 0 135.5 55t47.5 119q0 47 -30 84t-101 37h-222z" />
<glyph unicode="&#x44b;" horiz-adv-x="1388" d="M86 0l221 1135h273l-72 -363h154q195 0 303 -74.5t108 -224.5q0 -205 -162.5 -339t-398.5 -134h-426zM406 246h227q88 0 135 55t47 119q0 47 -29.5 84t-101.5 37h-221zM1118 0l211 1135h273l-211 -1135h-273z" />
<glyph unicode="&#x44c;" horiz-adv-x="972" d="M49 0l221 1135h273l-72 -363h154q195 0 303 -74.5t108 -224.5q0 -205 -162.5 -339t-398.5 -134h-426zM369 246h227q88 0 135 55t47 119q0 47 -29.5 84t-101.5 37h-221z" />
<glyph unicode="&#x44d;" d="M96 379h307q47 -156 232 -156q111 0 205 60.5t145 158.5h-465l47 248h459q-16 102 -87 161.5t-177 59.5q-176 0 -287 -149h-307q109 193 273.5 296t363.5 103q217 0 361.5 -138t144.5 -345q0 -279 -217 -492t-500 -213q-242 0 -389 160q-82 88 -109 246z" />
<glyph unicode="&#x44e;" horiz-adv-x="1746" d="M49 0l221 1135h273l-84 -430h127q88 197 275.5 326.5t395.5 129.5q223 0 362.5 -136t139.5 -347q0 -193 -112.5 -358.5t-279.5 -256t-337 -90.5q-211 0 -350 131.5t-145 331.5h-127l-86 -436h-273zM811 500q0 -121 73.5 -199t194.5 -78q147 0 274.5 124t127.5 288 q0 119 -75 197.5t-194 78.5q-150 0 -275.5 -122.5t-125.5 -288.5z" />
<glyph unicode="&#x44f;" horiz-adv-x="833" d="M-92 0l393 383q-227 61 -227 279q0 207 163.5 340t397.5 133h426l-221 -1135h-273l72 362h-80l-369 -362h-282zM332 715q0 -47 29.5 -84t101.5 -37h221l57 295h-227q-88 0 -135 -55.5t-47 -118.5z" />
<glyph unicode="&#x450;" d="M94 457q0 279 218 491.5t503 212.5q213 0 349 -129t136 -332q0 -156 -40 -254h-879q0 -98 74.5 -160.5t191.5 -62.5q164 0 277 113h297q-92 -168 -256 -265.5t-357 -97.5q-227 0 -370.5 135.5t-143.5 348.5zM416 1538l143 186l416 -266l-137 -174zM418 688h629 q-12 223 -275 223q-119 0 -217 -61.5t-137 -161.5z" />
<glyph unicode="&#x451;" d="M94 457q0 279 218 491.5t503 212.5q213 0 349 -129t136 -332q0 -156 -40 -254h-879q0 -98 74.5 -160.5t191.5 -62.5q164 0 277 113h297q-92 -168 -256 -265.5t-357 -97.5q-227 0 -370.5 135.5t-143.5 348.5zM418 688h629q-12 223 -275 223q-119 0 -217 -61.5t-137 -161.5 zM496 1290l51 271h272l-51 -271h-272zM926 1290l51 271h272l-51 -271h-272z" />
<glyph unicode="&#x452;" horiz-adv-x="774" d="M49 0l227 1229h-116l35 203h120l15 81h272l-14 -81h262l-37 -203h-264l-43 -234q127 106 305 107q168 0 269.5 -89t101.5 -239q0 -90 -21 -194l-106 -580q-59 -328 -371 -328h-119l39 203q86 0 125 26.5t53 98.5l95 518q18 98 18 166q0 80 -47 124t-131 44 q-137 0 -221 -109q-51 -72 -80 -229l-94 -514h-273z" />
<glyph unicode="&#x453;" horiz-adv-x="888" d="M90 0l211 1135h707l-47 -248h-435l-164 -887h-272zM580 1464l483 260l96 -202l-497 -238z" />
<glyph unicode="&#x454;" d="M96 457q0 279 217 491.5t500 212.5q242 0 389 -160q82 -88 109 -245h-307q-47 156 -232 155q-111 0 -204 -60t-144 -161h418l-47 -248h-414q16 -100 88 -159.5t176 -59.5q176 0 287 150h307q-109 -193 -273.5 -296.5t-363.5 -103.5q-217 0 -361.5 138.5t-144.5 345.5z " />
<glyph unicode="&#x455;" horiz-adv-x="901" d="M39 281q0 18 4 79h274q4 -137 127 -137q59 0 102.5 39t43.5 92q0 41 -32 64.5t-136 60.5q-150 51 -204 110.5t-54 168.5q0 164 134 283.5t316 119.5q125 0 218.5 -77.5t93.5 -184.5q0 -31 -6 -78h-267q-4 90 -90 90q-47 0 -83 -33.5t-36 -78.5q0 -35 41 -60 q25 -14 127 -47q145 -47 201.5 -104.5t56.5 -159.5q0 -180 -146 -317.5t-339 -137.5q-154 0 -250 85.5t-96 222.5z" />
<glyph unicode="&#x456;" horiz-adv-x="491" d="M49 0l211 1135h272l-210 -1135h-273zM283 1257l47 256h272l-47 -256h-272z" />
<glyph unicode="&#x457;" horiz-adv-x="491" d="M49 0l211 1135h272l-210 -1135h-273zM59 1290l52 271h272l-51 -271h-273zM489 1290l52 271h272l-51 -271h-273z" />
<glyph unicode="&#x458;" horiz-adv-x="532" d="M-96 -379l49 264q78 14 103.5 49t45.5 148l195 1053h272l-196 -1059q-35 -211 -158 -331t-311 -124zM319 1257l48 256h272l-47 -256h-273z" />
<glyph unicode="&#x459;" horiz-adv-x="1574" d="M-51 0l667 1135h218l98 -457q141 0 226 -4t169 -19.5t127 -45t68.5 -80t25.5 -123.5q0 -197 -119.5 -301.5t-406.5 -104.5h-246l-123 752l-397 -752h-307zM977 471l49 -223h45q233 0 240 102q0 74 -46 97.5t-145 23.5h-143z" />
<glyph unicode="&#x45a;" horiz-adv-x="1669" d="M49 0l211 1135h272l-81 -445h460l84 445h271l-84 -457q111 0 186.5 -8t147 -35t103.5 -84t19 -145q-14 -193 -149 -299.5t-377 -106.5h-328l82 442h-463l-81 -442h-273zM1102 248h59q215 0 240 102q25 70 -30.5 95.5t-160.5 25.5h-67z" />
<glyph unicode="&#x45b;" horiz-adv-x="774" d="M49 0l227 1229h-116l35 203h120l15 81h272l-14 -81h262l-37 -203h-264l-43 -234q127 106 305 107q168 0 269.5 -89t101.5 -239q0 -90 -21 -194l-106 -580h-273l95 518q18 98 18 166q0 80 -47 124t-131 44q-137 0 -221 -109q-51 -72 -80 -229l-94 -514h-273z" />
<glyph unicode="&#x45c;" horiz-adv-x="1187" d="M49 0l209 1135h274l-100 -535l461 535h326l-508 -555l364 -580h-366l-289 530l-98 -530h-273zM500 1434l483 260l96 -203l-497 -238z" />
<glyph unicode="&#x45d;" horiz-adv-x="1157" d="M49 0l211 1135h272l-155 -816l573 816h318l-211 -1135h-273l142 770l-570 -770h-307zM561 1593l144 187l415 -267l-137 -174z" />
<glyph unicode="&#x45e;" horiz-adv-x="1187" d="M88 -379l299 485l-225 1029h311l115 -736l411 736h314l-932 -1514h-293zM496 1405q0 23 2 39h200q18 -86 125 -86q96 0 146 86h202q-29 -125 -136 -202t-247 -77q-137 0 -214.5 63.5t-77.5 176.5z" />
<glyph unicode="&#x45f;" horiz-adv-x="1157" d="M51 0l211 1135h273l-166 -887h462l164 887h273l-211 -1135h-336l-55 -287h-299l55 287h-371z" />
<glyph unicode="&#x48c;" horiz-adv-x="1187" d="M78 0l211 1133h-152l35 202h154l32 178h279l-33 -178h141l-36 -202h-142l-37 -203h97q209 0 346 -70q180 -88 180 -319q0 -109 -47 -211.5t-129 -175.5q-172 -154 -496 -154h-403zM408 270h139q109 0 167 18.5t97 63.5q55 61 55 142q0 86 -60.5 123.5t-193.5 37.5h-133z " />
<glyph unicode="&#x48d;" horiz-adv-x="972" d="M90 0l152 811h-150l35 203h152l22 121h270l-22 -121h151l-36 -203h-152l-25 -133q111 0 187 -8t147.5 -35t103 -84t19.5 -145q-14 -193 -149.5 -299.5t-376.5 -106.5h-328zM408 248h59q215 0 240 102q25 70 -30.5 95.5t-160.5 25.5h-67z" />
<glyph unicode="&#x48e;" horiz-adv-x="1146" d="M78 0l280 1513h375q274 0 373 -69q141 -98 141 -293q0 -223 -149 -397l100 -148l-188 -84l-76 109q-74 -35 -162 -47q-63 -8 -217 -9h-90l-107 -575h-280zM514 844h82q104 0 180 16l-90 133l186 86l66 -96q23 49 23 100q0 102 -82 140q-49 20 -195 20h-94z" />
<glyph unicode="&#x48f;" horiz-adv-x="1351" d="M-20 -379l280 1514h250l-25 -134q72 76 178.5 118t221.5 42q248 0 379 -170q90 -119 90 -286q0 -279 -174 -486l108 -160l-188 -84l-74 107q-168 -109 -360 -109q-203 0 -324 133l-90 -485h-272zM403 494q0 -117 79 -194t200 -77q104 0 203 66l-109 157l189 86l57 -86 q51 102 51 187q0 109 -61 188q-31 39 -89.5 64.5t-117.5 25.5q-162 0 -282 -124.5t-120 -292.5z" />
<glyph unicode="&#x490;" horiz-adv-x="983" d="M78 0l280 1513l490 3l43 233h280l-92 -506h-489l-232 -1243h-280z" />
<glyph unicode="&#x491;" horiz-adv-x="888" d="M90 0l211 1135h393l45 237h273l-92 -485h-394l-164 -887h-272z" />
<glyph unicode="&#x492;" horiz-adv-x="983" d="M78 0l153 825h-147l35 203h149l90 485h770l-49 -270h-489l-41 -215h143l-37 -203h-143l-154 -825h-280z" />
<glyph unicode="&#x493;" horiz-adv-x="888" d="M41 512l35 203h147l78 420h666l-47 -248h-394l-32 -172h155l-37 -203h-155l-95 -512h-272l94 512h-143z" />
<glyph unicode="&#x494;" horiz-adv-x="983" d="M78 0l280 1513h770l-49 -270h-489l-232 -1243h-280z" />
<glyph unicode="&#x495;" horiz-adv-x="888" d="M90 0l211 1135h666l-47 -248h-394l-164 -887h-272z" />
<glyph unicode="&#x496;" horiz-adv-x="1947" d="M-51 0l704 743l-424 770h336l348 -665l123 665h281l-121 -653l592 653h336l-705 -743l424 -770h-336l-348 666l-123 -666h-280l121 653l-592 -653h-336z" />
<glyph unicode="&#x497;" horiz-adv-x="1775" d="M-51 0l508 555l-365 580h367l289 -531l98 531h274l-100 -535l461 535h325l-508 -555l365 -580h-367l-288 530l-99 -530h-272l98 535l-461 -535h-325z" />
<glyph unicode="&#x498;" horiz-adv-x="1173" d="M68 403h329l17 -38q14 -41 68.5 -82t131.5 -41q121 0 174.5 57t63.5 174q6 72 -59.5 117t-194.5 45h-133l51 278h90q164 0 228 72q18 23 32.5 68t14.5 80q0 125 -168 124q-53 0 -88 -28.5t-43 -57.5l-9 -26h-278l12 41q12 41 45 99t80 115.5t126 98.5t171 41 q209 10 322.5 -78t115.5 -262q-12 -193 -73 -274q-53 -72 -152 -117q106 -45 160.5 -129t44.5 -186q-6 -70 -13.5 -113t-22.5 -104.5t-37.5 -99.5t-62.5 -81t-93.5 -66.5t-131 -41t-176.5 -17.5q-133 -2 -237.5 42t-159.5 108.5t-90 128t-45 108.5z" />
<glyph unicode="&#x499;" horiz-adv-x="972" d="M90 307h311l9 -14q6 -14 21 -31.5t47 -32t75 -14.5q63 0 95 17.5t39 36t20 67.5q-2 80 -48.5 108.5t-142.5 28.5h-80l33 211h53q182 0 207 131q0 63 -27.5 90t-83.5 25q-41 0 -69.5 -22.5t-36.5 -43.5l-10 -22h-226l7 32q4 33 27.5 80t60.5 94.5t109.5 80t166.5 32.5 q141 0 226 -67.5t94 -208.5q4 -66 -45.5 -149t-124.5 -109q74 -33 114.5 -109t32.5 -127q-10 -215 -112.5 -317.5t-303.5 -100.5q-113 0 -198.5 35t-128.5 84t-71 98.5t-34 83.5z" />
<glyph unicode="&#x49a;" horiz-adv-x="1269" d="M78 0l280 1513h281l-121 -653l592 653h336l-705 -743l424 -770h-336l-348 666l-123 -666h-280z" />
<glyph unicode="&#x49b;" horiz-adv-x="1187" d="M49 0l209 1135h274l-100 -535l461 535h326l-508 -555l364 -580h-366l-289 530l-98 -530h-273z" />
<glyph unicode="&#x49c;" horiz-adv-x="1269" d="M78 0l280 1513h281l-121 -653l592 653h336l-705 -743l424 -770h-336l-348 666l-123 -666h-280z" />
<glyph unicode="&#x49d;" horiz-adv-x="1187" d="M49 0l209 1135h274l-100 -535l461 535h326l-508 -555l364 -580h-366l-289 530l-98 -530h-273z" />
<glyph unicode="&#x49e;" horiz-adv-x="1269" d="M78 0l223 1202h-143l35 203h145l20 108h281l-21 -108h148l-37 -203h-147l-64 -342l592 653h336l-705 -743l424 -770h-336l-348 666l-123 -666h-280z" />
<glyph unicode="&#x49f;" horiz-adv-x="1187" d="M49 0l162 877h-145l34 202h148l10 56h274l-10 -56h152l-37 -202h-154l-51 -277l461 535h326l-508 -555l364 -580h-366l-289 530l-98 -530h-273z" />
<glyph unicode="&#x4a0;" horiz-adv-x="1269" d="M78 0l280 1513h281l-121 -653l592 653h336l-705 -743l424 -770h-336l-348 666l-123 -666h-280z" />
<glyph unicode="&#x4a1;" horiz-adv-x="1187" d="M49 0l209 1135h274l-100 -535l461 535h326l-508 -555l364 -580h-366l-289 530l-98 -530h-273z" />
<glyph unicode="&#x4a2;" horiz-adv-x="1392" d="M78 0l280 1513h281l-113 -608h541l113 608h280l-280 -1513h-281l117 635h-541l-117 -635h-280z" />
<glyph unicode="&#x4a3;" horiz-adv-x="1157" d="M49 0l211 1135h272l-81 -445h460l84 445h273l-211 -1135h-273l82 442h-463l-81 -442h-273z" />
<glyph unicode="&#x4a4;" horiz-adv-x="1392" d="M78 0l280 1513h281l-113 -608h541l113 608h280l-280 -1513h-281l117 635h-541l-117 -635h-280z" />
<glyph unicode="&#x4a5;" horiz-adv-x="1157" d="M49 0l211 1135h272l-81 -445h460l84 445h273l-211 -1135h-273l82 442h-463l-81 -442h-273z" />
<glyph unicode="&#x4a6;" horiz-adv-x="1392" d="M78 0l280 1513h1102l-280 -1513h-281l231 1243h-540l-232 -1243h-280z" />
<glyph unicode="&#x4a7;" horiz-adv-x="1157" d="M49 0l211 1135h1008l-213 -1135h-273l166 887h-463l-163 -887h-273z" />
<glyph unicode="&#x4a8;" horiz-adv-x="1597" d="M127 621q0 233 132 446t349 343t453 130q287 0 473 -174q113 -104 162 -287h-316q-43 74 -88 111q-102 80 -272 80q-299 0 -488 -256q-119 -160 -118 -344q0 -186 118.5 -306t301.5 -120q111 0 202.5 40t206.5 138h330q-123 -205 -337 -327t-448 -122q-317 0 -499 207 q-76 84 -119 202t-43 239z" />
<glyph unicode="&#x4a9;" d="M96 457q0 279 217 491.5t500 212.5q242 0 389 -160q82 -88 109 -245h-307q-47 156 -232 155q-162 0 -278.5 -120.5t-116.5 -288.5q0 -127 73.5 -203t194.5 -76q176 0 287 150h307q-109 -193 -273.5 -296.5t-363.5 -103.5q-217 0 -361.5 138.5t-144.5 345.5z" />
<glyph unicode="&#x4aa;" horiz-adv-x="1597" d="M127 621q0 233 132 446t349 343t453 130q287 0 473 -174q113 -104 162 -287h-316q-43 74 -88 111q-102 80 -272 80q-299 0 -488 -256q-119 -160 -118 -344q0 -186 118.5 -306t301.5 -120q111 0 202.5 40t206.5 138h330q-123 -205 -337 -327t-448 -122q-317 0 -499 207 q-76 84 -119 202t-43 239z" />
<glyph unicode="&#x4ab;" d="M96 457q0 279 217 491.5t500 212.5q242 0 389 -160q82 -88 109 -245h-307q-47 156 -232 155q-162 0 -278.5 -120.5t-116.5 -288.5q0 -127 73.5 -203t194.5 -76q176 0 287 150h307q-109 -193 -273.5 -296.5t-363.5 -103.5q-217 0 -361.5 138.5t-144.5 345.5z" />
<glyph unicode="&#x4ac;" horiz-adv-x="860" d="M182 1243l49 270h844l-49 -270h-285l-231 -1243h-281l232 1243h-279z" />
<glyph unicode="&#x4ad;" horiz-adv-x="774" d="M68 887l47 248h764l-48 -248h-245l-164 -887h-272l163 887h-245z" />
<glyph unicode="&#x4ae;" horiz-adv-x="1269" d="M225 1513h303l205 -696l465 696h303l-674 -954l-104 -559h-281l105 559z" />
<glyph unicode="&#x4af;" horiz-adv-x="1146" d="M152 1135h303l123 -752l397 752h307l-668 -1135h-217z" />
<glyph unicode="&#x4b0;" horiz-adv-x="1269" d="M225 1513h303l205 -696l465 696h303l-608 -862h98l-37 -202h-147l-84 -449h-281l84 449h-143l35 202h98z" />
<glyph unicode="&#x4b1;" horiz-adv-x="1146" d="M152 1135h303l123 -752l397 752h307l-668 -1135h-217z" />
<glyph unicode="&#x4b2;" horiz-adv-x="1392" d="M-51 0l659 754l-379 759h334l254 -528l461 528h326l-666 -759l385 -754h-326l-266 522l-448 -522h-334z" />
<glyph unicode="&#x4b3;" horiz-adv-x="1146" d="M-59 0l512 586l-246 549h307l141 -342l265 342h307l-449 -549l295 -586h-328l-165 389l-312 -389h-327z" />
<glyph unicode="&#x4b4;" horiz-adv-x="1511" d="M78 0l280 1513h281l-231 -1243h540l232 1243h280l-229 -1243h262l-102 -557h-281l53 287h-1085z" />
<glyph unicode="&#x4b5;" horiz-adv-x="1351" d="M49 0l211 1135h272l-165 -887h426l163 887h273l-164 -887h209l-92 -494h-273l45 246h-905z" />
<glyph unicode="&#x4b6;" horiz-adv-x="1085" d="M61 801q0 35 7 71l118 641h281l-98 -538q-8 -25 -9 -49q0 -57 74 -62h365l121 649h280l-280 -1513h-281l109 594h-453q-234 0 -234 207z" />
<glyph unicode="&#x4b7;" horiz-adv-x="970" d="M55 575q0 14 4 52l93 508h272l-74 -402q-2 -12 -2 -33q0 -72 82 -71h285l96 506h272l-211 -1135h-272l70 381h-387q-86 0 -157 48t-71 146z" />
<glyph unicode="&#x4b8;" horiz-adv-x="1085" d="M61 801q0 35 7 71l118 641h281l-98 -538q-8 -25 -9 -49q0 -57 74 -62h365l121 649h280l-280 -1513h-281l109 594h-453q-234 0 -234 207z" />
<glyph unicode="&#x4b9;" horiz-adv-x="970" d="M55 575q0 14 4 52l93 508h272l-74 -402q-2 -12 -2 -33q0 -72 82 -71h285l96 506h272l-211 -1135h-272l70 381h-387q-86 0 -157 48t-71 146z" />
<glyph unicode="&#x4ba;" horiz-adv-x="1085" d="M61 0l281 1513h281l-109 -593h453q233 0 233 -207q0 -35 -6 -72l-119 -641h-280l98 539q8 37 8 49q0 57 -74 61h-364l-121 -649h-281z" />
<glyph unicode="&#x4bb;" horiz-adv-x="970" d="M55 0l211 1135h273l-70 -381h387q86 0 156.5 -48.5t70.5 -146.5q0 -14 -4 -51l-92 -508h-272l73 401q2 12 3 33q0 72 -82 72h-285l-96 -506h-273z" />
<glyph unicode="&#x4bc;" horiz-adv-x="1597" d="M127 621q0 233 132 446t349 343t453 130q287 0 473 -174q113 -104 162 -287h-316q-43 74 -88 111q-102 80 -272 80q-299 0 -488 -256q-119 -160 -118 -344q0 -186 118.5 -306t301.5 -120q111 0 202.5 40t206.5 138h330q-123 -205 -337 -327t-448 -122q-317 0 -499 207 q-76 84 -119 202t-43 239z" />
<glyph unicode="&#x4bd;" d="M96 457q0 279 217 491.5t500 212.5q242 0 389 -160q82 -88 109 -245h-307q-47 156 -232 155q-162 0 -278.5 -120.5t-116.5 -288.5q0 -127 73.5 -203t194.5 -76q176 0 287 150h307q-109 -193 -273.5 -296.5t-363.5 -103.5q-217 0 -361.5 138.5t-144.5 345.5z" />
<glyph unicode="&#x4be;" horiz-adv-x="1597" d="M127 621q0 233 132 446t349 343t453 130q287 0 473 -174q113 -104 162 -287h-316q-43 74 -88 111q-102 80 -272 80q-299 0 -488 -256q-119 -160 -118 -344q0 -186 118.5 -306t301.5 -120q111 0 202.5 40t206.5 138h330q-123 -205 -337 -327t-448 -122q-317 0 -499 207 q-76 84 -119 202t-43 239z" />
<glyph unicode="&#x4bf;" d="M96 457q0 279 217 491.5t500 212.5q242 0 389 -160q82 -88 109 -245h-307q-47 156 -232 155q-162 0 -278.5 -120.5t-116.5 -288.5q0 -127 73.5 -203t194.5 -76q176 0 287 150h307q-109 -193 -273.5 -296.5t-363.5 -103.5q-217 0 -361.5 138.5t-144.5 345.5z" />
<glyph unicode="&#x4c0;" horiz-adv-x="573" d="M78 0l280 1513h281l-281 -1513h-280z" />
<glyph unicode="&#x4c1;" horiz-adv-x="1947" d="M-51 0l704 743l-424 770h336l348 -665l123 665h281l-121 -653l600 653h328l-705 -743l422 -770h-334l-348 666l-123 -666h-280l121 653l-596 -653h-332zM918 1903q0 23 2 39h200q18 -86 125 -87q96 0 146 87h202q-29 -125 -136 -202t-247 -77q-137 0 -214.5 63.5 t-77.5 176.5z" />
<glyph unicode="&#x4c2;" horiz-adv-x="1775" d="M-51 0l508 555l-365 580h342l314 -531l98 531h274l-100 -535l469 535h317l-508 -555l365 -580h-340l-315 530l-99 -530h-272l98 535l-467 -535h-319zM690 1524q0 23 2 39h201q18 -86 125 -86q96 0 145 86h203q-29 -125 -136.5 -202t-246.5 -77q-137 0 -215 63.5 t-78 176.5z" />
<glyph unicode="&#x4c3;" horiz-adv-x="1269" d="M78 0l280 1513h281l-121 -653l592 653h336l-705 -743l424 -770h-336l-348 666l-123 -666h-280z" />
<glyph unicode="&#x4c4;" horiz-adv-x="1187" d="M49 0l209 1135h274l-100 -535l461 535h326l-508 -555l364 -580h-366l-289 530l-98 -530h-273z" />
<glyph unicode="&#x4c7;" horiz-adv-x="1392" d="M78 0l280 1513h281l-113 -608h541l113 608h280l-280 -1513h-281l117 635h-541l-117 -635h-280z" />
<glyph unicode="&#x4c8;" horiz-adv-x="1157" d="M49 0l211 1135h272l-81 -445h460l84 445h273l-211 -1135h-273l82 442h-463l-81 -442h-273z" />
<glyph unicode="&#x4cb;" horiz-adv-x="1085" d="M61 801q0 35 7 71l118 641h281l-98 -538q-8 -25 -9 -49q0 -57 74 -62h365l121 649h280l-280 -1513h-281l109 594h-453q-234 0 -234 207z" />
<glyph unicode="&#x4cc;" horiz-adv-x="970" d="M55 575q0 14 4 52l93 508h272l-74 -402q-2 -12 -2 -33q0 -72 82 -71h285l96 506h272l-211 -1135h-272l70 381h-387q-86 0 -157 48t-71 146z" />
<glyph unicode="&#x4d0;" horiz-adv-x="1515" d="M-47 0l911 1513h221l355 -1513h-310l-90 391h-538l-240 -391h-309zM655 662h324l-78 456zM715 1903q0 23 2 39h201q18 -86 124 -87q96 0 146 87h203q-29 -125 -136.5 -202t-246.5 -77q-137 0 -215 63.5t-78 176.5z" />
<glyph unicode="&#x4d1;" horiz-adv-x="1351" d="M92 436q0 297 209 511t498 214q238 0 334 -178l26 152h250l-209 -1135h-250l27 147q-182 -174 -410 -174q-215 0 -345 127t-130 336zM373 492q0 -123 74.5 -196t201.5 -73q209 0 328 168q76 115 76 250q0 125 -74 197.5t-201 72.5q-164 0 -284.5 -125.5t-120.5 -293.5z M535 1524q0 23 2 39h200q18 -86 125 -86q96 0 146 86h202q-29 -125 -136 -202t-247 -77q-137 0 -214.5 63.5t-77.5 176.5z" />
<glyph unicode="&#x4d2;" horiz-adv-x="1515" d="M-47 0l911 1513h221l355 -1513h-310l-90 391h-538l-240 -391h-309zM651 1663l51 270h273l-51 -270h-273zM655 662h324l-78 456zM1081 1663l52 270h272l-51 -270h-273z" />
<glyph unicode="&#x4d3;" horiz-adv-x="1351" d="M92 436q0 297 209 511t498 214q238 0 334 -178l26 152h250l-209 -1135h-250l27 147q-182 -174 -410 -174q-215 0 -345 127t-130 336zM373 492q0 -123 74.5 -196t201.5 -73q209 0 328 168q76 115 76 250q0 125 -74 197.5t-201 72.5q-164 0 -284.5 -125.5t-120.5 -293.5z M471 1284l51 270h273l-52 -270h-272zM901 1284l51 270h273l-51 -270h-273z" />
<glyph unicode="&#x4d4;" horiz-adv-x="1843" d="M-27 0l1278 1513h695l-50 -270h-446l-68 -352h424l-49 -270h-424l-65 -351h446l-49 -270h-727l72 391h-398l-303 -391h-336zM825 662h236l72 389z" />
<glyph unicode="&#x4d5;" horiz-adv-x="2211" d="M94 442q0 287 212 503t493 216q113 0 186.5 -32.5t132.5 -106.5l21 113h250l-21 -113q156 139 377 139q199 0 331 -131t132 -330q0 -119 -56 -251h-876q12 -102 87 -164t189 -62q152 0 263 113h296q-90 -164 -251.5 -263.5t-337.5 -99.5q-131 0 -224 52q-51 29 -96 98 l-24 -123h-250l24 123q-90 -84 -168.5 -117t-193.5 -33q-221 0 -358.5 130t-137.5 339zM375 492q0 -121 72.5 -195t193.5 -74q158 0 274.5 124t116.5 292q0 111 -59 178q-82 94 -205 94q-162 0 -277.5 -123.5t-115.5 -295.5zM1307 690h622q-18 104 -53 146q-76 76 -213 75 q-241 0 -356 -221z" />
<glyph unicode="&#x4d6;" horiz-adv-x="1064" d="M78 0l280 1513h813l-49 -270h-532l-68 -352h510l-49 -270h-510l-65 -351h532l-49 -270h-813zM506 1903q0 23 2 39h201q18 -86 125 -87q96 0 145 87h203q-29 -125 -136.5 -202t-246.5 -77q-137 0 -215 63.5t-78 176.5z" />
<glyph unicode="&#x4d7;" d="M94 457q0 279 218 491.5t503 212.5q213 0 349 -129t136 -332q0 -156 -40 -254h-879q0 -98 74.5 -160.5t191.5 -62.5q164 0 277 113h297q-92 -168 -256 -265.5t-357 -97.5q-227 0 -370.5 135.5t-143.5 348.5zM418 688h629q-12 223 -275 223q-119 0 -217 -61.5t-137 -161.5 zM551 1524q0 23 2 39h201q18 -86 125 -86q96 0 145 86h203q-29 -125 -136.5 -202t-246.5 -77q-137 0 -215 63.5t-78 176.5z" />
<glyph unicode="&#x4d8;" horiz-adv-x="1597" d="M127 434h315q53 -100 134 -140t227 -50q184 -8 347 103.5t216 287.5h-709l52 270h696q-18 162 -133 263.5t-283 101.5q-111 0 -203 -40t-206 -138h-330q123 205 337 326.5t447 121.5q283 8 471.5 -179t190.5 -468q0 -367 -269.5 -642.5t-664.5 -277.5q-244 6 -416 126 t-219 335z" />
<glyph unicode="&#x4d9;" d="M96 379h307q47 -156 232 -156q111 0 205 60.5t145 158.5h-465l47 248h459q-16 102 -87 161.5t-177 59.5q-176 0 -287 -149h-307q109 193 273.5 296t363.5 103q217 0 361.5 -138t144.5 -345q0 -279 -217 -492t-500 -213q-242 0 -389 160q-82 88 -109 246z" />
<glyph unicode="&#x4da;" horiz-adv-x="1597" d="M127 434h315q53 -100 134 -140t227 -50q184 -8 347 103.5t216 287.5h-709l52 270h696q-18 162 -133 263.5t-283 101.5q-111 0 -203 -40t-206 -138h-330q123 205 337 326.5t447 121.5q283 8 471.5 -179t190.5 -468q0 -367 -269.5 -642.5t-664.5 -277.5q-244 6 -416 126 t-219 335zM729 1663l51 270h273l-52 -270h-272zM1159 1663l51 270h273l-51 -270h-273z" />
<glyph unicode="&#x4db;" d="M96 379h307q47 -156 232 -156q111 0 205 60.5t145 158.5h-465l47 248h459q-16 102 -87 161.5t-177 59.5q-176 0 -287 -149h-307q109 193 273.5 296t363.5 103q217 0 361.5 -138t144.5 -345q0 -279 -217 -492t-500 -213q-242 0 -389 160q-82 88 -109 246zM477 1284l51 270 h273l-51 -270h-273zM907 1284l51 270h273l-51 -270h-273z" />
<glyph unicode="&#x4dc;" horiz-adv-x="1947" d="M-51 0l704 743l-424 770h336l348 -665l123 665h281l-121 -653l600 653h328l-705 -743l422 -770h-334l-348 666l-123 -666h-280l121 653l-596 -653h-332zM852 1663l51 270h273l-52 -270h-272zM1282 1663l51 270h273l-52 -270h-272z" />
<glyph unicode="&#x4dd;" horiz-adv-x="1775" d="M-51 0l508 555l-365 580h342l314 -531l98 531h274l-100 -535l469 535h317l-508 -555l365 -580h-340l-315 530l-99 -530h-272l98 535l-467 -535h-319zM625 1284l51 270h272l-51 -270h-272zM1055 1284l51 270h272l-51 -270h-272z" />
<glyph unicode="&#x4de;" horiz-adv-x="1173" d="M59 438h279q20 -74 106 -135t258 -61q182 0 297 70.5t115 189.5q0 152 -250 151l-231 2l57 289h230q98 0 163.5 51.5t65.5 128.5q0 57 -72.5 96.5t-169.5 39.5q-158 0 -241.5 -42t-137.5 -114h-280l22 45q20 45 75.5 109.5t130.5 128t200 108.5t270 45q217 0 354.5 -98.5 t137.5 -249.5q0 -156 -66.5 -259.5t-171.5 -137.5q90 -14 143.5 -87t53.5 -180q0 -246 -203 -400.5t-532 -154.5q-154 0 -272 48.5t-177 116t-97 136t-46 115.5zM618 1663l52 270h272l-51 -270h-273zM1049 1663l51 270h272l-51 -270h-272z" />
<glyph unicode="&#x4df;" horiz-adv-x="972" d="M86 326h254l8 -19q8 -20 27.5 -43.5t66.5 -43t113 -19.5q242 0 242 153q0 109 -176 109h-181l49 258h179q82 0 128 36t46 101q0 78 -144 78q-66 0 -118 -24.5t-72 -49.5l-19 -24h-223l15 30q14 33 50 78t87 91t137 78t186 32q170 0 248 -65.5t78 -168t-60.5 -189.5 t-132.5 -116q80 -12 128.5 -75.5t48.5 -155.5q0 -184 -151.5 -294t-387.5 -110q-117 0 -203 36t-127 88.5t-64.5 104.5t-27.5 89zM416 1284l51 270h272l-51 -270h-272zM846 1284l51 270h272l-51 -270h-272z" />
<glyph unicode="&#x4e0;" horiz-adv-x="1173" d="M68 403h329l17 -38q14 -41 68.5 -82t131.5 -41q121 0 174.5 57t63.5 174q6 72 -59.5 117t-194.5 45h-133l51 278h90q164 0 228 72q18 23 32.5 68t14.5 80q0 125 -168 124q-53 0 -88 -28.5t-43 -57.5l-9 -26h-278l12 41q12 41 45 99t80 115.5t126 98.5t171 41 q209 10 322.5 -78t115.5 -262q-12 -193 -73 -274q-53 -72 -152 -117q106 -45 160.5 -129t44.5 -186q-6 -70 -13.5 -113t-22.5 -104.5t-37.5 -99.5t-62.5 -81t-93.5 -66.5t-131 -41t-176.5 -17.5q-133 -2 -237.5 42t-159.5 108.5t-90 128t-45 108.5z" />
<glyph unicode="&#x4e1;" horiz-adv-x="972" d="M90 307h311l9 -14q6 -14 21 -31.5t47 -32t75 -14.5q63 0 95 17.5t39 36t20 67.5q-2 80 -48.5 108.5t-142.5 28.5h-80l33 211h53q182 0 207 131q0 63 -27.5 90t-83.5 25q-41 0 -69.5 -22.5t-36.5 -43.5l-10 -22h-226l7 32q4 33 27.5 80t60.5 94.5t109.5 80t166.5 32.5 q141 0 226 -67.5t94 -208.5q4 -66 -45.5 -149t-124.5 -109q74 -33 114.5 -109t32.5 -127q-10 -215 -112.5 -317.5t-303.5 -100.5q-113 0 -198.5 35t-128.5 84t-71 98.5t-34 83.5z" />
<glyph unicode="&#x4e2;" horiz-adv-x="1515" d="M78 0l280 1513h281l-205 -1101l838 1101h313l-280 -1513h-281l203 1100l-830 -1100h-319zM715 1663l35 203h573l-37 -203h-571z" />
<glyph unicode="&#x4e3;" horiz-adv-x="1157" d="M49 0l211 1135h272l-153 -799l571 799h318l-211 -1135h-273l142 770l-570 -770h-307zM508 1284l35 203h573l-37 -203h-571z" />
<glyph unicode="&#x4e4;" horiz-adv-x="1515" d="M78 0l280 1513h281l-205 -1101l838 1101h313l-280 -1513h-281l203 1100l-830 -1100h-319zM647 1663l51 270h273l-51 -270h-273zM1077 1663l51 270h273l-51 -270h-273z" />
<glyph unicode="&#x4e5;" horiz-adv-x="1157" d="M49 0l211 1135h272l-153 -799l571 799h318l-211 -1135h-273l142 770l-570 -770h-307zM440 1284l52 270h272l-51 -270h-273zM870 1284l52 270h272l-51 -270h-273z" />
<glyph unicode="&#x4e6;" horiz-adv-x="1720" d="M125 614q0 156 66.5 317t181.5 288q143 156 326.5 238.5t383.5 82.5q283 0 465.5 -180t182.5 -461q0 -240 -130.5 -454t-348.5 -343t-461 -129q-291 0 -478.5 180t-187.5 461zM412 662q0 -182 120.5 -300t307.5 -118q139 0 263 63.5t212 179.5q129 172 129 371 q0 180 -117 296t-299 116q-295 0 -481 -244q-135 -174 -135 -364zM756 1663l51 270h272l-51 -270h-272zM1186 1663l51 270h272l-51 -270h-272z" />
<glyph unicode="&#x4e7;" d="M94 453q0 281 219 494.5t508 213.5q217 0 358.5 -139t141.5 -352q0 -274 -221 -485.5t-510 -211.5q-211 0 -353.5 137.5t-142.5 342.5zM375 500q0 -119 76.5 -198t193.5 -79q154 0 274.5 126t120.5 284q0 121 -75.5 199.5t-190.5 78.5q-156 0 -277.5 -124.5 t-121.5 -286.5zM494 1284l51 270h272l-51 -270h-272zM924 1284l51 270h272l-51 -270h-272z" />
<glyph unicode="&#x4e8;" horiz-adv-x="1720" d="M125 614q0 156 66.5 317t181.5 288q143 156 326.5 238.5t383.5 82.5q283 0 465.5 -180t182.5 -461q0 -240 -130.5 -454t-348.5 -343t-461 -129q-291 0 -478.5 180t-187.5 461zM412 662q0 -182 120.5 -300t307.5 -118q139 0 263 63.5t212 179.5q55 72 92 175h-995z M455 864h989q-2 176 -119 291t-297 115q-295 0 -481 -244q-57 -72 -92 -162z" />
<glyph unicode="&#x4e9;" d="M94 453q0 281 219 494.5t508 213.5q217 0 358.5 -139t141.5 -352q0 -274 -221 -485.5t-510 -211.5q-211 0 -353.5 137.5t-142.5 342.5zM375 475q10 -111 85 -181.5t185 -70.5q113 0 212 72t149 180h-631zM418 678h618q-14 104 -85.5 168.5t-176.5 64.5q-109 0 -206 -65.5 t-150 -167.5z" />
<glyph unicode="&#x4ea;" horiz-adv-x="1720" d="M125 614q0 156 66.5 317t181.5 288q143 156 326.5 238.5t383.5 82.5q283 0 465.5 -180t182.5 -461q0 -240 -130.5 -454t-348.5 -343t-461 -129q-291 0 -478.5 180t-187.5 461zM412 662q0 -182 120.5 -300t307.5 -118q139 0 263 63.5t212 179.5q55 72 92 175h-995z M455 864h989q-2 176 -119 291t-297 115q-295 0 -481 -244q-57 -72 -92 -162zM756 1663l51 270h272l-51 -270h-272zM1186 1663l51 270h272l-51 -270h-272z" />
<glyph unicode="&#x4eb;" d="M94 453q0 281 219 494.5t508 213.5q217 0 358.5 -139t141.5 -352q0 -274 -221 -485.5t-510 -211.5q-211 0 -353.5 137.5t-142.5 342.5zM375 475q10 -111 85 -181.5t185 -70.5q113 0 212 72t149 180h-631zM418 678h618q-14 104 -85.5 168.5t-176.5 64.5q-109 0 -206 -65.5 t-150 -167.5zM494 1284l51 270h272l-51 -270h-272zM924 1284l51 270h272l-51 -270h-272z" />
<glyph unicode="&#x4ec;" horiz-adv-x="1597" d="M127 434h315q55 -104 138.5 -147t222.5 -43q190 0 350 108.5t213 282.5h-709l52 270h696q-18 162 -133 263.5t-283 101.5q-111 0 -203 -40t-206 -138h-330q123 205 337 326.5t447 121.5q283 0 472.5 -185.5t189.5 -461.5q0 -236 -123 -448t-340 -342t-471 -130 q-242 0 -415 122t-220 339zM707 1663l51 270h272l-51 -270h-272zM1137 1663l51 270h272l-51 -270h-272z" />
<glyph unicode="&#x4ed;" d="M96 379h307q47 -156 232 -156q111 0 205 60.5t145 158.5h-465l47 248h459q-16 102 -87 161.5t-177 59.5q-176 0 -287 -149h-307q109 193 273.5 296t363.5 103q217 0 361.5 -138t144.5 -345q0 -279 -217 -492t-500 -213q-242 0 -389 160q-82 88 -109 246zM477 1284l51 270 h273l-51 -270h-273zM907 1284l51 270h273l-51 -270h-273z" />
<glyph unicode="&#x4ee;" horiz-adv-x="1269" d="M131 0l408 582l-314 931h293l207 -669l473 669h303l-1067 -1513h-303zM606 1663l35 203h573l-36 -203h-572z" />
<glyph unicode="&#x4ef;" horiz-adv-x="1187" d="M88 -379l299 485l-225 1029h311l115 -732l411 732h314l-932 -1514h-293zM481 1284l35 203h574l-37 -203h-572z" />
<glyph unicode="&#x4f0;" horiz-adv-x="1269" d="M131 0l408 582l-314 931h293l207 -669l473 669h303l-1067 -1513h-303zM539 1663l51 270h272l-51 -270h-272zM969 1663l51 270h272l-51 -270h-272z" />
<glyph unicode="&#x4f1;" horiz-adv-x="1187" d="M88 -379l299 485l-225 1029h311l115 -732l411 732h314l-932 -1514h-293zM414 1284l51 270h272l-51 -270h-272zM844 1284l51 270h272l-51 -270h-272z" />
<glyph unicode="&#x4f2;" horiz-adv-x="1269" d="M131 0l408 582l-314 931h293l207 -669l473 669h303l-1067 -1513h-303zM524 1825l471 291l107 -183l-500 -270zM1102 1825l473 291l104 -183l-497 -270z" />
<glyph unicode="&#x4f3;" horiz-adv-x="1187" d="M88 -379l299 485l-225 1029h311l115 -732l411 732h314l-932 -1514h-293zM397 1446l471 291l107 -183l-500 -270zM975 1446l473 291l104 -183l-497 -270z" />
<glyph unicode="&#x4f4;" horiz-adv-x="1085" d="M61 801q0 35 7 71l118 641h281l-98 -538q-8 -25 -9 -49q0 -57 74 -62h365l121 649h280l-280 -1513h-281l109 594h-453q-234 0 -234 207zM369 1663l51 270h272l-51 -270h-272zM799 1663l51 270h272l-51 -270h-272z" />
<glyph unicode="&#x4f5;" horiz-adv-x="970" d="M55 575q0 14 4 52l93 508h272l-74 -402q-2 -12 -2 -33q0 -72 82 -71h285l96 506h272l-211 -1135h-272l70 381h-387q-86 0 -157 48t-71 146zM293 1284l51 270h272l-51 -270h-272zM723 1284l51 270h273l-52 -270h-272z" />
<glyph unicode="&#x4f8;" horiz-adv-x="1722" d="M78 0l295 1513h280l-82 -417h226q268 0 420.5 -104.5t152.5 -311.5q0 -305 -218 -492.5t-568 -187.5h-506zM412 268h237q156 0 295 94.5t139 235.5q0 102 -95 165.5t-224 63.5h-244zM844 1663l51 270h272l-51 -270h-272zM1274 1663l51 270h272l-51 -270h-272zM1393 -2 l280 1513h281l-281 -1513h-280z" />
<glyph unicode="&#x4f9;" horiz-adv-x="1388" d="M86 0l221 1135h273l-72 -363h154q195 0 303 -74.5t108 -224.5q0 -205 -162.5 -339t-398.5 -134h-426zM406 246h227q88 0 135 55t47 119q0 47 -29.5 84t-101.5 37h-221zM631 1284l51 270h272l-51 -270h-272zM1061 1284l51 270h272l-51 -270h-272zM1118 0l211 1135h273 l-211 -1135h-273z" />
<glyph unicode="&#xe3f;" horiz-adv-x="1187" d="M78 0l280 1513h314h33l32 170h199l-33 -180q94 -14 160 -61q119 -88 119 -254q0 -258 -226 -363q106 -45 151.5 -110.5t45.5 -173.5q0 -205 -138 -350.5t-388 -180.5l-35 -180h-199l31 170h-346zM408 270h139q319 0 319 224q0 86 -60.5 123.5t-193.5 37.5h-133zM530 930 h91q274 0 274 194q0 119 -193 119h-114z" />
<glyph unicode="&#x1e0c;" horiz-adv-x="1433" d="M78 0l280 1513h347q391 0 564 -147t173 -440q0 -227 -106.5 -440.5t-280.5 -333.5q-117 -82 -261.5 -117t-363.5 -35h-352zM408 268h61q188 0 307 39t205 127q174 180 174 428q0 197 -113.5 290t-396.5 93h-55zM457 -434l51 270h272l-51 -270h-272z" />
<glyph unicode="&#x1e0d;" horiz-adv-x="1351" d="M94 451q0 289 210 507t487 218q104 0 191 -38t132 -104l88 479h273l-281 -1513h-250l29 147q-186 -174 -408 -174q-213 0 -342 131.5t-129 346.5zM375 508q0 -127 78.5 -206t203.5 -79q156 0 278 128t122 292q0 127 -75 205t-198 78q-166 0 -287.5 -124t-121.5 -294z M397 -434l52 270h272l-51 -270h-273z" />
<glyph unicode="&#x1e0e;" horiz-adv-x="1433" d="M78 0l280 1513h347q391 0 564 -147t173 -440q0 -227 -106.5 -440.5t-280.5 -333.5q-117 -82 -261.5 -117t-363.5 -35h-352zM315 -399l35 202h574l-37 -202h-572zM408 268h61q188 0 307 39t205 127q174 180 174 428q0 197 -113.5 290t-396.5 93h-55z" />
<glyph unicode="&#x1e0f;" horiz-adv-x="1351" d="M94 451q0 289 210 507t487 218q104 0 191 -38t132 -104l88 479h273l-281 -1513h-250l29 147q-186 -174 -408 -174q-213 0 -342 131.5t-129 346.5zM256 -399l35 202h573l-37 -202h-571zM375 508q0 -127 78.5 -206t203.5 -79q156 0 278 128t122 292q0 127 -75 205t-198 78 q-166 0 -287.5 -124t-121.5 -294z" />
<glyph unicode="&#x1e24;" horiz-adv-x="1392" d="M78 0l280 1513h281l-113 -608h541l113 608h280l-280 -1513h-281l117 635h-541l-117 -635h-280zM412 -434l51 270h272l-51 -270h-272z" />
<glyph unicode="&#x1e25;" horiz-adv-x="1228" d="M49 0l281 1513h272l-84 -456q127 106 305 106q168 0 269.5 -89t101.5 -238q0 -90 -20 -195l-119 -641h-273l107 580q18 98 18 165q0 80 -47 124t-131 44q-121 0 -193.5 -75.5t-107.5 -262.5l-106 -575h-273zM336 -434l51 270h272l-51 -270h-272z" />
<glyph unicode="&#x1e26;" horiz-adv-x="1392" d="M78 0l280 1513h281l-113 -608h541l113 608h280l-280 -1513h-281l117 635h-541l-117 -635h-280zM571 1657l52 270h272l-51 -270h-273zM1001 1657l52 270h272l-51 -270h-273z" />
<glyph unicode="&#x1e27;" horiz-adv-x="1228" d="M49 0l281 1513h272l-84 -456q127 106 305 106q168 0 269.5 -89t101.5 -238q0 -90 -20 -195l-119 -641h-273l107 580q18 98 18 165q0 80 -47 124t-131 44q-121 0 -193.5 -75.5t-107.5 -262.5l-106 -575h-273zM496 1657l51 270h272l-51 -270h-272zM926 1657l51 270h272 l-51 -270h-272z" />
<glyph unicode="&#x1e2a;" horiz-adv-x="1392" d="M78 0l280 1513h281l-113 -608h541l113 608h280l-280 -1513h-281l117 635h-541l-117 -635h-280zM260 -199q0 23 2 39h201q18 -86 125 -86q96 0 145 86h203q-29 -125 -136.5 -201.5t-246.5 -76.5q-137 0 -215 63t-78 176z" />
<glyph unicode="&#x1e2b;" horiz-adv-x="1228" d="M49 0l281 1513h272l-84 -456q127 106 305 106q168 0 269.5 -89t101.5 -238q0 -90 -20 -195l-119 -641h-273l107 580q18 98 18 165q0 80 -47 124t-131 44q-121 0 -193.5 -75.5t-107.5 -262.5l-106 -575h-273zM184 -199q0 23 2 39h201q18 -86 125 -86q96 0 145 86h203 q-29 -125 -136.5 -201.5t-246.5 -76.5q-137 0 -215 63t-78 176z" />
<glyph unicode="&#x1e36;" horiz-adv-x="901" d="M78 0l280 1513h281l-231 -1243h464l-49 -270h-745zM233 -434l52 270h272l-51 -270h-273z" />
<glyph unicode="&#x1e37;" horiz-adv-x="491" d="M-33 -434l51 270h273l-51 -270h-273zM49 0l281 1513h272l-280 -1513h-273z" />
<glyph unicode="&#x1e38;" horiz-adv-x="901" d="M78 0l280 1513h281l-231 -1243h464l-49 -270h-745zM233 -434l52 270h272l-51 -270h-273zM248 1692l35 202h573l-37 -202h-571z" />
<glyph unicode="&#x1e39;" horiz-adv-x="491" d="M-33 -434l51 270h273l-51 -270h-273zM49 0l281 1513h272l-280 -1513h-273zM215 1692l35 202h573l-37 -202h-571z" />
<glyph unicode="&#x1e42;" horiz-adv-x="1843" d="M78 0l280 1513h385l195 -1146l616 1146h385l-280 -1513h-281l211 1135l-606 -1135h-229l-185 1135l-211 -1135h-280zM643 -434l51 270h273l-52 -270h-272z" />
<glyph unicode="&#x1e43;" horiz-adv-x="1925" d="M49 0l211 1135h250l-21 -107q133 133 324 133q223 0 297 -176q158 176 399 176q180 0 279.5 -89t99.5 -249q0 -74 -16 -168l-121 -655h-272l114 623q14 90 15 137q0 66 -47.5 108.5t-122.5 42.5q-121 0 -189.5 -73.5t-107.5 -278.5l-105 -559h-272l115 623q14 82 14 112 q0 176 -180 176q-121 0 -185.5 -74.5t-101.5 -277.5l-104 -559h-273zM684 -434l51 270h273l-52 -270h-272z" />
<glyph unicode="&#x1e44;" horiz-adv-x="1515" d="M78 0l280 1513h320l422 -1101l205 1101h280l-280 -1513h-314l-428 1100l-205 -1100h-280zM862 1657l51 270h273l-51 -270h-273z" />
<glyph unicode="&#x1e45;" horiz-adv-x="1228" d="M49 0l211 1135h252l-20 -109q94 76 168.5 105.5t168.5 29.5q176 0 270.5 -87t94.5 -249q0 -82 -25 -217l-112 -608h-273l103 555q18 102 18 188q0 168 -172 168q-121 0 -196.5 -78.5t-116.5 -297.5l-98 -535h-273zM657 1298l52 271h272l-51 -271h-273z" />
<glyph unicode="&#x1e46;" horiz-adv-x="1515" d="M78 0l280 1513h320l422 -1101l205 1101h280l-280 -1513h-314l-428 1100l-205 -1100h-280zM475 -434l51 270h273l-51 -270h-273z" />
<glyph unicode="&#x1e47;" horiz-adv-x="1228" d="M49 0l211 1135h252l-20 -109q94 76 168.5 105.5t168.5 29.5q176 0 270.5 -87t94.5 -249q0 -82 -25 -217l-112 -608h-273l103 555q18 102 18 188q0 168 -172 168q-121 0 -196.5 -78.5t-116.5 -297.5l-98 -535h-273zM336 -434l51 270h272l-51 -270h-272z" />
<glyph unicode="&#x1e58;" horiz-adv-x="1187" d="M78 0l280 1513h437q489 0 489 -380q0 -213 -126 -365t-361 -209l305 -559h-346l-291 580l-107 -580h-280zM506 791h137q186 0 270 76.5t84 199.5q0 94 -60 135t-222 41h-125zM684 1657l51 270h273l-52 -270h-272z" />
<glyph unicode="&#x1e59;" horiz-adv-x="655" d="M49 0l211 1135h250l-21 -111q66 80 129.5 109.5t163.5 27.5l-49 -262q-121 -2 -199.5 -73.5t-95.5 -194.5l-116 -631h-273zM403 1298l52 271h272l-51 -271h-273z" />
<glyph unicode="&#x1e5a;" horiz-adv-x="1187" d="M78 0l280 1513h437q489 0 489 -380q0 -213 -126 -365t-361 -209l305 -559h-346l-291 580l-107 -580h-280zM297 -434l51 270h273l-52 -270h-272zM506 791h137q186 0 270 76.5t84 199.5q0 94 -60 135t-222 41h-125z" />
<glyph unicode="&#x1e5b;" horiz-adv-x="655" d="M-31 -434l51 270h273l-51 -270h-273zM49 0l211 1135h250l-21 -111q66 80 129.5 109.5t163.5 27.5l-49 -262q-121 -2 -199.5 -73.5t-95.5 -194.5l-116 -631h-273z" />
<glyph unicode="&#x1e5c;" horiz-adv-x="1187" d="M78 0l280 1513h437q489 0 489 -380q0 -213 -126 -365t-361 -209l305 -559h-346l-291 580l-107 -580h-280zM297 -434l51 270h273l-52 -270h-272zM506 791h137q186 0 270 76.5t84 199.5q0 94 -60 135t-222 41h-125zM543 1692l35 202h573l-37 -202h-571z" />
<glyph unicode="&#x1e5d;" horiz-adv-x="655" d="M-31 -434l51 270h273l-51 -270h-273zM49 0l211 1135h250l-21 -111q66 80 129.5 109.5t163.5 27.5l-49 -262q-121 -2 -199.5 -73.5t-95.5 -194.5l-116 -631h-273zM268 1360l35 203h574l-37 -203h-572z" />
<glyph unicode="&#x1e62;" horiz-adv-x="1064" d="M39 350q0 16 4 82h293q-2 -16 -2 -43q0 -68 46 -106.5t128 -38.5q102 0 174 64.5t72 156.5q0 78 -45 117q-31 25 -66 42t-176 74q-248 98 -248 338q0 199 159 351.5t363 152.5q164 0 273.5 -95t109.5 -239q0 -45 -8 -96h-289q0 90 -31.5 125t-103.5 35q-78 0 -132 -55.5 t-54 -131.5q0 -59 61 -104q31 -23 156 -68q170 -63 243.5 -149t73.5 -219q0 -223 -176 -396.5t-401 -173.5q-190 0 -307 105.5t-117 271.5zM240 -434l51 270h272l-51 -270h-272z" />
<glyph unicode="&#x1e63;" horiz-adv-x="901" d="M39 281q0 18 4 79h274q4 -137 127 -137q59 0 102.5 39t43.5 92q0 41 -32 64.5t-136 60.5q-150 51 -204 110.5t-54 168.5q0 164 134 283.5t316 119.5q125 0 218.5 -77.5t93.5 -184.5q0 -31 -6 -78h-267q-4 90 -90 90q-47 0 -83 -33.5t-36 -78.5q0 -35 25 -52.5t143 -54.5 q145 -47 201.5 -104.5t56.5 -159.5q0 -180 -146 -317.5t-339 -137.5q-154 0 -250 85.5t-96 222.5zM182 -434l51 270h273l-51 -270h-273z" />
<glyph unicode="&#x1e6c;" horiz-adv-x="860" d="M154 -434l51 270h272l-51 -270h-272zM182 1243l49 270h844l-49 -270h-285l-231 -1243h-281l232 1243h-279z" />
<glyph unicode="&#x1e6d;" horiz-adv-x="614" d="M29 -434l51 270h272l-51 -270h-272zM90 0l164 887h-133l47 248h133l70 378h272l-70 -378h164l-47 -248h-164l-164 -887h-272z" />
<glyph unicode="&#x1e6e;" horiz-adv-x="860" d="M12 -399l35 202h574l-37 -202h-572zM182 1243l49 270h844l-49 -270h-285l-231 -1243h-281l232 1243h-279z" />
<glyph unicode="&#x1e6f;" horiz-adv-x="614" d="M-113 -399l35 202h574l-37 -202h-572zM90 0l164 887h-133l47 248h133l70 378h272l-70 -378h164l-47 -248h-164l-164 -887h-272z" />
<glyph unicode="&#x1e80;" horiz-adv-x="1843" d="M233 1513h287l70 -1056l454 1056h205l58 -1056l465 1056h286l-723 -1513h-223l-57 1001l-437 -1001h-221zM825 1831l172 203l387 -260l-149 -181z" />
<glyph unicode="&#x1e81;" horiz-adv-x="1638" d="M170 1135h293l74 -693l319 693h217l57 -693l336 693h291l-620 -1135h-170l-78 735l-357 -735h-167zM647 1473l172 202l387 -260l-149 -180z" />
<glyph unicode="&#x1e82;" horiz-adv-x="1843" d="M233 1513h287l70 -1056l454 1056h205l58 -1056l465 1056h286l-723 -1513h-223l-57 1001l-437 -1001h-221zM1006 1774l483 260l96 -203l-498 -238z" />
<glyph unicode="&#x1e83;" horiz-adv-x="1638" d="M170 1135h293l74 -693l319 693h217l57 -693l336 693h291l-620 -1135h-170l-78 735l-357 -735h-167zM825 1415l484 260l96 -202l-498 -238z" />
<glyph unicode="&#x1e84;" horiz-adv-x="1843" d="M233 1513h287l70 -1056l454 1056h205l58 -1056l465 1056h286l-723 -1513h-223l-57 1001l-437 -1001h-221zM809 1657l51 270h273l-52 -270h-272zM1239 1657l51 270h273l-52 -270h-272z" />
<glyph unicode="&#x1e85;" horiz-adv-x="1638" d="M170 1135h293l74 -693l319 693h217l57 -693l336 693h291l-620 -1135h-170l-78 735l-357 -735h-167zM631 1298l51 271h272l-51 -271h-272zM1061 1298l51 271h272l-51 -271h-272z" />
<glyph unicode="&#x1e92;" horiz-adv-x="1024" d="M-25 0l43 240l762 1003h-542l49 270h876l-47 -253l-754 -990h609l-49 -270h-947zM227 -434l52 270h272l-51 -270h-273z" />
<glyph unicode="&#x1e93;" horiz-adv-x="942" d="M-20 0l45 242l624 651h-444l45 242h770l-45 -242l-623 -651h539l-45 -242h-866zM207 -434l51 270h272l-51 -270h-272z" />
<glyph unicode="&#x1e97;" horiz-adv-x="614" d="M90 0l164 887h-133l47 248h133l70 378h272l-70 -378h164l-47 -248h-164l-164 -887h-272zM170 1657l51 270h273l-52 -270h-272zM600 1657l51 270h273l-52 -270h-272z" />
<glyph unicode="&#x1ea0;" horiz-adv-x="1515" d="M-47 0l911 1513h221l355 -1513h-310l-90 391h-538l-240 -391h-309zM479 -434l51 270h273l-51 -270h-273zM655 662h324l-78 456z" />
<glyph unicode="&#x1ea1;" horiz-adv-x="1351" d="M92 436q0 297 209 511t498 214q238 0 334 -178l26 152h250l-209 -1135h-250l27 147q-182 -174 -410 -174q-215 0 -345 127t-130 336zM367 -434l51 270h272l-51 -270h-272zM373 492q0 -123 74.5 -196t201.5 -73q170 0 287 120t117 298q0 125 -74 197.5t-201 72.5 q-164 0 -284.5 -125.5t-120.5 -293.5z" />
<glyph unicode="&#x1ea2;" horiz-adv-x="1515" d="M-47 0l911 1513h221l355 -1513h-310l-90 391h-538l-240 -391h-309zM655 662h324l-78 456zM780 1903q35 111 122 177t200 66q96 0 156.5 -50t60.5 -132q0 -63 -33 -111.5t-127 -105.5q-53 -33 -70.5 -58.5t-29.5 -84.5h-174q25 109 61.5 157.5t132.5 106.5q61 35 62 78 q0 20 -20.5 33.5t-51.5 13.5q-41 0 -65.5 -19.5t-47.5 -70.5h-176z" />
<glyph unicode="&#x1ea3;" horiz-adv-x="1351" d="M92 436q0 297 209 511t498 214q238 0 334 -178l26 152h250l-209 -1135h-250l27 147q-182 -174 -410 -174q-215 0 -345 127t-130 336zM373 492q0 -123 74.5 -196t201.5 -73q170 0 287 120t117 298q0 125 -74 197.5t-201 72.5q-164 0 -284.5 -125.5t-120.5 -293.5z M600 1524q35 111 122 177t200 66q96 0 156.5 -50t60.5 -132q0 -63 -33 -111.5t-127 -105.5q-53 -33 -70.5 -58.5t-29.5 -84.5h-174q25 109 61.5 158t132.5 106q61 35 62 78q0 20 -20.5 33.5t-51.5 13.5q-41 0 -65.5 -19.5t-47.5 -70.5h-176z" />
<glyph unicode="&#x1ea4;" horiz-adv-x="1515" d="M-47 0l911 1513h221l355 -1513h-310l-90 391h-538l-240 -391h-309zM592 1651l354 282h219l244 -282h-297l-84 131l-135 -131h-301zM655 662h324l-78 456zM903 2154l483 261l97 -203l-498 -238z" />
<glyph unicode="&#x1ea5;" horiz-adv-x="1351" d="M92 436q0 297 209 511t498 214q238 0 334 -178l26 152h250l-209 -1135h-250l27 147q-182 -174 -410 -174q-215 0 -345 127t-130 336zM373 492q0 -123 74.5 -196t201.5 -73q170 0 287 120t117 298q0 125 -74 197.5t-201 72.5q-164 0 -284.5 -125.5t-120.5 -293.5z M412 1272l354 282h219l244 -282h-297l-84 131l-135 -131h-301zM723 1776l483 260l97 -203l-498 -238z" />
<glyph unicode="&#x1ea6;" horiz-adv-x="1515" d="M-47 0l911 1513h221l355 -1513h-310l-90 391h-538l-240 -391h-309zM592 1651l354 282h219l244 -282h-297l-84 131l-135 -131h-301zM655 662h324l-78 456zM725 2212l170 203l387 -261l-147 -180z" />
<glyph unicode="&#x1ea7;" horiz-adv-x="1351" d="M92 436q0 297 209 511t498 214q238 0 334 -178l26 152h250l-209 -1135h-250l27 147q-182 -174 -410 -174q-215 0 -345 127t-130 336zM373 492q0 -123 74.5 -196t201.5 -73q170 0 287 120t117 298q0 125 -74 197.5t-201 72.5q-164 0 -284.5 -125.5t-120.5 -293.5z M412 1272l354 282h219l244 -282h-297l-84 131l-135 -131h-301zM545 1833l170 203l387 -260l-148 -181z" />
<glyph unicode="&#x1ea8;" horiz-adv-x="1515" d="M-47 0l911 1513h221l355 -1513h-310l-90 391h-538l-240 -391h-309zM592 1651l354 282h219l244 -282h-297l-84 131l-135 -131h-301zM655 662h324l-78 456zM995 2288q35 111 122 177t200 66q96 0 156.5 -50t60.5 -132q0 -63 -33 -111.5t-127 -105.5q-51 -33 -69.5 -58.5 t-30.5 -84.5h-174q25 109 61.5 157.5t132.5 106.5q61 35 62 78q0 20 -20.5 33.5t-51.5 13.5q-41 0 -65.5 -19.5t-47.5 -70.5h-176z" />
<glyph unicode="&#x1ea9;" horiz-adv-x="1351" d="M92 436q0 297 209 511t498 214q238 0 334 -178l26 152h250l-209 -1135h-250l27 147q-182 -174 -410 -174q-215 0 -345 127t-130 336zM373 492q0 -123 74.5 -196t201.5 -73q170 0 287 120t117 298q0 125 -74 197.5t-201 72.5q-164 0 -284.5 -125.5t-120.5 -293.5z M412 1272l354 282h219l244 -282h-297l-84 131l-135 -131h-301zM815 1909q35 111 122 177t200 66q96 0 156.5 -50t60.5 -132q0 -63 -33 -111.5t-127 -105.5q-51 -33 -69.5 -58.5t-30.5 -84.5h-174q25 109 61.5 158t132.5 106q61 35 62 78q0 20 -20.5 33.5t-51.5 13.5 q-41 0 -65.5 -19.5t-47.5 -70.5h-176z" />
<glyph unicode="&#x1eaa;" horiz-adv-x="1515" d="M-47 0l911 1513h221l355 -1513h-310l-90 391h-538l-240 -391h-309zM592 1651l354 282h219l244 -282h-297l-84 131l-135 -131h-301zM655 662h324l-78 456zM754 2171q41 43 97 70.5t101 27.5q27 0 117 -31.5t109 -31.5q43 0 69.5 11t95.5 60l70 -168q-92 -115 -221 -114 q-14 0 -122.5 31.5t-125.5 31.5q-41 0 -113 -61z" />
<glyph unicode="&#x1eab;" horiz-adv-x="1351" d="M92 436q0 297 209 511t498 214q238 0 334 -178l26 152h250l-209 -1135h-250l27 147q-182 -174 -410 -174q-215 0 -345 127t-130 336zM373 492q0 -123 74.5 -196t201.5 -73q170 0 287 120t117 298q0 125 -74 197.5t-201 72.5q-164 0 -284.5 -125.5t-120.5 -293.5z M412 1272l354 282h219l244 -282h-297l-84 131l-135 -131h-301zM573 1792q41 43 97.5 70.5t101.5 27.5q27 0 117 -31.5t108 -31.5q43 0 70 11t96 60l70 -167q-92 -115 -221 -115q-14 0 -123 31.5t-125 31.5q-41 0 -113 -61z" />
<glyph unicode="&#x1eac;" horiz-adv-x="1515" d="M-47 0l911 1513h221l355 -1513h-310l-90 391h-538l-240 -391h-309zM479 -434l51 270h273l-51 -270h-273zM592 1651l354 282h219l244 -282h-297l-84 131l-135 -131h-301zM655 662h324l-78 456z" />
<glyph unicode="&#x1ead;" horiz-adv-x="1351" d="M92 436q0 297 209 511t498 214q238 0 334 -178l26 152h250l-209 -1135h-250l27 147q-182 -174 -410 -174q-215 0 -345 127t-130 336zM367 -434l51 270h272l-51 -270h-272zM373 492q0 -123 74.5 -196t201.5 -73q170 0 287 120t117 298q0 125 -74 197.5t-201 72.5 q-164 0 -284.5 -125.5t-120.5 -293.5zM414 1292l354 283h219l244 -283h-297l-84 131l-135 -131h-301z" />
<glyph unicode="&#x1eae;" horiz-adv-x="1515" d="M-47 0l911 1513h221l355 -1513h-310l-90 391h-538l-240 -391h-309zM655 662h324l-78 456zM713 1892q0 23 2 39h200q18 -86 125 -86q96 0 146 86h203q-29 -125 -136.5 -201.5t-246.5 -76.5q-137 0 -215 63t-78 176zM946 2167l484 260l96 -203l-498 -237z" />
<glyph unicode="&#x1eaf;" horiz-adv-x="1351" d="M92 436q0 297 209 511t498 214q238 0 334 -178l26 152h250l-209 -1135h-250l27 147q-182 -174 -410 -174q-215 0 -345 127t-130 336zM373 492q0 -123 74.5 -196t201.5 -73q170 0 287 120t117 298q0 125 -74 197.5t-201 72.5q-164 0 -284.5 -125.5t-120.5 -293.5z M532 1513q0 23 3 39h200q18 -86 125 -86q96 0 146 86h202q-29 -125 -136 -201.5t-247 -76.5q-137 0 -215 63t-78 176zM766 1788l483 260l97 -203l-498 -237z" />
<glyph unicode="&#x1eb0;" horiz-adv-x="1515" d="M-47 0l911 1513h221l355 -1513h-310l-90 391h-538l-240 -391h-309zM655 662h324l-78 456zM686 2224l170 203l387 -260l-147 -180zM713 1892q0 23 2 39h200q18 -86 125 -86q96 0 146 86h203q-29 -125 -136.5 -201.5t-246.5 -76.5q-137 0 -215 63t-78 176z" />
<glyph unicode="&#x1eb1;" horiz-adv-x="1351" d="M92 436q0 297 209 511t498 214q238 0 334 -178l26 152h250l-209 -1135h-250l27 147q-182 -174 -410 -174q-215 0 -345 127t-130 336zM373 492q0 -123 74.5 -196t201.5 -73q170 0 287 120t117 298q0 125 -74 197.5t-201 72.5q-164 0 -284.5 -125.5t-120.5 -293.5z M506 1845l170 203l387 -260l-148 -180zM532 1513q0 23 3 39h200q18 -86 125 -86q96 0 146 86h202q-29 -125 -136 -201.5t-247 -76.5q-137 0 -215 63t-78 176z" />
<glyph unicode="&#x1eb2;" horiz-adv-x="1515" d="M-47 0l911 1513h221l355 -1513h-310l-90 391h-538l-240 -391h-309zM655 662h324l-78 456zM713 1892q0 23 2 39h200q18 -86 125 -86q96 0 146 86h203q-29 -125 -136.5 -201.5t-246.5 -76.5q-137 0 -215 63t-78 176zM846 2257q35 111 122 177.5t199 66.5q96 0 156.5 -50.5 t60.5 -132.5q0 -63 -32.5 -111t-126.5 -106q-53 -33 -70.5 -58.5t-30.5 -84.5h-174q25 109 62 158t133 106q61 35 61 78q0 20 -20.5 33.5t-50.5 13.5q-41 0 -66 -19.5t-47 -70.5h-176z" />
<glyph unicode="&#x1eb3;" horiz-adv-x="1351" d="M92 436q0 297 209 511t498 214q238 0 334 -178l26 152h250l-209 -1135h-250l27 147q-182 -174 -410 -174q-215 0 -345 127t-130 336zM373 492q0 -123 74.5 -196t201.5 -73q170 0 287 120t117 298q0 125 -74 197.5t-201 72.5q-164 0 -284.5 -125.5t-120.5 -293.5z M532 1513q0 23 3 39h200q18 -86 125 -86q96 0 146 86h202q-29 -125 -136 -201.5t-247 -76.5q-137 0 -215 63t-78 176zM666 1878q35 111 121.5 177.5t199.5 66.5q96 0 156.5 -50.5t60.5 -132.5q0 -63 -32.5 -111t-127.5 -106q-53 -33 -70.5 -58.5t-29.5 -84.5h-174 q25 109 61.5 158t133.5 106q61 35 61 78q0 20 -20.5 33.5t-51.5 13.5q-41 0 -65.5 -19.5t-46.5 -70.5h-176z" />
<glyph unicode="&#x1eb4;" horiz-adv-x="1515" d="M-47 0l911 1513h221l355 -1513h-310l-90 391h-538l-240 -391h-309zM655 662h324l-78 456zM713 1892q0 23 2 39h200q18 -86 125 -86q96 0 146 86h203q-29 -125 -136.5 -201.5t-246.5 -76.5q-137 0 -215 63t-78 176zM756 2181q41 43 97 70.5t101 27.5q25 0 115 -31.5 t111 -31.5q43 0 69.5 11t96.5 61l69 -168q-92 -115 -221 -115q-14 0 -122.5 31.5t-125.5 31.5q-41 0 -112 -61z" />
<glyph unicode="&#x1eb5;" horiz-adv-x="1351" d="M92 436q0 297 209 511t498 214q238 0 334 -178l26 152h250l-209 -1135h-250l27 147q-182 -174 -410 -174q-215 0 -345 127t-130 336zM373 492q0 -123 74.5 -196t201.5 -73q170 0 287 120t117 298q0 125 -74 197.5t-201 72.5q-164 0 -284.5 -125.5t-120.5 -293.5z M532 1513q0 23 3 39h200q18 -86 125 -86q96 0 146 86h202q-29 -125 -136 -201.5t-247 -76.5q-137 0 -215 63t-78 176zM575 1802q41 43 97.5 71t101.5 28q25 0 115 -32t110 -32q43 0 70 11.5t96 60.5l70 -168q-92 -115 -221 -115q-14 0 -123 32t-125 32q-41 0 -113 -62z" />
<glyph unicode="&#x1eb6;" horiz-adv-x="1515" d="M-47 0l911 1513h221l355 -1513h-310l-90 391h-538l-240 -391h-309zM479 -434l51 270h273l-51 -270h-273zM655 662h324l-78 456zM713 1892q0 23 2 39h200q18 -86 125 -86q96 0 146 86h203q-29 -125 -136.5 -201.5t-246.5 -76.5q-137 0 -215 63t-78 176z" />
<glyph unicode="&#x1eb7;" horiz-adv-x="1351" d="M92 436q0 297 209 511t498 214q238 0 334 -178l26 152h250l-209 -1135h-250l27 147q-182 -174 -410 -174q-215 0 -345 127t-130 336zM367 -434l51 270h272l-51 -270h-272zM373 492q0 -123 74.5 -196t201.5 -73q170 0 287 120t117 298q0 125 -74 197.5t-201 72.5 q-164 0 -284.5 -125.5t-120.5 -293.5zM530 1534q0 23 2 39h201q18 -86 125 -86q96 0 146 86h202q-29 -125 -136 -202t-247 -77q-137 0 -215 63.5t-78 176.5z" />
<glyph unicode="&#x1eb8;" horiz-adv-x="1064" d="M78 0l280 1513h813l-49 -270h-532l-68 -352h510l-49 -270h-510l-65 -351h532l-49 -270h-813zM254 -434l51 270h273l-52 -270h-272z" />
<glyph unicode="&#x1eb9;" d="M94 457q0 279 218 491.5t503 212.5q213 0 349 -129t136 -332q0 -156 -40 -254h-879q0 -98 74.5 -160.5t191.5 -62.5q164 0 277 113h297q-92 -168 -256 -265.5t-357 -97.5q-227 0 -370.5 135.5t-143.5 348.5zM383 -434l51 270h273l-52 -270h-272zM418 688h629 q-12 223 -275 223q-119 0 -217 -61.5t-137 -161.5z" />
<glyph unicode="&#x1eba;" horiz-adv-x="1064" d="M78 0l280 1513h813l-49 -270h-532l-68 -352h510l-49 -270h-510l-65 -351h532l-49 -270h-813zM571 1903q35 111 122 177t200 66q96 0 156.5 -50t60.5 -132q0 -63 -33 -111.5t-127 -105.5q-53 -33 -70.5 -58.5t-29.5 -84.5h-174q25 109 61.5 157.5t132.5 106.5q61 35 62 78 q0 20 -20.5 33.5t-51.5 13.5q-41 0 -65.5 -19.5t-46.5 -70.5h-177z" />
<glyph unicode="&#x1ebb;" d="M94 457q0 279 218 491.5t503 212.5q213 0 349 -129t136 -332q0 -156 -40 -254h-879q0 -98 74.5 -160.5t191.5 -62.5q164 0 277 113h297q-92 -168 -256 -265.5t-357 -97.5q-227 0 -370.5 135.5t-143.5 348.5zM418 688h629q-12 223 -275 223q-119 0 -217 -61.5t-137 -161.5 zM616 1524q35 111 122 177t200 66q96 0 156.5 -50t60.5 -132q0 -63 -32.5 -111.5t-127.5 -105.5q-53 -33 -70.5 -58.5t-29.5 -84.5h-174q25 109 61.5 158t132.5 106q61 35 62 78q0 20 -20.5 33.5t-51.5 13.5q-41 0 -65.5 -19.5t-46.5 -70.5h-177z" />
<glyph unicode="&#x1ebc;" horiz-adv-x="1064" d="M78 0l280 1513h813l-49 -270h-532l-68 -352h510l-49 -270h-510l-65 -351h532l-49 -270h-813zM481 1827q41 43 97.5 70.5t101.5 27.5q25 0 115 -31.5t110 -31.5q43 0 69.5 11t96.5 60l70 -168q-92 -115 -221 -114q-14 0 -123 31.5t-125 31.5q-41 0 -113 -61z" />
<glyph unicode="&#x1ebd;" d="M94 457q0 279 218 491.5t503 212.5q213 0 349 -129t136 -332q0 -156 -40 -254h-879q0 -98 74.5 -160.5t191.5 -62.5q164 0 277 113h297q-92 -168 -256 -265.5t-357 -97.5q-227 0 -370.5 135.5t-143.5 348.5zM418 688h629q-12 223 -275 223q-119 0 -217 -61.5t-137 -161.5 zM530 1468q41 43 97.5 71t101.5 28q25 0 115 -32t110 -32q43 0 70 11.5t96 60.5l70 -168q-92 -115 -221 -115q-14 0 -123 32t-125 32q-41 0 -113 -62z" />
<glyph unicode="&#x1ebe;" horiz-adv-x="1064" d="M78 0l280 1513h813l-49 -270h-532l-68 -352h510l-49 -270h-510l-65 -351h532l-49 -270h-813zM383 1651l354 282h219l244 -282h-297l-84 131l-135 -131h-301zM694 2154l484 261l96 -203l-498 -238z" />
<glyph unicode="&#x1ebf;" d="M94 457q0 279 218 491.5t503 212.5q213 0 349 -129t136 -332q0 -156 -40 -254h-879q0 -98 74.5 -160.5t191.5 -62.5q164 0 277 113h297q-92 -168 -256 -265.5t-357 -97.5q-227 0 -370.5 135.5t-143.5 348.5zM418 688h629q-12 223 -275 223q-119 0 -217 -61.5t-137 -161.5 zM428 1272l354 282h219l244 -282h-297l-84 131l-135 -131h-301zM739 1776l484 260l96 -203l-498 -238z" />
<glyph unicode="&#x1ec0;" horiz-adv-x="1064" d="M78 0l280 1513h813l-49 -270h-532l-68 -352h510l-49 -270h-510l-65 -351h532l-49 -270h-813zM383 1651l354 282h219l244 -282h-297l-84 131l-135 -131h-301zM516 2212l170 203l387 -261l-147 -180z" />
<glyph unicode="&#x1ec1;" d="M94 457q0 279 218 491.5t503 212.5q213 0 349 -129t136 -332q0 -156 -40 -254h-879q0 -98 74.5 -160.5t191.5 -62.5q164 0 277 113h297q-92 -168 -256 -265.5t-357 -97.5q-227 0 -370.5 135.5t-143.5 348.5zM418 688h629q-12 223 -275 223q-119 0 -217 -61.5t-137 -161.5 zM428 1272l354 282h219l244 -282h-297l-84 131l-135 -131h-301zM561 1833l170 203l387 -260l-147 -181z" />
<glyph unicode="&#x1ec2;" horiz-adv-x="1064" d="M78 0l280 1513h813l-49 -270h-532l-68 -352h510l-49 -270h-510l-65 -351h532l-49 -270h-813zM383 1651l354 282h219l244 -282h-297l-84 131l-135 -131h-301zM786 2288q35 111 122 177t200 66q96 0 156.5 -50t60.5 -132q0 -63 -32.5 -111.5t-127.5 -105.5 q-51 -33 -69.5 -58.5t-30.5 -84.5h-174q25 109 61.5 157.5t132.5 106.5q61 35 62 78q0 20 -20.5 33.5t-51.5 13.5q-41 0 -65.5 -19.5t-46.5 -70.5h-177z" />
<glyph unicode="&#x1ec3;" d="M94 457q0 279 218 491.5t503 212.5q213 0 349 -129t136 -332q0 -156 -40 -254h-879q0 -98 74.5 -160.5t191.5 -62.5q164 0 277 113h297q-92 -168 -256 -265.5t-357 -97.5q-227 0 -370.5 135.5t-143.5 348.5zM418 688h629q-12 223 -275 223q-119 0 -217 -61.5t-137 -161.5 zM428 1272l354 282h219l244 -282h-297l-84 131l-135 -131h-301zM831 1909q35 111 122 177t200 66q96 0 156.5 -50t60.5 -132q0 -63 -32.5 -111.5t-127.5 -105.5q-53 -33 -70.5 -58.5t-29.5 -84.5h-174q25 109 61.5 158t132.5 106q61 35 62 78q0 20 -20.5 33.5t-51.5 13.5 q-41 0 -65.5 -19.5t-46.5 -70.5h-177z" />
<glyph unicode="&#x1ec4;" horiz-adv-x="1064" d="M78 0l280 1513h813l-49 -270h-532l-68 -352h510l-49 -270h-510l-65 -351h532l-49 -270h-813zM383 1651l354 282h219l244 -282h-297l-84 131l-135 -131h-301zM545 2171q41 43 97 70.5t101 27.5q27 0 117 -31.5t109 -31.5q43 0 69.5 11t96.5 60l69 -168q-92 -115 -221 -114 q-14 0 -122.5 31.5t-125.5 31.5q-41 0 -112 -61z" />
<glyph unicode="&#x1ec5;" d="M94 457q0 279 218 491.5t503 212.5q213 0 349 -129t136 -332q0 -156 -40 -254h-879q0 -98 74.5 -160.5t191.5 -62.5q164 0 277 113h297q-92 -168 -256 -265.5t-357 -97.5q-227 0 -370.5 135.5t-143.5 348.5zM418 688h629q-12 223 -275 223q-119 0 -217 -61.5t-137 -161.5 zM428 1272l354 282h219l244 -282h-297l-84 131l-135 -131h-301zM590 1792q41 43 97 70.5t101 27.5q27 0 117 -31.5t109 -31.5q43 0 69.5 11t96.5 60l69 -167q-92 -115 -221 -115q-14 0 -122.5 31.5t-125.5 31.5q-41 0 -112 -61z" />
<glyph unicode="&#x1ec6;" horiz-adv-x="1064" d="M78 0l280 1513h813l-49 -270h-532l-68 -352h510l-49 -270h-510l-65 -351h532l-49 -270h-813zM254 -434l51 270h273l-52 -270h-272zM383 1651l354 282h219l244 -282h-297l-84 131l-135 -131h-301z" />
<glyph unicode="&#x1ec7;" d="M94 457q0 279 218 491.5t503 212.5q213 0 349 -129t136 -332q0 -156 -40 -254h-879q0 -98 74.5 -160.5t191.5 -62.5q164 0 277 113h297q-92 -168 -256 -265.5t-357 -97.5q-227 0 -370.5 135.5t-143.5 348.5zM383 -434l51 270h273l-52 -270h-272zM418 688h629 q-12 223 -275 223q-119 0 -217 -61.5t-137 -161.5zM430 1292l354 283h220l243 -283h-297l-84 131l-135 -131h-301z" />
<glyph unicode="&#x1ec8;" horiz-adv-x="573" d="M78 0l280 1513h281l-281 -1513h-280zM305 1903q35 111 122 177t200 66q96 0 156.5 -50t60.5 -132q0 -63 -33 -111.5t-127 -105.5q-53 -33 -70.5 -58.5t-29.5 -84.5h-174q25 109 61.5 157.5t132.5 106.5q61 35 62 78q0 20 -20.5 33.5t-51.5 13.5q-41 0 -65.5 -19.5 t-47.5 -70.5h-176z" />
<glyph unicode="&#x1ec9;" horiz-adv-x="491" d="M49 0l211 1135h272l-210 -1135h-273zM203 1524q35 111 122 177t199 66q96 0 156.5 -50t60.5 -132q0 -63 -32.5 -111.5t-126.5 -105.5q-53 -33 -70.5 -58.5t-30.5 -84.5h-174q25 109 62 158t133 106q61 35 61 78q0 20 -20.5 33.5t-50.5 13.5q-41 0 -66 -19.5t-47 -70.5 h-176z" />
<glyph unicode="&#x1eca;" horiz-adv-x="573" d="M2 -434l51 270h273l-52 -270h-272zM78 0l280 1513h281l-281 -1513h-280z" />
<glyph unicode="&#x1ecb;" horiz-adv-x="491" d="M-33 -434l51 270h273l-51 -270h-273zM49 0l211 1135h272l-210 -1135h-273zM291 1298l51 271h272l-51 -271h-272z" />
<glyph unicode="&#x1ecc;" horiz-adv-x="1720" d="M125 614q0 242 137 458t359.5 342t461.5 126q283 0 465.5 -180t182.5 -461q0 -240 -130.5 -454t-348.5 -343t-461 -129q-291 0 -478.5 180t-187.5 461zM412 662q0 -182 120.5 -300t307.5 -118q238 0 421 183t183 431q0 180 -117 296t-299 116q-240 0 -428 -185t-188 -423 zM582 -434l51 270h272l-51 -270h-272z" />
<glyph unicode="&#x1ecd;" d="M94 453q0 281 219 494.5t508 213.5q217 0 358.5 -139t141.5 -352q0 -274 -221 -485.5t-510 -211.5q-211 0 -353.5 137.5t-142.5 342.5zM375 500q0 -119 76.5 -198t193.5 -79q154 0 274.5 126t120.5 284q0 121 -75.5 199.5t-190.5 78.5q-156 0 -277.5 -124.5 t-121.5 -286.5zM389 -434l51 270h273l-51 -270h-273z" />
<glyph unicode="&#x1ece;" horiz-adv-x="1720" d="M125 614q0 242 137 458t359.5 342t461.5 126q283 0 465.5 -180t182.5 -461q0 -240 -130.5 -454t-348.5 -343t-461 -129q-291 0 -478.5 180t-187.5 461zM412 662q0 -182 120.5 -300t307.5 -118q238 0 421 183t183 431q0 180 -117 296t-299 116q-240 0 -428 -185t-188 -423 zM885 1903q35 111 122 177t199 66q96 0 156.5 -50t60.5 -132q0 -63 -32.5 -111.5t-126.5 -105.5q-51 -33 -69.5 -58.5t-31.5 -84.5h-174q25 109 61.5 157.5t133.5 106.5q61 35 61 78q0 20 -20.5 33.5t-50.5 13.5q-41 0 -66 -19.5t-47 -70.5h-176z" />
<glyph unicode="&#x1ecf;" d="M94 453q0 281 219 494.5t508 213.5q217 0 358.5 -139t141.5 -352q0 -274 -221 -485.5t-510 -211.5q-211 0 -353.5 137.5t-142.5 342.5zM375 500q0 -119 76.5 -198t193.5 -79q154 0 274.5 126t120.5 284q0 121 -75.5 199.5t-190.5 78.5q-156 0 -277.5 -124.5 t-121.5 -286.5zM623 1524q35 111 121.5 177t199.5 66q96 0 156.5 -50t60.5 -132q0 -63 -32.5 -111.5t-127.5 -105.5q-51 -33 -69.5 -58.5t-30.5 -84.5h-174q25 109 61.5 158t133.5 106q61 35 61 78q0 20 -20.5 33.5t-51.5 13.5q-41 0 -65.5 -19.5t-46.5 -70.5h-176z" />
<glyph unicode="&#x1ed0;" horiz-adv-x="1720" d="M125 614q0 242 137 458t359.5 342t461.5 126q283 0 465.5 -180t182.5 -461q0 -240 -130.5 -454t-348.5 -343t-461 -129q-291 0 -478.5 180t-187.5 461zM412 662q0 -182 120.5 -300t307.5 -118q238 0 421 183t183 431q0 180 -117 296t-299 116q-240 0 -428 -185t-188 -423 zM696 1651l355 282h219l243 -282h-296l-84 131l-136 -131h-301zM1008 2154l483 261l96 -203l-497 -238z" />
<glyph unicode="&#x1ed1;" d="M94 453q0 281 219 494.5t508 213.5q217 0 358.5 -139t141.5 -352q0 -274 -221 -485.5t-510 -211.5q-211 0 -353.5 137.5t-142.5 342.5zM375 500q0 -119 76.5 -198t193.5 -79q154 0 274.5 126t120.5 284q0 121 -75.5 199.5t-190.5 78.5q-156 0 -277.5 -124.5 t-121.5 -286.5zM434 1272l354 282h220l243 -282h-297l-84 131l-135 -131h-301zM745 1776l484 260l96 -203l-498 -238z" />
<glyph unicode="&#x1ed2;" horiz-adv-x="1720" d="M125 614q0 242 137 458t359.5 342t461.5 126q283 0 465.5 -180t182.5 -461q0 -240 -130.5 -454t-348.5 -343t-461 -129q-291 0 -478.5 180t-187.5 461zM412 662q0 -182 120.5 -300t307.5 -118q238 0 421 183t183 431q0 180 -117 296t-299 116q-240 0 -428 -185t-188 -423 zM696 1651l355 282h219l243 -282h-296l-84 131l-136 -131h-301zM829 2212l170 203l387 -261l-147 -180z" />
<glyph unicode="&#x1ed3;" d="M94 453q0 281 219 494.5t508 213.5q217 0 358.5 -139t141.5 -352q0 -274 -221 -485.5t-510 -211.5q-211 0 -353.5 137.5t-142.5 342.5zM375 500q0 -119 76.5 -198t193.5 -79q154 0 274.5 126t120.5 284q0 121 -75.5 199.5t-190.5 78.5q-156 0 -277.5 -124.5 t-121.5 -286.5zM434 1272l354 282h220l243 -282h-297l-84 131l-135 -131h-301zM567 1833l170 203l387 -260l-147 -181z" />
<glyph unicode="&#x1ed4;" horiz-adv-x="1720" d="M125 614q0 242 137 458t359.5 342t461.5 126q283 0 465.5 -180t182.5 -461q0 -240 -130.5 -454t-348.5 -343t-461 -129q-291 0 -478.5 180t-187.5 461zM412 662q0 -182 120.5 -300t307.5 -118q238 0 421 183t183 431q0 180 -117 296t-299 116q-240 0 -428 -185t-188 -423 zM696 1651l355 282h219l243 -282h-296l-84 131l-136 -131h-301zM1100 2288q35 111 122 177t199 66q96 0 156.5 -50t60.5 -132q0 -63 -32.5 -111.5t-126.5 -105.5q-53 -33 -70.5 -58.5t-30.5 -84.5h-174q25 109 62 157.5t133 106.5q61 35 61 78q0 20 -20.5 33.5t-50.5 13.5 q-41 0 -66 -19.5t-47 -70.5h-176z" />
<glyph unicode="&#x1ed5;" d="M94 453q0 281 219 494.5t508 213.5q217 0 358.5 -139t141.5 -352q0 -274 -221 -485.5t-510 -211.5q-211 0 -353.5 137.5t-142.5 342.5zM375 500q0 -119 76.5 -198t193.5 -79q154 0 274.5 126t120.5 284q0 121 -75.5 199.5t-190.5 78.5q-156 0 -277.5 -124.5 t-121.5 -286.5zM434 1272l354 282h220l243 -282h-297l-84 131l-135 -131h-301zM838 1909q35 111 122 177t199 66q96 0 156.5 -50t60.5 -132q0 -63 -32.5 -111.5t-126.5 -105.5q-53 -33 -71 -58.5t-30 -84.5h-174q25 109 61.5 158t133.5 106q61 35 61 78q0 20 -20.5 33.5 t-51.5 13.5q-41 0 -65.5 -19.5t-46.5 -70.5h-176z" />
<glyph unicode="&#x1ed6;" horiz-adv-x="1720" d="M125 614q0 242 137 458t359.5 342t461.5 126q283 0 465.5 -180t182.5 -461q0 -240 -130.5 -454t-348.5 -343t-461 -129q-291 0 -478.5 180t-187.5 461zM412 662q0 -182 120.5 -300t307.5 -118q238 0 421 183t183 431q0 180 -117 296t-299 116q-240 0 -428 -185t-188 -423 zM696 1651l355 282h219l243 -282h-296l-84 131l-136 -131h-301zM858 2171q41 43 97.5 70.5t101.5 27.5q25 0 115 -31.5t110 -31.5q43 0 69.5 11t96.5 60l70 -168q-92 -115 -222 -114q-14 0 -122.5 31.5t-124.5 31.5q-41 0 -113 -61z" />
<glyph unicode="&#x1ed7;" d="M94 453q0 281 219 494.5t508 213.5q217 0 358.5 -139t141.5 -352q0 -274 -221 -485.5t-510 -211.5q-211 0 -353.5 137.5t-142.5 342.5zM375 500q0 -119 76.5 -198t193.5 -79q154 0 274.5 126t120.5 284q0 121 -75.5 199.5t-190.5 78.5q-156 0 -277.5 -124.5 t-121.5 -286.5zM434 1272l354 282h220l243 -282h-297l-84 131l-135 -131h-301zM596 1792q41 43 97.5 70.5t101.5 27.5q25 0 114.5 -31.5t110.5 -31.5q43 0 69.5 11t96.5 60l69 -167q-92 -115 -221 -115q-14 0 -122.5 31.5t-125.5 31.5q-41 0 -112 -61z" />
<glyph unicode="&#x1ed8;" horiz-adv-x="1720" d="M125 614q0 242 137 458t359.5 342t461.5 126q283 0 465.5 -180t182.5 -461q0 -240 -130.5 -454t-348.5 -343t-461 -129q-291 0 -478.5 180t-187.5 461zM412 662q0 -182 120.5 -300t307.5 -118q238 0 421 183t183 431q0 180 -117 296t-299 116q-240 0 -428 -185t-188 -423 zM582 -434l51 270h272l-51 -270h-272zM696 1651l355 282h219l243 -282h-296l-84 131l-136 -131h-301z" />
<glyph unicode="&#x1ed9;" d="M94 453q0 281 219 494.5t508 213.5q217 0 358.5 -139t141.5 -352q0 -274 -221 -485.5t-510 -211.5q-211 0 -353.5 137.5t-142.5 342.5zM375 500q0 -119 76.5 -198t193.5 -79q154 0 274.5 126t120.5 284q0 121 -75.5 199.5t-190.5 78.5q-156 0 -277.5 -124.5 t-121.5 -286.5zM389 -434l51 270h273l-51 -270h-273zM436 1292l355 283h219l243 -283h-297l-84 131l-135 -131h-301z" />
<glyph unicode="&#x1eda;" horiz-adv-x="1753" d="M125 614q0 156 66.5 317t181.5 288q143 156 326.5 238.5t383.5 82.5q164 0 298.5 -64.5t222.5 -179.5q86 90 94 217h194q-31 -270 -194 -399q33 -98 33 -215q0 -240 -130.5 -454t-348.5 -343t-461 -129q-291 0 -478.5 180t-187.5 461zM412 662q0 -182 120.5 -300 t307.5 -118q139 0 263 63.5t212 179.5q129 172 129 371q0 180 -117 296t-299 116q-295 0 -481 -244q-135 -174 -135 -364zM938 1774l483 260l97 -203l-498 -238z" />
<glyph unicode="&#x1edb;" horiz-adv-x="1478" d="M94 453q0 281 219 494.5t508 213.5q143 0 258 -63.5t176 -175.5q82 88 91 213h194q-33 -291 -221 -420q0 -6 1 -22.5t1 -22.5q0 -274 -221 -485.5t-510 -211.5q-211 0 -353.5 137.5t-142.5 342.5zM375 500q0 -119 76.5 -198t193.5 -79q154 0 274.5 126t120.5 284 q0 121 -75.5 199.5t-190.5 78.5q-156 0 -277.5 -124.5t-121.5 -286.5zM678 1415l483 260l96 -202l-497 -238z" />
<glyph unicode="&#x1edc;" horiz-adv-x="1753" d="M125 614q0 156 66.5 317t181.5 288q143 156 326.5 238.5t383.5 82.5q164 0 298.5 -64.5t222.5 -179.5q86 90 94 217h194q-31 -270 -194 -399q33 -98 33 -215q0 -240 -130.5 -454t-348.5 -343t-461 -129q-291 0 -478.5 180t-187.5 461zM412 662q0 -182 120.5 -300 t307.5 -118q139 0 263 63.5t212 179.5q129 172 129 371q0 180 -117 296t-299 116q-295 0 -481 -244q-135 -174 -135 -364zM758 1831l172 203l387 -260l-150 -181z" />
<glyph unicode="&#x1edd;" horiz-adv-x="1478" d="M94 453q0 281 219 494.5t508 213.5q143 0 258 -63.5t176 -175.5q82 88 91 213h194q-33 -291 -221 -420q0 -6 1 -22.5t1 -22.5q0 -274 -221 -485.5t-510 -211.5q-211 0 -353.5 137.5t-142.5 342.5zM375 500q0 -119 76.5 -198t193.5 -79q154 0 274.5 126t120.5 284 q0 121 -75.5 199.5t-190.5 78.5q-156 0 -277.5 -124.5t-121.5 -286.5zM500 1473l172 202l387 -260l-150 -180z" />
<glyph unicode="&#x1ede;" horiz-adv-x="1753" d="M125 614q0 156 66.5 317t181.5 288q143 156 326.5 238.5t383.5 82.5q164 0 298.5 -64.5t222.5 -179.5q86 90 94 217h194q-31 -270 -194 -399q33 -98 33 -215q0 -240 -130.5 -454t-348.5 -343t-461 -129q-291 0 -478.5 180t-187.5 461zM412 662q0 -182 120.5 -300 t307.5 -118q139 0 263 63.5t212 179.5q129 172 129 371q0 180 -117 296t-299 116q-295 0 -481 -244q-135 -174 -135 -364zM885 1903q35 111 122 177t199 66q96 0 156.5 -50t60.5 -132q0 -63 -32.5 -111.5t-126.5 -105.5q-51 -33 -69.5 -58.5t-31.5 -84.5h-174 q25 109 61.5 157.5t133.5 106.5q61 35 61 78q0 20 -20.5 33.5t-50.5 13.5q-41 0 -66 -19.5t-47 -70.5h-176z" />
<glyph unicode="&#x1edf;" horiz-adv-x="1478" d="M94 453q0 281 219 494.5t508 213.5q143 0 258 -63.5t176 -175.5q82 88 91 213h194q-33 -291 -221 -420q0 -6 1 -22.5t1 -22.5q0 -274 -221 -485.5t-510 -211.5q-211 0 -353.5 137.5t-142.5 342.5zM375 500q0 -119 76.5 -198t193.5 -79q154 0 274.5 126t120.5 284 q0 121 -75.5 199.5t-190.5 78.5q-156 0 -277.5 -124.5t-121.5 -286.5zM623 1524q35 111 121.5 177t199.5 66q96 0 156.5 -50t60.5 -132q0 -63 -32.5 -111.5t-127.5 -105.5q-51 -33 -69.5 -58.5t-30.5 -84.5h-174q25 109 61.5 158t133.5 106q61 35 61 78q0 20 -20.5 33.5 t-51.5 13.5q-41 0 -65.5 -19.5t-46.5 -70.5h-176z" />
<glyph unicode="&#x1ee0;" horiz-adv-x="1753" d="M125 614q0 156 66.5 317t181.5 288q143 156 326.5 238.5t383.5 82.5q164 0 298.5 -64.5t222.5 -179.5q86 90 94 217h194q-31 -270 -194 -399q33 -98 33 -215q0 -240 -130.5 -454t-348.5 -343t-461 -129q-291 0 -478.5 180t-187.5 461zM412 662q0 -182 120.5 -300 t307.5 -118q139 0 263 63.5t212 179.5q129 172 129 371q0 180 -117 296t-299 116q-295 0 -481 -244q-135 -174 -135 -364zM795 1827q41 43 97 70.5t101 27.5q27 0 117 -31.5t109 -31.5q43 0 69.5 11t95.5 60l70 -168q-92 -115 -221 -114q-14 0 -123 31.5t-125 31.5 q-41 0 -113 -61z" />
<glyph unicode="&#x1ee1;" horiz-adv-x="1478" d="M94 453q0 281 219 494.5t508 213.5q143 0 258 -63.5t176 -175.5q82 88 91 213h194q-33 -291 -221 -420q0 -6 1 -22.5t1 -22.5q0 -274 -221 -485.5t-510 -211.5q-211 0 -353.5 137.5t-142.5 342.5zM375 500q0 -119 76.5 -198t193.5 -79q154 0 274.5 126t120.5 284 q0 121 -75.5 199.5t-190.5 78.5q-156 0 -277.5 -124.5t-121.5 -286.5zM537 1468q41 43 97 71t101 28q25 0 115 -32t111 -32q43 0 69.5 11.5t95.5 60.5l70 -168q-92 -115 -221 -115q-14 0 -123 32t-125 32q-41 0 -113 -62z" />
<glyph unicode="&#x1ee2;" horiz-adv-x="1753" d="M125 614q0 156 66.5 317t181.5 288q143 156 326.5 238.5t383.5 82.5q164 0 298.5 -64.5t222.5 -179.5q86 90 94 217h194q-31 -270 -194 -399q33 -98 33 -215q0 -240 -130.5 -454t-348.5 -343t-461 -129q-291 0 -478.5 180t-187.5 461zM412 662q0 -182 120.5 -300 t307.5 -118q139 0 263 63.5t212 179.5q129 172 129 371q0 180 -117 296t-299 116q-295 0 -481 -244q-135 -174 -135 -364zM582 -434l51 270h272l-51 -270h-272z" />
<glyph unicode="&#x1ee3;" horiz-adv-x="1478" d="M94 453q0 281 219 494.5t508 213.5q143 0 258 -63.5t176 -175.5q82 88 91 213h194q-33 -291 -221 -420q0 -6 1 -22.5t1 -22.5q0 -274 -221 -485.5t-510 -211.5q-211 0 -353.5 137.5t-142.5 342.5zM375 500q0 -119 76.5 -198t193.5 -79q154 0 274.5 126t120.5 284 q0 121 -75.5 199.5t-190.5 78.5q-156 0 -277.5 -124.5t-121.5 -286.5zM389 -434l51 270h273l-51 -270h-273z" />
<glyph unicode="&#x1ee4;" d="M162 360q0 90 20 195l176 958h281l-176 -958q-18 -98 -19 -143q0 -70 55.5 -119t133.5 -49q231 0 291 311l176 958h280l-176 -958q-51 -279 -220 -430.5t-400 -151.5q-182 0 -302 109.5t-120 277.5zM373 -434l51 270h272l-51 -270h-272z" />
<glyph unicode="&#x1ee5;" horiz-adv-x="1228" d="M119 311q0 82 24 215l113 609h272l-102 -555q-23 -117 -20 -197q0 -76 45 -118t122 -42q135 0 210 77t116 300l98 535h273l-211 -1135h-252l20 109q-164 -135 -356 -136q-166 0 -259 95.5t-93 242.5zM336 -434l51 270h272l-51 -270h-272z" />
<glyph unicode="&#x1ee6;" d="M162 360q0 90 20 195l176 958h281l-176 -958q-18 -98 -19 -143q0 -70 55.5 -119t133.5 -49q231 0 291 311l176 958h280l-176 -958q-51 -279 -220 -430.5t-400 -151.5q-182 0 -302 109.5t-120 277.5zM676 1903q35 111 122 177t199 66q96 0 156.5 -50t60.5 -132 q0 -63 -32.5 -111.5t-126.5 -105.5q-53 -33 -70.5 -58.5t-30.5 -84.5h-174q25 109 62 157.5t133 106.5q61 35 61 78q0 20 -20.5 33.5t-50.5 13.5q-41 0 -66 -19.5t-47 -70.5h-176z" />
<glyph unicode="&#x1ee7;" horiz-adv-x="1228" d="M119 311q0 82 24 215l113 609h272l-102 -555q-23 -117 -20 -197q0 -76 45 -118t122 -42q135 0 210 77t116 300l98 535h273l-211 -1135h-252l20 109q-164 -135 -356 -136q-166 0 -259 95.5t-93 242.5zM569 1524q35 111 122 177t200 66q96 0 156.5 -50t60.5 -132 q0 -63 -33 -111.5t-127 -105.5q-51 -33 -69.5 -58.5t-30.5 -84.5h-174q25 109 61.5 158t132.5 106q61 35 62 78q0 20 -20.5 33.5t-51.5 13.5q-41 0 -65.5 -19.5t-47.5 -70.5h-176z" />
<glyph unicode="&#x1ee8;" horiz-adv-x="1499" d="M162 360q0 90 20 195l176 958h281l-176 -958q-18 -98 -19 -143q0 -70 55.5 -119t133.5 -49q131 0 213 102q53 68 78 209l176 958h280l-49 -264q137 92 152 264h194q-25 -225 -129 -337.5t-260 -159.5l-84 -461q-45 -250 -174 -387q-84 -90 -204.5 -142.5t-241.5 -52.5 q-182 0 -302 109.5t-120 277.5zM729 1774l483 260l97 -203l-498 -238z" />
<glyph unicode="&#x1ee9;" horiz-adv-x="1501" d="M119 311q0 82 24 215l113 609h272l-102 -555q-20 -102 -20 -197q0 -76 45 -118t122 -42q150 0 232 105q55 66 94 272l98 535h273l-51 -277q156 96 167 277h195q-14 -123 -53 -214.5t-98.5 -146.5t-119 -88t-134.5 -53l-117 -633h-252l20 109q-164 -135 -356 -136 q-166 0 -256 90q-41 43 -68.5 112.5t-27.5 135.5zM625 1415l483 260l96 -202l-497 -238z" />
<glyph unicode="&#x1eea;" horiz-adv-x="1499" d="M162 360q0 90 20 195l176 958h281l-176 -958q-18 -98 -19 -143q0 -70 55.5 -119t133.5 -49q131 0 213 102q53 68 78 209l176 958h280l-49 -264q137 92 152 264h194q-25 -225 -129 -337.5t-260 -159.5l-84 -461q-45 -250 -174 -387q-84 -90 -204.5 -142.5t-241.5 -52.5 q-182 0 -302 109.5t-120 277.5zM549 1831l172 203l387 -260l-150 -181z" />
<glyph unicode="&#x1eeb;" horiz-adv-x="1501" d="M119 311q0 82 24 215l113 609h272l-102 -555q-20 -102 -20 -197q0 -76 45 -118t122 -42q150 0 232 105q55 66 94 272l98 535h273l-51 -277q156 96 167 277h195q-14 -123 -53 -214.5t-98.5 -146.5t-119 -88t-134.5 -53l-117 -633h-252l20 109q-164 -135 -356 -136 q-166 0 -256 90q-41 43 -68.5 112.5t-27.5 135.5zM446 1473l172 202l388 -260l-150 -180z" />
</font>
</defs>
</svg>
