<?xml version="1.0" standalone="no"?>
<!DOCTYPE svg PUBLIC "-//W3C//DTD SVG 1.1//EN" "http://www.w3.org/Graphics/SVG/1.1/DTD/svg11.dtd" >
<svg xmlns="http://www.w3.org/2000/svg">
<metadata>
This is a custom SVG webfont generated by Font Squirrel.
Copyright   : Copyright URW copyright 1999 by URW Design  Development Cyrillic glyphs added by Valek Filippov copyright 20012002 Vietnamese characters were added by Han The Thanh copyright 2006 2008 for TeX Gyre extensions by B Jackowski and JM Nowacki on behalf of TeX users groups This work is released under the GUST Font License   see httptugorgfontslicensesGUSTFONTLICENSEtxt for details
</metadata>
<defs>
<font id="webfontTonTHb49" horiz-adv-x="1310" >
<font-face units-per-em="2048" ascent="1669" descent="-379" />
<missing-glyph horiz-adv-x="573" />
<glyph unicode="IJ" horiz-adv-x="1460" d="M111 0v1513h280v-1513h-280zM520 358h281q29 -115 133 -114q135 0 135 198v1071h281v-1079q0 -213 -110 -337t-300 -124q-170 0 -286 99.5t-134 285.5z" />
<glyph unicode="ij" horiz-adv-x="1021" d="M111 0v1135h272v-1135h-272zM113 1298v273h272v-273h-272zM526 -115q76 14 94.5 45t18.5 152v1053h272v-1059q0 -223 -103 -339t-282 -116v264zM641 1298v273h272v-273h-272z" />
<glyph unicode="fk" horiz-adv-x="1761" d="M20 887v227h99q41 399 375 399q35 0 67 -4v-258h-26q-80 0 -111 -29.5t-33 -107.5h154v-227h-154v-887h-272v887h-99zM684 0v1513h272v-913l363 535h326l-406 -555l471 -580h-367l-387 530v-530h-272z" />
<glyph unicode="&#xfb00;" horiz-adv-x="1146" d="M20 887v227h99q41 399 375 399q35 0 67 -4v-258h-26q-80 0 -111 -29.5t-33 -107.5h293q41 399 375 399q35 0 67 -4v-258h-26q-80 0 -111 -29.5t-33 -107.5h154v-227h-154v-887h-272v887h-293v-887h-272v887h-99z" />
<glyph unicode="&#xfb01;" horiz-adv-x="1064" d="M20 887v227h99q41 399 375 399q35 0 67 -4v-258h-26q-80 0 -111 -29.5t-33 -107.5h154v-227h-154v-887h-272v887h-99zM684 0v1135h272v-1135h-272zM686 1298v273h272v-273h-272z" />
<glyph unicode="&#xfb02;" horiz-adv-x="1064" d="M20 887v227h99q41 399 375 399q35 0 67 -4v-258h-26q-80 0 -111 -29.5t-33 -107.5h154v-227h-154v-887h-272v887h-99zM684 0v1513h272v-1513h-272z" />
<glyph unicode="&#xfb03;" horiz-adv-x="1630" d="M20 887v227h99q41 399 375 399q35 0 67 -4v-258h-26q-80 0 -111 -29.5t-33 -107.5h293q41 399 375 399q35 0 67 -4v-258h-26q-80 0 -111 -29.5t-33 -107.5h154v-227h-154v-887h-272v887h-293v-887h-272v887h-99zM1249 0v1135h273v-1135h-273zM1251 1298v273h273v-273 h-273z" />
<glyph unicode="&#xfb04;" horiz-adv-x="1630" d="M20 887v227h99q41 399 375 399q35 0 67 -4v-258h-26q-80 0 -111 -29.5t-33 -107.5h293q41 399 375 399q35 0 67 -4v-258h-26q-80 0 -111 -29.5t-33 -107.5h154v-227h-154v-887h-272v887h-293v-887h-272v887h-99zM1249 0v1513h273v-1513h-273z" />
<glyph unicode=" "  horiz-adv-x="573" />
<glyph unicode="&#x09;" horiz-adv-x="573" />
<glyph unicode="&#xa0;" horiz-adv-x="573" />
<glyph unicode="!" horiz-adv-x="573" d="M147 0v262h273v-262h-273zM147 385v1128h273v-1128h-273z" />
<glyph unicode="&#x22;" horiz-adv-x="737" d="M152 1051v462h155v-462h-155zM424 1051v462h156v-462h-156z" />
<glyph unicode="#" horiz-adv-x="1146" d="M70 477v205h225l24 182h-196v203h225l60 446h184l-60 -446h179l59 446h184l-59 -446h182v-203h-211l-24 -182h182v-205h-209l-65 -477h-185l66 477h-178l-64 -477h-186l65 477h-198zM479 682h178l25 182h-176z" />
<glyph unicode="$" horiz-adv-x="1146" d="M121 483v27h274q4 -80 51.5 -128t121 -48t122.5 49t49 121q0 92 -80 143q-45 29 -215 92q-264 96 -264 369q0 139 68.5 240.5t202.5 132.5v272h260v-272q104 -20 177 -120.5t77 -232.5h-258q-25 127 -134 127q-53 0 -86.5 -36.5t-33.5 -94.5q0 -72 42 -110.5t191 -93.5 q188 -66 257 -153t69 -253q0 -158 -79 -269.5t-222 -150.5v-270h-260v270q-154 43 -242 149.5t-88 239.5z" />
<glyph unicode="%" horiz-adv-x="1761" d="M43 1169q0 156 108.5 263.5t264.5 107.5q150 0 259 -108.5t109 -260.5q0 -154 -108.5 -262t-262 -108t-262 108t-108.5 260zM264 1171.5q0 -63.5 44 -107.5t105.5 -44t106.5 45t45 106.5t-45 106.5t-106.5 45t-105.5 -44t-44 -107.5zM457 0l624 1513h211l-626 -1513h-209 zM969 342q0 156 108.5 263.5t263.5 107.5q150 0 259.5 -108.5t109.5 -260.5q0 -154 -108.5 -262.5t-262 -108.5t-262 108.5t-108.5 260.5zM1190 344.5q0 -63.5 44 -107.5t105.5 -44t106.5 45t45 106.5t-45 106.5t-106.5 45t-105.5 -44t-44 -107.5z" />
<glyph unicode="&#x26;" horiz-adv-x="1392" d="M72 457q0 137 67.5 239.5t214.5 190.5q-74 84 -100.5 141t-26.5 137q0 158 111 266.5t272 108.5q166 0 277.5 -106.5t111.5 -266.5q0 -123 -51 -203.5t-186 -166.5l137 -154l148 244h305l-262 -449l270 -288l-195 -177l-215 228q-96 -129 -180 -178.5t-205 -49.5 q-207 0 -350 140.5t-143 343.5zM344 440q0 -84 58.5 -140t146.5 -56q68 0 115 34.5t98 127.5l-236 253q-182 -82 -182 -219zM487 1161q0 -41 22.5 -80t82.5 -96q86 47 116.5 82t30.5 92q0 55 -34.5 90t-90.5 35q-53 0 -90 -36t-37 -87z" />
<glyph unicode="'" horiz-adv-x="450" d="M152 1051v462h155v-462h-155z" />
<glyph unicode="(" horiz-adv-x="778" d="M152 614q0 303 152.5 548t410.5 351v-294q-287 -221 -287 -605q0 -180 81 -348t206 -250v-297q-248 88 -405.5 345t-157.5 550z" />
<glyph unicode=")" horiz-adv-x="778" d="M76 14q287 221 286 604q0 180 -80.5 348.5t-205.5 250.5v296q248 -88 405.5 -346t157.5 -549q0 -303 -152.5 -547.5t-410.5 -351.5v295z" />
<glyph unicode="*" horiz-adv-x="901" d="M143 1135v145l203 -10l-108 176l129 65l90 -176l94 178l121 -73l-111 -170l199 12v-147l-199 10l109 -164l-117 -78l-96 180l-88 -180l-131 64l106 182z" />
<glyph unicode="+" horiz-adv-x="1228" d="M111 371v282h362v363h283v-363h362v-282h-362v-363h-283v363h-362z" />
<glyph unicode="," horiz-adv-x="573" d="M147 0v262h273v-276q0 -123 -70.5 -198t-202.5 -75v137q66 12 93.5 39t27.5 76q0 23 -2 35h-119z" />
<glyph unicode="-" horiz-adv-x="860" d="M152 469v242h567v-242h-567z" />
<glyph unicode="." horiz-adv-x="573" d="M147 0v262h273v-262h-273z" />
<glyph unicode="/" horiz-adv-x="942" d="M53 -262l662 1775h192l-661 -1775h-193z" />
<glyph unicode="0" horiz-adv-x="1146" d="M61 506v514q0 240 137.5 380t370.5 140q229 0 367.5 -137t138.5 -369v-528q0 -252 -134 -392.5t-359 -140.5q-238 0 -379.5 140.5t-141.5 392.5zM334 514q0 -141 61.5 -216t177.5 -75q229 0 230 285v512q0 131 -60.5 200.5t-171 69.5t-174 -72.5t-63.5 -197.5v-506z" />
<glyph unicode="1" horiz-adv-x="1146" d="M313 1257v256h463v-1513h-272v1257h-191z" />
<glyph unicode="2" horiz-adv-x="1146" d="M70 991q0 256 139 402.5t362 146.5q211 0 352.5 -141.5t141.5 -349.5q0 -141 -61.5 -250t-231.5 -262l-309 -281h596v-256h-979v240l538 510q174 166 175 303q0 102 -62.5 169.5t-157.5 67.5q-106 0 -170.5 -82t-64.5 -217h-268z" />
<glyph unicode="3" horiz-adv-x="1146" d="M31 459h274q14 -106 81 -171t165 -65q102 0 169.5 72t67.5 180q0 115 -80.5 184.5t-215.5 69.5h-46v262q127 2 180.5 39t53.5 117q0 63 -37 103t-96 40q-109 0 -127 -137h-277q14 186 126 286.5t276 100.5q176 0 291.5 -116.5t115.5 -290.5q0 -168 -127 -261 q236 -104 236 -391q0 -219 -144.5 -363.5t-363.5 -144.5q-217 0 -363.5 136.5t-158.5 349.5z" />
<glyph unicode="4" horiz-adv-x="1146" d="M0 227v222l696 1064h230v-1042h159v-244h-159v-227h-273v227h-653zM276 471h377v584z" />
<glyph unicode="5" horiz-adv-x="1146" d="M25 453h272q20 -111 83.5 -170.5t162.5 -59.5q111 0 180.5 78t69.5 201q0 115 -71 192.5t-175 77.5q-119 0 -211 -115l-242 66l142 790h684v-256h-480l-49 -278q102 43 195 43q207 0 343 -146.5t136 -369.5q0 -227 -147.5 -380t-366.5 -153q-205 0 -360.5 137.5 t-165.5 342.5z" />
<glyph unicode="6" horiz-adv-x="1146" d="M43 496q0 109 34 205t116 219l395 593h325l-362 -538q61 20 123 20q180 0 299 -136t119 -343q0 -236 -146.5 -389.5t-372.5 -153.5q-229 0 -379.5 149t-150.5 374zM315 489q0 -117 73 -191.5t185 -74.5q109 0 177.5 74t68.5 192q0 117 -70.5 193t-179.5 76 q-113 0 -183.5 -74t-70.5 -195z" />
<glyph unicode="7" horiz-adv-x="1146" d="M133 1257v256h891v-256l-553 -1257h-307l573 1257h-604z" />
<glyph unicode="8" horiz-adv-x="1146" d="M63 473q0 248 218 369q-70 76 -97.5 137t-27.5 145q0 174 120.5 295t294.5 121q178 0 296 -117.5t118 -294.5q0 -184 -127 -286q113 -68 163 -154t50 -213q0 -215 -143.5 -358.5t-358.5 -143.5q-213 0 -359.5 144.5t-146.5 355.5zM336 463q0 -102 67.5 -171t167.5 -69 q96 0 162 68.5t66 169.5q0 98 -66.5 167.5t-161.5 69.5q-98 0 -166.5 -67.5t-68.5 -167.5zM416 1124q0 -68 46 -115.5t109.5 -47.5t108.5 48t45 117.5t-44 116.5t-108 47q-68 0 -112.5 -47t-44.5 -119z" />
<glyph unicode="9" horiz-adv-x="1146" d="M45 997q0 238 145.5 390.5t368.5 152.5q229 0 380 -149.5t151 -374.5q0 -109 -34 -205t-116 -217l-395 -594h-326l365 539q-66 -25 -123 -25q-176 0 -296 139t-120 344zM317 1024q0 -117 70 -192.5t178 -75.5q113 0 182.5 74.5t69.5 193.5q0 117 -72.5 191.5t-185.5 74.5 q-106 0 -174 -74.5t-68 -191.5z" />
<glyph unicode=":" horiz-adv-x="573" d="M147 0v262h273v-262h-273zM147 756v272h273v-272h-273z" />
<glyph unicode=";" horiz-adv-x="573" d="M147 0v262h273v-276q0 -125 -74 -199t-199 -74v137q66 12 93.5 39t27.5 76v35h-121zM147 756v272h273v-272h-273z" />
<glyph unicode="&#x3c;" horiz-adv-x="1228" d="M133 401v222l875 692v-361l-559 -442l559 -442v-361z" />
<glyph unicode="=" horiz-adv-x="1228" d="M111 182v283h1007v-283h-1007zM111 559v283h1007v-283h-1007z" />
<glyph unicode="&#x3e;" horiz-adv-x="1228" d="M133 70l559 442l-559 442v361l875 -692v-222l-875 -692v361z" />
<glyph unicode="?" horiz-adv-x="1146" d="M66 1065q18 229 147 352t319 123q197 0 329 -134t132 -335q0 -102 -46 -183t-163 -183q-84 -74 -107.5 -131.5t-25.5 -190.5h-272q0 193 48 295t202 227q92 78 92 174q0 82 -55.5 136.5t-139.5 54.5q-162 0 -188 -205h-272zM379 0v262h272v-262h-272z" />
<glyph unicode="@" horiz-adv-x="1515" d="M6 772q0 340 226.5 568.5t562.5 228.5q328 0 529.5 -206t201.5 -550q0 -221 -121 -359.5t-311 -138.5q-164 0 -203 111q-74 -111 -232 -111q-154 0 -245.5 105.5t-91.5 286.5q0 203 118.5 339t294.5 136q84 0 137.5 -27t104.5 -92l14 111h197l-68 -605q-2 -10 -2 -30 q0 -53 56 -54q82 0 142 107.5t60 253.5q0 256 -159.5 415.5t-417.5 159.5q-279 0 -463 -186t-184 -469q0 -268 183 -455.5t486 -187.5q176 0 305 96l95 -123q-158 -123 -404 -123q-350 0 -580.5 227.5t-230.5 571.5zM567 727q0 -90 43 -142.5t117 -52.5q90 0 147.5 66 t57.5 168q0 86 -42 136t-114 50q-86 0 -147.5 -65.5t-61.5 -159.5z" />
<glyph unicode="A" horiz-adv-x="1515" d="M14 0l631 1513h221l635 -1513h-309l-162 391h-538l-168 -391h-310zM594 659h324l-162 459z" />
<glyph unicode="B" horiz-adv-x="1187" d="M139 0v1513h312q170 0 256 -15t153 -58q172 -111 172 -330q0 -106 -39 -172t-129 -113q141 -59 199.5 -147t58.5 -227q0 -213 -146.5 -332t-432.5 -119h-404zM420 268h139q147 0 214 45t67 144q0 199 -287 198h-133v-387zM420 930h90q127 0 184.5 37t57.5 118 q0 154 -217 154h-115v-309z" />
<glyph unicode="C" horiz-adv-x="1597" d="M61 762q0 322 228.5 550t550.5 228q236 0 427 -122t289 -339h-313q-78 100 -172 145.5t-225 45.5q-215 0 -358.5 -147.5t-143.5 -362.5q0 -213 149.5 -364.5t358.5 -151.5q111 0 197 41t178 137h329q-88 -207 -277 -328t-421 -121q-332 0 -564.5 230.5t-232.5 558.5z" />
<glyph unicode="D" horiz-adv-x="1433" d="M139 0v1513h346q356 0 537 -108q158 -94 244 -265t86 -386q0 -229 -98.5 -406.5t-272.5 -263.5q-168 -84 -489 -84h-353zM420 268h61q248 0 369 68q100 55 159.5 167.5t59.5 250.5q0 145 -61.5 259.5t-169.5 170.5q-121 61 -363 61h-55v-977z" />
<glyph unicode="E" horiz-adv-x="1064" d="M139 0v1513h813v-268h-532v-356h510v-268h-510v-353h532v-268h-813z" />
<glyph unicode="F" horiz-adv-x="983" d="M139 0v1513h770v-268h-489v-356h467v-268h-467v-621h-281z" />
<glyph unicode="G" horiz-adv-x="1720" d="M61 760q0 326 232.5 553t564.5 227q248 0 457 -133t282 -338h-329q-143 201 -416 201q-221 0 -364.5 -148.5t-143.5 -365.5t150.5 -364.5t373.5 -147.5q150 0 266.5 69.5t178.5 196.5h-627v262h989v-37q0 -311 -229 -536.5t-561 -225.5q-348 0 -586 227.5t-238 559.5z " />
<glyph unicode="H" horiz-adv-x="1392" d="M139 0v1513h281v-610h541v610h280v-1513h-280v635h-541v-635h-281z" />
<glyph unicode="I" horiz-adv-x="573" d="M139 0v1513h281v-1513h-281z" />
<glyph unicode="J" horiz-adv-x="983" d="M18 358h281q29 -115 133 -114q135 0 135 198v1071h281v-1079q0 -213 -109.5 -337t-300.5 -124q-170 0 -286 99.5t-134 285.5z" />
<glyph unicode="K" horiz-adv-x="1269" d="M139 0v1513h281v-653l469 653h338l-570 -743l570 -770h-338l-469 666v-666h-281z" />
<glyph unicode="L" horiz-adv-x="901" d="M139 0v1513h281v-1245h463v-268h-744z" />
<glyph unicode="M" horiz-adv-x="1843" d="M139 0v1513h385l408 -1146l403 1146h385v-1513h-280v1135l-396 -1135h-229l-395 1135v-1135h-281z" />
<glyph unicode="N" horiz-adv-x="1515" d="M139 0v1513h320l626 -1101v1101h281v-1513h-313l-633 1100v-1100h-281z" />
<glyph unicode="O" horiz-adv-x="1720" d="M61 756q0 332 230.5 558t568.5 226q324 0 551 -229.5t227 -552.5q0 -332 -225 -558.5t-555 -226.5q-334 0 -565.5 227.5t-231.5 555.5zM344 756q0 -215 148.5 -363.5t363.5 -148.5t357.5 145.5t142.5 364.5q0 217 -144.5 366.5t-355.5 149.5q-219 0 -365.5 -147.5 t-146.5 -366.5z" />
<glyph unicode="P" horiz-adv-x="1146" d="M139 0v1513h375q270 0 387 -69q205 -125 205 -397q0 -131 -53.5 -239t-145.5 -165q-63 -39 -149 -53.5t-248 -14.5h-90v-575h-281zM420 844h82q182 0 251.5 48t69.5 150q0 117 -70.5 160t-238.5 43h-94v-401z" />
<glyph unicode="Q" horiz-adv-x="1720" d="M61 758q0 330 233.5 556t573.5 226q344 0 572.5 -225t228.5 -565q0 -297 -182 -486q88 -45 139 -45q27 0 70 6v-254q-16 -2 -54 -2q-96 0 -168.5 28t-173.5 95q-172 -119 -419 -119q-342 0 -581 228.5t-239 556.5zM342 756q0 -35 4 -72q100 27 234 27q180 0 362 -78 t322 -215q123 127 122 327q0 225 -148 375t-374 150q-223 0 -372.5 -147.5t-149.5 -366.5zM432 465q168 -221 449 -221q96 0 182 39q-248 199 -485 198q-58 0 -146 -16z" />
<glyph unicode="R" horiz-adv-x="1187" d="M139 0v1513h436q156 0 248 -24.5t166 -87.5q160 -135 160 -373q0 -371 -395 -469l409 -559h-346l-397 580v-580h-281zM420 791h137q162 0 235.5 54t73.5 175q0 113 -67.5 169t-253.5 56h-125v-454z" />
<glyph unicode="S" horiz-adv-x="1064" d="M29 432h293q18 -188 204 -188q90 0 147.5 51t57.5 133q0 100 -69 154q-33 25 -70 41t-193 75q-152 57 -233.5 163t-81.5 249q0 180 129 305t311 125q186 0 312.5 -116.5t136.5 -313.5h-291q-6 78 -47 119t-113 41q-70 0 -112.5 -43t-42.5 -111q0 -84 84 -137 q23 -14 167 -68q221 -82 306.5 -186t85.5 -266q0 -205 -139.5 -345.5t-344.5 -140.5q-203 0 -341 124t-156 335z" />
<glyph unicode="T" horiz-adv-x="860" d="M14 1245v268h842v-268h-281v-1245h-280v1245h-281z" />
<glyph unicode="U" d="M139 555v958h281v-958q0 -168 58.5 -239.5t172.5 -71.5q113 0 171.5 70.5t58.5 240.5v958h280v-958q0 -283 -140 -432.5t-372 -149.5q-229 0 -369.5 150.5t-140.5 431.5z" />
<glyph unicode="V" horiz-adv-x="1433" d="M16 1513h295l408 -1151l407 1151h295l-585 -1513h-230z" />
<glyph unicode="W" horiz-adv-x="1843" d="M14 1513h287l266 -1056l258 1056h205l254 -1056l268 1056h287l-442 -1513h-223l-244 1001l-250 -1001h-221z" />
<glyph unicode="X" horiz-adv-x="1392" d="M10 0l520 754l-520 759h334l352 -528l363 528h325l-524 -759l524 -754h-325l-363 522l-352 -522h-334z" />
<glyph unicode="Y" horiz-adv-x="1269" d="M6 1513h303l336 -696l334 696h303l-498 -954v-559h-280v559z" />
<glyph unicode="Z" horiz-adv-x="1024" d="M37 0v238l573 1007h-542v268h876v-251l-569 -994h608v-268h-946z" />
<glyph unicode="[" horiz-adv-x="655" d="M152 383v530q0 236 103 383.5t343 216.5v-301q-104 -45 -137 -123.5t-33 -230.5v-522q0 -125 36 -202t134 -114v-301q-446 103 -446 664z" />
<glyph unicode="\" d="M172 1513h193l665 -1513h-192z" />
<glyph unicode="]" horiz-adv-x="655" d="M76 20q104 43 137 123t33 232v522q0 125 -36 199.5t-134 115.5v301q446 -100 446 -663v-531q0 -236 -103.5 -383t-342.5 -217v301z" />
<glyph unicode="^" horiz-adv-x="1228" d="M129 743l367 770h249l367 -770l-213 -102l-278 565l-279 -565z" />
<glyph unicode="_" horiz-adv-x="1024" d="M0 -98h1024v-185h-1024v185z" />
<glyph unicode="`" horiz-adv-x="860" d="M51 1483l111 188l459 -274l-105 -160z" />
<glyph unicode="a" horiz-adv-x="1351" d="M61 563q0 260 163 429t415 169q236 0 371 -178v152h250v-1135h-250v147q-82 -92 -170 -133t-207 -41q-248 0 -410 167t-162 423zM336 557q0 -150 93 -242t243 -92q152 0 240.5 95.5t88.5 240.5q0 156 -94 254t-239.5 98t-238.5 -99t-93 -255z" />
<glyph unicode="b" horiz-adv-x="1351" d="M111 0v1513h272v-483q78 78 160 112t192 34q244 0 408 -172.5t164 -428.5q0 -258 -157 -430t-396 -172q-127 0 -216 39t-178 133v-145h-249zM367 575q0 -156 94 -254t241 -98q145 0 237.5 97.5t92.5 252.5q0 152 -95 252.5t-241 100.5q-143 0 -236 -98.5t-93 -252.5z" />
<glyph unicode="c" d="M61 567q0 250 173.5 422t424.5 172q197 0 351.5 -106.5t220.5 -298.5h-307q-82 156 -265 155q-141 0 -232 -96t-91 -245.5t94 -248t236 -98.5q162 0 258 150h307q-72 -190 -218.5 -295t-344.5 -105q-252 0 -429.5 173t-177.5 421z" />
<glyph unicode="d" horiz-adv-x="1351" d="M61 569q0 254 165 430.5t403 176.5q225 0 354 -142v479h272v-1513h-249v147q-154 -174 -375 -174q-242 0 -406 172t-164 424zM336 582q0 -152 97 -255.5t241 -103.5q139 0 234.5 101.5t95.5 248.5q0 150 -96.5 251.5t-239.5 101.5q-139 0 -235.5 -99.5t-96.5 -244.5z" />
<glyph unicode="e" d="M61 563q0 250 174.5 424t423.5 174q254 0 420 -173t166 -437q0 -55 -10 -105h-879q25 -102 109 -162.5t205 -60.5q84 0 140 25.5t110 87.5h297q-55 -168 -208 -265.5t-333 -97.5q-260 0 -437.5 170t-177.5 420zM348 686h629q-27 109 -108 167t-205 58q-248 0 -316 -225z " />
<glyph unicode="f" horiz-adv-x="573" d="M20 887v227h99q41 399 375 399q35 0 67 -4v-258h-26q-80 0 -111 -29.5t-33 -107.5h154v-227h-154v-887h-272v887h-99z" />
<glyph unicode="g" horiz-adv-x="1351" d="M61 575q0 252 159 419t401 167q246 0 370 -170v144h260v-920q0 -668 -587 -668q-209 0 -361.5 95.5t-222.5 265.5h309q59 -66 124 -93.5t161 -27.5q303 0 317 363q-80 -94 -167 -135.5t-206 -41.5q-244 0 -400.5 170t-156.5 432zM336 563q0 -156 87 -248t232.5 -92 t234.5 93.5t89 246.5q0 156 -91 252t-237 96q-143 0 -229 -95t-86 -253z" />
<glyph unicode="h" horiz-adv-x="1228" d="M111 0v1513h272v-456q119 106 289 106q444 0 444 -522v-641h-272v580q0 178 -51.5 254.5t-169.5 76.5q-121 0 -180.5 -76.5t-59.5 -259.5v-575h-272z" />
<glyph unicode="i" horiz-adv-x="491" d="M111 0v1135h272v-1135h-272zM113 1298v273h272v-273h-272z" />
<glyph unicode="j" horiz-adv-x="532" d="M35 -115q76 14 94 45t18 152v1053h273v-1059q0 -223 -103.5 -339t-281.5 -116v264zM150 1298v273h272v-273h-272z" />
<glyph unicode="k" horiz-adv-x="1187" d="M111 0v1513h272v-913l362 535h326l-405 -555l471 -580h-367l-387 530v-530h-272z" />
<glyph unicode="l" horiz-adv-x="491" d="M111 0v1513h272v-1513h-272z" />
<glyph unicode="m" horiz-adv-x="1925" d="M111 0v1135h249v-107q59 72 127 102.5t168 30.5q223 0 334 -176q133 176 365 176q459 0 458 -506v-655h-272v623q0 160 -54 224t-159 64q-119 0 -174 -77.5t-55 -274.5v-559h-273v623q0 160 -54 224t-167 64q-121 0 -171 -76.5t-50 -275.5v-559h-272z" />
<glyph unicode="n" horiz-adv-x="1228" d="M111 0v1135h251v-109q141 135 320 135q242 0 354 -164q45 -66 63.5 -151.5t18.5 -237.5v-608h-272v555q0 213 -52.5 284.5t-164.5 71.5q-135 0 -201 -104q-45 -72 -45 -272v-535h-272z" />
<glyph unicode="o" d="M61 567q0 244 176.5 419t424.5 175q256 0 431 -174t175 -428q0 -240 -178.5 -413t-425.5 -173q-250 0 -426.5 174t-176.5 420zM336 571q0 -145 96 -246.5t234 -101.5q135 0 231 100.5t96 243.5q0 141 -96 242.5t-233 101.5q-133 0 -230.5 -100.5t-97.5 -239.5z" />
<glyph unicode="p" horiz-adv-x="1351" d="M111 -379v1514h249v-134q137 160 373 160q246 0 405.5 -167t159.5 -423q0 -258 -160.5 -428t-406.5 -170q-201 0 -348 133v-485h-272zM367 569q0 -150 95 -248t240 -98q135 0 228.5 99.5t93.5 242.5q0 147 -93 246.5t-233 99.5q-141 0 -236 -98.5t-95 -243.5z" />
<glyph unicode="q" horiz-adv-x="1351" d="M61 571q0 246 167 418t405 172q242 0 368 -172v146h250v-1514h-272v488q-135 -135 -342 -136q-244 0 -410 172t-166 426zM336 565q0 -147 95 -244.5t239 -97.5q139 0 232 97.5t93 242.5q0 150 -92 249t-231 99q-145 0 -240.5 -98t-95.5 -248z" />
<glyph unicode="r" horiz-adv-x="655" d="M111 0v1135h249v-111q53 78 105.5 107.5t140.5 29.5h21v-262q-244 -6 -244 -268v-631h-272z" />
<glyph unicode="s" horiz-adv-x="901" d="M39 360h274q20 -72 56.5 -104.5t95.5 -32.5q53 0 88 32t35 79q0 51 -31 75.5t-162 69.5q-170 57 -242.5 134t-72.5 202q0 145 109.5 245.5t267.5 100.5q150 0 257 -92t115 -248h-266q-18 90 -106 90q-45 0 -75 -27.5t-30 -68.5q0 -45 27 -61.5t166 -61.5 q176 -55 245.5 -130t69.5 -202q0 -162 -117.5 -274.5t-287.5 -112.5q-174 0 -285 97t-131 290z" />
<glyph unicode="t" horiz-adv-x="614" d="M18 887v248h134v378h272v-378h164v-248h-164v-887h-272v887h-134z" />
<glyph unicode="u" horiz-adv-x="1228" d="M111 526v609h272v-555q0 -211 53 -284t162 -73q141 0 207 105q43 72 43 272v535h272v-1135h-252v109q-76 -76 -149.5 -106t-175.5 -30q-432 0 -432 553z" />
<glyph unicode="v" horiz-adv-x="1146" d="M2 1135h303l262 -752l258 752h308l-457 -1135h-217z" />
<glyph unicode="w" horiz-adv-x="1638" d="M20 1135h293l203 -693l191 693h217l186 -693l207 693h291l-410 -1135h-170l-215 735l-219 -735h-168z" />
<glyph unicode="x" horiz-adv-x="1146" d="M2 0l401 586l-348 549h307l205 -342l201 342h307l-346 -549l404 -586h-328l-238 389l-237 -389h-328z" />
<glyph unicode="y" horiz-adv-x="1187" d="M12 1135h312l251 -736l275 736h313l-655 -1514h-293l213 485z" />
<glyph unicode="z" horiz-adv-x="942" d="M41 0v244l500 647h-443v244h768v-244l-499 -647h538v-244h-864z" />
<glyph unicode="{" horiz-adv-x="696" d="M76 543v166q166 20 166 200v322q0 152 68.5 218.5t224.5 66.5q53 0 83 -3v-163q-109 -8 -135 -43t-26 -166v-252q0 -121 -41 -179.5t-144 -84.5q102 -25 143.5 -84.5t41.5 -178.5v-251q0 -131 26.5 -166t134.5 -43v-164q-31 -2 -83 -2q-156 0 -224.5 66.5t-68.5 217.5 v322q0 181 -166 201z" />
<glyph unicode="|" horiz-adv-x="1228" d="M473 -281v1794h283v-1794h-283z" />
<glyph unicode="}" horiz-adv-x="696" d="M78 -98q109 8 135.5 43t26.5 166v251q0 121 41 179.5t143 85.5q-102 25 -143 84t-41 178v252q0 131 -27 165.5t-135 43.5v163q31 2 84 3q156 0 224.5 -67t68.5 -218v-322q0 -180 166 -200v-166q-166 -20 -166 -201v-322q0 -152 -69 -218t-224 -66q-53 0 -84 2v164z" />
<glyph unicode="~" horiz-adv-x="1228" d="M104 592q90 145 148.5 198.5t155.5 53.5q80 0 157 -33l137 -55q111 -45 146 -45q74 0 158 151l131 -151q-80 -131 -146.5 -185.5t-150.5 -54.5q-68 0 -187 49l-110 45q-96 39 -131 39q-53 0 -97 -45q-23 -23 -82 -121z" />
<glyph unicode="&#xa1;" horiz-adv-x="573" d="M154 -379v1129h272v-1129h-272zM154 872v263h272v-263h-272z" />
<glyph unicode="&#xa2;" horiz-adv-x="1146" d="M80 780q0 166 97 297t269 174v213h256v-213q131 -33 223.5 -125t121.5 -219h-291q-68 94 -191 94q-90 0 -151.5 -64.5t-61.5 -160.5t62.5 -159.5t158.5 -63.5q100 0 175 82h299q-106 -268 -345 -332v-223h-256v223q-164 37 -265 169t-101 308z" />
<glyph unicode="&#xa3;" horiz-adv-x="1146" d="M0 635v256h119q-35 78 -35 166q0 203 142.5 343t346.5 140q195 0 329 -120t151 -312h-277q-23 88 -75 135t-126 47q-92 0 -155.5 -70.5t-63.5 -172.5q0 -88 56 -156h424v-256h-220q66 -129 66 -225q0 -78 -27 -154q109 0 167.5 53t58.5 142q0 45 -21 110h270 q23 -59 23 -106q0 -211 -154 -344q-72 -61 -156.5 -86t-226.5 -25h-532v256h285q41 70 41 150q0 119 -119 229h-291z" />
<glyph unicode="&#xa4;" horiz-adv-x="1146" d="M55 469l86 88q-45 84 -59 135t-14 127t14 128t59 136l-86 93l164 163l92 -90q121 74 262 74q139 0 271 -74l92 88l158 -166l-86 -88q76 -131 75 -266q0 -139 -77 -262l86 -88l-158 -164l-90 86q-127 -76 -269 -76q-139 0 -268 76l-90 -86zM313 819q0 -106 78 -183 t184 -77q109 0 184 75t75 183q0 106 -75 183t-177 77q-113 0 -191 -74.5t-78 -183.5z" />
<glyph unicode="&#xa5;" horiz-adv-x="1146" d="M-72 1513h305l328 -698l330 698h315l-293 -555h189v-180h-287l-117 -215h404v-180h-404v-383h-272v383h-401v180h401l-115 215h-286v180h192z" />
<glyph unicode="&#xa6;" horiz-adv-x="1228" d="M473 -281v717h283v-717h-283zM473 797v716h283v-716h-283z" />
<glyph unicode="&#xa7;" horiz-adv-x="1146" d="M82 711q0 180 160 299q-57 88 -58 190q0 150 115 245t297 95t289.5 -98.5t132.5 -288.5h-258q-27 137 -176 137q-63 0 -101.5 -26.5t-38.5 -71.5q0 -84 125 -143l336 -166q82 -41 130 -118t48 -167q0 -176 -153 -291q102 -104 102 -244q0 -170 -124 -277.5t-316 -107.5 q-199 0 -326 114t-143 321h274q0 -184 197 -185q76 0 127 38t51 95q0 43 -29.5 73t-119.5 77l-334 172q-207 107 -207 328zM322 725q0 -66 122 -129l310 -156q76 53 75 129q0 37 -24.5 62.5t-97.5 62.5l-306 152q-79 -64 -79 -121z" />
<glyph unicode="&#xa8;" horiz-adv-x="1024" d="M152 1298v273h272v-273h-272zM582 1298v273h272v-273h-272z" />
<glyph unicode="&#xa9;" horiz-adv-x="1515" d="M41 690q0 297 210 507t507 210t507 -210t210 -507t-210 -507t-507 -210t-507 210t-210 507zM164 690q0 -246 174 -420t420 -174t420 174t174 420t-174 420t-420 174t-420 -174t-174 -420zM311 694q0 172 134.5 295t322.5 123q147 0 264 -73.5t170 -204.5h-215 q-78 96 -215 96q-113 0 -187.5 -67.5t-74.5 -170.5q0 -100 78 -170.5t186 -70.5q111 0 205 92h221q-45 -125 -160.5 -200t-261.5 -75q-195 0 -331 125t-136 301z" />
<glyph unicode="&#xaa;" horiz-adv-x="737" d="M57 1212q0 135 88 229.5t213 94.5q119 0 199 -102v79h135v-610h-135v84q-80 -104 -209 -104q-123 0 -207 95t-84 234zM63 635v143h637v-143h-637zM213 1206q0 -72 48 -122t118 -50t118 51.5t48 125t-48 123.5t-118 50t-118 -52t-48 -126z" />
<glyph unicode="&#xab;" horiz-adv-x="942" d="M74 489v205l284 267v-252l-137 -117l137 -119v-252zM510 489v205l285 267v-252l-138 -117l138 -119v-252z" />
<glyph unicode="&#xac;" horiz-adv-x="1228" d="M111 559v283h1007v-518h-282v235h-725z" />
<glyph unicode="&#xad;" horiz-adv-x="860" d="M152 469v242h567v-242h-567z" />
<glyph unicode="&#xae;" horiz-adv-x="1515" d="M41 690q0 297 210 507t507 210t507 -210t210 -507t-210 -507t-507 -210t-507 210t-210 507zM164 690q0 -246 174 -420t420 -174t420 174t174 420t-174 420t-420 174t-420 -174t-174 -420zM438 283v817h264q166 0 244 -62q98 -76 98 -209q0 -193 -204 -251l237 -295h-248 l-194 258v-258h-197zM616 709h76q92 0 133 27.5t41 88.5q0 57 -37.5 86t-142.5 29h-70v-231z" />
<glyph unicode="&#xaf;" horiz-adv-x="860" d="M152 1331v205h567v-205h-567z" />
<glyph unicode="&#xb0;" horiz-adv-x="819" d="M102 1094q0 131 91.5 221t224.5 90q127 0 213 -91t86 -222t-89 -222.5t-218 -91.5t-218.5 91.5t-89.5 224.5zM217 1092q0 -82 57.5 -139.5t135.5 -57.5q80 0 135 57.5t55 139.5t-54 139t-132 57q-82 0 -139.5 -57t-57.5 -139z" />
<glyph unicode="&#xb1;" horiz-adv-x="1228" d="M111 0v283h1007v-283h-1007zM111 653v283h362v362h283v-362h362v-283h-362v-116h-283v116h-362z" />
<glyph unicode="&#xb2;" horiz-adv-x="688" d="M20 1192q0 162 89.5 250t236.5 88q137 0 229.5 -86t92.5 -213q0 -162 -183 -307l-192 -154h371v-164h-637v152l348 303q111 94 112 174q0 57 -39.5 95t-99.5 38q-70 0 -108.5 -46t-40.5 -130h-179z" />
<glyph unicode="&#xb3;" horiz-adv-x="688" d="M8 891h180q10 -66 52.5 -102.5t108 -36.5t108.5 39.5t43 101.5q0 66 -52.5 104.5t-142.5 38.5h-43v168q94 2 132 21.5t38 64.5q0 35 -24.5 56.5t-63.5 21.5q-72 0 -86 -82h-182q12 121 84.5 181.5t181.5 60.5q117 0 193.5 -71t76.5 -177q0 -98 -69 -152q135 -63 135 -229 q0 -133 -93 -221t-236.5 -88t-238 84t-102.5 217z" />
<glyph unicode="&#xb4;" horiz-adv-x="860" d="M240 1397l458 274l111 -188l-465 -246z" />
<glyph unicode="&#xb5;" horiz-adv-x="1179" d="M111 -379v1514h272v-557q0 -72 7 -125.5t27.5 -108.5t64.5 -85t109.5 -30t109.5 30t63.5 85t27 108.5t7.5 125.5v557h272v-1135h-250v121q-82 -158 -268 -158q-80 0 -170 39v-381h-272z" />
<glyph unicode="&#xb6;" horiz-adv-x="1228" d="M76 1092q0 209 133 315t424 106h446v-1775h-207v1556h-172v-1556h-206v938q-186 2 -302 118t-116 298z" />
<glyph unicode="&#xb7;" horiz-adv-x="573" d="M156 512q0 53 38.5 92t92 39t92.5 -39t39 -92t-39 -92t-92.5 -39t-92 39t-38.5 92z" />
<glyph unicode="&#xb8;" horiz-adv-x="696" d="M152 -340h124q27 -59 78 -59q33 0 56.5 26.5t23.5 65.5q0 37 -23.5 63.5t-56.5 26.5q-39 0 -78 -55l-106 53l94 229h107l-64 -129q37 14 60 15q76 0 131 -61.5t55 -145.5q0 -90 -54.5 -145.5t-142.5 -55.5q-78 0 -135 48t-69 124z" />
<glyph unicode="&#xb9;" horiz-adv-x="688" d="M193 1350v163h301v-907h-181v744h-120z" />
<glyph unicode="&#xba;" horiz-adv-x="737" d="M63 637v143h629v-143h-629zM63 1227q0 127 93.5 218t222.5 91q131 0 222 -92t91 -223t-92 -223.5t-223 -92.5q-129 0 -221.5 94.5t-92.5 227.5zM213 1227q0 -74 46 -122t118 -48q70 0 118 47t48 119q0 70 -49.5 120t-114.5 50q-68 0 -117 -49t-49 -117z" />
<glyph unicode="&#xbb;" horiz-adv-x="942" d="M150 221v252l137 119l-137 117v252l284 -267v-205zM586 221v252l137 119l-137 117v252l284 -267v-205z" />
<glyph unicode="&#xbc;" horiz-adv-x="1720" d="M193 1350v163h301v-907h-181v744h-120zM451 0l626 1513h195l-627 -1513h-194zM1036 135v137l426 635h152v-616h98v-156h-98v-135h-180v135h-398zM1225 291h209v315z" />
<glyph unicode="&#xbd;" horiz-adv-x="1720" d="M193 1350v163h301v-907h-181v744h-120zM408 0l626 1513h195l-627 -1513h-194zM1053 586q0 162 89 250t236 88q137 0 229.5 -86t92.5 -213q0 -162 -182 -308l-193 -153h371v-164h-637v152l348 303q111 94 113 174q0 57 -40 95t-100 38q-70 0 -108.5 -46t-40.5 -130h-178z " />
<glyph unicode="&#xbe;" horiz-adv-x="1720" d="M8 891h180q10 -66 52.5 -102.5t108 -36.5t108.5 39.5t43 101.5q0 66 -52.5 104.5t-142.5 38.5h-43v168q94 2 132 21.5t38 64.5q0 35 -24.5 56.5t-63.5 21.5q-72 0 -86 -82h-182q12 121 84.5 181.5t181.5 60.5q117 0 193.5 -71t76.5 -177q0 -98 -69 -152q135 -63 135 -229 q0 -133 -93 -221t-236.5 -88t-238 84t-102.5 217zM512 0l627 1513h194l-626 -1513h-195zM1036 135v137l426 635h152v-616h98v-156h-98v-135h-180v135h-398zM1225 291h209v315z" />
<glyph unicode="&#xbf;" horiz-adv-x="1146" d="M154 63q0 102 46 183.5t162 183.5q84 74 108 131t26 191h272q0 -193 -48 -295.5t-202 -227.5q-92 -76 -92 -174q0 -82 55.5 -136t139.5 -54q162 0 188 205h272q-18 -229 -147 -352.5t-320 -123.5q-197 0 -328.5 134t-131.5 335zM496 872v263h272v-263h-272z" />
<glyph unicode="&#xc0;" horiz-adv-x="1515" d="M14 0l631 1513h221l635 -1513h-309l-162 391h-538l-168 -391h-310zM377 1841l110 189l459 -275l-104 -160zM594 659h324l-162 459z" />
<glyph unicode="&#xc1;" horiz-adv-x="1515" d="M14 0l631 1513h221l635 -1513h-309l-162 391h-538l-168 -391h-310zM565 1755l459 275l111 -189l-465 -246zM594 659h324l-162 459z" />
<glyph unicode="&#xc2;" horiz-adv-x="1515" d="M14 0l631 1513h221l635 -1513h-309l-162 391h-538l-168 -391h-310zM348 1651l301 282h219l297 -282h-297l-108 131l-111 -131h-301zM594 659h324l-162 459z" />
<glyph unicode="&#xc3;" horiz-adv-x="1515" d="M14 0l631 1513h221l635 -1513h-309l-162 391h-538l-168 -391h-310zM416 1817q53 53 100 74.5t111 21.5q25 0 107.5 -25.5t111.5 -25.5q76 0 137 69l111 -166q-92 -113 -193 -112q-27 0 -120 25.5t-111 25.5q-37 0 -60.5 -8t-83.5 -43zM594 659h324l-162 459z" />
<glyph unicode="&#xc4;" horiz-adv-x="1515" d="M14 0l631 1513h221l635 -1513h-309l-162 391h-538l-168 -391h-310zM395 1657v272h273v-272h-273zM594 659h324l-162 459zM825 1657v272h273v-272h-273z" />
<glyph unicode="&#xc5;" horiz-adv-x="1515" d="M14 0l631 1513h221l635 -1513h-309l-162 391h-538l-168 -391h-310zM524 1818.5q0 96.5 67.5 164t166.5 67.5q94 0 161.5 -67.5t67.5 -164t-67.5 -164t-164 -67.5t-164 67.5t-67.5 164zM594 659h324l-162 459zM674 1818.5q0 -32.5 23.5 -57t58.5 -24.5t58.5 24.5t23.5 57 t-23.5 57.5t-58.5 25t-58.5 -25t-23.5 -57.5z" />
<glyph unicode="&#xc6;" horiz-adv-x="1843" d="M35 0l997 1513h694v-268h-446v-356h424v-268h-424v-353h446v-268h-727v391h-397l-229 -391h-338zM764 659h235v392z" />
<glyph unicode="&#xc7;" horiz-adv-x="1597" d="M61 762q0 322 228.5 550t550.5 228q236 0 427 -122t289 -339h-313q-78 100 -172 145.5t-225 45.5q-215 0 -358.5 -147.5t-143.5 -362.5q0 -213 149.5 -364.5t358.5 -151.5q111 0 197 41t178 137h329q-86 -201 -266 -320.5t-405 -128.5l-45 -92q37 14 59 15 q76 0 131 -61.5t55 -145.5q0 -90 -54 -145.5t-142 -55.5q-78 0 -135.5 48t-69.5 124h125q27 -59 78 -59q33 0 56.5 26.5t23.5 65.5q0 37 -23.5 63.5t-56.5 26.5q-39 0 -78 -55l-107 53l80 196q-305 29 -513 253.5t-208 531.5z" />
<glyph unicode="&#xc8;" horiz-adv-x="1064" d="M139 0v1513h813v-268h-532v-356h510v-268h-510v-353h532v-268h-813zM168 1841l111 189l458 -275l-104 -160z" />
<glyph unicode="&#xc9;" horiz-adv-x="1064" d="M139 0v1513h813v-268h-532v-356h510v-268h-510v-353h532v-268h-813zM356 1755l459 275l111 -189l-465 -246z" />
<glyph unicode="&#xca;" horiz-adv-x="1064" d="M139 0v1513h813v-268h-532v-356h510v-268h-510v-353h532v-268h-813zM139 1651l301 282h219l297 -282h-297l-108 131l-111 -131h-301z" />
<glyph unicode="&#xcb;" horiz-adv-x="1064" d="M139 0v1513h813v-268h-532v-356h510v-268h-510v-353h532v-268h-813zM186 1657v272h273v-272h-273zM616 1657v272h273v-272h-273z" />
<glyph unicode="&#xcc;" horiz-adv-x="573" d="M-45 1841l111 189l458 -275l-104 -160zM139 0v1513h281v-1513h-281z" />
<glyph unicode="&#xcd;" horiz-adv-x="573" d="M35 1755l459 275l110 -189l-465 -246zM139 0v1513h281v-1513h-281z" />
<glyph unicode="&#xce;" horiz-adv-x="573" d="M-127 1651l301 282h219l297 -282h-297l-108 131l-111 -131h-301zM139 0v1513h281v-1513h-281z" />
<glyph unicode="&#xcf;" horiz-adv-x="573" d="M-80 1657v272h273v-272h-273zM139 0v1513h281v-1513h-281zM350 1657v272h273v-272h-273z" />
<glyph unicode="&#xd0;" horiz-adv-x="1519" d="M29 645v219h196v649h346q356 0 537 -108q158 -94 244 -265t86 -388q0 -229 -98.5 -405.5t-272.5 -262.5q-168 -84 -489 -84h-353v645h-196zM506 268h61q248 0 369 68q102 55 160.5 167.5t58.5 250.5q0 145 -62.5 259.5t-168.5 170.5q-121 61 -363 61h-55v-381h315v-219 h-315v-377z" />
<glyph unicode="&#xd1;" horiz-adv-x="1515" d="M139 0v1513h320l626 -1101v1101h281v-1513h-313l-633 1100v-1100h-281zM414 1817q53 53 100 74.5t111 21.5q25 0 107.5 -25.5t111.5 -25.5q76 0 137 69l111 -166q-92 -113 -193 -112q-27 0 -120 25.5t-111 25.5q-37 0 -60.5 -8t-83.5 -43z" />
<glyph unicode="&#xd2;" horiz-adv-x="1720" d="M61 756q0 332 230.5 558t568.5 226q324 0 551 -229.5t227 -552.5q0 -332 -225 -558.5t-555 -226.5q-334 0 -565.5 227.5t-231.5 555.5zM344 756q0 -215 148.5 -363.5t363.5 -148.5t357.5 145.5t142.5 364.5q0 217 -144.5 366.5t-355.5 149.5q-219 0 -365.5 -147.5 t-146.5 -366.5zM481 1841l111 189l459 -275l-105 -160z" />
<glyph unicode="&#xd3;" horiz-adv-x="1720" d="M61 756q0 332 230.5 558t568.5 226q324 0 551 -229.5t227 -552.5q0 -332 -225 -558.5t-555 -226.5q-334 0 -565.5 227.5t-231.5 555.5zM344 756q0 -215 148.5 -363.5t363.5 -148.5t357.5 145.5t142.5 364.5q0 217 -144.5 366.5t-355.5 149.5q-219 0 -365.5 -147.5 t-146.5 -366.5zM670 1755l458 275l111 -189l-465 -246z" />
<glyph unicode="&#xd4;" horiz-adv-x="1720" d="M61 756q0 332 230.5 558t568.5 226q324 0 551 -229.5t227 -552.5q0 -332 -225 -558.5t-555 -226.5q-334 0 -565.5 227.5t-231.5 555.5zM344 756q0 -215 148.5 -363.5t363.5 -148.5t357.5 145.5t142.5 364.5q0 217 -144.5 366.5t-355.5 149.5q-219 0 -365.5 -147.5 t-146.5 -366.5zM453 1651l301 282h219l297 -282h-297l-109 131l-110 -131h-301z" />
<glyph unicode="&#xd5;" horiz-adv-x="1720" d="M61 756q0 332 230.5 558t568.5 226q324 0 551 -229.5t227 -552.5q0 -332 -225 -558.5t-555 -226.5q-334 0 -565.5 227.5t-231.5 555.5zM344 756q0 -215 148.5 -363.5t363.5 -148.5t357.5 145.5t142.5 364.5q0 217 -144.5 366.5t-355.5 149.5q-219 0 -365.5 -147.5 t-146.5 -366.5zM520 1817q53 53 100.5 74.5t110.5 21.5q25 0 108 -25.5t111 -25.5q76 0 137 69l111 -166q-92 -113 -192 -112q-27 0 -120 25.5t-112 25.5q-37 0 -60.5 -8t-82.5 -43z" />
<glyph unicode="&#xd6;" horiz-adv-x="1720" d="M61 756q0 332 230.5 558t568.5 226q324 0 551 -229.5t227 -552.5q0 -332 -225 -558.5t-555 -226.5q-334 0 -565.5 227.5t-231.5 555.5zM344 756q0 -215 148.5 -363.5t363.5 -148.5t357.5 145.5t142.5 364.5q0 217 -144.5 366.5t-355.5 149.5q-219 0 -365.5 -147.5 t-146.5 -366.5zM500 1657v272h272v-272h-272zM930 1657v272h272v-272h-272z" />
<glyph unicode="&#xd7;" horiz-adv-x="1228" d="M158 256l256 256l-256 256l200 201l256 -256l256 256l201 -201l-256 -256l256 -256l-201 -201l-256 256l-256 -256z" />
<glyph unicode="&#xd8;" horiz-adv-x="1720" d="M61 758q0 326 230.5 554t560.5 228q174 0 338 -72l127 189l194 -135l-125 -185q258 -236 259 -579q0 -332 -226.5 -558.5t-556.5 -226.5q-182 0 -344 74l-123 -180l-196 133l120 178q-123 111 -190.5 263.5t-67.5 316.5zM344 758q0 -195 133 -346l557 827q-88 31 -182 31 q-213 0 -360.5 -148.5t-147.5 -363.5zM674 276q92 -33 186 -32q215 0 358.5 145.5t143.5 364.5q0 199 -131 352z" />
<glyph unicode="&#xd9;" d="M139 555v958h281v-958q0 -168 58.5 -239.5t172.5 -71.5q113 0 171.5 70.5t58.5 240.5v958h280v-958q0 -283 -140 -432.5t-372 -149.5q-229 0 -369.5 150.5t-140.5 431.5zM272 1841l111 189l459 -275l-105 -160z" />
<glyph unicode="&#xda;" d="M139 555v958h281v-958q0 -168 58.5 -239.5t172.5 -71.5q113 0 171.5 70.5t58.5 240.5v958h280v-958q0 -283 -140 -432.5t-372 -149.5q-229 0 -369.5 150.5t-140.5 431.5zM461 1755l459 275l110 -189l-465 -246z" />
<glyph unicode="&#xdb;" d="M139 555v958h281v-958q0 -168 58.5 -239.5t172.5 -71.5q113 0 171.5 70.5t58.5 240.5v958h280v-958q0 -283 -140 -432.5t-372 -149.5q-229 0 -369.5 150.5t-140.5 431.5zM244 1651l301 282h219l297 -282h-297l-109 131l-110 -131h-301z" />
<glyph unicode="&#xdc;" d="M139 555v958h281v-958q0 -168 58.5 -239.5t172.5 -71.5q113 0 171.5 70.5t58.5 240.5v958h280v-958q0 -283 -140 -432.5t-372 -149.5q-229 0 -369.5 150.5t-140.5 431.5zM291 1657v272h272v-272h-272zM721 1657v272h272v-272h-272z" />
<glyph unicode="&#xdd;" horiz-adv-x="1269" d="M6 1513h303l336 -696l334 696h303l-498 -954v-559h-280v559zM455 1755l458 275l111 -189l-465 -246z" />
<glyph unicode="&#xde;" horiz-adv-x="1146" d="M139 0v1513h281v-268h94q270 0 387 -69q205 -125 205 -398q0 -131 -53.5 -239.5t-145.5 -165.5q-63 -39 -150 -53.5t-247 -14.5h-90v-305h-281zM420 573h82q182 0 251.5 48.5t69.5 150.5q0 119 -70.5 162t-238.5 43h-94v-404z" />
<glyph unicode="&#xdf;" horiz-adv-x="1228" d="M104 0v997q0 254 121 398.5t332 144.5q188 0 317.5 -121t129.5 -301q0 -197 -154 -282q172 -41 259 -144.5t87 -249.5q0 -207 -134 -338t-345 -131q-248 0 -363 189v-162h-250zM377 387h168q14 -70 68.5 -117t121.5 -47q80 0 133.5 56.5t53.5 140.5q0 117 -82 171 t-295 54h-23v242h23q80 0 132 60.5t52 150.5q0 88 -48 140t-126 52q-178 0 -178 -260v-643z" />
<glyph unicode="&#xe0;" horiz-adv-x="1351" d="M61 563q0 260 163 429t415 169q236 0 371 -178v152h250v-1135h-250v147q-82 -92 -170 -133t-207 -41q-248 0 -410 167t-162 423zM297 1483l111 188l458 -274l-104 -160zM336 557q0 -150 93 -242t243 -92q152 0 240.5 95.5t88.5 240.5q0 156 -94 254t-239.5 98t-238.5 -99 t-93 -255z" />
<glyph unicode="&#xe1;" horiz-adv-x="1351" d="M61 563q0 260 163 429t415 169q236 0 371 -178v152h250v-1135h-250v147q-82 -92 -170 -133t-207 -41q-248 0 -410 167t-162 423zM336 557q0 -150 93 -242t243 -92q152 0 240.5 95.5t88.5 240.5q0 156 -94 254t-239.5 98t-238.5 -99t-93 -255zM485 1397l459 274l111 -188 l-465 -246z" />
<glyph unicode="&#xe2;" horiz-adv-x="1351" d="M61 563q0 260 163 429t415 169q236 0 371 -178v152h250v-1135h-250v147q-82 -92 -170 -133t-207 -41q-248 0 -410 167t-162 423zM268 1292l301 283h219l297 -283h-297l-108 131l-111 -131h-301zM336 557q0 -150 93 -242t243 -92q152 0 240.5 95.5t88.5 240.5 q0 156 -94 254t-239.5 98t-238.5 -99t-93 -255z" />
<glyph unicode="&#xe3;" horiz-adv-x="1351" d="M61 563q0 260 163 429t415 169q236 0 371 -178v152h250v-1135h-250v147q-82 -92 -170 -133t-207 -41q-248 0 -410 167t-162 423zM336 557q0 -150 93 -242t243 -92q152 0 240.5 95.5t88.5 240.5q0 156 -94 254t-239.5 98t-238.5 -99t-93 -255zM336 1458q53 53 100 74.5 t111 21.5q25 0 107.5 -25.5t111.5 -25.5q76 0 137 70l111 -166q-92 -113 -193 -113q-27 0 -120 26t-111 26q-37 0 -60.5 -8.5t-83.5 -43.5z" />
<glyph unicode="&#xe4;" horiz-adv-x="1351" d="M61 563q0 260 163 429t415 169q236 0 371 -178v152h250v-1135h-250v147q-82 -92 -170 -133t-207 -41q-248 0 -410 167t-162 423zM315 1298v273h273v-273h-273zM336 557q0 -150 93 -242t243 -92q152 0 240.5 95.5t88.5 240.5q0 156 -94 254t-239.5 98t-238.5 -99t-93 -255 zM745 1298v273h273v-273h-273z" />
<glyph unicode="&#xe5;" horiz-adv-x="1351" d="M61 563q0 260 163 429t415 169q236 0 371 -178v152h250v-1135h-250v147q-82 -92 -170 -133t-207 -41q-248 0 -410 167t-162 423zM336 557q0 -150 93 -242t243 -92q152 0 240.5 95.5t88.5 240.5q0 156 -94 254t-239.5 98t-238.5 -99t-93 -255zM444 1454q0 96 68 164 t166 68q94 0 161.5 -68t67.5 -164t-67.5 -163.5t-163.5 -67.5t-164 67.5t-68 163.5zM594 1454q0 -33 24.5 -57.5t57.5 -24.5t57.5 24.5t24.5 57.5t-24.5 57.5t-57.5 24.5t-57.5 -24.5t-24.5 -57.5z" />
<glyph unicode="&#xe6;" horiz-adv-x="2211" d="M61 563q0 254 170 426t420 172q209 0 342 -139v113h250v-113q137 139 342 139q238 0 402.5 -166t164.5 -405q0 -61 -18 -141h-877q35 -106 120 -166t200 -60q145 0 240 113h297q-51 -156 -201 -259.5t-324 -103.5q-217 0 -346 150v-123h-250v123q-70 -82 -145.5 -116 t-192.5 -34q-256 0 -425 168t-169 422zM336 573q0 -152 93 -251t237 -99q137 0 228 98.5t91 243.5q0 147 -93 246.5t-230.5 99.5t-231.5 -98.5t-94 -239.5zM1243 690h623q-59 221 -307 221q-238 0 -316 -221z" />
<glyph unicode="&#xe7;" d="M61 567q0 250 173.5 422t424.5 172q197 0 351.5 -106.5t220.5 -298.5h-307q-82 156 -265 155q-141 0 -232 -96t-91 -245.5t94 -248t236 -98.5q162 0 258 150h307q-68 -182 -206 -285.5t-325 -114.5l-45 -92q37 14 60 15q76 0 131 -61.5t55 -145.5q0 -90 -54 -145.5 t-142 -55.5q-78 0 -135.5 48t-69.5 124h125q27 -59 77 -59q33 0 56.5 26.5t23.5 65.5q0 37 -23.5 63.5t-56.5 26.5q-39 0 -77 -55l-107 53l80 196q-229 25 -383 193t-154 397z" />
<glyph unicode="&#xe8;" d="M61 563q0 250 174.5 424t423.5 174q254 0 420 -173t166 -437q0 -55 -10 -105h-879q25 -102 109 -162.5t205 -60.5q84 0 140 25.5t110 87.5h297q-55 -168 -208 -265.5t-333 -97.5q-260 0 -437.5 170t-177.5 420zM281 1483l110 188l459 -274l-105 -160zM348 686h629 q-27 109 -108 167t-205 58q-248 0 -316 -225z" />
<glyph unicode="&#xe9;" d="M61 563q0 250 174.5 424t423.5 174q254 0 420 -173t166 -437q0 -55 -10 -105h-879q25 -102 109 -162.5t205 -60.5q84 0 140 25.5t110 87.5h297q-55 -168 -208 -265.5t-333 -97.5q-260 0 -437.5 170t-177.5 420zM348 686h629q-27 109 -108 167t-205 58q-248 0 -316 -225z M469 1397l459 274l110 -188l-465 -246z" />
<glyph unicode="&#xea;" d="M61 563q0 250 174.5 424t423.5 174q254 0 420 -173t166 -437q0 -55 -10 -105h-879q25 -102 109 -162.5t205 -60.5q84 0 140 25.5t110 87.5h297q-55 -168 -208 -265.5t-333 -97.5q-260 0 -437.5 170t-177.5 420zM252 1292l301 283h219l297 -283h-297l-108 131l-111 -131 h-301zM348 686h629q-27 109 -108 167t-205 58q-248 0 -316 -225z" />
<glyph unicode="&#xeb;" d="M61 563q0 250 174.5 424t423.5 174q254 0 420 -173t166 -437q0 -55 -10 -105h-879q25 -102 109 -162.5t205 -60.5q84 0 140 25.5t110 87.5h297q-55 -168 -208 -265.5t-333 -97.5q-260 0 -437.5 170t-177.5 420zM299 1298v273h272v-273h-272zM348 686h629 q-27 109 -108 167t-205 58q-248 0 -316 -225zM729 1298v273h272v-273h-272z" />
<glyph unicode="&#xec;" horiz-adv-x="491" d="M-82 1483l111 188l458 -274l-104 -160zM111 0v1135h272v-1135h-272z" />
<glyph unicode="&#xed;" horiz-adv-x="491" d="M6 1397l459 274l110 -188l-464 -246zM111 0v1135h272v-1135h-272z" />
<glyph unicode="&#xee;" horiz-adv-x="491" d="M-160 1292l301 283h219l297 -283h-297l-108 131l-111 -131h-301zM111 0v1135h272v-1135h-272z" />
<glyph unicode="&#xef;" horiz-adv-x="491" d="M-113 1298v273h273v-273h-273zM111 0v1135h272v-1135h-272zM317 1298v273h273v-273h-273z" />
<glyph unicode="&#xf0;" d="M61 569q0 229 161 399.5t388 170.5q53 0 138 -19l-58 58q-57 57 -100 94l-178 -82l-82 94l159 76l-143 117l211 71q10 -6 20.5 -13t12.5 -9l61 -47q2 0 39 -27l178 82l84 -100l-159 -72q260 -223 367.5 -402.5t107.5 -377.5q0 -256 -174 -432.5t-428 -176.5 q-250 0 -427.5 175t-177.5 421zM336 571q0 -145 96 -246.5t234 -101.5q135 0 231 100.5t96 243.5q0 141 -96 242.5t-233 101.5q-133 0 -230.5 -100.5t-97.5 -239.5z" />
<glyph unicode="&#xf1;" horiz-adv-x="1228" d="M111 0v1135h251v-109q141 135 320 135q242 0 354 -164q45 -66 63.5 -151.5t18.5 -237.5v-608h-272v555q0 213 -52.5 284.5t-164.5 71.5q-135 0 -201 -104q-45 -72 -45 -272v-535h-272zM274 1458q53 53 100.5 74.5t110.5 21.5q25 0 108 -25.5t112 -25.5q76 0 137 70 l110 -166q-92 -113 -192 -113q-27 0 -120 26t-112 26q-37 0 -60.5 -8.5t-82.5 -43.5z" />
<glyph unicode="&#xf2;" d="M61 567q0 244 176.5 419t424.5 175q256 0 431 -174t175 -428q0 -240 -178.5 -413t-425.5 -173q-250 0 -426.5 174t-176.5 420zM283 1483l110 188l459 -274l-104 -160zM336 571q0 -145 96 -246.5t234 -101.5q135 0 231 100.5t96 243.5q0 141 -96 242.5t-233 101.5 q-133 0 -230.5 -100.5t-97.5 -239.5z" />
<glyph unicode="&#xf3;" d="M61 567q0 244 176.5 419t424.5 175q256 0 431 -174t175 -428q0 -240 -178.5 -413t-425.5 -173q-250 0 -426.5 174t-176.5 420zM336 571q0 -145 96 -246.5t234 -101.5q135 0 231 100.5t96 243.5q0 141 -96 242.5t-233 101.5q-133 0 -230.5 -100.5t-97.5 -239.5zM471 1397 l459 274l110 -188l-465 -246z" />
<glyph unicode="&#xf4;" d="M61 567q0 244 176.5 419t424.5 175q256 0 431 -174t175 -428q0 -240 -178.5 -413t-425.5 -173q-250 0 -426.5 174t-176.5 420zM254 1292l301 283h219l297 -283h-297l-108 131l-111 -131h-301zM336 571q0 -145 96 -246.5t234 -101.5q135 0 231 100.5t96 243.5 q0 141 -96 242.5t-233 101.5q-133 0 -230.5 -100.5t-97.5 -239.5z" />
<glyph unicode="&#xf5;" d="M61 567q0 244 176.5 419t424.5 175q256 0 431 -174t175 -428q0 -240 -178.5 -413t-425.5 -173q-250 0 -426.5 174t-176.5 420zM322 1458q53 53 100 74.5t110 21.5q25 0 108 -25.5t112 -25.5q76 0 137 70l110 -166q-92 -113 -192 -113q-27 0 -120 26t-112 26 q-37 0 -60 -8.5t-83 -43.5zM336 571q0 -145 96 -246.5t234 -101.5q135 0 231 100.5t96 243.5q0 141 -96 242.5t-233 101.5q-133 0 -230.5 -100.5t-97.5 -239.5z" />
<glyph unicode="&#xf6;" d="M61 567q0 244 176.5 419t424.5 175q256 0 431 -174t175 -428q0 -240 -178.5 -413t-425.5 -173q-250 0 -426.5 174t-176.5 420zM301 1298v273h272v-273h-272zM336 571q0 -145 96 -246.5t234 -101.5q135 0 231 100.5t96 243.5q0 141 -96 242.5t-233 101.5 q-133 0 -230.5 -100.5t-97.5 -239.5zM731 1298v273h273v-273h-273z" />
<glyph unicode="&#xf7;" horiz-adv-x="1228" d="M111 371v282h1007v-282h-1007zM483 133q0 55 39 93t92.5 38t92 -38t38.5 -93q0 -53 -38.5 -92t-92 -39t-92.5 39t-39 92zM483 891q0 53 39 92t92.5 39t92 -39t38.5 -92q0 -55 -38.5 -93t-92 -38t-92.5 38t-39 93z" />
<glyph unicode="&#xf8;" horiz-adv-x="1351" d="M61 567q0 246 178.5 420t428.5 174q115 0 223 -43l106 158l177 -119l-103 -149q199 -182 199 -441q0 -246 -176 -420t-426 -174q-135 0 -258 58l-115 -168l-174 117l117 172q-177 165 -177 415zM336 569q0 -102 55 -190l352 522q-39 10 -77 10q-135 0 -232.5 -100.5 t-97.5 -241.5zM555 244q55 -20 111 -21q137 0 233 100.5t96 241.5q0 121 -73 219z" />
<glyph unicode="&#xf9;" horiz-adv-x="1228" d="M111 526v609h272v-555q0 -211 53 -284t162 -73q141 0 207 105q43 72 43 272v535h272v-1135h-252v109q-76 -76 -149.5 -106t-175.5 -30q-432 0 -432 553zM238 1483l110 188l459 -274l-105 -160z" />
<glyph unicode="&#xfa;" horiz-adv-x="1228" d="M111 526v609h272v-555q0 -211 53 -284t162 -73q141 0 207 105q43 72 43 272v535h272v-1135h-252v109q-76 -76 -149.5 -106t-175.5 -30q-432 0 -432 553zM426 1397l459 274l110 -188l-465 -246z" />
<glyph unicode="&#xfb;" horiz-adv-x="1228" d="M111 526v609h272v-555q0 -211 53 -284t162 -73q141 0 207 105q43 72 43 272v535h272v-1135h-252v109q-76 -76 -149.5 -106t-175.5 -30q-432 0 -432 553zM209 1292l301 283h219l297 -283h-297l-108 131l-111 -131h-301z" />
<glyph unicode="&#xfc;" horiz-adv-x="1228" d="M111 526v609h272v-555q0 -211 53 -284t162 -73q141 0 207 105q43 72 43 272v535h272v-1135h-252v109q-76 -76 -149.5 -106t-175.5 -30q-432 0 -432 553zM256 1298v273h272v-273h-272zM686 1298v273h272v-273h-272z" />
<glyph unicode="&#xfd;" horiz-adv-x="1187" d="M12 1135h312l251 -736l275 736h313l-655 -1514h-293l213 485zM397 1397l459 274l111 -188l-465 -246z" />
<glyph unicode="&#xfe;" horiz-adv-x="1351" d="M111 -379v1892h272v-499q135 147 352 147q246 0 404.5 -168t158.5 -426q0 -260 -158.5 -427t-404.5 -167q-217 0 -352 148v-500h-272zM367 571q0 -150 94 -249t237 -99q137 0 231.5 99.5t94.5 245t-94 244.5t-232 99q-141 0 -236 -97.5t-95 -242.5z" />
<glyph unicode="&#xff;" horiz-adv-x="1187" d="M12 1135h312l251 -736l275 736h313l-655 -1514h-293l213 485zM227 1298v273h273v-273h-273zM657 1298v273h273v-273h-273z" />
<glyph unicode="&#x100;" horiz-adv-x="1515" d="M14 0l631 1513h221l635 -1513h-309l-162 391h-538l-168 -391h-310zM477 1690v204h567v-204h-567zM594 659h324l-162 459z" />
<glyph unicode="&#x101;" horiz-adv-x="1351" d="M61 563q0 260 163 429t415 169q236 0 371 -178v152h250v-1135h-250v147q-82 -92 -170 -133t-207 -41q-248 0 -410 167t-162 423zM336 557q0 -150 93 -242t243 -92q152 0 240.5 95.5t88.5 240.5q0 156 -94 254t-239.5 98t-238.5 -99t-93 -255zM397 1331v205h568v-205h-568 z" />
<glyph unicode="&#x102;" horiz-adv-x="1515" d="M14 0l631 1513h221l635 -1513h-309l-162 391h-538l-168 -391h-310zM418 1935h200q37 -88 140 -88q111 0 127 88h209q-4 -127 -97.5 -205.5t-238.5 -78.5q-152 0 -242 74.5t-98 209.5zM594 659h324l-162 459z" />
<glyph unicode="&#x103;" horiz-adv-x="1351" d="M61 563q0 260 163 429t415 169q236 0 371 -178v152h250v-1135h-250v147q-82 -92 -170 -133t-207 -41q-248 0 -410 167t-162 423zM336 557q0 -150 93 -242t243 -92q152 0 240.5 95.5t88.5 240.5q0 156 -94 254t-239.5 98t-238.5 -99t-93 -255zM336 1577h201 q37 -88 139 -88q111 0 127 88h209q-4 -127 -97.5 -206t-238.5 -79q-152 0 -242 75t-98 210z" />
<glyph unicode="&#x104;" horiz-adv-x="1515" d="M14 0l631 1513h221l635 -1513q-94 -31 -145 -85t-51 -101q0 -57 17 -83t60 -26q57 0 119 27v-205q-96 -39 -155 -39q-109 0 -184 66.5t-75 169.5q0 147 164 276h-59l-162 391h-538l-168 -391h-310zM594 659h324l-162 459z" />
<glyph unicode="&#x105;" horiz-adv-x="1351" d="M61 563q0 260 163 429t415 169q236 0 371 -178v152h250v-1135q-94 -31 -145.5 -85t-51.5 -101q0 -57 17.5 -83t60.5 -26q57 0 119 27v-205q-96 -39 -156 -39q-109 0 -183.5 66.5t-74.5 169.5q0 147 164 276v147q-82 -92 -170 -133t-207 -41q-248 0 -410 167t-162 423z M336 557q0 -150 93 -242t243 -92q152 0 240.5 95.5t88.5 240.5q0 156 -94 254t-239.5 98t-238.5 -99t-93 -255z" />
<glyph unicode="&#x106;" horiz-adv-x="1597" d="M61 762q0 322 228.5 550t550.5 228q236 0 427 -122t289 -339h-313q-78 100 -172 145.5t-225 45.5q-215 0 -358.5 -147.5t-143.5 -362.5q0 -213 149.5 -364.5t358.5 -151.5q111 0 197 41t178 137h329q-88 -207 -277 -328t-421 -121q-332 0 -564.5 230.5t-232.5 558.5z M649 1755l459 275l111 -189l-465 -246z" />
<glyph unicode="&#x107;" d="M61 567q0 250 173.5 422t424.5 172q197 0 351.5 -106.5t220.5 -298.5h-307q-82 156 -265 155q-141 0 -232 -96t-91 -245.5t94 -248t236 -98.5q162 0 258 150h307q-72 -190 -218.5 -295t-344.5 -105q-252 0 -429.5 173t-177.5 421zM469 1397l459 274l110 -188l-465 -246z " />
<glyph unicode="&#x108;" horiz-adv-x="1597" d="M61 762q0 322 228.5 550t550.5 228q236 0 427 -122t289 -339h-313q-78 100 -172 145.5t-225 45.5q-215 0 -358.5 -147.5t-143.5 -362.5q0 -213 149.5 -364.5t358.5 -151.5q111 0 197 41t178 137h329q-88 -207 -277 -328t-421 -121q-332 0 -564.5 230.5t-232.5 558.5z M432 1651l301 282h219l297 -282h-297l-108 131l-111 -131h-301z" />
<glyph unicode="&#x109;" d="M61 567q0 250 173.5 422t424.5 172q197 0 351.5 -106.5t220.5 -298.5h-307q-82 156 -265 155q-141 0 -232 -96t-91 -245.5t94 -248t236 -98.5q162 0 258 150h307q-72 -190 -218.5 -295t-344.5 -105q-252 0 -429.5 173t-177.5 421zM252 1292l301 283h219l297 -283h-297 l-108 131l-111 -131h-301z" />
<glyph unicode="&#x10a;" horiz-adv-x="1597" d="M61 762q0 322 228.5 550t550.5 228q236 0 427 -122t289 -339h-313q-78 100 -172 145.5t-225 45.5q-215 0 -358.5 -147.5t-143.5 -362.5q0 -213 149.5 -364.5t358.5 -151.5q111 0 197 41t178 137h329q-88 -207 -277 -328t-421 -121q-332 0 -564.5 230.5t-232.5 558.5z M705 1657v272h272v-272h-272z" />
<glyph unicode="&#x10b;" d="M61 567q0 250 173.5 422t424.5 172q197 0 351.5 -106.5t220.5 -298.5h-307q-82 156 -265 155q-141 0 -232 -96t-91 -245.5t94 -248t236 -98.5q162 0 258 150h307q-72 -190 -218.5 -295t-344.5 -105q-252 0 -429.5 173t-177.5 421zM524 1298v273h273v-273h-273z" />
<glyph unicode="&#x10c;" horiz-adv-x="1597" d="M61 762q0 322 228.5 550t550.5 228q236 0 427 -122t289 -339h-313q-78 100 -172 145.5t-225 45.5q-215 0 -358.5 -147.5t-143.5 -362.5q0 -213 149.5 -364.5t358.5 -151.5q111 0 197 41t178 137h329q-88 -207 -277 -328t-421 -121q-332 0 -564.5 230.5t-232.5 558.5z M432 1933h297l109 -131l110 131h301l-301 -282h-219z" />
<glyph unicode="&#x10d;" d="M61 567q0 250 173.5 422t424.5 172q197 0 351.5 -106.5t220.5 -298.5h-307q-82 156 -265 155q-141 0 -232 -96t-91 -245.5t94 -248t236 -98.5q162 0 258 150h307q-72 -190 -218.5 -295t-344.5 -105q-252 0 -429.5 173t-177.5 421zM252 1575h297l108 -131l111 131h301 l-301 -283h-219z" />
<glyph unicode="&#x10e;" horiz-adv-x="1433" d="M139 0v1513h346q356 0 537 -108q158 -94 244 -265t86 -386q0 -229 -98.5 -406.5t-272.5 -263.5q-168 -84 -489 -84h-353zM309 1933h297l109 -131l110 131h301l-301 -282h-219zM420 268h61q248 0 369 68q100 55 159.5 167.5t59.5 250.5q0 145 -61.5 259.5t-169.5 170.5 q-121 61 -363 61h-55v-977z" />
<glyph unicode="&#x10f;" horiz-adv-x="1351" d="M61 569q0 254 165 430.5t403 176.5q225 0 354 -142v479h272v-1513h-249v147q-154 -174 -375 -174q-242 0 -406 172t-164 424zM336 582q0 -152 97 -255.5t241 -103.5q139 0 234.5 101.5t95.5 248.5q0 150 -96.5 251.5t-239.5 101.5q-139 0 -235.5 -99.5t-96.5 -244.5z M1366 1120l119 393h213l-119 -393h-213z" />
<glyph unicode="&#x110;" horiz-adv-x="1519" d="M29 645v219h196v649h346q356 0 537 -108q158 -94 244 -265t86 -388q0 -229 -98.5 -405.5t-272.5 -262.5q-168 -84 -489 -84h-353v645h-196zM506 268h61q248 0 369 68q102 55 160.5 167.5t58.5 250.5q0 145 -62.5 259.5t-168.5 170.5q-121 61 -363 61h-55v-381h315v-219 h-315v-377z" />
<glyph unicode="&#x111;" horiz-adv-x="1351" d="M61 569q0 256 165 431.5t405 175.5q225 0 352 -144v201h-258v178h258v102h272v-102h97v-178h-97v-1233h-249v147q-82 -92 -171.5 -133t-203.5 -41q-242 0 -406 172t-164 424zM336 582q0 -152 97 -255.5t241 -103.5q139 0 234.5 101.5t95.5 248.5q0 150 -96.5 251.5 t-239.5 101.5q-139 0 -235.5 -99.5t-96.5 -244.5z" />
<glyph unicode="&#x112;" horiz-adv-x="1064" d="M139 0v1513h813v-268h-532v-356h510v-268h-510v-353h532v-268h-813zM268 1690v204h568v-204h-568z" />
<glyph unicode="&#x113;" d="M61 563q0 250 174.5 424t423.5 174q254 0 420 -173t166 -437q0 -55 -10 -105h-879q25 -102 109 -162.5t205 -60.5q84 0 140 25.5t110 87.5h297q-55 -168 -208 -265.5t-333 -97.5q-260 0 -437.5 170t-177.5 420zM348 686h629q-27 109 -108 167t-205 58q-248 0 -316 -225z M381 1331v205h567v-205h-567z" />
<glyph unicode="&#x114;" horiz-adv-x="1064" d="M139 0v1513h813v-268h-532v-356h510v-268h-510v-353h532v-268h-813zM209 1935h201q37 -88 139 -88q111 0 127 88h209q-4 -127 -97.5 -205.5t-238.5 -78.5q-152 0 -242 74.5t-98 209.5z" />
<glyph unicode="&#x115;" d="M61 563q0 250 174.5 424t423.5 174q254 0 420 -173t166 -437q0 -55 -10 -105h-879q25 -102 109 -162.5t205 -60.5q84 0 140 25.5t110 87.5h297q-55 -168 -208 -265.5t-333 -97.5q-260 0 -437.5 170t-177.5 420zM319 1577h201q37 -88 139 -88q111 0 127 88h209 q-4 -127 -97 -206t-239 -79q-152 0 -242 75t-98 210zM348 686h629q-27 109 -108 167t-205 58q-248 0 -316 -225z" />
<glyph unicode="&#x116;" horiz-adv-x="1064" d="M139 0v1513h813v-268h-532v-356h510v-268h-510v-353h532v-268h-813zM412 1657v272h272v-272h-272z" />
<glyph unicode="&#x117;" d="M61 563q0 250 174.5 424t423.5 174q254 0 420 -173t166 -437q0 -55 -10 -105h-879q25 -102 109 -162.5t205 -60.5q84 0 140 25.5t110 87.5h297q-55 -168 -208 -265.5t-333 -97.5q-260 0 -437.5 170t-177.5 420zM348 686h629q-27 109 -108 167t-205 58q-248 0 -316 -225z M524 1298v273h273v-273h-273z" />
<glyph unicode="&#x118;" horiz-adv-x="1064" d="M139 0v1513h813v-268h-532v-356h510v-268h-510v-353h532v-268q-94 -31 -145 -85t-51 -101q0 -57 17.5 -83t60.5 -26q57 0 118 27v-205q-96 -39 -155 -39q-109 0 -183.5 66.5t-74.5 169.5q0 147 163 276h-563z" />
<glyph unicode="&#x119;" d="M61 563q0 250 174.5 424t423.5 174q254 0 420 -173t166 -437q0 -55 -10 -105h-879q25 -102 109 -162.5t205 -60.5q84 0 140 25.5t110 87.5h297q-59 -184 -242 -287q-197 -106 -197 -235q0 -57 17.5 -83t60.5 -26q57 0 119 27v-205q-96 -39 -156 -39q-109 0 -183.5 66.5 t-74.5 169.5q0 127 133 249h-18q-260 0 -437.5 170t-177.5 420zM348 686h629q-27 109 -108 167t-205 58q-248 0 -316 -225z" />
<glyph unicode="&#x11a;" horiz-adv-x="1064" d="M139 0v1513h813v-268h-532v-356h510v-268h-510v-353h532v-268h-813zM139 1933h297l109 -131l110 131h301l-301 -282h-219z" />
<glyph unicode="&#x11b;" d="M61 563q0 250 174.5 424t423.5 174q254 0 420 -173t166 -437q0 -55 -10 -105h-879q25 -102 109 -162.5t205 -60.5q84 0 140 25.5t110 87.5h297q-55 -168 -208 -265.5t-333 -97.5q-260 0 -437.5 170t-177.5 420zM252 1575h297l108 -131l111 131h301l-301 -283h-219z M348 686h629q-27 109 -108 167t-205 58q-248 0 -316 -225z" />
<glyph unicode="&#x11c;" horiz-adv-x="1720" d="M61 760q0 326 232.5 553t564.5 227q248 0 457 -133t282 -338h-329q-143 201 -416 201q-221 0 -364.5 -148.5t-143.5 -365.5t150.5 -364.5t373.5 -147.5q150 0 266.5 69.5t178.5 196.5h-627v262h989v-37q0 -311 -229 -536.5t-561 -225.5q-348 0 -586 227.5t-238 559.5z M451 1651l301 282h219l297 -282h-297l-109 131l-110 -131h-301z" />
<glyph unicode="&#x11d;" horiz-adv-x="1351" d="M61 575q0 252 159 419t401 167q246 0 370 -170v144h260v-920q0 -668 -587 -668q-209 0 -361.5 95.5t-222.5 265.5h309q59 -66 124 -93.5t161 -27.5q303 0 317 363q-80 -94 -167 -135.5t-206 -41.5q-244 0 -400.5 170t-156.5 432zM213 1292l301 283h219l297 -283h-297 l-108 131l-111 -131h-301zM336 563q0 -156 87 -248t232.5 -92t234.5 93.5t89 246.5q0 156 -91 252t-237 96q-143 0 -229 -95t-86 -253z" />
<glyph unicode="&#x11e;" horiz-adv-x="1720" d="M61 760q0 326 232.5 553t564.5 227q248 0 457 -133t282 -338h-329q-143 201 -416 201q-221 0 -364.5 -148.5t-143.5 -365.5t150.5 -364.5t373.5 -147.5q150 0 266.5 69.5t178.5 196.5h-627v262h989v-37q0 -311 -229 -536.5t-561 -225.5q-348 0 -586 227.5t-238 559.5z M520 1935h201q37 -88 139 -88q111 0 127 88h209q-4 -127 -97 -205.5t-239 -78.5q-152 0 -242 74.5t-98 209.5z" />
<glyph unicode="&#x11f;" horiz-adv-x="1351" d="M61 575q0 252 159 419t401 167q246 0 370 -170v144h260v-920q0 -668 -587 -668q-209 0 -361.5 95.5t-222.5 265.5h309q59 -66 124 -93.5t161 -27.5q303 0 317 363q-80 -94 -167 -135.5t-206 -41.5q-244 0 -400.5 170t-156.5 432zM281 1577h200q37 -88 140 -88 q111 0 127 88h208q-4 -127 -97 -206t-238 -79q-152 0 -242 75t-98 210zM336 563q0 -156 87 -248t232.5 -92t234.5 93.5t89 246.5q0 156 -91 252t-237 96q-143 0 -229 -95t-86 -253z" />
<glyph unicode="&#x120;" horiz-adv-x="1720" d="M61 760q0 326 232.5 553t564.5 227q248 0 457 -133t282 -338h-329q-143 201 -416 201q-221 0 -364.5 -148.5t-143.5 -365.5t150.5 -364.5t373.5 -147.5q150 0 266.5 69.5t178.5 196.5h-627v262h989v-37q0 -311 -229 -536.5t-561 -225.5q-348 0 -586 227.5t-238 559.5z M723 1657v272h272v-272h-272z" />
<glyph unicode="&#x121;" horiz-adv-x="1351" d="M61 575q0 252 159 419t401 167q246 0 370 -170v144h260v-920q0 -668 -587 -668q-209 0 -361.5 95.5t-222.5 265.5h309q59 -66 124 -93.5t161 -27.5q303 0 317 363q-80 -94 -167 -135.5t-206 -41.5q-244 0 -400.5 170t-156.5 432zM336 563q0 -156 87 -248t232.5 -92 t234.5 93.5t89 246.5q0 156 -91 252t-237 96q-143 0 -229 -95t-86 -253zM485 1298v273h273v-273h-273z" />
<glyph unicode="&#x122;" horiz-adv-x="1720" d="M61 760q0 326 232.5 553t564.5 227q248 0 457 -133t282 -338h-329q-143 201 -416 201q-221 0 -364.5 -148.5t-143.5 -365.5t150.5 -364.5t373.5 -147.5q150 0 266.5 69.5t178.5 196.5h-627v262h989v-37q0 -311 -229 -536.5t-561 -225.5q-348 0 -586 227.5t-238 559.5z M645 -502l119 393h213l-119 -393h-213z" />
<glyph unicode="&#x123;" horiz-adv-x="1351" d="M61 575q0 252 159 419t401 167q246 0 370 -170v144h260v-920q0 -668 -587 -668q-209 0 -361.5 95.5t-222.5 265.5h309q59 -66 124 -93.5t161 -27.5q303 0 317 363q-80 -94 -167 -135.5t-206 -41.5q-244 0 -400.5 170t-156.5 432zM336 563q0 -156 87 -248t232.5 -92 t234.5 93.5t89 246.5q0 156 -91 252t-237 96q-143 0 -229 -95t-86 -253zM455 1292l118 394h213l-118 -394h-213z" />
<glyph unicode="&#x124;" horiz-adv-x="1392" d="M139 0v1513h281v-610h541v610h280v-1513h-280v635h-541v-635h-281zM283 1651l301 282h219l297 -282h-297l-109 131l-110 -131h-301z" />
<glyph unicode="&#x125;" horiz-adv-x="1228" d="M111 0v1513h272v-456q119 106 289 106q444 0 444 -522v-641h-272v580q0 178 -51.5 254.5t-169.5 76.5q-121 0 -180.5 -76.5t-59.5 -259.5v-575h-272zM207 1651l301 282h219l297 -282h-297l-109 131l-110 -131h-301z" />
<glyph unicode="&#x126;" horiz-adv-x="1392" d="M16 1124v205h123v184h281v-184h541v184h280v-184h135v-205h-135v-1124h-280v635h-541v-635h-281v1124h-123zM420 903h541v221h-541v-221z" />
<glyph unicode="&#x127;" horiz-adv-x="1228" d="M-35 1233v205h144v75h272v-75h154v-205h-152l-2 -176q119 106 289 106q252 0 368 -180q76 -115 76 -342v-641h-272v580q0 178 -51.5 254.5t-169.5 76.5q-139 0 -201 -108q-39 -70 -39 -228v-575h-272v1233h-144z" />
<glyph unicode="&#x128;" horiz-adv-x="573" d="M-59 1817q53 53 100 74.5t111 21.5q25 0 107.5 -25.5t111.5 -25.5q76 0 137 69l110 -166q-92 -113 -192 -112q-27 0 -120 25.5t-111 25.5q-37 0 -60.5 -8t-83.5 -43zM139 0v1513h281v-1513h-281z" />
<glyph unicode="&#x129;" horiz-adv-x="491" d="M-92 1458q53 53 100 74.5t111 21.5q25 0 107.5 -25.5t111.5 -25.5q76 0 137 70l111 -166q-92 -113 -193 -113q-27 0 -120 26t-111 26q-37 0 -60.5 -8.5t-83.5 -43.5zM111 0v1135h272v-1135h-272z" />
<glyph unicode="&#x12a;" horiz-adv-x="573" d="M2 1690v204h567v-204h-567zM139 0v1513h281v-1513h-281z" />
<glyph unicode="&#x12b;" horiz-adv-x="491" d="M-31 1331v205h568v-205h-568zM111 0v1135h272v-1135h-272z" />
<glyph unicode="&#x12c;" horiz-adv-x="573" d="M-57 1935h200q37 -88 140 -88q111 0 127 88h208q-4 -127 -97 -205.5t-238 -78.5q-152 0 -242 74.5t-98 209.5zM139 0v1513h281v-1513h-281z" />
<glyph unicode="&#x12d;" horiz-adv-x="491" d="M-92 1577h201q37 -88 139 -88q111 0 127 88h209q-4 -127 -97.5 -206t-238.5 -79q-152 0 -242 75t-98 210zM111 0v1135h272v-1135h-272z" />
<glyph unicode="&#x12e;" horiz-adv-x="573" d="M6 -276q0 147 164 276h-31v1513h281v-1513q-94 -31 -145.5 -85t-51.5 -101q0 -57 17.5 -83t60.5 -26q57 0 119 27v-205q-96 -39 -156 -39q-109 0 -183.5 67t-74.5 169z" />
<glyph unicode="&#x12f;" horiz-adv-x="491" d="M-31 -276q0 147 164 276h-22v1135h272v-1135q-94 -31 -145.5 -85t-51.5 -101q0 -57 17.5 -83t60.5 -26q57 0 119 27v-205q-96 -39 -156 -39q-109 0 -183.5 67t-74.5 169zM111 1298v273h272v-273h-272z" />
<glyph unicode="&#x130;" horiz-adv-x="573" d="M139 0v1513h281v-1513h-281zM145 1657v272h273v-272h-273z" />
<glyph unicode="&#x131;" horiz-adv-x="491" d="M111 0v1135h272v-1135h-272z" />
<glyph unicode="&#x134;" horiz-adv-x="983" d="M18 358h281q29 -115 133 -114q135 0 135 198v1071h281v-1079q0 -213 -109.5 -337t-300.5 -124q-170 0 -286 99.5t-134 285.5zM301 1651l301 282h219l297 -282h-297l-108 131l-111 -131h-301z" />
<glyph unicode="&#x135;" horiz-adv-x="532" d="M-123 1292l301 283h219l297 -283h-297l-108 131l-111 -131h-301zM35 -115q76 14 94 45t18 152v1053h273v-1059q0 -223 -103.5 -339t-281.5 -116v264z" />
<glyph unicode="&#x136;" horiz-adv-x="1269" d="M139 0v1513h281v-653l469 653h338l-570 -743l570 -770h-338l-469 666v-666h-281zM440 -502l119 393h213l-119 -393h-213z" />
<glyph unicode="&#x137;" horiz-adv-x="1187" d="M111 0v1513h272v-913l362 535h326l-405 -555l471 -580h-367l-387 530v-530h-272zM362 -502l119 393h213l-119 -393h-213z" />
<glyph unicode="&#x139;" horiz-adv-x="901" d="M35 1755l459 275l110 -189l-465 -246zM139 0v1513h281v-1245h463v-268h-744z" />
<glyph unicode="&#x13a;" horiz-adv-x="491" d="M6 1755l459 275l110 -189l-464 -246zM111 0v1513h272v-1513h-272z" />
<glyph unicode="&#x13b;" horiz-adv-x="901" d="M139 0v1513h281v-1245h463v-268h-744zM297 -502l119 393h213l-119 -393h-213z" />
<glyph unicode="&#x13c;" horiz-adv-x="491" d="M33 -502l119 393h213l-119 -393h-213zM111 0v1513h272v-1513h-272z" />
<glyph unicode="&#x13d;" horiz-adv-x="901" d="M139 0v1513h281v-1245h463v-268h-744zM530 1120l119 393h213l-119 -393h-213z" />
<glyph unicode="&#x13e;" horiz-adv-x="491" d="M111 0v1513h272v-1513h-272zM494 1120l118 393h213l-118 -393h-213z" />
<glyph unicode="&#x13f;" horiz-adv-x="901" d="M139 0v1513h281v-1245h463v-268h-744zM594 649v273h272v-273h-272z" />
<glyph unicode="&#x140;" horiz-adv-x="763" d="M111 0v1513h272v-1513h-272zM492 649v273h272v-273h-272z" />
<glyph unicode="&#x141;" horiz-adv-x="983" d="M29 397v254l196 162v700h281v-542l291 225v-252l-291 -227v-455h463v-262h-744v559z" />
<glyph unicode="&#x142;" horiz-adv-x="655" d="M35 522v203l166 129v659h272v-526l166 129v-203l-166 -129v-784h-272v649z" />
<glyph unicode="&#x143;" horiz-adv-x="1515" d="M139 0v1513h320l626 -1101v1101h281v-1513h-313l-633 1100v-1100h-281zM563 1755l459 275l111 -189l-465 -246z" />
<glyph unicode="&#x144;" horiz-adv-x="1228" d="M111 0v1135h251v-109q141 135 320 135q242 0 354 -164q45 -66 63.5 -151.5t18.5 -237.5v-608h-272v555q0 213 -52.5 284.5t-164.5 71.5q-135 0 -201 -104q-45 -72 -45 -272v-535h-272zM424 1397l459 274l110 -188l-465 -246z" />
<glyph unicode="&#x145;" horiz-adv-x="1515" d="M139 0v1513h320l626 -1101v1101h281v-1513h-313l-633 1100v-1100h-281zM539 -502l118 393h213l-118 -393h-213z" />
<glyph unicode="&#x146;" horiz-adv-x="1228" d="M111 0v1135h251v-109q141 135 320 135q242 0 354 -164q45 -66 63.5 -151.5t18.5 -237.5v-608h-272v555q0 213 -52.5 284.5t-164.5 71.5q-135 0 -201 -104q-45 -72 -45 -272v-535h-272zM401 -502l119 393h213l-119 -393h-213z" />
<glyph unicode="&#x147;" horiz-adv-x="1515" d="M139 0v1513h320l626 -1101v1101h281v-1513h-313l-633 1100v-1100h-281zM346 1933h297l109 -131l110 131h301l-301 -282h-219z" />
<glyph unicode="&#x148;" horiz-adv-x="1228" d="M111 0v1135h251v-109q141 135 320 135q242 0 354 -164q45 -66 63.5 -151.5t18.5 -237.5v-608h-272v555q0 213 -52.5 284.5t-164.5 71.5q-135 0 -201 -104q-45 -72 -45 -272v-535h-272zM207 1575h297l108 -131l111 131h301l-301 -283h-219z" />
<glyph unicode="&#x14a;" horiz-adv-x="1515" d="M139 0v1513h320l626 -1101v1101h281v-1564q0 -213 -109.5 -337t-300.5 -124q-170 0 -285.5 99.5t-133.5 285.5h280q29 -115 133 -115q57 0 96 43t39 105v37l-665 1157v-1100h-281z" />
<glyph unicode="&#x14b;" horiz-adv-x="1228" d="M111 0v1135h251v-109q141 135 320 135q242 0 354 -164q45 -66 63.5 -151.5t18.5 -237.5v-532q0 -223 -103.5 -339t-281.5 -116v264q76 14 94.5 45t18.5 152v473q0 213 -52.5 284.5t-164.5 71.5q-135 0 -201 -104q-45 -72 -45 -272v-535h-272z" />
<glyph unicode="&#x14c;" horiz-adv-x="1720" d="M61 756q0 332 230.5 558t568.5 226q324 0 551 -229.5t227 -552.5q0 -332 -225 -558.5t-555 -226.5q-334 0 -565.5 227.5t-231.5 555.5zM344 756q0 -215 148.5 -363.5t363.5 -148.5t357.5 145.5t142.5 364.5q0 217 -144.5 366.5t-355.5 149.5q-219 0 -365.5 -147.5 t-146.5 -366.5zM582 1690v204h567v-204h-567z" />
<glyph unicode="&#x14d;" d="M61 567q0 244 176.5 419t424.5 175q256 0 431 -174t175 -428q0 -240 -178.5 -413t-425.5 -173q-250 0 -426.5 174t-176.5 420zM336 571q0 -145 96 -246.5t234 -101.5q135 0 231 100.5t96 243.5q0 141 -96 242.5t-233 101.5q-133 0 -230.5 -100.5t-97.5 -239.5zM383 1331 v205h567v-205h-567z" />
<glyph unicode="&#x14e;" horiz-adv-x="1720" d="M61 756q0 332 230.5 558t568.5 226q324 0 551 -229.5t227 -552.5q0 -332 -225 -558.5t-555 -226.5q-334 0 -565.5 227.5t-231.5 555.5zM344 756q0 -215 148.5 -363.5t363.5 -148.5t357.5 145.5t142.5 364.5q0 217 -144.5 366.5t-355.5 149.5q-219 0 -365.5 -147.5 t-146.5 -366.5zM522 1935h201q37 -88 139 -88q111 0 127 88h209q-4 -127 -97 -205.5t-239 -78.5q-152 0 -242 74.5t-98 209.5z" />
<glyph unicode="&#x14f;" d="M61 567q0 244 176.5 419t424.5 175q256 0 431 -174t175 -428q0 -240 -178.5 -413t-425.5 -173q-250 0 -426.5 174t-176.5 420zM322 1577h200q37 -88 140 -88q111 0 126 88h209q-4 -127 -97 -206t-238 -79q-152 0 -242 75t-98 210zM336 571q0 -145 96 -246.5t234 -101.5 q135 0 231 100.5t96 243.5q0 141 -96 242.5t-233 101.5q-133 0 -230.5 -100.5t-97.5 -239.5z" />
<glyph unicode="&#x150;" horiz-adv-x="1720" d="M61 756q0 332 230.5 558t568.5 226q324 0 551 -229.5t227 -552.5q0 -332 -225 -558.5t-555 -226.5q-334 0 -565.5 227.5t-231.5 555.5zM344 756q0 -215 148.5 -363.5t363.5 -148.5t357.5 145.5t142.5 364.5q0 217 -144.5 366.5t-355.5 149.5q-219 0 -365.5 -147.5 t-146.5 -366.5zM479 1737l430 293l127 -164l-454 -271zM1018 1737l432 293l125 -164l-453 -271z" />
<glyph unicode="&#x151;" d="M61 567q0 244 176.5 419t424.5 175q256 0 431 -174t175 -428q0 -240 -178.5 -413t-425.5 -173q-250 0 -426.5 174t-176.5 420zM281 1358l430 293l127 -164l-455 -270zM336 571q0 -145 96 -246.5t234 -101.5q135 0 231 100.5t96 243.5q0 141 -96 242.5t-233 101.5 q-133 0 -230.5 -100.5t-97.5 -239.5zM819 1358l432 293l125 -164l-452 -270z" />
<glyph unicode="&#x152;" horiz-adv-x="2170" d="M78 756q0 336 219 560t549 224q309 0 479 -194v167h731v-268h-446v-356h424v-268h-424v-353h446v-268h-731v166q-174 -193 -469 -193q-332 0 -555 224.5t-223 558.5zM360 748q0 -213 141.5 -358.5t350.5 -145.5q211 0 347 144t136 365.5t-138 369t-347 147.5 q-213 0 -351.5 -151.5t-138.5 -370.5z" />
<glyph unicode="&#x153;" horiz-adv-x="2211" d="M61 567q0 248 172.5 421t421.5 173q279 0 457 -227q98 121 204.5 174t244.5 53q256 0 420.5 -166t164.5 -413q0 -66 -10 -136h-879q35 -102 118 -162.5t196 -60.5q70 0 138.5 31t109.5 80h290q-59 -164 -205.5 -262.5t-330.5 -98.5q-299 0 -461 232q-160 -231 -448 -232 q-258 0 -430.5 170t-172.5 424zM336 575q0 -152 96 -252t242 -100q137 0 229 98.5t92 243.5q0 147 -95 246.5t-234 99.5q-137 0 -233.5 -98.5t-96.5 -237.5zM1245 686h619q-66 225 -308 225q-233 0 -311 -225z" />
<glyph unicode="&#x154;" horiz-adv-x="1187" d="M139 0v1513h436q156 0 248 -24.5t166 -87.5q160 -135 160 -373q0 -371 -395 -469l409 -559h-346l-397 580v-580h-281zM403 1755l459 275l111 -189l-465 -246zM420 791h137q162 0 235.5 54t73.5 175q0 113 -67.5 169t-253.5 56h-125v-454z" />
<glyph unicode="&#x155;" horiz-adv-x="655" d="M111 0v1135h249v-111q53 78 105.5 107.5t140.5 29.5h21v-262q-244 -6 -244 -268v-631h-272zM170 1397l459 274l110 -188l-465 -246z" />
<glyph unicode="&#x156;" horiz-adv-x="1187" d="M139 0v1513h436q156 0 248 -24.5t166 -87.5q160 -135 160 -373q0 -371 -395 -469l409 -559h-346l-397 580v-580h-281zM381 -502l119 393h213l-119 -393h-213zM420 791h137q162 0 235.5 54t73.5 175q0 113 -67.5 169t-253.5 56h-125v-454z" />
<glyph unicode="&#x157;" horiz-adv-x="655" d="M33 -502l119 393h213l-119 -393h-213zM111 0v1135h249v-111q53 78 105.5 107.5t140.5 29.5h21v-262q-244 -6 -244 -268v-631h-272z" />
<glyph unicode="&#x158;" horiz-adv-x="1187" d="M139 0v1513h436q156 0 248 -24.5t166 -87.5q160 -135 160 -373q0 -371 -395 -469l409 -559h-346l-397 580v-580h-281zM186 1933h297l109 -131l110 131h302l-302 -282h-219zM420 791h137q162 0 235.5 54t73.5 175q0 113 -67.5 169t-253.5 56h-125v-454z" />
<glyph unicode="&#x159;" horiz-adv-x="655" d="M-47 1575h297l108 -131l111 131h301l-301 -283h-219zM111 0v1135h249v-111q53 78 105.5 107.5t140.5 29.5h21v-262q-244 -6 -244 -268v-631h-272z" />
<glyph unicode="&#x15a;" horiz-adv-x="1064" d="M29 432h293q18 -188 204 -188q90 0 147.5 51t57.5 133q0 100 -69 154q-33 25 -70 41t-193 75q-152 57 -233.5 163t-81.5 249q0 180 129 305t311 125q186 0 312.5 -116.5t136.5 -313.5h-291q-6 78 -47 119t-113 41q-70 0 -112.5 -43t-42.5 -111q0 -84 84 -137 q23 -14 167 -68q221 -82 306.5 -186t85.5 -266q0 -205 -139.5 -345.5t-344.5 -140.5q-203 0 -341 124t-156 335zM334 1755l459 275l110 -189l-465 -246z" />
<glyph unicode="&#x15b;" horiz-adv-x="901" d="M39 360h274q20 -72 56.5 -104.5t95.5 -32.5q53 0 88 32t35 79q0 51 -31 75.5t-162 69.5q-170 57 -242.5 134t-72.5 202q0 145 109.5 245.5t267.5 100.5q150 0 257 -92t115 -248h-266q-18 90 -106 90q-45 0 -75 -27.5t-30 -68.5q0 -45 27 -61.5t166 -61.5 q176 -55 245.5 -130t69.5 -202q0 -162 -117.5 -274.5t-287.5 -112.5q-174 0 -285 97t-131 290zM266 1397l459 274l111 -188l-465 -246z" />
<glyph unicode="&#x15c;" horiz-adv-x="1064" d="M29 432h293q18 -188 204 -188q90 0 147.5 51t57.5 133q0 100 -69 154q-33 25 -70 41t-193 75q-152 57 -233.5 163t-81.5 249q0 180 129 305t311 125q186 0 312.5 -116.5t136.5 -313.5h-291q-6 78 -47 119t-113 41q-70 0 -112.5 -43t-42.5 -111q0 -84 84 -137 q23 -14 167 -68q221 -82 306.5 -186t85.5 -266q0 -205 -139.5 -345.5t-344.5 -140.5q-203 0 -341 124t-156 335zM117 1651l301 282h219l297 -282h-297l-109 131l-110 -131h-301z" />
<glyph unicode="&#x15d;" horiz-adv-x="901" d="M39 360h274q20 -72 56.5 -104.5t95.5 -32.5q53 0 88 32t35 79q0 51 -31 75.5t-162 69.5q-170 57 -242.5 134t-72.5 202q0 145 109.5 245.5t267.5 100.5q150 0 257 -92t115 -248h-266q-18 90 -106 90q-45 0 -75 -27.5t-30 -68.5q0 -45 27 -61.5t166 -61.5 q176 -55 245.5 -130t69.5 -202q0 -162 -117.5 -274.5t-287.5 -112.5q-174 0 -285 97t-131 290zM49 1292l301 283h219l297 -283h-297l-108 131l-111 -131h-301z" />
<glyph unicode="&#x15e;" horiz-adv-x="1064" d="M29 432h293q18 -188 204 -188q90 0 147.5 51t57.5 133q0 100 -69 154q-33 25 -70 41t-193 75q-152 57 -233.5 163t-81.5 249q0 180 129 305t311 125q186 0 312.5 -116.5t136.5 -313.5h-291q-6 78 -47 119t-113 41q-70 0 -112.5 -43t-42.5 -111q0 -84 84 -137 q23 -14 167 -68q221 -82 306.5 -186t85.5 -266q0 -203 -136.5 -342.5t-336.5 -143.5l-45 -92q37 14 59 15q76 0 131 -61.5t55 -145.5q0 -90 -54 -145.5t-142 -55.5q-78 0 -135.5 48t-69.5 124h125q27 -59 78 -59q33 0 56 26.5t23 65.5q0 37 -23.5 63.5t-55.5 26.5 q-39 0 -78 -55l-107 53l82 199q-170 27 -280.5 146.5t-126.5 305.5z" />
<glyph unicode="&#x15f;" horiz-adv-x="901" d="M39 360h274q20 -72 56.5 -104.5t95.5 -32.5q53 0 88 32t35 79q0 51 -31 75.5t-162 69.5q-170 57 -242.5 134t-72.5 202q0 145 109.5 245.5t267.5 100.5q150 0 257 -92t115 -248h-266q-18 90 -106 90q-45 0 -75 -27.5t-30 -68.5q0 -45 27 -61.5t166 -61.5 q176 -55 245.5 -130t69.5 -202q0 -162 -117.5 -274.5t-287.5 -112.5h-31l-45 -92q37 14 59 15q76 0 131.5 -61.5t55.5 -145.5q0 -90 -54.5 -145.5t-142.5 -55.5q-78 0 -135 48t-70 124h125q27 -59 78 -59q33 0 56.5 26.5t23.5 65.5q0 37 -23.5 63.5t-56.5 26.5 q-39 0 -78 -55l-106 53l86 207q-256 65 -289 372z" />
<glyph unicode="&#x160;" horiz-adv-x="1064" d="M29 432h293q18 -188 204 -188q90 0 147.5 51t57.5 133q0 100 -69 154q-33 25 -70 41t-193 75q-152 57 -233.5 163t-81.5 249q0 180 129 305t311 125q186 0 312.5 -116.5t136.5 -313.5h-291q-6 78 -47 119t-113 41q-70 0 -112.5 -43t-42.5 -111q0 -84 84 -137 q23 -14 167 -68q221 -82 306.5 -186t85.5 -266q0 -205 -139.5 -345.5t-344.5 -140.5q-203 0 -341 124t-156 335zM117 1933h297l108 -131l111 131h301l-301 -282h-219z" />
<glyph unicode="&#x161;" horiz-adv-x="901" d="M39 360h274q20 -72 56.5 -104.5t95.5 -32.5q53 0 88 32t35 79q0 51 -31 75.5t-162 69.5q-170 57 -242.5 134t-72.5 202q0 145 109.5 245.5t267.5 100.5q150 0 257 -92t115 -248h-266q-18 90 -106 90q-45 0 -75 -27.5t-30 -68.5q0 -45 27 -61.5t166 -61.5 q176 -55 245.5 -130t69.5 -202q0 -162 -117.5 -274.5t-287.5 -112.5q-174 0 -285 97t-131 290zM49 1575h297l109 -131l110 131h301l-301 -283h-219z" />
<glyph unicode="&#x162;" horiz-adv-x="860" d="M14 1245v268h842v-268h-281v-1245h-126l-60 -119q37 14 60 15q76 0 131 -61.5t55 -145.5q0 -90 -54.5 -145.5t-142.5 -55.5q-78 0 -135 48t-70 124h125q27 -59 78 -59q33 0 56.5 26.5t23.5 65.5q0 37 -23.5 63.5t-56.5 26.5q-39 0 -78 -55l-106 53l90 219h-47v1245h-281z " />
<glyph unicode="&#x163;" horiz-adv-x="614" d="M18 887v248h134v378h272v-378h164v-248h-164v-887h-119l-59 -119q37 14 59 15q76 0 131.5 -61.5t55.5 -145.5q0 -90 -54.5 -145.5t-142.5 -55.5q-78 0 -135.5 48t-69.5 124h125q27 -59 78 -59q33 0 56.5 26.5t23.5 65.5q0 37 -23.5 63.5t-56.5 26.5q-39 0 -78 -55 l-106 53l90 219h-47v887h-134z" />
<glyph unicode="&#x164;" horiz-adv-x="860" d="M14 1245v268h842v-268h-281v-1245h-280v1245h-281zM29 1933h297l108 -131l111 131h301l-301 -282h-219z" />
<glyph unicode="&#x165;" horiz-adv-x="614" d="M18 887v248h134v378h272v-378h164v-248h-164v-887h-272v887h-134zM479 1190l119 393h213l-119 -393h-213z" />
<glyph unicode="&#x168;" d="M139 555v958h281v-958q0 -168 58.5 -239.5t172.5 -71.5q113 0 171.5 70.5t58.5 240.5v958h280v-958q0 -283 -140 -432.5t-372 -149.5q-229 0 -369.5 150.5t-140.5 431.5zM311 1817q53 53 100.5 74.5t110.5 21.5q25 0 108 -25.5t111 -25.5q76 0 138 69l110 -166 q-92 -113 -192 -112q-27 0 -120 25.5t-112 25.5q-37 0 -60.5 -8t-82.5 -43z" />
<glyph unicode="&#x169;" horiz-adv-x="1228" d="M111 526v609h272v-555q0 -211 53 -284t162 -73q141 0 207 105q43 72 43 272v535h272v-1135h-252v109q-76 -76 -149.5 -106t-175.5 -30q-432 0 -432 553zM276 1458q53 53 100.5 74.5t110.5 21.5q25 0 108 -25.5t112 -25.5q76 0 137 70l110 -166q-92 -113 -192 -113 q-27 0 -120 26t-112 26q-37 0 -60.5 -8.5t-82.5 -43.5z" />
<glyph unicode="&#x16a;" d="M139 555v958h281v-958q0 -168 58.5 -239.5t172.5 -71.5q113 0 171.5 70.5t58.5 240.5v958h280v-958q0 -283 -140 -432.5t-372 -149.5q-229 0 -369.5 150.5t-140.5 431.5zM373 1690v204h567v-204h-567z" />
<glyph unicode="&#x16b;" horiz-adv-x="1228" d="M111 526v609h272v-555q0 -211 53 -284t162 -73q141 0 207 105q43 72 43 272v535h272v-1135h-252v109q-76 -76 -149.5 -106t-175.5 -30q-432 0 -432 553zM338 1331v205h567v-205h-567z" />
<glyph unicode="&#x16c;" d="M139 555v958h281v-958q0 -168 58.5 -239.5t172.5 -71.5q113 0 171.5 70.5t58.5 240.5v958h280v-958q0 -283 -140 -432.5t-372 -149.5q-229 0 -369.5 150.5t-140.5 431.5zM313 1935h201q37 -88 139 -88q111 0 127 88h209q-4 -127 -97 -205.5t-239 -78.5q-152 0 -242 74.5 t-98 209.5z" />
<glyph unicode="&#x16d;" horiz-adv-x="1228" d="M111 526v609h272v-555q0 -211 53 -284t162 -73q141 0 207 105q43 72 43 272v535h272v-1135h-252v109q-76 -76 -149.5 -106t-175.5 -30q-432 0 -432 553zM276 1577h201q37 -88 139 -88q111 0 127 88h209q-4 -127 -97 -206t-239 -79q-152 0 -242 75t-98 210z" />
<glyph unicode="&#x16e;" d="M139 555v958h281v-958q0 -168 58.5 -239.5t172.5 -71.5q113 0 171.5 70.5t58.5 240.5v958h280v-958q0 -283 -140 -432.5t-372 -149.5q-229 0 -369.5 150.5t-140.5 431.5zM420 1818.5q0 96.5 67.5 164t165.5 67.5q94 0 162 -67.5t68 -164t-67.5 -164t-164 -67.5t-164 67.5 t-67.5 164zM569 1818.5q0 -32.5 24.5 -57t57.5 -24.5t57.5 24.5t24.5 57t-24.5 57.5t-57.5 25t-57.5 -25t-24.5 -57.5z" />
<glyph unicode="&#x16f;" horiz-adv-x="1228" d="M111 526v609h272v-555q0 -211 53 -284t162 -73q141 0 207 105q43 72 43 272v535h272v-1135h-252v109q-76 -76 -149.5 -106t-175.5 -30q-432 0 -432 553zM385 1454q0 96 67.5 164t165.5 68q94 0 162 -68t68 -164t-67.5 -163.5t-164 -67.5t-164 67.5t-67.5 163.5zM535 1454 q0 -33 23.5 -57.5t58 -24.5t58 24.5t23.5 57.5t-23.5 57.5t-58 24.5t-58 -24.5t-23.5 -57.5z" />
<glyph unicode="&#x170;" d="M139 555v958h281v-958q0 -168 58.5 -239.5t172.5 -71.5q113 0 171.5 70.5t58.5 240.5v958h280v-958q0 -283 -140 -432.5t-372 -149.5q-229 0 -369.5 150.5t-140.5 431.5zM270 1737l430 293l127 -164l-454 -271zM809 1737l432 293l125 -164l-453 -271z" />
<glyph unicode="&#x171;" horiz-adv-x="1228" d="M111 526v609h272v-555q0 -211 53 -284t162 -73q141 0 207 105q43 72 43 272v535h272v-1135h-252v109q-76 -76 -149.5 -106t-175.5 -30q-432 0 -432 553zM236 1358l430 293l127 -164l-455 -270zM774 1358l432 293l125 -164l-452 -270z" />
<glyph unicode="&#x172;" d="M139 555v958h281v-958q0 -168 58.5 -239.5t172.5 -71.5q113 0 171.5 70.5t58.5 240.5v958h280v-958q0 -340 -203 -487q-70 -53 -101.5 -80t-69 -78t-37.5 -96q0 -57 17 -83t60 -26q57 0 119 27v-205q-96 -39 -155 -39q-109 0 -184 66.5t-75 169.5q0 129 132 249h-15 q-229 0 -369.5 150.5t-140.5 431.5z" />
<glyph unicode="&#x173;" horiz-adv-x="1228" d="M111 526v609h272v-555q0 -211 53 -284t162 -73q141 0 207 105q43 72 43 272v535h272v-1135q-94 -31 -145 -85t-51 -101q0 -57 17 -83t60 -26q57 0 119 27v-205q-96 -39 -155 -39q-109 0 -183.5 66.5t-74.5 169.5q0 147 163 276l-2 109q-76 -76 -149.5 -106t-175.5 -30 q-432 0 -432 553z" />
<glyph unicode="&#x174;" horiz-adv-x="1843" d="M14 1513h287l266 -1056l258 1056h205l254 -1056l268 1056h287l-442 -1513h-223l-244 1001l-250 -1001h-221zM520 1651l301 282h219l297 -282h-297l-108 131l-111 -131h-301z" />
<glyph unicode="&#x175;" horiz-adv-x="1638" d="M20 1135h293l203 -693l191 693h217l186 -693l207 693h291l-410 -1135h-170l-215 735l-219 -735h-168zM408 1292l301 283h219l297 -283h-297l-109 131l-110 -131h-301z" />
<glyph unicode="&#x176;" horiz-adv-x="1269" d="M6 1513h303l336 -696l334 696h303l-498 -954v-559h-280v559zM238 1651l301 282h219l297 -282h-297l-109 131l-110 -131h-301z" />
<glyph unicode="&#x177;" horiz-adv-x="1187" d="M12 1135h312l251 -736l275 736h313l-655 -1514h-293l213 485zM180 1292l301 283h219l297 -283h-297l-108 131l-111 -131h-301z" />
<glyph unicode="&#x178;" horiz-adv-x="1269" d="M6 1513h303l336 -696l334 696h303l-498 -954v-559h-280v559zM285 1657v272h272v-272h-272zM715 1657v272h272v-272h-272z" />
<glyph unicode="&#x179;" horiz-adv-x="1024" d="M37 0v238l573 1007h-542v268h876v-251l-569 -994h608v-268h-946zM315 1755l459 275l111 -189l-465 -246z" />
<glyph unicode="&#x17a;" horiz-adv-x="942" d="M41 0v244l500 647h-443v244h768v-244l-499 -647h538v-244h-864zM293 1397l459 274l110 -188l-465 -246z" />
<glyph unicode="&#x17b;" horiz-adv-x="1024" d="M37 0v238l573 1007h-542v268h876v-251l-569 -994h608v-268h-946zM371 1657v272h272v-272h-272z" />
<glyph unicode="&#x17c;" horiz-adv-x="942" d="M41 0v244l500 647h-443v244h768v-244l-499 -647h538v-244h-864zM348 1298v273h273v-273h-273z" />
<glyph unicode="&#x17d;" horiz-adv-x="1024" d="M37 0v238l573 1007h-542v268h876v-251l-569 -994h608v-268h-946zM98 1933h297l109 -131l110 131h301l-301 -282h-219z" />
<glyph unicode="&#x17e;" horiz-adv-x="942" d="M41 0v244l500 647h-443v244h768v-244l-499 -647h538v-244h-864zM76 1575h297l108 -131l111 131h301l-301 -283h-219z" />
<glyph unicode="&#x17f;" horiz-adv-x="573" d="M20 887v227h99q18 188 90 272q104 127 285 127q35 0 67 -4v-258h-26q-80 0 -111 -29.5t-33 -107.5v-1114h-272v887h-99z" />
<glyph unicode="&#x18e;" horiz-adv-x="1064" d="M139 0v268h533v353h-510v268h510v356h-533v268h813v-1513h-813z" />
<glyph unicode="&#x192;" horiz-adv-x="1146" d="M-35 -291l41 238q41 -8 68 -8q113 0 164 60t86 263l122 701h-192l39 235h192l11 53q27 119 47 171.5t65 107.5q127 156 344 156q27 0 60 -7l-41 -239h-19q-92 0 -136 -53.5t-71 -188.5h189l-39 -235h-190l-127 -746q-31 -174 -63 -256t-91 -139q-133 -127 -338 -127 q-58 0 -121 14z" />
<glyph unicode="&#x1a0;" horiz-adv-x="1759" d="M61 756q0 332 230.5 558t568.5 226q166 0 313.5 -66.5t256.5 -183.5q70 86 69 223h195q0 -223 -150 -383q94 -176 94 -372q0 -332 -225 -558.5t-555 -226.5q-334 0 -565.5 227.5t-231.5 555.5zM344 756q0 -215 148.5 -363.5t363.5 -148.5t357.5 145.5t142.5 364.5 q0 217 -144.5 366.5t-355.5 149.5q-219 0 -365.5 -147.5t-146.5 -366.5z" />
<glyph unicode="&#x1a1;" horiz-adv-x="1478" d="M61 567q0 244 176.5 419t424.5 175q152 0 281.5 -66.5t213.5 -183.5q68 88 68 224h194q0 -244 -176 -406q25 -80 25 -170q0 -240 -178.5 -413t-425.5 -173q-250 0 -426.5 174t-176.5 420zM336 571q0 -145 96 -246.5t234 -101.5q135 0 231 100.5t96 243.5q0 141 -96 242.5 t-233 101.5q-133 0 -230.5 -100.5t-97.5 -239.5z" />
<glyph unicode="&#x1af;" horiz-adv-x="1531" d="M139 555v958h281v-958q0 -145 37 -209q63 -102 194 -102q129 0 193 102q37 63 37 209v958h280v-284q127 102 127 284h195q0 -186 -94.5 -315t-227.5 -194v-449q0 -250 -102 -387q-68 -90 -177.5 -142.5t-232.5 -52.5q-133 0 -247.5 60.5t-180.5 165.5q-82 131 -82 356z " />
<glyph unicode="&#x1b0;" horiz-adv-x="1492" d="M111 526v609h272v-555q0 -215 55 -285q53 -72 160 -72q145 0 207 105q43 63 43 272v535h272v-283q125 102 125 283h195q0 -184 -93.5 -314.5t-226.5 -193.5v-627h-252v109q-76 -76 -149.5 -106t-175.5 -30q-229 0 -346 168q-47 72 -66.5 157t-19.5 228z" />
<glyph unicode="&#x1dd;" d="M61 584q0 55 11 104h878q-25 102 -108.5 162.5t-204.5 60.5q-84 0 -140.5 -25.5t-109.5 -86.5h-297q55 168 208 265t333 97q260 0 437 -170t177 -419.5t-174 -424t-424 -174.5q-254 0 -420 173.5t-166 437.5zM330 449q27 -109 107.5 -167.5t205.5 -58.5q248 0 315 226 h-628z" />
<glyph unicode="&#x1e6;" horiz-adv-x="1720" d="M61 760q0 326 232.5 553t564.5 227q248 0 457 -133t282 -338h-329q-143 201 -416 201q-221 0 -364.5 -148.5t-143.5 -365.5t150.5 -364.5t373.5 -147.5q150 0 266.5 69.5t178.5 196.5h-627v262h989v-37q0 -311 -229 -536.5t-561 -225.5q-348 0 -586 227.5t-238 559.5z M451 1933h297l108 -131l111 131h301l-301 -282h-219z" />
<glyph unicode="&#x1e7;" horiz-adv-x="1351" d="M61 575q0 252 159 419t401 167q246 0 370 -170v144h260v-920q0 -668 -587 -668q-209 0 -361.5 95.5t-222.5 265.5h309q59 -66 124 -93.5t161 -27.5q303 0 317 363q-80 -94 -167 -135.5t-206 -41.5q-244 0 -400.5 170t-156.5 432zM213 1575h297l108 -131l111 131h301 l-301 -283h-219zM336 563q0 -156 87 -248t232.5 -92t234.5 93.5t89 246.5q0 156 -91 252t-237 96q-143 0 -229 -95t-86 -253z" />
<glyph unicode="&#x1ea;" horiz-adv-x="1720" d="M61 756q0 332 230.5 558t568.5 226q324 0 551 -229.5t227 -552.5q0 -229 -112.5 -414.5t-304.5 -284.5q-59 -31 -90 -49t-75 -51t-64.5 -68.5t-20.5 -76.5q0 -57 17.5 -83t60.5 -26q57 0 118 27v-205q-96 -39 -155 -39q-109 0 -183.5 66.5t-74.5 169.5q0 131 133 249h-29 q-334 0 -565.5 227.5t-231.5 555.5zM344 756q0 -215 148.5 -363.5t363.5 -148.5t357.5 145.5t142.5 364.5q0 217 -144.5 366.5t-355.5 149.5q-219 0 -365.5 -147.5t-146.5 -366.5z" />
<glyph unicode="&#x1eb;" d="M61 567q0 244 176.5 419t424.5 175q256 0 431 -174t175 -428q0 -152 -78 -285t-209 -213q-96 -57 -151.5 -113.5t-55.5 -133.5q0 -57 17.5 -83t60.5 -26q57 0 119 27v-205q-96 -39 -156 -39q-109 0 -183.5 66.5t-74.5 169.5q0 131 133 249h-26q-250 0 -426.5 174 t-176.5 420zM336 571q0 -145 96 -246.5t234 -101.5q135 0 231 100.5t96 243.5q0 141 -96 242.5t-233 101.5q-133 0 -230.5 -100.5t-97.5 -239.5z" />
<glyph unicode="&#x1f4;" horiz-adv-x="1720" d="M61 760q0 326 232.5 553t564.5 227q248 0 457 -133t282 -338h-329q-143 201 -416 201q-221 0 -364.5 -148.5t-143.5 -365.5t150.5 -364.5t373.5 -147.5q150 0 266.5 69.5t178.5 196.5h-627v262h989v-37q0 -311 -229 -536.5t-561 -225.5q-348 0 -586 227.5t-238 559.5z M668 1755l458 275l111 -189l-465 -246z" />
<glyph unicode="&#x1f5;" horiz-adv-x="1351" d="M61 575q0 252 159 419t401 167q246 0 370 -170v144h260v-920q0 -668 -587 -668q-209 0 -361.5 95.5t-222.5 265.5h309q59 -66 124 -93.5t161 -27.5q303 0 317 363q-80 -94 -167 -135.5t-206 -41.5q-244 0 -400.5 170t-156.5 432zM336 563q0 -156 87 -248t232.5 -92 t234.5 93.5t89 246.5q0 156 -91 252t-237 96q-143 0 -229 -95t-86 -253zM430 1397l459 274l110 -188l-464 -246z" />
<glyph unicode="&#x1fa;" horiz-adv-x="1515" d="M14 0l631 1513h221l635 -1513h-309l-162 391h-538l-168 -391h-310zM524 1818.5q0 96.5 67.5 164t166.5 67.5q94 0 161.5 -67.5t67.5 -164t-67.5 -164t-164 -67.5t-164 67.5t-67.5 164zM565 2251l459 274l111 -188l-465 -246zM594 659h324l-162 459zM674 1818.5 q0 -32.5 23.5 -57t58.5 -24.5t58.5 24.5t23.5 57t-23.5 57.5t-58.5 25t-58.5 -25t-23.5 -57.5z" />
<glyph unicode="&#x1fb;" horiz-adv-x="1351" d="M61 563q0 260 163 429t415 169q236 0 371 -178v152h250v-1135h-250v147q-82 -92 -170 -133t-207 -41q-248 0 -410 167t-162 423zM336 557q0 -150 93 -242t243 -92q152 0 240.5 95.5t88.5 240.5q0 156 -94 254t-239.5 98t-238.5 -99t-93 -255zM444 1439.5q0 96.5 68 164 t166 67.5q94 0 161.5 -67.5t67.5 -164t-67.5 -164t-163.5 -67.5t-164 67.5t-68 164zM485 1872l459 274l111 -188l-465 -246zM594 1440q0 -35 24.5 -58.5t57.5 -23.5t57.5 23.5t24.5 58.5t-24.5 58.5t-57.5 23.5t-57.5 -23.5t-24.5 -58.5z" />
<glyph unicode="&#x1fc;" horiz-adv-x="1843" d="M35 0l997 1513h694v-268h-446v-356h424v-268h-424v-353h446v-268h-727v391h-397l-229 -391h-338zM764 659h235v392zM950 1755l459 275l111 -189l-465 -246z" />
<glyph unicode="&#x1fd;" horiz-adv-x="2211" d="M61 563q0 254 170 426t420 172q209 0 342 -139v113h250v-113q137 139 342 139q238 0 402.5 -166t164.5 -405q0 -61 -18 -141h-877q35 -106 120 -166t200 -60q145 0 240 113h297q-51 -156 -201 -259.5t-324 -103.5q-217 0 -346 150v-123h-250v123q-70 -82 -145.5 -116 t-192.5 -34q-256 0 -425 168t-169 422zM336 573q0 -152 93 -251t237 -99q137 0 228 98.5t91 243.5q0 147 -93 246.5t-230.5 99.5t-231.5 -98.5t-94 -239.5zM915 1397l459 274l111 -188l-465 -246zM1243 690h623q-59 221 -307 221q-238 0 -316 -221z" />
<glyph unicode="&#x1fe;" horiz-adv-x="1720" d="M61 758q0 326 230.5 554t560.5 228q174 0 338 -72l127 189l194 -135l-125 -185q258 -236 259 -579q0 -332 -226.5 -558.5t-556.5 -226.5q-182 0 -344 74l-123 -180l-196 133l120 178q-123 111 -190.5 263.5t-67.5 316.5zM344 758q0 -195 133 -346l557 827q-88 31 -182 31 q-213 0 -360.5 -148.5t-147.5 -363.5zM670 1755l458 275l111 -189l-465 -246zM674 276q92 -33 186 -32q215 0 358.5 145.5t143.5 364.5q0 199 -131 352z" />
<glyph unicode="&#x1ff;" horiz-adv-x="1351" d="M61 567q0 246 178.5 420t428.5 174q115 0 223 -43l106 158l177 -119l-103 -149q199 -182 199 -441q0 -246 -176 -420t-426 -174q-135 0 -258 58l-115 -168l-174 117l117 172q-177 165 -177 415zM336 569q0 -102 55 -190l352 522q-39 10 -77 10q-135 0 -232.5 -100.5 t-97.5 -241.5zM485 1397l459 274l111 -188l-465 -246zM555 244q55 -20 111 -21q137 0 233 100.5t96 241.5q0 121 -73 219z" />
<glyph unicode="&#x200;" horiz-adv-x="1515" d="M14 0l631 1513h221l635 -1513h-309l-162 391h-538l-168 -391h-310zM41 1866l125 164l432 -293l-104 -142zM580 1866l127 164l430 -293l-103 -142zM594 659h324l-162 459z" />
<glyph unicode="&#x201;" horiz-adv-x="1351" d="M-39 1487l125 164l432 -293l-104 -141zM61 563q0 260 163 429t415 169q236 0 371 -178v152h250v-1135h-250v147q-82 -92 -170 -133t-207 -41q-248 0 -410 167t-162 423zM336 557q0 -150 93 -242t243 -92q152 0 240.5 95.5t88.5 240.5q0 156 -94 254t-239.5 98t-238.5 -99 t-93 -255zM500 1487l127 164l430 -293l-103 -141z" />
<glyph unicode="&#x204;" horiz-adv-x="1064" d="M-168 1866l125 164l432 -293l-104 -142zM139 0v1513h813v-268h-532v-356h510v-268h-510v-353h532v-268h-813zM371 1866l127 164l430 -293l-103 -142z" />
<glyph unicode="&#x205;" d="M-55 1487l125 164l432 -293l-105 -141zM61 563q0 250 174.5 424t423.5 174q254 0 420 -173t166 -437q0 -55 -10 -105h-879q25 -102 109 -162.5t205 -60.5q84 0 140 25.5t110 87.5h297q-55 -168 -208 -265.5t-333 -97.5q-260 0 -437.5 170t-177.5 420zM348 686h629 q-27 109 -108 167t-205 58q-248 0 -316 -225zM483 1487l127 164l430 -293l-102 -141z" />
<glyph unicode="&#x208;" horiz-adv-x="573" d="M-434 1866l125 164l432 -293l-105 -142zM104 1866l127 164l431 -293l-103 -142zM139 0v1513h281v-1513h-281z" />
<glyph unicode="&#x209;" horiz-adv-x="491" d="M-467 1487l125 164l432 -293l-104 -141zM72 1487l127 164l430 -293l-103 -141zM111 0v1135h272v-1135h-272z" />
<glyph unicode="&#x20c;" horiz-adv-x="1720" d="M61 756q0 332 230.5 558t568.5 226q324 0 551 -229.5t227 -552.5q0 -332 -225 -558.5t-555 -226.5q-334 0 -565.5 227.5t-231.5 555.5zM145 1866l125 164l432 -293l-104 -142zM344 756q0 -215 148.5 -363.5t363.5 -148.5t357.5 145.5t142.5 364.5q0 217 -144.5 366.5 t-355.5 149.5q-219 0 -365.5 -147.5t-146.5 -366.5zM684 1866l127 164l430 -293l-102 -142z" />
<glyph unicode="&#x20d;" d="M-53 1487l125 164l432 -293l-105 -141zM61 567q0 244 176.5 419t424.5 175q256 0 431 -174t175 -428q0 -240 -178.5 -413t-425.5 -173q-250 0 -426.5 174t-176.5 420zM336 571q0 -145 96 -246.5t234 -101.5q135 0 231 100.5t96 243.5q0 141 -96 242.5t-233 101.5 q-133 0 -230.5 -100.5t-97.5 -239.5zM485 1487l127 164l430 -293l-102 -141z" />
<glyph unicode="&#x210;" horiz-adv-x="1187" d="M-121 1866l125 164l432 -293l-104 -142zM139 0v1513h436q156 0 248 -24.5t166 -87.5q160 -135 160 -373q0 -371 -395 -469l409 -559h-346l-397 580v-580h-281zM418 1866l127 164l430 -293l-103 -142zM420 791h137q162 0 235.5 54t73.5 175q0 113 -67.5 169t-253.5 56 h-125v-454z" />
<glyph unicode="&#x211;" horiz-adv-x="655" d="M-354 1487l125 164l432 -293l-105 -141zM111 0v1135h249v-111q53 78 105.5 107.5t140.5 29.5h21v-262q-244 -6 -244 -268v-631h-272zM184 1487l127 164l430 -293l-102 -141z" />
<glyph unicode="&#x214;" d="M-63 1866l124 164l433 -293l-105 -142zM139 555v958h281v-958q0 -168 58.5 -239.5t172.5 -71.5q113 0 171.5 70.5t58.5 240.5v958h280v-958q0 -283 -140 -432.5t-372 -149.5q-229 0 -369.5 150.5t-140.5 431.5zM475 1866l127 164l430 -293l-102 -142z" />
<glyph unicode="&#x215;" horiz-adv-x="1228" d="M-98 1487l125 164l432 -293l-105 -141zM111 526v609h272v-555q0 -211 53 -284t162 -73q141 0 207 105q43 72 43 272v535h272v-1135h-252v109q-76 -76 -149.5 -106t-175.5 -30q-432 0 -432 553zM440 1487l127 164l430 -293l-102 -141z" />
<glyph unicode="&#x218;" horiz-adv-x="1064" d="M29 432h293q18 -188 204 -188q90 0 147.5 51t57.5 133q0 100 -69 154q-33 25 -70 41t-193 75q-152 57 -233.5 163t-81.5 249q0 180 129 305t311 125q186 0 312.5 -116.5t136.5 -313.5h-291q-6 78 -47 119t-113 41q-70 0 -112.5 -43t-42.5 -111q0 -84 84 -137 q23 -14 167 -68q221 -82 306.5 -186t85.5 -266q0 -205 -139.5 -345.5t-344.5 -140.5q-203 0 -341 124t-156 335zM311 -502l119 393h213l-119 -393h-213z" />
<glyph unicode="&#x219;" horiz-adv-x="901" d="M39 360h274q20 -72 56.5 -104.5t95.5 -32.5q53 0 88 32t35 79q0 51 -31 75.5t-162 69.5q-170 57 -242.5 134t-72.5 202q0 145 109.5 245.5t267.5 100.5q150 0 257 -92t115 -248h-266q-18 90 -106 90q-45 0 -75 -27.5t-30 -68.5q0 -45 27 -61.5t166 -61.5 q176 -55 245.5 -130t69.5 -202q0 -162 -117.5 -274.5t-287.5 -112.5q-174 0 -285 97t-131 290zM244 -502l118 393h213l-118 -393h-213z" />
<glyph unicode="&#x21a;" horiz-adv-x="860" d="M14 1245v268h842v-268h-281v-1245h-280v1245h-281zM221 -502l119 393h213l-119 -393h-213z" />
<glyph unicode="&#x21b;" horiz-adv-x="614" d="M18 887v248h134v378h272v-378h164v-248h-164v-887h-272v887h-134zM74 -502l119 393h213l-119 -393h-213z" />
<glyph unicode="&#x258;" d="M61 551q0 264 166 437t420 173q250 0 424 -174t174 -424t-177 -420t-437 -170q-180 0 -333 97.5t-208 265.5h297q53 -61 109.5 -87t140.5 -26q121 0 205 60.5t108 162.5h-878q-11 50 -11 105zM330 686h628q-68 225 -315 225q-125 0 -205.5 -58t-107.5 -167z" />
<glyph unicode="&#x259;" d="M61 584q0 55 11 104h878q-25 102 -108.5 162.5t-204.5 60.5q-84 0 -140.5 -25.5t-109.5 -86.5h-297q55 168 208 265t333 97q260 0 437 -170t177 -419.5t-174 -424t-424 -174.5q-254 0 -420 173.5t-166 437.5zM330 449q27 -109 107.5 -167.5t205.5 -58.5q248 0 315 226 h-628z" />
<glyph unicode="&#x2be;" horiz-adv-x="1034" d="M113 930q-2 8 2 15t12 7h205q10 0 14 -8q53 -96 162 -96q88 0 144.5 60.5t56.5 152.5t-58.5 152.5t-146.5 60.5q-100 0 -158 -92q-2 -6 -14 -6h-205q-8 0 -12 6t-2 14q49 133 151.5 206t239.5 73q174 0 297 -121t123 -293q0 -174 -120 -293t-296 -119q-137 0 -243.5 74 t-151.5 207z" />
<glyph unicode="&#x2bf;" horiz-adv-x="1034" d="M111 1063q0 174 119.5 293t295.5 119q137 0 244 -74t152 -207q2 -8 -2.5 -15.5t-12.5 -7.5h-205q-10 0 -14 9q-53 96 -162 96q-88 0 -144 -60.5t-56 -152.5t58 -152.5t146 -60.5q100 0 158 92q4 6 14 6h205q8 0 12.5 -6t2.5 -14q-49 -133 -151.5 -206t-240.5 -73 q-174 0 -296.5 121t-122.5 293z" />
<glyph unicode="&#x2c6;" horiz-adv-x="1105" d="M145 1292l301 283h220l297 -283h-297l-109 131l-111 -131h-301z" />
<glyph unicode="&#x2c7;" horiz-adv-x="1105" d="M145 1575h297l109 -131l111 131h301l-301 -283h-220z" />
<glyph unicode="&#x2d8;" horiz-adv-x="983" d="M152 1577h200q37 -88 140 -88q111 0 126 88h209q-4 -127 -97 -206t-238 -79q-152 0 -242 75t-98 210z" />
<glyph unicode="&#x2d9;" horiz-adv-x="573" d="M152 1298v273h272v-273h-272z" />
<glyph unicode="&#x2da;" horiz-adv-x="737" d="M137 1454q0 96 67.5 164t166.5 68q94 0 161.5 -68t67.5 -164t-67.5 -163.5t-164 -67.5t-164 67.5t-67.5 163.5zM287 1454q0 -33 24.5 -57.5t57 -24.5t57.5 24.5t25 57.5t-25 57.5t-57.5 24.5t-57 -24.5t-24.5 -57.5z" />
<glyph unicode="&#x2db;" horiz-adv-x="696" d="M152 -276q0 147 163 276h250q-94 -31 -145 -85t-51 -101q0 -57 17 -83t60 -26q57 0 119 27v-205q-96 -39 -155 -39q-109 0 -183.5 67t-74.5 169z" />
<glyph unicode="&#x2dc;" horiz-adv-x="983" d="M152 1458q53 53 100 74.5t110 21.5q25 0 108 -25.5t112 -25.5q76 0 137 70l110 -166q-92 -113 -192 -113q-27 0 -120 26t-111 26q-37 0 -60.5 -8.5t-83.5 -43.5z" />
<glyph unicode="&#x2dd;" horiz-adv-x="1433" d="M336 1358l430 293l127 -164l-455 -270zM874 1358l433 293l125 -164l-453 -270z" />
<glyph unicode="&#x300;" horiz-adv-x="0" d="M-1055 1483l111 188l459 -274l-105 -160z" />
<glyph unicode="&#x301;" horiz-adv-x="0" d="M-866 1397l458 274l111 -188l-465 -246z" />
<glyph unicode="&#x302;" horiz-adv-x="0" d="M-1083 1292l301 283h219l297 -283h-297l-109 131l-110 -131h-301z" />
<glyph unicode="&#x303;" horiz-adv-x="0" d="M-1016 1458q53 53 100.5 74.5t110.5 21.5q25 0 108 -25.5t111 -25.5q76 0 137 70l111 -166q-92 -113 -192 -113q-27 0 -120 26t-112 26q-37 0 -60.5 -8.5t-82.5 -43.5z" />
<glyph unicode="&#x304;" horiz-adv-x="0" d="M-954 1331v205h567v-205h-567z" />
<glyph unicode="&#x306;" horiz-adv-x="0" d="M-1016 1577h201q37 -88 139 -88q111 0 127 88h209q-4 -127 -97 -206t-239 -79q-152 0 -242 75t-98 210z" />
<glyph unicode="&#x307;" horiz-adv-x="0" d="M-811 1298v273h272v-273h-272z" />
<glyph unicode="&#x308;" horiz-adv-x="0" d="M-1036 1298v273h272v-273h-272zM-606 1298v273h272v-273h-272z" />
<glyph unicode="&#x309;" horiz-adv-x="0" d="M-938 1544q6 125 80 184.5t184.5 59.5t186 -64.5t75.5 -159t-118 -173.5q-43 -29 -54.5 -54.5t-11.5 -91.5h-174v31q0 82 28.5 128t112.5 103q43 31 43 62q0 29 -25.5 47t-66.5 18q-74 0 -88 -90h-172z" />
<glyph unicode="&#x30a;" horiz-adv-x="0" d="M-907 1454q0 96 67.5 164t165.5 68q94 0 162 -68t68 -164t-68 -163.5t-164 -67.5t-163.5 67.5t-67.5 163.5zM-758 1454q0 -33 24.5 -57.5t57.5 -24.5t57.5 24.5t24.5 57.5t-24.5 57.5t-57.5 24.5t-57.5 -24.5t-24.5 -57.5z" />
<glyph unicode="&#x30b;" horiz-adv-x="0" d="M-1057 1358l430 293l127 -164l-454 -270zM-518 1358l432 293l125 -164l-453 -270z" />
<glyph unicode="&#x30c;" horiz-adv-x="0" d="M-1083 1575h297l108 -131l111 131h301l-301 -283h-219z" />
<glyph unicode="&#x30f;" horiz-adv-x="0" d="M-1391 1487l125 164l432 -293l-104 -141zM-852 1487l127 164l430 -293l-102 -141z" />
<glyph unicode="&#x311;" horiz-adv-x="0" d="M-1016 1292q4 127 97.5 206t238.5 79q152 0 242 -75t98 -210h-201q-37 88 -139 88q-111 0 -127 -88h-209z" />
<glyph unicode="&#x323;" horiz-adv-x="0" d="M-811 -162h272v-272h-272v272z" />
<glyph unicode="&#x326;" horiz-adv-x="0" d="M-889 -502l119 393h213l-119 -393h-213z" />
<glyph unicode="&#x32e;" horiz-adv-x="0" d="M-1014 -156h201q37 -88 139 -88q111 0 127 88h209q-4 -127 -97 -205.5t-239 -78.5q-152 0 -242 74.5t-98 209.5z" />
<glyph unicode="&#x32f;" horiz-adv-x="0" d="M-1014 -440q4 127 97.5 205.5t238.5 78.5q152 0 242 -74.5t98 -209.5h-201q-37 88 -139 88q-111 0 -127 -88h-209z" />
<glyph unicode="&#x330;" horiz-adv-x="0" d="M-1016 -274q53 53 100.5 74.5t110.5 21.5q25 0 108 -25.5t111 -25.5q76 0 137 69l111 -166q-92 -113 -192 -112q-27 0 -120 25.5t-112 25.5q-37 0 -60.5 -8t-82.5 -43z" />
<glyph unicode="&#x331;" horiz-adv-x="0" d="M-954 -197h567v-204h-567v204z" />
<glyph unicode="&#x332;" horiz-adv-x="0" d="M-954 -197h567v-204h-567v204z" />
<glyph unicode="&#x391;" horiz-adv-x="1515" d="M14 0l631 1513h221l635 -1513h-309l-162 391h-538l-168 -391h-310zM594 659h324l-162 459z" />
<glyph unicode="&#x392;" horiz-adv-x="1187" d="M139 0v1513h312q170 0 256 -15t153 -58q172 -111 172 -330q0 -106 -39 -172t-129 -113q141 -59 199.5 -147t58.5 -227q0 -213 -146.5 -332t-432.5 -119h-404zM420 268h139q147 0 214 45t67 144q0 199 -287 198h-133v-387zM420 930h90q127 0 184.5 37t57.5 118 q0 154 -217 154h-115v-309z" />
<glyph unicode="&#x393;" horiz-adv-x="983" d="M139 0v1513h770v-268h-489v-1245h-281z" />
<glyph unicode="&#x394;" horiz-adv-x="1325" d="M-6 -2l555 1401h233l553 -1401h-1341zM397 274h535l-266 740z" />
<glyph unicode="&#x395;" horiz-adv-x="1064" d="M139 0v1513h813v-268h-532v-356h510v-268h-510v-353h532v-268h-813z" />
<glyph unicode="&#x396;" horiz-adv-x="1024" d="M37 0v238l573 1007h-542v268h876v-251l-569 -994h608v-268h-946z" />
<glyph unicode="&#x397;" horiz-adv-x="1392" d="M139 0v1513h281v-610h541v610h280v-1513h-280v635h-541v-635h-281z" />
<glyph unicode="&#x398;" horiz-adv-x="1720" d="M61 756q0 332 230.5 558t568.5 226q324 0 551 -229.5t227 -552.5q0 -332 -225 -558.5t-555 -226.5q-334 0 -565.5 227.5t-231.5 555.5zM344 756q0 -215 148.5 -363.5t363.5 -148.5t357.5 145.5t142.5 364.5q0 217 -144.5 366.5t-355.5 149.5q-219 0 -365.5 -147.5 t-146.5 -366.5zM563 616v283h574v-283h-574z" />
<glyph unicode="&#x399;" horiz-adv-x="573" d="M139 0v1513h281v-1513h-281z" />
<glyph unicode="&#x39a;" horiz-adv-x="1269" d="M139 0v1513h281v-653l469 653h338l-570 -743l570 -770h-338l-469 666v-666h-281z" />
<glyph unicode="&#x39b;" horiz-adv-x="1515" d="M14 0l631 1513h221l635 -1513h-309l-436 1118l-432 -1118h-310z" />
<glyph unicode="&#x39c;" horiz-adv-x="1843" d="M139 0v1513h385l408 -1146l403 1146h385v-1513h-280v1135l-396 -1135h-229l-395 1135v-1135h-281z" />
<glyph unicode="&#x39d;" horiz-adv-x="1515" d="M139 0v1513h320l626 -1101v1101h281v-1513h-313l-633 1100v-1100h-281z" />
<glyph unicode="&#x39e;" horiz-adv-x="1392" d="M141 0v283h1110v-283h-1110zM141 1231v282h1110v-282h-1110zM424 616v283h545v-283h-545z" />
<glyph unicode="&#x39f;" horiz-adv-x="1720" d="M61 756q0 332 230.5 558t568.5 226q324 0 551 -229.5t227 -552.5q0 -332 -225 -558.5t-555 -226.5q-334 0 -565.5 227.5t-231.5 555.5zM344 756q0 -215 148.5 -363.5t363.5 -148.5t357.5 145.5t142.5 364.5q0 217 -144.5 366.5t-355.5 149.5q-219 0 -365.5 -147.5 t-146.5 -366.5z" />
<glyph unicode="&#x3a0;" horiz-adv-x="1288" d="M115 0v1401h1048v-1401h-289v1124h-471v-1124h-288z" />
<glyph unicode="&#x3a1;" horiz-adv-x="1146" d="M139 0v1513h375q270 0 387 -69q205 -125 205 -397q0 -131 -53.5 -239t-145.5 -165q-63 -39 -149 -53.5t-248 -14.5h-90v-575h-281zM420 844h82q182 0 251.5 48t69.5 150q0 117 -70.5 160t-238.5 43h-94v-401z" />
<glyph unicode="&#x3a3;" horiz-adv-x="946" d="M18 236l283 483l-258 432v250h840v-277h-492l242 -405l-264 -445h555v-274h-904z" />
<glyph unicode="&#x3a4;" horiz-adv-x="860" d="M14 1245v268h842v-268h-281v-1245h-280v1245h-281z" />
<glyph unicode="&#x3a5;" horiz-adv-x="1269" d="M6 1513h303l336 -696l334 696h303l-498 -954v-559h-280v559z" />
<glyph unicode="&#x3a6;" horiz-adv-x="1429" d="M111 758q0 188 133 326.5t331 177.5v251h281v-251q199 -39 331 -177.5t132 -326.5q0 -190 -132 -328.5t-333 -177.5l2 -252h-281v252q-201 39 -332.5 177.5t-131.5 328.5zM393 758q0 -76 50.5 -132.5t131.5 -82.5l-2 428q-82 -27 -131 -82t-49 -131zM856 543 q82 27 131 83t49 132t-49 131t-131 82v-428z" />
<glyph unicode="&#x3a7;" horiz-adv-x="1392" d="M10 0l520 754l-520 759h334l352 -528l363 528h325l-524 -759l524 -754h-325l-363 522l-352 -522h-334z" />
<glyph unicode="&#x3a8;" horiz-adv-x="1744" d="M111 1135v378h282v-378q0 -145 96.5 -257t243.5 -151v786h281v-786q147 39 242.5 150.5t95.5 257.5v378h282v-378q0 -262 -178 -457t-442 -240v-438h-281v438q-266 45 -444 240t-178 457z" />
<glyph unicode="&#x3a9;" horiz-adv-x="1579" d="M41 692q0 307 219 520q219 215 526 215q309 0 527 -213q219 -213 219 -520q0 -125 -40 -238.5t-114 -174.5h121v-283h-510l-31 276q125 55 206 166t81 254q0 190 -135 324q-131 127 -307 133l2 -4q-207 0 -341 -131t-134 -324q0 -143 79.5 -252.5t206.5 -165.5l-30 -276 h-518v283h127q-74 61 -114 172.5t-40 238.5z" />
<glyph unicode="&#x3b1;" horiz-adv-x="1511" d="M111 510q0 264 152.5 457.5t385.5 193.5q211 0 367 -178q20 82 57 152h328q-49 -84 -77 -188.5t-50.5 -238t-40.5 -202.5q16 -76 30.5 -121t45 -87t69.5 -42v-283q-190 0 -315 203q-172 -203 -414 -203q-223 0 -380.5 157t-157.5 380zM393 510q0 -106 75 -180t181 -74 q100 0 175 72.5t116 187.5q-86 362 -291 363q-119 0 -187.5 -109.5t-68.5 -259.5z" />
<glyph unicode="&#x3b2;" horiz-adv-x="1105" d="M51 -387q59 205 60 387v1135q0 178 135 299.5t323 121.5q170 0 285 -136t115 -322q0 -182 -127 -314q154 -137 153 -346q0 -197 -122.5 -339t-303.5 -142q-82 0 -176 27q-4 -209 -47 -371h-295zM393 256q66 -16 176 -16q66 0 105 59t39 139q0 88 -50.5 151.5t-127.5 63.5 v250q68 0 109.5 58.5t41.5 136.5q0 72 -30.5 124t-86.5 52q-72 0 -124 -39t-52 -100v-879z" />
<glyph unicode="&#x3b3;" horiz-adv-x="1087" d="M-53 1135h389q223 -236 326 -584l233 584h303l-463 -1162v-329h-282v356q0 600 -506 1135z" />
<glyph unicode="&#x3b4;" horiz-adv-x="1427" d="M111 567q0 184 106.5 336t276.5 217l-254 176l71 232h787v-254h-375q184 -109 348 -227q115 -82 180.5 -210t65.5 -278q0 -240 -178 -413t-426 -173q-250 0 -426 174t-176 420zM385 571q0 -145 96.5 -246.5t233.5 -101.5q135 0 231 100.5t96 243.5q0 141 -96 242.5 t-233 101.5q-133 0 -230.5 -100.5t-97.5 -239.5z" />
<glyph unicode="&#x3b5;" horiz-adv-x="1169" d="M111 360q0 156 141 254q-115 86 -115 226q0 166 127 279.5t301 113.5q193 0 475 -90l-77 -242q-156 49 -398 49q-57 0 -101 -30.5t-44 -79.5q0 -29 24.5 -49.5t54 -29.5t88 -14.5t94.5 -6.5t103 -1v-254q-72 0 -110.5 -1t-101 -7t-95.5 -18.5t-58.5 -37t-25.5 -61.5 q0 -78 66.5 -126t158.5 -48q240 0 371 43l78 -241q-260 -84 -449 -84q-207 0 -357 130.5t-150 325.5z" />
<glyph unicode="&#x3b6;" horiz-adv-x="960" d="M111 567q0 385 258 693h-258v253h739v-253h-105q-168 -115 -260 -299.5t-92 -393.5q0 -68 2 -103.5t11.5 -84.5t34 -72.5t63.5 -23.5h49q129 0 206 -116t77 -273v-250h-254v250q0 106 -29 106h-49q-182 0 -287.5 169t-105.5 398z" />
<glyph unicode="&#x3b7;" horiz-adv-x="1126" d="M111 0v1135h282v-27q96 53 201 53q174 0 298 -117.5t124 -287.5v-1112h-283v1112q0 53 -41 88t-98 35q-74 0 -126 -54.5t-75 -140.5v-684h-282z" />
<glyph unicode="&#x3b8;" horiz-adv-x="1134" d="M111 700q0 164 22.5 304.5t72.5 265.5t142 197.5t219 72.5t219.5 -72.5t142.5 -197.5t72.5 -265.5t22.5 -304.5q0 -188 -47 -349t-153.5 -269.5t-256 -108.5t-256 108.5t-153.5 269.5t-47 349zM395 559q6 -141 43 -222t129 -81t129 81t43 222h-344zM395 842h344 q-2 123 -14 205.5t-51 146t-106.5 63.5t-106.5 -63.5t-51.5 -146t-14.5 -205.5z" />
<glyph unicode="&#x3b9;" horiz-adv-x="849" d="M221 455v680h283v-680q0 -90 69.5 -151.5t165.5 -61.5v-283q-213 0 -365.5 144.5t-152.5 351.5z" />
<glyph unicode="&#x3ba;" horiz-adv-x="1187" d="M111 0v1135h272v-535l362 535h326l-405 -555l471 -580h-367l-387 530v-530h-272z" />
<glyph unicode="&#x3bb;" horiz-adv-x="1331" d="M111 0l469 1028l-21 62q-25 74 -84 122t-133 48v282q166 0 298 -101.5t187 -260.5l394 -1180h-299l-211 635l-289 -635h-311z" />
<glyph unicode="&#x3bc;" horiz-adv-x="1179" d="M111 -356v1491h282v-676q49 -188 196.5 -188.5t196.5 188.5v676h283v-1135h-283v45q-86 -57 -196.5 -57t-196.5 57v-401h-282z" />
<glyph unicode="&#x3bd;" horiz-adv-x="1048" d="M51 1135h291l178 -789q135 182 135 410q0 184 -28 379h286q25 -186 25 -379q0 -240 -110.5 -452t-309.5 -349l-217 84z" />
<glyph unicode="&#x3be;" horiz-adv-x="962" d="M111 496q0 209 178 346q-152 109 -152 276q0 78 31 142h-57v253h741v-253h-326q-106 -43 -106 -142q0 -139 291 -139v-256q-129 0 -223.5 -61.5t-94.5 -165.5q0 -213 111 -213h51q129 0 206 -116t77 -273v-250h-254v250q0 106 -29 106h-51q-172 0 -282.5 147.5 t-110.5 348.5z" />
<glyph unicode="&#x3bf;" d="M61 567q0 244 176.5 419t424.5 175q256 0 431 -174t175 -428q0 -240 -178.5 -413t-425.5 -173q-250 0 -426.5 174t-176.5 420zM336 571q0 -145 96 -246.5t234 -101.5q135 0 231 100.5t96 243.5q0 141 -96 242.5t-233 101.5q-133 0 -230.5 -100.5t-97.5 -239.5z" />
<glyph unicode="&#x3c0;" horiz-adv-x="1449" d="M111 756q0 156 102 267.5t252 111.5h874v-283h-159v-852h-283v852h-123v-852h-282v852h-27q-33 0 -52.5 -28.5t-19.5 -67.5h-282z" />
<glyph unicode="&#x3c1;" horiz-adv-x="1236" d="M111 -356v923q0 242 145 418t362.5 176t362.5 -176t145 -417.5t-145 -418t-363 -176.5q-123 0 -225 60v-389h-282zM393 336q80 -80 225 -80q102 0 164 93t62 218t-61.5 218.5t-164 93.5t-164 -93.5t-61.5 -218.5v-231z" />
<glyph unicode="&#x3c2;" horiz-adv-x="1107" d="M111 582q0 233 134 406t339 173q160 0 274.5 -112.5t124.5 -276.5l-254 -14q-2 53 -45 87t-100 34q-92 0 -141.5 -88.5t-49.5 -208.5q0 -123 49.5 -211t141.5 -88h67q143 0 237.5 -116t94.5 -273v-250h-254v250q0 43 -21.5 74.5t-56.5 31.5h-67q-207 0 -340 173t-133 409 z" />
<glyph unicode="&#x3c3;" horiz-adv-x="1499" d="M111 567q0 244 176 419t424 175q80 0 149 -18q203 31 469 147l115 -258q-119 -53 -266 -84q139 -166 139 -389q0 -240 -178 -413t-426 -173q-250 0 -426 174t-176 420zM385 571q0 -145 96.5 -246.5t233.5 -101.5q135 0 231 100.5t96 243.5q0 141 -96 242.5t-233 101.5 q-133 0 -230.5 -100.5t-97.5 -239.5z" />
<glyph unicode="&#x3c4;" horiz-adv-x="798" d="M111 852v283h577v-283h-147v-397q0 -82 41 -141.5t106 -59.5v-283q-182 0 -306 143.5t-124 340.5v397h-147z" />
<glyph unicode="&#x3c5;" horiz-adv-x="1126" d="M111 379v756h282v-756q0 -53 43 -88t101 -35q88 0 142 77t54 179q0 297 -55 623h287q51 -301 51 -623q0 -219 -138.5 -379t-340.5 -160q-174 0 -300 118t-126 288z" />
<glyph unicode="&#x3c6;" horiz-adv-x="1632" d="M109 567q0 184 98 341t264 239l123 -254q-92 -47 -147.5 -134t-55.5 -192q0 -111 79 -187.5t204 -107.5l2 240q0 168 44 312.5t142.5 240.5t235.5 96q195 0 309.5 -177t114.5 -417q0 -223 -162 -381.5t-404 -199.5l2 -342h-282v342q-242 39 -404.5 198.5t-162.5 382.5z M958 272q123 31 202 109t79 186q0 66 -4 113t-18.5 96t-44 76t-74.5 27q-49 0 -80 -30t-42 -94.5t-14.5 -110.5t-3.5 -132v-240z" />
<glyph unicode="&#x3c7;" horiz-adv-x="1304" d="M111 -356l383 745l-383 746h319l223 -437l224 437h319l-383 -746l383 -745h-319l-224 436l-223 -436h-319z" />
<glyph unicode="&#x3c8;" horiz-adv-x="1632" d="M113 379v756h282v-756q0 -45 42 -71.5t98.5 -36t140.5 -13.5v1255h282v-1255q84 4 140.5 13.5t98.5 36t42 71.5v756h283v-756q0 -180 -159 -278.5t-405 -120.5v-336h-282v336q-246 23 -404.5 121t-158.5 278z" />
<glyph unicode="&#x3c9;" horiz-adv-x="1579" d="M111 625q0 248 98 510h274q-90 -229 -90 -510q0 -68 1 -105t7.5 -95t18.5 -89t37.5 -55.5t62.5 -24.5q78 0 106.5 69.5t35.5 192.5q-12 94 -13 238h283q0 -90 1 -139.5t7 -129t18.5 -121.5t38 -76t62.5 -34t62.5 24.5t37.5 55.5t18.5 89t7.5 95t1 105q0 281 -90 510h274 q98 -262 98 -510q0 -170 -42 -313.5t-137 -241t-230 -97.5q-172 0 -271 146q-104 -145 -268 -146q-135 0 -230 97.5t-137 241t-42 313.5z" />
<glyph unicode="&#x3d1;" horiz-adv-x="1267" d="M111 455v301h282v-301q0 -80 48 -139.5t122 -59.5t122 59.5t48 139.5v342q-129 12 -227 38.5t-182 72.5t-128 123t-44 179q0 176 119.5 303t291.5 127q193 0 323 -149.5t130 -355.5v-99l141 -2v-254l-141 2v-327q0 -199 -131 -340.5t-321.5 -141.5t-321.5 141.5 t-131 340.5zM406 1210q0 -133 327 -161v86q0 102 -45 176.5t-125 74.5q-68 0 -112.5 -52t-44.5 -124z" />
<glyph unicode="&#x3d5;" d="M61 567q0 207 131.5 369t331.5 209v368h283v-368q203 -47 332 -209t129 -377q0 -203 -131 -361.5t-330 -207.5v-346h-283v346q-201 47 -332 207.5t-131 369.5zM336 571q0 -104 51 -188t137 -127v623q-84 -43 -136 -125.5t-52 -182.5zM807 256q84 43 135 126t51 185 q0 100 -51 183.5t-135 126.5v-621z" />
<glyph unicode="&#x3d6;" horiz-adv-x="1579" d="M111 625q0 248 98 510h274q-90 -229 -90 -510q0 -68 1 -105t7.5 -95t18.5 -89t37.5 -55.5t62.5 -24.5q78 0 106.5 69.5t35.5 192.5q-12 94 -13 238h283q0 -90 1 -139.5t7 -129t18.5 -121.5t38 -76t62.5 -34t62.5 24.5t37.5 55.5t18.5 89t7.5 95t1 105q0 115 -6 205 t-26.5 190t-54.5 165.5t-95.5 108.5t-145.5 43q-252 0 -457 -123l-129 220q272 160 586 159q152 0 272.5 -83t192.5 -222t108.5 -309t36.5 -354q0 -170 -42 -313.5t-137 -241t-230 -97.5q-172 0 -271 146q-104 -145 -268 -146q-135 0 -230 97.5t-137 241t-42 313.5z" />
<glyph unicode="&#x3f5;" d="M61 567q0 250 173.5 422t424.5 172q170 0 310.5 -81t220.5 -228h-342q-76 59 -189 59q-109 0 -189.5 -59t-113.5 -158h518v-254h-516q35 -98 117 -157.5t190.5 -59.5t182.5 60l344 2q-80 -150 -216 -231t-308 -81q-252 0 -429.5 173t-177.5 421z" />
<glyph unicode="&#x400;" horiz-adv-x="1062" d="M139 0v1513h957v-268h-676v-356h653v-268h-653v-353h676v-268h-957zM156 1917l116 180l455 -272l-109 -162z" />
<glyph unicode="&#x401;" horiz-adv-x="1062" d="M139 0v1513h957v-268h-676v-356h653v-268h-653v-353h676v-268h-957zM266 1663v272h273v-272h-273zM696 1663v272h273v-272h-273z" />
<glyph unicode="&#x402;" horiz-adv-x="860" d="M14 1245v268h842v-268h-281v-252h447q131 0 253 -117.5t122 -250.5v-615q0 -133 -122 -250.5t-253 -117.5h-180v266h71q82 0 142.5 66.5t60.5 148.5v389q0 82 -60.5 148.5t-142.5 66.5h-338v-727h-280v1245h-281z" />
<glyph unicode="&#x403;" horiz-adv-x="956" d="M139 0v1513h916v-268h-635v-1245h-281zM492 1823l458 274l111 -188l-465 -246z" />
<glyph unicode="&#x404;" horiz-adv-x="1601" d="M61 762q0 322 228.5 550t550.5 228q287 0 501 -174q76 -63 123 -125.5t92 -161.5h-313q-78 100 -172 145.5t-225 45.5q-172 6 -305 -98.5t-179 -268.5h754v-268h-758q41 -170 180.5 -280.5t313.5 -110.5q111 0 197 41t178 137h329q-88 -207 -277 -328t-421 -121 q-332 0 -564.5 230.5t-232.5 558.5z" />
<glyph unicode="&#x405;" horiz-adv-x="1064" d="M29 432h293q18 -188 204 -188q90 0 147.5 51t57.5 133q0 96 -69 154q-51 39 -263 116q-152 57 -233.5 163t-81.5 249q0 180 129 305t311 125q225 0 355 -162q86 -104 94 -268h-291q-6 78 -47 119t-113 41q-70 0 -112.5 -43t-42.5 -111q0 -84 84 -137q23 -14 167 -68 q182 -68 256 -137q135 -125 136 -315q0 -205 -139.5 -345.5t-344.5 -140.5q-121 0 -226 48.5t-173 136.5q-84 108 -98 274z" />
<glyph unicode="&#x406;" horiz-adv-x="573" d="M139 0v1513h281v-1513h-281z" />
<glyph unicode="&#x407;" horiz-adv-x="573" d="M-72 1663v272h273v-272h-273zM139 0v1513h281v-1513h-281zM358 1663v272h273v-272h-273z" />
<glyph unicode="&#x408;" horiz-adv-x="983" d="M18 358h281q29 -115 133 -114q135 0 135 198v1071h281v-1079q0 -213 -109.5 -337t-300.5 -124q-199 0 -323 138q-45 51 -66 104t-31 143z" />
<glyph unicode="&#x409;" horiz-adv-x="2095" d="M14 0l586 1513h229l222 -575h383q162 0 247.5 -14.5t149.5 -53.5q92 -57 145.5 -164.5t53.5 -238.5q0 -272 -205 -397q-117 -70 -387 -70h-314l-407 1151l-441 -1151h-262zM1153 670l156 -402h129q115 0 178 15q61 16 96 66t35 122q0 113 -92 164q-66 35 -230 35h-272z " />
<glyph unicode="&#x40a;" horiz-adv-x="1992" d="M139 0v1513h281v-610h541v610h280v-575h90q162 0 248 -14.5t150 -53.5q92 -57 145 -164.5t53 -238.5q0 -272 -205 -397q-117 -70 -387 -70h-374v635h-541v-635h-281zM1241 268h94q115 0 178 15q61 16 96.5 66t35.5 122q0 113 -93 164q-66 35 -229 35h-82v-402z" />
<glyph unicode="&#x40b;" horiz-adv-x="860" d="M14 1245v268h842v-268h-281v-252h447q131 0 253 -117.5t122 -250.5v-625h-281v512q0 82 -60.5 148.5t-142.5 66.5h-338v-727h-280v1245h-281z" />
<glyph unicode="&#x40c;" horiz-adv-x="1241" d="M139 0v1513h281v-653l469 653h321l-553 -743l553 -770h-321l-469 666v-666h-281zM569 1823l459 274l111 -188l-465 -246z" />
<glyph unicode="&#x40d;" horiz-adv-x="1505" d="M139 0v1513h281v-1101l627 1101h319v-1513h-281v1100l-632 -1100h-314zM291 1917l117 180l454 -272l-108 -162z" />
<glyph unicode="&#x40e;" horiz-adv-x="1304" d="M25 1513h292l336 -696l334 696h303l-725 -1513h-315l262 559zM319 1948h201q37 -88 139 -88q111 0 127 88h209q-4 -127 -97 -206t-239 -79q-152 0 -242 75t-98 210z" />
<glyph unicode="&#x40f;" horiz-adv-x="1380" d="M139 0v1513h281v-1245h541v1245h280v-1513h-397v-324h-295v324h-410z" />
<glyph unicode="&#x410;" horiz-adv-x="1515" d="M14 0l631 1513h221l635 -1513h-309l-162 391h-538l-168 -391h-310zM594 659h324l-162 459z" />
<glyph unicode="&#x411;" horiz-adv-x="1171" d="M139 0v1513h1041v-266h-760v-192h225q311 0 488.5 -126t177.5 -392q0 -537 -666 -537h-506zM420 268h237q150 0 262.5 71t112.5 198q0 117 -112.5 183t-255.5 66h-244v-518z" />
<glyph unicode="&#x412;" horiz-adv-x="1187" d="M139 0v1513h477q475 0 476 -403q0 -111 -37 -191.5t-107 -111.5q92 -29 163 -113t71 -243q0 -221 -145.5 -336t-420.5 -115h-477zM420 268h196q147 0 215 44t68 143q0 201 -283 200h-196v-387zM420 930h196q86 0 140.5 39t54.5 116.5t-54.5 115.5t-140.5 38h-196v-309z " />
<glyph unicode="&#x413;" horiz-adv-x="956" d="M139 0v1513h916v-268h-635v-1245h-281z" />
<glyph unicode="&#x414;" horiz-adv-x="1685" d="M76 -266v534h168l481 1245h229l488 -1243h168v-536h-250v266h-1034v-266h-250zM530 268h625l-313 883z" />
<glyph unicode="&#x415;" horiz-adv-x="1062" d="M139 0v1513h957v-268h-676v-356h653v-268h-653v-353h676v-268h-957z" />
<glyph unicode="&#x416;" horiz-adv-x="1923" d="M31 0l553 770l-553 743h321l469 -653v653h281v-653l469 653h321l-553 -743l553 -770h-321l-469 666v-666h-281v666l-469 -666h-321z" />
<glyph unicode="&#x417;" horiz-adv-x="1392" d="M59 438h279q35 -74 133 -135t270 -61q174 0 269.5 57t95.5 162q0 193 -283 192l-231 2v289h229q197 0 197 162q0 66 -83 110t-187 44q-158 0 -234 -42t-115 -114h-280l12 45q14 45 56 109.5t105.5 128t179.5 108.5t261 45q240 0 402.5 -117.5t162.5 -292.5 q0 -119 -40.5 -212t-127.5 -123q115 -18 187 -116.5t72 -238.5q0 -197 -155 -332t-482 -135q-154 0 -281 48.5t-199.5 116t-124 136t-69.5 115.5z" />
<glyph unicode="&#x418;" horiz-adv-x="1505" d="M139 0v1513h281v-1101l627 1101h319v-1513h-281v1100l-632 -1100h-314z" />
<glyph unicode="&#x419;" horiz-adv-x="1505" d="M139 0v1513h281v-1101l627 1101h319v-1513h-281v1100l-632 -1100h-314zM385 1831h201q37 -88 139 -88q111 0 127 88h209q-4 -127 -97.5 -206t-238.5 -79q-152 0 -242 75t-98 210z" />
<glyph unicode="&#x41a;" horiz-adv-x="1241" d="M139 0v1513h281v-653l469 653h321l-553 -743l553 -770h-321l-469 666v-666h-281z" />
<glyph unicode="&#x41b;" horiz-adv-x="1433" d="M14 0l586 1513h229l590 -1513h-254l-448 1151l-426 -1151h-277z" />
<glyph unicode="&#x41c;" horiz-adv-x="1859" d="M139 0v1513h385l408 -1146l403 1146h385v-1513h-280v1135l-396 -1135h-229l-395 1135v-1135h-281z" />
<glyph unicode="&#x41d;" horiz-adv-x="1400" d="M139 0v1513h281v-610h541v610h280v-1513h-280v635h-541v-635h-281z" />
<glyph unicode="&#x41e;" horiz-adv-x="1740" d="M82 756q0 332 230.5 558t568.5 226q324 0 551 -229.5t227 -552.5q0 -332 -225.5 -558.5t-554.5 -226.5q-334 0 -565.5 227.5t-231.5 555.5zM365 756q0 -215 148.5 -363.5t363.5 -148.5t357 145.5t142 364.5q0 217 -144.5 366.5t-354.5 149.5q-219 0 -365.5 -147.5 t-146.5 -366.5z" />
<glyph unicode="&#x41f;" horiz-adv-x="1380" d="M139 0v1513h1102v-1513h-280v1245h-541v-1245h-281z" />
<glyph unicode="&#x420;" horiz-adv-x="1171" d="M139 0v1513h375q270 0 387 -69q205 -125 205 -397q0 -131 -53.5 -239t-145.5 -165q-63 -39 -149 -53.5t-248 -14.5h-90v-575h-281zM420 844h82q164 0 229 35q92 51 92 163q0 72 -34.5 122t-96.5 67q-63 14 -178 14h-94v-401z" />
<glyph unicode="&#x421;" horiz-adv-x="1638" d="M82 762q0 322 228.5 550t549.5 228q287 0 502 -174q76 -63 123 -125.5t92 -161.5h-313q-78 100 -172.5 145.5t-225.5 45.5q-236 0 -377 -166q-125 -145 -124 -344q0 -213 149.5 -364.5t357.5 -151.5q111 0 197 41t178 137h330q-88 -207 -277.5 -328t-420.5 -121 q-332 0 -564.5 230.5t-232.5 558.5z" />
<glyph unicode="&#x422;" horiz-adv-x="860" d="M14 1245v268h1047v-268h-383v-1245h-281v1245h-383z" />
<glyph unicode="&#x423;" horiz-adv-x="1304" d="M25 1513h292l336 -696l334 696h303l-725 -1513h-315l262 559z" />
<glyph unicode="&#x424;" horiz-adv-x="1935" d="M82 784q0 330 229.5 557.5t565.5 227.5v57h280v-57q322 0 550 -229.5t228 -553.5q0 -330 -225 -558t-553 -228v-86h-280v86q-332 0 -563.5 229t-231.5 555zM365 784q0 -213 149.5 -362.5t362.5 -149.5v1026q-219 0 -365.5 -147.5t-146.5 -366.5zM1157 272 q213 0 354.5 146.5t141.5 363.5t-143.5 366.5t-352.5 149.5v-1026z" />
<glyph unicode="&#x425;" horiz-adv-x="1402" d="M14 0l521 754l-521 759h334l352 -528l363 528h326l-525 -759l525 -754h-326l-363 522l-352 -522h-334z" />
<glyph unicode="&#x426;" horiz-adv-x="1486" d="M139 0v1513h281v-1245h541v1245h280v-1245h291v-555h-250v287h-1143z" />
<glyph unicode="&#x427;" horiz-adv-x="1339" d="M102 889v624h281v-512q0 -82 60.5 -147.5t142.5 -65.5h338v725h280v-1513h-280v520h-447q-131 0 -253 118t-122 251z" />
<glyph unicode="&#x428;" horiz-adv-x="1869" d="M139 0v1513h281v-1245h385v1245h280v-1245h385v1245h261v-1513h-1592z" />
<glyph unicode="&#x429;" horiz-adv-x="1976" d="M139 0v1513h281v-1245h385v1245h280v-1245h385v1245h261v-1245h290v-555h-249l-3 287h-1630z" />
<glyph unicode="&#x42a;" horiz-adv-x="1439" d="M14 1245v268h631v-417h225q307 0 486.5 -135.5t179.5 -403.5q0 -272 -168 -414.5t-498 -142.5h-503v1245h-353zM645 268h238q147 0 260.5 79t113.5 210q0 119 -113.5 194.5t-254.5 75.5h-244v-559z" />
<glyph unicode="&#x42b;" horiz-adv-x="1642" d="M139 0v1513h281v-417h225q307 0 486.5 -135.5t179.5 -403.5q0 -272 -168 -414.5t-498 -142.5h-506zM420 268h237q147 0 261 79t114 210q0 119 -113.5 194.5t-254.5 75.5h-244v-559zM1448 0v1513h281v-1513h-281z" />
<glyph unicode="&#x42c;" horiz-adv-x="1171" d="M139 0v1513h281v-417h225q307 0 486.5 -135.5t179.5 -403.5q0 -272 -168 -414.5t-498 -142.5h-506zM420 268h237q147 0 261 79t114 210q0 119 -113.5 194.5t-254.5 75.5h-244v-559z" />
<glyph unicode="&#x42d;" horiz-adv-x="1597" d="M41 422h330q92 -96 178 -137t196 -41q174 0 313.5 110.5t180.5 280.5h-758v268h754q-45 162 -178 264.5t-305 102.5q-131 0 -225.5 -45t-172.5 -146h-313q45 98 92 161t123 126q215 174 502 174q322 0 550 -228.5t228 -549.5q0 -328 -232.5 -558.5t-564.5 -230.5 q-231 0 -420.5 121t-277.5 328z" />
<glyph unicode="&#x42e;" horiz-adv-x="2238" d="M139 0v1513h281v-610h129q53 276 272 456.5t514 180.5q324 0 551.5 -229.5t227.5 -552.5q0 -332 -225.5 -558.5t-555.5 -226.5q-301 0 -522 188.5t-264 473.5h-127v-635h-281zM819 756q0 -215 148.5 -363.5t363.5 -148.5t357.5 145.5t142.5 364.5q0 217 -144.5 366.5 t-355.5 149.5q-219 0 -365.5 -147.5t-146.5 -366.5z" />
<glyph unicode="&#x42f;" horiz-adv-x="1224" d="M51 0l402 457q-178 51 -276.5 177t-98.5 322q0 272 168 414.5t497 142.5h506v-1513h-280v418h-226l-346 -418h-346zM356 956q0 -119 114 -194.5t255 -75.5h244v559h-238q-147 0 -261 -79t-114 -210z" />
<glyph unicode="&#x430;" horiz-adv-x="1370" d="M61 563q0 260 163 429t415 169q236 0 371 -178v152h250v-1135h-250v147q-82 -92 -170 -133t-207 -41q-248 0 -410 167t-162 423zM336 557q0 -150 93 -242t243 -92q162 0 248 103q82 96 81 233q0 156 -94 254t-239.5 98t-238.5 -99t-93 -255z" />
<glyph unicode="&#x431;" horiz-adv-x="1282" d="M66 567q0 96 2 165t14 169t33.5 171t63.5 153t99.5 136t146.5 98t202 61q106 0 232 21.5t198 43.5l73 21v-222l-73 -22q-72 -23 -198 -46.5t-232 -23.5q-80 -31 -138.5 -69.5t-81 -65.5t-41 -55.5t-22.5 -32.5q16 8 49 22.5t68 26.5t86 20.5t106 8.5q252 0 417 -167 t165 -423q0 -252 -162 -418t-407 -166q-260 0 -430 169t-170 425zM324 571q0 -145 96 -246.5t233 -101.5q135 0 231.5 100.5t96.5 243.5q0 141 -96.5 242.5t-233.5 101.5q-133 0 -230 -100.5t-97 -239.5z" />
<glyph unicode="&#x432;" horiz-adv-x="985" d="M111 0v1120h460q168 0 252 -85t84 -193q0 -104 -69 -183q223 -88 223 -315q0 -164 -119 -254t-309 -90h-522zM381 725h166q49 0 80.5 23.5t31.5 66.5t-31.5 66.5t-80.5 23.5h-166v-180zM383 215h256q78 0 126 37t48 104q0 66 -47 104t-121 38h-262v-283z" />
<glyph unicode="&#x433;" horiz-adv-x="851" d="M111 0v1135h737v-248h-465v-887h-272z" />
<glyph unicode="&#x434;" horiz-adv-x="1249" d="M12 -246v514h156l348 867h217l348 -867h156v-514h-272v246h-678v-246h-275zM455 268h338l-168 484z" />
<glyph unicode="&#x435;" horiz-adv-x="1294" d="M61 563q0 250 174.5 424t423.5 174q254 0 420 -173t166 -437q0 -55 -10 -105h-879q25 -102 109 -162.5t205 -60.5q84 0 140 25.5t110 87.5h297q-25 -76 -91 -158q-178 -205 -450 -205q-260 0 -437.5 170t-177.5 420zM348 686h629q-27 109 -108 167t-205 58 q-248 0 -316 -225z" />
<glyph unicode="&#x436;" horiz-adv-x="1789" d="M6 0l471 580l-405 555h325l363 -535v535h272v-535l363 535h325l-405 -555l471 -580h-367l-387 530v-530h-272v530l-387 -530h-367z" />
<glyph unicode="&#x437;" horiz-adv-x="962" d="M49 326h254l12 -19q12 -20 36 -43.5t75 -43t117 -19.5q215 0 215 125q0 137 -201 137h-180v258h178q150 0 150 117q0 98 -162 98q-66 0 -113 -24.5t-61 -49.5l-15 -24h-223l8 30q6 33 34 78t70 91t121.5 78t180.5 32q195 0 286 -84t91 -209q0 -86 -41 -153.5t-99 -92.5 q98 -14 164 -99t66 -200q0 -150 -119 -243t-348 -93q-117 0 -210 36t-144.5 88.5t-85 104.5t-44.5 89z" />
<glyph unicode="&#x438;" horiz-adv-x="1230" d="M111 0v1135h272v-744l434 744h303v-1135h-272v743l-434 -743h-303z" />
<glyph unicode="&#x439;" horiz-adv-x="1230" d="M111 0v1135h272v-744l434 744h303v-1135h-272v743l-434 -743h-303zM268 1489h201q37 -88 139 -88q111 0 127 88h209q-4 -127 -97 -206t-239 -79q-152 0 -242 75t-98 210z" />
<glyph unicode="&#x43a;" horiz-adv-x="1140" d="M111 0v1135h272v-535l362 535h316l-395 -555l442 -580h-338l-387 530v-530h-272z" />
<glyph unicode="&#x43b;" horiz-adv-x="1140" d="M6 0l457 1135h217l457 -1135h-275l-291 752l-282 -752h-283z" />
<glyph unicode="&#x43c;" horiz-adv-x="1587" d="M111 0v1135h401l283 -752l280 752h402v-1135h-273v752l-301 -752h-217l-303 752v-752h-272z" />
<glyph unicode="&#x43d;" horiz-adv-x="1230" d="M111 0v1135h272v-430h465v430h272v-1135h-272v436h-465v-436h-272z" />
<glyph unicode="&#x43e;" horiz-adv-x="1316" d="M61 567q0 244 176.5 419t424.5 175q256 0 431 -174t175 -428q0 -240 -178.5 -413t-425.5 -173q-250 0 -426.5 174t-176.5 420zM336 571q0 -145 96 -246.5t234 -101.5q135 0 231 100.5t96 243.5q0 141 -96 242.5t-233 101.5q-133 0 -230.5 -100.5t-97.5 -239.5z" />
<glyph unicode="&#x43f;" horiz-adv-x="1230" d="M111 0v1135h1009v-1135h-272v866h-465v-866h-272z" />
<glyph unicode="&#x440;" horiz-adv-x="1347" d="M111 -379v1514h249v-134q137 160 373 160q246 0 405.5 -167t159.5 -423q0 -258 -160.5 -428t-406.5 -170q-201 0 -348 133v-485h-272zM367 569q0 -150 95 -248t240 -98q135 0 228.5 99.5t93.5 242.5q0 147 -93 246.5t-233 99.5q-141 0 -236 -98.5t-95 -243.5z" />
<glyph unicode="&#x441;" horiz-adv-x="1275" d="M61 567q0 250 173.5 422t424.5 172q246 0 418 -160q102 -94 154 -245h-307q-82 156 -265 155q-141 0 -232 -96t-91 -245.5t94 -248t236 -98.5q162 0 258 150h307q-72 -190 -218.5 -295t-344.5 -105q-252 0 -429.5 173t-177.5 421z" />
<glyph unicode="&#x442;" horiz-adv-x="755" d="M14 887v248h940v-248h-338v-887h-272v887h-330z" />
<glyph unicode="&#x443;" horiz-adv-x="1159" d="M25 1135h278l264 -736l310 736h278l-655 -1514h-293l213 485z" />
<glyph unicode="&#x444;" horiz-adv-x="1581" d="M61 600q0 244 176.5 419t421.5 175v104h273v-104q254 0 427 -175t173 -427q0 -238 -177 -412t-423 -174v-227h-273v227q-248 0 -423 175t-175 419zM334 604q0 -145 94 -246.5t231 -101.5v688q-133 0 -229 -101.5t-96 -238.5zM932 256q133 0 229 101.5t96 242.5t-95 242.5 t-230 101.5v-688z" />
<glyph unicode="&#x445;" horiz-adv-x="1138" d="M4 0l402 586l-349 549h308l196 -326l221 326h295l-370 -549l372 -586h-301l-221 348l-225 -348h-328z" />
<glyph unicode="&#x446;" horiz-adv-x="1384" d="M111 0v1135h272v-867h465v867h272v-865h248v-534h-229v264h-1028z" />
<glyph unicode="&#x447;" horiz-adv-x="1171" d="M55 872v242h273v-242q0 -270 209 -270h211v512h272v-1114h-272v354h-216q-127 0 -236.5 46t-164.5 130q-76 115 -76 342z" />
<glyph unicode="&#x448;" horiz-adv-x="1529" d="M111 0v1135h272v-867h246v867h272v-867h246v867h272v-1135h-1308z" />
<glyph unicode="&#x449;" horiz-adv-x="1703" d="M111 0v1135h272v-867h246v867h272v-867h246v867h272v-865h242v-534h-225v264h-1325z" />
<glyph unicode="&#x44a;" horiz-adv-x="1236" d="M14 868v267h656v-363h153q223 0 349 -98.5t126 -290.5q0 -178 -128 -280.5t-347 -102.5h-426v868h-383zM670 246h227q82 0 116 49t34 100q0 49 -36 97.5t-120 48.5h-221v-295z" />
<glyph unicode="&#x44b;" horiz-adv-x="1390" d="M111 0v1135h272v-363h154q223 0 349 -98.5t126 -290.5q0 -178 -128 -280.5t-347 -102.5h-426zM383 246h227q82 0 116 49t34 100q0 49 -36 97.5t-120 48.5h-221v-295zM1120 0v1135h273v-1135h-273z" />
<glyph unicode="&#x44c;" horiz-adv-x="933" d="M111 0v1135h272v-363h154q223 0 349 -98.5t126 -290.5q0 -178 -128 -280.5t-347 -102.5h-426zM383 246h227q82 0 116 49t34 100q0 49 -36 97.5t-120 48.5h-221v-295z" />
<glyph unicode="&#x44d;" horiz-adv-x="1263" d="M45 373h307q96 -150 258 -150q106 0 188.5 58.5t119.5 154.5h-482v269h482q-35 94 -116 150t-186 56q-182 0 -264 -155h-307q51 152 154 245q172 160 417 160q252 0 425 -172t173 -422q0 -248 -177 -421t-429 -173q-199 0 -345 105t-218 295z" />
<glyph unicode="&#x44e;" horiz-adv-x="1777" d="M109 0v1135h272v-430h127q49 197 212 326.5t372 129.5q256 0 431 -174t175 -428q0 -240 -178.5 -413t-425.5 -173q-211 0 -375 131.5t-211 331.5h-127v-436h-272zM766 571q0 -145 96 -246.5t234 -101.5q135 0 231 100.5t96 243.5q0 141 -96 242.5t-233 101.5 q-133 0 -230.5 -100.5t-97.5 -239.5z" />
<glyph unicode="&#x44f;" horiz-adv-x="944" d="M80 0l317 383q-287 76 -286 369q0 178 128 280.5t347 102.5h426v-1135h-273v362h-80l-297 -362h-282zM362 739q0 -49 36 -97t120 -48h221v295h-227q-82 0 -116 -49.5t-34 -100.5z" />
<glyph unicode="&#x450;" horiz-adv-x="1294" d="M61 563q0 250 174.5 424t423.5 174q254 0 420 -173t166 -437q0 -55 -10 -105h-879q25 -102 109 -162.5t205 -60.5q84 0 140 25.5t110 87.5h297q-25 -76 -91 -158q-178 -205 -450 -205q-260 0 -437.5 170t-177.5 420zM197 1538l116 180l455 -272l-109 -162zM348 686h629 q-27 109 -108 167t-205 58q-248 0 -316 -225z" />
<glyph unicode="&#x451;" horiz-adv-x="1294" d="M61 563q0 250 174.5 424t423.5 174q254 0 420 -173t166 -437q0 -55 -10 -105h-879q25 -102 109 -162.5t205 -60.5q84 0 140 25.5t110 87.5h297q-25 -76 -91 -158q-178 -205 -450 -205q-260 0 -437.5 170t-177.5 420zM317 1290v273h273v-273h-273zM348 686h629 q-27 109 -108 167t-205 58q-248 0 -316 -225zM748 1290v273h272v-273h-272z" />
<glyph unicode="&#x452;" horiz-adv-x="755" d="M27 1182v204h155v160h273v-160h344v-204h-344v-230h366q129 0 244 -46t170 -130q76 -115 76 -342v-256q0 -227 -76 -342q-111 -170 -369 -180h-49v252q119 0 170 76.5t51 255.5v194q0 84 -24.5 141.5t-64.5 84t-75.5 36t-76.5 9.5h-342v-711h-273v1188h-155z" />
<glyph unicode="&#x453;" horiz-adv-x="851" d="M111 0v1135h737v-248h-465v-887h-272zM375 1444l459 274l110 -188l-465 -246z" />
<glyph unicode="&#x454;" horiz-adv-x="1259" d="M61 567q0 250 173.5 422t424.5 172q246 0 418 -160q102 -94 154 -245h-307q-82 156 -265 155q-104 0 -185 -56t-116 -150h482v-269h-482q37 -96 119 -154.5t189 -58.5q162 0 258 150h307q-72 -190 -218.5 -295t-344.5 -105q-252 0 -429.5 173t-177.5 421z" />
<glyph unicode="&#x455;" horiz-adv-x="901" d="M39 360h274q20 -72 56.5 -104.5t95.5 -32.5q53 0 88 32t35 79q0 55 -51 88q-33 20 -142 57q-170 57 -242.5 134t-72.5 202q0 145 109.5 245.5t267.5 100.5q178 0 291 -125q76 -84 81 -215h-266q-18 90 -106 90q-45 0 -75 -27.5t-30 -68.5q0 -51 56 -76q27 -12 137 -47 q152 -47 209 -96q106 -84 106 -236q0 -162 -117.5 -274.5t-287.5 -112.5q-102 0 -193.5 42t-146.5 116q-60 79 -76 229z" />
<glyph unicode="&#x456;" horiz-adv-x="491" d="M111 0v1135h272v-1135h-272zM111 1257v256h272v-256h-272z" />
<glyph unicode="&#x457;" horiz-adv-x="491" d="M-106 1284v272h272v-272h-272zM111 0v1135h272v-1135h-272zM324 1284v272h272v-272h-272z" />
<glyph unicode="&#x458;" horiz-adv-x="532" d="M35 -115q76 14 94 45t18 152v1053h273v-1059q0 -244 -121 -357q-104 -98 -264 -98v264zM147 1257v256h273v-256h-273z" />
<glyph unicode="&#x459;" horiz-adv-x="1591" d="M6 0l457 1135h217l170 -424q375 2 534.5 -74t161.5 -299q0 -184 -147 -275q-102 -63 -266 -63h-304l-258 752l-262 -752h-303zM944 479l92 -233h109q84 0 116.5 36.5t32.5 82t-34.5 80t-120.5 34.5h-195z" />
<glyph unicode="&#x45a;" horiz-adv-x="1671" d="M111 0v1135h272v-430h465v430h272v-424q504 4 506 -373q0 -184 -147 -275q-102 -63 -328 -63h-303v436h-465v-436h-272zM1120 246h105q84 0 116.5 36.5t32.5 82t-35.5 80t-119.5 34.5h-99v-233z" />
<glyph unicode="&#x45b;" horiz-adv-x="755" d="M27 1182v204h155v160h273v-160h344v-204h-344v-230h366q129 0 244 -46t170 -130q76 -115 76 -342v-440h-273v440q0 84 -24.5 141.5t-64.5 84t-75.5 36t-76.5 9.5h-342v-711h-273v1188h-155z" />
<glyph unicode="&#x45c;" horiz-adv-x="1140" d="M111 0v1135h272v-535l362 535h316l-395 -555l442 -580h-338l-387 530v-530h-272zM481 1444l459 274l111 -188l-465 -246z" />
<glyph unicode="&#x45d;" horiz-adv-x="1230" d="M111 0v1135h272v-744l434 744h303v-1135h-272v743l-434 -743h-303zM152 1538l116 180l455 -272l-109 -162z" />
<glyph unicode="&#x45e;" horiz-adv-x="1159" d="M25 1135h278l264 -736l310 736h278l-655 -1514h-293l213 485zM252 1569h201q37 -88 139 -88q111 0 127 88h209q-4 -127 -97.5 -206t-238.5 -79q-152 0 -242 75t-98 210z" />
<glyph unicode="&#x45f;" horiz-adv-x="1230" d="M111 0v1135h272v-867h465v867h272v-1135h-350v-287h-299v287h-360z" />
<glyph unicode="&#x48c;" horiz-adv-x="1171" d="M-8 1145v205h147v163h281v-163h139v-205h-139v-207h90q162 0 248 -14.5t149 -53.5q92 -57 145.5 -164.5t53.5 -238.5q0 -272 -205 -397q-117 -70 -387 -70h-375v1145h-147zM420 268h94q115 0 178 15q61 16 96 66t35 122q0 113 -92 164q-66 35 -229 35h-82v-402z" />
<glyph unicode="&#x48d;" horiz-adv-x="958" d="M12 819v205h125v111h273v-111h139v-205h-139v-108q504 4 505 -373q0 -184 -147 -275q-102 -63 -328 -63h-303v819h-125zM410 246h104q84 0 117 36.5t33 82t-35 80t-121 34.5h-98v-233z" />
<glyph unicode="&#x48e;" horiz-adv-x="1171" d="M139 0v1513h375q270 0 387 -69q205 -125 205 -397q0 -197 -109 -324l72 -72l-145 -143l-99 98q-98 -31 -315 -31h-90v-575h-281zM420 844h82q57 0 82 2l-62 63l146 144l123 -123q33 49 32 112q0 72 -34.5 122t-96.5 67q-63 14 -178 14h-94v-401z" />
<glyph unicode="&#x48f;" horiz-adv-x="1347" d="M111 -379v1514h249v-134q137 160 373 160q246 0 405.5 -167t159.5 -423q0 -211 -108 -364l108 -111l-143 -143l-113 110q-139 -90 -311 -90q-201 0 -348 133v-485h-272zM367 569q0 -150 95 -248t240 -98q80 0 146 35l-94 96l143 144l92 -90q35 74 35 157q0 147 -93 246.5 t-233 99.5q-141 0 -236 -98.5t-95 -243.5z" />
<glyph unicode="&#x490;" horiz-adv-x="956" d="M139 0v1513l541 3v225h272v-496h-532v-1245h-281z" />
<glyph unicode="&#x491;" horiz-adv-x="851" d="M111 0v1135h469v213h268v-461h-465v-887h-272z" />
<glyph unicode="&#x492;" horiz-adv-x="956" d="M-2 838v204h141v471h813v-268h-532v-203h145v-204h-145v-838h-281v838h-141z" />
<glyph unicode="&#x493;" horiz-adv-x="851" d="M-16 512v205h127v418h737v-248h-465v-170h137v-205h-137v-512h-272v512h-127z" />
<glyph unicode="&#x494;" horiz-adv-x="956" d="M139 0v1513h813v-268h-532v-1245h-281z" />
<glyph unicode="&#x495;" horiz-adv-x="851" d="M111 0v1135h737v-248h-465v-887h-272z" />
<glyph unicode="&#x496;" horiz-adv-x="1923" d="M14 0l570 770l-570 743h338l469 -653v653h281v-653l469 653h338l-570 -743l570 -770h-338l-469 666v-666h-281v666l-469 -666h-338z" />
<glyph unicode="&#x497;" horiz-adv-x="1789" d="M6 0l471 580l-405 555h325l363 -535v535h272v-535l363 535h325l-405 -555l471 -580h-367l-387 530v-530h-272v530l-387 -530h-367z" />
<glyph unicode="&#x498;" horiz-adv-x="1163" d="M59 438h279q35 -74 133 -135t270 -61q174 0 269.5 57t95.5 162q0 193 -283 192l-231 2v289h229q197 0 197 162q0 66 -83 110t-187 44q-158 0 -234 -42t-115 -114h-280l12 45q14 45 56 109.5t105.5 128t179.5 108.5t261 45q240 0 402.5 -117.5t162.5 -292.5 q0 -119 -40.5 -212t-127.5 -123q115 -18 187 -116.5t72 -238.5q0 -182 -134.5 -314t-418.5 -151q131 -78 131 -190q0 -90 -65.5 -146.5t-172.5 -56.5q-66 0 -135 29v158q51 -20 84 -21q45 0 73.5 24.5t28.5 61.5q0 66 -100 141q-137 10 -251 62.5t-179.5 118t-111.5 130 t-62 107.5z" />
<glyph unicode="&#x499;" horiz-adv-x="880" d="M49 326h254l12 -19q12 -20 36 -43.5t75 -43t117 -19.5q215 0 215 125q0 137 -201 137h-180v258h178q150 0 150 117q0 98 -162 98q-66 0 -113 -24.5t-61 -49.5l-15 -24h-223l8 30q6 33 34 78t70 91t121.5 78t180.5 32q195 0 286 -84t91 -209q0 -86 -41 -153.5t-99 -92.5 q98 -14 164 -99t66 -200q0 -135 -97.5 -225t-287.5 -107q133 -80 133 -192q0 -90 -65.5 -146.5t-172.5 -56.5q-66 0 -135 29v158q51 -20 84 -21q45 0 73.5 24.5t28.5 61.5q0 66 -102 143q-98 10 -178 50.5t-123 89.5t-72.5 97t-40.5 81z" />
<glyph unicode="&#x49a;" horiz-adv-x="1241" d="M139 0v1513h281v-653l469 653h338l-570 -743l570 -770h-338l-469 666v-666h-281z" />
<glyph unicode="&#x49b;" horiz-adv-x="1140" d="M111 0v1135h272v-535l362 535h326l-405 -555l471 -580h-367l-387 530v-530h-272z" />
<glyph unicode="&#x49c;" horiz-adv-x="1241" d="M139 0v1513h281v-653l469 653h338l-570 -743l570 -770h-338l-469 666v-666h-281z" />
<glyph unicode="&#x49d;" horiz-adv-x="1140" d="M111 0v1135h272v-535l362 535h326l-405 -555l471 -580h-367l-387 530v-530h-272z" />
<glyph unicode="&#x49e;" horiz-adv-x="1241" d="M-8 1137v204h147v172h281v-172h139v-204h-139v-277l469 653h338l-570 -743l570 -770h-338l-469 666v-666h-281v1137h-147z" />
<glyph unicode="&#x49f;" horiz-adv-x="1140" d="M-16 848v205h127v82h272v-82h129v-205h-129v-248l362 535h326l-405 -555l471 -580h-367l-387 530v-530h-272v848h-127z" />
<glyph unicode="&#x4a0;" horiz-adv-x="1241" d="M139 0v1513h281v-653l469 653h338l-570 -743l570 -770h-338l-469 666v-666h-281z" />
<glyph unicode="&#x4a1;" horiz-adv-x="1140" d="M111 0v1135h272v-535l362 535h326l-405 -555l471 -580h-367l-387 530v-530h-272z" />
<glyph unicode="&#x4a2;" horiz-adv-x="1380" d="M139 0v1513h281v-610h541v610h280v-1513h-280v635h-541v-635h-281z" />
<glyph unicode="&#x4a3;" horiz-adv-x="1230" d="M111 0v1135h272v-430h465v430h272v-1135h-272v436h-465v-436h-272z" />
<glyph unicode="&#x4a4;" horiz-adv-x="1380" d="M139 0v1513h281v-610h541v610h280v-1513h-280v635h-541v-635h-281z" />
<glyph unicode="&#x4a5;" horiz-adv-x="1230" d="M111 0v1135h272v-430h465v430h272v-1135h-272v436h-465v-436h-272z" />
<glyph unicode="&#x4a6;" horiz-adv-x="1380" d="M139 0v1513h1102v-1513h-280v1245h-541v-1245h-281z" />
<glyph unicode="&#x4a7;" horiz-adv-x="1230" d="M111 0v1135h1009v-1135h-272v866h-465v-866h-272z" />
<glyph unicode="&#x4a8;" horiz-adv-x="1638" d="M82 762q0 322 228.5 550t549.5 228q287 0 502 -174q76 -63 123 -125.5t92 -161.5h-313q-78 100 -172.5 145.5t-225.5 45.5q-236 0 -377 -166q-125 -145 -124 -344q0 -213 149.5 -364.5t357.5 -151.5q111 0 197 41t178 137h330q-88 -207 -277.5 -328t-420.5 -121 q-332 0 -564.5 230.5t-232.5 558.5z" />
<glyph unicode="&#x4a9;" horiz-adv-x="1275" d="M61 567q0 250 173.5 422t424.5 172q246 0 418 -160q102 -94 154 -245h-307q-82 156 -265 155q-141 0 -232 -96t-91 -245.5t94 -248t236 -98.5q162 0 258 150h307q-72 -190 -218.5 -295t-344.5 -105q-252 0 -429.5 173t-177.5 421z" />
<glyph unicode="&#x4aa;" horiz-adv-x="1638" d="M82 762q0 322 228.5 550t549.5 228q287 0 502 -174q76 -63 123 -125.5t92 -161.5h-313q-78 100 -172.5 145.5t-225.5 45.5q-236 0 -377 -166q-125 -145 -124 -344q0 -213 149.5 -364.5t357.5 -151.5q111 0 197 41t178 137h330q-82 -186 -245 -304t-367 -141 q133 -78 133 -192q0 -90 -65.5 -146.5t-172.5 -56.5q-66 0 -135 29v158q51 -20 84 -21q45 0 73.5 24.5t28.5 61.5q0 66 -100 141q-309 27 -519 252.5t-210 534.5z" />
<glyph unicode="&#x4ab;" horiz-adv-x="1275" d="M61 567q0 250 173.5 422t424.5 172q246 0 418 -160q102 -94 154 -245h-307q-82 156 -265 155q-141 0 -232 -96t-91 -245.5t94 -248t236 -98.5q162 0 258 150h307q-66 -172 -192 -274.5t-298 -121.5q133 -78 133 -192q0 -90 -65.5 -146.5t-171.5 -56.5q-66 0 -135 29v158 q51 -20 84 -21q45 0 73.5 24.5t28.5 61.5t-22.5 68.5t-81.5 77.5q-223 29 -373 195.5t-150 391.5z" />
<glyph unicode="&#x4ac;" horiz-adv-x="860" d="M14 1245v268h842v-268h-281v-1245h-280v1245h-281z" />
<glyph unicode="&#x4ad;" horiz-adv-x="755" d="M14 887v248h738l-4 -248h-246v-887h-273v887h-215z" />
<glyph unicode="&#x4ae;" horiz-adv-x="1269" d="M6 1513h303l336 -696l334 696h303l-498 -954v-559h-280v559z" />
<glyph unicode="&#x4af;" horiz-adv-x="1146" d="M2 1135h303l262 -752l258 752h308l-457 -1135h-217z" />
<glyph unicode="&#x4b0;" horiz-adv-x="1269" d="M6 1513h303l336 -696l334 696h303l-498 -954h152v-205h-152v-354h-280v354h-135v205h135z" />
<glyph unicode="&#x4b1;" horiz-adv-x="1146" d="M2 1135h303l262 -752l258 752h308l-457 -1135h-217z" />
<glyph unicode="&#x4b2;" horiz-adv-x="1402" d="M14 0l521 754l-521 759h334l352 -528l363 528h326l-525 -759l525 -754h-326l-363 522l-352 -522h-334z" />
<glyph unicode="&#x4b3;" horiz-adv-x="1138" d="M4 0l402 586l-349 549h308l204 -342l201 342h307l-346 -549l404 -586h-328l-238 389l-237 -389h-328z" />
<glyph unicode="&#x4b4;" horiz-adv-x="1548" d="M139 0v1513h281v-1245h541v1245h280v-1245h291v-555h-250v287h-1143z" />
<glyph unicode="&#x4b5;" horiz-adv-x="1384" d="M111 0v1135h272v-867h465v867h272l2 -865h246v-534h-227l-2 264h-1028z" />
<glyph unicode="&#x4b6;" horiz-adv-x="1339" d="M102 889v624h281v-512q0 -82 60.5 -148.5t142.5 -66.5h338v727h280v-1513h-280v520h-447q-131 0 -253 118t-122 251z" />
<glyph unicode="&#x4b7;" horiz-adv-x="1171" d="M55 872v242h273v-180q0 -170 74.5 -251t201.5 -81h184v512h273v-1114h-273v354l-256 -4q-125 0 -235.5 47t-165.5 133q-76 115 -76 342z" />
<glyph unicode="&#x4b8;" horiz-adv-x="1339" d="M102 889v624h281v-512q0 -82 60.5 -148.5t142.5 -66.5h338v727h280v-1513h-280v520h-447q-131 0 -253 118t-122 251z" />
<glyph unicode="&#x4b9;" horiz-adv-x="1171" d="M55 872v242h273v-180q0 -170 74.5 -251t201.5 -81h184v512h273v-1114h-273v354l-256 -4q-125 0 -235.5 47t-165.5 133q-76 115 -76 342z" />
<glyph unicode="&#x4ba;" horiz-adv-x="1339" d="M102 0v1513h281v-520h446q131 0 253 -117.5t122 -250.5v-625h-280v512q0 82 -60.5 148.5t-142.5 66.5h-338v-727h-281z" />
<glyph unicode="&#x4bb;" horiz-adv-x="1171" d="M55 0v1114h273v-354h256q127 0 236.5 -46t164.5 -130q76 -115 76 -342v-242h-273v180q0 170 -74.5 251t-201.5 81h-184v-512h-273z" />
<glyph unicode="&#x4bc;" horiz-adv-x="1638" d="M82 762q0 322 228.5 550t549.5 228q287 0 502 -174q76 -63 123 -125.5t92 -161.5h-313q-78 100 -172.5 145.5t-225.5 45.5q-236 0 -377 -166q-125 -145 -124 -344q0 -213 149.5 -364.5t357.5 -151.5q111 0 197 41t178 137h330q-88 -207 -277.5 -328t-420.5 -121 q-332 0 -564.5 230.5t-232.5 558.5z" />
<glyph unicode="&#x4bd;" horiz-adv-x="1275" d="M61 567q0 250 173.5 422t424.5 172q246 0 418 -160q102 -94 154 -245h-307q-82 156 -265 155q-141 0 -232 -96t-91 -245.5t94 -248t236 -98.5q162 0 258 150h307q-72 -190 -218.5 -295t-344.5 -105q-252 0 -429.5 173t-177.5 421z" />
<glyph unicode="&#x4be;" horiz-adv-x="1638" d="M82 762q0 322 228.5 550t549.5 228q287 0 502 -174q76 -63 123 -125.5t92 -161.5h-313q-78 100 -172.5 145.5t-225.5 45.5q-236 0 -377 -166q-125 -145 -124 -344q0 -213 149.5 -364.5t357.5 -151.5q111 0 197 41t178 137h330q-88 -207 -277.5 -328t-420.5 -121 q-332 0 -564.5 230.5t-232.5 558.5z" />
<glyph unicode="&#x4bf;" horiz-adv-x="1275" d="M61 567q0 250 173.5 422t424.5 172q246 0 418 -160q102 -94 154 -245h-307q-82 156 -265 155q-141 0 -232 -96t-91 -245.5t94 -248t236 -98.5q162 0 258 150h307q-72 -190 -218.5 -295t-344.5 -105q-252 0 -429.5 173t-177.5 421z" />
<glyph unicode="&#x4c0;" horiz-adv-x="573" d="M139 0v1513h281v-1513h-281z" />
<glyph unicode="&#x4c1;" horiz-adv-x="1923" d="M31 0l553 770l-553 743h321l469 -653v653h281v-653l469 653h321l-553 -743l553 -770h-321l-469 666v-666h-281v666l-469 -666h-321zM623 1948h200q37 -88 140 -88q111 0 127 88h208q-4 -127 -97 -206t-238 -79q-152 0 -242 75t-98 210z" />
<glyph unicode="&#x4c2;" horiz-adv-x="1789" d="M6 0l471 580l-405 555h325l363 -535v535h272v-535l363 535h325l-405 -555l471 -580h-367l-387 530v-530h-272v530l-387 -530h-367zM557 1569h201q37 -88 139 -88q111 0 127 88h209q-4 -127 -97.5 -206t-238.5 -79q-152 0 -242 75t-98 210z" />
<glyph unicode="&#x4c3;" horiz-adv-x="1241" d="M139 0v1513h281v-653l469 653h338l-570 -743l570 -770h-338l-469 666v-666h-281z" />
<glyph unicode="&#x4c4;" horiz-adv-x="1140" d="M111 0v1135h272v-535l362 535h326l-405 -555l471 -580h-367l-387 530v-530h-272z" />
<glyph unicode="&#x4c7;" horiz-adv-x="1380" d="M139 0v1513h281v-610h541v610h280v-1513h-280v635h-541v-635h-281z" />
<glyph unicode="&#x4c8;" horiz-adv-x="1230" d="M111 0v1135h272v-430h465v430h272v-1135h-272v436h-465v-436h-272z" />
<glyph unicode="&#x4cb;" horiz-adv-x="1339" d="M102 889v624h281v-512q0 -82 60.5 -148.5t142.5 -66.5h338v727h280v-1513h-280v520h-447q-131 0 -253 118t-122 251z" />
<glyph unicode="&#x4cc;" horiz-adv-x="1171" d="M55 872v242h273v-180q0 -170 74.5 -251t201.5 -81h184v512h273v-1114h-273v354l-256 -4q-125 0 -235.5 47t-165.5 133q-76 115 -76 342z" />
<glyph unicode="&#x4d0;" horiz-adv-x="1515" d="M14 0l631 1513h221l635 -1513h-309l-162 391h-538l-168 -391h-310zM418 1948h200q37 -88 140 -88q111 0 127 88h209q-4 -127 -97.5 -206t-238.5 -79q-152 0 -242 75t-98 210zM594 659h324l-162 459z" />
<glyph unicode="&#x4d1;" horiz-adv-x="1370" d="M61 563q0 260 163 429t415 169q236 0 371 -178v152h250v-1135h-250v147q-82 -92 -170 -133t-207 -41q-248 0 -410 167t-162 423zM301 1569h201q37 -88 139 -88q111 0 127 88h209q-4 -127 -97.5 -206t-238.5 -79q-152 0 -242 75t-98 210zM336 557q0 -150 93 -242t243 -92 q162 0 248 103q82 96 81 233q0 156 -94 254t-239.5 98t-238.5 -99t-93 -255z" />
<glyph unicode="&#x4d2;" horiz-adv-x="1515" d="M14 0l631 1513h221l635 -1513h-309l-162 391h-538l-168 -391h-310zM406 1663v272h272v-272h-272zM594 659h324l-162 459zM836 1663v272h272v-272h-272z" />
<glyph unicode="&#x4d3;" horiz-adv-x="1370" d="M61 563q0 260 163 429t415 169q236 0 371 -178v152h250v-1135h-250v147q-82 -92 -170 -133t-207 -41q-248 0 -410 167t-162 423zM287 1284v272h272v-272h-272zM336 557q0 -150 93 -242t243 -92q162 0 248 103q82 96 81 233q0 156 -94 254t-239.5 98t-238.5 -99t-93 -255z M717 1284v272h272v-272h-272z" />
<glyph unicode="&#x4d4;" horiz-adv-x="1843" d="M35 0l997 1513h694v-268h-446v-356h424v-268h-424v-353h446v-268h-727v391h-397l-229 -391h-338zM764 659h235v392z" />
<glyph unicode="&#x4d5;" horiz-adv-x="2211" d="M61 563q0 254 170 426t420 172q209 0 342 -139v113h250v-113q137 139 342 139q238 0 402.5 -166t164.5 -405q0 -61 -18 -141h-877q35 -106 120 -166t200 -60q145 0 240 113h297q-51 -156 -201 -259.5t-324 -103.5q-217 0 -346 150v-123h-250v123q-70 -82 -145.5 -116 t-192.5 -34q-256 0 -425 168t-169 422zM336 573q0 -152 93 -251t237 -99q137 0 228 98.5t91 243.5q0 147 -93 246.5t-230.5 99.5t-231.5 -98.5t-94 -239.5zM1243 690h623q-59 221 -307 221q-238 0 -316 -221z" />
<glyph unicode="&#x4d6;" horiz-adv-x="1062" d="M139 0v1513h957v-268h-676v-356h653v-268h-653v-353h676v-268h-957zM279 1948h200q37 -88 139 -88q111 0 127 88h209q-4 -127 -97 -206t-239 -79q-152 0 -241.5 75t-97.5 210z" />
<glyph unicode="&#x4d7;" horiz-adv-x="1294" d="M61 563q0 250 174.5 424t423.5 174q254 0 420 -173t166 -437q0 -55 -10 -105h-879q25 -102 109 -162.5t205 -60.5q84 0 140 25.5t110 87.5h297q-25 -76 -91 -158q-178 -205 -450 -205q-260 0 -437.5 170t-177.5 420zM322 1569h200q37 -88 140 -88q111 0 126 88h209 q-4 -127 -97 -206t-238 -79q-152 0 -242 75t-98 210zM348 686h629q-27 109 -108 167t-205 58q-248 0 -316 -225z" />
<glyph unicode="&#x4d8;" horiz-adv-x="1720" d="M82 762q0 74 12 141h1243q-45 160 -179 263.5t-304 103.5q-131 0 -225 -45t-172 -146h-310q96 203 285 332t428 129q322 0 550 -228.5t228 -549.5q0 -332 -216 -560.5t-543 -228.5q-332 0 -564.5 230.5t-232.5 558.5zM354 635q41 -170 180.5 -280.5t313.5 -110.5 t313 110.5t180 280.5h-987z" />
<glyph unicode="&#x4d9;" horiz-adv-x="1263" d="M61 584q0 55 11 104h878q-25 102 -108.5 162.5t-204.5 60.5q-84 0 -140.5 -25.5t-109.5 -86.5h-297q25 76 90 157q178 205 451 205q260 0 437 -170t177 -419.5t-174 -424t-424 -174.5q-254 0 -420 173.5t-166 437.5zM330 449q27 -109 107.5 -167.5t205.5 -58.5 q248 0 315 226h-628z" />
<glyph unicode="&#x4da;" horiz-adv-x="1720" d="M82 762q0 74 12 141h1243q-45 160 -179 263.5t-304 103.5q-131 0 -225 -45t-172 -146h-310q96 203 285 332t428 129q322 0 550 -228.5t228 -549.5q0 -332 -216 -560.5t-543 -228.5q-332 0 -564.5 230.5t-232.5 558.5zM354 635q41 -170 180.5 -280.5t313.5 -110.5 t313 110.5t180 280.5h-987zM508 1663v272h272v-272h-272zM938 1663v272h272v-272h-272z" />
<glyph unicode="&#x4db;" horiz-adv-x="1263" d="M61 584q0 55 11 104h878q-25 102 -108.5 162.5t-204.5 60.5q-84 0 -140.5 -25.5t-109.5 -86.5h-297q25 76 90 157q178 205 451 205q260 0 437 -170t177 -419.5t-174 -424t-424 -174.5q-254 0 -420 173.5t-166 437.5zM279 1284v272h272v-272h-272zM330 449 q27 -109 107.5 -167.5t205.5 -58.5q248 0 315 226h-628zM709 1284v272h272v-272h-272z" />
<glyph unicode="&#x4dc;" horiz-adv-x="1923" d="M31 0l553 770l-553 743h321l469 -653v653h281v-653l469 653h321l-553 -743l553 -770h-321l-469 666v-666h-281v666l-469 -666h-321zM610 1663v272h273v-272h-273zM1040 1663v272h273v-272h-273z" />
<glyph unicode="&#x4dd;" horiz-adv-x="1789" d="M6 0l471 580l-405 555h325l363 -535v535h272v-535l363 535h325l-405 -555l471 -580h-367l-387 530v-530h-272v530l-387 -530h-367zM545 1284v272h272v-272h-272zM975 1284v272h272v-272h-272z" />
<glyph unicode="&#x4de;" horiz-adv-x="1392" d="M59 438h279q35 -74 133 -135t270 -61q174 0 269.5 57t95.5 162q0 193 -283 192l-231 2v289h229q197 0 197 162q0 66 -83 110t-187 44q-158 0 -234 -42t-115 -114h-280l12 45q14 45 56 109.5t105.5 128t179.5 108.5t261 45q240 0 402.5 -117.5t162.5 -292.5 q0 -119 -40.5 -212t-127.5 -123q115 -18 187 -116.5t72 -238.5q0 -197 -155 -332t-482 -135q-154 0 -281 48.5t-199.5 116t-124 136t-69.5 115.5zM381 1663v272h272v-272h-272zM811 1663v272h272v-272h-272z" />
<glyph unicode="&#x4df;" horiz-adv-x="962" d="M49 326h254l12 -19q12 -20 36 -43.5t75 -43t117 -19.5q215 0 215 125q0 137 -201 137h-180v258h178q150 0 150 117q0 98 -162 98q-66 0 -113 -24.5t-61 -49.5l-15 -24h-223l8 30q6 33 34 78t70 91t121.5 78t180.5 32q195 0 286 -84t91 -209q0 -86 -41 -153.5t-99 -92.5 q98 -14 164 -99t66 -200q0 -150 -119 -243t-348 -93q-117 0 -210 36t-144.5 88.5t-85 104.5t-44.5 89zM193 1284v272h272v-272h-272zM623 1284v272h272v-272h-272z" />
<glyph unicode="&#x4e0;" horiz-adv-x="1163" d="M119 1124l8 43q8 43 38 103.5t73 122t125.5 104.5t185.5 43q229 0 346 -112.5t117 -297.5q0 -213 -168 -301q252 -115 258 -389q2 -82 -5 -139t-35 -123.5t-80 -107.5t-149.5 -69t-234.5 -28q-113 0 -201 34t-136 83t-81 106.5t-43 106.5t-14 82l-2 33h278l7 -45 q8 -43 57 -87t135 -44q106 0 163.5 55t57.5 149q0 207 -221 207l-109 2v289h66q94 0 134 39t42 123q2 72 -45 114t-143 40q-53 0 -89 -34t-44 -67l-11 -35h-280z" />
<glyph unicode="&#x4e1;" horiz-adv-x="880" d="M47 301h272l11 -20q10 -20 39.5 -41t70.5 -21q78 2 105.5 41t27.5 88q0 45 -35.5 85t-119.5 40h-99v234h68q115 0 119 112q4 92 -100 94q-27 2 -58 -24l-29 -29h-272l14 47q14 47 47 103.5t108 103.5t177 47q150 0 236 -55q129 -84 129 -246q0 -180 -127 -246 q96 -41 139 -96q55 -72 55 -196q-10 -162 -112.5 -257.5t-284.5 -91.5q-102 0 -179 34t-114 82t-58.5 96t-25.5 81z" />
<glyph unicode="&#x4e2;" horiz-adv-x="1505" d="M139 0v1513h281v-1101l627 1101h319v-1513h-281v1100l-632 -1100h-314zM469 1663v205h567v-205h-567z" />
<glyph unicode="&#x4e3;" horiz-adv-x="1230" d="M111 0v1135h272v-744l434 744h303v-1135h-272v743l-434 -743h-303zM332 1284v205h567v-205h-567z" />
<glyph unicode="&#x4e4;" horiz-adv-x="1505" d="M139 0v1513h281v-1101l627 1101h319v-1513h-281v1100l-632 -1100h-314zM401 1663v272h273v-272h-273zM831 1663v272h273v-272h-273z" />
<glyph unicode="&#x4e5;" horiz-adv-x="1230" d="M111 0v1135h272v-744l434 744h303v-1135h-272v743l-434 -743h-303zM264 1284v272h273v-272h-273zM694 1284v272h273v-272h-273z" />
<glyph unicode="&#x4e6;" horiz-adv-x="1740" d="M82 756q0 332 230.5 558t568.5 226q324 0 551 -229.5t227 -552.5q0 -332 -225.5 -558.5t-554.5 -226.5q-334 0 -565.5 227.5t-231.5 555.5zM365 756q0 -215 148.5 -363.5t363.5 -148.5t357 145.5t142 364.5q0 217 -144.5 366.5t-354.5 149.5q-219 0 -365.5 -147.5 t-146.5 -366.5zM528 1663v272h273v-272h-273zM958 1663v272h273v-272h-273z" />
<glyph unicode="&#x4e7;" horiz-adv-x="1316" d="M61 567q0 244 176.5 419t424.5 175q256 0 431 -174t175 -428q0 -240 -178.5 -413t-425.5 -173q-250 0 -426.5 174t-176.5 420zM311 1284v272h273v-272h-273zM336 571q0 -145 96 -246.5t234 -101.5q135 0 231 100.5t96 243.5q0 141 -96 242.5t-233 101.5 q-133 0 -230.5 -100.5t-97.5 -239.5zM741 1284v272h273v-272h-273z" />
<glyph unicode="&#x4e8;" horiz-adv-x="1740" d="M82 756q0 332 230.5 558t568.5 226q324 0 551 -229.5t227 -552.5q0 -332 -225.5 -558.5t-554.5 -226.5q-334 0 -565.5 227.5t-231.5 555.5zM373 854h995q-35 182 -171 299t-320 117q-193 0 -332 -117t-172 -299zM375 649q37 -176 176 -290.5t326 -114.5q188 0 322 112.5 t167 292.5h-991z" />
<glyph unicode="&#x4e9;" horiz-adv-x="1316" d="M61 567q0 244 176.5 419t424.5 175q256 0 431 -174t175 -428q0 -240 -178.5 -413t-425.5 -173q-250 0 -426.5 174t-176.5 420zM350 668h629q-31 106 -118 174.5t-197 68.5q-109 0 -196 -68.5t-118 -174.5zM352 463q31 -106 118 -173t195.5 -67t194.5 67.5t117 172.5h-625 z" />
<glyph unicode="&#x4ea;" horiz-adv-x="1740" d="M82 756q0 332 230.5 558t568.5 226q324 0 551 -229.5t227 -552.5q0 -332 -225.5 -558.5t-554.5 -226.5q-334 0 -565.5 227.5t-231.5 555.5zM373 854h995q-35 182 -171 299t-320 117q-193 0 -332 -117t-172 -299zM375 649q37 -176 176 -290.5t326 -114.5q188 0 322 112.5 t167 292.5h-991zM528 1663v272h273v-272h-273zM958 1663v272h273v-272h-273z" />
<glyph unicode="&#x4eb;" horiz-adv-x="1316" d="M61 567q0 244 176.5 419t424.5 175q256 0 431 -174t175 -428q0 -240 -178.5 -413t-425.5 -173q-250 0 -426.5 174t-176.5 420zM311 1284v272h273v-272h-273zM350 668h629q-31 106 -118 174.5t-197 68.5q-109 0 -196 -68.5t-118 -174.5zM352 463q31 -106 118 -173 t195.5 -67t194.5 67.5t117 172.5h-625zM741 1284v272h273v-272h-273z" />
<glyph unicode="&#x4ec;" horiz-adv-x="1597" d="M41 422h330q92 -96 178 -137t196 -41q174 0 313.5 110.5t180.5 280.5h-758v268h754q-45 162 -178 264.5t-305 102.5q-131 0 -225.5 -45t-172.5 -146h-313q45 98 92 161t123 126q215 174 502 174q322 0 550 -228.5t228 -549.5q0 -328 -232.5 -558.5t-564.5 -230.5 q-231 0 -420.5 121t-277.5 328zM406 1663v272h272v-272h-272zM836 1663v272h272v-272h-272z" />
<glyph unicode="&#x4ed;" horiz-adv-x="1263" d="M45 373h307q96 -150 258 -150q106 0 188.5 58.5t119.5 154.5h-482v269h482q-35 94 -116 150t-186 56q-182 0 -264 -155h-307q51 152 154 245q172 160 417 160q252 0 425 -172t173 -422q0 -248 -177 -421t-429 -173q-199 0 -345 105t-218 295zM266 1284v272h273v-272h-273 zM696 1284v272h273v-272h-273z" />
<glyph unicode="&#x4ee;" horiz-adv-x="1304" d="M25 1513h292l336 -696l334 696h303l-725 -1513h-315l262 559zM373 1663v205h567v-205h-567z" />
<glyph unicode="&#x4ef;" horiz-adv-x="1159" d="M25 1135h278l264 -736l310 736h278l-655 -1514h-293l213 485zM307 1284v205h567v-205h-567z" />
<glyph unicode="&#x4f0;" horiz-adv-x="1304" d="M25 1513h292l336 -696l334 696h303l-725 -1513h-315l262 559zM307 1663v272h273v-272h-273zM737 1663v272h273v-272h-273z" />
<glyph unicode="&#x4f1;" horiz-adv-x="1159" d="M25 1135h278l264 -736l310 736h278l-655 -1514h-293l213 485zM238 1284v272h272v-272h-272zM668 1284v272h272v-272h-272z" />
<glyph unicode="&#x4f2;" horiz-adv-x="1304" d="M25 1513h292l336 -696l334 696h303l-725 -1513h-315l262 559zM264 1804l430 293l127 -164l-454 -270zM844 1804l432 293l125 -164l-453 -270z" />
<glyph unicode="&#x4f3;" horiz-adv-x="1159" d="M25 1135h278l264 -736l310 736h278l-655 -1514h-293l213 485zM197 1425l430 293l127 -164l-455 -270zM776 1425l432 293l125 -164l-452 -270z" />
<glyph unicode="&#x4f4;" horiz-adv-x="1339" d="M102 889v624h281v-512q0 -82 60.5 -147.5t142.5 -65.5h338v725h280v-1513h-280v520h-447q-131 0 -253 118t-122 251zM303 1663v272h272v-272h-272zM733 1663v272h273v-272h-273z" />
<glyph unicode="&#x4f5;" horiz-adv-x="1171" d="M55 872v242h273v-242q0 -270 209 -270h211v512h272v-1114h-272v354h-216q-127 0 -236.5 46t-164.5 130q-76 115 -76 342zM186 1284v272h273v-272h-273zM616 1284v272h273v-272h-273z" />
<glyph unicode="&#x4f8;" horiz-adv-x="1642" d="M139 0v1513h281v-417h225q307 0 486.5 -135.5t179.5 -403.5q0 -272 -168 -414.5t-498 -142.5h-506zM420 268h237q147 0 261 79t114 210q0 119 -113.5 194.5t-254.5 75.5h-244v-559zM582 1663v272h272v-272h-272zM1012 1663v272h272v-272h-272zM1448 0v1513h281v-1513 h-281z" />
<glyph unicode="&#x4f9;" horiz-adv-x="1390" d="M111 0v1135h272v-363h154q223 0 349 -98.5t126 -290.5q0 -178 -128 -280.5t-347 -102.5h-426zM383 246h227q82 0 116 49t34 100q0 49 -36 97.5t-120 48.5h-221v-295zM401 1284v272h273v-272h-273zM831 1284v272h273v-272h-273zM1120 0v1135h273v-1135h-273z" />
<glyph unicode="&#xe3f;" horiz-adv-x="1187" d="M139 0v1513h312h34v170h201v-182q98 -14 174 -61q172 -111 172 -330q0 -106 -39 -172t-129 -113q141 -59 199.5 -147t58.5 -227q0 -182 -110.5 -298t-325.5 -145v-178h-201v170h-346zM420 268h139q147 0 214 45t67 144q0 199 -287 198h-133v-387zM420 930h90 q127 0 184.5 37t57.5 118q0 154 -217 154h-115v-309z" />
<glyph unicode="&#x1e0c;" horiz-adv-x="1433" d="M139 0v1513h346q356 0 537 -108q158 -94 244 -265t86 -386q0 -229 -98.5 -406.5t-272.5 -263.5q-168 -84 -489 -84h-353zM420 268h61q248 0 369 68q100 55 159.5 167.5t59.5 250.5q0 145 -61.5 259.5t-169.5 170.5q-121 61 -363 61h-55v-977zM582 -162h272v-272h-272v272 z" />
<glyph unicode="&#x1e0d;" horiz-adv-x="1351" d="M61 569q0 254 165 430.5t403 176.5q225 0 354 -142v479h272v-1513h-249v147q-154 -174 -375 -174q-242 0 -406 172t-164 424zM336 582q0 -152 97 -255.5t241 -103.5q139 0 234.5 101.5t95.5 248.5q0 150 -96.5 251.5t-239.5 101.5q-139 0 -235.5 -99.5t-96.5 -244.5z M541 -162h272v-272h-272v272z" />
<glyph unicode="&#x1e0e;" horiz-adv-x="1433" d="M139 0v1513h346q356 0 537 -108q158 -94 244 -265t86 -386q0 -229 -98.5 -406.5t-272.5 -263.5q-168 -84 -489 -84h-353zM420 268h61q248 0 369 68q100 55 159.5 167.5t59.5 250.5q0 145 -61.5 259.5t-169.5 170.5q-121 61 -363 61h-55v-977zM438 -197h568v-204h-568v204 z" />
<glyph unicode="&#x1e0f;" horiz-adv-x="1351" d="M61 569q0 254 165 430.5t403 176.5q225 0 354 -142v479h272v-1513h-249v147q-154 -174 -375 -174q-242 0 -406 172t-164 424zM336 582q0 -152 97 -255.5t241 -103.5q139 0 234.5 101.5t95.5 248.5q0 150 -96.5 251.5t-239.5 101.5q-139 0 -235.5 -99.5t-96.5 -244.5z M397 -197h568v-204h-568v204z" />
<glyph unicode="&#x1e24;" horiz-adv-x="1392" d="M139 0v1513h281v-610h541v610h280v-1513h-280v635h-541v-635h-281zM555 -162h272v-272h-272v272z" />
<glyph unicode="&#x1e25;" horiz-adv-x="1228" d="M111 0v1513h272v-456q119 106 289 106q444 0 444 -522v-641h-272v580q0 178 -51.5 254.5t-169.5 76.5q-121 0 -180.5 -76.5t-59.5 -259.5v-575h-272zM479 -162h273v-272h-273v272z" />
<glyph unicode="&#x1e26;" horiz-adv-x="1392" d="M139 0v1513h281v-610h541v610h280v-1513h-280v635h-541v-635h-281zM330 1657v272h272v-272h-272zM760 1657v272h272v-272h-272z" />
<glyph unicode="&#x1e27;" horiz-adv-x="1228" d="M111 0v1513h272v-456q119 106 289 106q444 0 444 -522v-641h-272v580q0 178 -51.5 254.5t-169.5 76.5q-121 0 -180.5 -76.5t-59.5 -259.5v-575h-272zM254 1657v272h272v-272h-272zM684 1657v272h272v-272h-272z" />
<glyph unicode="&#x1e2a;" horiz-adv-x="1392" d="M139 0v1513h281v-610h541v610h280v-1513h-280v635h-541v-635h-281zM352 -156h201q37 -88 139 -88q111 0 127 88h209q-4 -127 -97 -205.5t-239 -78.5q-152 0 -242 74.5t-98 209.5z" />
<glyph unicode="&#x1e2b;" horiz-adv-x="1228" d="M111 0v1513h272v-456q119 106 289 106q444 0 444 -522v-641h-272v580q0 178 -51.5 254.5t-169.5 76.5q-121 0 -180.5 -76.5t-59.5 -259.5v-575h-272zM276 -156h201q37 -88 139 -88q111 0 127 88h209q-4 -127 -97 -205.5t-239 -78.5q-152 0 -242 74.5t-98 209.5z" />
<glyph unicode="&#x1e36;" horiz-adv-x="901" d="M139 0v1513h281v-1245h463v-268h-744zM377 -162h272v-272h-272v272z" />
<glyph unicode="&#x1e37;" horiz-adv-x="491" d="M111 0v1513h272v-1513h-272zM113 -162h272v-272h-272v272z" />
<glyph unicode="&#x1e38;" horiz-adv-x="901" d="M2 1690v204h567v-204h-567zM139 0v1513h281v-1245h463v-268h-744zM377 -162h272v-272h-272v272z" />
<glyph unicode="&#x1e39;" horiz-adv-x="491" d="M-31 1690v204h568v-204h-568zM111 0v1513h272v-1513h-272zM113 -162h272v-272h-272v272z" />
<glyph unicode="&#x1e42;" horiz-adv-x="1843" d="M139 0v1513h385l408 -1146l403 1146h385v-1513h-280v1135l-396 -1135h-229l-395 1135v-1135h-281zM786 -162h273v-272h-273v272z" />
<glyph unicode="&#x1e43;" horiz-adv-x="1925" d="M111 0v1135h249v-107q59 72 127 102.5t168 30.5q223 0 334 -176q133 176 365 176q459 0 458 -506v-655h-272v623q0 160 -54 224t-159 64q-119 0 -174 -77.5t-55 -274.5v-559h-273v623q0 160 -54 224t-167 64q-121 0 -171 -76.5t-50 -275.5v-559h-272zM827 -162h273v-272 h-273v272z" />
<glyph unicode="&#x1e44;" horiz-adv-x="1515" d="M139 0v1513h320l626 -1101v1101h281v-1513h-313l-633 1100v-1100h-281zM618 1657v272h273v-272h-273z" />
<glyph unicode="&#x1e45;" horiz-adv-x="1228" d="M111 0v1135h251v-109q141 135 320 135q242 0 354 -164q45 -66 63.5 -151.5t18.5 -237.5v-608h-272v555q0 213 -52.5 284.5t-164.5 71.5q-135 0 -201 -104q-45 -72 -45 -272v-535h-272zM479 1298v273h273v-273h-273z" />
<glyph unicode="&#x1e46;" horiz-adv-x="1515" d="M139 0v1513h320l626 -1101v1101h281v-1513h-313l-633 1100v-1100h-281zM618 -162h273v-272h-273v272z" />
<glyph unicode="&#x1e47;" horiz-adv-x="1228" d="M111 0v1135h251v-109q141 135 320 135q242 0 354 -164q45 -66 63.5 -151.5t18.5 -237.5v-608h-272v555q0 213 -52.5 284.5t-164.5 71.5q-135 0 -201 -104q-45 -72 -45 -272v-535h-272zM479 -162h273v-272h-273v272z" />
<glyph unicode="&#x1e58;" horiz-adv-x="1187" d="M139 0v1513h436q156 0 248 -24.5t166 -87.5q160 -135 160 -373q0 -371 -395 -469l409 -559h-346l-397 580v-580h-281zM420 791h137q162 0 235.5 54t73.5 175q0 113 -67.5 169t-253.5 56h-125v-454zM459 1657v272h272v-272h-272z" />
<glyph unicode="&#x1e59;" horiz-adv-x="655" d="M111 0v1135h249v-111q53 78 105.5 107.5t140.5 29.5h21v-262q-244 -6 -244 -268v-631h-272zM225 1298v273h273v-273h-273z" />
<glyph unicode="&#x1e5a;" horiz-adv-x="1187" d="M139 0v1513h436q156 0 248 -24.5t166 -87.5q160 -135 160 -373q0 -371 -395 -469l409 -559h-346l-397 580v-580h-281zM420 791h137q162 0 235.5 54t73.5 175q0 113 -67.5 169t-253.5 56h-125v-454zM459 -162h272v-272h-272v272z" />
<glyph unicode="&#x1e5b;" horiz-adv-x="655" d="M111 0v1135h249v-111q53 78 105.5 107.5t140.5 29.5h21v-262q-244 -6 -244 -268v-631h-272zM113 -162h272v-272h-272v272z" />
<glyph unicode="&#x1e5c;" horiz-adv-x="1187" d="M139 0v1513h436q156 0 248 -24.5t166 -87.5q160 -135 160 -373q0 -371 -395 -469l409 -559h-346l-397 580v-580h-281zM315 1690v204h568v-204h-568zM420 791h137q162 0 235.5 54t73.5 175q0 113 -67.5 169t-253.5 56h-125v-454zM459 -162h272v-272h-272v272z" />
<glyph unicode="&#x1e5d;" horiz-adv-x="655" d="M82 1358v205h567v-205h-567zM111 0v1135h249v-111q53 78 105.5 107.5t140.5 29.5h21v-262q-244 -6 -244 -268v-631h-272zM113 -162h272v-272h-272v272z" />
<glyph unicode="&#x1e62;" horiz-adv-x="1064" d="M29 432h293q18 -188 204 -188q90 0 147.5 51t57.5 133q0 100 -69 154q-33 25 -70 41t-193 75q-152 57 -233.5 163t-81.5 249q0 180 129 305t311 125q186 0 312.5 -116.5t136.5 -313.5h-291q-6 78 -47 119t-113 41q-70 0 -112.5 -43t-42.5 -111q0 -84 84 -137 q23 -14 167 -68q221 -82 306.5 -186t85.5 -266q0 -205 -139.5 -345.5t-344.5 -140.5q-203 0 -341 124t-156 335zM389 -162h273v-272h-273v272z" />
<glyph unicode="&#x1e63;" horiz-adv-x="901" d="M39 360h274q20 -72 56.5 -104.5t95.5 -32.5q53 0 88 32t35 79q0 51 -31 75.5t-162 69.5q-170 57 -242.5 134t-72.5 202q0 145 109.5 245.5t267.5 100.5q150 0 257 -92t115 -248h-266q-18 90 -106 90q-45 0 -75 -27.5t-30 -68.5q0 -45 27 -61.5t166 -61.5 q176 -55 245.5 -130t69.5 -202q0 -162 -117.5 -274.5t-287.5 -112.5q-174 0 -285 97t-131 290zM322 -162h272v-272h-272v272z" />
<glyph unicode="&#x1e6c;" horiz-adv-x="860" d="M14 1245v268h842v-268h-281v-1245h-280v1245h-281zM301 -162h272v-272h-272v272z" />
<glyph unicode="&#x1e6d;" horiz-adv-x="614" d="M18 887v248h134v378h272v-378h164v-248h-164v-887h-272v887h-134zM154 -162h272v-272h-272v272z" />
<glyph unicode="&#x1e6e;" horiz-adv-x="860" d="M14 1245v268h842v-268h-281v-1245h-280v1245h-281zM158 -197h567v-204h-567v204z" />
<glyph unicode="&#x1e6f;" horiz-adv-x="614" d="M10 -197h568v-204h-568v204zM18 887v248h134v378h272v-378h164v-248h-164v-887h-272v887h-134z" />
<glyph unicode="&#x1e80;" horiz-adv-x="1843" d="M14 1513h287l266 -1056l258 1056h205l254 -1056l268 1056h287l-442 -1513h-223l-244 1001l-250 -1001h-221zM549 1841l110 189l459 -275l-104 -160z" />
<glyph unicode="&#x1e81;" horiz-adv-x="1638" d="M20 1135h293l203 -693l191 693h217l186 -693l207 693h291l-410 -1135h-170l-215 735l-219 -735h-168zM436 1483l111 188l459 -274l-105 -160z" />
<glyph unicode="&#x1e82;" horiz-adv-x="1843" d="M14 1513h287l266 -1056l258 1056h205l254 -1056l268 1056h287l-442 -1513h-223l-244 1001l-250 -1001h-221zM737 1755l459 275l111 -189l-465 -246z" />
<glyph unicode="&#x1e83;" horiz-adv-x="1638" d="M20 1135h293l203 -693l191 693h217l186 -693l207 693h291l-410 -1135h-170l-215 735l-219 -735h-168zM625 1397l458 274l111 -188l-465 -246z" />
<glyph unicode="&#x1e84;" horiz-adv-x="1843" d="M14 1513h287l266 -1056l258 1056h205l254 -1056l268 1056h287l-442 -1513h-223l-244 1001l-250 -1001h-221zM567 1657v272h273v-272h-273zM997 1657v272h273v-272h-273z" />
<glyph unicode="&#x1e85;" horiz-adv-x="1638" d="M20 1135h293l203 -693l191 693h217l186 -693l207 693h291l-410 -1135h-170l-215 735l-219 -735h-168zM455 1298v273h272v-273h-272zM885 1298v273h272v-273h-272z" />
<glyph unicode="&#x1e92;" horiz-adv-x="1024" d="M37 0v238l573 1007h-542v268h876v-251l-569 -994h608v-268h-946zM371 -162h272v-272h-272v272z" />
<glyph unicode="&#x1e93;" horiz-adv-x="942" d="M41 0v244l500 647h-443v244h768v-244l-499 -647h538v-244h-864zM348 -162h273v-272h-273v272z" />
<glyph unicode="&#x1e97;" horiz-adv-x="614" d="M-72 1657v272h273v-272h-273zM18 887v248h134v378h272v-378h164v-248h-164v-887h-272v887h-134zM358 1657v272h273v-272h-273z" />
<glyph unicode="&#x1ea0;" horiz-adv-x="1515" d="M14 0l631 1513h221l635 -1513h-309l-162 391h-538l-168 -391h-310zM594 659h324l-162 459zM623 -162h272v-272h-272v272z" />
<glyph unicode="&#x1ea1;" horiz-adv-x="1351" d="M61 563q0 260 163 429t415 169q236 0 371 -178v152h250v-1135h-250v147q-82 -92 -170 -133t-207 -41q-248 0 -410 167t-162 423zM336 557q0 -150 93 -242t243 -92q152 0 240.5 95.5t88.5 240.5q0 156 -94 254t-239.5 98t-238.5 -99t-93 -255zM541 -162h272v-272h-272v272 z" />
<glyph unicode="&#x1ea2;" horiz-adv-x="1515" d="M14 0l631 1513h221l635 -1513h-309l-162 391h-538l-168 -391h-310zM492 1923q6 125 79.5 184.5t184 59.5t186.5 -64.5t76 -159t-119 -174.5q-43 -29 -54 -54t-11 -91h-175v31q0 82 29 128t113 103q43 31 43 62q0 29 -25.5 47t-66.5 18q-74 0 -88 -90h-172zM594 659h324 l-162 459z" />
<glyph unicode="&#x1ea3;" horiz-adv-x="1351" d="M61 563q0 260 163 429t415 169q236 0 371 -178v152h250v-1135h-250v147q-82 -92 -170 -133t-207 -41q-248 0 -410 167t-162 423zM336 557q0 -150 93 -242t243 -92q152 0 240.5 95.5t88.5 240.5q0 156 -94 254t-239.5 98t-238.5 -99t-93 -255zM412 1544q6 125 79.5 184.5 t184 59.5t186.5 -64.5t76 -159t-119 -173.5q-43 -29 -54 -54.5t-11 -91.5h-174v31q0 82 28.5 128t112.5 103q43 31 43 62q0 29 -25.5 47t-66.5 18q-74 0 -88 -90h-172z" />
<glyph unicode="&#x1ea4;" horiz-adv-x="1515" d="M14 0l631 1513h221l635 -1513h-309l-162 391h-538l-168 -391h-310zM348 1651l301 282h219l297 -282h-297l-108 131l-111 -131h-301zM565 2134l459 274l111 -188l-465 -246zM594 659h324l-162 459z" />
<glyph unicode="&#x1ea5;" horiz-adv-x="1351" d="M61 563q0 260 163 429t415 169q236 0 371 -178v152h250v-1135h-250v147q-82 -92 -170 -133t-207 -41q-248 0 -410 167t-162 423zM268 1272l301 282h219l297 -282h-297l-108 131l-111 -131h-301zM336 557q0 -150 93 -242t243 -92q152 0 240.5 95.5t88.5 240.5 q0 156 -94 254t-239.5 98t-238.5 -99t-93 -255zM485 1755l459 275l111 -189l-465 -246z" />
<glyph unicode="&#x1ea6;" horiz-adv-x="1515" d="M14 0l631 1513h221l635 -1513h-309l-162 391h-538l-168 -391h-310zM348 1651l301 282h219l297 -282h-297l-108 131l-111 -131h-301zM377 2220l110 188l459 -274l-104 -160zM594 659h324l-162 459z" />
<glyph unicode="&#x1ea7;" horiz-adv-x="1351" d="M61 563q0 260 163 429t415 169q236 0 371 -178v152h250v-1135h-250v147q-82 -92 -170 -133t-207 -41q-248 0 -410 167t-162 423zM268 1272l301 282h219l297 -282h-297l-108 131l-111 -131h-301zM297 1841l111 189l458 -275l-104 -160zM336 557q0 -150 93 -242t243 -92 q152 0 240.5 95.5t88.5 240.5q0 156 -94 254t-239.5 98t-238.5 -99t-93 -255z" />
<glyph unicode="&#x1ea8;" horiz-adv-x="1515" d="M14 0l631 1513h221l635 -1513h-309l-162 391h-538l-168 -391h-310zM348 1651l301 282h219l297 -282h-297l-108 131l-111 -131h-301zM594 659h324l-162 459zM639 2288q6 125 80 184t184.5 59t186 -64.5t75.5 -158.5t-118 -174q-43 -29 -54.5 -54.5t-11.5 -90.5h-174v30 q0 82 28.5 128t112.5 104q43 31 43 61q0 29 -25.5 47.5t-66.5 18.5q-74 0 -88 -90h-172z" />
<glyph unicode="&#x1ea9;" horiz-adv-x="1351" d="M61 563q0 260 163 429t415 169q236 0 371 -178v152h250v-1135h-250v147q-82 -92 -170 -133t-207 -41q-248 0 -410 167t-162 423zM268 1272l301 282h219l297 -282h-297l-108 131l-111 -131h-301zM336 557q0 -150 93 -242t243 -92q152 0 240.5 95.5t88.5 240.5 q0 156 -94 254t-239.5 98t-238.5 -99t-93 -255zM559 1909q6 125 80 184t184.5 59t186 -64.5t75.5 -158.5t-118 -174q-43 -29 -54.5 -54.5t-11.5 -90.5h-174v30q0 82 28.5 128.5t112.5 103.5q43 31 43 61q0 29 -25.5 47.5t-66.5 18.5q-74 0 -88 -90h-172z" />
<glyph unicode="&#x1eaa;" horiz-adv-x="1515" d="M14 0l631 1513h221l635 -1513h-309l-162 391h-538l-168 -391h-310zM348 1651l301 282h219l297 -282h-297l-108 131l-111 -131h-301zM416 2159q53 53 100 74.5t111 21.5q25 0 107.5 -25.5t111.5 -25.5q76 0 137 69l111 -166q-92 -113 -193 -112q-27 0 -120 25.5t-111 25.5 q-37 0 -60.5 -8t-83.5 -43zM594 659h324l-162 459z" />
<glyph unicode="&#x1eab;" horiz-adv-x="1351" d="M61 563q0 260 163 429t415 169q236 0 371 -178v152h250v-1135h-250v147q-82 -92 -170 -133t-207 -41q-248 0 -410 167t-162 423zM268 1272l301 282h219l297 -282h-297l-108 131l-111 -131h-301zM336 557q0 -150 93 -242t243 -92q152 0 240.5 95.5t88.5 240.5 q0 156 -94 254t-239.5 98t-238.5 -99t-93 -255zM336 1780q53 53 100 74.5t111 21.5q25 0 107.5 -25.5t111.5 -25.5q76 0 137 69l111 -165q-92 -113 -193 -113q-27 0 -120 25.5t-111 25.5q-37 0 -60.5 -8t-83.5 -43z" />
<glyph unicode="&#x1eac;" horiz-adv-x="1515" d="M14 0l631 1513h221l635 -1513h-309l-162 391h-538l-168 -391h-310zM348 1651l301 282h219l297 -282h-297l-108 131l-111 -131h-301zM594 659h324l-162 459zM623 -162h272v-272h-272v272z" />
<glyph unicode="&#x1ead;" horiz-adv-x="1351" d="M61 563q0 260 163 429t415 169q236 0 371 -178v152h250v-1135h-250v147q-82 -92 -170 -133t-207 -41q-248 0 -410 167t-162 423zM268 1292l301 283h219l297 -283h-297l-108 131l-111 -131h-301zM336 557q0 -150 93 -242t243 -92q152 0 240.5 95.5t88.5 240.5 q0 156 -94 254t-239.5 98t-238.5 -99t-93 -255zM541 -162h272v-272h-272v272z" />
<glyph unicode="&#x1eae;" horiz-adv-x="1515" d="M14 0l631 1513h221l635 -1513h-309l-162 391h-538l-168 -391h-310zM418 1935h200q37 -88 140 -88q111 0 127 88h209q-4 -127 -97.5 -205.5t-238.5 -78.5q-152 0 -242 74.5t-98 209.5zM594 659h324l-162 459zM606 2150l459 275l111 -189l-465 -245z" />
<glyph unicode="&#x1eaf;" horiz-adv-x="1351" d="M61 563q0 260 163 429t415 169q236 0 371 -178v152h250v-1135h-250v147q-82 -92 -170 -133t-207 -41q-248 0 -410 167t-162 423zM336 557q0 -150 93 -242t243 -92q152 0 240.5 95.5t88.5 240.5q0 156 -94 254t-239.5 98t-238.5 -99t-93 -255zM338 1556h201 q37 -88 139 -88q111 0 127 88h209q-4 -127 -97.5 -205.5t-238.5 -78.5q-152 0 -242 74.5t-98 209.5zM526 1772l459 274l111 -188l-465 -246z" />
<glyph unicode="&#x1eb0;" horiz-adv-x="1515" d="M14 0l631 1513h221l635 -1513h-309l-162 391h-538l-168 -391h-310zM336 2236l110 189l459 -275l-104 -159zM418 1935h200q37 -88 140 -88q111 0 127 88h209q-4 -127 -97.5 -205.5t-238.5 -78.5q-152 0 -242 74.5t-98 209.5zM594 659h324l-162 459z" />
<glyph unicode="&#x1eb1;" horiz-adv-x="1351" d="M61 563q0 260 163 429t415 169q236 0 371 -178v152h250v-1135h-250v147q-82 -92 -170 -133t-207 -41q-248 0 -410 167t-162 423zM256 1858l111 188l458 -274l-104 -160zM336 557q0 -150 93 -242t243 -92q152 0 240.5 95.5t88.5 240.5q0 156 -94 254t-239.5 98t-238.5 -99 t-93 -255zM338 1556h201q37 -88 139 -88q111 0 127 88h209q-4 -127 -97.5 -205.5t-238.5 -78.5q-152 0 -242 74.5t-98 209.5z" />
<glyph unicode="&#x1eb2;" horiz-adv-x="1515" d="M14 0l631 1513h221l635 -1513h-309l-162 391h-538l-168 -391h-310zM418 1935h200q37 -88 140 -88q111 0 127 88h209q-4 -127 -97.5 -205.5t-238.5 -78.5q-152 0 -242 74.5t-98 209.5zM494 2261q6 125 79.5 184.5t184 59.5t186.5 -64.5t76 -159t-119 -174.5 q-43 -29 -54 -54t-11 -91h-174v31q0 82 28.5 128t112.5 103q43 31 43 62q0 29 -25.5 47t-66.5 18q-74 0 -88 -90h-172zM594 659h324l-162 459z" />
<glyph unicode="&#x1eb3;" horiz-adv-x="1351" d="M61 563q0 260 163 429t415 169q236 0 371 -178v152h250v-1135h-250v147q-82 -92 -170 -133t-207 -41q-248 0 -410 167t-162 423zM336 557q0 -150 93 -242t243 -92q152 0 240.5 95.5t88.5 240.5q0 156 -94 254t-239.5 98t-238.5 -99t-93 -255zM338 1556h201 q37 -88 139 -88q111 0 127 88h209q-4 -127 -97.5 -205.5t-238.5 -78.5q-152 0 -242 74.5t-98 209.5zM414 1882q6 125 79.5 184.5t184 59.5t186.5 -64.5t76 -159t-119 -173.5q-43 -29 -54 -54.5t-11 -91.5h-174v31q0 82 28.5 128t112.5 103q43 31 43 62q0 29 -25.5 47 t-66.5 18q-74 0 -88 -90h-172z" />
<glyph unicode="&#x1eb4;" horiz-adv-x="1515" d="M14 0l631 1513h221l635 -1513h-309l-162 391h-538l-168 -391h-310zM416 2173q53 53 100 74.5t111 21.5q25 0 107.5 -25.5t111.5 -25.5q76 0 137 70l111 -166q-92 -113 -193 -113q-27 0 -120 25.5t-111 25.5q-37 0 -60.5 -8t-83.5 -43zM418 1935h200q37 -88 140 -88 q111 0 127 88h209q-4 -127 -97.5 -205.5t-238.5 -78.5q-152 0 -242 74.5t-98 209.5zM594 659h324l-162 459z" />
<glyph unicode="&#x1eb5;" horiz-adv-x="1351" d="M61 563q0 260 163 429t415 169q236 0 371 -178v152h250v-1135h-250v147q-82 -92 -170 -133t-207 -41q-248 0 -410 167t-162 423zM336 557q0 -150 93 -242t243 -92q152 0 240.5 95.5t88.5 240.5q0 156 -94 254t-239.5 98t-238.5 -99t-93 -255zM336 1794q53 53 100 74.5 t111 21.5q25 0 107.5 -25.5t111.5 -25.5q76 0 137 70l111 -166q-92 -113 -193 -113q-27 0 -120 25.5t-111 25.5q-37 0 -60.5 -8t-83.5 -43zM338 1556h201q37 -88 139 -88q111 0 127 88h209q-4 -127 -97.5 -205.5t-238.5 -78.5q-152 0 -242 74.5t-98 209.5z" />
<glyph unicode="&#x1eb6;" horiz-adv-x="1515" d="M14 0l631 1513h221l635 -1513h-309l-162 391h-538l-168 -391h-310zM418 1935h200q37 -88 140 -88q111 0 127 88h209q-4 -127 -97.5 -205.5t-238.5 -78.5q-152 0 -242 74.5t-98 209.5zM594 659h324l-162 459zM623 -162h272v-272h-272v272z" />
<glyph unicode="&#x1eb7;" horiz-adv-x="1351" d="M61 563q0 260 163 429t415 169q236 0 371 -178v152h250v-1135h-250v147q-82 -92 -170 -133t-207 -41q-248 0 -410 167t-162 423zM336 557q0 -150 93 -242t243 -92q152 0 240.5 95.5t88.5 240.5q0 156 -94 254t-239.5 98t-238.5 -99t-93 -255zM336 1577h201 q37 -88 139 -88q111 0 127 88h209q-4 -127 -97.5 -206t-238.5 -79q-152 0 -242 75t-98 210zM541 -162h272v-272h-272v272z" />
<glyph unicode="&#x1eb8;" horiz-adv-x="1064" d="M139 0v1513h813v-268h-532v-356h510v-268h-510v-353h532v-268h-813zM397 -162h273v-272h-273v272z" />
<glyph unicode="&#x1eb9;" d="M61 563q0 250 174.5 424t423.5 174q254 0 420 -173t166 -437q0 -55 -10 -105h-879q25 -102 109 -162.5t205 -60.5q84 0 140 25.5t110 87.5h297q-55 -168 -208 -265.5t-333 -97.5q-260 0 -437.5 170t-177.5 420zM348 686h629q-27 109 -108 167t-205 58q-248 0 -316 -225z M524 -162h273v-272h-273v272z" />
<glyph unicode="&#x1eba;" horiz-adv-x="1064" d="M139 0v1513h813v-268h-532v-356h510v-268h-510v-353h532v-268h-813zM283 1923q6 125 79.5 184.5t184 59.5t186.5 -64.5t76 -159t-119 -174.5q-43 -29 -54 -54t-11 -91h-174v31q0 82 28.5 128t112.5 103q43 31 43 62q0 29 -25.5 47t-66.5 18q-74 0 -88 -90h-172z" />
<glyph unicode="&#x1ebb;" d="M61 563q0 250 174.5 424t423.5 174q254 0 420 -173t166 -437q0 -55 -10 -105h-879q25 -102 109 -162.5t205 -60.5q84 0 140 25.5t110 87.5h297q-55 -168 -208 -265.5t-333 -97.5q-260 0 -437.5 170t-177.5 420zM348 686h629q-27 109 -108 167t-205 58q-248 0 -316 -225z M395 1544q6 125 80 184.5t184.5 59.5t186.5 -64.5t76 -159t-119 -173.5q-43 -29 -54.5 -54.5t-11.5 -91.5h-174v31q0 82 29 128t113 103q43 31 43 62q0 29 -26 47t-67 18q-74 0 -88 -90h-172z" />
<glyph unicode="&#x1ebc;" horiz-adv-x="1064" d="M139 0v1513h813v-268h-532v-356h510v-268h-510v-353h532v-268h-813zM207 1817q53 53 100 74.5t111 21.5q25 0 107.5 -25.5t111.5 -25.5q76 0 137 69l111 -166q-92 -113 -193 -112q-27 0 -120 25.5t-111 25.5q-37 0 -60.5 -8t-83.5 -43z" />
<glyph unicode="&#x1ebd;" d="M61 563q0 250 174.5 424t423.5 174q254 0 420 -173t166 -437q0 -55 -10 -105h-879q25 -102 109 -162.5t205 -60.5q84 0 140 25.5t110 87.5h297q-55 -168 -208 -265.5t-333 -97.5q-260 0 -437.5 170t-177.5 420zM319 1458q53 53 100.5 74.5t110.5 21.5q25 0 108 -25.5 t112 -25.5q76 0 137 70l110 -166q-92 -113 -192 -113q-27 0 -120 26t-112 26q-37 0 -60.5 -8.5t-82.5 -43.5zM348 686h629q-27 109 -108 167t-205 58q-248 0 -316 -225z" />
<glyph unicode="&#x1ebe;" horiz-adv-x="1064" d="M139 0v1513h813v-268h-532v-356h510v-268h-510v-353h532v-268h-813zM139 1651l301 282h219l297 -282h-297l-108 131l-111 -131h-301zM356 2134l459 274l111 -188l-465 -246z" />
<glyph unicode="&#x1ebf;" d="M61 563q0 250 174.5 424t423.5 174q254 0 420 -173t166 -437q0 -55 -10 -105h-879q25 -102 109 -162.5t205 -60.5q84 0 140 25.5t110 87.5h297q-55 -168 -208 -265.5t-333 -97.5q-260 0 -437.5 170t-177.5 420zM252 1272l301 282h219l297 -282h-297l-108 131l-111 -131 h-301zM348 686h629q-27 109 -108 167t-205 58q-248 0 -316 -225zM469 1755l459 275l110 -189l-465 -246z" />
<glyph unicode="&#x1ec0;" horiz-adv-x="1064" d="M139 0v1513h813v-268h-532v-356h510v-268h-510v-353h532v-268h-813zM139 1651l301 282h219l297 -282h-297l-108 131l-111 -131h-301zM168 2220l111 188l458 -274l-104 -160z" />
<glyph unicode="&#x1ec1;" d="M61 563q0 250 174.5 424t423.5 174q254 0 420 -173t166 -437q0 -55 -10 -105h-879q25 -102 109 -162.5t205 -60.5q84 0 140 25.5t110 87.5h297q-55 -168 -208 -265.5t-333 -97.5q-260 0 -437.5 170t-177.5 420zM252 1272l301 282h219l297 -282h-297l-108 131l-111 -131 h-301zM281 1841l110 189l459 -275l-105 -160zM348 686h629q-27 109 -108 167t-205 58q-248 0 -316 -225z" />
<glyph unicode="&#x1ec2;" horiz-adv-x="1064" d="M139 0v1513h813v-268h-532v-356h510v-268h-510v-353h532v-268h-813zM139 1651l301 282h219l297 -282h-297l-108 131l-111 -131h-301zM430 2288q6 125 80 184t184.5 59t186 -64.5t75.5 -158.5t-118 -174q-43 -29 -54.5 -54.5t-11.5 -90.5h-174v30q0 82 28.5 128t112.5 104 q43 31 43 61q0 29 -25.5 47.5t-66.5 18.5q-74 0 -88 -90h-172z" />
<glyph unicode="&#x1ec3;" d="M61 563q0 250 174.5 424t423.5 174q254 0 420 -173t166 -437q0 -55 -10 -105h-879q25 -102 109 -162.5t205 -60.5q84 0 140 25.5t110 87.5h297q-55 -168 -208 -265.5t-333 -97.5q-260 0 -437.5 170t-177.5 420zM252 1272l301 282h219l297 -282h-297l-108 131l-111 -131 h-301zM348 686h629q-27 109 -108 167t-205 58q-248 0 -316 -225zM543 1909q6 125 79.5 184t184.5 59t186.5 -64.5t75.5 -158.5t-119 -174q-43 -29 -54 -54.5t-11 -90.5h-174v30q0 82 28.5 128.5t112.5 103.5q43 31 43 61q0 29 -25.5 47.5t-66.5 18.5q-74 0 -88 -90h-172z " />
<glyph unicode="&#x1ec4;" horiz-adv-x="1064" d="M139 0v1513h813v-268h-532v-356h510v-268h-510v-353h532v-268h-813zM139 1651l301 282h219l297 -282h-297l-108 131l-111 -131h-301zM207 2159q53 53 100 74.5t111 21.5q25 0 107.5 -25.5t111.5 -25.5q76 0 137 69l111 -166q-92 -113 -193 -112q-27 0 -120 25.5 t-111 25.5q-37 0 -60.5 -8t-83.5 -43z" />
<glyph unicode="&#x1ec5;" d="M61 563q0 250 174.5 424t423.5 174q254 0 420 -173t166 -437q0 -55 -10 -105h-879q25 -102 109 -162.5t205 -60.5q84 0 140 25.5t110 87.5h297q-55 -168 -208 -265.5t-333 -97.5q-260 0 -437.5 170t-177.5 420zM252 1272l301 282h219l297 -282h-297l-108 131l-111 -131 h-301zM319 1780q53 53 100.5 74.5t110.5 21.5q25 0 108 -25.5t112 -25.5q76 0 137 69l110 -165q-92 -113 -192 -113q-27 0 -120 25.5t-112 25.5q-37 0 -60.5 -8t-82.5 -43zM348 686h629q-27 109 -108 167t-205 58q-248 0 -316 -225z" />
<glyph unicode="&#x1ec6;" horiz-adv-x="1064" d="M139 0v1513h813v-268h-532v-356h510v-268h-510v-353h532v-268h-813zM139 1651l301 282h219l297 -282h-297l-108 131l-111 -131h-301zM397 -162h273v-272h-273v272z" />
<glyph unicode="&#x1ec7;" d="M61 563q0 250 174.5 424t423.5 174q254 0 420 -173t166 -437q0 -55 -10 -105h-879q25 -102 109 -162.5t205 -60.5q84 0 140 25.5t110 87.5h297q-55 -168 -208 -265.5t-333 -97.5q-260 0 -437.5 170t-177.5 420zM252 1292l301 283h219l297 -283h-297l-108 131l-111 -131 h-301zM348 686h629q-27 109 -108 167t-205 58q-248 0 -316 -225zM524 -162h273v-272h-273v272z" />
<glyph unicode="&#x1ec8;" horiz-adv-x="573" d="M16 1923q6 125 80 184.5t184.5 59.5t186.5 -64.5t76 -159t-119 -174.5q-43 -29 -54.5 -54t-11.5 -91h-174v31q0 82 29 128t113 103q43 31 43 62q0 29 -26 47t-67 18q-74 0 -88 -90h-172zM139 0v1513h281v-1513h-281z" />
<glyph unicode="&#x1ec9;" horiz-adv-x="491" d="M-16 1544q6 125 79.5 184.5t184 59.5t186.5 -64.5t76 -159t-119 -173.5q-43 -29 -54 -54.5t-11 -91.5h-174v31q0 82 28.5 128t112.5 103q43 31 43 62q0 29 -25.5 47t-66.5 18q-74 0 -88 -90h-172zM111 0v1135h272v-1135h-272z" />
<glyph unicode="&#x1eca;" horiz-adv-x="573" d="M139 0v1513h281v-1513h-281zM145 -162h273v-272h-273v272z" />
<glyph unicode="&#x1ecb;" horiz-adv-x="491" d="M111 0v1135h272v-1135h-272zM111 -162h272v-272h-272v272zM113 1298v273h272v-273h-272z" />
<glyph unicode="&#x1ecc;" horiz-adv-x="1720" d="M61 756q0 332 230.5 558t568.5 226q324 0 551 -229.5t227 -552.5q0 -332 -225 -558.5t-555 -226.5q-334 0 -565.5 227.5t-231.5 555.5zM344 756q0 -215 148.5 -363.5t363.5 -148.5t357.5 145.5t142.5 364.5q0 217 -144.5 366.5t-355.5 149.5q-219 0 -365.5 -147.5 t-146.5 -366.5zM725 -162h272v-272h-272v272z" />
<glyph unicode="&#x1ecd;" d="M61 567q0 244 176.5 419t424.5 175q256 0 431 -174t175 -428q0 -240 -178.5 -413t-425.5 -173q-250 0 -426.5 174t-176.5 420zM336 571q0 -145 96 -246.5t234 -101.5q135 0 231 100.5t96 243.5q0 141 -96 242.5t-233 101.5q-133 0 -230.5 -100.5t-97.5 -239.5zM526 -162 h273v-272h-273v272z" />
<glyph unicode="&#x1ece;" horiz-adv-x="1720" d="M61 756q0 332 230.5 558t568.5 226q324 0 551 -229.5t227 -552.5q0 -332 -225 -558.5t-555 -226.5q-334 0 -565.5 227.5t-231.5 555.5zM344 756q0 -215 148.5 -363.5t363.5 -148.5t357.5 145.5t142.5 364.5q0 217 -144.5 366.5t-355.5 149.5q-219 0 -365.5 -147.5 t-146.5 -366.5zM596 1923q6 125 80 184.5t184.5 59.5t186 -64.5t75.5 -159t-118 -174.5q-43 -29 -54.5 -54t-11.5 -91h-174v31q0 82 28.5 128t112.5 103q43 31 43 62q0 29 -25.5 47t-66.5 18q-74 0 -88 -90h-172z" />
<glyph unicode="&#x1ecf;" d="M61 567q0 244 176.5 419t424.5 175q256 0 431 -174t175 -428q0 -240 -178.5 -413t-425.5 -173q-250 0 -426.5 174t-176.5 420zM336 571q0 -145 96 -246.5t234 -101.5q135 0 231 100.5t96 243.5q0 141 -96 242.5t-233 101.5q-133 0 -230.5 -100.5t-97.5 -239.5zM397 1544 q6 125 80 184.5t184.5 59.5t186.5 -64.5t76 -159t-119 -173.5q-43 -29 -54.5 -54.5t-11.5 -91.5h-174v31q0 82 29 128t113 103q43 31 43 62q0 29 -26 47t-67 18q-74 0 -88 -90h-172z" />
<glyph unicode="&#x1ed0;" horiz-adv-x="1720" d="M61 756q0 332 230.5 558t568.5 226q324 0 551 -229.5t227 -552.5q0 -332 -225 -558.5t-555 -226.5q-334 0 -565.5 227.5t-231.5 555.5zM344 756q0 -215 148.5 -363.5t363.5 -148.5t357.5 145.5t142.5 364.5q0 217 -144.5 366.5t-355.5 149.5q-219 0 -365.5 -147.5 t-146.5 -366.5zM453 1651l301 282h219l297 -282h-297l-109 131l-110 -131h-301zM670 2134l458 274l111 -188l-465 -246z" />
<glyph unicode="&#x1ed1;" d="M61 567q0 244 176.5 419t424.5 175q256 0 431 -174t175 -428q0 -240 -178.5 -413t-425.5 -173q-250 0 -426.5 174t-176.5 420zM254 1272l301 282h219l297 -282h-297l-108 131l-111 -131h-301zM336 571q0 -145 96 -246.5t234 -101.5q135 0 231 100.5t96 243.5 q0 141 -96 242.5t-233 101.5q-133 0 -230.5 -100.5t-97.5 -239.5zM471 1755l459 275l110 -189l-465 -246z" />
<glyph unicode="&#x1ed2;" horiz-adv-x="1720" d="M61 756q0 332 230.5 558t568.5 226q324 0 551 -229.5t227 -552.5q0 -332 -225 -558.5t-555 -226.5q-334 0 -565.5 227.5t-231.5 555.5zM344 756q0 -215 148.5 -363.5t363.5 -148.5t357.5 145.5t142.5 364.5q0 217 -144.5 366.5t-355.5 149.5q-219 0 -365.5 -147.5 t-146.5 -366.5zM453 1651l301 282h219l297 -282h-297l-109 131l-110 -131h-301zM481 2220l111 188l459 -274l-105 -160z" />
<glyph unicode="&#x1ed3;" d="M61 567q0 244 176.5 419t424.5 175q256 0 431 -174t175 -428q0 -240 -178.5 -413t-425.5 -173q-250 0 -426.5 174t-176.5 420zM254 1272l301 282h219l297 -282h-297l-108 131l-111 -131h-301zM283 1841l110 189l459 -275l-104 -160zM336 571q0 -145 96 -246.5t234 -101.5 q135 0 231 100.5t96 243.5q0 141 -96 242.5t-233 101.5q-133 0 -230.5 -100.5t-97.5 -239.5z" />
<glyph unicode="&#x1ed4;" horiz-adv-x="1720" d="M61 756q0 332 230.5 558t568.5 226q324 0 551 -229.5t227 -552.5q0 -332 -225 -558.5t-555 -226.5q-334 0 -565.5 227.5t-231.5 555.5zM344 756q0 -215 148.5 -363.5t363.5 -148.5t357.5 145.5t142.5 364.5q0 217 -144.5 366.5t-355.5 149.5q-219 0 -365.5 -147.5 t-146.5 -366.5zM453 1651l301 282h219l297 -282h-297l-109 131l-110 -131h-301zM743 2288q6 125 80 184t184.5 59t186.5 -64.5t76 -158.5t-119 -174q-43 -29 -54.5 -54.5t-11.5 -90.5h-174v30q0 82 29 128t113 104q43 31 43 61q0 29 -26 47.5t-66 18.5q-74 0 -89 -90h-172z " />
<glyph unicode="&#x1ed5;" d="M61 567q0 244 176.5 419t424.5 175q256 0 431 -174t175 -428q0 -240 -178.5 -413t-425.5 -173q-250 0 -426.5 174t-176.5 420zM254 1272l301 282h219l297 -282h-297l-108 131l-111 -131h-301zM336 571q0 -145 96 -246.5t234 -101.5q135 0 231 100.5t96 243.5 q0 141 -96 242.5t-233 101.5q-133 0 -230.5 -100.5t-97.5 -239.5zM545 1909q6 125 79.5 184t184.5 59t186.5 -64.5t75.5 -158.5t-119 -174q-43 -29 -54 -54.5t-11 -90.5h-174v30q0 82 28.5 128.5t112.5 103.5q43 31 43 61q0 29 -25.5 47.5t-66.5 18.5q-74 0 -88 -90h-172z " />
<glyph unicode="&#x1ed6;" horiz-adv-x="1720" d="M61 756q0 332 230.5 558t568.5 226q324 0 551 -229.5t227 -552.5q0 -332 -225 -558.5t-555 -226.5q-334 0 -565.5 227.5t-231.5 555.5zM344 756q0 -215 148.5 -363.5t363.5 -148.5t357.5 145.5t142.5 364.5q0 217 -144.5 366.5t-355.5 149.5q-219 0 -365.5 -147.5 t-146.5 -366.5zM453 1651l301 282h219l297 -282h-297l-109 131l-110 -131h-301zM520 2159q53 53 100.5 74.5t110.5 21.5q25 0 108 -25.5t111 -25.5q76 0 137 69l111 -166q-92 -113 -192 -112q-27 0 -120 25.5t-112 25.5q-37 0 -60.5 -8t-82.5 -43z" />
<glyph unicode="&#x1ed7;" d="M61 567q0 244 176.5 419t424.5 175q256 0 431 -174t175 -428q0 -240 -178.5 -413t-425.5 -173q-250 0 -426.5 174t-176.5 420zM254 1272l301 282h219l297 -282h-297l-108 131l-111 -131h-301zM322 1780q53 53 100 74.5t110 21.5q25 0 108 -25.5t112 -25.5q76 0 137 69 l110 -165q-92 -113 -192 -113q-27 0 -120 25.5t-112 25.5q-37 0 -60 -8t-83 -43zM336 571q0 -145 96 -246.5t234 -101.5q135 0 231 100.5t96 243.5q0 141 -96 242.5t-233 101.5q-133 0 -230.5 -100.5t-97.5 -239.5z" />
<glyph unicode="&#x1ed8;" horiz-adv-x="1720" d="M61 756q0 332 230.5 558t568.5 226q324 0 551 -229.5t227 -552.5q0 -332 -225 -558.5t-555 -226.5q-334 0 -565.5 227.5t-231.5 555.5zM344 756q0 -215 148.5 -363.5t363.5 -148.5t357.5 145.5t142.5 364.5q0 217 -144.5 366.5t-355.5 149.5q-219 0 -365.5 -147.5 t-146.5 -366.5zM453 1651l301 282h219l297 -282h-297l-109 131l-110 -131h-301zM725 -162h272v-272h-272v272z" />
<glyph unicode="&#x1ed9;" d="M61 567q0 244 176.5 419t424.5 175q256 0 431 -174t175 -428q0 -240 -178.5 -413t-425.5 -173q-250 0 -426.5 174t-176.5 420zM254 1292l301 283h219l297 -283h-297l-108 131l-111 -131h-301zM336 571q0 -145 96 -246.5t234 -101.5q135 0 231 100.5t96 243.5 q0 141 -96 242.5t-233 101.5q-133 0 -230.5 -100.5t-97.5 -239.5zM526 -162h273v-272h-273v272z" />
<glyph unicode="&#x1eda;" horiz-adv-x="1759" d="M61 756q0 332 230.5 558t568.5 226q166 0 313.5 -66.5t256.5 -183.5q70 86 69 223h195q0 -223 -150 -383q94 -176 94 -372q0 -332 -225 -558.5t-555 -226.5q-334 0 -565.5 227.5t-231.5 555.5zM344 756q0 -215 148.5 -363.5t363.5 -148.5t357.5 145.5t142.5 364.5 q0 217 -144.5 366.5t-355.5 149.5q-219 0 -365.5 -147.5t-146.5 -366.5zM670 1755l458 275l111 -189l-465 -246z" />
<glyph unicode="&#x1edb;" horiz-adv-x="1478" d="M61 567q0 244 176.5 419t424.5 175q152 0 281.5 -66.5t213.5 -183.5q68 88 68 224h194q0 -244 -176 -406q25 -80 25 -170q0 -240 -178.5 -413t-425.5 -173q-250 0 -426.5 174t-176.5 420zM336 571q0 -145 96 -246.5t234 -101.5q135 0 231 100.5t96 243.5q0 141 -96 242.5 t-233 101.5q-133 0 -230.5 -100.5t-97.5 -239.5zM471 1397l459 274l110 -188l-465 -246z" />
<glyph unicode="&#x1edc;" horiz-adv-x="1759" d="M61 756q0 332 230.5 558t568.5 226q166 0 313.5 -66.5t256.5 -183.5q70 86 69 223h195q0 -223 -150 -383q94 -176 94 -372q0 -332 -225 -558.5t-555 -226.5q-334 0 -565.5 227.5t-231.5 555.5zM344 756q0 -215 148.5 -363.5t363.5 -148.5t357.5 145.5t142.5 364.5 q0 217 -144.5 366.5t-355.5 149.5q-219 0 -365.5 -147.5t-146.5 -366.5zM481 1841l111 189l459 -275l-105 -160z" />
<glyph unicode="&#x1edd;" horiz-adv-x="1478" d="M61 567q0 244 176.5 419t424.5 175q152 0 281.5 -66.5t213.5 -183.5q68 88 68 224h194q0 -244 -176 -406q25 -80 25 -170q0 -240 -178.5 -413t-425.5 -173q-250 0 -426.5 174t-176.5 420zM283 1483l110 188l459 -274l-104 -160zM336 571q0 -145 96 -246.5t234 -101.5 q135 0 231 100.5t96 243.5q0 141 -96 242.5t-233 101.5q-133 0 -230.5 -100.5t-97.5 -239.5z" />
<glyph unicode="&#x1ede;" horiz-adv-x="1759" d="M61 756q0 332 230.5 558t568.5 226q166 0 313.5 -66.5t256.5 -183.5q70 86 69 223h195q0 -223 -150 -383q94 -176 94 -372q0 -332 -225 -558.5t-555 -226.5q-334 0 -565.5 227.5t-231.5 555.5zM344 756q0 -215 148.5 -363.5t363.5 -148.5t357.5 145.5t142.5 364.5 q0 217 -144.5 366.5t-355.5 149.5q-219 0 -365.5 -147.5t-146.5 -366.5zM596 1923q6 125 80 184.5t184.5 59.5t186 -64.5t75.5 -159t-118 -174.5q-43 -29 -54.5 -54t-11.5 -91h-174v31q0 82 28.5 128t112.5 103q43 31 43 62q0 29 -25.5 47t-66.5 18q-74 0 -88 -90h-172z" />
<glyph unicode="&#x1edf;" horiz-adv-x="1478" d="M61 567q0 244 176.5 419t424.5 175q152 0 281.5 -66.5t213.5 -183.5q68 88 68 224h194q0 -244 -176 -406q25 -80 25 -170q0 -240 -178.5 -413t-425.5 -173q-250 0 -426.5 174t-176.5 420zM336 571q0 -145 96 -246.5t234 -101.5q135 0 231 100.5t96 243.5q0 141 -96 242.5 t-233 101.5q-133 0 -230.5 -100.5t-97.5 -239.5zM397 1544q6 125 80 184.5t184.5 59.5t186.5 -64.5t76 -159t-119 -173.5q-43 -29 -54.5 -54.5t-11.5 -91.5h-174v31q0 82 29 128t113 103q43 31 43 62q0 29 -26 47t-67 18q-74 0 -88 -90h-172z" />
<glyph unicode="&#x1ee0;" horiz-adv-x="1759" d="M61 756q0 332 230.5 558t568.5 226q166 0 313.5 -66.5t256.5 -183.5q70 86 69 223h195q0 -223 -150 -383q94 -176 94 -372q0 -332 -225 -558.5t-555 -226.5q-334 0 -565.5 227.5t-231.5 555.5zM344 756q0 -215 148.5 -363.5t363.5 -148.5t357.5 145.5t142.5 364.5 q0 217 -144.5 366.5t-355.5 149.5q-219 0 -365.5 -147.5t-146.5 -366.5zM520 1817q53 53 100.5 74.5t110.5 21.5q25 0 108 -25.5t111 -25.5q76 0 137 69l111 -166q-92 -113 -192 -112q-27 0 -120 25.5t-112 25.5q-37 0 -60.5 -8t-82.5 -43z" />
<glyph unicode="&#x1ee1;" horiz-adv-x="1478" d="M61 567q0 244 176.5 419t424.5 175q152 0 281.5 -66.5t213.5 -183.5q68 88 68 224h194q0 -244 -176 -406q25 -80 25 -170q0 -240 -178.5 -413t-425.5 -173q-250 0 -426.5 174t-176.5 420zM322 1458q53 53 100 74.5t110 21.5q25 0 108 -25.5t112 -25.5q76 0 137 70 l110 -166q-92 -113 -192 -113q-27 0 -120 26t-112 26q-37 0 -60 -8.5t-83 -43.5zM336 571q0 -145 96 -246.5t234 -101.5q135 0 231 100.5t96 243.5q0 141 -96 242.5t-233 101.5q-133 0 -230.5 -100.5t-97.5 -239.5z" />
<glyph unicode="&#x1ee2;" horiz-adv-x="1759" d="M61 756q0 332 230.5 558t568.5 226q166 0 313.5 -66.5t256.5 -183.5q70 86 69 223h195q0 -223 -150 -383q94 -176 94 -372q0 -332 -225 -558.5t-555 -226.5q-334 0 -565.5 227.5t-231.5 555.5zM344 756q0 -215 148.5 -363.5t363.5 -148.5t357.5 145.5t142.5 364.5 q0 217 -144.5 366.5t-355.5 149.5q-219 0 -365.5 -147.5t-146.5 -366.5zM725 -162h272v-272h-272v272z" />
<glyph unicode="&#x1ee3;" horiz-adv-x="1478" d="M61 567q0 244 176.5 419t424.5 175q152 0 281.5 -66.5t213.5 -183.5q68 88 68 224h194q0 -244 -176 -406q25 -80 25 -170q0 -240 -178.5 -413t-425.5 -173q-250 0 -426.5 174t-176.5 420zM336 571q0 -145 96 -246.5t234 -101.5q135 0 231 100.5t96 243.5q0 141 -96 242.5 t-233 101.5q-133 0 -230.5 -100.5t-97.5 -239.5zM526 -162h273v-272h-273v272z" />
<glyph unicode="&#x1ee4;" d="M139 555v958h281v-958q0 -168 58.5 -239.5t172.5 -71.5q113 0 171.5 70.5t58.5 240.5v958h280v-958q0 -283 -140 -432.5t-372 -149.5q-229 0 -369.5 150.5t-140.5 431.5zM516 -162h272v-272h-272v272z" />
<glyph unicode="&#x1ee5;" horiz-adv-x="1228" d="M111 526v609h272v-555q0 -211 53 -284t162 -73q141 0 207 105q43 72 43 272v535h272v-1135h-252v109q-76 -76 -149.5 -106t-175.5 -30q-432 0 -432 553zM481 -162h273v-272h-273v272z" />
<glyph unicode="&#x1ee6;" d="M139 555v958h281v-958q0 -168 58.5 -239.5t172.5 -71.5q113 0 171.5 70.5t58.5 240.5v958h280v-958q0 -283 -140 -432.5t-372 -149.5q-229 0 -369.5 150.5t-140.5 431.5zM387 1923q6 125 80 184.5t184.5 59.5t186 -64.5t75.5 -159t-118 -174.5q-43 -29 -54.5 -54 t-11.5 -91h-174v31q0 82 28.5 128t112.5 103q43 31 43 62q0 29 -25.5 47t-66.5 18q-74 0 -88 -90h-172z" />
<glyph unicode="&#x1ee7;" horiz-adv-x="1228" d="M111 526v609h272v-555q0 -211 53 -284t162 -73q141 0 207 105q43 72 43 272v535h272v-1135h-252v109q-76 -76 -149.5 -106t-175.5 -30q-432 0 -432 553zM352 1544q6 125 80 184.5t184.5 59.5t186.5 -64.5t76 -159t-119 -173.5q-43 -29 -54.5 -54.5t-11.5 -91.5h-174v31 q0 82 29 128t113 103q43 31 43 62q0 29 -26 47t-67 18q-74 0 -88 -90h-172z" />
<glyph unicode="&#x1ee8;" horiz-adv-x="1531" d="M139 555v958h281v-958q0 -145 37 -209q63 -102 194 -102q129 0 193 102q37 63 37 209v958h280v-284q127 102 127 284h195q0 -186 -94.5 -315t-227.5 -194v-449q0 -250 -102 -387q-68 -90 -177.5 -142.5t-232.5 -52.5q-133 0 -247.5 60.5t-180.5 165.5q-82 131 -82 356z M461 1755l459 275l110 -189l-465 -246z" />
<glyph unicode="&#x1ee9;" horiz-adv-x="1492" d="M111 526v609h272v-555q0 -215 55 -285q53 -72 160 -72q145 0 207 105q43 63 43 272v535h272v-283q125 102 125 283h195q0 -184 -93.5 -314.5t-226.5 -193.5v-627h-252v109q-76 -76 -149.5 -106t-175.5 -30q-229 0 -346 168q-47 72 -66.5 157t-19.5 228zM426 1397l459 274 l110 -188l-465 -246z" />
<glyph unicode="&#x1eea;" horiz-adv-x="1531" d="M139 555v958h281v-958q0 -145 37 -209q63 -102 194 -102q129 0 193 102q37 63 37 209v958h280v-284q127 102 127 284h195q0 -186 -94.5 -315t-227.5 -194v-449q0 -250 -102 -387q-68 -90 -177.5 -142.5t-232.5 -52.5q-133 0 -247.5 60.5t-180.5 165.5q-82 131 -82 356z M272 1841l111 189l459 -275l-105 -160z" />
<glyph unicode="&#x1eeb;" horiz-adv-x="1492" d="M111 526v609h272v-555q0 -215 55 -285q53 -72 160 -72q145 0 207 105q43 63 43 272v535h272v-283q125 102 125 283h195q0 -184 -93.5 -314.5t-226.5 -193.5v-627h-252v109q-76 -76 -149.5 -106t-175.5 -30q-229 0 -346 168q-47 72 -66.5 157t-19.5 228zM238 1483l110 188 l459 -274l-105 -160z" />
<glyph unicode="&#x1eec;" horiz-adv-x="1531" d="M139 555v958h281v-958q0 -145 37 -209q63 -102 194 -102q129 0 193 102q37 63 37 209v958h280v-284q127 102 127 284h195q0 -186 -94.5 -315t-227.5 -194v-449q0 -250 -102 -387q-68 -90 -177.5 -142.5t-232.5 -52.5q-133 0 -247.5 60.5t-180.5 165.5q-82 131 -82 356z M387 1923q6 125 80 184.5t184.5 59.5t186 -64.5t75.5 -159t-118 -174.5q-43 -29 -54.5 -54t-11.5 -91h-174v31q0 82 28.5 128t112.5 103q43 31 43 62q0 29 -25.5 47t-66.5 18q-74 0 -88 -90h-172z" />
<glyph unicode="&#x1eed;" horiz-adv-x="1492" d="M111 526v609h272v-555q0 -215 55 -285q53 -72 160 -72q145 0 207 105q43 63 43 272v535h272v-283q125 102 125 283h195q0 -184 -93.5 -314.5t-226.5 -193.5v-627h-252v109q-76 -76 -149.5 -106t-175.5 -30q-229 0 -346 168q-47 72 -66.5 157t-19.5 228zM352 1544 q6 125 80 184.5t184.5 59.5t186.5 -64.5t76 -159t-119 -173.5q-43 -29 -54.5 -54.5t-11.5 -91.5h-174v31q0 82 29 128t113 103q43 31 43 62q0 29 -26 47t-67 18q-74 0 -88 -90h-172z" />
<glyph unicode="&#x1eee;" horiz-adv-x="1531" d="M139 555v958h281v-958q0 -145 37 -209q63 -102 194 -102q129 0 193 102q37 63 37 209v958h280v-284q127 102 127 284h195q0 -186 -94.5 -315t-227.5 -194v-449q0 -250 -102 -387q-68 -90 -177.5 -142.5t-232.5 -52.5q-133 0 -247.5 60.5t-180.5 165.5q-82 131 -82 356z M311 1817q53 53 100.5 74.5t110.5 21.5q25 0 108 -25.5t111 -25.5q76 0 138 69l110 -166q-92 -113 -192 -112q-27 0 -120 25.5t-112 25.5q-37 0 -60.5 -8t-82.5 -43z" />
<glyph unicode="&#x1eef;" horiz-adv-x="1492" d="M111 526v609h272v-555q0 -215 55 -285q53 -72 160 -72q145 0 207 105q43 63 43 272v535h272v-283q125 102 125 283h195q0 -184 -93.5 -314.5t-226.5 -193.5v-627h-252v109q-76 -76 -149.5 -106t-175.5 -30q-229 0 -346 168q-47 72 -66.5 157t-19.5 228zM276 1458 q53 53 100.5 74.5t110.5 21.5q25 0 108 -25.5t112 -25.5q76 0 137 70l110 -166q-92 -113 -192 -113q-27 0 -120 26t-112 26q-37 0 -60.5 -8.5t-82.5 -43.5z" />
<glyph unicode="&#x1ef0;" horiz-adv-x="1531" d="M139 555v958h281v-958q0 -145 37 -209q63 -102 194 -102q129 0 193 102q37 63 37 209v958h280v-284q127 102 127 284h195q0 -186 -94.5 -315t-227.5 -194v-449q0 -250 -102 -387q-68 -90 -177.5 -142.5t-232.5 -52.5q-133 0 -247.5 60.5t-180.5 165.5q-82 131 -82 356z M516 -162h272v-272h-272v272z" />
<glyph unicode="&#x1ef1;" horiz-adv-x="1492" d="M111 526v609h272v-555q0 -215 55 -285q53 -72 160 -72q145 0 207 105q43 63 43 272v535h272v-283q125 102 125 283h195q0 -184 -93.5 -314.5t-226.5 -193.5v-627h-252v109q-76 -76 -149.5 -106t-175.5 -30q-229 0 -346 168q-47 72 -66.5 157t-19.5 228zM481 -162h273 v-272h-273v272z" />
<glyph unicode="&#x1ef2;" horiz-adv-x="1269" d="M6 1513h303l336 -696l334 696h303l-498 -954v-559h-280v559zM266 1841l111 189l459 -275l-105 -160z" />
<glyph unicode="&#x1ef3;" horiz-adv-x="1187" d="M12 1135h312l251 -736l275 736h313l-655 -1514h-293l213 485zM209 1483l110 188l459 -274l-104 -160z" />
<glyph unicode="&#x1ef4;" horiz-adv-x="1269" d="M6 1513h303l336 -696l334 696h303l-498 -954v-559h-280v559zM510 -162h272v-272h-272v272z" />
<glyph unicode="&#x1ef5;" horiz-adv-x="1187" d="M12 1135h312l251 -736l275 736h313l-655 -1514h-293l213 485zM784 -162h273v-272h-273v272z" />
<glyph unicode="&#x1ef6;" horiz-adv-x="1269" d="M6 1513h303l336 -696l334 696h303l-498 -954v-559h-280v559zM381 1923q6 125 80 184.5t184.5 59.5t186 -64.5t75.5 -159t-119 -174.5q-43 -29 -54 -54t-11 -91h-174v31q0 82 28.5 128t112.5 103q43 31 43 62q0 29 -25.5 47t-66.5 18q-74 0 -88 -90h-172z" />
<glyph unicode="&#x1ef7;" horiz-adv-x="1187" d="M12 1135h312l251 -736l275 736h313l-655 -1514h-293l213 485zM324 1544q6 125 79.5 184.5t184 59.5t186.5 -64.5t76 -159t-119 -173.5q-43 -29 -54 -54.5t-11 -91.5h-174v31q0 82 28.5 128t112.5 103q43 31 43 62q0 29 -25.5 47t-66.5 18q-74 0 -88 -90h-172z" />
<glyph unicode="&#x1ef8;" horiz-adv-x="1269" d="M6 1513h303l336 -696l334 696h303l-498 -954v-559h-280v559zM305 1817q53 53 100.5 74.5t110.5 21.5q25 0 108 -25.5t111 -25.5q76 0 137 69l111 -166q-92 -113 -192 -112q-27 0 -120 25.5t-112 25.5q-37 0 -60.5 -8t-82.5 -43z" />
<glyph unicode="&#x1ef9;" horiz-adv-x="1187" d="M12 1135h312l251 -736l275 736h313l-655 -1514h-293l213 485zM248 1458q53 53 100 74.5t111 21.5q25 0 107.5 -25.5t111.5 -25.5q76 0 137 70l111 -166q-92 -113 -193 -113q-27 0 -120 26t-111 26q-37 0 -60.5 -8.5t-83.5 -43.5z" />
<glyph unicode="&#x2000;" horiz-adv-x="1265" />
<glyph unicode="&#x2001;" horiz-adv-x="2531" />
<glyph unicode="&#x2002;" horiz-adv-x="1265" />
<glyph unicode="&#x2003;" horiz-adv-x="2531" />
<glyph unicode="&#x2004;" horiz-adv-x="843" />
<glyph unicode="&#x2005;" horiz-adv-x="632" />
<glyph unicode="&#x2006;" horiz-adv-x="421" />
<glyph unicode="&#x2007;" horiz-adv-x="421" />
<glyph unicode="&#x2008;" horiz-adv-x="315" />
<glyph unicode="&#x2009;" horiz-adv-x="505" />
<glyph unicode="&#x200a;" horiz-adv-x="139" />
<glyph unicode="&#x2010;" horiz-adv-x="860" d="M152 469v242h567v-242h-567z" />
<glyph unicode="&#x2011;" horiz-adv-x="860" d="M152 469v242h567v-242h-567z" />
<glyph unicode="&#x2012;" horiz-adv-x="860" d="M152 469v242h567v-242h-567z" />
<glyph unicode="&#x2013;" horiz-adv-x="1024" d="M0 469v242h1024v-242h-1024z" />
<glyph unicode="&#x2014;" horiz-adv-x="2048" d="M0 469v242h2048v-242h-2048z" />
<glyph unicode="&#x2016;" horiz-adv-x="1228" d="M190 -281v1794h283v-1794h-283zM756 -281v1794h282v-1794h-282z" />
<glyph unicode="&#x2018;" horiz-adv-x="573" d="M147 954v287q0 123 74 197.5t199 74.5v-137q-66 -12 -93.5 -38.5t-27.5 -77.5q0 -20 2 -33h119v-273h-273z" />
<glyph unicode="&#x2019;" horiz-adv-x="573" d="M147 954v138q66 12 93.5 40.5t27.5 81.5q0 23 -2 37h-119v262h273v-286q0 -123 -71 -198t-202 -75z" />
<glyph unicode="&#x201a;" horiz-adv-x="573" d="M143 0v262h273v-276q0 -123 -71 -198t-202 -75v137q66 12 93.5 39t27.5 76q0 23 -2 35h-119z" />
<glyph unicode="&#x201c;" horiz-adv-x="983" d="M143 954v287q0 123 74 197.5t199 74.5v-137q-66 -12 -93.5 -38.5t-27.5 -80.5l2 -30h119v-273h-273zM567 954v287q0 123 74 197.5t199 74.5v-137q-66 -12 -93.5 -38.5t-27.5 -75.5q0 -23 2 -35h119v-273h-273z" />
<glyph unicode="&#x201d;" horiz-adv-x="983" d="M143 954v138q63 12 92 41.5t29 80.5q0 23 -2 37h-119v262h273v-286q0 -123 -72 -198t-201 -75zM567 954v138q66 12 93.5 40.5t27.5 81.5q0 23 -2 37h-119v262h273v-286q0 -123 -72 -198t-201 -75z" />
<glyph unicode="&#x201e;" horiz-adv-x="983" d="M143 0v262h273v-276q0 -123 -71 -198t-202 -75v137q66 12 93.5 39t27.5 76q0 23 -2 35h-119zM567 0v262h273v-276q0 -123 -72 -198t-201 -75v137q66 12 93.5 39t27.5 76q0 23 -2 35h-119z" />
<glyph unicode="&#x2020;" horiz-adv-x="1146" d="M98 893v242h334v378h273v-378h329v-242h-329v-1155h-273v1155h-334z" />
<glyph unicode="&#x2021;" horiz-adv-x="1146" d="M98 532v242h332v195h-332v241h332v303h272v-303h332v-241h-332v-195h332v-242h-332v-794h-272v794h-332z" />
<glyph unicode="&#x2022;" horiz-adv-x="1228" d="M274 647q0 141 101.5 242.5t242.5 101.5q143 0 245 -100t102 -244q0 -145 -101.5 -245.5t-249.5 -100.5q-139 0 -239.5 102.5t-100.5 243.5z" />
<glyph unicode="&#x2026;" horiz-adv-x="2048" d="M205 0v262h272v-262h-272zM885 0v262h272v-262h-272zM1567 0v262h274v-262h-274z" />
<glyph unicode="&#x202f;" horiz-adv-x="505" />
<glyph unicode="&#x2030;" horiz-adv-x="2621" d="M43 1169q0 156 108.5 263.5t264.5 107.5q150 0 259 -108.5t109 -260.5q0 -154 -108.5 -262t-262 -108t-262 108t-108.5 260zM264 1171.5q0 -63.5 44 -107.5t105.5 -44t106.5 45t45 106.5t-45 106.5t-106.5 45t-105.5 -44t-44 -107.5zM457 0l624 1513h211l-626 -1513h-209 zM969 342q0 156 108.5 263.5t263.5 107.5q150 0 259.5 -108.5t109.5 -260.5q0 -154 -108.5 -262.5t-262 -108.5t-262 108.5t-108.5 260.5zM1190 344.5q0 -63.5 44 -107.5t105.5 -44t106.5 45t45 106.5t-45 106.5t-106.5 45t-105.5 -44t-44 -107.5zM1815 342 q0 156 108.5 263.5t263.5 107.5q152 0 260.5 -108.5t108.5 -260.5q0 -154 -108.5 -262.5t-262 -108.5t-262 108.5t-108.5 260.5zM2036 344.5q0 -63.5 44 -107.5t105.5 -44t106.5 45t45 106.5t-45 106.5t-106.5 45t-105.5 -44t-44 -107.5z" />
<glyph unicode="&#x2031;" horiz-adv-x="3467" d="M43 1169q0 156 108.5 263.5t264.5 107.5q150 0 259 -108.5t109 -260.5q0 -154 -108.5 -262t-262 -108t-262 108t-108.5 260zM264 1171.5q0 -63.5 44 -107.5t105.5 -44t106.5 45t45 106.5t-45 106.5t-106.5 45t-105.5 -44t-44 -107.5zM457 0l624 1513h211l-626 -1513h-209 zM969 342q0 156 108.5 263.5t263.5 107.5q150 0 259.5 -108.5t109.5 -260.5q0 -154 -108.5 -262.5t-262 -108.5t-262 108.5t-108.5 260.5zM1190 344.5q0 -63.5 44 -107.5t105.5 -44t106.5 45t45 106.5t-45 106.5t-106.5 45t-105.5 -44t-44 -107.5zM1815 342 q0 156 108.5 263.5t263.5 107.5q152 0 260.5 -108.5t108.5 -260.5q0 -154 -108.5 -262.5t-262 -108.5t-262 108.5t-108.5 260.5zM2036 344.5q0 -63.5 44 -107.5t105.5 -44t106.5 45t45 106.5t-45 106.5t-106.5 45t-105.5 -44t-44 -107.5zM2660 342q0 156 108.5 263.5 t264.5 107.5q150 0 259.5 -108.5t109.5 -260.5q0 -154 -108.5 -262.5t-262.5 -108.5t-262.5 108.5t-108.5 260.5zM2882 344.5q0 -63.5 44 -107.5t105 -44t106.5 45t45.5 106.5t-45.5 106.5t-106.5 45t-105 -44t-44 -107.5z" />
<glyph unicode="&#x2039;" horiz-adv-x="491" d="M74 489v205l284 267v-252l-137 -117l137 -119v-252z" />
<glyph unicode="&#x203a;" horiz-adv-x="491" d="M150 221v252l137 119l-137 117v252l284 -267v-205z" />
<glyph unicode="&#x203b;" horiz-adv-x="1228" d="M0 512q0 53 39 92t92 39q55 0 93 -39t38 -92t-38 -92t-93 -39q-53 0 -92 39t-39 92zM158 256l256 256l-256 256l200 201l256 -256l256 256l201 -201l-256 -256l256 -256l-201 -201l-256 256l-256 -256zM483 29q0 55 39 93t92.5 38t92 -38t38.5 -93q0 -53 -38.5 -92 t-92 -39t-92.5 39t-39 92zM483 995q0 53 39 92t92.5 39t92 -38.5t38.5 -92.5q0 -55 -38.5 -93t-92 -38t-92.5 38t-39 93zM967 512q0 53 37.5 92t93.5 39q53 0 92 -39t39 -92t-39 -92t-92 -39q-55 0 -93 39t-38 92z" />
<glyph unicode="&#x203d;" horiz-adv-x="1146" d="M66 1065q14 180 97 295t216 158v200h272v-192q152 -39 247 -163t95 -292q0 -102 -46 -183t-163 -183q-84 -74 -107.5 -131.5t-25.5 -190.5h-272v37v774q-33 -51 -41 -129h-272zM379 0v262h272v-262h-272zM651 926q70 74 70 153q0 92 -70 150v-303z" />
<glyph unicode="&#x2044;" horiz-adv-x="327" d="M-248 0l627 1513h194l-626 -1513h-195z" />
<glyph unicode="&#x2045;" horiz-adv-x="763" d="M111 121v252q0 150 129 252q-129 104 -129 254v251q0 174 160.5 275.5t381.5 101.5v-250q-260 0 -260 -127v-251q0 -127 260 -127v-250q-260 0 -260 -129v-252q0 -127 260 -127v-250q-221 0 -381.5 101.5t-160.5 275.5z" />
<glyph unicode="&#x2046;" horiz-adv-x="763" d="M111 -6q260 0 260 127v252q0 129 -260 129v250q260 0 260 127v251q0 127 -260 127v250q221 0 381.5 -101t160.5 -276v-251q0 -150 -129 -252q129 -104 129 -254v-252q0 -174 -160.5 -275.5t-381.5 -101.5v250z" />
<glyph unicode="&#x2052;" horiz-adv-x="1146" d="M84 1224.5q0 67.5 47 116t117 48.5q68 0 116 -48.5t48 -116t-48.5 -115.5t-115.5 -48q-70 0 -117 48t-47 115.5zM150 0l581 1513h266l-581 -1513h-266zM735 288.5q0 67.5 48 116t116 48.5q70 0 117 -48.5t47 -116t-47 -115.5t-117 -48q-68 0 -116 48t-48 115.5z" />
<glyph unicode="&#x205f;" horiz-adv-x="632" />
<glyph unicode="&#x20a1;" horiz-adv-x="1597" d="M61 762q0 279 178.5 495t446.5 269v157h225v-145q213 -18 383 -138t262 -321h-313q-129 168 -332 189v-1022q166 20 316 176h329q-84 -195 -257 -313.5t-388 -133.5v-145h-225v162q-272 59 -448.5 274t-176.5 496zM344 760q0 -166 95.5 -300t246.5 -188v973 q-154 -49 -248 -181t-94 -304z" />
<glyph unicode="&#x20a4;" horiz-adv-x="1146" d="M0 578v215h184l-34 53h-150v215h84q2 201 143.5 340t345.5 139q195 0 329 -120t151 -312h-277q-23 88 -75 135t-126 47q-88 0 -151.5 -66.5t-67.5 -162.5h480v-215h-390l43 -53h347v-215h-185q31 -61 31 -168q0 -78 -27 -154q109 0 167.5 53t58.5 142q0 45 -21 110h270 q23 -59 23 -106q0 -211 -154 -344q-72 -61 -156.5 -86t-226.5 -25h-532v256h285q41 70 41 150q0 84 -70 172h-340z" />
<glyph unicode="&#x20a6;" horiz-adv-x="1515" d="M-2 518v250h141v129h-141v250h141v366h320l209 -366h417v366h281v-366h141v-250h-141v-129h141v-250h-141v-518h-313l-299 518h-334v-518h-281v518h-141zM420 768h190l-73 129h-117v-129zM809 897l74 -129h202v129h-276zM1024 518l61 -106v106h-61z" />
<glyph unicode="&#x20a9;" horiz-adv-x="1843" d="M14 518v250h219l-38 129h-181v250h109l-109 366h287l92 -366h342l90 366h205l88 -366h342l92 366h287l-106 -366h106v-250h-180l-37 -129h217v-250h-291l-151 -518h-223l-127 518h-238l-129 -518h-221l-152 518h-293zM457 897l32 -129h154l31 129h-217zM551 518l16 -61 l15 61h-31zM872 768h115l-33 129h-51zM1178 897l30 -129h156l33 129h-219zM1270 518l14 -61l16 61h-30z" />
<glyph unicode="&#x20ab;" horiz-adv-x="1318" d="M111 0h1095v-250h-1095v250zM111 711q0 217 139 366.5t344 149.5q193 0 299 -123v172h-219v149h219v88h231v-88h82v-149h-82v-1049h-213v125q-133 -147 -317 -147q-205 0 -344 146.5t-139 359.5zM342 721q0 -127 84 -216t205 -89q117 0 198.5 87t81.5 212q0 127 -83 213 t-203 86q-119 0 -201 -85t-82 -208z" />
<glyph unicode="&#x20ac;" horiz-adv-x="1146" d="M-68 805l50 180h161q68 291 220.5 421t406.5 130q127 0 224.5 -29.5t224.5 -105.5l-80 -211q-201 119 -375 119q-139 0 -221 -76t-129 -248h645l-68 -180h-592v-92h557l-69 -181h-477q37 -150 132 -233.5t234 -83.5q100 0 299 82v-252q-166 -68 -327 -68q-190 0 -338 95 q-106 63 -167 167.5t-102 292.5h-207l50 181h141v39q0 31 2 53h-195z" />
<glyph unicode="&#x20b1;" horiz-adv-x="1146" d="M-2 279v198h141v1036h375q270 0 387 -69q205 -125 205 -397q0 -131 -53.5 -239t-145.5 -165q-63 -39 -149 -53.5t-248 -14.5h-90v-98h153v-198h-153v-279h-281v279h-141zM420 844h82q182 0 251.5 48t69.5 150q0 117 -70.5 160t-238.5 43h-94v-401z" />
</font>
</defs>
</svg>
