<?xml version="1.0" standalone="no"?>
<!DOCTYPE svg PUBLIC "-//W3C//DTD SVG 1.1//EN" "http://www.w3.org/Graphics/SVG/1.1/DTD/svg11.dtd" >
<svg xmlns="http://www.w3.org/2000/svg">
<metadata>
This is a custom SVG webfont generated by Font Squirrel.
Copyright   : Copyright c 2009 Barry Schwartz httpcrudfactorycom
</metadata>
<defs>
<font id="webfontu7PrKgbe" horiz-adv-x="694" >
<font-face units-per-em="2048" ascent="1591" descent="-457" />
<missing-glyph horiz-adv-x="436" />
<glyph unicode=" "  horiz-adv-x="436" />
<glyph unicode="&#x09;" horiz-adv-x="436" />
<glyph unicode="&#xa0;" horiz-adv-x="436" />
<glyph unicode="!" horiz-adv-x="565" d="M139 129q0 4 4 12.5t9 12.5l12 12q6 4 16 12t19 17l24 28q23 27 33 35q18 14 35 14q2 0 5 -1l3 -1q2 0 5 -2q3 -3 5 -4q6 -4 8 -6q10 -10 11 -10q4 -6 10 -12q37 -37 45 -43l35 -27q8 -6 20 -19q8 -8 8 -20q0 -16 -14 -30.5t-34.5 -29t-28.5 -22.5q-20 -20 -25 -27 q-16 -23 -27 -32q-12 -12 -24 -13q-10 0 -41 25q-29 23 -45 45q-2 4 -25 23q-14 12 -30 32q-13 16 -13 31zM201 1333q0 37 26.5 57.5t73.5 20.5q51 0 72 -14q23 -16 22 -51q0 -2 -1 -7.5t-1 -9.5q0 -2 -4 -26q0 -6 -2 -18.5t-2 -18.5q-10 -76 -25 -332q-14 -246 -47 -504 q-4 -23 -28 -22q-22 0 -25 18l-27 336q-10 137 -10 156q0 10 -1 30.5t-1 28.5q0 39 -2 61q-4 78 -8 113l-5 62.5t-3 39.5q-2 25 -2 80z" />
<glyph unicode="&#x22;" horiz-adv-x="937" d="M115 1329q0 2 1 3l1 3q0 4 4 8q2 0 4 4.5t2 6.5l3 4q3 4 5 6l10 10l5 3q4 3 8 7l12 13l3 3q3 3 7 9t10 12q18 22 31 31q10 8 31 8q6 0 20 -6q6 -2 35 -27q18 -16 39 -43q18 -25 30.5 -65.5t12.5 -87.5q0 -70 -18.5 -131.5t-46.5 -102.5q-18 -27 -62 -69q-27 -27 -55 -41 q-25 -12 -39 -13q-12 0 -18 9q-8 12 -9 16q0 14 19 29q2 2 16 14t23 19q20 14 39 55q18 40 18 92q0 41 -16 78q-14 31 -35 49q-25 23 -41 31q-14 8 -35 28q-14 15 -14 35zM514 1329l2 6q0 4 4 8l2 5q2 4 4 6l11 10l10 10l10 10l12 13l23 24q23 27 29 31q10 8 30 8q4 0 21 -6 q6 -2 35 -27q18 -16 38 -43q18 -25 31 -65q14 -47 15 -88q0 -63 -21 -131q-18 -61 -47 -103q-23 -33 -59 -69q-25 -25 -58 -41q-25 -12 -39 -13q-12 0 -18 9q-8 12 -8 16q0 14 18 29q2 2 16.5 14l22.5 19q20 14 39 55q18 40 18 92q0 47 -14 78t-35 49q-25 23 -41 31 q-14 8 -35 28q-16 17 -16 35z" />
<glyph unicode="#" horiz-adv-x="1091" d="M121 285v6v24q0 4 8 13q6 6 21 6h167q6 0 7 4q10 78 20 147.5l14 98t4 30.5q0 10 -14 11h-194q-18 0 -27 8q-6 6 -6 32.5t6 34.5q6 10 27 11h208q16 0 19 14l45 342q6 41 8 45q8 14 45 14q41 0 41 -24q0 -12 -26.5 -190.5t-26.5 -190.5q0 -10 12 -10h201q16 0 18 14 l28.5 205.5t21.5 141.5l6 38l1 2l1 2q10 12 47 12q33 0 33 -20q0 -8 -25 -193q-6 -51 -13 -100t-10.5 -69.5t-3.5 -22.5q0 -10 11 -10h141q23 0 29 -13q8 -16 8 -39q0 -20 -8 -28q-6 -6 -23 -6h-166q-6 0 -10 -13q-37 -264 -37 -266q0 -12 14 -12h195q18 0 26.5 -8.5 t8.5 -32.5q0 -23 -8 -35q-6 -10 -27 -10h-201q-14 0 -16 -4q-4 -8 -6 -17l-25 -182q-18 -137 -28 -164q-16 -16 -41 -16q-39 0 -39 26q0 2 2 19.5t8 62.5l12 90q6 47 12.5 90.5t9.5 61.5t3 21q0 12 -15 12h-135q-14 0 -32.5 -1t-22.5 -1q-18 0 -23 -4q-6 -6 -6 -11 q-45 -342 -49 -350q-8 -16 -47 -16q-37 0 -37 26q0 6 25 172q23 152 22 170q0 14 -16 15h-143q-18 0 -25 8q-4 6 -4 29zM412 344q0 -10 16 -10h195q18 0 20 14q37 258 37 266q0 10 -12 11h-201q-14 0 -18 -15q-37 -264 -37 -266z" />
<glyph unicode="$" horiz-adv-x="1089" d="M131 197q0 2 4 39q4 35 15 65q12 39 28 39q18 0 33 -14q8 -8 33 -58q8 -14 17 -37.5t13 -29.5q31 -57 101 -103q68 -43 125 -43q20 0 20 31q0 78 4 295q2 109 2 283q0 29 -73 51l-78 28q-37 16 -72 43q-39 29 -63 64q-25 34 -43 86q-18 51 -19 115q0 145 100.5 247.5 t237.5 120.5q12 0 16 4q3 3 7 13q4 12 4 30v29q0 6 -1 14.5t-1 12.5q0 27 10 37t35 10q29 0 37 -8.5t8 -28.5q0 -8 -1 -23.5t-1 -21.5v-33v-14q0 -18 10 -19q72 -10 119 -28q61 -25 86 -41q31 -23 53 -47q23 -27 31 -39q8 -14 8 -23q0 -29 -22.5 -80t-39 -51t-26.5 23 q-33 74 -94 139q-57 61 -115 61q-18 0 -18 -39q0 -205 -5 -266q-6 -92 -6 -135q0 -31 4 -43q2 -8 23 -14q182 -51 274 -150q88 -94 88 -262q0 -82 -24 -152q-27 -76 -60 -116q-35 -43 -86 -82q-47 -35 -94 -58q-43 -20 -94 -32q-4 0 -12 -2q-25 -8 -27 -11q-4 -8 -4 -26v-39 v-66v-63q0 -57 -8 -71.5t-37 -14.5q-20 0 -29 6q-10 6 -12 14q-2 6 -2 23q0 59 2 106q0 18 1 41t2 35t1 19q0 39 -12 38q-98 0 -200.5 45.5t-149.5 102.5q-23 27 -23 74zM299 1104q0 -172 215 -227h2h2q18 0 19 34v203q0 41 1 106.5t1 92.5q0 25 -23 24q-14 0 -37 -8 q-35 -12 -57 -26q-35 -20 -60 -43q-23 -20 -45 -68q-18 -41 -18 -88zM600 82q0 -27 14 -27q12 0 21 2q29 8 37 11q41 14 51 20q23 10 53 39q35 31 51.5 57.5t34.5 83.5q14 45 15 111q0 55 -27 113q-27 55 -62 81q-45 35 -73 48q-51 23 -64 26q-6 2 -13 4t-10 3t-5 1 q-14 0 -15 -28q0 -55 -4 -272.5t-4 -272.5z" />
<glyph unicode="%" horiz-adv-x="1576" d="M121 705q0 82 29 159q33 86 81 154q53 72 131 117q82 47 166 47q43 0 78 -15q41 -16 62 -34l49 -43q23 -18 53 -35q29 -14 66 -15q41 0 71 11q45 14 76 32l72 43q35 23 69 52l60 51q8 6 21.5 18.5l29.5 26.5l33 33q16 16 37 16q18 0 18 -18q0 -20 -16 -43l-897 -1366 q-37 -55 -43 -66q-6 -8 -15 -12l-20 -4q-25 0 -47 16q-20 14 -21 33q0 2 1 6l1 4q0 6 2 10l4 8q3 3 7 13q0 2 2 5t4 5t2 4t3 6t7 10l14 19q2 2 4 6t5.5 9t7.5 9q8 10 12 19q2 6 6 10l338 486l219 307l152 209q43 57 43 65t-8 8q-2 0 -41 -22q-45 -27 -97 -45 q-61 -23 -112 -23q-25 0 -45 6q-4 2 -18.5 5.5t-20.5 5.5q-10 4 -17 4q-2 0 -2 -2q2 -6 2 -15q0 -4 1 -12t1 -12q0 -111 -22 -189q-23 -80 -82 -168q-14 -18 -45 -55q-12 -14 -57 -51q-33 -27 -84 -43q-45 -14 -105 -14q-33 0 -67 14q-27 10 -72 45q-37 28 -62 80 q-24 54 -24 115zM268 745q0 -113 33 -176t90 -63q66 0 119 69q51 66 76 164q23 88 22 195q0 84 -26 135q-29 53 -70 53q-76 0 -135.5 -59t-84 -141.5t-24.5 -176.5zM791 131q0 74 16 131q18 63 53 127q33 61 82 107q53 49 115 75q68 29 139 29q113 0 168 -70q53 -68 53 -182 q0 -88 -28 -172q-33 -98 -78 -164q-49 -72 -121 -123q-72 -49 -152 -49q-119 0 -184 84q-63 82 -63 207zM936 150q0 -115 33 -179q35 -66 90 -65q63 0 115 69q55 76 81 168q27 94 27 195q0 84 -29 139q-31 59 -73 60q-77 0 -136 -62q-59 -63 -83 -147q-25 -86 -25 -178z" />
<glyph unicode="&#x26;" horiz-adv-x="1937" d="M121 496q0 76 22 145q25 80 60 119q29 35 69 65q39 31 68 41q20 8 57 21q16 6 41 10q14 2 15 8q0 8 -15 29q-16 20 -35 47q-20 27 -34.5 76t-14.5 112q0 72 35 125q37 55 96 86q55 29 123 45q70 16 131 17q53 0 97 -12q59 -16 71 -23q27 -12 39 -12t23 2q20 4 22 4 q33 0 33 -47v-4q0 -4 1 -10.5t1 -14.5q2 -25 4 -57q2 -23 2 -54q0 -55 -4 -71q-3 -12 -18 -13q-10 0 -31 25l-49 59q-18 23 -64 68q-37 37 -80 59q-45 25 -98 25q-47 0 -90 -16q-35 -14 -59 -41q-22 -25 -31 -49q-10 -27 -10 -52q0 -33 20 -73q16 -33 49 -80q20 -29 80 -97 q18 -23 50 -55.5l38 -38.5l99 -98q184 -180 296 -277q143 -123 162 -122q12 0 25 18q10 16 20 57q8 35 9 97q0 46 -7 79q-6 33 -16 53.5t-27 37.5q-10 10 -28 22q-2 2 -13.5 7t-19.5 10q-4 2 -6 2q-8 4 -28.5 8t-26.5 4q-10 0 -16.5 6t-6.5 18q0 16 8 19q12 4 43 4 q14 0 46 -1t50 -1q8 0 78 -1t131 -1q39 0 39 -27q0 -14 -12 -20l-25 -13q-16 -4 -28 -24q-14 -25 -17 -57q-6 -59 -18 -162q-6 -45 -23 -84q-12 -31 -34 -76q-16 -33 -17 -37q0 -18 123 -94q131 -82 246 -139q41 -20 88 -21q6 0 39 4q16 2 35 2q27 0 26 -18q0 -37 -57 -57 q-55 -20 -141 -21q-82 0 -152 21q-72 20 -127 53t-90 59q-4 4 -62 53q-23 20 -28 21q-8 0 -31 -23q-18 -18 -63 -53q-51 -41 -95 -63q-59 -33 -147 -53.5t-203 -20.5q-59 0 -90 2q-33 2 -106 20q-61 15 -117 37q-57 23 -113 66q-61 47 -96 96q-43 59 -66 137q-24 85 -24 183 zM256 565q0 -57 20.5 -116.5t67.5 -124.5q39 -55 113 -115q66 -53 168 -84q109 -33 219 -33q55 0 110 12q66 14 97 29q45 20 71 37q41 25 49 33q16 16 17 20q0 8 -53 49q-51 39 -177 146q-115 98 -249 229l-58 58l-45 45l-35 36l-28 29q-6 4 -10.5 8t-10.5 10.5t-8 10.5 t-6 6q-4 4 -12 8l-9 4h-8q-31 0 -65.5 -20.5t-71.5 -57t-61 -94.5q-25 -59 -25 -125z" />
<glyph unicode="'" horiz-adv-x="538" d="M115 1329q0 2 1 3l1 3q0 4 4 8q2 0 4 4.5t2 6.5l3 4q3 4 5 6l10 10l5 3q4 3 8 7l12 13l3 3q3 3 7 9t10 12q18 22 31 31q10 8 31 8q6 0 20 -6q6 -2 35 -27q18 -16 39 -43q18 -25 30.5 -65.5t12.5 -87.5q0 -70 -18.5 -131.5t-46.5 -102.5q-18 -27 -62 -69q-27 -27 -55 -41 q-25 -12 -39 -13q-12 0 -18 9q-8 12 -9 16q0 14 19 29q2 2 16 14t23 19q20 14 39 55q18 40 18 92q0 41 -16 78q-14 31 -35 49q-25 23 -41 31q-14 8 -35 28q-14 15 -14 35z" />
<glyph unicode="(" horiz-adv-x="667" d="M150 569q0 129 22 260q18 113 61 226q39 104 82 184q46 86 93 147t88 107q45 49 69 68q27 20 39 20q43 0 43 -43q0 -8 -22 -35l-58 -59q-41 -41 -80 -88q-43 -52 -86 -129q-47 -84 -79 -166q-35 -88 -58 -221q-23 -135 -22.5 -272.5t20.5 -254.5q23 -129 57 -213 q41 -96 80 -168q45 -80 86 -133q59 -76 78 -96l58 -65q20 -23 20 -37.5t-14 -26.5q-16 -12 -27 -12q-18 0 -57 37q-43 41 -90 98q-53 68 -103 156q-52 95 -98 202q-45 106 -74 244q-28 139 -28 270z" />
<glyph unicode=")" horiz-adv-x="667" d="M20 -393q0 6 23 33q10 10 23.5 25.5t33.5 35.5q41 41 80 88q47 57 86 127q45 80 80 168q39 98 60 219q20 123 20 272q0 139 -20 256q-23 129 -58 213q-41 96 -80 168q-51 90 -84 134q-49 63 -78 94l-59 67q-20 23 -20 35q0 16 14 29q12 10 27 10q20 0 57 -35 q43 -41 90 -98q51 -63 102 -158q55 -102 99 -200q45 -106 73 -244q29 -139 29 -273q0 -127 -22 -258q-20 -123 -60 -225q-35 -92 -84 -184q-49 -94 -92 -150q-47 -61 -88 -106q-39 -41 -70 -66q-29 -23 -39 -22q-43 0 -43 45z" />
<glyph unicode="*" horiz-adv-x="882" d="M121 784q0 22 55 50q37 18 111 51q55 25 55 30q0 10 -55 35q-37 16 -111 54q-55 29 -55 47q0 20 18 45q20 27 47 26q18 0 99 -55q78 -53 88 -53t10 39q0 6 -1 16t-2 27.5t-1 31.5q-2 39 -2 86q0 27 10 35t43 8q49 0 62 -12q14 -14 14 -61l-4 -66q-4 -66 -4 -67 q0 -37 10 -37q8 0 92 55t96 55q23 0 45.5 -26.5t22.5 -44.5q0 -14 -57 -47q-55 -31 -110.5 -55.5t-55.5 -33t55 -32.5q37 -16 111 -54q57 -29 57 -47t-20.5 -44.5t-49.5 -26.5q-18 0 -98 55q-78 53 -86 53q-10 0 -10 -39q0 -35 2 -63q0 -10 1 -23.5t2 -20.5t1 -11 q0 -57 -12.5 -71.5t-61.5 -14.5q-25 0 -41 10q-14 8 -14 39q0 35 2 69q4 70 4 78q0 47 -10.5 47t-89.5 -53q-82 -55 -97 -55q-27 0 -47 26q-18 25 -18 45z" />
<glyph unicode="+" horiz-adv-x="1079" d="M63 434v23q0 6 11 12q8 6 26 6h349q27 0 36 10q8 8 9 29v360q0 20 8 27q6 4 35 4h26q6 0 14.5 -12t8.5 -29v-334q0 -27 6 -41t29 -14h362q23 0 29 -8q4 -6 4 -35q0 -20 -2 -26q-4 -10 -10 -15q-9 -6 -31 -6h-352q-16 0 -23 -4q-10 -6 -10 -12q0 -2 -1 -8.5t-1 -12.5v-358 q0 -15 -6 -25t-15 -10h-20q-37 0 -43 4q-8 6 -8 33v356q0 25 -11 31q-8 6 -39 6h-346q-25 0 -30 10q-5 6 -5 39z" />
<glyph unicode="," horiz-adv-x="512" d="M111 111q0 14 8 24q12 16 28 31q14 12 26.5 24.5t23.5 26.5q14 20 28 29q16 10 35 10q4 0 19 -8q15 -9 36 -31q20 -20 41 -51q20 -33 33 -72q12 -43 12 -94q0 -76 -28 -135q-33 -70 -70 -109q-37 -41 -80 -69q-39 -27 -59 -27q-8 0 -21 8q-10 6 -10 19q0 10 14 24 q18 18 31 29q18 15 37 37q23 27 33 53q12 35 12 72q0 33 -6 53q-6 23 -29 45l-32 33l-48 35q-14 10 -32 28q-2 3 -2 15z" />
<glyph unicode="-" d="M90 297v22v37q0 12 10 27q2 2 5.5 6t5.5 6t2 4q2 4 22 13q8 2 29 10q9 3 43 12q92 27 192 64l113 41q35 10 49 10q45 0 45 -70v-12q0 -18 -4 -35q-2 -8 -6 -20q-2 -8 -23 -15q-25 -8 -34 -12q-15 -6 -56 -18l-75 -23q-57 -18 -115 -39q-78 -27 -80 -29q-27 -10 -49 -16 q-20 -6 -41 -6t-27 10q-6 13 -6 33z" />
<glyph unicode="." horiz-adv-x="514" d="M111 113q0 23 63 80q14 14 25 28q14 18 30 33q12 10 31 10q16 0 84 -80l4 -4q4 -4 8 -9t11 -9l28 -29q10 -10 11 -20q0 -8 -11 -23q-8 -10 -30 -27q-22 -15 -31 -24q-6 -6 -23 -29l-30 -30q-12 -12 -25 -13q-18 0 -47 35t-35 41q-63 50 -63 70z" />
<glyph unicode="/" horiz-adv-x="849" d="M41 -348q0 14 4 24l18 48q14 35 17 45q627 1694 629 1699q6 23 18 29q16 8 41 8q43 0 43 -24q0 -10 -29 -90l-622 -1702q-16 -43 -29 -54q-14 -10 -37 -10q-53 0 -53 27z" />
<glyph unicode="0" horiz-adv-x="1083" d="M80 434q0 106 39 191q39 86 106 139q70 57 146 82q86 29 170 28q92 0 170 -26q76 -27 147 -82q66 -51 107 -141q39 -86 39 -203q0 -84 -29 -166q-27 -80 -84 -145q-53 -61 -141 -103q-84 -39 -195 -39q-119 0 -213 41q-96 41 -149 107q-57 70 -84 147q-29 82 -29 170z M195 424q0 -86 30.5 -153.5t83.5 -108.5q51 -39 115 -62q59 -20 131 -20q137 0 238 98q102 98 102 260q0 98 -55 180q-53 78 -133 115t-175 37q-70 0 -125 -20.5t-108 -63.5q-47 -39 -75.5 -108.5t-28.5 -153.5z" />
<glyph unicode="1" d="M41 25q0 20 27 28q18 6 63 10q39 4 68 21q33 20 39 51q18 106 18 211v88v76q0 6 1 25.5t1 31.5v47v76q0 27 -10 51.5t-19 32.5q-10 10 -30 17q-27 8 -43 10q-6 0 -14.5 1t-23 2t-24.5 1q-37 3 -37 31q0 23 43 22q4 0 59.5 -6t178.5 -6q100 0 139 4q59 6 76 6q20 0 35 -10 q12 -10 12 -20.5t-8 -18.5q-6 -6 -14 -10q-2 0 -5.5 -1t-8.5 -2t-9 -1q-10 -2 -23 -2q-4 -2 -13 -3.5t-13 -1.5q-20 -4 -24.5 -4t-11.5 -3q-5 -3 -9 -3q-10 -2 -18.5 -10t-14.5 -21q-6 -14 -10 -32q-2 -12 -6 -49q-2 -18 -2 -68q0 -2 -1 -17.5t-1 -27.5v-59 q0 -49 -2.5 -104.5t-2.5 -129.5v-47q0 -61 9 -86q10 -31 49 -45q47 -18 84 -21q31 -2 76 -14q35 -10 34 -27q0 -18 -12 -22q-16 -4 -45 -4t-121 6q-61 4 -141 4q-76 0 -131 -4q-82 -6 -107 -6q-57 0 -57 33z" />
<glyph unicode="2" horiz-adv-x="956" d="M59 16q0 14 13 21l45 22q45 20 65 33q166 100 258 191q106 104 144 176q41 82 41 149q0 59 -37 106.5t-82 67.5q-43 20 -86 21q-70 0 -94 -23q-27 -25 -27 -71q0 -20 16.5 -65.5t16.5 -55.5q0 -20 -27 -21q-51 0 -96 25q-47 25 -47 49q0 23 8 45q10 29 33 59q20 29 61 60 q35 27 100.5 45t145.5 18q117 0 197 -57q78 -55 77 -164q0 -88 -79 -192q-82 -106 -185 -189q-125 -102 -125 -119q0 -10 23 -14q14 -2 71 -2q201 0 291 27q31 12 49 32q29 33 39 48q16 23 25 22q25 0 25 -22q0 -10 -52 -105l-57 -104q-20 -29 -31 -33q-8 -4 -12 -4 q-2 0 -12.5 1t-16.5 1t-20.5 1t-24.5 1q-4 0 -39 1t-65 1h-193q-51 0 -117.5 -1t-84.5 -1h-78q-56 0 -56 20z" />
<glyph unicode="3" horiz-adv-x="827" d="M80 -279q0 66 37 66q6 0 22.5 -16.5t36.5 -34.5q23 -23 62 -37q45 -16 94 -16q80 0 147.5 49t102.5 121q35 74 34 139q0 98 -83.5 163.5t-219.5 65.5q-27 0 -41 -2q-22 -3 -36 -6q-16 -2 -17 -2q-9 0 -18 6q-8 6 -8 16.5t2 12.5l8 8q2 0 7 4t9 6l29 15l12 6t16.5 9 t16.5 11l61 41q61 45 109 111q49 68 49 149q0 63 -55 113q-57 51 -133 51q-35 0 -66 -10t-43 -23q-16 -16 -27 -22q-16 -10 -26 -10q-16 0 -19 4q-4 8 -4 16q0 18 35 53q31 31 98 62q63 29 121 28q37 0 72 -6q31 -6 70 -18q37 -12 63 -33q23 -16 43 -55q18 -35 18 -78 q0 -59 -36 -121q-41 -70 -76 -98l-78 -70q-37 -31 -37 -39q0 -2 23 -6q39 -6 59 -10q27 -6 72 -27q63 -31 106 -86q41 -53 41 -135q0 -88 -37 -170q-41 -92 -102 -162q-65 -74 -154 -123t-184 -49q-174 0 -174 74v41z" />
<glyph unicode="4" horiz-adv-x="1032" d="M20 29q0 18 17 41q12 16 110 125l508 561q2 2 7.5 8t11.5 14t9 11.5t6 7.5t7 8l23 22q16 16 22 21q9 6 19 6q23 0 22 -49q0 -2 -6 -143l-7 -139.5t-7 -157.5q-6 -156 -6 -199q0 -4 1 -8t1 -6q0 -6 10 -11q12 -4 25 -4q39 0 79 8q29 6 39.5 16.5t16.5 14.5q12 8 18 8 q2 0 5 -1t5 -1t11 -8q6 -6 6 -16q0 -14 -6 -29q-2 -6 -7.5 -19.5t-7.5 -21.5l-9 -21.5t-5 -11.5q-2 -2 -6 -16q-3 -12 -6 -19q-4 -8 -8 -14q-6 -9 -13 -12q-8 -4 -14 -4h-57q-14 0 -33 1t-23 1q-14 0 -22 -8q-6 -6 -6 -31q0 -6 4 -109q2 -51 2 -108l1 -3q1 -3 1 -8.5v-11.5 v-30q0 -16 -6.5 -28.5t-10.5 -14.5t-16 -7q-55 -14 -90 -14q-39 0 -39 29q0 12 2 20q3 12 6 31q4 18 6 88q2 47 2 180q0 33 -18 33q-57 0 -127 -2t-178 -2h-113q-27 0 -59.5 1t-38.5 1q-37 0 -45 4q-13 7 -13 27zM211 156q0 -16 16 -19q37 -6 62 -6h76h79q20 0 48 -1t34 -1 q49 0 74 4q18 2 18 17q6 289 7 407q0 49 -11 49q-14 0 -67 -59l-31.5 -35.5t-29 -31t-17.5 -19.5q-63 -78 -107 -125l-110 -123q-41 -43 -41 -57z" />
<glyph unicode="5" horiz-adv-x="698" d="M-96 -260v20q0 12 2 19q4 12 8 14q8 4 14 4q10 0 29 -14l33 -33q12 -12 41 -37q25 -20 59 -32q37 -12 82 -13q74 0 139 62q63 59 101 159q37 98 37 199q0 96 -25 156q-25 57 -107 114q-51 35 -92 48q-59 18 -78 20q-31 4 -49 12q-18 9 -18 31q0 18 6 35l16 39 q14 31 35 90q23 59 56 164q6 23 20 37q12 12 43 12q23 0 61.5 -2t90.5 -2h10h55q8 0 21.5 1t19.5 1h25q4 0 16 4l10 6q2 0 6 6l7 10l16 21q12 16 14 18t6 5.5t7 5.5q6 6 12 6q27 0 26 -23q0 -10 -6 -24q-2 -4 -32 -72l-21 -49l-5 -10.5t-5 -11.5t-2 -9q-4 -12 -10 -16 q-8 -4 -10.5 -4t-8.5 -1t-12 -1q-305 -4 -322 -11q-8 -2 -10 -10q-31 -71 -31 -92q0 -18 31 -31q35 -14 76 -22.5t102 -40.5q57 -31 101 -76q23 -23 57 -98q31 -68 31 -152q0 -86 -17 -149q-16 -66 -35 -105q-12 -25 -43 -78q-43 -70 -90 -116q-49 -47 -94 -76 q-45 -27 -96 -43q-57 -18 -86 -21q-49 -4 -72 -4q-37 0 -57.5 6t-59.5 29q-12 8 -20 55q-8 43 -8 70z" />
<glyph unicode="6" horiz-adv-x="1017" d="M90 522q0 120 37 240q33 106 104 219q66 104 144 184q70 74 166 142q76 53 164 84q90 31 137 30q31 0 30.5 -26.5t-20.5 -28.5q-92 -12 -154 -45q-66 -35 -149 -107q-51 -43 -107 -112q-51 -66 -77 -117q-12 -23 -48 -104q-12 -27 -28 -78q-8 -25 -8 -35q0 -8 6 -8t22 16 q8 6 19.5 17.5t25.5 21.5q20 18 76 39q43 16 111 16q178 0 282 -120q104 -119 105 -324q0 -96 -27 -176q-29 -84 -78 -150q-49 -63 -129 -102q-82 -39 -172 -39q-166 0 -311 150q-121 126 -121 413zM256 535q0 -117 20 -205q20 -92 52 -146q33 -57 71 -94q37 -35 78 -51 q35 -14 76 -14q47 0 82 18t76 59q39 39 59 101q25 74 25 143q0 43 -13 96q-12 55 -37 115q-23 55 -63 111q-35 47 -96 82q-57 33 -131 32q-37 0 -70 -12q-35 -12 -88 -51q-10 -8 -21 -19q-8 -8 -14 -49q-6 -42 -6 -116z" />
<glyph unicode="7" horiz-adv-x="1026" d="M47 -358q0 20 193 274l381 502q190 250 190 268q0 23 -125 23h-160q-16 0 -42.5 -1t-34.5 -1q-47 0 -78 -2q-39 -2 -78 -11q-35 -6 -64 -18q-35 -14 -51 -31q-14 -14 -22 -45q-2 -4 -11 -12q-6 -6 -16 -6t-14 4q-6 6 -6 12q0 25 16 111q18 96 18 106q4 29 90 29 q14 0 190.5 -4t209.5 -4q119 0 192 6q82 6 93 10q20 6 28 12q6 4 19 4q10 0 16 -6t6 -16q0 -18 -67 -121l-547 -807q-31 -45 -80 -129q-33 -55 -45 -88q-6 -16 -10.5 -29.5t-8.5 -21.5q-10 -25 -14 -29q-6 -6 -16 -6h-7.5t-14.5 1t-19 1q-12 0 -35 1t-31 1q-45 0 -45 23z " />
<glyph unicode="8" horiz-adv-x="1024" d="M80 367q0 78 29 145q28 65 67 98q49 43 78 58q51 27 68 34q29 12 28 15q0 3 -24 18q-8 4 -58 41q-31 23 -67 60q-31 31 -58 90q-23 51 -22 118q0 158 104.5 260.5t266.5 102.5q176 0 274 -92q96 -90 96 -242q0 -74 -18 -121q-20 -53 -49 -88q-20 -25 -58 -53 q-39 -31 -47 -35q-20 -12 -20 -16q0 -6 20 -19l23.5 -15l27.5 -17q33 -18 66 -47q35 -31 65 -66q29 -35 52 -92q20 -53 20 -119t-14 -121q-16 -66 -47 -114q-37 -59 -80 -100.5t-121 -67.5q-76 -27 -158 -27q-160 0 -250 51q-88 51 -143 150q-51 94 -51 211zM170 369 q0 -154 98.5 -252.5t243.5 -98.5q65 0 117 18.5t86 49.5q33 31 57 70q27 43 35 77.5t8 75.5q0 61 -28.5 116.5t-77.5 100.5q-51 47 -95 80q-47 35 -90 56q-41 18 -59.5 18t-44.5 -6q-41 -8 -74 -25q-47 -23 -82 -51q-39 -33 -65 -92q-29 -63 -29 -137zM240 1094 q0 -46 30 -93q37 -53 72 -81q37 -31 94 -62q39 -23 88 -41q37 -14 58 -14q16 0 51 18q31 16 69 49q33 27 60 88q25 55 24 121q0 39 -16 78q-20 47 -49 84q-39 49 -90 74q-61 29 -125 28q-68 0 -123 -26q-57 -27 -100 -86t-43 -137z" />
<glyph unicode="9" horiz-adv-x="995" d="M80 387q0 74 16 133q20 74 54 129q39 68 83 111q45 45 119 76q70 29 148 28q131 0 227 -71q100 -74 143 -183q45 -111 45 -254q0 -195 -92 -379q-94 -188 -274 -311q-71 -49 -160 -67q-90 -18 -156 -19q-4 0 -10 1t-8 1q-8 0 -14 10.5t-6 22.5q0 16 12 22.5t41 6.5 q51 0 119 26q66 27 149 97q78 66 131 155.5t53 128.5q0 4 -4 4t-12 -8q-2 -2 -27 -18q-12 -8 -41 -23q-23 -10 -63 -20q-35 -8 -88 -9q-94 0 -170 35q-78 37 -123 92q-39 49 -68 132q-24 71 -24 151zM223 492q0 -96 41 -195q41 -100 113 -162q76 -66 162 -65q39 0 55 4 q29 8 57 22q33 18 58 45q23 27 39 80q18 63 18 121q0 201 -98 324q-100 125 -217 125q-90 0 -158 -80q-70 -82 -70 -219z" />
<glyph unicode=":" horiz-adv-x="532" d="M121 113q0 6 2 8l2 4q2 4 4 6q4 6 10 12q3 6 13 13l7 7l5 5q6 4 14 12q10 10 15 13q10 6 24 26q15 22 31 31q16 10 31 10q4 0 12 -4q6 -3 12 -12q2 -2 7 -8.5t7 -8.5q6 -8 17 -20q12 -16 18 -23l4 -4q4 -4 8.5 -9t10.5 -9q18 -16 28 -29q10 -14 11 -20q0 -8 -11 -23 q-8 -10 -30 -27q-22 -15 -31 -24q-6 -6 -23 -29q-4 -6 -28 -30q-12 -12 -25 -13q-20 0 -49 35t-35 41q-61 43 -61 70zM135 688q0 25 62 76q14 14 22 27q4 6 27 28q12 12 28 12q10 0 74 -75q10 -10 21 -19q12 -8 24 -26q8 -10 8 -25q0 -6 -6 -16q-4 -6 -14 -17q-2 -2 -9 -8 l-12 -10q-8 -6 -12 -11.5t-8 -7.5q-14 -14 -23 -26q-12 -18 -24 -31q-10 -10 -27 -10q-14 0 -26 12q-18 18 -27 33q-14 25 -16 27q-14 14 -27 24q-23 18 -27 25q-8 12 -8 18z" />
<glyph unicode=";" horiz-adv-x="536" d="M121 700q0 18 63 76q8 8 20.5 26.5t25 31t32.5 12.5l8 -4q4 -2 11 -8q2 -2 6 -4.5t6 -6.5q8 -8 12 -14q2 -2 6 -7t6 -7q4 -6 11 -15q4 -6 10 -12q12 -12 22 -20q12 -10 25 -27q10 -14 10 -25q0 -8 -6 -16q-4 -6 -14 -16q-2 -2 -9.5 -8.5t-11.5 -10.5q-6 -4 -9 -8t-5 -6 t-6 -4q-2 -2 -23 -27q-16 -18 -28 -29q-16 -12 -27 -12q-14 0 -28.5 14.5t-24.5 33t-19 26.5q-4 4 -28 24q-12 10 -27 25q-8 8 -8 18zM125 111q0 14 8 24q12 16 29 31l28 24q6 6 20.5 27t29.5 29q16 10 34 10q6 0 21 -8q10 -6 35 -31q20 -20 41 -51q23 -33 32 -72 q14 -49 15 -94q0 -68 -31 -135q-31 -66 -72 -111q-43 -45 -79 -71q-39 -27 -62 -27q-8 0 -16 8t-8 23q0 12 12 24q18 18 31 29q25 20 38 37q20 23 31 53q12 35 12 72q0 55 -26 88q-31 37 -86 78q-20 14 -35 28q-2 3 -2 15z" />
<glyph unicode="&#x3c;" horiz-adv-x="1079" d="M84 432q0 20 4 27q2 4 27 14l649 238q193 70 194 69q39 0 39 -51q0 -23 -32 -33l-625 -227q-86 -34 -86 -43q0 -2 4 -6q2 -2 14 -6q2 0 8.5 -4t10.5 -4t10 -3.5t14.5 -5.5t14.5 -5t10 -3l635 -229q23 -10 22 -27q0 -18 -12 -33q-12 -16 -37 -16q-14 0 -272 96l-563 205 q-20 6 -25 16q-4 13 -4 31z" />
<glyph unicode="=" horiz-adv-x="1079" d="M63 233v23q0 8 11 14q8 6 26 6h883q23 0 29 -10q4 -6 4 -33q0 -23 -2 -28q-4 -10 -10 -15q-9 -6 -31 -6h-875q-25 0 -30 11q-5 5 -5 38zM63 635v22q0 6 11 13q8 6 26 6h883q23 0 29 -8q4 -6 4 -35q0 -23 -2 -29q-4 -10 -10.5 -14t-30.5 -4h-875q-25 0 -30 8q-5 6 -5 41z " />
<glyph unicode="&#x3e;" horiz-adv-x="1079" d="M84 133q0 18 20 27l637 229q4 0 10.5 3t14.5 5t13 5.5t9 3.5q2 0 10.5 4t10.5 4q12 4 14 6q4 4 4 6q0 9 -86 43l-626 227q-31 8 -31 33q0 51 37 51q4 0 196 -69l648 -238q25 -10 26 -14q6 -8 6 -26.5t-4 -31.5q-4 -10 -26 -16l-561 -205q-258 -96 -275 -96q-25 0 -37 16 q-10 13 -10 33z" />
<glyph unicode="?" horiz-adv-x="714" d="M154 1253q0 33 65 80q63 45 148 45q63 0 131 -26q59 -23 102 -80q41 -53 41 -127q0 -61 -29 -121q-37 -78 -71 -127l-86 -123q-35 -49 -72 -131q-29 -63 -29 -129q0 -18 6 -53q4 -23 5 -41q0 -20 -17 -21q-29 0 -47 58t-18 104q0 57 47 174l94 223q47 113 47 164 q0 41 -22 76q-20 33 -52 51q-35 20 -61.5 28.5t-50.5 8.5q-27 0 -52 -12q-20 -10 -40 -27q-16 -12 -21 -12q-12 0 -14 6q-4 8 -4 12zM199 121q0 18 73 84l4 4q4 4 9.5 9l11.5 11q18 22 31 31q14 10 24 10q8 0 25 -16q4 -4 9 -10t10 -13.5t10 -11.5q10 -12 18 -20.5t20 -18.5 q25 -20 35 -30q14 -14 15 -23q0 -16 -12.5 -28.5t-31 -25t-26.5 -20.5q-6 -8 -23 -28q-4 -8 -28 -31q-12 -12 -25 -12q-10 0 -39 22q-12 10 -43 45q-6 6 -36.5 31t-30.5 41z" />
<glyph unicode="@" horiz-adv-x="1679" d="M90 586q0 137 35 264q33 119 92 207q57 86 133 151q74 63 158 107q84 41 164 67q76 25 151.5 35t124.5 10q141 0 264 -49q119 -47 203 -135q84 -86 129 -199q47 -117 47 -241q0 -113 -39 -211q-41 -104 -102 -172q-68 -74 -149.5 -115t-176.5 -41q-55 0 -88 17 q-39 18 -49 41q-16 33 -20 49t-9 41q-2 16 -6 16t-22 -20l-45 -50q-23 -27 -64 -59q-35 -29 -86 -51q-47 -20 -100 -21q-98 0 -143 56q-47 57 -48 143q0 90 39 188q41 104 103 187q59 80 153 141q88 57 179 57q33 0 90 -10q47 -8 57 -8q12 0 25 20q2 4 28 41q14 20 33 21 q16 0 16 -39q0 -8 -24 -106q-33 -131 -51 -224q-25 -123 -25 -190v-27q0 -51 20.5 -86t63.5 -35q156 0 256 117q100 115 100 340q0 127 -43 231q-41 102 -120.5 168t-178.5 103q-96 35 -215 35q-199 0 -368 -90q-166 -88 -269 -261q-100 -170 -100 -391q0 -188 82 -341.5 t229.5 -237.5t341.5 -84q82 0 156 12q59 10 121 33q45 16 86 41l55 32q25 14 29 15q23 0 22 -25q0 -10 -22 -33q-29 -29 -68 -49q-66 -35 -104 -49q-61 -23 -140 -37q-88 -16 -172 -16q-160 0 -294 49q-137 49 -234 137q-100 92 -156 226q-55 135 -55 305zM582 465 q0 -61 34 -90q39 -33 92.5 -33t112.5 37q49 31 74 61q10 14 25 47q4 10 26 88q82 303 82 318q0 12 -45 27q-43 14 -82 14q-29 0 -76 -21q-37 -16 -84 -59q-49 -45 -79 -92q-35 -51 -58 -133q-22 -80 -22 -164z" />
<glyph unicode="A" horiz-adv-x="1662" d="M41 16q0 27 31 39q43 18 59 35q27 27 57 80q37 63 95 184l153 330l348 752q14 27 27 37q14 10 34.5 10t26.5 -10q4 -6 25 -64q39 -117 96 -256l226 -535q162 -381 176 -405q25 -51 63 -90q34 -34 62 -43q37 -12 53 -14q23 -2 37 -11q12 -6 12 -28q0 -31 -55 -31 q-23 0 -88.5 6t-96.5 6q-14 0 -100 -4t-90 -4q-51 0 -82 6q-16 4 -16 23q0 12 16 22q14 8 34.5 12.5t37.5 20.5q14 14 14 41q0 45 -51 184q-57 154 -86 205q-2 4 -7 10t-5 8q-2 4 -23 11q-18 6 -49 6q-37 0 -90.5 -2t-157.5 -2h-109q-76 0 -94 -4q-25 -6 -39 -17 q-10 -8 -24 -39q-6 -12 -9 -19t-11.5 -23.5l-20.5 -41.5l-37 -82l-27 -59q-12 -31 -20 -57q-6 -23 -6 -37q0 -41 16 -63.5t37 -28.5q27 -8 45 -11q10 -2 37 -12q16 -6 16 -24q0 -16 -6 -22.5t-29 -6.5h-69q-20 0 -54 1t-47 1q-27 0 -100.5 -4t-75.5 -4q-59 -1 -59 24z M555 692q0 -27 18.5 -33t85.5 -6h64l195 2q80 0 79 33q0 29 -100 254t-127 225q-18 0 -117 -225q-98 -227 -98 -250z" />
<glyph unicode="B" horiz-adv-x="1288" d="M41 1421q0 16 4 23q6 8 14 8h27q6 0 23.5 -1t31.5 -1q6 0 61.5 1t102.5 1h135q20 0 119 4q49 2 107 2q88 0 168 -22q78 -23 137 -64q63 -45 96 -106q35 -66 35 -150q0 -57 -22.5 -112.5t-51.5 -85.5q-27 -29 -59.5 -55.5t-50.5 -37.5q-20 -12 -21 -14q0 -4 25 -14l61 -21 q47 -16 80 -37q51 -33 82 -63q37 -37 61 -103q25 -65 25 -147q0 -86 -53 -188q-51 -98 -119 -148q-92 -66 -168 -86q-74 -20 -189 -20q-82 0 -217 12q-113 10 -149 10q-2 0 -80 -4t-96 -4h-13h-16q-43 0 -43 31q0 29 23 28q4 0 12 1t14 1h21q16 0 26 9q8 6 27 28 q14 18 25 60q12 51 14 94q6 119 6 639v348q0 14 -2 25q-2 12 -12.5 38.5t-28.5 45.5q-25 25 -53 36q-35 14 -84 15q-35 -1 -35 24zM412 188q0 -43 18 -67q20 -27 55 -39q29 -10 64 -14q18 -2 63 -2h47q109 0 177 10q96 16 157 98q63 86 64 203q0 66 -21 131q-18 57 -47 96 q-27 37 -69 66q-31 20 -78 41q-29 12 -78 22q-12 2 -66 10q-14 2 -43 2q-23 0 -58.5 1.5t-47.5 1.5h-55q-4 0 -10.5 1t-8.5 1h-10q-27 0 -35 -15q-12 -27 -16 -233v-84v-17q0 -27 -1 -67.5t-1 -54.5v-68v-23zM424 1116v-160q0 -47 4 -88q0 -8 10 -37q4 -10 13 -10 q46 -6 104 -6h131q129 0 195 68q63 66 63 174q0 39 -14 80q-16 47 -47 88q-31 43 -78 79.5t-119 59.5q-74 23 -156 22q-43 0 -63.5 -14t-32.5 -59q-10 -39 -10 -137v-60z" />
<glyph unicode="C" horiz-adv-x="1652" d="M90 664q0 160 51 309q47 141 146 254q90 106 245 172q147 63 334 63q82 0 160 -14q72 -14 145 -39q61 -22 111 -43q16 -6 80 -39q29 -14 35 -14t20.5 10t22.5 10q12 0 20 -8q10 -10 10 -25q4 -82 9 -124q2 -29 14 -111q6 -43 6 -51q0 -37 -24 -37q-18 0 -35 29 q-92 176 -237.5 274t-336.5 98q-169 0 -301 -73q-129 -72 -207 -209q-76 -133 -75 -310q0 -111 22 -219q20 -102 73.5 -198.5t129.5 -163.5q84 -74 192 -111q119 -41 263 -41q78 0 141 21q70 23 119 51q52 31 98 74q51 49 80 82q27 31 57 79q8 14 31 15q18 0 18 -29 q0 -27 -4 -47q-2 -8 -5 -26.5t-5 -28.5l-14 -58q-6 -37 -9 -41q-8 -25 -32 -36l-131 -62q-27 -12 -115 -43q-76 -27 -137 -35q-76 -10 -146 -10q-123 0 -239 23q-109 20 -193 61q-96 47 -149 92q-72 61 -111 116.5t-72 131.5q-31 72 -43 139q-12 71 -12 142z" />
<glyph unicode="D" horiz-adv-x="1622" d="M41 1434q0 16 18 20q25 4 86 4h179q4 0 188 4t211 4q117 0 225 -26q119 -29 219 -82q106 -57 187 -133q80 -78 129 -187q49 -111 49 -239q0 -123 -14 -209q-14 -90 -37 -156q-18 -57 -66 -121q-45 -61 -80 -96q-37 -37 -100.5 -88t-175.5 -92q-117 -43 -242 -43 q-12 0 -209 6q-131 4 -282 4q-92 0 -133 -4q-61 -6 -72 -6q-31 0 -39 6q-10 6 -10 20.5t6 20.5t14 10q12 6 23 8q20 4 28 9q31 14 59.5 55t28.5 78q0 33 1 130t1 163v262v229q0 55 -1 151.5t-1 139.5q0 31 -34 70q-33 35 -74 38q-53 2 -68 15q-14 8 -14 35zM403 289 q0 -10 1.5 -27.5t1.5 -23.5q0 -27 2 -39q2 -8 8 -29q4 -12 12 -20q12 -12 16 -15q12 -6 25 -10l31 -10l41 -11l49 -14q63 -20 149 -20h41q141 0 238 39q98 39 188 127q78 74 115 204q37 129 37 267q0 132 -43 245t-113 189q-74 80 -162 133q-92 55 -190 79.5t-195 24.5h-65 q-12 0 -53 -4t-43 -4q-8 0 -29 -10q-23 -12 -25 -14q0 -2 -5 -10.5t-9 -14.5q-10 -20 -10 -33q0 -2 -4 -43q-2 -20 -2 -55v-72q0 -4 -1 -75.5t-1 -137.5q0 -49 -1 -92t-1 -64.5v-23.5v-266v-79t-1.5 -61.5t-1.5 -29.5z" />
<glyph unicode="E" horiz-adv-x="1236" d="M41 1432q0 29 57 28q2 0 11.5 -1t15.5 -1t15.5 -1t13.5 -1q6 0 192 -6q125 -4 307 -4q12 0 40 1t78 2t95 1q47 0 94.5 1t71 2t31.5 1q39 0 39 -47q0 -14 -12.5 -82t-12.5 -127q0 -16 -10 -30.5t-22.5 -14.5t-20.5 12q-10 14 -10 31q0 59 -35 100q-39 45 -86 47 q-201 14 -283 15h-53h-51q-8 0 -37 -4l-16.5 -4t-10.5 -2q-4 0 -14 -14.5t-10 -18.5l-4 -33q-2 -16 -2 -43v-6q-6 -150 -9 -342q0 -100 39 -105h52h41h45h63q129 0 164 9q40 9 74 30q20 14 32 37q10 18 15 37q4 16 8 27q6 10 20 10q16 0 23 -6q4 -4 4 -26.5t-8 -94.5 t-8 -121q0 -51 2 -74q4 -45 4 -51q0 -51 -15 -51q-18 0 -30 18q-8 14 -17 43q-4 18 -18 50q-12 27 -31 39q-45 29 -196 28h-101q-16 0 -33 1l-16 1h-16h-15q-84 0 -84 -39q0 -90 -2 -149.5t-2 -145.5v-41v-41q0 -57 13 -106q12 -45 36 -55q55 -16 89 -17q127 0 210.5 8.5 t155.5 22.5q59 12 107 31q51 20 67 35l41 36q14 14 22.5 31t14.5 23q8 8 18 8q25 0 25 -35q0 -88 -88 -178t-154 -90q-180 0 -333.5 10t-229.5 10q-47 0 -143 -10q-76 -8 -135 -8h-23q-6 0 -12 6q-8 8 -8 14v25q0 8 6 10q8 4 14 4q2 0 27 8q29 10 41 17q34 15 49 49 q18 43 24 111q6 80 7 237v254q0 16 4 172q2 78 2 182q0 113 -4 187q-2 59 -52 92q-45 31 -114 35q-15 0 -25 6q-8 6 -8 12v19z" />
<glyph unicode="F" horiz-adv-x="1132" d="M41 1427q0 8 2 12.5t16 14.5q10 8 35 8h56q47 0 157.5 -6t286.5 -6q182 0 258 4q115 6 207 6q35 0 35 -49q0 -8 -4 -45q-3 -28 -13 -74q-4 -18 -8 -52t-4 -38q-6 -41 -31 -41q-29 0 -28 41q0 57 -23 98q-20 39 -72 43q-319 25 -368 25q-41 0 -56 -2q-18 -2 -36 -10 q-15 -6 -25 -13q-10 -6 -12 -22q-4 -25 -4 -27t-1 -15t-1 -24q0 -4 -1 -10t-1 -8q-2 -76 -7 -342q0 -100 37 -102q6 0 22.5 -1t28.5 -1h43q10 0 24.5 1t20.5 1h64q127 0 162 8q45 10 73 28q20 14 33 37q12 22 13 37q0 10 8 27q6 10 24 10q16 0 23 -6q4 -4 4 -27 q0 -6 -10 -71q-8 -51 -8 -99q0 -37 6 -96l4 -32.5t3 -26t1 -13.5q0 -20 -4 -37q-2 -8 -10 -12q-4 -2 -15 -2q-25 0 -35 19q-10 20 -10 45q0 23 -10 49t-33 37q-25 10 -102 20q-66 8 -97 8h-98h-49h-18h-13q-84 0 -84 -39q0 -88 -2 -147t-2 -148v-40q0 -10 -1 -24.5t-1 -16.5 q0 -27 6 -57.5t21 -67.5q14 -39 51 -63.5t86 -24.5q35 0 47 -11q14 -12 14 -26.5t-14 -26.5q-15 -12 -49 -12q-39 0 -102.5 8t-96.5 8q-55 0 -126.5 -6t-121.5 -6h-20q-8 0 -14 6t-6 16q0 27 10 33q8 6 78 31q53 18 65 104t12 371q0 41 1 98.5t1 75.5q0 86 3 166 q4 160 4 190v119q0 23 -4 51q-4 23 -13 48q-10 29 -28.5 47t-51.5 34q-20 10 -45 11q-28 0 -43 6q-14 6 -14 24z" />
<glyph unicode="G" horiz-adv-x="1673" d="M90 674q0 168 51.5 309t151.5 254q94 106 252 172q152 63 346 64q102 0 182 -15q90 -16 144 -37q51 -20 94 -43q49 -27 63 -37q20 -14 27 -14q4 0 26 16q20 14 31 15q29 0 31 -41q2 -39 10 -125q6 -68 12 -109q6 -43 7 -51q0 -35 -25 -35q-23 0 -35 25 q-70 154 -239.5 262.5t-346.5 108.5q-119 0 -229 -41q-106 -39 -188 -115q-80 -74 -127 -193q-45 -115 -45 -258q0 -111 24 -219q25 -106 78 -200q51 -90 125 -164t170 -113q100 -41 211 -41q154 0 285 72q127 70 143 164q6 55 6 258q0 55 -14 86q-15 34 -37 43 q-12 4 -49 14q-25 6 -47 6q-20 0 -37 10.5t-17 33t37 22.5q29 0 115 -6q57 -4 113 -4h88h77l29 2q33 0 33 -19q0 -14 -27 -24q-10 -4 -51 -27q-31 -16 -33 -43q-14 -88 -14 -229q0 -96 2 -132q2 -49 6 -71q2 -14 2 -27q0 -8 -16 -14q-8 -2 -49 -14q-31 -8 -64 -27l-20 -12 l-43 -25l-58 -31q-27 -14 -73 -32q-53 -20 -82 -29q-33 -10 -92 -21q-43 -8 -95 -8q-176 0 -321 41q-143 41 -234 107q-92 68 -153 159q-61 90 -86 193q-25 98 -25 209z" />
<glyph unicode="H" horiz-adv-x="1617" d="M41 1432q0 23 57 22l95 -4q94 -4 137 -4q49 0 73.5 2t106.5 2q45 0 45 -29q0 -16 -12 -26q-10 -8 -60 -9q-29 0 -47 -49q-18 -47 -24 -104q-6 -53 -6 -103v-40v-35q0 -72 -2.5 -113t-2.5 -76q0 -53 13 -65q14 -14 57 -15h4h10.5t15.5 1t22.5 1h27.5h256h55q10 0 53 -1 t76 -1q29 0 96.5 -1t106.5 -1q12 0 16 17q6 27 7 268v53v58q0 68 -13 110q-12 41 -32.5 61.5t-41.5 28.5q-25 10 -40 11q-23 0 -33 8q-12 10 -13 26q0 20 80 21q43 0 88 -2t111 -2q39 0 71.5 2t88.5 2q47 0 47 -26.5t-29 -26.5q-57 0 -86 -35q-31 -37 -31 -92 q-6 -393 -6 -498q0 -80 -2 -149.5t-2 -157.5v-76q0 -45 4 -114.5t4 -73.5q0 -131 172 -152q25 -4 25 -22q0 -14 -23 -19q-29 -4 -77 -4q-39 0 -74 4q-53 6 -84 6q-39 0 -90 -6q-35 -4 -103 -4q-39 0 -59 4q-14 2 -14 23q0 14 20 22q29 12 45 17q27 6 47 24q23 20 29 43 q14 74 14 150q0 6 1 25.5t1 33.5v51q0 63 2.5 118.5t2.5 133.5q0 31 -23 43q-25 12 -107 12q-8 0 -26.5 -1t-52 -2t-62.5 -1l-110 -2q-51 0 -203 4q-76 2 -174 2q-29 0 -41 -12q-10 -10 -10 -63q0 -23 -4.5 -133.5t-4.5 -118.5v-88q0 -86 16.5 -131t80.5 -84q16 -10 88 -11 q10 0 26 -8q12 -6 13 -14q0 -37 -66 -37q-47 0 -100.5 4t-69.5 4q-58 0 -123 -6q-43 -4 -98 -4q-33 0 -62 4q-23 2 -28 10q-6 6 -6 17q0 16 12 22q14 6 33 10q12 2 41 11q18 6 39 28q16 18 26 60q8 37 17 207q10 195 10 340v116q0 6 1 40t1 63v118q0 156 -12 244 q-6 52 -56 80q-51 29 -98 29q-20 0 -33 12q-10 11 -10 23z" />
<glyph unicode="I" horiz-adv-x="671" d="M41 1423q0 31 57 31q47 0 94.5 -4t137.5 -4q49 0 73.5 2t106.5 2q55 0 55 -29q0 -12 -20 -24q-2 -2 -74 -31q-66 -27 -65 -236q0 -348 -3 -489q0 -55 -1 -118.5t-2 -98.5t-1 -51q0 -96 12.5 -151.5t39.5 -96.5q43 -63 98 -64h20h10.5t7.5 -1l3 -1q8 0 28 -8q14 -6 15 -14 q0 -25 -12.5 -31t-38.5 -6q-43 0 -113 4t-82 4q-59 0 -127 -6q-45 -4 -98 -4q-33 0 -62 4q-16 2 -24 10q-6 6 -6 17q0 16 12 22q14 6 33 10q12 2 41 11q18 6 39 28q16 18 26 60q4 16 12 231q10 242 11 316v116v103q0 27 1 66.5t1 51.5v95q0 80 -8 149q-6 51 -53.5 76 t-100.5 29q-43 3 -43 30z" />
<glyph unicode="J" horiz-adv-x="593" d="M-92 -315q0 33 22 71q23 41 41 41q12 0 23 -10q8 -8 20 -25q10 -14 28.5 -24t47.5 -10q111 0 141 159q27 154 27 248v84q0 20 -1 59t-1 56v53l-2 139q-4 188 -4 559q0 143 -8 203q-2 31 -33 58q-25 23 -59 32q-20 6 -64 11q-28 0 -37 12q-8 10 -8 24q0 35 59 35 q23 0 94.5 -6t137.5 -6q49 0 67 2q8 1 24 1q8 0 32.5 -0.5t42.5 -0.5q57 0 57 -27q0 -12 -23 -24q-20 -12 -71 -33q-43 -18 -43 -139v-94q0 -125 -1 -309.5t-1 -245.5v-279q0 -23 -1 -54.5t-1 -41.5v-62q0 -113 -35 -217q-33 -98 -94 -170q-59 -70 -135 -108.5t-160 -38.5 q-18 0 -27 2q-16 4 -26 8q-12 6 -23 25q-6 12 -6 43z" />
<glyph unicode="K" horiz-adv-x="1482" d="M41 1423.5q0 26.5 57 26.5q47 0 94.5 -2t137.5 -2q47 0 67.5 2t108.5 2q35 0 35 -27q0 -8 -11 -14q-4 -4 -30 -14q-14 -6 -31 -15q-63 -37 -63 -250q0 -141 -3 -210q0 -31 -1 -57.5t-2 -39.5l-1 -12q0 -23 4 -35q2 -8 15 -8q8 0 104 78q70 55 207 172q111 96 205 192 q92 96 92 131q0 14 -6 22.5t-21 14.5l-24 8l-29 7q-11 2 -18 5q-3 1 -4 1q-23 4 -23 28q0 23 33 23l8 -1q8 -1 14 -1h29q18 0 47 -2t76 -2l254 6q41 0 41 -27q0 -10 -6 -16q-8 -8 -17 -10q-4 0 -11 -4t-11 -4l-16.5 -5.5t-18.5 -5.5q-25 -6 -39 -14q-6 -2 -15 -7t-12 -7 q-14 -6 -38 -23q-14 -8 -22.5 -14t-12.5 -10q-16 -10 -101 -82l-487 -410q-23 -18 -23 -28.5t23 -32.5l461 -457q168 -162 231 -197q40 -22 86 -30q55 -10 62 -17q8 -12 8 -20q0 -18 -17 -23q-20 -4 -102 -4h-199q-6 0 -12 1t-8 1q-4 0 -16 6q-6 3 -19 19l-27 30l-47 54 l-69 73l-426 432q-51 45 -70 46q-29 0 -29 -56v-8v-16q0 -4 1.5 -13.5t1.5 -15.5v-45v-59q0 -266 30 -324q37 -66 137 -66l4 -1q3 -1 5 -1h8q8 0 28 -8q14 -6 15 -14q0 -25 -12.5 -31t-38.5 -6q-43 0 -113 4t-82 4q-59 0 -127 -6q-45 -4 -98 -4q-29 0 -49 4q-18 4 -21 6 q-4 4 -4 12v9q0 12 18 18l50 14q35 12 45 25q29 29 35 133q8 139 8 330v274q0 6 -1 40t-1 63q0 27 -1 66.5t-1 51.5v95q0 98 -7 149q-6 45 -53 74t-96 31q-43 4 -43 30.5z" />
<glyph unicode="L" horiz-adv-x="1234" d="M41 1423q0 18 18 29q16 8 37 8q2 0 11.5 -1t15.5 -1t15 -1t14 -1q41 0 77.5 -4t100.5 -4q88 0 135 4t80 4q14 0 26 -4q8 -2 9 -16q0 -23 -11 -31q-16 -12 -30 -12q-18 0 -37 -9q-29 -12 -41 -22q-18 -14 -33 -51q-12 -31 -16 -97q-4 -127 -11 -442q-6 -362 -6 -414v-41 v-41q0 -57 13 -106q12 -45 36 -55q55 -16 88 -17q127 0 211 8.5t156 22.5q59 12 107 31q51 20 67 35l41 36q14 14 22.5 31t14.5 23q8 8 18 8q25 0 25 -35q0 -88 -88 -178t-154 -90q-180 0 -333.5 10t-229.5 10q-68 0 -133.5 -8t-122.5 -8q-31 0 -45 6t-14 18q0 16 10 24.5 t22 8.5q33 0 60 20.5t39 49.5q14 35 22 115q8 76 9 237v254q0 16 4 172q2 78 2 182q0 113 -4 187q-2 59 -52 92q-45 31 -114 35q-18 0 -27 8q-4 4 -4 20z" />
<glyph unicode="M" horiz-adv-x="1880" d="M41 1423q0 31 37 31q25 0 55.5 -4t52.5 -4q49 0 84 2t70 2q37 0 49 -29l88 -192l103 -219l96 -211l96 -203l78 -160q51 -104 59 -117q23 -39 29 -38.5t12 6.5q10 10 15 20l7 14.5t7 12.5q8 16 14 31l13 28l264 545l78 168q16 37 31.5 66.5t25.5 52.5q8 20 17.5 38.5 t17.5 36.5q6 14 20 50q8 20 10 26q3 9 7 13q2 2 2 5q2 3 2 5q2 2 8 18l10 21q3 6 19 12q10 4 41 4q49 0 71.5 -2t104.5 -2h16q4 0 12 -8q6 -6 6 -19q0 -18 -14 -28.5t-53 -16.5q-49 -6 -72 -51q-20 -41 -20 -172q0 -279 12 -502t12 -280q0 -55 4 -121q4 -59 11 -86 q10 -41 20 -60q12 -20 33 -32q18 -10 43 -15q29 -4 59 -4q12 0 27 -10q10 -8 10 -18q0 -23 -8 -29q-6 -4 -37 -4q-80 0 -119 4t-90 4q-78 0 -119 -4q-61 -6 -94 -6q-37 0 -37 28q0 20 17 27q18 8 39 10q25 4 45 26.5t32 70.5q8 37 9 131q0 35 -4 157l-7 179q-2 31 -5 86 t-3 77q-2 39 -5 70t-3 55l-2 52q0 88 -18 88q-6 0 -15 -9q-6 -6 -20 -30q-4 -6 -10.5 -18.5t-10.5 -18.5q-2 -6 -8 -19.5t-16 -33.5l-285 -576l-104 -217q-41 -84 -45 -90q-8 -12 -23 -12q-12 0 -21 8q-10 10 -18 26q-4 6 -9 20.5t-7 18.5t-9.5 23.5t-13.5 32.5 q-10 23 -31 63l-374 758q-16 27 -23 26q-16 0 -16 -81q-2 -115 -11 -316q-8 -205 -8 -225v-92q0 -12 1 -29.5t1 -24.5q0 -8 3 -25.5t3 -25.5q2 -23 15 -47q10 -20 26 -37q23 -25 46 -30q37 -12 63 -15q8 0 20 -8q8 -6 9 -14q0 -25 -6.5 -31t-24.5 -6q-12 0 -123 4 q-25 0 -46.5 1t-31.5 2t-12 1q-23 0 -59 -2q-74 -4 -109 -4q-25 0 -33 4q-10 4 -10 29q0 16 10 18q2 0 12.5 3t18.5 5q25 4 39 11q23 10 43 38q20 31 33 80q8 29 24 357q14 289 15 460q0 102 -5 140q-6 49 -18 98q-12 46 -37 74q-27 29 -61 47q-33 16 -92 33q-27 5 -27 30z " />
<glyph unicode="N" horiz-adv-x="1634" d="M41 1415q0 12 14 25q12 10 37 10q2 0 16.5 -1t24.5 -1h37q39 0 57.5 2t42.5 2q23 0 43 -10q23 -10 29 -25q4 -6 20 -26q6 -6 52 -58l55 -67q125 -166 371 -449l374 -426q6 -8 14.5 -15t16.5 -18q16 -18 25 -26q4 -4 7 -9.5t7 -9.5q10 -10 14.5 -12t8.5 -2q20 0 20 127 v240v231q0 37 -2 81t-2 54v53v15q0 63 -10 119q-8 47 -23 77q-12 25 -35 43q-20 14 -38 23q-16 6 -46 12q-20 4 -45 10q-41 12 -41 35q0 31 39 31h99h47t34.5 -1t14.5 -1q70 0 110.5 2t73.5 2q37 0 49.5 -6t12.5 -29q0 -8 -11 -14l-24 -12q-4 -2 -12.5 -4.5t-12.5 -4.5 l-12 -6q-20 -16 -27 -24q-10 -16 -26 -74q-14 -51 -15 -133v-78q0 -154 -12 -539q-10 -319 -10 -475v-20v-21q0 -47 -29 -47q-20 0 -33 15q-850 983 -903 1038q-43 47 -55 47q-20 0 -21 -139q0 -221 -8 -420t-8 -244q0 -66 14.5 -106.5t36.5 -59.5q23 -20 49 -28 q31 -10 50 -11q16 0 36 -8q14 -6 15 -22q0 -23 -6 -29t-27 -6q-33 0 -65.5 2t-153.5 2q-37 0 -76 -2t-98 -2q-23 0 -35 6q-10 6 -10 27q0 16 10 20q16 8 29 10q18 3 37 13q20 10 41 36q16 23 34 76q12 45 31 379q18 332 18 463q0 176 -49 262q-51 88 -159 100q-27 2 -27 31z " />
<glyph unicode="O" horiz-adv-x="1744" d="M90 694q0 170 51 310q53 145 147.5 247.5t250.5 165.5q150 61 344 62q131 0 237 -27q104 -27 187 -72q76 -43 139 -102q53 -51 100 -123q39 -61 64 -127q31 -84 37 -123q10 -61 10 -102q0 -168 -41 -309q-39 -131 -113 -236q-68 -94 -174 -162q-104 -68 -219 -96 q-127 -33 -256 -33q-186 0 -333.5 61.5t-239.5 166.5q-94 106 -142 231q-49 129 -49 268zM270 799q0 -70 11 -123q10 -55 38 -137q27 -80 62 -142q35 -63 90 -129q55 -63 117 -108q63 -45 151 -74q90 -29 181 -29q68 0 147 23q74 20 152 67q74 45 135 108.5t98 158.5 q37 92 37 200q0 160 -35 281q-39 133 -98 219q-63 92 -150 156q-88 66 -184 96q-98 31 -209 31q-104 0 -201 -37q-100 -39 -172 -105q-80 -74 -125 -188t-45 -268z" />
<glyph unicode="P" horiz-adv-x="1155" d="M41 1421q0 15 12 25q10 8 35 8q2 0 8 1t15 1h53q25 0 55 -2q61 -4 68 -4q2 0 174 4q86 2 164 2q96 0 172 -22q92 -27 151 -68q66 -45 107 -121t41 -166q0 -74 -19 -135q-16 -57 -51 -104q-31 -45 -72 -76q-47 -37 -84 -55q-39 -18 -86 -33q-45 -12 -75 -19q-23 -4 -60 -4 q-61 0 -133 17q-68 15 -67 30q0 31 26 31q16 0 43 -8t62 -8q20 0 77 8q43 6 91 27q51 23 86 51q39 33 63 84q25 52 25 116q0 66 -27 127q-29 66 -76 119q-49 55 -131 92q-78 35 -182 35q-49 0 -66 -12q-20 -14 -32 -62q-10 -39 -11 -135q0 -446 -2 -487t-2 -359 q0 -180 84 -235q22 -15 55 -18q45 -4 58 -5q25 0 41 -8t16 -33q0 -35 -47 -34q-4 0 -164 4q-35 0 -65.5 2l-46 3t-17.5 1q-6 0 -16 -1t-28.5 -2t-35.5 -1q-82 -4 -110 -4q-63 0 -64 22q0 14 2 21q2 4 5 7t3 5q4 8 13 10q10 4 14 6l21 4q14 2 20 7l5 1q5 1 9.5 1t7.5 1l3 1 q2 0 10 8q10 8 10 12q0 2 5 10.5t7 14.5q2 4 7.5 18.5t7.5 22.5q10 37 20 307q10 301 10 416v233v39v32t-1 22.5t-1 15.5v6q0 23 -6 47q-6 23 -22 53q-14 25 -47 45q-31 18 -74 19q-41 -1 -41 26z" />
<glyph unicode="Q" horiz-adv-x="1718" d="M92 694q0 129 29 248q31 127 86 215q61 98 151 170q88 70 226 111q139 41 301 41q121 0 229 -29q96 -25 180 -78q70 -43 133 -110q57 -61 97 -132q37 -70 61 -137q27 -74 35 -131q8 -51 8 -110q0 -113 -29 -220q-31 -117 -83 -213q-55 -100 -140 -176q-84 -74 -186 -102 q-12 -4 -27.5 -8t-34.5 -10q-59 -16 -69 -21q-14 -6 -15 -8q0 -20 39 -39q6 -4 66 -31l80 -35l80 -34l90 -35l82 -31q41 -14 86 -27q49 -12 75 -16q41 -6 70 -6q41 0 78 10q33 8 47 23q18 18 31 24q20 10 35 10q8 0 14 -10t6 -14q0 -47 -51 -90q-49 -39 -135 -66 q-82 -25 -170 -24q-83 0 -209 43q-133 45 -254 104l-248 123q-115 59 -219 104q-98 43 -141 43q-45 0 -86 -20q-37 -18 -58 -51q-23 -35 -30 -70q-10 -41 -11 -76v-18v-18q0 -53 -37 -54q-18 0 -34 27q-14 23 -15 59q0 88 41 170q41 80 90 115q8 4 14.5 8t12.5 10q4 4 8 6.5 t8 6.5q2 2 2 6q0 8 -45 39q-129 92 -196 231q-68 137 -68 303zM279 799q0 -129 38 -254q41 -131 113 -234q80 -111 229.5 -182.5t258.5 -71.5q145 0 294 78q37 18 78 60q43 43 82 102q45 70 70 145q27 82 26 172q0 211 -88 398q-86 180 -237.5 282.5t-327.5 102.5 q-102 0 -199 -37q-98 -37 -170 -105q-76 -70 -122 -188q-45 -114 -45 -268z" />
<glyph unicode="R" horiz-adv-x="1470" d="M41 1425q0 20 12.5 26.5t46.5 6.5h340q27 0 109 4q41 2 96 2q121 0 219 -39q100 -39 164 -118q63 -78 64 -187q0 -88 -27 -153q-29 -68 -64 -107q-27 -29 -75 -65q-39 -31 -64 -43q-27 -14 -26 -23q0 -25 172 -264q180 -252 235 -309q86 -96 189 -97q10 0 20 -6 q8 -6 8 -18q0 -22 -6 -31q-6 -8 -41 -14q-34 -6 -104 -6q-18 0 -33 2q-31 4 -66 14q-45 12 -77 31q-25 15 -56 43q-23 20 -65 78l-62 81q-45 61 -69 103l-38.5 61.5t-19.5 30.5t-10 15.5t-16.5 29t-30.5 49.5q-98 160 -152 160h-20h-23h-90h-35q-20 0 -26 -10 q-8 -16 -8 -135v-162v-80q0 -6 1 -16.5t1 -12.5v-18q0 -57 12 -86q15 -37 36.5 -55.5t49.5 -30.5q31 -14 53 -17q14 -2 26.5 -5t22.5 -5q18 -2 37 -10q14 -6 15 -21q0 -33 -37 -32q-3 0 -142 6l-75.5 4l-55 3t-20.5 1q-31 0 -141 -4l-84 -4q-43 0 -43 33q0 15 12 24 q14 10 31 10q18 0 43 11q29 12 41 22q23 18 32 51q12 37 13 88v287q0 86 1 206t1 153q0 45 -1 122.5t-1 110.5v113q0 63 -21 98q-23 39 -49 51q-18 8 -59 17q-12 2 -31 8l-19 6q-20 6 -20 22zM412 1098q0 -229 2 -262q2 -49 14 -58q27 -18 88 -18h21h28h31q96 0 156 22 q66 25 100 66q37 43 51 90q16 53 17 106q0 41 -13 89q-12 43 -43 90q-29 43 -76 80q-43 35 -112 55q-74 23 -156 22q-74 0 -92 -41q-16 -35 -16 -184v-57z" />
<glyph unicode="S" horiz-adv-x="1220" d="M121 383q0 43 29 43q25 0 32 -20l12.5 -31t12.5 -29q6 -12 35 -61q18 -31 45 -66q23 -29 59 -59q43 -37 76 -51q43 -20 92 -31q63 -14 117 -15q152 0 246 82t94 211q0 61 -21 103q-23 45 -57 73q-39 33 -82 56q-35 18 -106 45q-88 31 -115 39q-57 20 -123 47 q-78 33 -119 57q-186 111 -186 301q0 180 131 291q132 111 344 111q53 0 125 -17q76 -16 115 -32q46 -18 55 -19q2 0 22.5 8t24.5 8q27 0 31 -16q43 -233 43 -278q0 -57 -29 -58q-10 0 -16.5 6t-12.5 23q-23 55 -47 94q-29 45 -35 51q-4 4 -22.5 20.5l-30.5 26.5 q-111 98 -268 99q-127 0 -213 -61.5t-86 -166.5q0 -61 20 -104q23 -51 58 -76q41 -31 86 -53q53 -27 104 -41q37 -10 119 -39q53 -18 121 -47q58 -25 117 -62q61 -39 102 -86q82 -88 82 -219q0 -141 -66 -250q-63 -106 -174 -163q-104 -53 -237 -54q-147 0 -228 15 q-86 14 -176 63q-29 16 -65 158q-35 137 -35 174z" />
<glyph unicode="T" horiz-adv-x="1437" d="M41 1188q0 82 20 211q0 2 1 7t1 9t2 10l1 7q0 2 2 6t2 8q2 6 6 10q6 6 10 8q8 4 16 4q2 0 10.5 1t12.5 1q47 0 172 -8t405 -8q487 0 631 10q2 0 4 1t4 1h7q16 0 24 -8q10 -10 12 -14t2 -12q0 -12 6.5 -86t6.5 -80q0 -53 -6.5 -65.5t-26.5 -12.5q-16 0 -23 24 q-6 20 -12 45q0 4 -3 8.5t-6 11.5t-5 13q-8 20 -23 27l-32 16q-23 10 -52 13q-20 2 -73 2h-267q-49 0 -61 -21q-10 -18 -10 -110v-101q0 -205 -4 -483q-2 -139 -2 -266v-74q0 -16 -1 -36.5t-1 -23.5q0 -88 28 -116q25 -25 60 -37q37 -14 57 -17q29 -4 39 -10q16 -10 16 -26 q0 -23 -10 -29t-39 -6q-35 0 -108.5 8t-118.5 8q-35 0 -101 -8q-49 -6 -108 -6q-76 0 -76 33q0 18 19 28q18 9 43 13q33 4 51 8q25 6 47 24t24 56q20 190 21 774l-2 366q0 31 -8 39q-12 12 -39 15q-41 4 -109 4q-150 0 -215 -8q-76 -10 -86 -15q-12 -6 -29 -28 q-16 -20 -28 -54q-10 -27 -15 -49q-2 -18 -14 -33q-10 -14 -27 -14q-22 0 -22 35z" />
<glyph unicode="U" horiz-adv-x="1667" d="M41 1427q0 10 2 15q2 6 12 8q16 4 33 4l94 -4q94 -4 137 -4q51 0 74 2t119 2q43 0 43 -29q0 -14 -10 -20q-6 -4 -27 -4q-18 0 -35 -8q-20 -10 -34 -25q-18 -18 -27 -61q-10 -51 -10 -115v-58v-241q0 -57 -1 -124t-1 -77q0 -209 20 -303q47 -227 238 -295q90 -33 217 -33 q156 0 235 23q180 49 248 248q47 135 47 336v315q0 31 -1 58.5t-1 43v17.5q0 84 -2 112q-4 43 -20 90q-18 51 -52 72q-16 12 -53 19q-10 2 -27.5 5t-25.5 5q-20 2 -21 16q0 33 41 33h13.5t29 -1t38 -1t38 -1t27.5 -1h12q31 0 105 4q37 2 69 2q25 0 31 -4q12 -8 12 -10v-13 q0 -14 -18 -26q-6 -4 -18.5 -10.5t-26.5 -16.5q-25 -16 -35 -35q-14 -25 -19 -51q-4 -33 -4 -84q0 -2 1 -21.5t1 -37.5v-78q0 -200 -6 -344q-6 -145 -24 -256q-20 -123 -41 -184q-25 -72 -64 -127q-41 -55 -84 -88q-41 -31 -112 -60q-45 -18 -142 -33q-90 -12 -151 -12 q-184 0 -297 31t-189 100q-18 16 -47 53q-8 10 -21.5 29l-17.5 25q-14 18 -28 63q-2 6 -21 68q-8 27 -14 80q-10 84 -10 88q-4 49 -4 104v113q0 12 -1.5 56t-1.5 77v35q0 113 2.5 176t2.5 119q0 49 -5 90q-2 27 -20 59q-14 27 -45 39q-37 14 -82 23q-45 5 -45 38z" />
<glyph unicode="V" horiz-adv-x="1650" d="M41 1425q0 29 57 29q4 0 13.5 -1t29 -2t37.5 -1q90 -4 146 -4q33 0 63.5 2t69.5 2q47 0 55 -2q12 -2 12 -21q0 -9 -12 -18q-8 -6 -29 -14q-16 -6 -28 -23q-14 -18 -15 -41q0 -16 9 -53q6 -28 30 -86l51 -115q12 -29 84 -184l113 -254q172 -395 205 -395q10 0 117 248 q121 281 213 518q104 270 104 319q0 33 -22.5 49.5t-51.5 20.5q-35 4 -51 10q-23 8 -22 25q0 15 6 18q4 2 37 2h47q14 0 40.5 -1t41.5 -1q51 0 81.5 2t100.5 2q39 0 39 -29q0 -15 -13 -24q-8 -6 -32 -19q-23 -10 -43 -34q-25 -29 -43 -70l-457 -1040l-92 -217 q-23 -57 -33 -74q-6 -10 -16 -10q-34 0 -92 141q-72 182 -211 475l-142 313l-92 211l-51 121q-23 53 -35 76q-16 29 -29 41q-35 39 -71 55q-35 16 -64 17q-23 0 -39 5.5t-16 30.5z" />
<glyph unicode="W" horiz-adv-x="2273" d="M41 1423q0 29 55 29q33 0 78 -2q90 -4 148 -4q37 0 114 4q39 2 62 2q14 0 22 -4q6 -2 6 -21q0 -10 -14 -18q-20 -12 -30.5 -16t-28.5 -23q-14 -14 -15 -39q0 -20 8 -45q10 -29 33 -84l51 -119l86 -188l113 -256l41 -96q39 -94 45 -107l39 -86q16 -37 35 -67 q14 -25 18 -25q10 0 66 125q57 127 102 242l19 43q12 22 18 37q4 10 4 30q0 23 -123 299q-121 272 -157 316l-23 22q-8 8 -20.5 12.5t-16.5 4.5q-2 0 -7 1t-9 1t-10 1l-7 1q-57 6 -69 12t-12 20q0 29 59 29q4 0 13 -1t27.5 -2t37.5 -1q90 -4 147 -4q2 0 8.5 1t19.5 2t27 1 q66 4 80 4q61 0 62 -16q0 -9 -12.5 -18.5t-30.5 -18.5q-18 -10 -31 -27q-14 -23 -14 -41q0 -40 43 -135q2 -3 4 -8l16 -39q2 -4 27 -66q27 -70 43 -102q18 -39 26 -39q16 0 82 180.5t66 210.5q0 29 -19 45q-20 16 -43 21q-6 0 -40 12q-20 6 -21 21q0 23 45 22q29 0 61.5 -2 t69.5 -2h35q41 0 109 6h10h8q27 0 27 -20q0 -16 -17 -23q-31 -12 -39 -14q-25 -6 -37 -23q-35 -35 -57 -94q-10 -27 -22.5 -56.5l-24.5 -60.5l-41 -96l-31 -72l-14 -32.5t-10 -22.5q-2 -6 -7.5 -18.5t-9.5 -22.5q-8 -16 -12 -29q-2 -6 -6 -20q-4 -12 -4 -14t-1 -6l-1 -5v-12 q0 -18 125 -295q125 -279 147 -278q27 0 238 516q215 524 215 569q0 31 -25 49q-23 16 -51 21q-37 4 -53 10q-23 8 -23 25q0 15 6 18q4 2 33 2h49q14 0 41 -1t39 -1q53 0 84 2t98 2q41 0 41 -29q0 -12 -10 -22q-4 -4 -32.5 -20.5t-41 -29t-16.5 -18.5q-8 -12 -12 -16 q-6 -6 -13 -23q-4 -8 -6 -14t-4 -10q-10 -23 -14 -31t-14 -35l-369 -829q-176 -397 -193 -420q-8 -14 -20 -14q-8 0 -16 12q-18 31 -23 39q-2 4 -20 47q-4 10 -9.5 22.5t-11.5 24.5q-8 20 -14 37l-54 125l-57 133l-49 115q-10 27 -41 86q-14 31 -23 30q-20 0 -135 -276 q-115 -281 -129 -322q-4 -12 -6 -20q-12 -37 -18 -49q-6 -10 -19 -10q-18 0 -47 59q-25 51 -94 229q-66 166 -141 328q-113 246 -252 588q-27 70 -60 121q-31 49 -59 71q-31 25 -55 35q-33 14 -47 14q-25 0 -35 2q-12 2 -25 11q-8 6 -8 26z" />
<glyph unicode="X" horiz-adv-x="1536" d="M41 1436q0 20 14 22q20 4 72 4q27 0 80 -4t102 -4q45 0 110.5 2t104.5 2h25q2 0 14 -6q6 -3 6 -12q0 -20 -14 -28.5t-30.5 -8.5t-32.5 -10q-14 -8 -15 -33q0 -6 8 -31q4 -14 23 -43q8 -14 14 -25.5t10 -17.5q4 -8 31 -45q22 -31 25 -37l51 -76l43 -63l14.5 -23.5 l18.5 -28l17 -25.5t11.5 -17t20.5 -29q4 -4 11 -10l7 -6q6 -6 11 -6q8 0 18 10q16 16 29 35l59 84l74 104q2 2 65 96q41 61 54 86q18 34 18 49q0 35 -16 50q-20 16 -39 16q-12 0 -37 8q-16 6 -16.5 26.5t30.5 20.5q33 0 90.5 -4t75.5 -4q102 0 152 4q10 0 20 1t14.5 2t6.5 1 q33 0 32 -20q0 -15 -12 -24.5t-31 -12.5q-6 0 -49 -19q-39 -16 -61 -32q-27 -23 -35 -31l-31 -37q-12 -14 -43 -53q-317 -418 -317 -430v-10q0 -2 3 -5t3 -6l8 -16l16 -23l12.5 -17l12.5 -17l33 -47q8 -12 20.5 -28t24.5 -34l55 -80l70 -100q66 -96 145 -199 q82 -106 121 -139q6 -6 41 -12q27 -4 61 -17q27 -8 27 -26q0 -10 -2 -15q-4 -6 -20 -10q-20 -4 -43 -4q-39 0 -125 6l-48.5 4t-34 3t-12.5 1q-43 0 -104 -4l-72 -6q-16 -2 -32 -2q-14 0 -20.5 6t-6.5 21q0 16 16 26q10 6 35 10.5t37 14.5q16 12 16 37q0 8 -14 41 q-10 25 -43 75l-63 97l-93 135l-106 158q-23 35 -35 34q-2 0 -8 -6q-2 -2 -4 -6l-5 -10t-8 -10q-12 -18 -18 -31q-49 -74 -131 -186q-72 -96 -127 -185q-43 -68 -43 -108q0 -55 111 -56q25 0 24 -34q0 -16 -14 -19q-20 -4 -49 -4q-45 0 -97 2q-23 0 -43 1t-29.5 2t-11.5 1 q-6 0 -16 -1t-28.5 -2t-34.5 -1q-82 -4 -84 -4q-33 0 -45 6q-14 8 -15 33q0 14 12.5 20t30.5 6q12 0 47 11q31 9 56 30q29 25 43 39q22 22 49 56q25 31 47 55q12 12 51 68l30.5 42l14.5 21l51 70l45 63q49 68 74 100l60 80q18 25 18 31q0 10 -21 39q-8 14 -15 23.5l-29.5 39 l-53.5 72.5l-160 225q-53 80 -141 175q-70 76 -137 92q-2 0 -19 4q-4 0 -11 1t-11 3t-10 4t-11 2q-8 4 -16 10q-4 5 -4 17z" />
<glyph unicode="Y" horiz-adv-x="1456" d="M41 1409q0 23 22 29q25 6 105 6q27 0 55.5 -2t63.5 -2q4 0 30.5 1t51.5 1h92q102 0 102 -25q0 -12 -12 -22q-14 -10 -31 -15q-12 -2 -28 -14q-14 -10 -15 -20q0 -18 6 -41q4 -16 23 -45q4 -8 13 -23.5l13 -22.5l29 -45q6 -10 27 -36q63 -102 143 -211q74 -100 86 -100.5 t31 22.5q14 18 51 80q31 53 55 88l25 35l25 36q4 6 9 15.5t13 21.5q6 10 12 18.5t11 16.5q4 6 9 14.5l11 18.5q8 12 18 33l13 28q6 14 8 25q2 8 2 20q0 41 -22.5 61.5t-53.5 20.5q-27 0 -53 10q-23 8 -23 33t58 25q2 0 14 -1t23 -1h47q14 0 52 -1t62 -1h103q51 0 75.5 -6.5 t24.5 -24.5q0 -8 -10 -14q-20 -10 -37 -17q-20 -8 -41 -24q-61 -47 -139 -156q-66 -92 -162 -240q-90 -139 -131 -190q-33 -41 -41 -90q-8 -43 -8 -168v-115q0 -35 1 -74.5t1 -48.5v-49q0 -52 12 -86q12 -35 32.5 -49t35.5 -20q10 -4 28 -5l4 -1q3 -1 7 -1h10h20 q12 0 23 -10q8 -8 8 -18q0 -20 -10 -27q-8 -6 -39 -6h-90q-31 0 -69 1t-46 1q-53 0 -131 -4t-94 -4q-57 0 -57 22q0 20 10 27q6 4 39 8q27 2 39 6q86 25 86 125v35q0 6 1 22.5t1 26.5q0 4 1 43t1 72v217q0 39 -4 55q-8 33 -13 47q-6 20 -34 66l-56 82l-90 135l-125 184 q-57 84 -86 119q-41 47 -71 66q-37 23 -54 26q-14 4 -47 4q-51 0 -51 27z" />
<glyph unicode="Z" horiz-adv-x="1150" d="M41 29q0 12 16 37l60 88q27 41 80 131l217 364l276 457q115 195 115 217q0 16 -21 18q-29 4 -67 5q-27 0 -375 -9q-55 0 -96 -20.5t-64 -48.5q-18 -23 -37 -58q-16 -29 -26 -49q-10 -18 -20.5 -18t-18.5 8t-8 25q0 43 8 81.5t8 53.5l10 96q2 23 16.5 33t41.5 10l23 -1 q24 -1 46 -1q16 0 68.5 -1t89.5 -1q33 0 103.5 -1t111.5 -1q47 0 115.5 1t91.5 1h162q46 0 67 -6q20 -6 21 -25q0 -28 -375 -645q-377 -621 -377 -639q0 -29 57 -35q55 -6 181 -6q207 0 299 12q98 12 166 52q23 14 41 32l28 29q10 10 21 10q16 0 16 -22q0 -37 -63 -140 q0 -2 -2.5 -3t-4.5 -4t-4 -9q-4 -6 -7 -10t-3 -6q-4 -8 -8 -13q-6 -6 -14 -10q-6 -3 -19 -6q-8 -2 -24 -2h-205q-31 0 -87.5 -1t-82.5 -1q-123 0 -252 -1t-137 -1h-117q-41 0 -41 33z" />
<glyph unicode="[" horiz-adv-x="585" d="M160 -168q0 152 6 637t6 698q0 33 -1 88.5t-1 79.5v123v53q0 35 20 43q18 8 80 9h88h78q12 0 25.5 1t15.5 1h17q14 0 22 -13q10 -14 10 -30q0 -41 -24 -41q-2 0 -65.5 -1t-123.5 -1h-32q-10 0 -13 -2q-4 -4 -4 -15l1 -17q1 -17 1 -34v-111q0 -23 1 -74.5t1 -80.5 q0 -31 -4 -563q-2 -139 -4 -321.5t-2 -229.5q0 -233 2 -301q0 -55 25 -56q2 0 35.5 1t64.5 1h84q29 0 39 -10t10 -35q0 -31 -22 -41q-18 -8 -84 -8h-185q-45 0 -57 21q-10 18 -10 104v125z" />
<glyph unicode="\" horiz-adv-x="849" d="M41 1481q0 25 43 24q23 0 39 -8q14 -6 20 -29l629 -1699q0 -2 6 -17.5t10.5 -26l10.5 -25.5t6 -17q6 -15 6 -25q0 -33 -68 -33q-18 0 -26 13q-10 14 -25 51l-622 1702q-29 80 -29 90z" />
<glyph unicode="]" horiz-adv-x="585" d="M59 -377q0 43 27 43h188h33q8 0 12 4q2 2 3 15v49q0 10 -1.5 48t-1.5 64v156q0 31 4.5 563.5t4.5 550.5q0 231 -2 299q0 55 -25 55h-98h-86q-31 0 -39 9q-10 10 -10 34q0 47 34 48q184 4 256 4q45 0 58 -21q10 -18 10 -104v-125q0 -315 -4 -639q-6 -485 -6 -696v-170 q0 -29 1 -69t1 -52v-54q0 -35 -21 -43q-25 -10 -80 -10h-88h-77h-43h-15q-15 0 -24 12q-11 15 -11 29z" />
<glyph unicode="^" horiz-adv-x="679" d="M59 678q0 8 27 51q12 18 19.5 30.5t19.5 35t29 51.5q94 158 116 186q29 35 62 35q35 0 59 -33q39 -53 107 -168q18 -33 33.5 -58.5t23.5 -40.5t23 -38q23 -39 22.5 -55.5t-37.5 -16.5h-16h-15q-8 0 -16 4.5t-14 12.5q-2 2 -5 7t-5 7l-6 7q-5 7 -7 14l-8 16l-29 53l-24 45 l-21 39q-4 6 -9 16.5l-7 14.5l-8 12t-6 13q-2 4 -6.5 10t-4.5 8t-4 6l-6 6l-8 8q-2 2 -6 2l-8 -4q-6 -3 -13 -12q-4 -6 -12 -22l-18 -31q-6 -10 -23 -43q-6 -10 -13 -23.5l-16 -29.5l-18 -32t-18 -36l-3 -4l-4 -8q-8 -12 -8 -13l-2 -4l-4 -8l-8 -12q-4 -4 -10 -8l-13 -6 q-4 -2 -12 -3h-12h-17q-41 1 -41 19z" />
<glyph unicode="_" horiz-adv-x="436" d="M0 -78q0 6 1 14.5t1 10.5q0 6 10 12q8 6 27 6h364q23 0 29 -8q4 -6 4 -35q0 -23 -2 -28q-4 -10 -10 -15q-9 -6 -31 -6h-356q-25 0 -31 10t-6 39z" />
<glyph unicode="`" horiz-adv-x="899" d="M225 1303q0 29 43 41t64 12q25 0 43 -39q46 -111 86 -184q45 -82 53 -95q14 -20 14 -32q0 -10 -6 -16.5t-18 -6.5q-18 0 -80 64q-199 211 -199 256z" />
<glyph unicode="a" horiz-adv-x="944" d="M98 174q0 53 14.5 90t41.5 64q29 29 65 47q39 18 84 31q10 2 30.5 8t37 10t30.5 6q39 8 111 21q14 2 32.5 6t24.5 4q4 1 10 2q8 2 11 2q2 0 10 8q4 4 4 21q0 29 2 53t2 53q0 59 -22.5 108.5t-55.5 69.5q-39 25 -65 33q-35 10 -55 10q-147 0 -148 -123q0 -8 4 -41 q0 -6 1 -14t2 -12t1 -6q0 -41 -37 -41q-18 0 -30 2q-14 2 -41 12t-39 25q-16 20 -17 41q0 82 107 151q113 74 238 74q63 0 112 -12q66 -16 82 -25q35 -16 55 -41q20 -23 33 -45q10 -16 17 -51q8 -41 8 -45v-39q0 -176 -4 -234q-6 -86 -6 -147q0 -63 12 -106.5t28 -57.5 q23 -18 37 -23q29 -8 37 -8q16 0 28.5 -6t12.5 -22q0 -43 -129 -43q-33 0 -59 12q-33 14 -47 27q-12 10 -29 34q-4 4 -11 14.5t-10 14.5q-4 10 -8 10l-16 -12l-41 -33q-25 -18 -55 -37q-37 -23 -74 -32q-43 -12 -84 -13q-70 0 -113 13q-41 12 -77 49q-52 51 -52 143z M258 205q0 -68 41 -113q39 -41 117 -41q43 0 69 8q33 10 50 21q23 14 35 32.5t20 37t10 40.5q4 33 4 37v33v148q0 18 -14 18l-2 -1q-2 -1 -4 -1h-9l-6 -2l-45 -8l-45 -8q-34 -6 -49 -13l-43 -14q-20 -6 -43 -21q-2 -2 -33 -26q-18 -16 -28 -35q-12 -25 -17 -41 q-8 -33 -8 -51z" />
<glyph unicode="b" horiz-adv-x="1120" d="M25 1415q0 16 16 29q18 14 35 20q6 2 20.5 7.5l24.5 9.5l37 12q10 4 47 23l31.5 14t21.5 10q18 8 30.5 8t20.5 -10q10 -14 10 -27v-43v-61q0 -4 -1 -66.5t-1 -119.5v-379q0 -74 15 -74q10 0 18 14q8 12 27 35q10 10 49 39q29 20 88 35q57 14 141 14q74 0 140 -24 q63 -25 108 -66q49 -45 76 -94q33 -59 47 -115q14 -57 14 -125q0 -59 -18 -133q-18 -70 -64 -155q-43 -78 -104 -125q-117 -90 -285 -91q-53 0 -102 13q-53 14 -82 28q-41 23 -57 35q-4 4 -11.5 9.5l-11.5 8.5l-9 7t-9 6q-15 12 -19 12q-8 0 -22 -33q-16 -39 -35 -65 q-20 -33 -43 -33q-14 0 -21 6q-4 4 -4 21q0 6 4 96q0 20 1.5 37.5t2.5 26.5l1 8q0 51 10 241q8 154 8 299v506q0 186 -92 187h-21q-32 -1 -32 22zM317 270q0 -20 19 -53q25 -45 51 -74q37 -39 94 -65q59 -27 135 -27q92 0 162 47q68 47 99 119q31 74 30 162q0 76 -24 149 q-23 70 -68 134q-41 57 -115 96q-71 37 -153 37q-98 0 -164 -58q-41 -35 -53 -55q-12 -23 -13 -41v-371z" />
<glyph unicode="c" horiz-adv-x="923" d="M80 393q0 127 57 236q57 111 168 180q109 70 250 70q61 0 154 -21q82 -18 86 -47q4 -41 4 -96q0 -90 -23 -90q-10 0 -20 10q-14 14 -22.5 26.5t-24.5 28.5q-46 40 -123 74q-80 35 -150 35q-8 0 -37 -8q-20 -6 -51 -31q-37 -29 -55 -58q-25 -37 -43 -100q-16 -57 -17 -143 q0 -158 102.5 -277t248.5 -119q51 0 106 17q52 15 80 37l27.5 19t25.5 18q27 16 31 16q10 0 16.5 -6t6.5 -14q0 -6 -13 -27q-12 -22 -43 -49q-33 -29 -71 -54q-45 -27 -107 -45q-66 -18 -139 -18q-190 0 -307 116.5t-117 319.5z" />
<glyph unicode="d" horiz-adv-x="1155" d="M80 399q0 88 32.5 180.5t92.5 159.5q66 76 155 115q98 43 218 43q61 0 141 -29q86 -31 92 -30q10 0 10 73q0 172 2 203t2 62v65q0 8 -4 53q-2 29 -10 47q-4 12 -18 33q-10 16 -31 23q-25 8 -45 8h-23q-33 0 -37 2q-6 2 -6 14v2q0 12 21 21q8 2 84 29q80 27 127 49 q2 0 8 4t16 8q6 4 16.5 7t14.5 5q12 6 25 6q25 0 24 -41q0 -39 -12 -174q-14 -158 -14 -270q0 -68 -1.5 -220.5t-1.5 -236.5v-137t-1 -105t-1 -49q0 -135 15 -188q12 -47 57 -59q10 -4 27 -6q18 -3 30 -7q16 -4 23 -10q8 -8 8 -20q0 -6 -6 -12.5t-45 -12.5t-107 -12 q-35 -4 -75 -12q-39 -8 -54 -9q-23 0 -22 23q0 14 -2 31q-4 33 -4 45q0 35 -19 34q-8 0 -30 -20q-2 -2 -21.5 -19.5t-32.5 -27.5q-27 -23 -90 -45q-55 -20 -125 -21q-82 0 -143 23q-68 25 -115 65.5t-80 94.5q-34 55 -49 116q-16 66 -16 129zM227 496q0 -100 39 -193 q41 -96 119 -160q82 -66 182 -65q92 0 168 47t76 115v196q0 31 1 63.5t1 35.5v32v23q0 72 -16 108q-16 35 -41 50q-68 39 -127 63q-66 27 -117 27q-132 0 -209 -99q-76 -96 -76 -243z" />
<glyph unicode="e" horiz-adv-x="952" d="M80 397q0 135 51 244q52 111 148 178q92 66 217 66q86 0 155 -31q68 -29 111 -76q35 -37 65 -92q25 -43 35 -82q10 -37 10 -45q0 -18 -20 -29q-16 -8 -64 -8h-464h-37h-25q-14 0 -18 -4t-4 -18q0 -100 30.5 -180t79.5 -129.5t109 -75.5q63 -29 127 -29q53 0 98 14 q49 14 78 33l31.5 16.5t25.5 14.5q27 14 35 14t14 -6t6 -12q0 -10 -14 -31q-16 -25 -45 -49q-39 -35 -72 -55q-45 -29 -102 -45q-61 -18 -129 -19q-76 0 -160 27q-74 23 -137 78q-61 53 -98 137q-37 85 -37 194zM252 600q0 -16 6 -22.5t21 -6.5q55 0 202.5 6.5t157.5 6.5 q29 0 35 6q8 8 8 18q0 18 -6 43q-8 31 -25 60q-16 27 -42.5 57.5t-63.5 46.5q-41 18 -84 19q-47 0 -94 -27q-37 -20 -66 -64q-23 -35 -37 -75q-12 -37 -12 -68z" />
<glyph unicode="f" horiz-adv-x="704" d="M59 788q0 37 18.5 49.5t67.5 12.5h21h22q25 0 31 10q6 12 6 37q0 123 33 227q35 113 84 179q61 84 111 124q66 55 118 78q58 25 105 25q45 0 78 -17q29 -14 28 -40q0 -18 -12 -58q0 -8 -2 -14l-4 -12q0 -4 -4 -13q0 -2 -1 -5t-3 -5l-6 -6l-2 -3q-2 -4 -5 -3l-4 -2 q-4 -2 -6 -2h-10q-8 0 -16 8q-4 4 -7.5 8t-9.5 10q-8 8 -39 19q-25 8 -73 8q-51 0 -89 -29q-43 -33 -63 -76q-22 -46 -37 -110q-16 -72 -22 -125q-4 -41 -5 -125v-27v-24q0 -39 25 -39q113 0 197 16q10 4 22 13q10 8 20.5 8t10.5 -17q0 -31 -29 -77q-12 -18 -51 -19 q-16 0 -38.5 -1t-29.5 -1h-92q-33 0 -32 -20v-119v-17q0 -16 1 -51t3 -80t3 -113.5t3 -144.5q0 -12 1 -29.5t1 -21.5q0 -6 8 -47q6 -29 21 -47q14 -16 36 -29q25 -12 62 -12q10 0 18 -4t10 -6q4 -4 5 -9l1 -5q1 -5 1 -7q0 -20 -23 -20q-14 0 -43 2q-57 4 -90 6t-72 2 q-49 0 -73 -4q-37 -6 -78 -6q-31 0 -31 28q0 6 16 17q6 4 15.5 9t19.5 9q16 8 32.5 37t16.5 70q0 37 -2 82q-2 25 -3 94t-1 102q-2 86 -2 299q0 20 -8 29q-4 4 -27 4q-18 0 -36 -2q-37 -4 -46 -4q-18 0 -30 4q-10 4 -12.5 8t-2.5 14z" />
<glyph unicode="g" horiz-adv-x="997" d="M80 -199q0 37 14 64q16 29 37 47q10 8 45 29q12 6 21.5 12l15.5 10q14 8 14 12q0 2 -10 13q-2 2 -10 8t-12 10q-16 16 -25 37q-10 27 -10 53q0 45 16 88q16 41 37 60q10 10 19.5 18t17.5 17q16 16 16 20q0 8 -14 20l-35 29l-41 43q-16 18 -35 74q-14 43 -14 108 q0 41 8 74q10 43 33 82q27 45 61 78q39 37 103 57q68 23 149 23q63 0 113 -13q47 -12 74 -28l45 -29q18 -12 26.5 -12t24.5 4l24 8l29 12q20 10 27 13q18 10 28 24q14 20 17 33q2 14 10 29q6 12 19 12q27 0 26 -16q0 -55 -14 -107q-15 -55 -31 -80q-27 -39 -84 -63 q23 -63 23 -103q0 -129 -99 -219q-102 -92 -239 -92q-51 0 -103 10q-41 8 -55 9q-2 0 -5 -1.5t-5 -1.5q-8 0 -23 -6q-20 -8 -28 -14q-10 -8 -21 -31q-10 -25 -10 -47q0 -27 12 -49q8 -16 35 -31q23 -12 59 -18q53 -8 74 -8h94h94q10 0 30 -1t28 -1q25 0 61 -7q41 -6 68 -18 q23 -10 53 -31q28 -18 43 -49q14 -29 14 -74q0 -59 -14 -96q-39 -98 -160 -157q-127 -61 -280 -62q-45 0 -127 12q-70 10 -123 33q-57 25 -94 70t-37 110zM199 -186q0 -90 75 -138q72 -45 187 -45q127 0 227 52q102 53 103 135q0 27 -9 43q-10 20 -26 30q-20 14 -34.5 18.5 t-47.5 8.5q-41 4 -53 4h-58h-18q-72 0 -160 15l-92 14q-20 0 -57 -41t-37 -96zM283 594q0 -121 59 -205q57 -82 145 -82q92 0 141.5 69.5t49.5 174.5q0 72 -25 137q-27 70 -73 111q-49 43 -115 43q-76 0 -129 -65.5t-53 -182.5z" />
<glyph unicode="h" horiz-adv-x="1200" d="M41 1427q0 16 20 29q18 10 62 21q41 10 59 18l12.5 6l20.5 10q6 2 19.5 7.5t17.5 7.5q14 6 31 12q4 2 14 5t14 5q16 4 19 4q27 0 26 -47q0 -9 -6 -49q-8 -53 -8 -78q-6 -596 -16 -596q0 -45 18 -45q6 0 31 25l57 51q33 29 86 53q51 23 115 23q166 0 258 -98.5t92 -305.5 v-297q0 -18 2 -30q0 -2 10 -37q6 -20 21 -35q12 -12 35 -16q111 -12 110 -43q0 -33 -63 -33q-12 0 -80 6q-45 4 -92 4q-6 0 -16.5 -1t-30 -2t-37.5 -1q-45 -2 -74 -2q-47 0 -47 20q0 18 12 25q16 8 27 10q25 4 33 8q16 6 26 25q12 22 12 61v21q0 4 1.5 14.5t1.5 18.5v96 q0 20 1 83.5t1 106.5q0 127 -76 217.5t-178 90.5q-90 0 -199 -80q-25 -20 -37 -53q-14 -33 -16 -101q-4 -94 -4 -225v-47q0 -90 16 -150q16 -57 66 -78q12 -4 34 -8q29 -4 33 -4q15 0 25 -6q12 -8 12 -18q0 -8 -8 -16.5t-15 -8.5q-18 0 -53 2q-25 0 -52.5 2l-53.5 4 q-37 2 -60 2q-12 0 -71 -6q-39 -4 -74 -4q-31 0 -39 2q-14 4 -14 6l-1 4q-1 4 -1 8q0 16 24 27q57 18 76 53q18 37 18 105l9 698v53v48q0 264 -11 329q-12 55 -43 68q-16 4 -32 4h-27l-8 2q-35 0 -35 20z" />
<glyph unicode="i" horiz-adv-x="579" d="M74 780.5q0 12.5 4 16.5q6 6 20 12q4 2 16.5 6t16.5 6t19.5 7.5l27.5 9.5q6 2 19.5 7l23.5 9t19 8q29 12 41 19q6 4 16 8l10 4q2 2 7 3t8 1q6 2 20 2q12 0 20 -8q10 -10 11 -31q0 -12 -6.5 -45t-6.5 -53v-561q0 -47 15 -86q12 -33 31 -45q10 -8 43 -17q14 -4 43 -4 q20 0 32.5 -6t12.5 -23q0 -35 -35 -34h-15q-4 0 -9 1t-7 1q-55 0 -75.5 2t-69.5 2q-61 0 -90 -2t-56 -2q-82 0 -82 26q0 14 8 25q8 12 23 14q45 16 53 25q23 23 29 119q2 39 2 225v180q0 39 -8 80q-6 35 -20.5 45t-28.5 18q-10 4 -33 9q-18 2 -29 6q-20 8 -20 20.5z M190 1208q0 23 35 68t68 45t63 -41q31 -39 31 -76q0 -35 -39 -73.5t-57 -38.5q-39 0 -70 42.5t-31 73.5z" />
<glyph unicode="j" horiz-adv-x="573" d="M47 -281q0 59 45 60q23 0 64 -45q40 -43 55 -43q16 0 27 28q10 33 16 101q4 49 4 200v623q0 29 -2 39q-2 6 -14 37q-8 20 -37 32.5t-68 12.5q-33 0 -33 20q0 10 19 17l63 20q49 15 99 37q10 4 39 19q8 4 20 11t16 9q8 4 21 4q25 0 25 -47v-23q0 -29 -2.5 -51t-2.5 -45 v-663q0 -63 -6 -125q-6 -51 -26 -127q-20 -70 -50 -117q-35 -55 -77 -82q-49 -31 -111 -31q-80 0 -80 56q0 2 -1 14t-1 22.5t-1 22.5t-1 14zM238 1210q0 27 32.5 66t63.5 39q35 0 65 -37q33 -39 33 -68q0 -35 -37 -71.5t-53 -36.5q-39 0 -71.5 38.5t-32.5 69.5z" />
<glyph unicode="k" horiz-adv-x="1116" d="M0 1411q0 12 23 25q16 8 77 28q16 4 37 11q4 2 10.5 3t10.5 3t6 2q8 4 14 6t15 6q6 4 12 6q2 0 7 4t11 8q4 2 13.5 8.5t13.5 8.5q41 27 67 26q29 0 29 -38q0 -10 -2 -23q-2 -6 -3 -26.5t-1 -30.5l-6 -95q-2 -20 -3 -70t-1 -75q-2 -61 -2 -199q0 -20 -4 -208 q-2 -94 -2 -211v-43q0 -86 8 -86q10 0 20 6q6 4 22.5 20.5t22.5 20.5q287 227 287 260q0 16 -14 28q-12 10 -31 17q-20 6 -33 14q-14 8 -14 21q0 20 24 20h17q4 0 11 -1t9 -1q88 2 163 5t107 4l31 1q31 0 43 -4q10 -4 11 -14q0 -14 -13 -21q-16 -8 -32 -10q-27 -4 -60 -16 q-35 -14 -80 -41q-8 -4 -96 -72q-180 -137 -193 -151q-12 -12 -12 -25q0 -20 23 -47q190 -233 319 -344q45 -39 88 -58q39 -16 72 -16q20 0 41 -4q16 -4 16 -18q0 -23 -16 -29q-18 -6 -68 -6q-2 0 -16 1t-39 1h-53h-105q-18 0 -53 33q-53 49 -88 88l-90 104l-88 107l-57 71 q-12 12 -23 13q-20 0 -43 -29q-20 -27 -21 -66q0 -16 3 -34q6 -141 10 -158q0 -6 18 -29l4 -4l4 -4q12 -20 52 -29l71 -14q31 -6 31 -23q0 -14 -14 -20q-20 -8 -28.5 -10t-20.5 -2q-6 0 -82 6q-77 6 -117 6q-14 0 -63.5 -4t-86.5 -4q-49 0 -49 24q0 8 8 17q4 4 13 8 q6 3 18 6q5 1 9 3l3 1q47 18 60 53q12 34 12 136v53q0 12 1 24l1 13l2 909q0 154 -96 154h-21q-4 0 -11 -1t-9 -1q-41 -1 -41 22z" />
<glyph unicode="l" horiz-adv-x="571" d="M41 1419q0 14 2 18.5t14 10.5q8 4 24.5 8t41.5 12q27 8 57 23q6 2 51 22q18 8 62 25q27 10 43 10q25 0 24 -39q0 -2 -1 -8t-2 -18.5t-1 -22.5q-8 -100 -8 -110q-4 -94 -4 -152v-115q0 -119 -2 -164t-2 -108v-610q0 -29 2 -41q4 -25 10 -39q8 -18 27 -37q10 -10 49 -23 q35 -10 78 -10q8 0 18 -10q8 -8 8 -21q0 -29 -63 -28q-6 0 -17.5 1l-34 3t-42.5 4q-76 6 -113 6q-57 0 -100 -8t-66 -8q-12 0 -24 8q-8 6 -9 12q0 18 8.5 24.5t32.5 12.5l12.5 4t10.5 3t6 1q35 16 45 45q10 31 10 88v25q0 6 -1 15.5t-1 13.5v151q0 23 1 73t2 146.5t1 184.5 q4 434 5 467q0 47 -14.5 83.5t-35.5 47.5q-25 8 -82 8q-22 0 -22 16z" />
<glyph unicode="m" horiz-adv-x="1691" d="M63 794.5q0 18.5 23 26.5q25 9 74 19q43 8 84 26q4 2 11 5t15 8q10 4 15.5 7t7.5 3q2 2 8 3t10 1q16 4 23 4q25 0 24 -59q0 -14 -6 -45q-4 -20 -4 -41q0 -25 12 -25q4 0 15 16q9 15 31 37q29 29 47 43q23 18 77 35q53 16 107 16q57 0 111 -16q45 -14 71 -41 q33 -33 43 -49l12.5 -19.5l12.5 -19.5q10 -16 12 -16t27 24q49 53 55 60q33 33 88 57q59 27 111 27q74 0 139 -27q59 -23 98 -70q39 -45 60 -96q23 -55 28 -115q12 -111 13 -260v-65q0 -88 10 -135q8 -39 47 -52l24 -4q23 -2 39 -12q14 -8 15 -22q0 -31 -68 -31q-4 0 -11 1 t-22.5 2t-27.5 1q-66 4 -74 4q-14 0 -79.5 -4t-67.5 -4q-49 0 -50 20q0 18 21 27q6 2 20.5 10t22.5 12q25 9 31 25q8 16 8 94v33v123q0 18 -1 50t-1 46q0 53 -2 76q-4 45 -4 55q0 25 -7 43q-8 25 -8 31q0 8 -10 25q-9 15 -12 18q-8 8 -17 18q-6 6 -16 23q-55 63 -154 63 q-46 0 -98 -24q-49 -23 -82 -49q-31 -25 -31 -37l5 -29q2 -20 6 -82q2 -39 2 -149v-78v-96q0 -96 26 -138q29 -45 115 -57q14 -2 23 -8q8 -4 12 -14q2 -4 2 -11q0 -23 -39 -22q-12 0 -66 6q-35 4 -84 4q-47 0 -100 -4q-80 -6 -86 -6q-12 0 -28.5 6t-16.5 20q0 16 8 23 q10 6 39 18h2q2 0 6 1t6 3l11 11q12 16 12 20q6 29 8 37q2 16 2 55v17q0 2 1 9t1 11v62v125v71q0 10 -1 22.5t-1 14.5v12l-1 4l-1 5q0 106 -55 174q-53 66 -154 65q-88 0 -153 -45q-68 -46 -68 -104v-15v-14v-385q0 -45 14 -84q12 -34 31 -49q12 -10 41 -23q25 -10 41 -10 q20 0 32.5 -6t12.5 -16q0 -4 -1 -10.5t-1 -8.5q0 -6 -10 -10q-6 -2 -31 -2q-27 0 -63 2q-74 4 -109 4q-31 0 -100 -4q-35 -2 -61.5 -2t-35.5 4q-12 6 -12 10q0 2 -1 7t-1 10q0 12 12 18q10 6 25 8q12 2 31 19q18 14 26 45q16 55 17 311q0 10 -1 52t-1 73v125 q0 41 -14.5 61.5t-34.5 22.5q-29 4 -41 4q-16 0 -33 6q-15 6 -15 24.5z" />
<glyph unicode="n" horiz-adv-x="1208" d="M63 799q0 10 13 16q10 6 45 12q10 2 24.5 4.5t18.5 4.5q31 8 80 28l25.5 10.5l24.5 10.5t17 8q25 12 35 12h4q18 0 19 -24q0 -16 -2 -37t-2 -51q0 -53 10 -54q6 0 14 11q6 8 31 32q27 25 51 41q96 57 178 58q78 0 148 -27q63 -25 102 -63q37 -37 62 -86q23 -45 32 -91 q8 -35 8 -77v-21q0 -4 1.5 -12t1.5 -15v-81v-164v-45q0 -80 20 -107q25 -31 104 -43q20 -2 33 -10q8 -6 8 -21q0 -20 -41 -20q-63 0 -98 4q-51 6 -69 6q-6 0 -89 -4q-16 0 -33.5 -1t-25.5 -2t-10 -1q-41 0 -41 27q0 8 8 16q4 4 16.5 8t16.5 4l10 2q45 16 45 138v276 q0 158 -78 240q-76 80 -186 80q-88 0 -154 -48q-68 -47 -75 -77q-6 -18 -12.5 -137t-6.5 -187v-78q0 -14 1 -37.5t1 -29.5q0 -16 8 -54q6 -27 21 -45q12 -14 33 -26q18 -10 53 -15q84 -6 84 -30q0 -27 -39 -27q-27 0 -68 4t-82 4q-25 0 -139 -4l-90 -4q-31 0 -31 20 q0 16 11 21l24 8q15 3 31 12q16 10 29 50q10 37 14 106q4 152 4 154v295q0 66 -22.5 88t-65.5 22h-21q-39 0 -39 23z" />
<glyph unicode="o" horiz-adv-x="1120" d="M80 416q0 88 31 170q29 80 90 149q57 68 151 107q98 41 211 41q90 0 176 -31q90 -33 154 -84q70 -57 108.5 -143t38.5 -197q0 -113 -41 -201q-43 -94 -112 -147q-70 -55 -158 -86q-86 -31 -180 -31q-115 0 -205 39q-94 41 -147 102q-55 66 -86 144q-31 80 -31 168z M242 485q0 -111 32 -196q35 -90 86 -146q55 -59 117 -88q63 -31 133 -30q117 0 197 88t80 254q0 84 -24.5 163.5t-67.5 147.5q-43 70 -117 108q-76 41 -164 41q-47 0 -92 -18q-39 -16 -88 -57q-41 -37 -68 -107q-24 -68 -24 -160z" />
<glyph unicode="p" horiz-adv-x="1136" d="M63 788.5q0 10.5 17 16.5q2 2 26.5 8t45.5 14q59 20 112 45l33 17l25 12q6 4 12 6q8 4 10 4h6q27 0 27 -26q0 -31 -4 -80q0 -10 -1 -20.5t-2 -14.5t-1 -6q0 -16 6 -16q2 0 16 14q6 6 39 35q23 18 59 43q29 18 84 34q49 14 109 15q90 0 166 -35q74 -34 117 -92 q47 -63 69.5 -131t22.5 -154q0 -96 -29 -176q-33 -90 -84 -160q-55 -74 -139 -116q-86 -43 -189 -43q-76 0 -127 12q-57 14 -75 26q-33 25 -37 27q-15 12 -25 12q-6 0 -6 -16v-225v-27q0 -43 35 -96q20 -31 51 -39q39 -10 60 -8q25 2 47 -4q20 -6 20 -29q0 -25 -70 -25 q-4 0 -12 1t-23.5 2t-29.5 1q-70 4 -148 5q-23 0 -79 -5q-29 -2 -50 -2q-41 0 -57 5q-12 2 -12 16t8 20q12 8 25 11q16 4 30 10q8 4 31 27q12 12 23 55q10 45 10 96v41q0 188 4 401q2 106 2 164v45v92q0 20 -4 70q-4 43 -8 57l-17 33q-8 16 -28 25q-14 6 -39 6q-29 0 -37 2 q-6 2 -12 8q-3 2 -3 12.5zM346 393q0 -6 1 -23.5t1 -27.5v-51q0 -53 23 -103q20 -45 51 -71q25 -23 74 -43q43 -18 79.5 -24.5t73.5 -6.5q89 0 154 49q66 49 92 121q29 76 29 166q0 100 -37 192.5t-111 153.5t-174 61q-102 0 -186 -65q-31 -25 -43.5 -45.5t-18.5 -87.5 q-8 -86 -8 -195z" />
<glyph unicode="q" horiz-adv-x="1142" d="M80 360q0 108 31 197q33 94 82 150q57 63 118 100q72 43 138 59q72 18 139 19q41 0 92 -11q41 -8 78 -26q31 -15 55.5 -30.5t36.5 -24.5l12 -13q10 0 25 33q16 39 35 66q20 33 41 32q18 0 18 -32q0 -6 -4 -56q-10 -121 -10 -125q-4 -115 -4 -223q0 -135 4 -254 q2 -59 2 -385q0 -53 12 -94t27 -55q12 -12 36 -29q12 -8 35 -12q20 -4 29 -8q10 -6 10 -21q0 -25 -37 -25l-3 1q-3 1 -8 1h-11h-51h-70h-104q-35 0 -56 -4q-14 -2 -24 -4q-4 0 -9.5 -1t-7.5 -1q-27 0 -39 8q-10 6 -10 23q0 14 19 20q16 6 47 13q33 6 39 12q14 8 20 41 q4 20 4 133q0 14 1 51t1 60q0 25 1 50t1 28q0 94 -12 94q-8 0 -35 -27l-57 -57q-31 -31 -96 -56q-70 -27 -144 -26q-147 0 -248 82q-55 45 -86 90q-33 47 -45 96q-10 43 -14 76q-4 36 -4 65zM223 444q0 -98 35 -178q33 -76 88 -121q47 -39 107 -63q55 -23 100 -23q55 0 94 9 q37 8 70 22q23 10 47 35q23 23 31 39q12 23 16 43q6 25 6 41v37v333q0 57 -45 104.5t-110 76.5q-61 27 -121 26q-31 0 -72 -10q-45 -10 -84 -35q-39 -23 -80 -67q-33 -37 -59 -111q-23 -66 -23 -158z" />
<glyph unicode="r" horiz-adv-x="768" d="M45 778q0 23 29 35q37 16 100 35q76 23 141 53q18 8 29 8q27 0 27 -41l-1 -8q-1 -8 -1 -16v-31q0 -49 2 -61l4 -23q4 -4 10 -4q4 0 23 25l17 25.5t24 31.5q29 37 65 57q47 27 86 27q4 0 9 -1t7 -1q10 0 17 -2q2 -2 6 -3l4 -1q3 0 12 -6q8 -6 11 -7l14 -10q4 -4 10 -6 l6 -2q43 -29 43 -59q0 -23 -6 -45q-4 -18 -16 -33l-21 -21q-8 -8 -16 -12t-10 -4q-18 0 -37 12q-16 10 -47 25q-29 12 -72 12q-57 0 -104.5 -45t-47.5 -82v-213v-119q0 -18 1.5 -36.5t1.5 -20.5v-21q0 -2 1 -8t1 -10q0 -41 28 -74q28 -31 68 -37q4 -2 14 -3t15 -1 q12 -2 30 -2q4 0 12.5 -3t10.5 -3q14 -4 18 -8t4 -14q0 -33 -24 -33q-35 0 -94 6q-39 4 -80 4q-65 0 -136 -6q-47 -4 -77 -4q-20 0 -32.5 4t-12.5 6v14q0 29 26 35q51 12 63.5 53t12.5 170v220q0 33 -1 69.5t-1 40.5q0 8 -1 21.5t-1 17.5v23q0 20 -2 28q-2 4 -14 23 q-9 12 -31 18t-56 6l-3 1q-3 1 -7 1h-12q-39 0 -39 33z" />
<glyph unicode="s" horiz-adv-x="802" d="M113 88v178q0 20 10 36.5t20 16.5q12 0 25 -8q6 -4 10 -16q0 -4 3 -10t5 -19l5.5 -17t5.5 -18q8 -20 24 -51q18 -33 39 -61.5t66 -52.5q41 -23 84 -23q18 0 55 8q23 4 57 23q29 14 47.5 45t18.5 69q0 51 -24.5 88t-65.5 60q-57 31 -90 43l-99 41q-55 25 -88 47 q-41 29 -65 72q-27 47 -27 104q0 114 92 184q90 70 217 70q61 0 107 -6q43 -6 67 -17q29 -12 39.5 -20t16.5 -20q4 -8 4 -13q2 -18 4 -55q0 -14 1 -30.5t2 -25t1 -12.5q0 -31 -8 -47q-6 -12 -29 -12q-6 0 -20 20l-13.5 21.5l-15.5 24.5q-25 37 -41 55q-25 29 -66 47 q-45 20 -92 20q-55 0 -96 -28.5t-41 -75.5q0 -23 6 -45.5t23 -38.5l26 -27q12 -12 37 -24l24.5 -9.5t16.5 -7.5q4 -2 19.5 -7t25.5 -9q8 -2 17.5 -6t15.5 -7t8 -3q150 -55 199 -115q51 -59 51 -180q0 -55 -31 -113q-29 -55 -78 -100q-70 -63 -202 -64q-25 0 -78 8 q-47 6 -66 15q-45 16 -53 20q-27 12 -33 13q-4 2 -20 6q-12 4 -16 6l-13 4q-2 2 -10 8l-8 8q-4 8 -4 15q0 2 -1 8t-1 10z" />
<glyph unicode="t" horiz-adv-x="700" d="M55 786q0 14 10.5 24.5t41 35t57 51.5t65.5 80t54 67q20 20 36 21q23 0 23 -47q0 -4 -4 -57.5t-4 -59.5q0 -29 10 -35q12 -6 74 -6h71q49 0 95 8q33 6 45 13q16 8 18 8q20 0 21 -23q0 -16 -27 -63q-27 -49 -39 -49q-10 0 -30.5 1t-28.5 1q-10 0 -26.5 1t-22.5 1 q-8 0 -20.5 1t-18.5 1t-16.5 2t-14.5 2t-11 1t-10 1q-4 0 -8 1t-6 1h-4q-37 0 -49 -12.5t-12 -55.5q0 -6 -1 -26.5t-2.5 -61.5t-1.5 -84q-4 -201 -4 -209q0 -70 7 -108q6 -41 24 -72q20 -33 53 -45q34 -12 93 -12q41 0 94 18q14 4 28.5 10.5t20.5 8.5t8 2q12 0 16.5 -4 t4.5 -20.5t-29 -43.5q-31 -27 -84 -51q-51 -23 -111 -22q-72 0 -127 18q-53 18 -82 43q-33 29 -45 59q-14 37 -18 64q-4 33 -4 55v31q0 119 2 194q0 35 1 101.5t3 95.5q2 55 2 86q0 20 -8 26.5t-35 6.5q-2 0 -9 -1t-11 -1h-19q-16 0 -27 6q-8 6 -8 22z" />
<glyph unicode="u" horiz-adv-x="1179" d="M59 807q0 20 27 33q28 12 111 12q31 0 63 4q49 6 53 6q35 0 41 -14q6 -16 6 -88q0 -76 -4 -142q-6 -98 -6 -219q0 -74 17 -139q14 -59 36 -94q20 -33 56 -57q31 -20 59 -31q25 -8 60 -8q132 0 190 55q59 55 59 194l-4 283q0 109 -14 139q-16 35 -80 41q-45 2 -45 27 q0 47 180 47q6 0 20.5 3t20.5 3t14.5 1t12.5 2t6 1q33 0 41 -12q8 -10 8 -45v-31q0 -12 -4 -78q-2 -33 -2 -112q0 -18 -1 -65.5t-1 -76t-1 -82t-1 -77.5q0 -127 12 -170q12 -45 45 -45h29q6 0 14 1t10 1q49 0 50 -27q0 -23 -15 -29t-61 -6q-37 0 -119 -12q-70 -10 -88 -10 q-12 0 -23 53q-8 51 -14 51q-4 0 -26.5 -20.5t-57.5 -44.5q-33 -25 -90 -45q-55 -20 -121 -21q-330 0 -329 356v281v45.5t1 31.5l1 11q0 43 -21 66q-23 25 -41 24h-16h-21q-37 0 -37 29z" />
<glyph unicode="v" horiz-adv-x="1071" d="M41 852q0 23 39 22q10 0 24 -2q8 -2 25.5 -3t26.5 -1q23 -2 69 -2h60q10 0 30.5 -1t28.5 -1q4 0 41 4q18 2 39 2q37 0 37 -22.5t-12.5 -28.5t-36.5 -6q-6 0 -15.5 -1t-13.5 -1q-16 0 -27 -4q-16 -6 -22 -19q-8 -16 -8 -32q0 -12 6 -31q12 -37 18 -49l11.5 -27.5 l15.5 -34.5l41 -88l49 -108l25 -58l26 -61q10 -25 22.5 -51.5t22.5 -38.5q10 -14 15 -14q20 0 124 247q104 250 105 295q0 33 -12 51q-12 16 -33 21q-12 2 -37 2q-20 0 -32.5 6t-12.5 27q0 27 63 26h62q16 0 41.5 -1t34.5 -1h53q12 0 25.5 1t15.5 1q35 0 47 -6q10 -4 10 -24 q0 -10 -10 -17q-9 -6 -31 -18q-16 -10 -39 -39q-53 -76 -147 -274l-176 -363q-80 -158 -111 -158q-8 0 -16 4q-4 2 -15 17q-8 10 -24 47l-17.5 40.5l-21.5 49.5l-180 412q-47 102 -80 155q-41 66 -58 84q-18 18 -38 35l-13.5 9t-9.5 7q-4 5 -4 21z" />
<glyph unicode="w" horiz-adv-x="1531" d="M41 852q0 23 39 22q10 0 24 -2q8 -2 25.5 -3t26.5 -1q23 -2 69 -2h49q6 0 23.5 1t28.5 1q55 0 80 -4q16 -2 16 -18q0 -14 -14 -21q-23 -8 -31 -10q-14 -2 -31 -18q-14 -14 -14 -47q0 -74 114 -332l9.5 -24.5t13.5 -31.5l12 -30.5t13 -26.5l20 -47q8 -18 18 -33 q8 -12 15 -12q2 0 4 2l2 2l4 4t3 6t3 6q4 8 8 15q2 4 5.5 8t5.5 8l4 8t6 10.5t6 12.5t4 10q12 16 14 25q8 14 13 24q14 29 33 62q10 18 16 33.5t8 17.5l8 16.5t11 18.5q4 8 9 17t5 11l8 21q6 12 6 18q0 4 1 7.5t1 7.5q0 2 1 8t1 10q0 15 -18 62q-18 45 -41 77q-16 27 -47 54 q-20 18 -37 24q-10 4 -23 12q-10 6 -10 19q0 18 31 18q63 0 81.5 -2t166.5 -2q10 0 24.5 1t16.5 1h22q45 0 45 -28q0 -10 -4 -15q-3 -3 -18 -6h-8q-12 -2 -29 -6q-10 -2 -21 -16q-12 -16 -12 -35q0 -29 35 -129q35 -102 86 -213q4 -8 37 -90q29 -72 37 -90q12 -27 22 -27 q14 0 62 108q53 123 90 236q43 129 43 174q0 39 -18.5 57.5t-37.5 20.5q-20 2 -38 12q-18 8 -19 29q0 16 43 16h236q35 0 47 -4t12 -22q0 -12 -10 -19q-12 -8 -21 -10q-6 -2 -28 -16q-16 -10 -31 -31q-23 -31 -37 -62l-37 -84l-80 -184l-141 -309q-55 -119 -74 -137 q-10 -12 -20 -13q-27 0 -80 133l-103 265q-49 133 -61 133q-6 0 -68 -131l-129 -262q-68 -131 -98 -131q-12 0 -29 28q-15 28 -67 166l-148 369l-12 33.5l-12 33.5q-4 14 -11.5 34t-9.5 24l-22 45q-16 33 -33 49q-41 41 -51 49l-19 12l-8 4l-4 2q-4 4 -6 8.5t-2 14.5z" />
<glyph unicode="x" horiz-adv-x="1122" d="M59 29q0 12 7 14q8 4 14 6l29 10q18 8 45 25q41 27 73 53q4 2 76 70q41 37 66 65l61 70q12 14 21.5 23.5l12.5 12.5l6 6t5 7q8 8 8 23q0 4 -22 37q-10 16 -70 86l-82 100q-37 49 -94 102q-45 41 -63 45q-39 6 -64 24.5t-25 37.5q0 10 9 16q12 8 20 8q29 0 82 -4 q2 0 33 -3t45 -3t84 4t82 4q34 0 43 -6q10 -6 10 -20q0 -8 -10 -15q-10 -8 -23 -10q-16 -4 -24 -12q-10 -10 -11 -23q0 -2 5 -14l10 -20q6 -12 12 -21t19 -25q6 -10 11 -14t7 -8q106 -150 108 -152q10 -10 17 -10q8 0 20 17l64 79q61 74 78 105q14 25 14 45q0 25 -25 37 l-47 20q-23 8 -22 23q0 8 2 10q8 8 14 10q16 4 37 4h61q16 0 38 -1t30 -1q4 0 24.5 1t39.5 1q16 0 42.5 1t34.5 1q10 0 27 -8q12 -6 12 -18.5t-12 -18.5t-31 -12q-25 -8 -55 -29q-37 -25 -76 -63l-160 -166q-76 -82 -75 -92q0 -8 24 -35l162 -188l23 -27q20 -25 26 -33 q2 -4 5 -6t9.5 -8t14.5 -16l33 -33q6 -4 10 -8.5t10 -9.5t14 -11q18 -14 41 -25q25 -12 39 -16q4 -1 10 -3q4 -1 5 -1q4 0 8 -6q2 -4 2 -14q0 -14 -12 -21q-8 -4 -58 -4q-25 0 -51.5 2t-69.5 2q-37 0 -63.5 -2t-56.5 -2h-23q-33 0 -53 4q-16 4 -17 16q0 6 13 13q18 8 24 10 q10 2 25 12q10 8 10 25q0 23 -29 67q-23 33 -77 101q-53 61 -74 94q-12 18 -19 18q-8 0 -22 -20l-59 -72l-54 -61l-30 -47q-14 -23 -15 -47q0 -31 14.5 -45.5t34.5 -14.5q12 0 33 -8q14 -6 15 -27q0 -8 -2.5 -10t-22.5 -6q-12 -2 -59 -2q-27 0 -50 2q-45 4 -57 4t-57 -4 t-51 -4q-91 0 -91 33z" />
<glyph unicode="y" horiz-adv-x="1019" d="M41 844q0 14 12 18q16 6 29 6q78 0 119 -2t100 -2q45 0 63.5 2t53.5 2q8 0 24 -8q12 -6 13 -14q0 -4 -1 -9.5t-1 -7.5q0 -4 -7 -10l-4 -2q-4 -2 -4 -4q-2 -2 -12 -2q-6 0 -9 -1t-5 -1h-17h-20q-33 0 -33 -57q0 -35 18 -84q23 -61 80 -187q8 -18 14.5 -29.5t10.5 -19.5 l24 -57l27 -62q10 -25 23 -49l20 -39q10 -12 14 -12q14 0 97 236q82 233 82 284q0 33 -15 53q-12 16 -30 21q-25 4 -37 4q-14 0 -31 8q-14 8 -14 27q0 25 39 24q8 0 34.5 -1t44.5 -1h68h70h28.5t20.5 1l8 1q43 0 43 -26q0 -16 -16 -23q-20 -8 -35 -12q-25 -6 -33 -21 q-31 -45 -111 -258l-182 -485l-35 -96l-30 -84q-6 -16 -13.5 -32.5t-13.5 -37.5q-12 -37 -20 -59q-12 -33 -19 -47q-2 -6 -7 -18.5t-7 -16.5l-13 -25q-8 -12 -12 -14q-8 -4 -10 -4l-2 -1q-2 -1 -4 -1h-27h-61q-39 0 -39 26q0 4 28 43q6 8 26 33l40 51q37 49 64 113 q29 68 28 119q0 59 -117 311q-129 276 -202 418q-20 43 -45 63q-25 23 -39 25q-18 4 -25 8q-8 7 -8 25z" />
<glyph unicode="z" horiz-adv-x="774" d="M82 31q0 4 1 9t1 7t1 6t1 6q0 4 8 17q2 4 6 9t6 9l21 29q6 8 10 14t7 9.5t8 11.5q375 538 374 571q0 10 -47 10q-2 0 -67 -4q-55 -4 -107 -6q-14 0 -32.5 -1t-27.5 -2t-16 -1q-31 -4 -51 -20q-18 -16 -33 -41q-20 -37 -22 -39q-10 -16 -21 -17q-16 0 -16 23q0 49 4 76 q8 53 14 79q8 35 9 50q4 18 14 26q14 10 27 10l12 -1q12 -1 22 -1q8 0 34 -1t44 -1q16 0 51 -1t56 -1q102 0 170 2q27 0 57.5 1t48 2t25.5 1q10 0 16 -6q8 -8 8 -14q0 -14 -12 -33q-10 -14 -27 -35q-18 -23 -20 -26l-195 -285l-155 -225q-47 -72 -47 -98q0 -18 100 -19 q6 0 24.5 1t30.5 1h45q45 0 78 6q23 4 53 15q20 6 33 22q12 15 19 25q4 6 12 30q2 6 6 15.5t4 11.5l8 16q6 6 11 9q8 4 16 4q10 0 23 -8q10 -6 10 -21q-4 -8 -8 -22q-4 -8 -8.5 -20.5l-10.5 -29.5l-22 -53l-17 -53q-8 -33 -20 -57q-10 -18 -27 -19h-125h-108h-66 q-18 0 -47 -1t-37 -1h-35h-49l-14 -2q-39 0 -39 31z" />
<glyph unicode="{" horiz-adv-x="557" d="M86 547q0 25 10 35q16 16 27 20q18 6 27 19q12 15 12 36q0 33 -4 410t-4 436q0 20 10 28.5t26 8.5q25 0 60 -8t67 -8q43 0 84 6t54 6q37 0 37 -20q0 -29 -23 -50q-31 -27 -59 -36q-45 -16 -68 -21q-34 -6 -55 -6q-14 0 -15 -19q-6 -590 -6 -862q0 -176 2 -350 q4 -348 4 -387q0 -8 23 -14q23 -4 61 -15q40 -9 68 -24q70 -39 70 -84q0 -18 -17 -19l-3 1q-3 1 -8 2t-11 1q-8 2 -28.5 5.5t-27.5 5.5q-23 4 -69 4q-66 0 -103 -14.5t-51 -14.5q-12 0 -18 6t-6 19q0 225 2 397q4 344 4 372.5t-13 47.5q-14 20 -24 28q-16 12 -25 23 q-10 12 -10 35z" />
<glyph unicode="|" horiz-adv-x="425" d="M160 -178q0 152 6 643t6 702q0 33 -1 88.5t-1 79.5v123v53q0 25 12.5 37.5t38.5 12.5q29 0 37 -10.5t8 -41.5v-20q0 -6 -1 -15.5t-1 -11.5l1 -17q1 -17 1 -34v-111q0 -23 1 -74.5t1 -80.5t-4 -570q-2 -141 -4 -324t-2 -231q0 -233 2 -301l1 -3q1 -3 1 -7v-10v-33v-16 q0 -6 -1 -16.5t-1 -12.5q0 -8 -4 -24q-4 -14 -8 -19q-6 -6 -21 -6q-45 0 -57 20q-10 18 -10 105v125z" />
<glyph unicode="}" horiz-adv-x="557" d="M66 -352q0 45 69 84q28 15 68 24q39 10 61 15q23 6 23 14q0 39 4 387q2 174 2 350q0 272 -6 862q0 18 -15 19q-22 0 -55 6q-23 4 -67 21q-29 10 -60 36q-23 20 -22 50q0 20 36 20q14 0 53.5 -6t84.5 -6q33 0 67.5 8t59.5 8q16 0 26.5 -8t10.5 -29q0 -59 -4.5 -436 t-4.5 -410q0 -22 13 -36q8 -12 26 -19q10 -4 27 -20q10 -10 10 -35q0 -23 -10 -35q-12 -14 -25 -23q-8 -6 -24 -28q-12 -18 -12.5 -47t4.5 -373q2 -172 2 -397q0 -12 -6.5 -18.5t-18.5 -6.5q-14 0 -51 14.5t-103 14.5q-47 0 -69 -4q-6 -2 -26.5 -5.5t-29.5 -5.5q-6 0 -11 -1 t-8 -2l-3 -1q-16 1 -16 19z" />
<glyph unicode="~" horiz-adv-x="778" d="M59 352q0 4 13 23q2 2 12 20.5t18 28.5q2 2 48 53q23 25 59.5 45.5t64.5 20.5q43 0 119 -47q72 -45 121 -45q31 0 64 16q35 16 47 33l30 35q16 16 23 16q20 0 30.5 -8t10.5 -23q0 -4 -12 -22q-23 -35 -33 -47q-14 -18 -53 -54q-27 -23 -66 -43q-37 -18 -76 -18 q-46 0 -86 24q-6 4 -32.5 19.5t-41.5 26.5q-37 25 -71.5 24.5t-59.5 -16.5q-29 -18 -43 -39q-8 -12 -16 -21.5t-12 -15.5q-12 -18 -17 -19q-41 0 -41 33z" />
<glyph unicode="&#xa2;" horiz-adv-x="923" d="M80 393q0 156 86 281q90 131 227 178q23 8 39 10q6 2 13.5 4t9.5 2q6 0 12 6.5t6 10.5v26v74q0 10 10 16q6 4 23 5q23 0 33 -5q16 -6 16 -14v-94v-8q0 -6 4 -6l4 -1q4 -1 6 -1h17q4 0 12 -1.5t12 -1.5t33 -4l43 -6q53 -10 82 -26q18 -6 20 -13q3 -6 7 -30q4 -33 4 -80 q0 -90 -23 -90q-12 0 -22 10q-9 9 -18.5 24.5t-43.5 42.5q-37 31 -88 54q-29 14 -39 14q-12 0 -12 -41q0 -82 -1 -206t-1 -167q-2 -147 -2 -194v-70q0 -16 6 -22.5t29 -6.5q51 0 106 17q52 15 80 37l27.5 19t25.5 18q27 16 31 16q10 0 16.5 -6t6.5 -14q0 -6 -13 -25 q-16 -25 -35 -43q-23 -23 -59 -49q-31 -23 -86 -45q-49 -20 -111 -27l-3 -1q-3 -1 -5 -1q-12 0 -16 -4q-2 -2 -2 -23v-51v-67q0 -23 -43 -23q-35 0 -35 19v131q0 4 -1 8l-1 4l-4 4q-2 2 -8 2l-4 1q-4 1 -9 1q-2 0 -10 1t-12 1t-15.5 3t-17.5 3q-18 2 -41 13 q-129 43 -196 147q-70 106 -70 264zM233 459q0 -72 21 -133q23 -68 51 -105q35 -47 64 -71q35 -33 57 -44q29 -14 33 -14q10 0 10 31q0 260 2 647q0 23 -4 25q-8 4 -31 4q-8 0 -37 -8q-20 -6 -51 -31q-37 -29 -55 -58q-25 -37 -43 -100q-17 -57 -17 -143z" />
<glyph unicode="&#xa3;" horiz-adv-x="1138" d="M41 88q0 47 35 82t104 35q25 0 74 -12q45 -12 63 -21q20 -10 27 -10q10 6 27 53q14 43 14 90q0 115 -98 332q-4 8 -6 14q-2 4 -5 7l-2 4l-4 8q-3 6 -6 6q-2 0 -2 1q-2 3 -4 3q-4 2 -10 2h-12h-58q-16 0 -52 -1t-54 -1q-29 0 -29 45q0 25 6 35q6 8 21 8h118q35 0 35 4 t-14 45q-18 53 -33 117q-16 76 -16 135q0 104 37 184q39 84 96 127q59 45 131 70q66 23 149 23q133 0 237.5 -61.5t104.5 -151.5q0 -34 -30 -68q-31 -35 -51 -35q-14 0 -29 21q-10 16 -27 57q-16 43 -30 65q-27 43 -86 72q-55 27 -125 27q-100 0 -166 -58q-70 -59 -70 -176 q0 -31 2 -45t6 -47l5 -24.5t3 -18.5q4 -23 13 -45q8 -25 12 -39q2 -4 7 -16t9 -23q6 -14 9.5 -21t5.5 -12l14 -34q10 -27 12 -29q16 -33 19 -35q6 -6 20 -6h318q31 0 37 -8q6 -9 6 -37q0 -27 -8.5 -35t-38.5 -8h-250q-45 0 -45 -8q2 -14 12 -41q8 -23 29 -103 q14 -57 14 -114q0 -37 -2 -56q-4 -37 -8 -51l-13 -45q-2 -8 -8 -20.5t-8 -18.5q-6 -20 -14 -32q-4 -6 -7 -15.5t-5.5 -11.5t-5.5 -8t-5 -11l-6 -10q37 -10 115 -22q82 -12 170 -13q72 0 123 15q47 12 88 39q29 18 61 51q20 20 41 49l13.5 19.5l13.5 19.5q12 14 18 14 q10 0 18.5 -8t8.5 -22q0 -18 -10 -60q-10 -39 -33 -82q-25 -47 -58 -82q-37 -41 -92 -63q-63 -27 -127 -27q-186 0 -407 90q-8 0 -35 -20q-18 -14 -72 -37q-47 -20 -100 -21q-59 0 -92 33t-33 78zM119 90q0 -18 20.5 -36.5t46.5 -18.5q40 0 74 24q35 25 39 37q-12 12 -47 23 q-33 10 -76 10q-57 0 -57 -39z" />
<glyph unicode="&#xa5;" horiz-adv-x="1456" d="M41 1409q0 23 22 29q25 6 105 6q27 0 55.5 -2t63.5 -2q4 0 30.5 1t51.5 1h92q102 0 102 -25q0 -12 -12 -22q-14 -10 -31 -15q-12 -2 -28 -14q-14 -10 -15 -20q0 -18 6 -41q4 -16 23 -45q4 -8 13 -23.5l13 -22.5l29 -45q6 -10 27 -36q80 -125 139 -203q74 -98 82 -99h16 q8 0 15 7q16 14 18 20q18 31 21 35q2 6 7 13t12 18.5t13 19.5l43 68l25 35l25 36q4 6 9 15.5t13 21.5q6 10 12 18.5t11 16.5q4 6 9 14.5l11 18.5q8 12 18 33l13 28q6 14 8 25q2 8 2 20q0 41 -22.5 61.5t-53.5 20.5q-27 0 -53 10q-23 8 -23 33t58 25q2 0 14 -1t23 -1h47 q14 0 52 -1t62 -1h103q51 0 75.5 -6.5t24.5 -24.5q0 -8 -10 -14q-20 -10 -37 -17q-20 -8 -41 -24q-35 -27 -92 -99q-61 -76 -90 -118l-94 -144l-64 -96l-20 -29l-15 -20q0 -2 -3 -5t-3 -5q0 -6 25 -7q20 -2 205 -2q10 0 18 -12q10 -14 10 -34.5t-8 -32.5q-6 -8 -20 -9h-215 h-23.5h-19t-12.5 -1t-8 -1h-3q-16 0 -27 -12q-10 -14 -16 -61q-6 -49 -6 -146q0 -18 4 -22t14 -4h13q4 0 9 1t7 1h256q35 0 41 -11q6 -9 6 -36q0 -20 -2 -25q-6 -10 -12 -14q-12 -6 -37 -7h-154q-37 0 -72.5 -1t-37.5 -1q-20 0 -29 -4q-6 -4 -6 -22v-17v-36q0 -8 1 -23.5 t1 -26.5v-49q0 -51 12 -88q10 -31 33 -49q20 -16 35 -23q10 -4 28 -4l4 -1q3 -1 7 -2t10 -1t10 -1t7 -2l3 -1q12 0 23 -6q8 -6 8 -16q0 -18 -8 -25q-6 -4 -29 -4h-106q-43 2 -92 2q-88 0 -148 -4q-90 -6 -96 -6q-51 0 -51 24q0 18 8 25q6 4 34.5 8t39.5 6q86 25 86 127 q0 25 2 74t2 119q0 22 -6 24q-8 4 -29 4h-129q-23 0 -75 1.5t-79 1.5q-12 0 -20 10t-8 35q0 23 8 34q6 8 18 9h43h117h63h23h16h15q28 0 37 6q8 6 8 28l-1 10q-1 9 -1 17v43q0 53 -14.5 94t-41.5 45q-2 0 -12 1t-18 1h-205q-35 0 -41 9q-8 12 -8 38q0 20 2 25q4 6 14 12 q12 6 37 6q186 0 186 7q0 2 -28 47l-201 299q-43 61 -84 110q-37 43 -68 62q-29 16 -51 24q-12 4 -47 4q-51 0 -51 27z" />
<glyph unicode="&#xa9;" horiz-adv-x="1628" d="M90 686q0 141 57 281q55 133 152 233q98 100 233 160q133 57 287 57q152 0 285 -57q129 -55 233 -160q92 -92 154 -233q57 -133 57 -281q0 -197 -94 -360q-96 -168 -264 -268.5t-373 -100.5q-193 0 -360 96q-170 98 -267 262q-100 172 -100 371zM176 686 q0 -137 51.5 -254t139.5 -205q84 -84 206 -135q117 -49 246 -49q168 0 318 84q147 84 235 231q90 152 90 330q0 129 -49 246q-51 121 -135 205q-88 88 -205 139t-256 51q-135 0 -252 -51q-119 -53 -205 -137q-86 -86 -135 -207q-49 -119 -49 -248zM336 659q0 102 31 189 q29 80 92 153q53 63 153 105q92 39 209 39q78 0 158 -23q66 -18 123 -45l49 -22q2 0 8 6t17 6q8 0 12 -2q6 -2 8 -8q4 -8 4 -15q0 -2 4 -22q2 -10 2 -31q0 -10 4 -43q2 -8 4.5 -24.5t4.5 -24.5q0 -6 1 -12t2 -10.5t1 -7.5v-3q0 -31 -27 -30q-16 0 -29 22q-121 219 -346 219 q-156 0 -252 -94q-98 -96 -98 -248q0 -66 10 -110q10 -47 41 -115q23 -49 74 -105q41 -43 119 -75q70 -29 168 -29q162 0 278 162q16 25 23 39q12 29 14 30q8 8 25 9q14 0 14 -17q0 -55 -25 -170q-2 -14 -26 -28q-6 -2 -19.5 -9.5t-38.5 -19.5l-61 -29q-6 -4 -59 -20 q-35 -12 -76 -19q-25 -4 -82 -4q-92 0 -170 19q-74 18 -129 47q-47 25 -92 69.5t-64 79.5q-23 41 -37 82q-14 43 -18 78q-4 45 -4 61z" />
<glyph unicode="&#xad;" d="M90 297v22v37q0 12 10 27q2 2 5.5 6t5.5 6t2 4q2 4 22 13q8 2 29 10q9 3 43 12q92 27 192 64l113 41q35 10 49 10q45 0 45 -70v-12q0 -18 -4 -35q-2 -8 -6 -20q-2 -8 -23 -15q-25 -8 -34 -12q-15 -6 -56 -18l-75 -23q-57 -18 -115 -39q-78 -27 -80 -29q-27 -10 -49 -16 q-20 -6 -41 -6t-27 10q-6 13 -6 33z" />
<glyph unicode="&#xae;" horiz-adv-x="978" d="M59 1118q0 180 125 305q127 127 301 127q180 0 307.5 -127t127.5 -305q0 -174 -127 -301t-308 -127q-174 0 -301 127q-125 125 -125 301zM121 1118q0 -147 108 -256q106 -106 256 -106q156 0 263 106q109 109 108 256q0 152 -108.5 260.5t-262.5 108.5 q-147 0 -255.5 -108.5t-108.5 -260.5zM252 1348q0 18 24 18h27h21q76 0 106.5 2t48.5 2q78 0 127 -31q51 -33 51 -100q0 -37 -22 -63q-16 -18 -45 -31l-12.5 -4t-9.5 -4l-3 -2l3 -4q4 -5 5 -7q2 -4 10 -11q5 -7 9 -11q14 -16 18 -27q23 -41 76 -114q25 -31 43 -31h6q2 0 3 1 l3 1q10 0 11 -8q0 -12 -13 -25q-10 -10 -38.5 -10t-55.5 14q-25 16 -57 66l-62 100q-29 49 -43 51h-51q-14 0 -16 -6q-4 -8 -4 -39q0 -78 6 -102q8 -31 28 -39q29 -12 39 -12q16 0 16.5 -12.5t-14.5 -12.5q-18 0 -51 2t-53 2q-12 0 -57 -4h-35q-14 0 -15 14q0 10 13 11 q8 0 24.5 10t18.5 35q2 14 2 67v49v129q0 23 1 45l1 23q0 53 -62 53q-22 1 -22 15zM412 1221q0 -45 4 -56q6 -14 24 -14q4 0 10.5 -1t8.5 -1h10q59 0 84 18.5t25 69.5q0 12 -11 37q-8 18 -41 41q-29 20 -80 20q-23 0 -28.5 -8t-5.5 -39v-67z" />
<glyph unicode="&#xb4;" horiz-adv-x="899" d="M371 1006q0 12 14 32q18 25 55 95q40 74 86 184q18 39 41 39t66 -12.5t43 -40.5q0 -43 -201 -256q-61 -63 -80 -64q-10 0 -16 6q-8 9 -8 17z" />
<glyph unicode="&#x2000;" horiz-adv-x="790" />
<glyph unicode="&#x2001;" horiz-adv-x="1581" />
<glyph unicode="&#x2002;" horiz-adv-x="790" />
<glyph unicode="&#x2003;" horiz-adv-x="1581" />
<glyph unicode="&#x2004;" horiz-adv-x="526" />
<glyph unicode="&#x2005;" horiz-adv-x="393" />
<glyph unicode="&#x2006;" horiz-adv-x="262" />
<glyph unicode="&#x2007;" horiz-adv-x="262" />
<glyph unicode="&#x2008;" horiz-adv-x="196" />
<glyph unicode="&#x2009;" horiz-adv-x="315" />
<glyph unicode="&#x200a;" horiz-adv-x="86" />
<glyph unicode="&#x2010;" d="M90 297v22v37q0 12 10 27q2 2 5.5 6t5.5 6t2 4q2 4 22 13q8 2 29 10q9 3 43 12q92 27 192 64l113 41q35 10 49 10q45 0 45 -70v-12q0 -18 -4 -35q-2 -8 -6 -20q-2 -8 -23 -15q-25 -8 -34 -12q-15 -6 -56 -18l-75 -23q-57 -18 -115 -39q-78 -27 -80 -29q-27 -10 -49 -16 q-20 -6 -41 -6t-27 10q-6 13 -6 33z" />
<glyph unicode="&#x2011;" d="M90 297v22v37q0 12 10 27q2 2 5.5 6t5.5 6t2 4q2 4 22 13q8 2 29 10q9 3 43 12q92 27 192 64l113 41q35 10 49 10q45 0 45 -70v-12q0 -18 -4 -35q-2 -8 -6 -20q-2 -8 -23 -15q-25 -8 -34 -12q-15 -6 -56 -18l-75 -23q-57 -18 -115 -39q-78 -27 -80 -29q-27 -10 -49 -16 q-20 -6 -41 -6t-27 10q-6 13 -6 33z" />
<glyph unicode="&#x2012;" d="M90 297v22v37q0 12 10 27q2 2 5.5 6t5.5 6t2 4q2 4 22 13q8 2 29 10q9 3 43 12q92 27 192 64l113 41q35 10 49 10q45 0 45 -70v-12q0 -18 -4 -35q-2 -8 -6 -20q-2 -8 -23 -15q-25 -8 -34 -12q-15 -6 -56 -18l-75 -23q-57 -18 -115 -39q-78 -27 -80 -29q-27 -10 -49 -16 q-20 -6 -41 -6t-27 10q-6 13 -6 33z" />
<glyph unicode="&#x2013;" horiz-adv-x="1024" d="M0 438q0 33 14.5 41t55.5 8h911q23 0 33 -12q10 -14 10 -49q0 -23 -12.5 -35t-30.5 -12h-903q-59 0 -68 8q-10 10 -10 51z" />
<glyph unicode="&#x2014;" horiz-adv-x="2048" d="M0 438q0 33 14.5 41t55.5 8h1935q23 0 33 -12q10 -14 10 -49q0 -23 -12.5 -35t-30.5 -12h-1927q-59 0 -68 8q-10 10 -10 51z" />
<glyph unicode="&#x2018;" horiz-adv-x="538" d="M150 1104q0 66 20 133q16 57 47 100q23 33 59 70q25 25 58 41q25 12 39 12q12 0 18 -8q8 -12 8 -16q0 -14 -18 -29q-2 -2 -16.5 -14.5t-22.5 -18.5q-20 -14 -38.5 -55t-18.5 -90q0 -47 14 -78q16 -35 35 -51q27 -23 41 -31q18 -10 34.5 -26.5t16.5 -36.5q0 -2 -1 -4 l-1 -3q0 -4 -4 -8q-2 0 -4 -4t-2 -6l-11 -10l-10 -10l-10 -11l-12 -12q-10 -10 -23 -25q-23 -27 -29 -30q-10 -8 -30 -9q-6 0 -21 7q-6 2 -35 26q-18 16 -38 43q-18 25 -31 66q-14 47 -14 88z" />
<glyph unicode="&#x2019;" horiz-adv-x="538" d="M115 1329q0 2 1 3l1 3q0 4 4 8q2 0 4 4.5t2 6.5l3 4q3 4 5 6l10 10l5 3q4 3 8 7l12 13l3 3q3 3 7 9t10 12q18 22 31 31q10 8 31 8q6 0 20 -6q6 -2 35 -27q18 -16 39 -43q18 -25 30.5 -65.5t12.5 -87.5q0 -70 -18.5 -131.5t-46.5 -102.5q-18 -27 -62 -69q-27 -27 -55 -41 q-25 -12 -39 -13q-12 0 -18 9q-8 12 -9 16q0 14 19 29q2 2 16 14t23 19q20 14 39 55q18 40 18 92q0 41 -16 78q-14 31 -35 49q-25 23 -41 31q-14 8 -35 28q-14 15 -14 35z" />
<glyph unicode="&#x201c;" horiz-adv-x="937" d="M150 1104q0 66 20 133q16 57 47 100q23 33 59 70q25 25 58 41q25 12 39 12q12 0 18 -8q8 -12 8 -16q0 -14 -18 -29q-2 -2 -16.5 -14.5t-22.5 -18.5q-20 -14 -38.5 -55t-18.5 -90q0 -47 14 -78q16 -35 35 -51q27 -23 41 -31q18 -10 34.5 -26.5t16.5 -36.5q0 -2 -1 -4 l-1 -3q0 -4 -4 -8q-2 0 -4 -4t-2 -6l-11 -10l-10 -10l-10 -11l-12 -12q-10 -10 -23 -25q-23 -27 -29 -30q-10 -8 -30 -9q-6 0 -21 7q-6 2 -35 26q-18 16 -38 43q-18 25 -31 66q-14 47 -14 88zM551 1104q0 72 18 133q16 57 47 100q18 27 62 70q27 27 55 41q25 12 39 12 q12 0 19 -8q8 -12 8 -16q0 -14 -19 -29q-2 -2 -16 -14.5t-23 -18.5q-20 -14 -38.5 -55t-18.5 -90q0 -41 16 -78q16 -35 35 -51q27 -23 41 -31q18 -10 35 -27q14 -14 14 -36q-1 -3 -2 -7q0 -4 -4 -8l-2 -4q-2 -4 -4 -6l-3 -4q-3 -4 -5 -6l-10 -10l-4 -4l-9 -7l-12 -12l-3 -3 q-3 -3 -7 -9t-10 -13q-18 -22 -31 -30q-10 -8 -31 -9q-4 0 -20 7q-6 2 -35 26q-18 16 -39 43q-18 25 -30.5 66t-12.5 88z" />
<glyph unicode="&#x201d;" horiz-adv-x="937" d="M115 1329q0 2 1 3l1 3q0 4 4 8q2 0 4 4.5t2 6.5l3 4q3 4 5 6l10 10l5 3q4 3 8 7l12 13l3 3q3 3 7 9t10 12q18 22 31 31q10 8 31 8q6 0 20 -6q6 -2 35 -27q18 -16 39 -43q18 -25 30.5 -65.5t12.5 -87.5q0 -70 -18.5 -131.5t-46.5 -102.5q-18 -27 -62 -69q-27 -27 -55 -41 q-25 -12 -39 -13q-12 0 -18 9q-8 12 -9 16q0 14 19 29q2 2 16 14t23 19q20 14 39 55q18 40 18 92q0 41 -16 78q-14 31 -35 49q-25 23 -41 31q-14 8 -35 28q-14 15 -14 35zM514 1329l2 6q0 4 4 8l2 5q2 4 4 6l11 10l10 10l10 10l12 13l23 24q23 27 29 31q10 8 30 8q4 0 21 -6 q6 -2 35 -27q18 -16 38 -43q18 -25 31 -65q14 -47 15 -88q0 -63 -21 -131q-18 -61 -47 -103q-23 -33 -59 -69q-25 -25 -58 -41q-25 -12 -39 -13q-12 0 -18 9q-8 12 -8 16q0 14 18 29q2 2 16.5 14l22.5 19q20 14 39 55q18 40 18 92q0 47 -14 78t-35 49q-25 23 -41 31 q-14 8 -35 28q-16 17 -16 35z" />
<glyph unicode="&#x2022;" horiz-adv-x="856" d="M121 678q0 127 90 217t217 90q131 0 219 -88q90 -90 90 -219q0 -125 -90 -219q-88 -90 -217 -90q-125 0 -219 90q-90 88 -90 219z" />
<glyph unicode="&#x2026;" horiz-adv-x="1546" d="M1143 113q0 23 63 80q14 14 25 28q14 18 30 33q12 10 31 10q16 0 84 -80l4 -4q4 -4 8 -9t11 -9l28 -29q10 -10 11 -20q0 -8 -11 -23q-8 -10 -30 -27q-22 -15 -31 -24q-6 -6 -23 -29l-30 -30q-12 -12 -25 -13q-18 0 -47 35t-35 41q-63 50 -63 70zM627 113q0 23 63 80 q14 14 25 28q14 18 30 33q12 10 31 10q16 0 84 -80l4 -4q4 -4 8 -9t11 -9l28 -29q10 -10 11 -20q0 -8 -11 -23q-8 -10 -30 -27q-22 -15 -31 -24q-6 -6 -23 -29l-30 -30q-12 -12 -25 -13q-18 0 -47 35t-35 41q-63 50 -63 70zM111 113q0 23 63 80q14 14 25 28q14 18 30 33 q12 10 31 10q16 0 84 -80l4 -4q4 -4 8 -9t11 -9l28 -29q10 -10 11 -20q0 -8 -11 -23q-8 -10 -30 -27q-22 -15 -31 -24q-6 -6 -23 -29l-30 -30q-12 -12 -25 -13q-18 0 -47 35t-35 41q-63 50 -63 70z" />
<glyph unicode="&#x202f;" horiz-adv-x="315" />
<glyph unicode="&#x205f;" horiz-adv-x="393" />
<glyph unicode="&#x20ac;" horiz-adv-x="1255" d="M41 596l39 96h135q20 78 74 158q49 74 100 115q59 45 117 71q68 31 112 41q53 12 103 13q121 0 213 -37q88 -35 182 -123l-45 -103l-8 12l-14 19q-12 16 -48 43q-16 12 -67 43q-31 18 -92 35q-51 14 -113 14q-51 0 -111 -16q-63 -18 -114 -47q-57 -33 -106.5 -94.5 t-80.5 -143.5h699l-39 -96h-680l-1 -6q-1 -6 -1 -10v-25v-23q0 -4 1 -10l1 -6h645l-41 -98h-584q25 -76 74 -137.5t107 -94.5q61 -37 116 -53q51 -16 113 -16q66 0 117 14q61 16 90 33q43 25 70 45q34 28 43 37l5 5l5 5t6 5t6 7l2 2h6v-125q-156 -125 -344 -125 q-76 0 -143 21q-84 25 -146 61q-72 41 -135 125q-57 76 -94 191h-168l39 98h113v80h-158z" />
<glyph unicode="&#x2122;" horiz-adv-x="3319" d="M1481 1423q0 31 37 31q25 0 55.5 -4t52.5 -4q49 0 84 2t70 2q37 0 49 -29l88 -192l103 -219l96 -211l96 -203l78 -160q51 -104 59 -117q23 -39 29 -38.5t12 6.5q10 10 15 20l7 14.5t7 12.5q8 16 14 31l13 28l264 545l78 168q16 37 31.5 66.5t25.5 52.5q8 20 17.5 38.5 t17.5 36.5q6 14 20 50q8 20 10 26q3 9 7 13q2 2 2 5q2 3 2 5q2 2 8 18l10 21q3 6 19 12q10 4 41 4q49 0 71.5 -2t104.5 -2h16q4 0 12 -8q6 -6 6 -19q0 -18 -14 -28.5t-53 -16.5q-49 -6 -72 -51q-20 -41 -20 -172q0 -279 12 -502t12 -280q0 -55 4 -121q4 -59 11 -86 q10 -41 20 -60q12 -20 33 -32q18 -10 43 -15q29 -4 59 -4q12 0 27 -10q10 -8 10 -18q0 -23 -8 -29q-6 -4 -37 -4q-80 0 -119 4t-90 4q-78 0 -119 -4q-61 -6 -94 -6q-37 0 -37 28q0 20 17 27q18 8 39 10q25 4 45 26.5t32 70.5q8 37 9 131q0 35 -4 157l-7 179q-2 31 -5 86 t-3 77q-2 39 -5 70t-3 55l-2 52q0 88 -18 88q-6 0 -15 -9q-6 -6 -20 -30q-4 -6 -10.5 -18.5t-10.5 -18.5q-2 -6 -8 -19.5t-16 -33.5l-285 -576l-104 -217q-41 -84 -45 -90q-8 -12 -23 -12q-12 0 -21 8q-10 10 -18 26q-4 6 -9 20.5t-7 18.5t-9.5 23.5t-13.5 32.5 q-10 23 -31 63l-374 758q-16 27 -23 26q-16 0 -16 -81q-2 -115 -11 -316q-8 -205 -8 -225v-92q0 -12 1 -29.5t1 -24.5q0 -8 3 -25.5t3 -25.5q2 -23 15 -47q10 -20 26 -37q23 -25 46 -30q37 -12 63 -15q8 0 20 -8q8 -6 9 -14q0 -25 -6.5 -31t-24.5 -6q-12 0 -123 4 q-25 0 -46.5 1t-31.5 2t-12 1q-23 0 -59 -2q-74 -4 -109 -4q-25 0 -33 4q-10 4 -10 29q0 16 10 18q2 0 12.5 3t18.5 5q25 4 39 11q23 10 43 38q20 31 33 80q8 29 24 357q14 289 15 460q0 102 -5 140q-6 49 -18 98q-12 46 -37 74q-27 29 -61 47q-33 16 -92 33q-27 5 -27 30z M41 1188q0 82 20 211q0 2 1 7t1 9t2 10l1 7q0 2 2 6t2 8q2 6 6 10q6 6 10 8q8 4 16 4q2 0 10.5 1t12.5 1q47 0 172 -8t405 -8q487 0 631 10q2 0 4 1t4 1h7q16 0 24 -8q10 -10 12 -14t2 -12q0 -12 6.5 -86t6.5 -80q0 -53 -6.5 -65.5t-26.5 -12.5q-16 0 -23 24q-6 20 -12 45 q0 4 -3 8.5t-6 11.5t-5 13q-8 20 -23 27l-32 16q-23 10 -52 13q-20 2 -73 2h-267q-49 0 -61 -21q-10 -18 -10 -110v-101q0 -205 -4 -483q-2 -139 -2 -266v-74q0 -16 -1 -36.5t-1 -23.5q0 -88 28 -116q25 -25 60 -37q37 -14 57 -17q29 -4 39 -10q16 -10 16 -26q0 -23 -10 -29 t-39 -6q-35 0 -108.5 8t-118.5 8q-35 0 -101 -8q-49 -6 -108 -6q-76 0 -76 33q0 18 19 28q18 9 43 13q33 4 51 8q25 6 47 24t24 56q20 190 21 774l-2 366q0 31 -8 39q-12 12 -39 15q-41 4 -109 4q-150 0 -215 -8q-76 -10 -86 -15q-12 -6 -29 -28q-16 -20 -28 -54 q-10 -27 -15 -49q-2 -18 -14 -33q-10 -14 -27 -14q-22 0 -22 35z" />
<glyph unicode="&#xe000;" horiz-adv-x="870" d="M0 870h870v-870h-870v870z" />
<glyph unicode="&#xfb01;" horiz-adv-x="1286" d="M781 780.5q0 12.5 4 16.5q6 6 20 12q4 2 16.5 6t16.5 6t19.5 7.5l27.5 9.5q6 2 19.5 7l23.5 9t19 8q29 12 41 19q6 4 16 8l10 4q2 2 7 3t8 1q6 2 20 2q12 0 20 -8q10 -10 11 -31q0 -12 -6.5 -45t-6.5 -53v-561q0 -47 15 -86q12 -33 31 -45q10 -8 43 -17q14 -4 43 -4 q20 0 32.5 -6t12.5 -23q0 -35 -35 -34h-15q-4 0 -9 1t-7 1q-55 0 -75.5 2t-69.5 2q-61 0 -90 -2t-56 -2q-82 0 -82 26q0 14 8 25q8 12 23 14q45 16 53 25q23 23 29 119q2 39 2 225v180q0 39 -8 80q-6 35 -20.5 45t-28.5 18q-10 4 -33 9q-18 2 -29 6q-20 8 -20 20.5z M897 1208q0 23 35 68t68 45t63 -41q31 -39 31 -76q0 -35 -39 -73.5t-57 -38.5q-39 0 -70 42.5t-31 73.5zM59 788q0 37 18.5 49.5t67.5 12.5h21h22q25 0 31 10q6 12 6 37q0 123 33 227q35 113 84 179q61 84 111 124q66 55 118 78q58 25 105 25q45 0 78 -17q29 -14 28 -40 q0 -18 -12 -58q0 -8 -2 -14l-4 -12q0 -4 -4 -13q0 -2 -1 -5t-3 -5l-6 -6l-2 -3q-2 -4 -5 -3l-4 -2q-4 -2 -6 -2h-10q-8 0 -16 8q-4 4 -7.5 8t-9.5 10q-8 8 -39 19q-25 8 -73 8q-51 0 -89 -29q-43 -33 -63 -76q-22 -46 -37 -110q-16 -72 -22 -125q-4 -41 -5 -125v-27v-24 q0 -39 25 -39q113 0 197 16q10 4 22 13q10 8 20.5 8t10.5 -17q0 -31 -29 -77q-12 -18 -51 -19q-16 0 -38.5 -1t-29.5 -1h-92q-33 0 -32 -20v-119v-17q0 -16 1 -51t3 -80t3 -113.5t3 -144.5q0 -12 1 -29.5t1 -21.5q0 -6 8 -47q6 -29 21 -47q14 -16 36 -29q25 -12 62 -12 q10 0 18 -4t10 -6q4 -4 5 -9l1 -5q1 -5 1 -7q0 -20 -23 -20q-14 0 -43 2q-57 4 -90 6t-72 2q-49 0 -73 -4q-37 -6 -78 -6q-31 0 -31 28q0 6 16 17q6 4 15.5 9t19.5 9q16 8 32.5 37t16.5 70q0 37 -2 82q-2 25 -3 94t-1 102q-2 86 -2 299q0 20 -8 29q-4 4 -27 4q-18 0 -36 -2 q-37 -4 -46 -4q-18 0 -30 4q-10 4 -12.5 8t-2.5 14z" />
<glyph unicode="&#xfb02;" horiz-adv-x="1277" d="M748 1419q0 14 2 18.5t14 10.5q8 4 24.5 8t41.5 12q27 8 57 23q6 2 51 22q18 8 62 25q27 10 43 10q25 0 24 -39q0 -2 -1 -8t-2 -18.5t-1 -22.5q-8 -100 -8 -110q-4 -94 -4 -152v-115q0 -119 -2 -164t-2 -108v-610q0 -29 2 -41q4 -25 10 -39q8 -18 27 -37q10 -10 49 -23 q35 -10 78 -10q8 0 18 -10q8 -8 8 -21q0 -29 -63 -28q-6 0 -17.5 1l-34 3t-42.5 4q-76 6 -113 6q-57 0 -100 -8t-66 -8q-12 0 -24 8q-8 6 -9 12q0 18 8.5 24.5t32.5 12.5l12.5 4t10.5 3t6 1q35 16 45 45q10 31 10 88v25q0 6 -1 15.5t-1 13.5v151q0 23 1 73t2 146.5t1 184.5 q4 434 5 467q0 47 -14.5 83.5t-35.5 47.5q-25 8 -82 8q-22 0 -22 16zM59 788q0 37 18.5 49.5t67.5 12.5h21h22q25 0 31 10q6 12 6 37q0 123 33 227q35 113 84 179q61 84 111 124q66 55 118 78q58 25 105 25q45 0 78 -17q29 -14 28 -40q0 -18 -12 -58q0 -8 -2 -14l-4 -12 q0 -4 -4 -13q0 -2 -1 -5t-3 -5l-6 -6l-2 -3q-2 -4 -5 -3l-4 -2q-4 -2 -6 -2h-10q-8 0 -16 8q-4 4 -7.5 8t-9.5 10q-8 8 -39 19q-25 8 -73 8q-51 0 -89 -29q-43 -33 -63 -76q-22 -46 -37 -110q-16 -72 -22 -125q-4 -41 -5 -125v-27v-24q0 -39 25 -39q113 0 197 16q10 4 22 13 q10 8 20.5 8t10.5 -17q0 -31 -29 -77q-12 -18 -51 -19q-16 0 -38.5 -1t-29.5 -1h-92q-33 0 -32 -20v-119v-17q0 -16 1 -51t3 -80t3 -113.5t3 -144.5q0 -12 1 -29.5t1 -21.5q0 -6 8 -47q6 -29 21 -47q14 -16 36 -29q25 -12 62 -12q10 0 18 -4t10 -6q4 -4 5 -9l1 -5q1 -5 1 -7 q0 -20 -23 -20q-14 0 -43 2q-57 4 -90 6t-72 2q-49 0 -73 -4q-37 -6 -78 -6q-31 0 -31 28q0 6 16 17q6 4 15.5 9t19.5 9q16 8 32.5 37t16.5 70q0 37 -2 82q-2 25 -3 94t-1 102q-2 86 -2 299q0 20 -8 29q-4 4 -27 4q-18 0 -36 -2q-37 -4 -46 -4q-18 0 -30 4q-10 4 -12.5 8 t-2.5 14z" />
<glyph unicode="&#xfb03;" horiz-adv-x="1992" d="M1485 780.5q0 12.5 4 16.5q6 6 20 12q4 2 16.5 6t16.5 6t19.5 7.5l27.5 9.5q6 2 19.5 7l23.5 9t19 8q29 12 41 19q6 4 16 8l10 4q2 2 7 3t8 1q6 2 20 2q12 0 20 -8q10 -10 11 -31q0 -12 -6.5 -45t-6.5 -53v-561q0 -47 15 -86q12 -33 31 -45q10 -8 43 -17q14 -4 43 -4 q20 0 32.5 -6t12.5 -23q0 -35 -35 -34h-15q-4 0 -9 1t-7 1q-55 0 -75.5 2t-69.5 2q-61 0 -90 -2t-56 -2q-82 0 -82 26q0 14 8 25q8 12 23 14q45 16 53 25q23 23 29 119q2 39 2 225v180q0 39 -8 80q-6 35 -20.5 45t-28.5 18q-10 4 -33 9q-18 2 -29 6q-20 8 -20 20.5z M1601 1208q0 23 35 68t68 45t63 -41q31 -39 31 -76q0 -35 -39 -73.5t-57 -38.5q-39 0 -70 42.5t-31 73.5zM766 788q0 37 18.5 49.5t67.5 12.5h21h22q25 0 31 10q6 12 6 37q0 123 33 227q35 113 84 179q61 84 111 124q66 55 118 78q58 25 105 25q45 0 78 -17q29 -14 28 -40 q0 -18 -12 -58q0 -8 -2 -14l-4 -12q0 -4 -4 -13q0 -2 -1 -5t-3 -5l-6 -6l-2 -3q-2 -4 -5 -3l-4 -2q-4 -2 -6 -2h-10q-8 0 -16 8q-4 4 -7.5 8t-9.5 10q-8 8 -39 19q-25 8 -73 8q-51 0 -89 -29q-43 -33 -63 -76q-22 -46 -37 -110q-16 -72 -22 -125q-4 -41 -5 -125v-27v-24 q0 -39 25 -39q113 0 197 16q10 4 22 13q10 8 20.5 8t10.5 -17q0 -31 -29 -77q-12 -18 -51 -19q-16 0 -38.5 -1t-29.5 -1h-92q-33 0 -32 -20v-119v-17q0 -16 1 -51t3 -80t3 -113.5t3 -144.5q0 -12 1 -29.5t1 -21.5q0 -6 8 -47q6 -29 21 -47q14 -16 36 -29q25 -12 62 -12 q10 0 18 -4t10 -6q4 -4 5 -9l1 -5q1 -5 1 -7q0 -20 -23 -20q-14 0 -43 2q-57 4 -90 6t-72 2q-49 0 -73 -4q-37 -6 -78 -6q-31 0 -31 28q0 6 16 17q6 4 15.5 9t19.5 9q16 8 32.5 37t16.5 70q0 37 -2 82q-2 25 -3 94t-1 102q-2 86 -2 299q0 20 -8 29q-4 4 -27 4q-18 0 -36 -2 q-37 -4 -46 -4q-18 0 -30 4q-10 4 -12.5 8t-2.5 14zM59 788q0 37 18.5 49.5t67.5 12.5h21h22q25 0 31 10q6 12 6 37q0 123 33 227q35 113 84 179q61 84 111 124q66 55 118 78q58 25 105 25q45 0 78 -17q29 -14 28 -40q0 -18 -12 -58q0 -8 -2 -14l-4 -12q0 -4 -4 -13 q0 -2 -1 -5t-3 -5l-6 -6l-2 -3q-2 -4 -5 -3l-4 -2q-4 -2 -6 -2h-10q-8 0 -16 8q-4 4 -7.5 8t-9.5 10q-8 8 -39 19q-25 8 -73 8q-51 0 -89 -29q-43 -33 -63 -76q-22 -46 -37 -110q-16 -72 -22 -125q-4 -41 -5 -125v-27v-24q0 -39 25 -39q113 0 197 16q10 4 22 13q10 8 20.5 8 t10.5 -17q0 -31 -29 -77q-12 -18 -51 -19q-16 0 -38.5 -1t-29.5 -1h-92q-33 0 -32 -20v-119v-17q0 -16 1 -51t3 -80t3 -113.5t3 -144.5q0 -12 1 -29.5t1 -21.5q0 -6 8 -47q6 -29 21 -47q14 -16 36 -29q25 -12 62 -12q10 0 18 -4t10 -6q4 -4 5 -9l1 -5q1 -5 1 -7 q0 -20 -23 -20q-14 0 -43 2q-57 4 -90 6t-72 2q-49 0 -73 -4q-37 -6 -78 -6q-31 0 -31 28q0 6 16 17q6 4 15.5 9t19.5 9q16 8 32.5 37t16.5 70q0 37 -2 82q-2 25 -3 94t-1 102q-2 86 -2 299q0 20 -8 29q-4 4 -27 4q-18 0 -36 -2q-37 -4 -46 -4q-18 0 -30 4q-10 4 -12.5 8 t-2.5 14z" />
<glyph unicode="&#xfb04;" horiz-adv-x="1982" d="M1452 1419q0 14 2 18.5t14 10.5q8 4 24.5 8t41.5 12q27 8 57 23q6 2 51 22q18 8 62 25q27 10 43 10q25 0 24 -39q0 -2 -1 -8t-2 -18.5t-1 -22.5q-8 -100 -8 -110q-4 -94 -4 -152v-115q0 -119 -2 -164t-2 -108v-610q0 -29 2 -41q4 -25 10 -39q8 -18 27 -37q10 -10 49 -23 q35 -10 78 -10q8 0 18 -10q8 -8 8 -21q0 -29 -63 -28q-6 0 -17.5 1l-34 3t-42.5 4q-76 6 -113 6q-57 0 -100 -8t-66 -8q-12 0 -24 8q-8 6 -9 12q0 18 8.5 24.5t32.5 12.5l12.5 4t10.5 3t6 1q35 16 45 45q10 31 10 88v25q0 6 -1 15.5t-1 13.5v151q0 23 1 73t2 146.5t1 184.5 q4 434 5 467q0 47 -14.5 83.5t-35.5 47.5q-25 8 -82 8q-22 0 -22 16zM766 788q0 37 18.5 49.5t67.5 12.5h21h22q25 0 31 10q6 12 6 37q0 123 33 227q35 113 84 179q61 84 111 124q66 55 118 78q58 25 105 25q45 0 78 -17q29 -14 28 -40q0 -18 -12 -58q0 -8 -2 -14l-4 -12 q0 -4 -4 -13q0 -2 -1 -5t-3 -5l-6 -6l-2 -3q-2 -4 -5 -3l-4 -2q-4 -2 -6 -2h-10q-8 0 -16 8q-4 4 -7.5 8t-9.5 10q-8 8 -39 19q-25 8 -73 8q-51 0 -89 -29q-43 -33 -63 -76q-22 -46 -37 -110q-16 -72 -22 -125q-4 -41 -5 -125v-27v-24q0 -39 25 -39q113 0 197 16q10 4 22 13 q10 8 20.5 8t10.5 -17q0 -31 -29 -77q-12 -18 -51 -19q-16 0 -38.5 -1t-29.5 -1h-92q-33 0 -32 -20v-119v-17q0 -16 1 -51t3 -80t3 -113.5t3 -144.5q0 -12 1 -29.5t1 -21.5q0 -6 8 -47q6 -29 21 -47q14 -16 36 -29q25 -12 62 -12q10 0 18 -4t10 -6q4 -4 5 -9l1 -5q1 -5 1 -7 q0 -20 -23 -20q-14 0 -43 2q-57 4 -90 6t-72 2q-49 0 -73 -4q-37 -6 -78 -6q-31 0 -31 28q0 6 16 17q6 4 15.5 9t19.5 9q16 8 32.5 37t16.5 70q0 37 -2 82q-2 25 -3 94t-1 102q-2 86 -2 299q0 20 -8 29q-4 4 -27 4q-18 0 -36 -2q-37 -4 -46 -4q-18 0 -30 4q-10 4 -12.5 8 t-2.5 14zM59 788q0 37 18.5 49.5t67.5 12.5h21h22q25 0 31 10q6 12 6 37q0 123 33 227q35 113 84 179q61 84 111 124q66 55 118 78q58 25 105 25q45 0 78 -17q29 -14 28 -40q0 -18 -12 -58q0 -8 -2 -14l-4 -12q0 -4 -4 -13q0 -2 -1 -5t-3 -5l-6 -6l-2 -3q-2 -4 -5 -3l-4 -2 q-4 -2 -6 -2h-10q-8 0 -16 8q-4 4 -7.5 8t-9.5 10q-8 8 -39 19q-25 8 -73 8q-51 0 -89 -29q-43 -33 -63 -76q-22 -46 -37 -110q-16 -72 -22 -125q-4 -41 -5 -125v-27v-24q0 -39 25 -39q113 0 197 16q10 4 22 13q10 8 20.5 8t10.5 -17q0 -31 -29 -77q-12 -18 -51 -19 q-16 0 -38.5 -1t-29.5 -1h-92q-33 0 -32 -20v-119v-17q0 -16 1 -51t3 -80t3 -113.5t3 -144.5q0 -12 1 -29.5t1 -21.5q0 -6 8 -47q6 -29 21 -47q14 -16 36 -29q25 -12 62 -12q10 0 18 -4t10 -6q4 -4 5 -9l1 -5q1 -5 1 -7q0 -20 -23 -20q-14 0 -43 2q-57 4 -90 6t-72 2 q-49 0 -73 -4q-37 -6 -78 -6q-31 0 -31 28q0 6 16 17q6 4 15.5 9t19.5 9q16 8 32.5 37t16.5 70q0 37 -2 82q-2 25 -3 94t-1 102q-2 86 -2 299q0 20 -8 29q-4 4 -27 4q-18 0 -36 -2q-37 -4 -46 -4q-18 0 -30 4q-10 4 -12.5 8t-2.5 14z" />
</font>
</defs>
</svg>
